<svg xmlns="http://www.w3.org/2000/svg" width="228" height="41.928" viewBox="0 0 228 41.928">
  <g id="로고" transform="translate(-47.858 -29.172)">
    <path id="패스_20" data-name="패스 20" d="M47.858,69.536v-39.8h6.451V64H76.146v5.534Z" transform="translate(0 0.335)" fill="#090909"/>
    <path id="패스_21" data-name="패스 21" d="M80.788,35.322V69.646l-6.51-.11-.059-34.214H60.845v-5.59h33.5v5.59Z" transform="translate(7.785 0.336)" fill="#090909"/>
    <path id="패스_22" data-name="패스 22" d="M80.788,35.322V69.646l-6.51-.11-.059-34.214H60.845v-5.59h33.5v5.59Z" transform="translate(7.785 0.336)" fill="#090909"/>
    <path id="패스_23" data-name="패스 23" d="M115.046,34.932q5.386,5.758,5.387,15.092,0,9.393-5.387,15.235t-14.2,5.841q-8.819,0-14.086-5.841T81.491,50.024q0-9.333,5.267-15.092t14.086-5.76q8.817,0,14.2,5.76m-5,26.246q3.344-4.331,3.343-11.153,0-6.761-3.343-11.011a11.069,11.069,0,0,0-9.2-4.251,10.884,10.884,0,0,0-9.173,4.251q-3.256,4.247-3.255,11.011,0,6.823,3.255,11.153a10.8,10.8,0,0,0,9.173,4.333,10.98,10.98,0,0,0,9.2-4.333" transform="translate(16.75 0)" fill="#090909"/>
    <path id="패스_24" data-name="패스 24" d="M115.046,34.932q5.386,5.758,5.387,15.092,0,9.393-5.387,15.235t-14.2,5.841q-8.819,0-14.086-5.841T81.491,50.024q0-9.333,5.267-15.092t14.086-5.76Q109.661,29.172,115.046,34.932Zm-5,26.246q3.344-4.331,3.343-11.153,0-6.761-3.343-11.011a11.069,11.069,0,0,0-9.2-4.251,10.884,10.884,0,0,0-9.173,4.251q-3.256,4.247-3.255,11.011,0,6.823,3.255,11.153a10.8,10.8,0,0,0,9.173,4.333A10.98,10.98,0,0,0,110.046,61.177Z" transform="translate(16.75 0)" fill="#090909"/>
    <path id="패스_25" data-name="패스 25" d="M136.375,33.163a11.04,11.04,0,0,1,4.173,8.888,11.3,11.3,0,0,1-4.173,8.834,14.913,14.913,0,0,1-10.15,3.632h-10.83v15.15h-6.451V29.7h17.281a15.356,15.356,0,0,1,10.15,3.466m-5.089,14.115a5.794,5.794,0,0,0,2.514-5.227q0-3.632-2.514-5.171a10.3,10.3,0,0,0-5.475-1.537H115.395V48.927H125.81a9.794,9.794,0,0,0,5.475-1.649" transform="translate(30.64 0.315)" fill="#090909"/>
    <path id="패스_26" data-name="패스 26" d="M136.375,33.163a11.04,11.04,0,0,1,4.173,8.888,11.3,11.3,0,0,1-4.173,8.834,14.913,14.913,0,0,1-10.15,3.632h-10.83v15.15h-6.451V29.7h17.281A15.356,15.356,0,0,1,136.375,33.163Zm-5.089,14.115a5.794,5.794,0,0,0,2.514-5.227q0-3.632-2.514-5.171a10.3,10.3,0,0,0-5.475-1.537H115.395V48.927H125.81A9.794,9.794,0,0,0,131.285,47.278Z" transform="translate(30.64 0.315)" fill="#090909"/>
    <path id="패스_27" data-name="패스 27" d="M131.366,69.536v-39.8h6.451V64h21.837v5.534Z" transform="translate(42.014 0.335)" fill="#090909"/>
    <path id="패스_28" data-name="패스 28" d="M184.293,69.667l-4.082-9.614H160.68l-4.023,9.614h-6.571l16.63-39.97h7.4l16.75,39.97ZM170.447,36.575l-7.34,17.776h14.737Z" transform="translate(50.818 0.315)" fill="#090909"/>
    <path id="패스_29" data-name="패스 29" d="M203.27,69.592l-19.056-31.14V69.646h-6.451V29.732h7.457L204.395,60.76l.059-31.028h6.273l.059,39.86Z" transform="translate(65.072 0.336)" fill="#090909"/>
  </g>
</svg>
