<svg xmlns="http://www.w3.org/2000/svg" xmlns:xlink="http://www.w3.org/1999/xlink" width="142.572" height="124.949" viewBox="0 0 142.572 124.949">
  <defs>
    <linearGradient id="linear-gradient" y1="0.5" x2="1" y2="0.5" gradientUnits="objectBoundingBox">
      <stop offset="0" stop-color="#e8b4d5"/>
      <stop offset="0.175" stop-color="#deb4d6"/>
      <stop offset="0.466" stop-color="#c5b7dc"/>
      <stop offset="0.835" stop-color="#9bbbe4"/>
      <stop offset="1" stop-color="#87bee9"/>
    </linearGradient>
  </defs>
  <g id="로고" transform="translate(-1190.095 -2628)">
    <path id="패스_19" data-name="패스 19" d="M230.194,363.629,260.8,310.608Z" transform="translate(1061.798 2370.412)" fill="#161615"/>
    <path id="패스_20" data-name="패스 20" d="M245.512,363.8V265.391h-26.8v-7.053h60.646v7.053h-26.8V363.8Z" transform="translate(1012.343 2369.95)" fill="url(#linear-gradient)"/>
    <path id="패스_21" data-name="패스 21" d="M278.611,258.165v6.476h-26.8v98.411h-6.476V264.641h-26.8v-6.476h60.069Zm.577-.577H217.966v7.63h26.8v98.411h7.63V265.218h26.8Z" transform="translate(1012.804 2370.412)" fill="#161615"/>
    <path id="패스_22" data-name="패스 22" d="M251.181,365.111V266.7h-26.8v-2.693H280.67V266.7h-26.8v98.41Z" transform="translate(1008.853 2366.461)" fill="#161615"/>
    <path id="패스_23" data-name="패스 23" d="M279.921,263.834v2.116h-26.8v98.411h-2.116V265.95h-26.8v-2.116Zm.577-.577H223.635v3.27h26.8v98.411h3.27V266.527h26.8Z" transform="translate(1009.315 2366.923)" fill="#161615"/>
    <path id="패스_24" data-name="패스 24" d="M139.384,311.344l91.334-52.732,30.323,52.52-6.109,3.527-26.8-46.413L149.02,313.926l26.8,46.412-6.109,3.527Z" transform="translate(1061.168 2369.781)" fill="url(#linear-gradient)"/>
    <path id="패스_25" data-name="패스 25" d="M229.983,258.376l3.527,6.108L260.017,310.4l-5.609,3.238L227.9,267.723l-.288-.5-.5.288L148.495,312.9l-.5.288.288.5L174.791,359.6l-5.609,3.238-26.508-45.913-3.527-6.108,6.108-3.527,78.618-45.39Zm.211-.788-6.608,3.815-78.618,45.39-6.608,3.815,3.815,6.608,26.8,46.413,6.608-3.815-26.8-46.413,78.618-45.39,26.8,46.413,6.608-3.815-26.8-46.412Z" transform="translate(1061.798 2370.412)" fill="#161615"/>
    <path id="패스_26" data-name="패스 26" d="M147.129,316.908l87.558-50.552L262.83,315.1l-2.333,1.347-26.8-46.412-82.894,47.858,26.8,46.413-2.332,1.347Z" transform="translate(1056.401 2365.015)" fill="#161615"/>
    <path id="패스_27" data-name="패스 27" d="M233.951,266.12,261.8,314.365l-1.833,1.058-26.507-45.913-.288-.5-.5.288-82.394,47.57-.5.288.288.5,26.508,45.913-1.832,1.058-27.854-48.245Zm.211-.788L146.1,316.172l28.431,49.244,2.832-1.635-26.8-46.412,82.394-47.57,26.8,46.412,2.832-1.635Z" transform="translate(1057.032 2365.646)" fill="#161615"/>
    <path id="패스_28" data-name="패스 28" d="M139.384,311.133l30.323-52.521,91.334,52.732-3.527,6.108-85.226-49.205-23.269,40.3,85.225,49.205-3.527,6.108Z" transform="translate(1061.168 2369.782)" fill="url(#linear-gradient)"/>
    <path id="패스_29" data-name="패스 29" d="M169.182,258.376l6.108,3.527,84.726,48.917-3.238,5.609-84.726-48.917-.5-.288-.288.5-22.981,39.8-.288.5.5.288,84.726,48.916-3.238,5.609-84.726-48.917-6.109-3.526,3.527-6.109,22.981-39.8Zm-.211-.788-3.815,6.608L142.175,304l-3.815,6.608,6.608,3.815,85.226,49.205,3.815-6.609-85.226-49.2,22.981-39.8,85.226,49.205,3.815-6.608L175.579,261.4Z" transform="translate(1061.798 2370.412)" fill="#161615"/>
    <path id="패스_30" data-name="패스 30" d="M147.129,315.1l28.143-48.745,87.558,50.552-1.347,2.333-85.226-49.205-25.45,44.08,85.226,49.2-1.347,2.333Z" transform="translate(1056.401 2365.015)" fill="#161615"/>
    <path id="패스_31" data-name="패스 31" d="M174.746,266.121l87.059,50.263-1.058,1.833L176.02,269.3l-.5-.288-.288.5-25.161,43.58-.288.5.5.288L235.009,362.8l-1.058,1.833-87.059-50.264Zm-.211-.788L146.1,314.577l88.058,50.839,1.635-2.831L150.571,313.38l25.161-43.58L260.958,319l1.635-2.832Z" transform="translate(1057.032 2365.645)" fill="#161615"/>
    <g id="그룹_4" data-name="그룹 4" transform="translate(1190.095 2745.739)">
      <path id="패스_32" data-name="패스 32" d="M113.186,565.926v5.106h-1v-7.049h1.389l1.137,4.219v-4.219h.989v7.049h-1.137Z" transform="translate(-112.19 -563.902)" fill="#161615"/>
      <path id="패스_33" data-name="패스 33" d="M136.45,566.954h1.522v1.007H136.45v2.062h1.915v1.007h-3.024v-7.049h3.023v1.007H136.45Z" transform="translate(-126.438 -563.902)" fill="#161615"/>
      <path id="패스_34" data-name="패스 34" d="M158.984,567.276l-.4,3.756h-1.52l-.787-7.05h1.076l.6,5.559.533-5.559h1.069l.554,5.6.572-5.6h.968l-.785,7.049h-1.471Z" transform="translate(-139.323 -563.902)" fill="#161615"/>
      <path id="패스_35" data-name="패스 35" d="M198.784,563.982h3.423v1.006h-1.158v6.042h-1.106V564.99h-1.16Z" transform="translate(-165.485 -563.902)" fill="#161615"/>
      <path id="패스_36" data-name="패스 36" d="M223.206,571.032a2.143,2.143,0,0,1-.1-.867v-1.107c0-.655-.223-.9-.725-.9H222v2.87H220.89v-7.05h1.671c1.148,0,1.642.534,1.642,1.622v.554a1.4,1.4,0,0,1-.725,1.43c.554.231.734.766.734,1.5v1.087a2.068,2.068,0,0,0,.124.857ZM222,564.989v2.166h.433c.411,0,.665-.181.665-.745v-.695c0-.5-.173-.724-.563-.725Z" transform="translate(-179.091 -563.901)" fill="#161615"/>
      <path id="패스_37" data-name="패스 37" d="M244.47,566.953h1.522v1.008H244.47v2.064h1.914v1.008h-3.023v-7.049h3.023v1.007H244.47Z" transform="translate(-192.921 -563.902)" fill="#161615"/>
      <path id="패스_38" data-name="패스 38" d="M265.918,565.926v5.106h-1v-7.049h1.389l1.137,4.219v-4.219h.987v7.05H267.3Z" transform="translate(-206.19 -563.902)" fill="#161615"/>
      <path id="패스_39" data-name="패스 39" d="M288.073,563.982h1.754c1.109,0,1.649.615,1.65,1.742v3.566c0,1.128-.541,1.742-1.649,1.742h-1.755Zm1.109,1.008v5.034h.626c.351,0,.564-.181.564-.685v-3.666c0-.5-.213-.684-.563-.684Z" transform="translate(-220.439 -563.901)" fill="#161615"/>
      <path id="패스_40" data-name="패스 40" d="M329.779,568.274v.936c0,1.128-.565,1.772-1.654,1.772s-1.651-.644-1.65-1.772v-3.666c0-1.127.565-1.772,1.651-1.772s1.654.645,1.654,1.772v.685h-1.047v-.756c0-.5-.221-.695-.577-.694s-.573.191-.573.694v3.807c0,.5.222.684.572.683s.578-.181.578-.683v-1.008Z" transform="translate(-244.074 -563.772)" fill="#161615"/>
      <path id="패스_41" data-name="패스 41" d="M351.082,571.033a2.19,2.19,0,0,1-.1-.867v-1.107c0-.654-.221-.9-.724-.9h-.385v2.87h-1.1v-7.049h1.67c1.149,0,1.642.533,1.643,1.62v.555a1.4,1.4,0,0,1-.726,1.43c.555.231.735.766.736,1.5v1.087a2.118,2.118,0,0,0,.12.857Zm-1.209-6.043v2.166h.435c.412,0,.664-.181.664-.746v-.7c0-.5-.171-.724-.563-.724Z" transform="translate(-257.795 -563.903)" fill="#161615"/>
      <path id="패스_42" data-name="패스 42" d="M372.345,566.954h1.522v1.008h-1.522v2.064h1.914v1.007h-3.02v-7.05h3.02v1.007h-1.915Z" transform="translate(-271.626 -563.902)" fill="#161615"/>
      <path id="패스_43" data-name="패스 43" d="M395.942,571.032h-1.119l-.192-1.28h-1.356l-.195,1.279h-1.014l1.126-7.05h1.623Zm-2.529-2.237h1.069l-.534-3.564Z" transform="translate(-284.443 -563.901)" fill="#161615"/>
      <path id="패스_44" data-name="패스 44" d="M413.59,563.982h3.426v1.006h-1.16v6.042h-1.1v-6.044h-1.16Z" transform="translate(-297.69 -563.902)" fill="#161615"/>
      <rect id="사각형_5" data-name="사각형 5" width="1.109" height="7.049" transform="translate(124.4 0.081)" fill="#161615"/>
      <path id="패스_45" data-name="패스 45" d="M453.821,569.733l.847-5.75h1.018l-1.09,7.049h-1.649l-1.091-7.049h1.119Z" transform="translate(-321.242 -563.902)" fill="#161615"/>
      <path id="패스_46" data-name="패스 46" d="M476.2,566.954h1.521v1.007H476.2v2.062h1.914v1.007H475.1v-7.049h3.02v1.006H476.2Z" transform="translate(-335.545 -563.902)" fill="#161615"/>
    </g>
  </g>
</svg>
