<svg xmlns="http://www.w3.org/2000/svg" width="22" height="22" viewBox="0 0 22 22">
  <g id="navi-circle1-on" transform="translate(-1817.9 -76.6)">
    <path id="패스_365" data-name="패스 365" d="M2429.7,2153.483c0,5.852-4.881,9.412-10.688,9.412s-9.81-4.1-9.81-9.949a9.634,9.634,0,0,1,9.956-10.046c3.075,0,5.271,2.048,7.174,4.194C2428.038,2149,2429.7,2150.752,2429.7,2153.483Z" transform="translate(-589.798 -2064.295)" fill="#cab9d9"/>
    <path id="패스_367" data-name="패스 367" d="M2428.7,2151.483c0,5.852-4.881,9.412-10.688,9.412s-9.81-4.1-9.81-9.949a9.634,9.634,0,0,1,9.956-10.046c3.075,0,5.271,2.048,7.174,4.194C2427.038,2147,2428.7,2148.752,2428.7,2151.483Z" transform="translate(-590.3 -2064.3)" fill="#b77af2"/>
  </g>
</svg>
