<svg xmlns="http://www.w3.org/2000/svg" width="111.523" height="129.47" viewBox="0 0 111.523 129.47">
  <g id="jldessertbar_logo" transform="translate(-651.74 -443.864)">
    <g id="그룹_6" data-name="그룹 6" transform="translate(676.612 443.864)">
      <g id="그룹_4" data-name="그룹 4">
        <path id="패스_19" data-name="패스 19" d="M691.056,494.45a2.938,2.938,0,0,0-.477,1.828q0,3.264,3.284,5.937c2.19,1.785,6.266,2.889,9.455,2.889,3.627,0,11.09-.377,13.177-2.887s3.131-6.009,3.131-10.5V450.518a2.958,2.958,0,0,0-1.152-2.544,6.877,6.877,0,0,0-3.936-.846h-5.7v-3.263h28.447v3.263h-4.045a5.3,5.3,0,0,0-3.415.868,3.139,3.139,0,0,0-1.023,2.523v41.717a16.089,16.089,0,0,1-9.221,14.9c-3.016,1.522-11.029,1.407-14.829,1.407a25.237,25.237,0,0,1-3.087,0,20.327,20.327,0,0,1-10.958-4.757,14.534,14.534,0,0,1-4.822-9.332Z" transform="translate(-685.887 -443.864)" fill="#25170d"/>
      </g>
      <g id="그룹_5" data-name="그룹 5" transform="translate(6.455 22.884)">
        <path id="패스_20" data-name="패스 20" d="M694.749,475.281h29.839v3.262h-7.134a3.212,3.212,0,0,0-2.5.892,4.1,4.1,0,0,0-.8,2.806v50.764a3.02,3.02,0,0,0,1.021,2.588q1.019.76,4.105.762h9.036a15.573,15.573,0,0,0,11.794-4.808q4.583-4.806,6.668-16.681h3.045l-1.479,24.749h-53.59v-3.26h5.263a5.5,5.5,0,0,0,3.785-1.024,4.33,4.33,0,0,0,1.087-3.284V481.806a3.117,3.117,0,0,0-.914-2.436,3.9,3.9,0,0,0-2.7-.826h-6.524Z" transform="translate(-694.749 -475.281)" fill="#25170d"/>
      </g>
    </g>
    <g id="그룹_7" data-name="그룹 7" transform="translate(651.74 561.804)">
      <path id="패스_21" data-name="패스 21" d="M651.74,606.1h5.728a4.254,4.254,0,0,1,4.052,2.347,6.116,6.116,0,0,1,.776,3.142,7.425,7.425,0,0,1-.465,2.7,4.311,4.311,0,0,1-1.083,1.612,4.676,4.676,0,0,1-1.781,1.034,6.994,6.994,0,0,1-2.1.255H651.74v-.562h1.05a.886.886,0,0,0,.551-.128.487.487,0,0,0,.154-.4v-8.929a.46.46,0,0,0-.165-.371.689.689,0,0,0-.457-.138H651.74Zm4.019.563a.74.74,0,0,0-.5.142.542.542,0,0,0-.161.427v8.846a.476.476,0,0,0,.188.409,1.1,1.1,0,0,0,.637.139h.944a3.832,3.832,0,0,0,2.219-.653,2.7,2.7,0,0,0,.945-1.222,7.863,7.863,0,0,0,.442-2.939,6.813,6.813,0,0,0-.967-4.063,2.926,2.926,0,0,0-2.489-1.087Z" transform="translate(-651.74 -605.87)" fill="#25170d"/>
      <path id="패스_22" data-name="패스 22" d="M668.795,606.1h8.786l.21,3.741h-.5a4.929,4.929,0,0,0-.947-2.474,2.186,2.186,0,0,0-1.688-.7h-2.171a.521.521,0,0,0-.4.142.613.613,0,0,0-.135.435v3.951h.949a1.559,1.559,0,0,0,1.237-.547,2.651,2.651,0,0,0,.512-1.68h.518V614.1h-.518a2.9,2.9,0,0,0-.519-1.826,1.655,1.655,0,0,0-1.312-.551h-.867v4.408a.44.44,0,0,0,.161.367.87.87,0,0,0,.535.128h1.715q2.793,0,3.219-3.569h.54l-.187,4.131h-9.139v-.562h.758a.968.968,0,0,0,.622-.154.555.555,0,0,0,.18-.447v-8.786a.557.557,0,0,0-.158-.435.723.723,0,0,0-.495-.142h-.907Z" transform="translate(-656.372 -605.87)" fill="#25170d"/>
      <path id="패스_23" data-name="패스 23" d="M690.109,606.856l.674-.967h.548l.044,4.04h-.495a5.472,5.472,0,0,0-1.376-2.714,2.978,2.978,0,0,0-2.1-.854,2.27,2.27,0,0,0-1.619.592,1.916,1.916,0,0,0-.629,1.449,1.783,1.783,0,0,0,.24.935,1.758,1.758,0,0,0,.715.652,7.927,7.927,0,0,0,1.8.535,10.543,10.543,0,0,1,2.6.815,2.676,2.676,0,0,1,1.481,2.5,3.33,3.33,0,0,1-1.008,2.486,3.57,3.57,0,0,1-2.605.985,4.385,4.385,0,0,1-2.984-1.109l-.847,1.035h-.54v-4.3h.54a4.881,4.881,0,0,0,1.409,2.8,3.513,3.513,0,0,0,2.466,1.027,2.543,2.543,0,0,0,1.81-.656,2.1,2.1,0,0,0,.7-1.594,1.668,1.668,0,0,0-.262-.933,1.984,1.984,0,0,0-.833-.674,12.758,12.758,0,0,0-2.241-.664,6.724,6.724,0,0,1-2.5-.975,2.637,2.637,0,0,1-.937-2.167,3.2,3.2,0,0,1,3.321-3.329,3.588,3.588,0,0,1,1.327.248A4.678,4.678,0,0,1,690.109,606.856Z" transform="translate(-660.504 -605.783)" fill="#25170d"/>
      <path id="패스_24" data-name="패스 24" d="M703.386,606.856l.675-.967h.547l.045,4.04h-.5a5.471,5.471,0,0,0-1.375-2.714,2.978,2.978,0,0,0-2.1-.854,2.268,2.268,0,0,0-1.619.592,1.915,1.915,0,0,0-.63,1.449,1.789,1.789,0,0,0,.24.935,1.767,1.767,0,0,0,.715.652,7.939,7.939,0,0,0,1.8.535,10.566,10.566,0,0,1,2.6.815,2.676,2.676,0,0,1,1.48,2.5,3.33,3.33,0,0,1-1.008,2.486,3.57,3.57,0,0,1-2.605.985,4.386,4.386,0,0,1-2.983-1.109l-.847,1.035h-.54v-4.3h.54a4.88,4.88,0,0,0,1.409,2.8,3.514,3.514,0,0,0,2.466,1.027,2.545,2.545,0,0,0,1.811-.656,2.1,2.1,0,0,0,.7-1.594,1.668,1.668,0,0,0-.262-.933,1.986,1.986,0,0,0-.832-.674,12.791,12.791,0,0,0-2.242-.664,6.715,6.715,0,0,1-2.5-.975,2.637,2.637,0,0,1-.937-2.167,3.2,3.2,0,0,1,3.321-3.329,3.584,3.584,0,0,1,1.326.248A4.668,4.668,0,0,1,703.386,606.856Z" transform="translate(-664.11 -605.783)" fill="#25170d"/>
      <path id="패스_25" data-name="패스 25" d="M710.572,606.1h8.786l.21,3.741h-.5a4.928,4.928,0,0,0-.947-2.474,2.186,2.186,0,0,0-1.688-.7h-2.171a.521.521,0,0,0-.4.142.613.613,0,0,0-.135.435v3.951h.949a1.561,1.561,0,0,0,1.237-.547,2.652,2.652,0,0,0,.512-1.68h.518V614.1h-.518a2.9,2.9,0,0,0-.519-1.826,1.656,1.656,0,0,0-1.313-.551h-.867v4.408a.44.44,0,0,0,.161.367.87.87,0,0,0,.535.128h1.715q2.793,0,3.219-3.569h.54l-.188,4.131h-9.138v-.562h.758a.968.968,0,0,0,.622-.154.556.556,0,0,0,.18-.447v-8.786a.557.557,0,0,0-.158-.435.722.722,0,0,0-.495-.142h-.907Z" transform="translate(-667.719 -605.87)" fill="#25170d"/>
      <path id="패스_26" data-name="패스 26" d="M724.95,606.1h5.727a3.952,3.952,0,0,1,2.583.758,2.451,2.451,0,0,1,.919,1.987,2.4,2.4,0,0,1-.363,1.308,2.56,2.56,0,0,1-1.05.915,6.687,6.687,0,0,1-2.155.491,5.223,5.223,0,0,1,1.473.573,2.082,2.082,0,0,1,.647.727,8.471,8.471,0,0,1,.562,1.818,4.169,4.169,0,0,0,.482,1.342.535.535,0,0,0,.42.277q.233,0,.431-.341a2.881,2.881,0,0,0,.244-1.2h.51q-.143,2.549-1.882,2.549a1.621,1.621,0,0,1-.948-.277,1.66,1.66,0,0,1-.6-.817,11.777,11.777,0,0,1-.353-2.121,3.885,3.885,0,0,0-.356-1.417,1.729,1.729,0,0,0-.761-.675,2.773,2.773,0,0,0-1.237-.254h-.907V616.1a.469.469,0,0,0,.142.39.9.9,0,0,0,.562.143H730.1v.562h-5.15v-.562h1.087a.807.807,0,0,0,.528-.143.483.483,0,0,0,.169-.39v-8.861a.522.522,0,0,0-.173-.427.813.813,0,0,0-.524-.142H724.95Zm3.381,5.1h1.312a3.688,3.688,0,0,0,2.066-.5,1.971,1.971,0,0,0,.746-1.77,2.877,2.877,0,0,0-.281-1.385,1.49,1.49,0,0,0-.739-.7,5.583,5.583,0,0,0-1.8-.187,2.821,2.821,0,0,0-1.095.123.45.45,0,0,0-.21.423Z" transform="translate(-671.625 -605.87)" fill="#25170d"/>
      <path id="패스_27" data-name="패스 27" d="M740.475,606.1h9l.217,4.191h-.516q-.512-3.7-2.675-3.7a.883.883,0,0,0-.6.15.645.645,0,0,0-.162.495V616.1a.478.478,0,0,0,.158.4.823.823,0,0,0,.517.128h1.117v.562h-5.15v-.562h1.275a.545.545,0,0,0,.39-.128.44.44,0,0,0,.135-.337v-8.989a.535.535,0,0,0-.172-.431.853.853,0,0,0-.555-.146,2.16,2.16,0,0,0-1.814,1.027,6.279,6.279,0,0,0-.862,2.669h-.547Z" transform="translate(-675.776 -605.87)" fill="#25170d"/>
      <path id="패스_28" data-name="패스 28" d="M760.551,606.1h5.78a3.982,3.982,0,0,1,2.6.749,2.339,2.339,0,0,1,.9,1.88,2.233,2.233,0,0,1-.629,1.6,4.3,4.3,0,0,1-1.9,1.042,4.994,4.994,0,0,1,2.35,1.039,2.311,2.311,0,0,1,.783,1.79,2.5,2.5,0,0,1-.445,1.463,3.378,3.378,0,0,1-1.485,1.081,5.965,5.965,0,0,1-2.358.442h-5.608v-.562h.915a1.062,1.062,0,0,0,.6-.135.381.381,0,0,0,.192-.307V607.3a.591.591,0,0,0-.188-.476.817.817,0,0,0-.548-.161h-.975Zm3.314,5.091h2.1a2.093,2.093,0,0,0,1.541-.569,2.552,2.552,0,0,0,.573-1.863,2.4,2.4,0,0,0-.274-1.25,1.579,1.579,0,0,0-.795-.655,5.452,5.452,0,0,0-1.8-.206,2.818,2.818,0,0,0-1.125.131.491.491,0,0,0-.217.46Zm0,.562v4.273a.561.561,0,0,0,.176.45,1,1,0,0,0,.634.151h1.342a2.831,2.831,0,0,0,1.972-.589,2.385,2.385,0,0,0,.637-1.833,2.419,2.419,0,0,0-.66-1.795,2.47,2.47,0,0,0-1.822-.656Z" transform="translate(-681.294 -605.87)" fill="#25170d"/>
      <path id="패스_29" data-name="패스 29" d="M780.1,605.783h.5l3.976,10.143a.95.95,0,0,0,.983.615h.345v.562h-4.423v-.562h.353a2.263,2.263,0,0,0,.975-.151.344.344,0,0,0,.194-.322.786.786,0,0,0-.052-.27l-.917-2.353h-4.386l-.515,1.349a2.619,2.619,0,0,0-.2.854.774.774,0,0,0,.342.63,1.605,1.605,0,0,0,.993.263h.375v.562h-4.019v-.562a1.66,1.66,0,0,0,1.02-.282,2.469,2.469,0,0,0,.689-1.069Zm-.218,2.137-1.991,4.941h3.917Z" transform="translate(-685.116 -605.783)" fill="#25170d"/>
      <path id="패스_30" data-name="패스 30" d="M790.533,606.1h5.728a3.954,3.954,0,0,1,2.583.758,2.45,2.45,0,0,1,.918,1.987,2.392,2.392,0,0,1-.363,1.308,2.562,2.562,0,0,1-1.049.915,6.7,6.7,0,0,1-2.155.491,5.216,5.216,0,0,1,1.472.573,2.092,2.092,0,0,1,.648.727,8.522,8.522,0,0,1,.562,1.818,4.151,4.151,0,0,0,.482,1.342.534.534,0,0,0,.42.277q.233,0,.431-.341a2.882,2.882,0,0,0,.244-1.2h.509q-.142,2.549-1.881,2.549a1.625,1.625,0,0,1-.948-.277,1.66,1.66,0,0,1-.6-.817,11.645,11.645,0,0,1-.353-2.121,3.9,3.9,0,0,0-.356-1.417,1.733,1.733,0,0,0-.761-.675,2.777,2.777,0,0,0-1.238-.254h-.906V616.1a.467.467,0,0,0,.142.39.9.9,0,0,0,.562.143h1.064v.562h-5.15v-.562h1.087a.808.808,0,0,0,.529-.143.482.482,0,0,0,.168-.39v-8.861a.522.522,0,0,0-.173-.427.814.814,0,0,0-.524-.142h-1.087Zm3.382,5.1h1.312a3.691,3.691,0,0,0,2.066-.5,1.973,1.973,0,0,0,.745-1.77,2.878,2.878,0,0,0-.281-1.385,1.485,1.485,0,0,0-.739-.7,5.576,5.576,0,0,0-1.8-.187,2.821,2.821,0,0,0-1.095.123.451.451,0,0,0-.209.423Z" transform="translate(-689.438 -605.87)" fill="#25170d"/>
    </g>
    <g id="그룹_9" data-name="그룹 9" transform="translate(651.894 549.085)">
      <g id="그룹_8" data-name="그룹 8">
        <path id="패스_31" data-name="패스 31" d="M651.951,588.413H653.6a1.134,1.134,0,0,1,.742.213.664.664,0,0,1,.257.535.634.634,0,0,1-.179.456,1.215,1.215,0,0,1-.54.3,1.421,1.421,0,0,1,.669.3.655.655,0,0,1,.224.509.709.709,0,0,1-.127.416.947.947,0,0,1-.422.308,1.7,1.7,0,0,1-.671.126h-1.6v-.16h.261a.3.3,0,0,0,.172-.039.108.108,0,0,0,.054-.087v-2.528a.169.169,0,0,0-.053-.136.233.233,0,0,0-.156-.046h-.277Zm.943,1.449h.6a.6.6,0,0,0,.438-.162.727.727,0,0,0,.163-.53.688.688,0,0,0-.078-.356.454.454,0,0,0-.227-.186,1.548,1.548,0,0,0-.513-.058.792.792,0,0,0-.321.037.141.141,0,0,0-.062.131Zm0,.16v1.216a.159.159,0,0,0,.05.128.287.287,0,0,0,.181.042h.382a.8.8,0,0,0,.562-.167.678.678,0,0,0,.181-.522.69.69,0,0,0-.188-.511.705.705,0,0,0-.519-.186Z" transform="translate(-651.951 -588.347)" fill="#25170d"/>
        <path id="패스_32" data-name="패스 32" d="M658.365,588.413h1.382v.16h-.153a.643.643,0,0,0-.249.03.091.091,0,0,0-.057.083.179.179,0,0,0,.03.1l.8,1.243.576-1.06a.319.319,0,0,0,.039-.154.228.228,0,0,0-.073-.178.3.3,0,0,0-.207-.066h-.147v-.16h1.2v.16a.626.626,0,0,0-.325.072.721.721,0,0,0-.229.273l-.73,1.334v1a.134.134,0,0,0,.044.114.313.313,0,0,0,.183.044h.271v.16h-1.449v-.16h.286a.27.27,0,0,0,.167-.041.144.144,0,0,0,.051-.117v-.971l-.979-1.525a.373.373,0,0,0-.149-.138.8.8,0,0,0-.286-.043Z" transform="translate(-653.693 -588.347)" fill="#25170d"/>
        <path id="패스_33" data-name="패스 33" d="M669.323,588.413h1.557a1.2,1.2,0,0,1,.8.239.783.783,0,0,1,.278.625.708.708,0,0,1-.256.589,1.347,1.347,0,0,1-.867.28h-.562v1.077a.175.175,0,0,0,.045.135.235.235,0,0,0,.16.051h.358v.16h-1.517v-.16h.318a.206.206,0,0,0,.138-.037.125.125,0,0,0,.044-.1v-2.516a.163.163,0,0,0-.056-.139.366.366,0,0,0-.21-.042h-.234Zm.954,1.577h.428a.838.838,0,0,0,.587-.17.745.745,0,0,0,.18-.56.869.869,0,0,0-.082-.419.49.49,0,0,0-.237-.217,1.364,1.364,0,0,0-.515-.071.616.616,0,0,0-.3.045.179.179,0,0,0-.063.156Z" transform="translate(-656.669 -588.347)" fill="#25170d"/>
        <path id="패스_34" data-name="패스 34" d="M676.564,588.322h.143l1.131,2.887a.271.271,0,0,0,.28.175h.1v.16h-1.259v-.16h.1a.645.645,0,0,0,.277-.042.1.1,0,0,0,.055-.092.218.218,0,0,0-.015-.077l-.261-.67h-1.249l-.146.385a.735.735,0,0,0-.058.243.221.221,0,0,0,.1.179.459.459,0,0,0,.283.074h.107v.16h-1.144v-.16a.479.479,0,0,0,.29-.079.706.706,0,0,0,.2-.3Zm-.062.608-.567,1.407h1.115Z" transform="translate(-658.213 -588.322)" fill="#25170d"/>
        <path id="패스_35" data-name="패스 35" d="M683.908,588.627l.192-.275h.155l.013,1.15h-.141a1.556,1.556,0,0,0-.392-.772.845.845,0,0,0-.6-.243.646.646,0,0,0-.461.168.546.546,0,0,0-.179.413.482.482,0,0,0,.272.452,2.343,2.343,0,0,0,.511.152,2.993,2.993,0,0,1,.74.232.761.761,0,0,1,.421.713.945.945,0,0,1-.287.707,1.013,1.013,0,0,1-.741.281,1.248,1.248,0,0,1-.849-.316l-.241.3h-.154V590.36h.154a1.392,1.392,0,0,0,.4.8,1,1,0,0,0,.7.292.719.719,0,0,0,.515-.187.6.6,0,0,0,.2-.453.473.473,0,0,0-.074-.265.564.564,0,0,0-.237-.192,3.682,3.682,0,0,0-.638-.189,1.919,1.919,0,0,1-.712-.277.752.752,0,0,1-.267-.617.908.908,0,0,1,.946-.948,1.016,1.016,0,0,1,.377.071A1.332,1.332,0,0,1,683.908,588.627Z" transform="translate(-660.159 -588.322)" fill="#25170d"/>
        <path id="패스_36" data-name="패스 36" d="M688.2,588.413h2.563l.062,1.193h-.147q-.146-1.052-.762-1.053a.253.253,0,0,0-.17.043.185.185,0,0,0-.046.141v2.522a.137.137,0,0,0,.044.113.233.233,0,0,0,.148.036h.318v.16h-1.466v-.16h.363a.153.153,0,0,0,.111-.036.126.126,0,0,0,.039-.1v-2.559a.154.154,0,0,0-.05-.123.247.247,0,0,0-.158-.042.615.615,0,0,0-.516.293,1.793,1.793,0,0,0-.245.76h-.155Z" transform="translate(-661.778 -588.347)" fill="#25170d"/>
        <path id="패스_37" data-name="패스 37" d="M694.515,588.413h1.63a1.125,1.125,0,0,1,.735.216.7.7,0,0,1,.261.565.681.681,0,0,1-.1.373.732.732,0,0,1-.3.26,1.886,1.886,0,0,1-.613.14,1.457,1.457,0,0,1,.419.163.594.594,0,0,1,.184.207,2.448,2.448,0,0,1,.16.517,1.189,1.189,0,0,0,.137.382.153.153,0,0,0,.119.079c.044,0,.085-.032.123-.1a.833.833,0,0,0,.069-.342h.145q-.04.726-.535.725a.46.46,0,0,1-.27-.079.476.476,0,0,1-.172-.232,3.319,3.319,0,0,1-.1-.6,1.11,1.11,0,0,0-.1-.4.488.488,0,0,0-.216-.192.784.784,0,0,0-.352-.073h-.259v1.24a.136.136,0,0,0,.041.111.258.258,0,0,0,.16.04h.3v.16h-1.466v-.16h.31a.231.231,0,0,0,.15-.04.139.139,0,0,0,.048-.111v-2.522a.149.149,0,0,0-.049-.122.233.233,0,0,0-.149-.04h-.31Zm.962,1.451h.374a1.047,1.047,0,0,0,.588-.141.563.563,0,0,0,.212-.5.824.824,0,0,0-.079-.394.432.432,0,0,0-.211-.2,1.587,1.587,0,0,0-.512-.053.827.827,0,0,0-.312.034.13.13,0,0,0-.06.122Z" transform="translate(-663.512 -588.347)" fill="#25170d"/>
        <path id="패스_38" data-name="패스 38" d="M700.838,588.413h1.383v.16h-.154a.642.642,0,0,0-.249.03.092.092,0,0,0-.058.083.179.179,0,0,0,.03.1l.8,1.243.576-1.06a.319.319,0,0,0,.039-.154.228.228,0,0,0-.073-.178.3.3,0,0,0-.207-.066h-.147v-.16h1.2v.16a.626.626,0,0,0-.325.072.72.72,0,0,0-.229.273l-.73,1.334v1a.135.135,0,0,0,.044.114.314.314,0,0,0,.184.044h.271v.16h-1.449v-.16h.286a.269.269,0,0,0,.166-.041.144.144,0,0,0,.051-.117v-.971l-.979-1.525a.371.371,0,0,0-.149-.138.8.8,0,0,0-.286-.043Z" transform="translate(-665.229 -588.347)" fill="#25170d"/>
        <path id="패스_39" data-name="패스 39" d="M714.206,588.634l.147-.305h.135l.055,1.27H714.4a2.054,2.054,0,0,0-.354-.79.8.8,0,0,0-.632-.318.759.759,0,0,0-.646.354,2.153,2.153,0,0,0-.25,1.2,1.758,1.758,0,0,0,.286,1.085.811.811,0,0,0,.683.315.9.9,0,0,0,.645-.246,1.27,1.27,0,0,0,.339-.744h.151a1.369,1.369,0,0,1-.387.866,1.125,1.125,0,0,1-.806.3,1.378,1.378,0,0,1-.725-.2,1.43,1.43,0,0,1-.527-.571,1.709,1.709,0,0,1-.2-.816,1.983,1.983,0,0,1,.2-.886,1.524,1.524,0,0,1,.522-.622,1.224,1.224,0,0,1,.685-.208,1.135,1.135,0,0,1,.4.071A1.656,1.656,0,0,1,714.206,588.634Z" transform="translate(-668.256 -588.322)" fill="#25170d"/>
        <path id="패스_40" data-name="패스 40" d="M718.579,588.413h1.348v.16h-.247a.225.225,0,0,0-.17.046.388.388,0,0,0-.04.223v.973h1.443v-.973a.415.415,0,0,0-.037-.227.248.248,0,0,0-.176-.042h-.23v-.16h1.339v.16h-.245a.252.252,0,0,0-.129.023.161.161,0,0,0-.06.081.781.781,0,0,0-.013.19v2.27a.411.411,0,0,0,.028.2.244.244,0,0,0,.2.072h.217v.16H720.47v-.16h.23a.207.207,0,0,0,.186-.074.486.486,0,0,0,.028-.213v-1.1h-1.443v1.114a.438.438,0,0,0,.026.2.216.216,0,0,0,.184.07h.247v.16h-1.348v-.16h.258a.187.187,0,0,0,.109-.028.161.161,0,0,0,.06-.079.875.875,0,0,0,.01-.181v-2.279a.4.4,0,0,0-.039-.223.23.23,0,0,0-.172-.046h-.226Z" transform="translate(-670.048 -588.347)" fill="#25170d"/>
        <path id="패스_41" data-name="패스 41" d="M726.088,588.413h2.5l.06,1.065h-.143a1.4,1.4,0,0,0-.27-.7.62.62,0,0,0-.48-.2h-.618a.148.148,0,0,0-.113.04.175.175,0,0,0-.039.124v1.125h.271a.444.444,0,0,0,.352-.156.753.753,0,0,0,.146-.478h.147v1.462h-.147a.826.826,0,0,0-.148-.52.471.471,0,0,0-.374-.157h-.247v1.255a.125.125,0,0,0,.046.1.245.245,0,0,0,.152.036h.488q.8,0,.917-1.015h.154l-.054,1.176h-2.6v-.16h.216a.272.272,0,0,0,.177-.044.156.156,0,0,0,.051-.127v-2.5a.159.159,0,0,0-.044-.124.207.207,0,0,0-.141-.04h-.259Z" transform="translate(-672.088 -588.347)" fill="#25170d"/>
        <path id="패스_42" data-name="패스 42" d="M732.739,588.413h2.568l.042,1.093H735.2a1.412,1.412,0,0,0-.275-.734.79.79,0,0,0-.578-.2h-.505a.123.123,0,0,0-.143.141v1.141h.271a.46.46,0,0,0,.361-.149.711.711,0,0,0,.145-.461h.154v1.424h-.154a.831.831,0,0,0-.145-.506.451.451,0,0,0-.361-.151H733.7v1.2a.188.188,0,0,0,.051.15.272.272,0,0,0,.177.044h.329v.16h-1.517v-.16h.325a.2.2,0,0,0,.14-.039.172.172,0,0,0,.041-.129v-2.51a.151.151,0,0,0-.044-.122.246.246,0,0,0-.153-.036h-.31Z" transform="translate(-673.894 -588.347)" fill="#25170d"/>
        <path id="패스_43" data-name="패스 43" d="M743.825,588.413h1.4v.16h-.2a.257.257,0,0,0-.167.042.151.151,0,0,0-.05.124v2.047a.792.792,0,0,1-.452.731,1.115,1.115,0,0,1-.5.111.877.877,0,0,1-.621-.223.715.715,0,0,1-.242-.546.571.571,0,0,1,.122-.382.379.379,0,0,1,.3-.143.326.326,0,0,1,.239.092.317.317,0,0,1,.094.236.3.3,0,0,1-.077.208.232.232,0,0,1-.177.084.392.392,0,0,1-.106-.021.344.344,0,0,0-.077-.017.068.068,0,0,0-.057.03.143.143,0,0,0-.023.09.375.375,0,0,0,.161.292.61.61,0,0,0,.4.131.517.517,0,0,0,.421-.185.784.784,0,0,0,.153-.515v-2.021a.143.143,0,0,0-.056-.125.331.331,0,0,0-.193-.042h-.28Z" transform="translate(-676.678 -588.347)" fill="#25170d"/>
        <path id="패스_44" data-name="패스 44" d="M748.795,588.413h1.458v.16h-.293a.265.265,0,0,0-.164.038.144.144,0,0,0-.047.118v1.782a1.379,1.379,0,0,0,.048.422.641.641,0,0,0,.266.337.909.909,0,0,0,.5.126.894.894,0,0,0,.656-.224.8.8,0,0,0,.226-.6v-1.449a1.208,1.208,0,0,0-.026-.291.373.373,0,0,0-.077-.155.3.3,0,0,0-.128-.082.873.873,0,0,0-.256-.026v-.16h1.193v.16h-.085a.386.386,0,0,0-.3.107.451.451,0,0,0-.1.313v1.551a1.014,1.014,0,0,1-.29.779,1.224,1.224,0,0,1-.87.305,1.7,1.7,0,0,1-.738-.133.826.826,0,0,1-.39-.383,1.1,1.1,0,0,1-.092-.478v-1.905a.139.139,0,0,0-.05-.114.222.222,0,0,0-.149-.042h-.3Z" transform="translate(-678.255 -588.347)" fill="#25170d"/>
        <path id="패스_45" data-name="패스 45" d="M758.05,588.627l.192-.275h.156l.013,1.15h-.141a1.562,1.562,0,0,0-.391-.772.847.847,0,0,0-.6-.243.647.647,0,0,0-.461.168.546.546,0,0,0-.179.413.482.482,0,0,0,.272.452,2.342,2.342,0,0,0,.511.152,3.016,3.016,0,0,1,.74.232.764.764,0,0,1,.421.713.943.943,0,0,1-.288.707,1.009,1.009,0,0,1-.741.281,1.247,1.247,0,0,1-.849-.316l-.241.3h-.154V590.36h.154a1.391,1.391,0,0,0,.4.8,1,1,0,0,0,.7.292.718.718,0,0,0,.515-.187.594.594,0,0,0,.2-.453.467.467,0,0,0-.075-.265.562.562,0,0,0-.237-.192,3.681,3.681,0,0,0-.638-.189,1.92,1.92,0,0,1-.713-.277.753.753,0,0,1-.266-.617.909.909,0,0,1,.945-.948,1.018,1.018,0,0,1,.378.071A1.319,1.319,0,0,1,758.05,588.627Z" transform="translate(-680.297 -588.322)" fill="#25170d"/>
        <path id="패스_46" data-name="패스 46" d="M762.342,588.413H764.9l.062,1.193h-.147q-.146-1.052-.762-1.053a.252.252,0,0,0-.17.043.182.182,0,0,0-.046.141v2.522a.137.137,0,0,0,.044.113.233.233,0,0,0,.148.036h.318v.16h-1.466v-.16h.363a.153.153,0,0,0,.111-.036.126.126,0,0,0,.039-.1v-2.559a.154.154,0,0,0-.05-.123.247.247,0,0,0-.158-.042.615.615,0,0,0-.516.293,1.786,1.786,0,0,0-.245.76h-.156Z" transform="translate(-681.916 -588.347)" fill="#25170d"/>
        <path id="패스_47" data-name="패스 47" d="M768.729,588.413h1.455v.16h-.251a.334.334,0,0,0-.21.042.247.247,0,0,0-.044.176v2.391a.179.179,0,0,0,.224.228h.28v.16h-1.455v-.16H769a.281.281,0,0,0,.187-.042.272.272,0,0,0,.043-.186V588.79c0-.091-.013-.147-.039-.168a.354.354,0,0,0-.219-.049h-.248Z" transform="translate(-683.669 -588.347)" fill="#25170d"/>
        <path id="패스_48" data-name="패스 48" d="M773.595,588.413h.753l1.9,2.479V589.1a.561.561,0,0,0-.124-.4.452.452,0,0,0-.336-.124v-.16h1.1v.16a.535.535,0,0,0-.254.047.387.387,0,0,0-.145.17.6.6,0,0,0-.063.272v2.507h-.2l-1.97-2.581v1.9a.514.514,0,0,0,.13.385.572.572,0,0,0,.4.131v.16h-1.2v-.16a.5.5,0,0,0,.358-.148.479.479,0,0,0,.133-.342v-2.137l-.038-.042a.678.678,0,0,0-.151-.137.363.363,0,0,0-.159-.03h-.143Z" transform="translate(-684.991 -588.347)" fill="#25170d"/>
        <path id="패스_49" data-name="패스 49" d="M784.893,588.413h1.464v.16h-.35a.158.158,0,0,0-.122.043.2.2,0,0,0-.04.138v2.49a.15.15,0,0,0,.05.127.365.365,0,0,0,.2.037h.443a.759.759,0,0,0,.578-.236,1.585,1.585,0,0,0,.328-.818h.149l-.073,1.214h-2.629v-.16h.258a.27.27,0,0,0,.186-.049.213.213,0,0,0,.053-.162v-2.465a.153.153,0,0,0-.044-.12.193.193,0,0,0-.133-.04h-.32Z" transform="translate(-688.06 -588.347)" fill="#25170d"/>
        <path id="패스_50" data-name="패스 50" d="M791.5,588.413H794l.06,1.065h-.143a1.409,1.409,0,0,0-.27-.7.621.621,0,0,0-.481-.2h-.617a.149.149,0,0,0-.114.04.175.175,0,0,0-.038.124v1.125h.27a.442.442,0,0,0,.352-.156.753.753,0,0,0,.146-.478h.147v1.462h-.147a.823.823,0,0,0-.148-.52.472.472,0,0,0-.374-.157H792.4v1.255a.123.123,0,0,0,.046.1.242.242,0,0,0,.152.036h.488q.794,0,.916-1.015h.154l-.054,1.176h-2.6v-.16h.216a.272.272,0,0,0,.177-.044.156.156,0,0,0,.052-.127v-2.5a.159.159,0,0,0-.045-.124.205.205,0,0,0-.141-.04H791.5Z" transform="translate(-689.854 -588.347)" fill="#25170d"/>
        <path id="패스_51" data-name="패스 51" d="M798.233,588.413h2.5l.06,1.065h-.142a1.4,1.4,0,0,0-.27-.7.62.62,0,0,0-.48-.2h-.618a.147.147,0,0,0-.112.04.175.175,0,0,0-.039.124v1.125h.27a.443.443,0,0,0,.352-.156.753.753,0,0,0,.146-.478h.146v1.462H799.9a.831.831,0,0,0-.148-.52.473.473,0,0,0-.374-.157h-.246v1.255a.126.126,0,0,0,.045.1.244.244,0,0,0,.152.036h.488q.8,0,.916-1.015h.154l-.052,1.176h-2.6v-.16h.216a.27.27,0,0,0,.177-.044.156.156,0,0,0,.051-.127v-2.5a.159.159,0,0,0-.044-.124.205.205,0,0,0-.141-.04h-.259Z" transform="translate(-691.683 -588.347)" fill="#25170d"/>
      </g>
    </g>
  </g>
</svg>
