<svg xmlns="http://www.w3.org/2000/svg" width="131.317" height="63.368" viewBox="0 0 131.317 63.368">
  <g id="logo" transform="translate(-1184.57 -200.886)">
    <g id="그룹_4" data-name="그룹 4" transform="translate(1184.57 200.886)">
      <path id="패스_8" data-name="패스 8" d="M201.048,438.99h12.721a19.352,19.352,0,1,1-17.434-27.732l19.939,0c12.209,0,12.007-12.242,12.007-12.242l-31.946-.127A31.684,31.684,0,1,0,228.1,430.572v-3.661H191.077s-.13,12.079,9.971,12.079" transform="translate(-164.57 -398.886)" fill="#474645"/>
      <path id="패스_9" data-name="패스 9" d="M216.916,449.969h12.526l-.014-23.541a57.926,57.926,0,0,0-12.511,4.086Z" transform="translate(-141.438 -386.888)" fill="#f99900"/>
      <path id="패스_10" data-name="패스 10" d="M229.422,421.906a10.481,10.481,0,0,1,10.471-10.464l16.376.009a8.127,8.127,0,0,0,5.9-2.146l9.2-10.4-32.674.043A21.788,21.788,0,0,0,216.916,420.7v14.129a57.689,57.689,0,0,1,12.506-5.518Z" transform="translate(-141.438 -398.879)" fill="#f99900"/>
      <path id="패스_11" data-name="패스 11" d="M247.381,427.377a59.38,59.38,0,0,1,17.071,2.334l13.851-8.024a100.311,100.311,0,0,0-23.042-2.894c-31.193,0-45.9,18.213-50.9,26.309a60.038,60.038,0,0,1,43.02-17.726" transform="translate(-146.986 -390.262)" fill="#b80009"/>
    </g>
  </g>
</svg>
