<svg xmlns="http://www.w3.org/2000/svg" width="253.372" height="125.757" viewBox="0 0 253.372 125.757">
  <g id="그룹_6" data-name="그룹 6" transform="translate(-100.72 -260.957)">
    <path id="패스_19" data-name="패스 19" d="M167.978,260.957a18.9,18.9,0,1,0,18.969,18.9A18.953,18.953,0,0,0,167.978,260.957Zm.9,35.949V280.778l9.777,5.581v-13l-10.683,6.1-10.685-6.1v13l9.786-5.585v16.132a17.164,17.164,0,1,1,1.8,0Zm2.03-17.051,5.94-3.388v6.781Zm-5.869,0-5.945,3.393v-6.781Z" transform="translate(59.427 0)" fill="#1a1311"/>
    <g id="그룹_4" data-name="그룹 4" transform="translate(161.117 379.187)">
      <path id="패스_20" data-name="패스 20" d="M127.8,317.719a3.638,3.638,0,0,1,3.672-3.759,3.175,3.175,0,0,1,3.306,2.389l-1.325.417a1.88,1.88,0,0,0-1.981-1.452,2.4,2.4,0,0,0,.02,4.785,1.993,1.993,0,0,0,2.021-1.474l1.312.4a3.276,3.276,0,0,1-3.333,2.451A3.6,3.6,0,0,1,127.8,317.719Z" transform="translate(-127.796 -313.96)" fill="#1a1311"/>
      <path id="패스_21" data-name="패스 21" d="M132.326,318.682v-4.653h1.405v4.555a1.368,1.368,0,1,0,2.733,0v-4.555h1.4v4.653a2.771,2.771,0,0,1-5.541,0Z" transform="translate(-122.221 -313.875)" fill="#1a1311"/>
      <path id="패스_22" data-name="패스 22" d="M140.308,316.217a1.236,1.236,0,0,0-1.314-1.017,1.018,1.018,0,0,0-1.126.915.825.825,0,0,0,.783.814l1.006.194a2.2,2.2,0,0,1,2.014,2.126,2.367,2.367,0,0,1-2.605,2.226,2.63,2.63,0,0,1-2.866-2.257l1.3-.348a1.448,1.448,0,0,0,1.575,1.354c.756,0,1.173-.377,1.173-.883,0-.417-.317-.743-.879-.854l-1.006-.2a2.1,2.1,0,0,1-1.889-2.066,2.613,2.613,0,0,1,5.095-.386Z" transform="translate(-117.455 -313.96)" fill="#1a1311"/>
      <path id="패스_23" data-name="패스 23" d="M143.485,315.358v5.878h-1.416v-5.878H139.8v-1.329h5.967v1.329Z" transform="translate(-113.028 -313.875)" fill="#1a1311"/>
      <path id="패스_24" data-name="패스 24" d="M147.245,313.96a3.758,3.758,0,1,1-3.7,3.759A3.636,3.636,0,0,1,147.245,313.96Zm0,6.152a2.4,2.4,0,1,0-2.244-2.4A2.227,2.227,0,0,0,147.245,320.112Z" transform="translate(-108.41 -313.96)" fill="#1a1311"/>
      <path id="패스_25" data-name="패스 25" d="M154.995,321.236v-5.052l-2.072,5.052h-1.171l-2.077-5.014v5.014h-1.341v-7.207h1.849l2.17,5.2,2.11-5.2h1.914v7.207Z" transform="translate(-102.521 -313.875)" fill="#1a1311"/>
      <path id="패스_26" data-name="패스 26" d="M162.291,321.236v-5.052l-2.074,5.052h-1.169l-2.075-5.014v5.014h-1.341v-7.207h1.847l2.168,5.2,2.115-5.2h1.912v7.207Z" transform="translate(-93.539 -313.875)" fill="#1a1311"/>
      <path id="패스_27" data-name="패스 27" d="M165.578,319.588h-2.924l-.6,1.648h-1.486l2.766-7.207h1.626l2.748,7.207H166.18Zm-2.458-1.28h1.994l-1-2.724Z" transform="translate(-87.466 -313.875)" fill="#1a1311"/>
      <path id="패스_28" data-name="패스 28" d="M165.1,321.236v-7.207h2.583a3.6,3.6,0,0,1-.009,7.207Zm2.523-1.3a2.307,2.307,0,0,0,.011-4.6H166.5v4.6Z" transform="translate(-81.892 -313.875)" fill="#1a1311"/>
      <path id="패스_29" data-name="패스 29" d="M169.313,321.236v-7.207h4.515v1.321h-3.11V317h2.817v1.249h-2.817v1.671h3.11v1.321Z" transform="translate(-76.704 -313.875)" fill="#1a1311"/>
      <path id="패스_30" data-name="패스 30" d="M178.795,316.217a1.226,1.226,0,0,0-1.307-1.017,1.02,1.02,0,0,0-1.129.915.826.826,0,0,0,.781.814l1.008.194a2.2,2.2,0,0,1,2.014,2.126,2.368,2.368,0,0,1-2.6,2.226,2.637,2.637,0,0,1-2.873-2.257l1.3-.348a1.448,1.448,0,0,0,1.575,1.354c.754,0,1.169-.377,1.169-.883,0-.417-.312-.743-.872-.854l-1.006-.2a2.1,2.1,0,0,1-1.894-2.066,2.614,2.614,0,0,1,5.1-.386Z" transform="translate(-70.091 -313.96)" fill="#1a1311"/>
      <path id="패스_31" data-name="패스 31" d="M178.549,318.682v-4.653h1.4v4.555a1.367,1.367,0,1,0,2.73,0v-4.555h1.405v4.653a2.77,2.77,0,0,1-5.539,0Z" transform="translate(-65.337 -313.875)" fill="#1a1311"/>
      <path id="패스_32" data-name="패스 32" d="M182.653,321.236v-7.207h1.423v7.207Z" transform="translate(-60.287 -313.875)" fill="#1a1311"/>
      <path id="패스_33" data-name="패스 33" d="M188.341,315.358v5.878h-1.414v-5.878h-2.28v-1.329h5.969v1.329Z" transform="translate(-57.833 -313.875)" fill="#1a1311"/>
    </g>
    <g id="그룹_5" data-name="그룹 5" transform="translate(100.72 318.425)">
      <path id="패스_34" data-name="패스 34" d="M138.84,293.725l3.588-6.374H135.25Z" transform="translate(-58.225 -285.944)" fill="#1a1311"/>
      <path id="패스_35" data-name="패스 35" d="M216.214,286.969c-9.228,0-18.458,6.846-18.458,19.134s9.23,19.188,18.458,19.188,18.463-6.9,18.463-19.188S225.444,286.969,216.214,286.969Zm0,33.656c-6.844,0-13.275-4.928-13.275-14.522s6.431-14.466,13.275-14.466,13.272,4.876,13.272,14.466S223.059,320.625,216.214,320.625Z" transform="translate(18.696 -286.414)" fill="#1a1311"/>
      <path id="패스_36" data-name="패스 36" d="M140,288.315l1.2-1h-8.987l1.164,1-13.763,34.548-1.7,1.22h8.88l-1.751-1.245,3.417-9.021h16.284l3.516,9.041-1.713,1.225h8.882l-1.68-1.213ZM130.276,309.1l6.275-16.491,6.38,16.491Z" transform="translate(-79.56 -285.985)" fill="#1a1311"/>
      <path id="패스_37" data-name="패스 37" d="M159.592,287.318h-15.36l1.981,1.347v34.073l-1.981,1.345h9l-1.936-1.345V309.044h8.3c6.79,0,11.356-4.611,11.356-10.836C170.948,292.038,166.382,287.318,159.592,287.318Zm-.935,17.163h-7.366v-12.6h7.366c4.408,0,7.1,2.487,7.1,6.377C165.762,302.045,163.065,304.481,158.658,304.481Z" transform="translate(-47.172 -285.985)" fill="#1a1311"/>
      <path id="패스_38" data-name="패스 38" d="M172.971,288.053H162.739l2.021,1.335v34.065l-2.021,1.366h23.343l1.028,1.3v-7.411l-1.028,1.39h-16.24V308.85H184.4l1.1,1.013V308.85h0v-4.773h0v-1.2l-1.1,1.2H169.843v-11.3H186.1l1.006,1.355V286.72l-1.006,1.333Z" transform="translate(-24.396 -286.72)" fill="#1a1311"/>
      <path id="패스_39" data-name="패스 39" d="M189.072,319.314V288.679l2.008-1.361h-9.374l2.281,1.361V322.6l-2.281,1.483h23.67l1.065,1.3v-7.524l-1.065,1.451Z" transform="translate(-1.054 -285.985)" fill="#1a1311"/>
      <path id="패스_40" data-name="패스 40" d="M107.623,319.314V288.666l1.745-1.348H100.72l1.821,1.348v34.141l-1.821,1.277h23.3l.976,1.3v-7.7l-1,1.632Z" transform="translate(-100.72 -285.985)" fill="#1a1311"/>
    </g>
  </g>
</svg>
