<?xml version="1.0" encoding="utf-8"?>
<!-- Generator: Adobe Illustrator 23.0.0, SVG Export Plug-In . SVG Version: 6.00 Build 0)  -->
<svg version="1.1" id="레이어_1" xmlns="http://www.w3.org/2000/svg" xmlns:xlink="http://www.w3.org/1999/xlink" x="0px"
	 y="0px" width="669.4px" height="607px" viewBox="0 0 669.4 607" style="enable-background:new 0 0 669.4 607;"
	 xml:space="preserve">
<style type="text/css">
	.st0{fill:#B4C2DA;}
	.st1{fill:url(#SVGID_1_);}
	.st2{fill:#FFFFFF;}
	.st3{opacity:5.000000e-02;}
	.st4{fill:#F5A3A8;}
	.st5{fill:#2C296E;}
	.st6{fill:#FB5292;}
	.st7{fill:#403F69;}
	.st8{fill:#F7B3B7;}
	.st9{fill:#F7FAF9;}
	.st10{fill:#434645;}
	.st11{fill:#585382;}
	.st12{fill:#7B779B;}
	.st13{fill:#242646;}
	.st14{fill:none;stroke:#242646;stroke-miterlimit:10;}
</style>
<g>
	<g>
		<path class="st0" d="M603.1,370.9c15.6,9.1,15.7,23.7,0.2,32.8L388.4,528.9c-15.5,9.1-40.8,9.1-56.5,0L39.7,359.8
			C24.1,350.7,24,336,39.5,327l214.9-125.3c15.5-9.1,40.8-9.1,56.5,0L603.1,370.9z"/>
	</g>
	<g>
		
			<linearGradient id="SVGID_1_" gradientUnits="userSpaceOnUse" x1="182.3398" y1="743.7" x2="364.7" y2="743.7" gradientTransform="matrix(1 0 0 1 0 -342)">
			<stop  offset="0" style="stop-color:#C7D3E5"/>
			<stop  offset="1" style="stop-color:#DDE4EF"/>
		</linearGradient>
		<path class="st1" d="M183.3,337.4c0,0-15.9,34,81.7,85.1c0,0,63.6,37,99.7,43.5l-45.6-128.6H183.3z"/>
		<path class="st2" d="M277.7,293.8c0,0-80.6-14.9-94.4,43.6c0,0-3.2,41.5,47.2,45.7c0,0,34.5,0,61,33c0,0,47.7,61.7,98.6,47.9
			c0,0,36.8-5.2,49.1-33.9c4.5-10.5,3.2-22.5-3-32C418.5,370.7,366.7,303.9,277.7,293.8z"/>
		<g>
			<path class="st0" d="M200.3,308.7c7-0.4,14-0.1,21,0.5s13.9,1.8,20.8,3.2l5.1,1.2l5.1,1.4c1.7,0.4,3.4,1,5,1.6
				c1.7,0.6,3.4,1.1,5,1.8c6.6,2.5,12.9,5.7,18.8,9.3c-3.2-1.5-6.2-3.3-9.5-4.5c-1.6-0.7-3.2-1.4-4.8-2l-4.9-1.8
				c-6.6-2.2-13.3-4.3-20.1-5.6c-6.8-1.5-13.7-2.6-20.6-3.5c-3.5-0.4-6.9-0.8-10.4-1C207.3,309,203.8,308.8,200.3,308.7z"/>
		</g>
	</g>
	<g class="st3">
		<path d="M298.8,521.2c19.2,11.1,22,29.1,6,41.9c-19.1,15.4-56.4,17.9-81.1,5.9c-1.3-0.6-2.5-1.3-3.7-2c-4.4-2.5-7.9-5.4-10.5-8.4
			c-1.8-2.1-4.2-4-7-5.7c-4.4-2.5-9.8-4.4-15.9-5.4c-7.2-1.2-14.1-3.3-20.2-6.3c-1.3-0.6-2.5-1.3-3.7-2
			c-21.2-12.3-22.3-32.5-0.9-45.5c19.4-11.8,51.5-13.2,73.9-3.4c2.1,0.9,4.1,1.9,5.9,3c4.5,2.6,8.2,5.6,10.8,8.8
			c1.7,2,4,3.9,6.7,5.4c4.2,2.4,9.4,4.2,15.1,5.1c8.3,1.3,16.2,3.8,23,7.4C297.7,520.5,298.3,520.8,298.8,521.2z"/>
	</g>
	<g>
		<path class="st4" d="M270.3,511.1c0,0-2,12.4-0.9,19.1l-14.8-3l3.4-20.7L270.3,511.1z"/>
		<path class="st5" d="M253.6,517.6c0,0,9.5,1.5,10.1,6c0.7,4.5,4.1,3.5,4.1,3.5l3.1-1.1c0,0,2,7.5-0.5,10.7
			c0,0-27.9,25.1-36.9,18.6c-10.3-7.4,11.9-25,11.9-25S253.5,525.5,253.6,517.6z"/>
		<path class="st6" d="M374.5,367.6c0,0,5.5,17.3-20.7,27.7s-58.5,31.2-58.5,31.2L276,514c0,0-17.2,6.2-24.8-9l18.5-95.8
			c0.6-3.4,2.5-6.4,5.3-8.4l41.9-30.5l17.7-20.8L374.5,367.6z"/>
		<path class="st7" d="M377.3,227.1l20.7,14.5c0,0-2.8,96.8-23.5,125.9c0,0-60.7-5.5-75.9-38.7c0,0,11-38.7,12.4-87.2
			c0,0,0-30.4,12.4-36L377.3,227.1z"/>
		<polygon class="st8" points="295.9,264.3 283.5,293.3 298.6,300.2 311.5,270.7 		"/>
		<polygon class="st8" points="382.8,295.6 380,335.9 395.2,349.6 400.8,295.6 		"/>
		<path class="st7" d="M323.5,205.7c0,0-12.4-1.4-17.9,19.4l-13.8,38.7c0,0,2.8,18,26.2,13.8"/>
		<path class="st7" d="M398,241.7c0,0,5.5,2.8,8.3,19.4l5.5,37.4c0,0-17.9,12.5-33.1,0l-1.4-26.3"/>
		<path class="st4" d="M232.1,491.3c0,0-2,12.4-0.9,19.1l-14.8-3l3.4-20.7L232.1,491.3z"/>
		<path class="st5" d="M215.4,497.8c0,0,9.5,1.5,10.1,6c0.7,4.5,4.1,3.5,4.1,3.5l3.1-1.1c0,0,2,7.5-0.5,10.7
			c0,0-27.9,25.1-36.9,18.6c-10.3-7.4,11.9-25,11.9-25S215.3,505.6,215.4,497.8z"/>
		<path class="st6" d="M298.6,367.6l-40,22.8L238.9,496c0,0-20.4,3.9-25.9-9.9l17.2-107c0.5-4.6,2.7-8.9,6.2-12.1l32.7-30
			L298.6,367.6z"/>
		<path class="st4" d="M369.4,215l-5.5-19.2c0,0-12.6,8.6-17.8,4.7l-1.2,11.1l-2.4,18.5l5.9,1.2h15.5L369.4,215z"/>
		<polygon class="st9" points="275.9,316.4 356.5,361.6 313.7,387.4 231.1,343 		"/>
		<polygon class="st8" points="283.5,293.3 287.1,335.7 299.4,336.7 298.6,300.2 		"/>
		<g>
			<g>
				<polygon class="st10" points="328.3,365.7 333.8,368.9 329.8,371.2 324.4,367.9 				"/>
				<polygon class="st10" points="321.7,361.9 327.2,365.1 323.2,367.4 317.7,364.1 				"/>
				<polygon class="st10" points="315.1,358.1 320.6,361.2 316.6,363.5 311.1,360.3 				"/>
				<polygon class="st10" points="308.4,354.3 314,357.4 310,359.7 304.5,356.5 				"/>
				<polygon class="st10" points="301.8,350.4 314.1,357.4 310,359.7 297.9,352.6 				"/>
				<polygon class="st10" points="295.2,346.6 300.8,349.8 296.7,352.1 291.3,348.8 				"/>
				<polygon class="st10" points="288.6,342.8 294.1,345.9 290.1,348.2 284.7,345 				"/>
				<polygon class="st10" points="282,339 287.5,342.1 283.5,344.4 278.1,341.2 				"/>
				<polygon class="st10" points="275.4,335.2 282,339 278.1,341.2 271.4,337.4 				"/>
				<polygon class="st10" points="268.8,331.3 274.3,334.5 270.3,336.8 264.8,333.5 				"/>
				<polygon class="st10" points="302.4,336.1 291.9,342 312.1,354.1 322.9,347.9 				"/>
			</g>
			<g>
				<polygon class="st10" points="322.6,369.1 328.1,372.2 324.1,374.5 318.6,371.3 				"/>
				<polygon class="st10" points="316,365.3 321.5,368.4 317.5,370.7 312,367.5 				"/>
				<polygon class="st10" points="309.3,361.4 314.9,364.6 310.9,366.9 305.4,363.7 				"/>
				<polygon class="st10" points="302.7,357.6 308.3,360.8 304.2,363.1 298.8,359.8 				"/>
				<polygon class="st10" points="296.1,353.8 301.7,357 297.6,359.3 292.2,356 				"/>
				<polygon class="st10" points="289.5,350 295,353.1 291,355.4 285.6,352.2 				"/>
				<polygon class="st10" points="282.9,346.2 288.4,349.3 284.4,351.6 279,348.4 				"/>
				<polygon class="st10" points="276.3,342.3 281.8,345.5 277.8,347.8 272.3,344.6 				"/>
				<polygon class="st10" points="269.7,338.5 275.2,341.7 269.5,345 263.9,341.9 				"/>
				<polygon class="st10" points="263,334.7 268.6,337.9 264.6,340.2 259.1,336.9 				"/>
			</g>
			<g>
				<polygon class="st10" points="316.9,372.5 322.4,375.6 318.4,377.9 312.9,374.7 				"/>
				<polygon class="st10" points="310.2,368.6 315.8,371.8 311.8,374.1 306.3,370.9 				"/>
				<polygon class="st10" points="303.6,364.8 309.2,368 305.1,370.3 299.7,367 				"/>
				<polygon class="st10" points="297,361 302.6,364.1 298.5,366.4 293.1,363.2 				"/>
				<polygon class="st10" points="290.4,357.2 295.9,360.3 291.9,362.6 286.5,359.4 				"/>
				<polygon class="st10" points="283.8,353.4 289.3,356.5 285.3,358.8 279.9,355.6 				"/>
				<polygon class="st10" points="277.2,349.5 282.7,352.7 278.7,355 273.2,351.7 				"/>
				<polygon class="st10" points="269.5,345 276.1,348.9 272.1,351.2 265.5,347.3 				"/>
				<polygon class="st10" points="263.9,341.9 269.5,345 265.5,347.3 260,344.1 				"/>
				<polygon class="st10" points="257.3,338.1 262.9,341.2 258.8,343.5 253.4,340.3 				"/>
			</g>
			<g>
				<polygon class="st10" points="311.2,375.8 316.7,379 312.7,381.3 307.2,378 				"/>
				<polygon class="st10" points="304.5,372 310.1,375.2 306,377.5 300.6,374.2 				"/>
				<polygon class="st10" points="297.9,368.2 303.5,371.3 299.4,373.6 294,370.4 				"/>
				<polygon class="st10" points="291.3,364.4 297.9,368.2 294,370.4 287.4,366.6 				"/>
				<polygon class="st10" points="284.7,360.5 291.3,364.4 287.4,366.6 280.8,362.8 				"/>
				<polygon class="st10" points="278.1,356.7 284.7,360.5 280.8,362.8 274.2,358.9 				"/>
				<polygon class="st10" points="271.5,352.9 277,356.1 273,358.4 267.5,355.1 				"/>
				<polygon class="st10" points="264.9,349.1 270.4,352.2 266.4,354.5 260.9,351.3 				"/>
				<polygon class="st10" points="258.2,345.3 263.8,348.4 259.7,350.7 254.3,347.5 				"/>
				<polygon class="st10" points="251.6,341.4 257.2,344.6 253.1,346.9 247.7,343.6 				"/>
			</g>
		</g>
		<polygon class="st11" points="231.1,343 221.3,285.4 299.6,326.2 313.7,387.4 		"/>
		<path class="st12" d="M266.8,339.2c-1.7,1.3-5-0.2-7.5-3.4c-2.5-3.2-3.1-6.8-1.5-8.1s5,0.2,7.5,3.4
			C267.9,334.3,268.5,337.9,266.8,339.2z"/>
		<path class="st6" d="M369.4,215c0,0-8.3,12.1-21,16.3l6.7,15.2l22.3-19.4C377.3,227.1,373.8,220.9,369.4,215z"/>
		<path class="st13" d="M324.2,173.2c0,0-8.6-5.7-5.8-11.5c2.8-5.8,1.7-13.9,15.6-13.3c13.9,0.6,18.9-3.7,25.9,2.7s13.1-2.4,15,6.1
			s10.7,13.3,3.9,25.8c-6.7,12.5,1.8,13.9-12.4,18.6l-39.1-16L324.2,173.2z"/>
		<path class="st6" d="M348.3,231.3c0,0-4.5-17.3-3.4-19.7l-12.9,2l2.1,25.5L348.3,231.3z"/>
		<path class="st8" d="M324.2,173.2c0,0-4.8,47.8,18.3,45.5c0,0,21.3-0.5,24.6-19.1c0,0,7-11.9,1.6-13.8c0,0-5.6-2.4-8.1,4.2
			c0,0-1.9,5.6-3.6-0.6c0,0,1.4-16.2-9.9-13.5C346.9,175.8,328.4,181.2,324.2,173.2z"/>
		<polygon class="st8" points="380.1,335.7 326.2,345.2 330.4,354.6 395.2,349.6 		"/>
		<path class="st8" d="M310.7,352.5c-2.6,0.5-3.6-1.9-3.6-1.9l3.8-1.9c-3.3,1.3-4.5-1.6-4.5-1.6l9-4.5l11.5,1.9l8.8-0.2l1.8,8.1
			l-7.3,2.4l-7.9,0.9l-4.4,1c-3.4,2.1-4.5-0.8-4.5-0.8l4.6-2.3l-3.3,0.8c-4.2,2.6-5.6-1.1-5.6-1.1L310.7,352.5z"/>
		<path class="st14" d="M328.8,188.9c0.7,3.4-0.7,6.5-3,7c-2.4,0.5-4.9-1.9-5.6-5.3c-0.7-3.4,0.7-6.5,3-7
			C325.7,183.1,328.1,185.5,328.8,188.9z"/>
		<path class="st14" d="M342.3,194.2c0.7,3.4-0.7,6.5-3,7c-2.4,0.5-4.9-1.9-5.6-5.3c-0.7-3.4,0.7-6.5,3-7
			C339.1,188.4,341.6,190.8,342.3,194.2z"/>
		<path class="st14" d="M329,188.6c0,0,2.3-1,4.8,2.3"/>
		<line class="st14" x1="342.5" y1="192.9" x2="360" y2="184.3"/>
	</g>
</g>
</svg>
