<?xml version="1.0" encoding="utf-8"?>
<!-- Generator: Adobe Illustrator 23.0.0, SVG Export Plug-In . SVG Version: 6.00 Build 0)  -->
<svg version="1.1" id="레이어_1" xmlns="http://www.w3.org/2000/svg" xmlns:xlink="http://www.w3.org/1999/xlink" x="0px"
	 y="0px" width="128px" height="160px" viewBox="0 0 128 160" style="enable-background:new 0 0 128 160;" xml:space="preserve">
<style type="text/css">
	.st0{opacity:0.57;}
	.st1{fill:none;}
	.st2{fill:#FFECBF;}
</style>
<g class="st0">
	<path class="st1" d="M88.2,98.8c-3.6-1.5-7.6-2.3-11.7-2.3c-8.4,0-16,3.4-21.5,8.9c2.9,0.6,5.9,1,9,1
		C73,106.3,81.4,103.5,88.2,98.8z"/>
	<path class="st1" d="M46.1,125c0,0.6-0.1,1.1-0.1,1.7c0,16.7,13.7,30.3,30.4,30.3c16.8,0,30.4-13.6,30.4-30.3c0-4.7-1.1-9.2-3-13.1
		c-10.9,8.7-24.8,14-39.9,14C57.8,127.6,51.8,126.7,46.1,125z"/>
	<path class="st1" d="M76.5,93.5c5.2,0,10,1.2,14.4,3.3c9.6-7.8,15.7-19.7,15.7-33c0-23.5-19.1-42.5-42.7-42.5s-42.7,19-42.7,42.5
		c0,19.2,12.8,35.5,30.4,40.7C57.9,97.8,66.7,93.5,76.5,93.5z"/>
	<path class="st2" d="M21.3,63.8c0-23.5,19.1-42.5,42.7-42.5s42.7,19,42.7,42.5c0,13.3-6.1,25.2-15.7,33c6.6,3.2,12,8.4,15.3,14.9
		C119.6,100,128,82.9,128,63.8C128,28.6,99.3,0,64,0S0,28.6,0,63.8c0,28,18.1,51.8,43.3,60.3c0.6-7.5,3.7-14.3,8.5-19.6
		C34.2,99.3,21.3,83,21.3,63.8z"/>
	<path class="st2" d="M88.2,98.8c-6.9,4.8-15.2,7.5-24.2,7.5c-3.1,0-6.1-0.3-9-1c-5.1,5.1-8.4,12-8.8,19.7
		c5.7,1.6,11.7,2.5,17.9,2.5c15.1,0,29-5.2,39.9-14C100.7,107,95.1,101.6,88.2,98.8z"/>
	<path class="st2" d="M106.2,111.7c-3.3-6.5-8.7-11.8-15.3-14.9c-4.4-2.1-9.2-3.3-14.4-3.3c-9.8,0-18.7,4.3-24.8,11
		c-4.8,5.3-7.9,12.1-8.5,19.6c-0.1,0.9-0.1,1.7-0.1,2.6c0,18.3,15,33.2,33.4,33.2s33.4-14.9,33.4-33.2
		C109.9,121.3,108.6,116.2,106.2,111.7z M76.5,157.1c-16.8,0-30.4-13.6-30.4-30.3c0-0.6,0-1.2,0.1-1.7c0.4-7.7,3.7-14.6,8.8-19.7
		c5.5-5.5,13.1-8.9,21.5-8.9c4.2,0,8.1,0.8,11.7,2.3c6.9,2.9,12.5,8.2,15.7,14.8c1.9,4,3,8.4,3,13.1
		C107,143.5,93.3,157.1,76.5,157.1z"/>
</g>
</svg>
