<?xml version="1.0" encoding="utf-8"?>
<!-- Generator: Adobe Illustrator 23.0.0, SVG Export Plug-In . SVG Version: 6.00 Build 0)  -->
<svg version="1.1" id="레이어_1" xmlns="http://www.w3.org/2000/svg" xmlns:xlink="http://www.w3.org/1999/xlink" x="0px"
	 y="0px" width="992px" height="696px" viewBox="0 0 992 696" style="enable-background:new 0 0 992 696;" xml:space="preserve">
<style type="text/css">
	.st0{fill:#EEEEEE;}
	.st1{fill:#FFBEB6;}
	.st2{fill:#23286B;}
	.st3{fill:url(#R_trousers_2_);}
	.st4{fill:#428DFC;}
	.st5{opacity:0.51;fill:#FFFFFF;enable-background:new    ;}
	.st6{fill:url(#R_sleeve_1_);}
	.st7{fill:url(#sweater-2_2_);}
	.st8{fill:url(#neck_2_);}
	.st9{fill:#E94A47;}
	.st10{fill:#1C2868;}
	.st11{fill:#A1C3FC;}
	.st12{fill:url(#body_1_);}
	.st13{fill:url(#L_shoe-2_2_);}
	.st14{fill:url(#L_trousers-2_2_);}
	.st15{fill:url(#R_trousers-2_1_);}
	.st16{opacity:0.39;fill:#FFFFFF;enable-background:new    ;}
	.st17{fill:url(#SVGID_1_);}
	.st18{fill:url(#sweater-4_1_);}
</style>
<g>
	<path id="outlined_square_1" class="st0" d="M505.1,597.9l-102-42.5l42.4-102.3l102,42.5L505.1,597.9z M412.6,551.5l88.6,37
		l36.9-88.9l-88.6-37L412.6,551.5z"/>
	<g id="R_hand_1_">
		<path id="R_hand-2_2_" class="st1" d="M677.8,328.3c0,0-22.5,24.3-34.3,30.1c-11.8,5.9-11.7,3.7-18.3,3.5
			c-6.6-0.1-12.4,1.3-16.5,1.6s-2.8,5.4,3.7,5.5c6.6,0.1,10.1,0.8,4.2,3c-5.9,2.2-17,2.3-18.9,3c-2,0.7,1.6,8.8,16.3,12.7
			s28.7-7.8,33.9-14.2s40.2-16.3,51.9-31.7L677.8,328.3z"/>
	</g>
	<g id="shoes">
		<path id="L_shoe_1_" class="st2" d="M815.7,652l14.6,40.8h-103c0,0,5.3-10.2,22.9-17.8c17.6-7.6,34-23,34-23L815.7,652"/>
		<path id="R_shoe_2_" class="st2" d="M949.6,562.9l42.4,4.2l-43.3,93.8c0,0-7-9.1-6.5-28.3c0.6-19.2-6.9-40.4-6.9-40.4L949.6,562.9
			"/>
	</g>
	<g id="trousers">
		
			<linearGradient id="R_trousers_2_" gradientUnits="userSpaceOnUse" x1="943.7852" y1="-52.7434" x2="817.0412" y2="-21.5768" gradientTransform="matrix(1 0 0 -1 0 470)">
			<stop  offset="0" style="stop-color:#428DFC"/>
			<stop  offset="1" style="stop-color:#1E77E0"/>
		</linearGradient>
		<path id="R_trousers_1_" class="st3" d="M949.5,563l-14.3,29.2c0,0-55.2-26.5-105.3-57.4c-0.3-0.2-0.7-0.4-1-0.6
			c0.6-5.4,1.3-11.3,2-18c2.4-23.1-13.6-48.2-16.4-90.2c-0.1-2.1-0.3-4.3-0.3-6.5c0.5,1.6,1.1,3.3,1.8,4.9
			c5.1,13,13.8,24.3,25.1,32.5c30.4,21.9,30.2,20.4,41.2,36.4c11,16,28.2,16.5,36.3,22.4C926.9,521.7,948.9,551.5,949.5,563z"/>
		<path id="L_trousers_1_" class="st4" d="M815.6,652l-33.1,0c0,0-13.1-85.6-23-140.5c-1.7-9.3-3.4-20.1-5.1-31.8
			c-1.1-7.8-2.2-16-3.3-24.4c-2.7-21.1-5.1-43.4-6.9-63.5l13.8,7.9c0,0,19.8-13.7,18.6-33.7c-1.1-19.5,2.4-30.1,4.7-39.7
			c10.2-2.1,20.2-4.7,30.1-7.9c4.5,14.3,8.2,37.4,4.2,71.4c-1.5,12-1.8,24.1-1,36.2c2.8,42,18.8,67.1,16.4,90.2
			c-0.8,7.2-1.5,13.4-2.1,19.2c-1.9,17.5-2.5,30.2,2.1,49.1C837.1,609.6,824.8,644.2,815.6,652z"/>
		<path id="texture_1_" class="st5" d="M789,325.9c-0.2-0.1-0.4-0.1-0.5,0.1c0,0.1-0.1,0.2,0,0.3c0,0,0,0,0,0.1
			c0,0.1,0.1,0.1,0.1,0.2c0.2,0.1,0.4,0.1,0.5-0.1c0-0.1,0.1-0.2,0.1-0.3C789.1,326,789.1,325.9,789,325.9z M784,333.4
			c-0.2-0.1-0.4,0-0.5,0.1c-0.1,0.2-0.1,0.4,0.1,0.5c0.2,0.1,0.4,0.1,0.5-0.1C784.2,333.7,784.2,333.5,784,333.4z M802.5,326.9
			c-0.2,0-0.4,0.1-0.4,0.3c0,0.2,0.1,0.4,0.3,0.4c0.2,0,0.4-0.1,0.4-0.3C802.8,327.1,802.7,326.9,802.5,326.9L802.5,326.9z
			 M800.8,335.8c-0.2,0-0.4,0.1-0.4,0.3c0,0.2,0.1,0.4,0.3,0.4c0.2,0,0.4-0.1,0.4-0.3c0,0,0,0,0,0C801.1,336,801,335.8,800.8,335.8
			C800.8,335.8,800.8,335.8,800.8,335.8L800.8,335.8z M799,344.6c-0.2,0-0.4,0.1-0.4,0.3c0,0,0,0,0,0c0,0.2,0.1,0.4,0.3,0.4
			c0,0,0,0,0,0c0.2,0,0.4-0.1,0.4-0.3C799.4,344.9,799.3,344.7,799,344.6C799,344.6,799,344.6,799,344.6L799,344.6z M792,326.2
			c-0.1,0-0.3,0.1-0.3,0.2c0,0.1,0.1,0.2,0.2,0.3c0.1,0,0.2-0.1,0.3-0.2C792.2,326.3,792.1,326.2,792,326.2z M790.9,331.5
			c-0.1,0-0.2,0.1-0.3,0.2v0c0,0.1,0,0.2,0.2,0.3c0.1,0,0.3-0.1,0.3-0.2C791.1,331.7,791,331.6,790.9,331.5L790.9,331.5z
			 M808.4,322.9c-0.1-0.1-0.2-0.1-0.3-0.1c-0.1,0.1-0.1,0.2-0.1,0.3c0.1,0.1,0.2,0.1,0.3,0.1C808.5,323.1,808.5,323,808.4,322.9
			L808.4,322.9z M799.8,323.7c-0.1,0-0.2,0.1-0.2,0.2c0,0,0,0,0,0c0,0.1,0.1,0.2,0.3,0.2c0.1,0,0.2-0.1,0.2-0.2c0,0,0,0,0,0
			C800,323.7,799.9,323.6,799.8,323.7L799.8,323.7z M800.8,329c-0.1,0-0.2,0.2-0.2,0.3l0,0c0,0.1,0.1,0.2,0.2,0.2c0,0,0,0,0,0
			c0.1,0,0.2-0.1,0.2-0.3c0,0,0,0,0,0C801,329.1,800.9,329,800.8,329L800.8,329z M801.9,334.4c-0.1,0-0.2,0.1-0.2,0.3
			s0.1,0.2,0.3,0.2c0.1,0,0.2-0.2,0.2-0.3C802.1,334.4,802,334.4,801.9,334.4L801.9,334.4z M796.7,327.6c-0.2,0.1-0.3,0.3-0.2,0.5
			c0,0,0,0,0,0c0.1,0.2,0.3,0.3,0.5,0.3c0,0,0,0,0,0c0.2-0.1,0.3-0.3,0.3-0.5c0,0,0,0,0,0C797.2,327.7,797,327.6,796.7,327.6
			L796.7,327.6z M800.2,337c-0.2,0.1-0.3,0.3-0.3,0.5c0.1,0.2,0.3,0.3,0.5,0.2h0c0.2-0.1,0.3-0.3,0.3-0.5c0,0,0,0,0,0
			C800.7,337.1,800.4,336.9,800.2,337L800.2,337z M803.7,346.4c-0.2,0.1-0.3,0.3-0.3,0.5c0,0,0,0,0,0c0.1,0.2,0.3,0.3,0.5,0.3
			c0.2-0.1,0.3-0.3,0.2-0.6S803.9,346.4,803.7,346.4C803.7,346.4,803.7,346.4,803.7,346.4L803.7,346.4z M807.2,355.8
			c-0.2,0.1-0.3,0.3-0.3,0.5c0.1,0.2,0.3,0.3,0.5,0.3c0.2-0.1,0.3-0.3,0.3-0.5C807.6,355.8,807.4,355.7,807.2,355.8z M789,334.2
			c-0.2,0-0.4,0.2-0.4,0.4c0,0.2,0.2,0.4,0.4,0.4c0.2,0,0.4-0.2,0.4-0.4c0,0,0,0,0,0C789.4,334.4,789.2,334.2,789,334.2
			C789,334.2,789,334.2,789,334.2z M788.6,344.2c-0.2,0-0.4,0.1-0.4,0.4c0,0,0,0,0,0c0,0.2,0.1,0.4,0.4,0.4c0,0,0,0,0,0
			c0.2,0,0.4-0.2,0.4-0.4c0,0,0,0,0,0C789,344.4,788.9,344.2,788.6,344.2L788.6,344.2z M788.3,354.2c-0.2,0-0.4,0.1-0.4,0.4l0,0
			c0,0.2,0.2,0.4,0.4,0.5c0.2,0,0.4-0.2,0.5-0.4C788.7,354.4,788.5,354.2,788.3,354.2C788.3,354.2,788.3,354.2,788.3,354.2z
			 M787.9,364.2c-0.2,0-0.4,0.1-0.4,0.3c0,0,0,0,0,0.1c0,0.2,0.2,0.4,0.4,0.4c0.2,0,0.4-0.2,0.4-0.4c0,0,0,0,0,0
			C788.3,364.4,788.1,364.2,787.9,364.2C787.9,364.2,787.9,364.2,787.9,364.2L787.9,364.2z M807.2,327.6c-0.2-0.2-0.4-0.2-0.6,0
			c-0.2,0.1-0.2,0.4,0,0.6s0.4,0.2,0.6,0C807.3,328.1,807.4,327.8,807.2,327.6C807.2,327.7,807.2,327.6,807.2,327.6z M790.6,324.9
			c0.2,0.2,0.5,0.3,0.7,0.1c0.1-0.1,0.2-0.2,0.2-0.3C791.2,324.7,790.9,324.8,790.6,324.9L790.6,324.9z M798.5,335.4
			c-0.2-0.3-0.5-0.3-0.8-0.2c-0.3,0.2-0.3,0.5-0.2,0.8c0.2,0.3,0.5,0.3,0.8,0.2c0,0,0,0,0,0C798.6,336,798.7,335.7,798.5,335.4z
			 M805.6,346.6c-0.2-0.3-0.5-0.3-0.7-0.2l0,0c-0.3,0.2-0.3,0.5-0.2,0.8c0.2,0.3,0.5,0.3,0.8,0.2
			C805.7,347.2,805.8,346.9,805.6,346.6L805.6,346.6z M812.7,357.9c-0.2-0.3-0.5-0.3-0.8-0.2c-0.3,0.2-0.3,0.5-0.2,0.8
			c0.2,0.2,0.5,0.3,0.8,0.1C812.8,358.5,812.9,358.1,812.7,357.9C812.7,357.9,812.7,357.9,812.7,357.9L812.7,357.9z M787,333.1
			c-0.3,0-0.5,0.3-0.4,0.6v0c0,0.2,0.2,0.4,0.4,0.4c0,0,0.1,0,0.1,0c0.1,0,0.1,0,0.2,0c0.3-0.1,0.5-0.3,0.4-0.6v0
			C787.6,333.3,787.3,333.1,787,333.1L787,333.1z M789.3,346.2c-0.3,0-0.5,0.3-0.4,0.6v0c0,0.3,0.3,0.5,0.6,0.4c0,0,0,0,0,0
			c0.3,0,0.5-0.3,0.5-0.6c0,0,0,0,0,0C789.9,346.4,789.6,346.2,789.3,346.2L789.3,346.2z M791.6,359.3c-0.3,0.1-0.5,0.3-0.5,0.6
			c0.1,0.3,0.4,0.5,0.7,0.4c0.3-0.1,0.5-0.3,0.4-0.6C792.2,359.4,791.9,359.3,791.6,359.3L791.6,359.3z M793.9,372.4
			c-0.3,0.1-0.5,0.4-0.5,0.6c0.1,0.3,0.3,0.5,0.7,0.4c0.3,0,0.5-0.3,0.5-0.6C794.5,372.5,794.2,372.3,793.9,372.4L793.9,372.4z
			 M796.1,385.4c-0.3,0.1-0.5,0.4-0.4,0.6c0.1,0.3,0.3,0.5,0.6,0.4s0.5-0.3,0.4-0.6C796.7,385.6,796.5,385.4,796.1,385.4
			C796.2,385.4,796.1,385.4,796.1,385.4L796.1,385.4z M800.3,325.1c-0.3-0.2-0.6-0.1-0.8,0.1c-0.2,0.3-0.1,0.6,0.1,0.8l0,0
			c0.2,0.2,0.6,0.1,0.8-0.1C800.6,325.6,800.5,325.2,800.3,325.1C800.3,325.1,800.3,325.1,800.3,325.1z M811.1,332.7
			c-0.2-0.2-0.6-0.1-0.7,0.1c0,0,0,0,0,0c-0.2,0.3-0.1,0.6,0.1,0.8c0.3,0.2,0.6,0.1,0.8-0.1C811.4,333.2,811.4,332.9,811.1,332.7
			L811.1,332.7z M781.9,344.7c-0.3,0-0.5,0.3-0.5,0.6c0,0,0,0,0,0c0,0.3,0.3,0.5,0.5,0.5c0,0,0,0,0.1,0c0.3,0,0.5-0.3,0.5-0.6
			c0,0,0,0,0,0C782.5,344.9,782.2,344.6,781.9,344.7L781.9,344.7z M783.6,357.9c-0.3,0-0.5,0.3-0.5,0.6c0,0.3,0.3,0.5,0.6,0.5
			c0.3,0,0.5-0.3,0.5-0.6C784.2,358,783.9,357.9,783.6,357.9L783.6,357.9z M785.4,371.1c-0.3,0-0.5,0.3-0.5,0.6c0,0,0,0,0,0
			c0,0.3,0.3,0.5,0.6,0.5c0.3,0,0.5-0.3,0.5-0.6C785.9,371.3,785.7,371.1,785.4,371.1C785.4,371.1,785.4,371.1,785.4,371.1
			L785.4,371.1z M787.1,384.3c-0.3,0.1-0.5,0.3-0.5,0.6c0,0.3,0.3,0.5,0.6,0.5c0.3-0.1,0.5-0.3,0.5-0.6
			C787.7,384.5,787.4,384.3,787.1,384.3L787.1,384.3z M789.2,326.1C789.2,326.1,789.2,326.1,789.2,326.1c-0.3-0.2-0.6-0.1-0.8,0.1
			c0,0,0,0,0,0.1c-0.2,0.2-0.2,0.5,0.1,0.7c0,0,0,0,0,0c0.2,0.2,0.6,0.1,0.8-0.1C789.5,326.6,789.4,326.3,789.2,326.1L789.2,326.1z
			 M799.7,334.2c-0.2-0.2-0.6-0.1-0.8,0.1c0,0,0,0,0,0c-0.2,0.3-0.1,0.6,0.1,0.8c0.2,0.2,0.6,0.1,0.8-0.1c0,0,0,0,0,0
			C800,334.8,800,334.4,799.7,334.2C799.7,334.2,799.7,334.2,799.7,334.2L799.7,334.2z M810.3,342.4c-0.2-0.2-0.6-0.1-0.7,0.1
			c0,0,0,0,0,0c-0.2,0.2-0.2,0.6,0.1,0.8l0,0c0.3,0.2,0.6,0.1,0.8-0.1C810.5,342.9,810.5,342.5,810.3,342.4L810.3,342.4z M788,335.6
			c-0.2-0.3-0.5-0.4-0.8-0.2c-0.3,0.1-0.3,0.5-0.2,0.8c0.2,0.3,0.5,0.3,0.7,0.2C788,336.2,788.1,335.8,788,335.6L788,335.6z
			 M794.6,347.1c-0.2-0.3-0.5-0.3-0.8-0.2c-0.3,0.2-0.3,0.5-0.2,0.8c0.1,0.3,0.5,0.4,0.7,0.2c0,0,0,0,0,0
			C794.7,347.7,794.8,347.4,794.6,347.1L794.6,347.1z M801.3,358.7c-0.2-0.3-0.5-0.4-0.8-0.2c-0.3,0.1-0.3,0.5-0.2,0.8
			c0.2,0.3,0.5,0.4,0.7,0.2c0,0,0,0,0,0C801.3,359.3,801.4,358.9,801.3,358.7C801.3,358.7,801.3,358.7,801.3,358.7L801.3,358.7z
			 M807.9,370.2c-0.2-0.3-0.5-0.3-0.7-0.2c-0.3,0.1-0.4,0.5-0.2,0.7l0,0c0.2,0.3,0.5,0.4,0.8,0.2C808,370.8,808,370.5,807.9,370.2
			L807.9,370.2z M814.5,381.7c-0.2-0.3-0.5-0.4-0.8-0.2c-0.3,0.2-0.3,0.5-0.2,0.8c0.1,0.3,0.5,0.4,0.7,0.2c0,0,0,0,0,0
			C814.6,382.3,814.7,382,814.5,381.7L814.5,381.7z M797.2,323.3c-0.3,0.1-0.6,0.1-0.9,0.2c0,0,0,0,0,0c-0.1,0.3,0.1,0.6,0.4,0.7
			c0,0,0,0,0,0c0.3,0.1,0.6-0.1,0.7-0.4c0,0,0,0,0,0C797.4,323.7,797.3,323.5,797.2,323.3L797.2,323.3z M809.8,326.6
			c-0.3-0.1-0.6,0.1-0.7,0.4v0c-0.1,0.3,0.1,0.6,0.4,0.7c0.3,0.1,0.6-0.1,0.7-0.4c0,0,0,0,0,0C810.2,327,810.1,326.7,809.8,326.6
			L809.8,326.6z M783.6,342.5c-0.1-0.1-0.3-0.2-0.4-0.1s-0.2,0.3-0.1,0.4c0.1,0.1,0.3,0.2,0.4,0.1l0,0
			C783.7,342.9,783.7,342.7,783.6,342.5L783.6,342.5L783.6,342.5z M787.6,349.2c-0.1-0.1-0.3-0.2-0.4-0.1l0,0
			c-0.2,0.1-0.2,0.3-0.1,0.5c0.1,0.1,0.3,0.2,0.5,0.1C787.7,349.5,787.7,349.3,787.6,349.2C787.6,349.2,787.6,349.2,787.6,349.2
			L787.6,349.2z M791.6,355.9c-0.1-0.1-0.3-0.2-0.4-0.1c0,0,0,0,0,0h0c-0.1,0.1-0.2,0.3-0.1,0.4c0.1,0.1,0.3,0.2,0.4,0.1
			c0,0,0,0,0,0c0,0,0.1-0.1,0.1-0.1C791.7,356.1,791.7,356,791.6,355.9L791.6,355.9z M786.3,326c-0.2,0-0.3,0.1-0.4,0.2
			c0,0.2,0,0.4,0.2,0.4c0,0,0,0,0,0c0.2,0,0.3-0.1,0.4-0.2c0,0,0,0,0,0C786.5,326.3,786.4,326.1,786.3,326L786.3,326L786.3,326z
			 M793.8,327.9c-0.2,0-0.3,0.1-0.4,0.3s0.1,0.3,0.2,0.4c0.2,0,0.3-0.1,0.4-0.2C794,328.1,793.9,327.9,793.8,327.9L793.8,327.9z
			 M801.3,329.8c-0.2,0-0.3,0-0.4,0.2c0,0,0,0,0,0c0,0.2,0.1,0.4,0.2,0.4s0.3-0.1,0.4-0.2C801.6,330,801.5,329.8,801.3,329.8z
			 M808.8,331.6c-0.2,0-0.3,0.1-0.4,0.2c0,0.2,0.1,0.3,0.2,0.4c0.2,0,0.3-0.1,0.4-0.3C809.1,331.8,809,331.6,808.8,331.6
			L808.8,331.6z M776.7,357.3l-0.1,0.6h0c0.2,0,0.3-0.2,0.3-0.4C776.9,357.4,776.8,357.3,776.7,357.3L776.7,357.3z M777.7,364.9
			c-0.2,0-0.3,0.2-0.3,0.4c0,0.2,0.2,0.3,0.3,0.3h0c0.2,0,0.3-0.1,0.3-0.3c0,0,0,0,0,0C778.1,365,777.9,364.9,777.7,364.9
			C777.7,364.9,777.7,364.9,777.7,364.9L777.7,364.9z M787.1,334.3C787.1,334.2,787.1,334.2,787.1,334.3c-0.1-0.1-0.1-0.1-0.2-0.1
			c-0.1,0-0.2,0-0.3,0.1c-0.1,0.1-0.1,0.4,0,0.5s0.3,0.1,0.5-0.1C787.3,334.6,787.3,334.4,787.1,334.3
			C787.2,334.3,787.2,334.3,787.1,334.3L787.1,334.3z M793.4,338.9c-0.2-0.1-0.3-0.1-0.5,0.1c-0.1,0.1-0.1,0.4,0.1,0.5
			c0,0,0,0,0.1,0c0.1,0.1,0.3,0,0.4-0.1C793.6,339.2,793.5,339,793.4,338.9L793.4,338.9z M799.6,343.5c-0.1-0.1-0.3-0.1-0.4,0.1l0,0
			c-0.1,0.1-0.1,0.3,0.1,0.5c0.2,0.1,0.3,0.1,0.5-0.1C799.8,343.8,799.8,343.6,799.6,343.5L799.6,343.5z M805.9,348.1
			c-0.1-0.1-0.3-0.1-0.4,0.1c-0.1,0.1-0.1,0.3,0,0.4c0,0,0,0,0,0c0.1,0.1,0.3,0.1,0.4-0.1l0,0C806,348.4,806,348.2,805.9,348.1
			L805.9,348.1z M783.4,347.2c-0.1-0.1-0.3-0.1-0.4,0l0,0c-0.1,0.1-0.1,0.3,0,0.4s0.3,0.1,0.4,0
			C783.5,347.6,783.5,347.4,783.4,347.2C783.4,347.3,783.4,347.3,783.4,347.2L783.4,347.2z M787.9,352.4c-0.1-0.1-0.3-0.1-0.4,0
			c-0.1,0.1-0.1,0.3,0,0.4c0.1,0.1,0.3,0.1,0.4,0C788,352.6,788,352.5,787.9,352.4L787.9,352.4z M785.3,327.9
			c-0.1,0-0.3,0.1-0.3,0.2v0c0,0.1,0.1,0.3,0.2,0.3c0,0,0,0,0,0c0.2,0,0.3-0.1,0.3-0.3l0,0C785.6,328.1,785.5,327.9,785.3,327.9
			L785.3,327.9z M792.1,328.3c-0.2,0-0.3,0.1-0.3,0.3c0,0.1,0.1,0.3,0.3,0.3h0c0.1,0,0.3-0.1,0.3-0.2c0,0,0,0,0,0
			C792.4,328.5,792.3,328.4,792.1,328.3C792.1,328.3,792.1,328.3,792.1,328.3L792.1,328.3z M798.9,328.7c-0.2,0-0.3,0.1-0.3,0.3v0
			c0,0.2,0.1,0.3,0.3,0.3c0.2,0,0.3-0.1,0.3-0.3C799.2,328.9,799,328.7,798.9,328.7z M777.3,362.6c-0.1,0.1-0.2,0.2-0.2,0.3l0,0
			c0,0.1,0.2,0.2,0.3,0.2c0,0,0,0,0,0c0.1-0.1,0.2-0.2,0.2-0.3C777.6,362.6,777.4,362.5,777.3,362.6
			C777.3,362.6,777.3,362.6,777.3,362.6L777.3,362.6z M786.7,337.6c-0.1-0.1-0.3,0-0.4,0.1c-0.1,0.1-0.1,0.3,0,0.4c0,0,0,0,0.1,0
			c0.1,0.1,0.3,0,0.4-0.1C786.8,337.9,786.8,337.7,786.7,337.6C786.7,337.6,786.7,337.6,786.7,337.6L786.7,337.6z M792.8,340.6
			c-0.1-0.1-0.3,0-0.4,0.1c-0.1,0.1,0,0.3,0.1,0.4c0,0,0,0,0,0c0.1,0.1,0.3,0,0.4-0.1l0,0C793,340.9,792.9,340.7,792.8,340.6
			L792.8,340.6L792.8,340.6z M798.8,343.6c-0.1-0.1-0.3,0-0.4,0.1c0,0,0,0,0,0c-0.1,0.1,0,0.3,0.1,0.4c0.1,0.1,0.3,0,0.4-0.1
			c0,0,0,0,0,0C799,343.8,799,343.7,798.8,343.6L798.8,343.6z M777.7,361c-0.1-0.2-0.4-0.3-0.6-0.2c0,0,0,0,0,0
			c-0.2,0.1-0.3,0.4-0.2,0.7c0.1,0.2,0.4,0.3,0.6,0.2C777.8,361.5,777.9,361.3,777.7,361L777.7,361z M783.6,371
			c-0.1-0.2-0.4-0.3-0.7-0.2c-0.2,0.1-0.3,0.4-0.2,0.7c0.1,0.2,0.4,0.3,0.7,0.2C783.7,371.5,783.7,371.2,783.6,371L783.6,371z
			 M789.5,380.9c-0.1-0.2-0.4-0.3-0.7-0.2c-0.2,0.1-0.3,0.4-0.2,0.7c0,0,0,0,0,0c0.1,0.2,0.4,0.3,0.6,0.2c0,0,0,0,0,0
			C789.5,381.4,789.6,381.1,789.5,380.9L789.5,380.9z M781.9,336.5c-0.3-0.1-0.5,0.1-0.6,0.3c0,0.3,0.1,0.5,0.4,0.6
			c0.3,0.1,0.5-0.1,0.6-0.4l0,0C782.3,336.9,782.2,336.6,781.9,336.5C781.9,336.5,781.9,336.5,781.9,336.5L781.9,336.5z M793,339.4
			C793,339.4,793,339.4,793,339.4c-0.3,0-0.5,0.1-0.6,0.4c-0.1,0.3,0.1,0.5,0.3,0.6c0,0,0,0,0,0c0.3,0.1,0.5-0.1,0.5-0.3l0,0
			C793.5,339.7,793.3,339.5,793,339.4L793,339.4z M804.2,342.3c-0.2-0.1-0.5,0.1-0.6,0.3c0,0,0,0,0,0.1c-0.1,0.2,0.1,0.5,0.3,0.6
			c0,0,0,0,0,0c0.2,0.1,0.5-0.1,0.6-0.3c0,0,0,0,0,0C804.6,342.6,804.4,342.4,804.2,342.3L804.2,342.3z M782.2,348.9
			c-0.2-0.2-0.5-0.1-0.7,0.1s-0.1,0.5,0.1,0.7c0.2,0.2,0.5,0.1,0.7-0.1C782.5,349.4,782.5,349,782.2,348.9L782.2,348.9L782.2,348.9z
			 M791.4,355.8c-0.1-0.1-0.1-0.1-0.2-0.1h0c-0.2,0-0.3,0.1-0.4,0.2c-0.2,0.2-0.1,0.5,0.1,0.7c0.2,0.2,0.5,0.1,0.7-0.1
			C791.7,356.3,791.6,356,791.4,355.8z M800.6,362.8c-0.2-0.2-0.5-0.1-0.7,0.1c-0.2,0.2-0.1,0.5,0.1,0.7l0,0
			c0.2,0.1,0.5,0.1,0.7-0.1C800.9,363.3,800.8,363,800.6,362.8C800.7,362.8,800.6,362.8,800.6,362.8L800.6,362.8z M809.8,369.7
			c-0.2-0.2-0.5-0.1-0.7,0.1c-0.2,0.2-0.1,0.5,0.1,0.7c0,0,0,0,0,0c0.2,0.2,0.5,0.1,0.7-0.1C810.1,370.2,810,369.9,809.8,369.7
			L809.8,369.7z M787.4,327.4c-0.3,0-0.4,0.3-0.4,0.5l0,0c0,0.3,0.3,0.4,0.5,0.4c0,0,0,0,0,0c0.2,0,0.4-0.2,0.4-0.5c0,0,0,0,0,0
			C787.9,327.6,787.7,327.4,787.4,327.4C787.4,327.4,787.4,327.4,787.4,327.4z M798.8,325.8c-0.2,0-0.4,0.2-0.4,0.5c0,0,0,0,0,0.1
			c0,0.2,0.2,0.4,0.5,0.4c0,0,0,0,0,0c0.3,0,0.4-0.3,0.4-0.5c0,0,0,0,0,0C799.3,326,799.1,325.8,798.8,325.8
			C798.8,325.8,798.8,325.8,798.8,325.8L798.8,325.8z M782.6,361.8c-0.2-0.2-0.6-0.2-0.8,0c-0.2,0.2-0.2,0.6,0,0.8
			c0.2,0.2,0.6,0.2,0.8,0S782.8,362,782.6,361.8C782.6,361.8,782.6,361.8,782.6,361.8z M792.1,370.5c-0.2-0.2-0.6-0.2-0.8,0
			c-0.2,0.2-0.2,0.6,0,0.8c0.2,0.2,0.5,0.2,0.8,0c0,0,0,0,0,0C792.3,371,792.3,370.7,792.1,370.5z M801.6,379.2
			c-0.2-0.2-0.5-0.2-0.7,0c0,0,0,0,0,0c-0.2,0.2-0.2,0.5,0,0.7c0,0,0,0,0,0c0.2,0.2,0.5,0.2,0.7,0c0,0,0,0,0,0
			C801.8,379.8,801.8,379.4,801.6,379.2L801.6,379.2z M791.9,333.6c-0.3,0-0.5,0.2-0.5,0.5c0,0,0,0,0,0.1c0,0.3,0.2,0.5,0.5,0.5
			c0.3,0,0.5-0.2,0.5-0.5c0,0,0,0,0-0.1C792.5,333.8,792.2,333.6,791.9,333.6C791.9,333.6,791.9,333.6,791.9,333.6L791.9,333.6z
			 M804.8,333c-0.3,0-0.5,0.3-0.5,0.5c0,0.3,0.3,0.5,0.5,0.5l0,0c0.3,0,0.5-0.2,0.5-0.5c0,0,0-0.1,0-0.1
			C805.3,333.2,805.1,333,804.8,333C804.8,333,804.8,333,804.8,333L804.8,333z M777.9,388.9c-0.1-0.3-0.5-0.4-0.7-0.3
			c-0.3,0.1-0.4,0.4-0.3,0.7c0.1,0.3,0.4,0.4,0.7,0.3C777.9,389.5,778,389.2,777.9,388.9C777.9,388.9,777.9,388.9,777.9,388.9
			L777.9,388.9z M783.3,400.6c-0.1-0.3-0.4-0.4-0.7-0.3c0,0,0,0,0,0c-0.3,0.1-0.4,0.4-0.3,0.7c0.1,0.3,0.4,0.4,0.7,0.3c0,0,0,0,0,0
			C783.3,401.2,783.4,400.9,783.3,400.6L783.3,400.6z M783.3,346.9c-0.3-0.1-0.6,0.1-0.7,0.3c-0.1,0.3,0,0.6,0.3,0.7
			c0.3,0.1,0.6,0,0.7-0.3l0,0C783.7,347.4,783.5,347,783.3,346.9L783.3,346.9L783.3,346.9z M795.4,351.3c-0.3-0.1-0.6,0.1-0.7,0.3
			c-0.1,0.3,0,0.6,0.3,0.7c0.3,0.1,0.6,0,0.7-0.3C795.8,351.7,795.7,351.4,795.4,351.3L795.4,351.3z M807.5,355.8
			c-0.3-0.1-0.6,0-0.7,0.3c0,0,0,0,0,0c-0.1,0.3,0,0.6,0.3,0.7c0,0,0,0,0,0c0.3,0.1,0.6,0,0.7-0.3c0,0,0,0,0,0
			C807.9,356.1,807.8,355.8,807.5,355.8L807.5,355.8L807.5,355.8z M777.7,354c-0.1-0.1-0.3,0-0.3,0.1c0,0,0,0,0,0
			c-0.1,0.1,0,0.3,0.1,0.3c0,0,0,0,0,0c0.1,0.1,0.3,0,0.3-0.1c0,0,0,0,0,0C777.9,354.2,777.8,354.1,777.7,354
			C777.7,354,777.7,354,777.7,354L777.7,354z M784,341.4c-0.2,0-0.3,0.1-0.3,0.3c0,0.2,0.1,0.3,0.3,0.3c0.2,0,0.3-0.1,0.3-0.3v0
			C784.3,341.6,784.2,341.4,784,341.4L784,341.4z"/>
	</g>
	<g id="sweater_1_">
		
			<linearGradient id="R_sleeve_1_" gradientUnits="userSpaceOnUse" x1="668.2" y1="179.2" x2="749.7636" y2="179.2" gradientTransform="matrix(1 0 0 -1 0 470)">
			<stop  offset="0" style="stop-color:#23286B"/>
			<stop  offset="1" style="stop-color:#131951"/>
		</linearGradient>
		<path id="R_sleeve_2_" class="st6" d="M703.5,220.1c0,0,7.6,19.8,5.8,49.5c-1.1,18.1-16.3,39.1-28.7,53.6
			c-10.1,11.8-12.4,14.2-12.4,14.2l44.3,37c0,0,18.6-8.5,20.7-25.5s6.8-25.4,10.1-33.3c5.9-14.1,10.6-24.2,1.3-50.3
			c-8.6-24-17.8-51.4-27.3-58.1l0,0"/>
		
			<linearGradient id="sweater-2_2_" gradientUnits="userSpaceOnUse" x1="773.9295" y1="224.2621" x2="773.9295" y2="170.6879" gradientTransform="matrix(1 0 0 -1 0 470)">
			<stop  offset="0" style="stop-color:#23286B"/>
			<stop  offset="1" style="stop-color:#131951"/>
		</linearGradient>
		<path id="sweater-2_1_" class="st7" d="M836.2,309.7c0,0-32.5,12.7-56.7,17c2.4-14.2,6.2-29.6-7.7-54
			c-16.3-28.6-47.5-59.5-61.1-65.9c18.7,2.2,36.6,8.4,52.7,18.1c27,16.3,27.6,27.1,42.8,37C821.5,271.8,841.5,283.4,836.2,309.7z"/>
		<path id="L_sleeve_2_" class="st2" d="M703.5,220.1c5.4,18,9.9,36.3,13.3,54.8c4,20.9-1,53.9-8.8,70.5
			c-7.7,16.6-10.3,19.6-10.3,19.6l60.3,34.6c0,0,19.8-13.7,18.7-33.7c-1.1-20,2.6-30.7,4.9-40.5c4-17.5,7.3-30.2-8.8-58.3
			c-14.8-26-43.2-54.1-55.5-59.9l0,0"/>
	</g>
	<g id="L_hand_2_">
		<polygon id="square-2" class="st0" points="543.5,406.1 617.8,324.2 699.5,398.8 625.2,480.7 		"/>
		<path id="L_hand-2" class="st1" d="M727.7,382.2c-11,10.1-22.9,19.1-35.6,26.9c-12.4,7.2-26.3,12.7-32.9,18.4
			c-9.9,8.5-19.2,11-31,10.3c-11.8-0.7-18.7-14.2-17.5-16c1.2-1.7,14.7,0.1,19-1.3c4.3-1.4,5.3-0.8-2.6-7.8c-8-7-2.6-8.2,1.9-5.2
			c4.5,3,14.1,3.7,19.3,4.8c7.3,1.5,12-3.7,24.4-14.5c6.5-5.7,17-20.3,25.3-32.8L727.7,382.2z"/>
	</g>
	<g id="head">
		<path id="face_1_" class="st1" d="M660,182.9c0,0.2,0.1,0.3,0.1,0.3c0,0,0,0.1,0,0.1c0.1,0.6,0.3,1.2,0.5,1.8
			c2,6.4-0.2,13.2,0.6,14.9s4.6,1.3,6.2,0.7c1.6-0.6,7.1,6.4,15.6,7.9c7.9,1.5,16.6-3.2,21-9.3c-3.7-14.1-8.6-19.3-23.9-19.4
			c-16.7,0-20.2-9.4-20.2-9.4C659.1,174.7,659.1,178.9,660,182.9z"/>
		
			<linearGradient id="neck_2_" gradientUnits="userSpaceOnUse" x1="712.5486" y1="254.2977" x2="704.2111" y2="262.1963" gradientTransform="matrix(1 0 0 -1 0 470)">
			<stop  offset="0" style="stop-color:#FFBEB6"/>
			<stop  offset="1" style="stop-color:#F79992"/>
		</linearGradient>
		<path id="neck_1_" class="st8" d="M717.2,207.2c-4.8,14.4-13.7,12.9-13.7,12.9c-1.5-3.6-3.4-7-5.6-10.2c3.8-1.6,9.2-3.9,15-6.9
			L717.2,207.2z"/>
		<path id="hair_2_" class="st9" d="M746.4,170.1c-2.7-1.9-5.7-3.3-8.9-4.2c-6.2-1.9-11.7-5.4-16-10.2c-2.9-3.4-6.2-6.4-9.8-9
			c-8.8-7.2-20.9-8.7-31.3-3.9c-15.3,7.3-32,21.3-20.3,41c-1-4.3-1-8.7,0-12.9c0,0-0.7,7.8,13.1,10.9c5.3,1.6,10,5,13,9.6
			c4.4,7.2,2.9,16.5-4.9,20.4c-0.8,0.4-0.1,1.6,0.7,1.2c6.8-3.4,9.9-11.5,7.1-18.6c-1.8-4.7-5.2-8.7-9.6-11.1
			c10.8,3.8,12.7,16.3,12.2,29c0,0,39-13.1,53.5-35.9c-3-4.4-7.3-7.6-12.3-9.1c-6.6-2.2-13-9.8-17-15.1c3.1,3.1,5.9,6.6,9.4,9.5
			c6.1,5,14,5.2,20.2,9.7C746.4,171.8,747.1,170.6,746.4,170.1z"/>
		<path id="eye_1_" class="st10" d="M664.2,187.2c1.8,2,4.9,2.2,6.9,0.4c0.7-0.6,1.3-1.5,1.5-2.5c0.2-0.7-0.9-1.2-1.1-0.4
			c-0.4,2-2.4,3.3-4.4,2.9c-0.8-0.2-1.5-0.6-2-1.1C664.6,185.9,663.7,186.6,664.2,187.2L664.2,187.2z"/>
	</g>
	<path id="wheel" class="st2" d="M590.9,692.9c-25.8,0-46.7-21-46.7-46.8s20.9-46.8,46.7-46.8s46.7,21,46.7,46.8
		C637.6,671.9,616.7,692.8,590.9,692.9z M590.9,624.6c-11.8,0-21.4,9.6-21.4,21.4c0,11.8,9.6,21.4,21.4,21.4
		c11.8,0,21.4-9.6,21.4-21.4C612.3,634.2,602.7,624.6,590.9,624.6z"/>
	<g>
		<path class="st11" d="M401.3,682.7c-7.6,0-14.8-3.1-20.1-8.5c-9.3-9.1-11.5-23.3-5.5-34.8l22.1-44l8.1,4.1l-22.1,44
			c-4.2,8.1-2.6,17.9,3.8,24.3c5.8,6.1,15,7.6,22.5,3.7l134.4-76.6l4.5,7.9l-134.7,76.8C410.2,681.6,405.8,682.7,401.3,682.7z"/>
		<polygon class="st11" points="251.5,396.5 258.8,391.1 405.6,594.8 398.2,600.1 		"/>
		<path class="st11" d="M627.9,686.9c-1.2,0-2.4-0.5-3.2-1.4l-79.9-82.2c-11.1-0.2-70.5-0.9-142.9-1.4c-2.5,0-4.5-2.1-4.5-4.6l0,0
			c0-2.5,0.3-9.1,2.9-9.1c80.1,0.5,145.9,6,146.5,6c1.2,0,2.3,0.5,3.2,1.4l81.2,83.5c1.7,1.8,1.7,4.7-0.1,6.4
			C630.2,686.4,629.1,686.9,627.9,686.9L627.9,686.9z"/>
	</g>
	<path id="handle_1_" class="st2" d="M219.9,383.9h32c4,0,7.2,3.3,7.2,7.3l0,0c0,4-3.2,7.3-7.2,7.3h-32c-4,0-7.2-3.3-7.2-7.3l0,0
		C212.7,387.1,215.9,383.9,219.9,383.9z"/>
	<ellipse id="pin" class="st2" cx="590.9" cy="646" rx="9.2" ry="9.2"/>
	
		<linearGradient id="body_1_" gradientUnits="userSpaceOnUse" x1="504.4524" y1="-41.9249" x2="446.2216" y2="-173.8353" gradientTransform="matrix(1 0 0 -1 0 470)">
		<stop  offset="0" style="stop-color:#A1C3FC"/>
		<stop  offset="1" style="stop-color:#84AFEF"/>
	</linearGradient>
	<path id="body" class="st12" d="M387.4,504.8h240.4c0,0-61.9,87.4-92.7,88.5c-25.9,0.9-90,0.1-121.8,0c-10.2,0-16.7-7-18.9-15.8
		L387.4,504.8z"/>
	<g id="shoes-2">
		
			<linearGradient id="L_shoe-2_2_" gradientUnits="userSpaceOnUse" x1="11.08" y1="-204.325" x2="120.46" y2="-204.325" gradientTransform="matrix(1 0 0 -1 0 470)">
			<stop  offset="0" style="stop-color:#A1C3FC"/>
			<stop  offset="1" style="stop-color:#84AFEF"/>
		</linearGradient>
		<path id="L_shoe-2_1_" class="st13" d="M26.6,652.7L11.1,696h109.4c0,0-5.6-10.8-24.3-18.9S60,652.7,60,652.7H26.6"/>
		<path id="R_shoe-2_1_" class="st11" d="M120.3,652.5l-15.5,43.3h109.4c0,0-5.6-10.8-24.3-18.9c-18.7-8-36.1-24.5-36.1-24.5H120.3"
			/>
	</g>
	<g id="trousers-2">
		
			<linearGradient id="L_trousers-2_2_" gradientUnits="userSpaceOnUse" x1="32.8719" y1="-73.1251" x2="105.5295" y2="-21.0929" gradientTransform="matrix(1 0 0 -1 0 470)">
			<stop  offset="0" style="stop-color:#23286B"/>
			<stop  offset="1" style="stop-color:#131951"/>
		</linearGradient>
		<path id="L_trousers-2_1_" class="st14" d="M106.8,418.8c13.5,17.2,21.8,30.6,26,42.9c-5,16.9-10.8,34.4-17,50.3
			c-21.6,54.9-52.4,140.6-52.4,140.6H2.9c0,0-6.1-18.2-0.6-36c2.9-9.1,7.6-7.6,11.7-37.6c3.3-23.8,9.2-32.8,20-50.5
			c10.8-17.7,26.5-25.5,41.8-79.4c11.2-39.6,9.4-62.8,7.2-73.3C88.5,391.4,96.5,406,106.8,418.8z"/>
		
			<linearGradient id="R_trousers-2_1_" gradientUnits="userSpaceOnUse" x1="95.7013" y1="25.291" x2="52.7804" y2="118.572" gradientTransform="matrix(1 0 0 -1 0 470)">
			<stop  offset="0" style="stop-color:#23286B"/>
			<stop  offset="1" style="stop-color:#142066"/>
		</linearGradient>
		<path id="R_trousers-2_2_" class="st15" d="M199.3,512.2c-3.8,22.4-45.4,140.5-45.4,140.5l-60.5-0.2c-2.7-29.1-0.5-29,7.7-46.4
			c8.1-17.5-3.1-31.5,10.6-55c9.7-16.6,13.9-21.8,21.5-49.1c7.5-27.4,2.2-47-26.2-83.1c-22.9-29.1-27.6-55-28.5-64
			c6.3,2,12.8,3.6,19.3,4.9c4,7.9,8.3,12.3,17.8,21.1c6,5.6,18.1,9.9,26.8,20.1c7.4,8.6,20,13.5,20,13.5l6.3-17.4
			c8.7,16.8,18.5,35.6,25.3,48.3C208.4,472.9,203.1,489.8,199.3,512.2z"/>
		<path id="texture-2_4_" class="st16" d="M98.7,385.6c-0.2-0.2-0.5-0.2-0.7,0c0,0,0,0,0,0c-0.2,0.2-0.2,0.5,0,0.6l0,0
			c0.2,0.2,0.5,0.2,0.7,0c0,0,0,0,0,0C98.9,386.1,98.9,385.8,98.7,385.6C98.7,385.6,98.7,385.6,98.7,385.6z M106.5,377.2
			c-0.2-0.2-0.5-0.2-0.7,0c-0.2,0.2-0.2,0.5,0,0.7c0.2,0.2,0.5,0.2,0.7,0S106.7,377.4,106.5,377.2
			C106.5,377.2,106.5,377.2,106.5,377.2z M135.6,410.8c-0.3,0-0.5,0.2-0.5,0.5l0,0c0,0.3,0.3,0.5,0.5,0.4c0.3,0,0.4-0.2,0.5-0.4
			c0,0,0,0,0,0C136.1,411,135.9,410.8,135.6,410.8z M135.3,399.3c-0.3,0-0.5,0.2-0.5,0.5c0,0.3,0.2,0.5,0.5,0.4h0
			c0.3,0,0.5-0.3,0.4-0.5C135.7,399.5,135.5,399.3,135.3,399.3L135.3,399.3z M91.6,366.8c-0.1-0.2-0.4-0.3-0.6-0.2
			c-0.2,0.1-0.3,0.4-0.2,0.6c0.1,0.2,0.4,0.3,0.6,0.2c0,0,0,0,0,0C91.7,367.3,91.8,367,91.6,366.8C91.7,366.8,91.7,366.8,91.6,366.8
			L91.6,366.8z M112.7,401.5c-0.2-0.1-0.5,0-0.6,0.3c0,0,0,0,0,0c-0.1,0.2,0.1,0.5,0.3,0.6c0.2,0.1,0.5,0,0.6-0.3c0,0,0,0,0,0
			C113.1,401.9,113,401.6,112.7,401.5C112.8,401.5,112.7,401.5,112.7,401.5L112.7,401.5z M116.7,390.8c-0.3-0.1-0.5,0-0.6,0.3
			c-0.1,0.3,0.1,0.5,0.3,0.6c0.3,0.1,0.5,0,0.6-0.3C117.1,391.1,117,390.9,116.7,390.8C116.8,390.8,116.7,390.8,116.7,390.8z
			 M92.6,358.7c-0.1,0.1-0.1,0.2,0,0.3c0.1,0.2,0.3,0.3,0.5,0.3c0.2-0.1,0.3-0.3,0.3-0.4C93.2,358.8,92.9,358.7,92.6,358.7z
			 M102.4,397.4c-0.2-0.1-0.5,0-0.6,0.2c-0.1,0.2,0,0.5,0.2,0.6s0.5,0,0.6-0.2C102.7,397.8,102.6,397.5,102.4,397.4L102.4,397.4
			L102.4,397.4z M106.8,388.2c-0.2-0.1-0.5,0-0.6,0.2s0,0.5,0.2,0.6c0.2,0.1,0.4,0,0.6-0.2C107.1,388.6,107.1,388.3,106.8,388.2
			C106.8,388.2,106.8,388.2,106.8,388.2z M111.3,379c-0.1-0.1-0.3-0.1-0.4,0h0c-0.1,0-0.1,0.1-0.1,0.2c-0.1,0.1-0.1,0.2,0,0.4
			c0,0.1,0.1,0.2,0.2,0.2c0.2,0.1,0.4,0.1,0.5-0.1c0,0,0,0,0-0.1C111.6,379.4,111.5,379.1,111.3,379C111.3,379,111.3,379,111.3,379
			L111.3,379z M95.8,373.7c-0.1-0.2-0.4-0.2-0.6-0.1c0,0,0,0,0,0c-0.2,0.2-0.2,0.4,0,0.6c0.2,0.2,0.4,0.2,0.6,0c0,0,0,0,0,0
			C96,374.2,96,373.9,95.8,373.7C95.8,373.7,95.8,373.7,95.8,373.7L95.8,373.7z M122.9,397.8c-0.2,0-0.4,0.2-0.5,0.4
			c0,0.2,0.2,0.4,0.4,0.4c0.2,0,0.4-0.1,0.5-0.4c0,0,0,0,0,0C123.3,398,123.1,397.8,122.9,397.8L122.9,397.8z M123.5,387.6
			c-0.2,0-0.4,0.2-0.4,0.4c0,0.2,0.2,0.4,0.4,0.4h0c0.2,0,0.4-0.2,0.4-0.4C123.9,387.8,123.7,387.6,123.5,387.6z M100.3,372.5
			c-0.1-0.1-0.3,0-0.3,0.1c-0.1,0.1-0.1,0.3,0,0.3l0,0c0.1,0.1,0.2,0.1,0.3,0c0,0,0,0,0,0C100.4,372.7,100.4,372.5,100.3,372.5z
			 M94.3,360.9c-0.1-0.1-0.2-0.2-0.3-0.1c0,0,0,0,0,0c-0.1,0.1-0.2,0.2-0.1,0.4c0.1,0.1,0.2,0.2,0.4,0.1
			C94.3,361.2,94.4,361,94.3,360.9L94.3,360.9z M96.6,378.8c-0.1-0.1-0.3,0-0.4,0.1c-0.1,0.1,0,0.3,0.1,0.4c0.1,0.1,0.3,0,0.4-0.1
			c0,0,0,0,0,0C96.8,379,96.8,378.9,96.6,378.8C96.6,378.8,96.6,378.8,96.6,378.8L96.6,378.8z M99.7,372.6c-0.1-0.1-0.3,0-0.4,0.1
			c-0.1,0.2,0,0.3,0.1,0.4c0.1,0,0.3,0,0.4-0.1C99.9,372.9,99.8,372.7,99.7,372.6L99.7,372.6z M87.7,367.1c-0.1-0.1-0.3-0.1-0.4,0
			s-0.1,0.3,0,0.4c0.1,0.1,0.3,0.1,0.4,0c0,0,0,0,0,0C87.8,367.4,87.8,367.2,87.7,367.1L87.7,367.1z M92.9,362.6
			c-0.1-0.1-0.3-0.1-0.4,0c0,0,0,0,0,0c-0.1,0.1-0.1,0.3-0.1,0.4c0,0,0,0,0,0c0.1,0.1,0.3,0.1,0.4,0c0,0,0,0,0,0
			C92.9,362.9,93,362.7,92.9,362.6C92.9,362.6,92.9,362.6,92.9,362.6L92.9,362.6z M110.9,379L110.9,379c-0.2,0-0.3,0.1-0.3,0.3
			c0,0.1,0.1,0.2,0.2,0.3c0.1,0,0.1,0,0.1,0.1c0.2,0,0.3-0.1,0.3-0.3c0,0,0,0,0,0C111.2,379.2,111.1,379,110.9,379L110.9,379z
			 M85.2,363.6c-0.2-0.2-0.5-0.2-0.7,0c-0.2,0.2-0.2,0.5,0,0.7c0.2,0.2,0.4,0.2,0.6,0.1c0,0,0,0,0,0
			C85.4,364.1,85.4,363.8,85.2,363.6L85.2,363.6z M103.4,408.6c-0.3,0-0.5,0.2-0.5,0.5c0,0.3,0.2,0.5,0.5,0.5c0.3,0,0.5-0.1,0.5-0.4
			c0,0,0,0,0,0C103.9,408.8,103.7,408.6,103.4,408.6L103.4,408.6z M104,396.8c-0.3,0-0.5,0.2-0.5,0.5c0,0.3,0.2,0.5,0.5,0.5
			c0.3,0,0.5-0.2,0.5-0.5c0,0,0,0,0,0C104.5,397,104.3,396.8,104,396.8C104.1,396.8,104.1,396.8,104,396.8L104,396.8z M104.6,385
			c-0.3,0-0.5,0.2-0.5,0.4c0,0,0,0,0,0c0,0.3,0.2,0.5,0.5,0.5c0.3,0,0.5-0.2,0.5-0.5C105.1,385.2,104.9,384.9,104.6,385
			C104.7,385,104.6,385,104.6,385z M105.3,373.1c-0.3,0-0.5,0.2-0.5,0.5c0,0.3,0.2,0.5,0.5,0.5c0.3,0,0.5-0.2,0.5-0.5
			C105.7,373.4,105.5,373.2,105.3,373.1z M91.1,375.9c-0.2-0.1-0.5,0-0.6,0.2c0,0,0,0,0,0c-0.1,0.2,0,0.5,0.2,0.7s0.5,0,0.7-0.2
			c0,0,0,0,0,0C91.5,376.4,91.4,376.1,91.1,375.9C91.1,376,91.1,375.9,91.1,375.9L91.1,375.9z M96.2,365.3c-0.2-0.1-0.5,0-0.7,0.2
			c0,0,0,0,0,0c-0.1,0.2,0,0.5,0.2,0.6c0,0,0,0,0,0c0.2,0.1,0.5,0,0.7-0.2C96.5,365.7,96.4,365.4,96.2,365.3L96.2,365.3z
			 M125.7,399.9c-0.3,0.1-0.4,0.4-0.3,0.6c0.1,0.3,0.4,0.4,0.6,0.3c0.2-0.1,0.4-0.4,0.3-0.6C126.2,400,125.9,399.9,125.7,399.9
			L125.7,399.9z M121.7,388.8c-0.2,0.1-0.4,0.3-0.3,0.6c0,0,0,0,0,0c0.1,0.3,0.4,0.4,0.6,0.3c0.2-0.1,0.4-0.4,0.3-0.6
			C122.3,388.9,122,388.7,121.7,388.8C121.7,388.8,121.7,388.8,121.7,388.8L121.7,388.8z M86.6,368.7c-0.2-0.1-0.5-0.1-0.6,0.2
			c0,0,0,0,0,0c-0.1,0.3,0,0.5,0.2,0.7c0.2,0.1,0.5,0,0.6-0.2C86.9,369.1,86.8,368.8,86.6,368.7L86.6,368.7L86.6,368.7z M92.3,358.6
			c-0.3-0.1-0.6-0.1-0.8-0.2c0,0-0.1,0-0.1,0.1c-0.1,0.2,0,0.5,0.2,0.7c0.3,0.1,0.6,0,0.7-0.3C92.3,358.8,92.3,358.7,92.3,358.6z
			 M119,404.5c-0.3,0.1-0.4,0.4-0.3,0.6c0,0,0,0,0,0c0.1,0.3,0.3,0.4,0.6,0.3s0.4-0.4,0.3-0.6C119.5,404.6,119.2,404.4,119,404.5
			L119,404.5z M115.5,393.2c-0.3,0.1-0.4,0.4-0.3,0.6c0.1,0.3,0.4,0.4,0.6,0.3c0.3-0.1,0.4-0.3,0.3-0.6
			C116,393.3,115.8,393.2,115.5,393.2L115.5,393.2z M112,382c-0.3,0.1-0.4,0.4-0.3,0.6c0.1,0.3,0.4,0.4,0.6,0.3
			c0.3-0.1,0.4-0.3,0.3-0.6v0C112.6,382.1,112.3,381.9,112,382L112,382z M95.3,389c-0.3,0-0.5,0.2-0.5,0.5c0,0.3,0.2,0.5,0.4,0.5
			c0,0,0,0,0,0c0.3,0,0.5-0.2,0.5-0.4C95.8,389.2,95.6,389,95.3,389L95.3,389z M96.4,377.3c-0.3,0-0.5,0.2-0.5,0.4l0,0
			c0,0.3,0.2,0.5,0.4,0.5h0c0.3,0,0.5-0.2,0.5-0.5C96.8,377.5,96.6,377.3,96.4,377.3L96.4,377.3z M97.5,365.5
			c-0.3,0-0.5,0.2-0.5,0.4c0,0.3,0.2,0.5,0.4,0.5c0.3,0,0.5-0.1,0.5-0.4S97.8,365.6,97.5,365.5C97.5,365.5,97.5,365.5,97.5,365.5
			L97.5,365.5z M87.4,363.1c-0.2,0-0.4,0-0.5,0.2c-0.1,0.2,0,0.4,0.2,0.5c0.2,0.1,0.4,0,0.5-0.2C87.7,363.3,87.6,363.1,87.4,363.1
			C87.4,363.1,87.4,363.1,87.4,363.1z M117.4,384.5c-0.1-0.2-0.3-0.2-0.5-0.2c-0.2,0.1-0.2,0.3-0.2,0.5c0,0,0,0,0,0
			c0.1,0.2,0.3,0.2,0.5,0.1c0,0,0,0,0,0C117.4,384.9,117.5,384.7,117.4,384.5L117.4,384.5z M98.3,385.5c-0.2,0-0.3,0.2-0.3,0.4
			c0,0.2,0.2,0.3,0.4,0.3c0.2,0,0.3-0.2,0.3-0.4C98.7,385.7,98.5,385.5,98.3,385.5L98.3,385.5z M97.3,376.7c-0.2,0-0.3,0.2-0.3,0.4
			c0,0,0,0,0,0c0,0.2,0.2,0.4,0.4,0.3c0.2,0,0.3-0.2,0.3-0.4C97.7,376.9,97.5,376.7,97.3,376.7C97.3,376.7,97.3,376.7,97.3,376.7z
			 M96.2,367.9c-0.2,0-0.3,0.2-0.3,0.4c0,0.2,0.2,0.3,0.4,0.3c0,0,0,0,0,0c0.2,0,0.3-0.2,0.3-0.4l0,0
			C96.6,368,96.4,367.9,96.2,367.9L96.2,367.9z M95.6,359.3c-0.2,0-0.4-0.1-0.5-0.1c-0.1,0.1-0.2,0.2-0.2,0.3c0,0.2,0.2,0.4,0.4,0.3
			c0,0,0,0,0,0c0.2,0,0.3-0.2,0.3-0.4v0C95.6,359.4,95.6,359.3,95.6,359.3L95.6,359.3z M93.9,366.5c-0.1,0-0.2,0.1-0.1,0.2v0
			c0,0.1,0.1,0.2,0.2,0.1h0c0.1,0,0.2-0.1,0.1-0.3S94,366.5,93.9,366.5L93.9,366.5z M92.8,362c0-0.1-0.1-0.2-0.2-0.2
			c-0.1,0.1-0.2,0.2-0.1,0.3c0,0.1,0.1,0.2,0.2,0.1c0,0,0,0,0,0C92.8,362.2,92.8,362,92.8,362L92.8,362z M84.3,359.9
			c-0.1,0-0.2,0.1-0.2,0.2c0,0.1,0.1,0.2,0.2,0.2c0.1,0,0.2-0.1,0.3-0.2C84.5,360,84.4,359.9,84.3,359.9L84.3,359.9z M100.7,373.5
			c-0.1-0.1-0.3-0.2-0.5-0.1s-0.2,0.3-0.1,0.5c0,0,0,0,0,0c0.1,0.1,0.3,0.2,0.5,0.1C100.8,373.9,100.8,373.7,100.7,373.5
			C100.7,373.5,100.7,373.5,100.7,373.5L100.7,373.5z M95.8,367.2c-0.1-0.1-0.3-0.2-0.4-0.1c0,0,0,0,0,0c-0.1,0.1-0.2,0.3-0.1,0.4
			c0,0,0,0,0,0c0.1,0.1,0.3,0.2,0.4,0.1c0,0,0,0,0,0C95.9,367.5,95.9,367.4,95.8,367.2C95.8,367.2,95.8,367.2,95.8,367.2L95.8,367.2
			z M90.8,360.9c-0.1-0.1-0.3-0.2-0.5-0.1c-0.1,0.1-0.2,0.3-0.1,0.5c0.1,0.1,0.3,0.2,0.5,0.1C90.9,361.2,90.9,361,90.8,360.9
			C90.8,360.9,90.8,360.9,90.8,360.9L90.8,360.9z"/>
	</g>
	<g id="hand">
		
			<linearGradient id="SVGID_1_" gradientUnits="userSpaceOnUse" x1="229.0151" y1="77.6006" x2="131.9171" y2="137.2357" gradientTransform="matrix(1 0 0 -1 0 470)">
			<stop  offset="0" style="stop-color:#FFBEB6"/>
			<stop  offset="1" style="stop-color:#F79992"/>
		</linearGradient>
		<path class="st17" d="M171,341.2c0,0,38.7,27,62.2,32.7c23.6,5.7,21.3,19.6,21.7,23.9s-6.8,13.3-11.2,14.8
			c-4.5,1.5-5.9-20.6-20.4-26.5c-14.5-5.9-45.8-2.1-59.7-10.2L171,341.2z"/>
	</g>
	<g id="sweater-3">
		
			<linearGradient id="sweater-4_1_" gradientUnits="userSpaceOnUse" x1="150.798" y1="183.9306" x2="12.7539" y2="100.3079" gradientTransform="matrix(1 0 0 -1 0 470)">
			<stop  offset="0" style="stop-color:#428DFC"/>
			<stop  offset="1" style="stop-color:#1E77E0"/>
		</linearGradient>
		<path id="sweater-4" class="st18" d="M155.5,237.6c-5.5,14.3-8.3,29.5-8.4,44.8c-0.1,7.6,0.8,15.1,2.6,22.5v0
			c-0.8,29.1-0.4,55.1-0.4,55.1c-16.1,2.8-32.5,2.8-48.7,0.1c-19.8-3.1-38.8-10.1-55.9-20.8c0,0-5.9-20,16.3-39.1
			c18.6-16.1,12.6-16.3,26.9-37.1c17.8-25.9,56.6-46.1,56.6-46.1L155.5,237.6L155.5,237.6z"/>
		<path id="R_sleeve-2_1_" class="st4" d="M185.1,350.6l-23,63.7c0,0-12.5-4.8-19.9-13.4c-8.8-10.2-20.8-14.5-26.8-20.1
			c-12.1-11.3-15.8-15.3-21.2-28.9c-3.5-8.9-1.9-24,0.5-39c6.9-44.3,28.9-67.3,49.9-95.7c0,0,2.6,18.9,10.9,20.6l0,0
			c-5.5,14.3-8.3,29.5-8.4,44.8c-0.1,7.6,0.8,15.1,2.6,22.5v0C154.2,324.6,167.2,341.3,185.1,350.6z"/>
	</g>
	<g id="head-2">
		<path id="neck-2_1_" class="st1" d="M166.2,221.6l-10.8,16c0,0-10.3-7-10.9-17.9c3.3-0.1,6.4-1.1,9.1-2.9
			C157.5,219.3,161.8,221,166.2,221.6z"/>
		<path id="face-2_1_" class="st1" d="M194.4,206.6c0,0-7.5,15.8-21.7,15.6c-6.7,0.1-13.3-1.8-19-5.4c7.9-4.8,14.3-14.5,14.3-21.5
			c0,0,11,8,12.9-6.1c5.3,0.3,10.6-0.8,15.4-3.2c1,5.4,2.5,10.8,4.5,16C203,207.1,194.4,206.6,194.4,206.6z"/>
		<path id="mouth" class="st10" d="M185.6,210c-0.2,2.6,1.8,4.8,4.3,5c0.9,0.1,1.9-0.1,2.7-0.6c0.6-0.3,0.2-1.4-0.4-1
			c-1.7,1.1-3.9,0.5-4.9-1.1c-0.4-0.6-0.6-1.4-0.5-2.1C186.8,209.4,185.6,209.2,185.6,210L185.6,210z"/>
		<path id="hair-2_2_" class="st2" d="M205.4,161.8c-0.4-0.8-1.6-0.1-1.2,0.7c3.7,7,2.3,15.7-3.6,21c-2.8,2.6-6.4,4.3-10.2,4.9
			c6.4-1.6,13.7-5.8,14.4-16.6c1.1-18-16.9-16-19.4-8.3c0.5-4.5,0.5-16.3-13.1-20.6c-17-5.3-12.9,11-10.2,14.8c0,0-4.5-6.1-13.6-3.4
			c-9.1,2.7-3.8,9.9-3.8,9.9s-20.4-6.4-27.6,12.9c-4.8,12.8,3.4,17.6,10.2,18.8c-6.5,0.4-12.4-2.2-14-10.4c-0.2-0.9-1.5-0.5-1.3,0.4
			c2.3,11.9,13.3,13.1,22.6,9.7c-1.7,1.6-9.8,10,1.4,20.6c12.5,11.8,32.2-8.7,32.2-20.9c0,0,10.9,7.9,12.8-5.9
			c7.8,1.7,16.1,0,21.8-6.1C208.1,177.5,209.2,168.8,205.4,161.8z"/>
	</g>
</g>
</svg>
