<?xml version="1.0" encoding="utf-8"?>
<!-- Generator: Adobe Illustrator 23.0.0, SVG Export Plug-In . SVG Version: 6.00 Build 0)  -->
<svg version="1.1" id="레이어_1" xmlns="http://www.w3.org/2000/svg" xmlns:xlink="http://www.w3.org/1999/xlink" x="0px"
	 y="0px" width="1920px" height="950px" viewBox="0 0 1920 950" style="enable-background:new 0 0 1920 950;" xml:space="preserve">
<style type="text/css">
	.st0{fill:#E2D7DA;}
	.st1{fill:url(#SVGID_1_);}
	.st2{fill:url(#man_s_hand_1_);}
	.st3{fill:url(#neck_1_);}
	.st4{fill:#FFBEB6;}
	.st5{fill:url(#R_shoe_2_);}
	.st6{fill:#28306D;}
	.st7{fill:url(#R_trousers_1_);}
	.st8{fill:#A1C3FC;}
	.st9{opacity:0.86;fill:#FFFFFF;enable-background:new    ;}
	.st10{fill:url(#R_sleeve_1_);}
	.st11{fill:url(#sweater_1_);}
	.st12{fill:#23286B;}
	.st13{fill:url(#handle_1_);}
	.st14{fill:url(#L_hand_2_);}
	.st15{fill:url(#case_1_);}
	.st16{fill:url(#R_hand_1_);}
	.st17{fill:url(#R_hand-2_1_);}
	.st18{fill:#E94A47;}
	.st19{fill:#1C2868;}
	.st20{fill:url(#L_shoe-2_1_);}
	.st21{fill:#428DFC;}
	.st22{fill:url(#L_trousers-2_1_);}
	.st23{fill:url(#neck-2_1_);}
	.st24{fill:url(#sweater-2_1_);}
</style>
<g>
	<ellipse class="st0" cx="574.7" cy="855.4" rx="145.3" ry="22.6"/>
	<ellipse class="st0" cx="268.3" cy="855.4" rx="145.3" ry="22.6"/>
	
		<linearGradient id="SVGID_1_" gradientUnits="userSpaceOnUse" x1="470.6205" y1="822.5376" x2="431.2527" y2="851.3776" gradientTransform="matrix(1 0 0 1 0 -358)">
		<stop  offset="2.870000e-02" style="stop-color:#FFBEB6"/>
		<stop  offset="0.434" style="stop-color:#FBB5AE"/>
		<stop  offset="1" style="stop-color:#F2A19C"/>
	</linearGradient>
	<path class="st1" d="M467.4,483c0,0-18.4,14.6-25.3,17c-6.9,2.3-23.5-13.7-23.5-13.7l31.4-18.2L467.4,483z"/>
	
		<linearGradient id="man_s_hand_1_" gradientUnits="userSpaceOnUse" x1="369.4498" y1="239.1905" x2="470.5918" y2="239.1905" gradientTransform="matrix(1 0 0 -1 0 724)">
		<stop  offset="0" style="stop-color:#FFBEB6"/>
		<stop  offset="1" style="stop-color:#F2A19C"/>
	</linearGradient>
	<path id="man_s_hand" class="st2" d="M371.8,467.9c0,0,33.1,6.5,41.1,3.4s19.1-7.7,26.8-5.2c7.7,2.5,29.6,15.7,30.8,21
		c1.2,5.2-23.7,13.3-28.4,11.7c-4.6-1.5-21.9-13.3-34.5-10.2s-38.2,15.7-38.2,15.7L371.8,467.9"/>
	<g id="woman">
		
			<linearGradient id="neck_1_" gradientUnits="userSpaceOnUse" x1="563.8155" y1="347.1558" x2="555.426" y2="378.4255" gradientTransform="matrix(1 0 0 -1 0 724)">
			<stop  offset="0" style="stop-color:#FFBEB6"/>
			<stop  offset="1" style="stop-color:#F2A19C"/>
		</linearGradient>
		<path id="neck" class="st3" d="M545.7,351.1c0,0,7.8,12.4,7.3,22.4c0,0,11.1,4.8,18.3-10.1l-6.9-14.5L545.7,351.1"/>
		<path id="face" class="st4" d="M536.7,310.3c0,0-7.2,12.6-12.3,16.2c-5.1,3.6-1.4,5.8,2.1,6.3c0,0,7.6,27.8,38,16l0,0l9.3-18.1
			l-5-16.9l-20.1,5L536.7,310.3z"/>
		
			<linearGradient id="R_shoe_2_" gradientUnits="userSpaceOnUse" x1="466.3499" y1="-108.0678" x2="584.3499" y2="-108.0678" gradientTransform="matrix(1 0 0 -1 0 724)">
			<stop  offset="0" style="stop-color:#23286B"/>
			<stop  offset="1" style="stop-color:#151A4F"/>
		</linearGradient>
		<path id="R_shoe_1_" class="st5" d="M567.6,808.8h-36.1c0,0-18.8,17.7-39,26.3s-26.2,20.3-26.2,20.3h118L567.6,808.8"/>
		<path id="L_shoe" class="st6" d="M645.2,808.8h-38.3c0,0-16.5,17.7-36.7,26.3S544,855.4,544,855.4h118L645.2,808.8"/>
		
			<linearGradient id="R_trousers_1_" gradientUnits="userSpaceOnUse" x1="404.2212" y1="-31.1944" x2="558.3032" y2="74.4263" gradientTransform="matrix(1 0 0 -1 0 724)">
			<stop  offset="0" style="stop-color:#A1C3FC"/>
			<stop  offset="0.7473" style="stop-color:#81AEF2"/>
			<stop  offset="1" style="stop-color:#78A9EF"/>
		</linearGradient>
		<path id="R_trousers" class="st7" d="M612.7,535.9c-12.8,56.3-10.7,47.8-17.3,97.3c-5.2,39.2-2.3,22.8-4.3,64.2
			c-2,41.5,3.2,85.2-23.5,111.4h-36.1c0,0,1.1-107.3,1.7-143.1c0.5-31,3.7-67.3,6-90.2c0.1-1.3,0.3-2.6,0.5-3.9
			c2.8-16.2,3.6-21.8,5-31.2c0.1-0.9,8.4-52.2,8.6-53c13.6,7,11.1,8.8,29.4,10.9c0,0,17,3.4,26.6-0.5c0.9-0.4,1.9-0.7,2.9-1.1
			c1.8-0.6,3.5-1.4,5.2-2.3C617.8,505.1,616.6,518.7,612.7,535.9z"/>
		<path id="L_trousers" class="st8" d="M640.1,733.5c-8.7-23.1-16.4-15.7-14.7-34.5s-2.4-30.9-10-50.7c-7.6-19.9-25.2-29.2-1.8-94.9
			c8.7-24.4,11.5-43.4,11.6-57.7c-5.1,0.5-10.7,0.8-16.7,0.8c-1.6,0.6,1.5-0.8,0,0l-59.7-6.7l-6.9,46.8c-0.6,3.3-1.1,6.6-1.6,10
			c-4.1,28.1-6.4,62.3-3.5,91c2.9,28.7,69.9,171,69.9,171H645C645.2,808.8,648.3,755.3,640.1,733.5z"/>
		<path id="texture" class="st9" d="M584.3,534.9c-0.1-0.1-0.2-0.2-0.3-0.1l0,0c-0.1,0.1-0.2,0.2-0.1,0.3c0.1,0.1,0.2,0.2,0.3,0.1
			l0,0C584.3,535.2,584.4,535.1,584.3,534.9z M582.1,529.5c0-0.1-0.2-0.2-0.3-0.1l0,0c-0.1,0-0.2,0.2-0.1,0.3
			c0.1,0.1,0.2,0.2,0.3,0.1C582.1,529.7,582.1,529.6,582.1,529.5L582.1,529.5z M579.8,524c0-0.1-0.2-0.2-0.3-0.2
			c-0.1,0-0.2,0.2-0.2,0.3l0,0c0.1,0.1,0.2,0.2,0.3,0.1l0,0C579.8,524.2,579.9,524.1,579.8,524L579.8,524z M577.6,518.5
			c-0.1-0.1-0.2-0.2-0.3-0.1l0,0c-0.1,0.1-0.2,0.2-0.1,0.3c0.1,0.1,0.2,0.2,0.3,0.1l0,0C577.6,518.8,577.6,518.6,577.6,518.5
			L577.6,518.5z M559.5,534.9c-0.1,0-0.3,0-0.3,0.1c-0.1,0.1,0,0.2,0.1,0.3l0,0c0.1,0,0.3,0,0.3-0.1l0,0
			C559.7,535.1,559.6,534.9,559.5,534.9L559.5,534.9z M592.7,525.3c-0.1-0.1-0.2-0.1-0.3,0l0,0c-0.1,0.1-0.1,0.2,0,0.3l0,0
			c0.1,0.1,0.2,0.1,0.3,0l0,0C592.8,525.5,592.8,525.4,592.7,525.3L592.7,525.3L592.7,525.3z M588.5,521.1c-0.1-0.1-0.2-0.1-0.3,0
			l-0.1,0.1c0,0.1,0,0.2,0.1,0.2l0,0l0,0c0.1,0.1,0.2,0,0.3,0S588.6,521.2,588.5,521.1L588.5,521.1L588.5,521.1z M571.8,534.2
			c-0.1,0-0.3,0.1-0.3,0.3c0,0.1,0.1,0.2,0.2,0.3c0.1,0,0.3-0.1,0.3-0.3C572.1,534.3,572,534.2,571.8,534.2z M571.8,528.2
			c-0.1,0-0.2,0.1-0.3,0.3c0,0.1,0.1,0.2,0.2,0.2l0,0c0.1,0,0.2-0.1,0.2-0.2C572,528.4,571.9,528.2,571.8,528.2L571.8,528.2z
			 M607.8,528.6c-0.2-0.2-0.5-0.1-0.6,0l0,0c-0.2,0.2-0.2,0.5,0,0.7l0,0c0.2,0.2,0.5,0.2,0.6,0l0,0C608,529.1,608,528.8,607.8,528.6
			L607.8,528.6z M599.4,521.3c-0.2-0.2-0.5-0.1-0.7,0c-0.2,0.2-0.1,0.5,0,0.7c0.2,0.2,0.5,0.1,0.7,0
			C599.6,521.7,599.6,521.4,599.4,521.3z M582.3,564.5c-0.3,0-0.4,0.2-0.4,0.5c0,0.2,0.2,0.4,0.5,0.4l0,0c0.3,0,0.4-0.2,0.4-0.5
			C582.7,564.7,582.5,564.5,582.3,564.5L582.3,564.5z M581.5,553.3c-0.3,0-0.4,0.2-0.4,0.5s0.2,0.5,0.5,0.4c0.3,0,0.4-0.2,0.4-0.5
			l0,0C582,553.4,581.7,553.3,581.5,553.3z M580.7,542c-0.3,0-0.4,0.3-0.4,0.5c0,0.2,0.2,0.4,0.5,0.4l0,0c0.3,0,0.4-0.2,0.4-0.5l0,0
			C581.2,542.2,581,542,580.7,542L580.7,542z M579.9,530.8c-0.3,0-0.4,0.2-0.4,0.5s0.2,0.4,0.5,0.4s0.4-0.2,0.4-0.5
			C580.4,531,580.2,530.8,579.9,530.8C580,530.8,579.9,530.8,579.9,530.8z M579.2,519.6c-0.3,0-0.4,0.2-0.4,0.5l0,0
			c0,0.3,0.2,0.4,0.5,0.4s0.4-0.2,0.4-0.5l0,0C579.7,519.8,579.4,519.6,579.2,519.6L579.2,519.6z M604.1,553.3
			c-0.1-0.2-0.4-0.3-0.6-0.2l0,0c-0.2,0.1-0.3,0.4-0.2,0.6l0,0c0.1,0.2,0.4,0.3,0.6,0.2l0,0C604.2,553.8,604.2,553.5,604.1,553.3
			L604.1,553.3z M599.2,543.2c-0.1-0.2-0.4-0.3-0.6-0.2l0,0c-0.2,0.1-0.3,0.4-0.2,0.6l0,0c0.1,0.2,0.4,0.3,0.6,0.2l0,0
			C599.2,543.7,599.3,543.4,599.2,543.2L599.2,543.2z M594.2,533.1c-0.1-0.2-0.4-0.3-0.6-0.2c-0.2,0.1-0.3,0.4-0.2,0.6
			c0.1,0.2,0.4,0.3,0.6,0.2C594.2,533.6,594.3,533.4,594.2,533.1L594.2,533.1z M589.2,523.1c-0.1-0.2-0.4-0.3-0.6-0.2
			c-0.2,0.1-0.3,0.4-0.2,0.6c0.1,0.2,0.4,0.3,0.6,0.2l0,0C589.3,523.6,589.4,523.3,589.2,523.1C589.3,523.1,589.3,523.1,589.2,523.1
			L589.2,523.1z M561.4,556.5c-0.2-0.1-0.5,0-0.6,0.3l0,0c-0.1,0.2,0,0.5,0.3,0.6l0,0c0.2,0.1,0.5,0,0.6-0.3
			C561.7,556.8,561.6,556.6,561.4,556.5L561.4,556.5z M564.9,545.8c-0.2-0.1-0.5,0-0.6,0.3l0,0c-0.1,0.2,0,0.5,0.3,0.6
			c0.2,0.1,0.5-0.1,0.6-0.3C565.3,546.1,565.2,545.9,564.9,545.8L564.9,545.8L564.9,545.8z M568.5,535.1c-0.2-0.1-0.5,0-0.6,0.3
			c-0.1,0.2,0,0.5,0.3,0.6l0,0c0.2,0.1,0.5,0,0.6-0.3l0,0C568.8,535.5,568.7,535.2,568.5,535.1L568.5,535.1z M572,524.4
			c-0.2-0.1-0.5,0.1-0.6,0.3c-0.1,0.2,0,0.5,0.3,0.6l0,0c0.2,0.1,0.5,0,0.6-0.3C572.4,524.8,572.2,524.5,572,524.4L572,524.4z
			 M608.4,539.6c-0.1-0.2-0.4-0.3-0.6-0.1c-0.2,0.1-0.3,0.4-0.1,0.6c0.1,0.2,0.4,0.2,0.6,0.1C608.5,540,608.6,539.8,608.4,539.6
			L608.4,539.6z M603.2,531.1c0-0.1-0.1-0.1-0.2-0.2l0,0c-0.1-0.1-0.3,0-0.4,0c-0.2,0.1-0.3,0.4-0.1,0.6c0.1,0.2,0.4,0.2,0.6,0.1
			c0.1-0.1,0.2-0.1,0.2-0.2C603.3,531.3,603.3,531.2,603.2,531.1L603.2,531.1z M597.9,522.6c-0.1-0.2-0.4-0.2-0.6-0.1
			c-0.2,0.1-0.2,0.4-0.1,0.6c0.1,0.2,0.4,0.2,0.6,0.1C598,523,598.1,522.7,597.9,522.6L597.9,522.6z M572.2,555
			c-0.2-0.1-0.4,0.1-0.5,0.3l0,0c-0.1,0.2,0.1,0.4,0.3,0.5l0,0c0.2,0.1,0.5-0.1,0.5-0.3C572.5,555.2,572.4,555,572.2,555L572.2,555
			L572.2,555z M574.4,545.2c-0.2-0.1-0.4,0.1-0.5,0.3l0,0c-0.1,0.2,0.1,0.4,0.3,0.5l0,0c0.2,0.1,0.4-0.1,0.5-0.3
			C574.8,545.4,574.6,545.2,574.4,545.2L574.4,545.2z M576.7,535.4c-0.2-0.1-0.4,0.1-0.5,0.3l0,0c-0.1,0.2,0.1,0.4,0.3,0.5l0,0
			c0.2,0.1,0.4-0.1,0.5-0.3l0,0C577,535.6,576.9,535.4,576.7,535.4L576.7,535.4z M578.9,525.6c-0.2,0-0.4,0.1-0.5,0.3
			c-0.1,0.2,0.1,0.4,0.3,0.5c0.2,0.1,0.4-0.1,0.5-0.3C579.3,525.9,579.1,525.6,578.9,525.6L578.9,525.6z M593.3,550.5
			c-0.2,0.1-0.4,0.3-0.3,0.5c0,0.2,0.2,0.4,0.5,0.3l0,0c0.2,0,0.4-0.2,0.3-0.5C593.8,550.6,593.6,550.4,593.3,550.5z M591.7,540.6
			c-0.2,0.1-0.4,0.3-0.3,0.5c0,0.2,0.2,0.4,0.5,0.3l0,0c0.2,0,0.4-0.2,0.3-0.5l0,0C592.1,540.7,591.9,540.5,591.7,540.6L591.7,540.6
			z M590.1,530.7c-0.2,0-0.4,0.2-0.3,0.5l0,0c0,0.2,0.2,0.4,0.5,0.3l0,0c0.2,0,0.4-0.3,0.3-0.5C590.5,530.8,590.3,530.6,590.1,530.7
			L590.1,530.7L590.1,530.7z M588.5,520.8c-0.2,0-0.4,0.2-0.3,0.5c0,0.1,0.1,0.2,0.1,0.2l0,0c0.1,0.1,0.2,0.1,0.4,0.1
			s0.4-0.3,0.3-0.5C588.9,520.9,588.7,520.7,588.5,520.8L588.5,520.8L588.5,520.8z M556.5,542.3c-0.2-0.1-0.4-0.1-0.6,0.1
			c-0.1,0.2-0.1,0.4,0.1,0.6l0,0c0.2,0.1,0.4,0.1,0.5-0.1l0,0C556.7,542.7,556.7,542.4,556.5,542.3L556.5,542.3L556.5,542.3z
			 M562.3,534.1c-0.2-0.1-0.4-0.1-0.6,0.1c-0.1,0.2-0.1,0.4,0.1,0.6c0.2,0.1,0.4,0.1,0.6-0.1l0,0
			C562.5,534.5,562.5,534.2,562.3,534.1L562.3,534.1L562.3,534.1z M609,519.1c-0.1-0.1-0.2-0.1-0.3,0c-0.1,0.1-0.1,0.2,0,0.4
			c0.1,0.1,0.2,0.1,0.3,0C609.1,519.4,609.1,519.2,609,519.1L609,519.1z M589.7,532.1c-0.1,0-0.2,0.1-0.3,0.2c0,0.1,0.1,0.2,0.2,0.3
			c0.1,0,0.2-0.1,0.3-0.2l0,0C589.9,532.3,589.8,532.1,589.7,532.1L589.7,532.1z M589.9,526.2c-0.1,0-0.2,0.1-0.2,0.2l0,0
			c0,0.1,0.1,0.2,0.2,0.3l0,0c0.1,0,0.3-0.1,0.3-0.2C590.1,526.3,590,526.2,589.9,526.2L589.9,526.2L589.9,526.2z M590.1,520.3
			c-0.1,0-0.2,0.1-0.2,0.2l0,0c0,0.1,0.1,0.2,0.2,0.2c0.1,0,0.2-0.1,0.2-0.2C590.3,520.4,590.2,520.3,590.1,520.3z M601.4,527.1
			c0-0.1-0.2-0.2-0.3-0.2l0,0c-0.1,0-0.2,0.2-0.1,0.3l0,0c0.1,0.1,0.2,0.2,0.3,0.1C601.4,527.4,601.5,527.3,601.4,527.1L601.4,527.1
			z M599.4,521.6c0-0.1-0.2-0.2-0.3-0.1l0,0c-0.1,0.1-0.2,0.2-0.1,0.3c0.1,0.1,0.2,0.2,0.3,0.1C599.4,521.9,599.4,521.7,599.4,521.6
			L599.4,521.6L599.4,521.6z M578.9,526.4c-0.1-0.1-0.2,0-0.3,0.1l0,0c-0.1,0.1,0,0.3,0.1,0.3l0,0c0.1,0.1,0.3,0,0.3-0.1l0,0
			C579,526.6,579,526.5,578.9,526.4L578.9,526.4z M581.3,521c-0.1-0.1-0.2,0-0.3,0.1l0,0c-0.1,0.1,0,0.3,0.1,0.3
			c0.1,0.1,0.3,0,0.3-0.1C581.5,521.2,581.4,521.1,581.3,521L581.3,521L581.3,521z M589.3,534.2c-0.2,0-0.3,0.1-0.3,0.2
			c0,0.1,0.1,0.3,0.2,0.3c0.1,0,0.3,0,0.3-0.2l0,0C589.5,534.4,589.5,534.2,589.3,534.2L589.3,534.2L589.3,534.2z M590.8,527.6
			c-0.2,0-0.3,0.1-0.3,0.2s0.1,0.3,0.2,0.3c0.2,0,0.3-0.1,0.3-0.2l0,0C591,527.8,590.9,527.6,590.8,527.6L590.8,527.6z M592.2,521
			c-0.2,0-0.3,0.1-0.3,0.2c0,0.1,0.1,0.3,0.2,0.3c0.1,0,0.3,0,0.3-0.2l0,0C592.4,521.1,592.3,521,592.2,521L592.2,521z M603.3,531.1
			c0-0.1-0.2-0.3-0.3-0.2l0,0l0,0c-0.1,0-0.2,0.2-0.2,0.3c0,0.1,0.2,0.3,0.3,0.2l0,0c0,0,0.1,0,0.1-0.1
			C603.3,531.4,603.4,531.2,603.3,531.1L603.3,531.1z M601.9,524.2c-0.2,0-0.2,0.2-0.2,0.3c0,0.1,0.2,0.2,0.3,0.2
			c0.1,0,0.2-0.2,0.2-0.3l0,0C602.1,524.3,602,524.2,601.9,524.2L601.9,524.2z M578.2,525.6c-0.1-0.1-0.3-0.1-0.4,0.1l0,0
			c-0.1,0.1-0.1,0.3,0.1,0.4c0.1,0.1,0.3,0.1,0.4-0.1C578.3,525.9,578.3,525.7,578.2,525.6L578.2,525.6z M582,520.1
			c-0.1-0.1-0.3-0.1-0.4,0.1c-0.1,0.1-0.1,0.3,0.1,0.4l0,0c0.1,0.1,0.3,0.1,0.4,0l0,0C582.2,520.3,582.1,520.2,582,520.1L582,520.1z
			 M609.7,536c-0.3,0-0.4,0.3-0.4,0.5c0,0.2,0.3,0.4,0.5,0.4l0,0c0.3,0,0.4-0.3,0.4-0.5S609.9,536,609.7,536L609.7,536L609.7,536z
			 M607.9,524.6c-0.3,0-0.4,0.3-0.4,0.6c0,0.3,0.3,0.4,0.5,0.4c0.3,0,0.4-0.3,0.4-0.6C608.4,524.7,608.2,524.5,607.9,524.6
			L607.9,524.6L607.9,524.6z M566.6,547.6c-0.2-0.2-0.5-0.1-0.7,0.1l0,0c-0.2,0.2-0.1,0.5,0.1,0.7l0,0c0.2,0.2,0.5,0.1,0.7-0.1
			C566.9,548.1,566.8,547.8,566.6,547.6L566.6,547.6L566.6,547.6z M573.4,538.3c-0.2-0.2-0.5-0.1-0.7,0.1l0,0
			c-0.2,0.2-0.1,0.5,0.1,0.7s0.5,0.1,0.7-0.1l0,0C573.6,538.7,573.6,538.4,573.4,538.3L573.4,538.3z M580.1,528.9
			c-0.2-0.2-0.5-0.1-0.7,0.1l0,0c-0.2,0.2-0.1,0.5,0.1,0.7c0.2,0.2,0.5,0.1,0.7-0.1C580.4,529.3,580.4,529,580.1,528.9L580.1,528.9z
			 M586.9,519.5c-0.2-0.2-0.5-0.1-0.7,0.1l0,0c-0.1,0.2-0.1,0.5,0.1,0.7s0.5,0.1,0.7-0.1C587.2,520,587.1,519.7,586.9,519.5
			L586.9,519.5L586.9,519.5z M590.8,552.9c-0.3-0.1-0.5,0.1-0.6,0.3l0,0c-0.1,0.3,0.1,0.5,0.3,0.6c0.3,0,0.5-0.1,0.6-0.4
			C591.3,553.2,591.1,552.9,590.8,552.9L590.8,552.9z M593.6,541.6c-0.2-0.1-0.5,0.1-0.6,0.3l0,0c-0.1,0.2,0.1,0.5,0.3,0.6
			c0.3,0.1,0.5-0.1,0.6-0.4l0,0C594,541.9,593.8,541.7,593.6,541.6L593.6,541.6L593.6,541.6z M596.3,530.3c-0.3-0.1-0.5,0.1-0.6,0.4
			c-0.1,0.3,0.1,0.5,0.4,0.6c0.3,0.1,0.5-0.1,0.6-0.3l0,0C596.7,530.6,596.5,530.4,596.3,530.3L596.3,530.3z M597.8,556.6
			c-0.3-0.1-0.5,0.1-0.6,0.4c-0.1,0.3,0.1,0.5,0.4,0.6c0.3,0.1,0.5-0.1,0.6-0.4l0,0C598.2,556.9,598,556.7,597.8,556.6L597.8,556.6
			L597.8,556.6z M600,545.3c-0.3,0-0.5,0.1-0.6,0.4c0,0.3,0.1,0.5,0.4,0.6c0.3,0.1,0.5-0.1,0.6-0.4
			C600.4,545.6,600.3,545.3,600,545.3L600,545.3z M602.2,533.9c-0.3,0-0.5,0.1-0.6,0.4c0,0.3,0.1,0.5,0.4,0.5
			c0.3,0.1,0.5-0.1,0.6-0.4C602.7,534.2,602.5,534,602.2,533.9L602.2,533.9z M604.5,522.6c-0.3-0.1-0.5,0.1-0.5,0.4l0,0
			c0,0.3,0.1,0.5,0.4,0.6c0.2,0.1,0.5-0.1,0.5-0.3l0,0C604.9,522.9,604.7,522.6,604.5,522.6L604.5,522.6L604.5,522.6z M577.1,517
			c-0.1-0.2-0.4-0.3-0.6-0.1l0,0c-0.2,0.1-0.3,0.4-0.1,0.7c0.1,0.2,0.4,0.3,0.7,0.1C577.2,517.5,577.2,517.2,577.1,517L577.1,517z
			 M578.8,542.2c-0.2-0.1-0.5-0.1-0.6,0.1l0,0c-0.1,0.2-0.1,0.5,0.1,0.7c0.2,0.1,0.5,0.1,0.7-0.1C579,542.7,579,542.4,578.8,542.2
			L578.8,542.2z M585.1,532.6c-0.2-0.1-0.5-0.1-0.6,0.1l0,0c-0.1,0.2-0.1,0.5,0.1,0.7c0.2,0.1,0.5,0.1,0.7-0.1
			C585.4,533.1,585.3,532.8,585.1,532.6L585.1,532.6L585.1,532.6z M591.5,523c-0.2-0.1-0.5-0.1-0.7,0.2c-0.1,0.2-0.1,0.5,0.1,0.6
			c0.2,0.1,0.5,0.1,0.7-0.1C591.7,523.4,591.7,523.1,591.5,523L591.5,523z M597.7,536.8c-0.2-0.1-0.4,0-0.5,0.2l0,0
			c-0.1,0.2,0,0.4,0.2,0.5c0.2,0.1,0.4,0,0.5-0.2l0,0C598,537,597.9,536.8,597.7,536.8L597.7,536.8z M601.1,528.7
			c-0.2-0.1-0.4,0-0.5,0.2l0,0c-0.1,0.2,0,0.4,0.2,0.5c0.2,0.1,0.4,0,0.5-0.2C601.4,529,601.3,528.8,601.1,528.7L601.1,528.7z
			 M604.6,520.7c-0.2-0.1-0.4,0-0.5,0.2c-0.1,0.2,0,0.4,0.2,0.5c0.2,0.1,0.4,0,0.5-0.2C604.8,521,604.7,520.8,604.6,520.7
			L604.6,520.7z M585.7,523.2c-0.1-0.1-0.3-0.2-0.5,0l0,0c-0.1,0.1-0.2,0.4,0,0.5l0,0c0.1,0.1,0.3,0.1,0.5,0l0,0
			C585.8,523.6,585.8,523.4,585.7,523.2L585.7,523.2L585.7,523.2z"/>
		
			<linearGradient id="R_sleeve_1_" gradientUnits="userSpaceOnUse" x1="444.4011" y1="298.0821" x2="516.0426" y2="298.0821" gradientTransform="matrix(1 0 0 -1 0 724)">
			<stop  offset="0" style="stop-color:#23286B"/>
			<stop  offset="0.5597" style="stop-color:#1B205B"/>
			<stop  offset="1" style="stop-color:#151A4F"/>
		</linearGradient>
		<path id="R_sleeve" class="st10" d="M553,373.5c0,0,15.1,36.6-49.6,81.5c0,0,23.1,36.3,40.9,37c0,0,47.1-33.4,24.7-132.1l0,0
			L553,373.5z"/>
		
			<linearGradient id="sweater_1_" gradientUnits="userSpaceOnUse" x1="532.9677" y1="324.2877" x2="621.9227" y2="199.6337" gradientTransform="matrix(1 0 0 -1 0 724)">
			<stop  offset="0" style="stop-color:#23286B"/>
			<stop  offset="1" style="stop-color:#151A4F"/>
		</linearGradient>
		<path id="sweater" class="st11" d="M553,373.5c0,0,2.7,82.1-22.4,121.1c0,0,57.6,42.2,99.8,17.1c0,0-12.9-115-59.8-151.9l0,0
			C570.6,359.8,554.4,371.1,553,373.5z"/>
		<path id="L_sleeve_1_" class="st12" d="M574.5,357.2c0,0,85.1,48.9,85.1,164.2c0,0-34.1,4.9-64.1-13.8c0,0-16-109-42.5-134.1
			L574.5,357.2z"/>
		
			<linearGradient id="handle_1_" gradientUnits="userSpaceOnUse" x1="596.383" y1="133.4241" x2="601.5164" y2="99.5074" gradientTransform="matrix(1 0 0 -1 0 724)">
			<stop  offset="0.1291" style="stop-color:#428DFC"/>
			<stop  offset="0.9987" style="stop-color:#1D72D8"/>
		</linearGradient>
		<path id="handle" class="st13" d="M574.2,613.3c1.2-14.6,15.6-23.3,29.4-20c13.1,3.1,21,14.9,23,27.6c0.3,1.8,3.1,1.1,2.8-0.8
			c-2.4-15.2-13.1-28.6-29.1-30.3c-14.6-1.6-27.8,8.7-29.1,23.5C571.1,615.2,574,615.2,574.2,613.3L574.2,613.3z"/>
		
			<linearGradient id="L_hand_2_" gradientUnits="userSpaceOnUse" x1="614.0206" y1="130.0456" x2="614.0206" y2="220.951" gradientTransform="matrix(1 0 0 -1 0 724)">
			<stop  offset="0" style="stop-color:#FFBEB6"/>
			<stop  offset="1" style="stop-color:#F2A19C"/>
		</linearGradient>
		<path id="L_hand_1_" class="st14" d="M625.2,558.5c-12.1,25.5-6.7,26.7-4.7,37.6c2,10.9-1.9,12.9-20.3,11.8
			c-18.5-1.1-11.4-20.7-11.4-20.7s-1.8,2.9-3.6-0.8c-1.8-3.6-0.7-14.6,13.5-23.7c12.8-8.2,12.3-41.3,12.1-47.7
			c10.5,3.9,21.5,6.2,32.6,6.7C640.6,527,634.2,539.5,625.2,558.5z"/>
		
			<linearGradient id="case_1_" gradientUnits="userSpaceOnUse" x1="582.2673" y1="138.747" x2="617.064" y2="-91.1593" gradientTransform="matrix(1 0 0 -1 0 724)">
			<stop  offset="0.1291" style="stop-color:#428DFC"/>
			<stop  offset="0.9987" style="stop-color:#1D72D8"/>
		</linearGradient>
		<polygon id="case" class="st15" points="521.8,606.6 678.7,622.3 667.8,731 511,715.2 		"/>
		<path id="texture-2_1_" class="st9" d="M659.5,638.7c-0.1-0.1-0.2-0.2-0.3-0.1l0,0c-0.1,0.1-0.2,0.2-0.1,0.3
			c0.1,0.1,0.2,0.2,0.3,0.1l0,0C659.5,638.9,659.6,638.8,659.5,638.7z M657.1,632.9c0-0.1-0.2-0.2-0.3-0.1l0,0
			c-0.1,0.1-0.2,0.2-0.2,0.3c0.1,0.1,0.2,0.2,0.3,0.1C657.1,633.2,657.2,633,657.1,632.9L657.1,632.9z M654.8,627.2
			c0-0.1-0.2-0.2-0.3-0.2s-0.2,0.2-0.2,0.3l0,0c0.1,0.1,0.2,0.2,0.3,0.1l0,0C654.8,627.4,654.8,627.3,654.8,627.2L654.8,627.2z
			 M652.4,621.4c-0.1-0.1-0.2-0.2-0.3-0.1l0,0c-0.1,0.1-0.2,0.2-0.1,0.4c0.1,0.1,0.2,0.2,0.3,0.1l0,0
			C652.4,621.7,652.5,621.5,652.4,621.4L652.4,621.4z M633.4,638.6c-0.1,0-0.3,0-0.3,0.2c-0.1,0.1,0,0.3,0.1,0.3l0,0
			c0.1,0.1,0.3,0,0.3-0.1l0,0C633.6,638.8,633.5,638.7,633.4,638.6L633.4,638.6z M668.3,628.5c-0.1-0.1-0.2-0.1-0.3,0l0,0
			c-0.1,0.1-0.1,0.2,0,0.3l0,0c0.1,0.1,0.2,0.1,0.3,0l0,0C668.4,628.8,668.4,628.6,668.3,628.5L668.3,628.5L668.3,628.5z
			 M663.9,624.1c-0.1-0.1-0.3-0.1-0.3,0l-0.1,0.1c0,0.1,0,0.2,0.1,0.2l0,0l0,0c0.1,0.1,0.2,0,0.3,0C664,624.4,664,624.2,663.9,624.1
			L663.9,624.1L663.9,624.1z M659.5,619.8c-0.1-0.1-0.2-0.1-0.3,0l0,0c-0.1,0.1-0.1,0.2,0,0.3l0,0c0.1,0.1,0.2,0.1,0.3,0l0,0
			C659.6,620,659.6,619.9,659.5,619.8L659.5,619.8L659.5,619.8z M646.4,637.9c-0.1,0-0.3,0.1-0.3,0.3c0,0.1,0.1,0.3,0.3,0.3
			c0.1,0,0.3-0.1,0.3-0.3C646.6,638,646.5,637.9,646.4,637.9z M646.4,631.6c-0.1,0-0.3,0.1-0.3,0.3c0,0.1,0.1,0.2,0.2,0.2l0,0
			c0.1,0,0.3-0.1,0.3-0.2C646.6,631.7,646.5,631.6,646.4,631.6L646.4,631.6z M675.3,624.3c-0.2-0.2-0.5-0.2-0.7,0s-0.2,0.5,0,0.7
			s0.5,0.2,0.7,0S675.5,624.5,675.3,624.3z M657.3,669.7c-0.3,0-0.5,0.3-0.5,0.5c0,0.3,0.2,0.5,0.5,0.4l0,0c0.3,0,0.5-0.3,0.5-0.5
			S657.6,669.7,657.3,669.7L657.3,669.7L657.3,669.7z M656.5,657.9c-0.3,0-0.5,0.3-0.4,0.5c0,0.3,0.2,0.5,0.5,0.5s0.5-0.2,0.5-0.5
			l0,0C657,658.1,656.8,657.9,656.5,657.9L656.5,657.9z M655.7,646.1c-0.3,0-0.5,0.3-0.5,0.5c0,0.3,0.2,0.5,0.5,0.4l0,0
			c0.3,0,0.5-0.2,0.5-0.5l0,0C656.2,646.3,656,646.1,655.7,646.1L655.7,646.1z M654.9,634.3c-0.3,0-0.5,0.3-0.4,0.5
			c0,0.3,0.3,0.5,0.5,0.4c0.3,0,0.5-0.3,0.4-0.5C655.4,634.5,655.2,634.3,654.9,634.3L654.9,634.3z M654.1,622.5
			c-0.3,0-0.5,0.3-0.4,0.5l0,0c0,0.3,0.2,0.5,0.5,0.5s0.5-0.2,0.5-0.5l0,0C654.6,622.7,654.4,622.5,654.1,622.5L654.1,622.5z
			 M675.1,647.3c-0.1-0.2-0.4-0.3-0.6-0.2l0,0c-0.2,0.1-0.3,0.4-0.2,0.7l0,0c0.1,0.2,0.4,0.3,0.6,0.2l0,0
			C675.1,647.9,675.2,647.6,675.1,647.3L675.1,647.3z M669.9,636.8c-0.1-0.2-0.4-0.3-0.7-0.2c-0.2,0.1-0.3,0.4-0.2,0.7
			c0.1,0.2,0.4,0.3,0.6,0.2C669.9,637.3,670,637,669.9,636.8L669.9,636.8z M664.7,626.2c-0.1-0.2-0.4-0.3-0.6-0.2
			c-0.2,0.1-0.3,0.4-0.2,0.7c0.1,0.2,0.4,0.3,0.6,0.2l0,0C664.7,626.7,664.8,626.5,664.7,626.2L664.7,626.2L664.7,626.2z
			 M635.4,661.3c-0.2-0.1-0.5,0-0.6,0.3l0,0c-0.1,0.2,0,0.5,0.3,0.6l0,0c0.3,0.1,0.5-0.1,0.6-0.3
			C635.8,661.6,635.6,661.4,635.4,661.3L635.4,661.3z M639.1,650.1c-0.3-0.1-0.5,0-0.6,0.3l0,0c-0.1,0.3,0,0.5,0.3,0.6
			c0.3,0.1,0.5-0.1,0.6-0.3C639.5,650.4,639.4,650.1,639.1,650.1L639.1,650.1L639.1,650.1z M642.8,638.8c-0.3-0.1-0.5,0.1-0.6,0.3
			c-0.1,0.3,0,0.5,0.3,0.6l0,0c0.2,0.1,0.5,0,0.6-0.3l0,0C643.2,639.2,643.1,638.9,642.8,638.8L642.8,638.8z M646.6,627.6
			c-0.3-0.1-0.5,0.1-0.6,0.3c-0.1,0.2,0,0.5,0.3,0.6l0,0c0.3,0.1,0.5-0.1,0.6-0.3C647,628,646.8,627.7,646.6,627.6L646.6,627.6z
			 M673.8,625.7c-0.1-0.2-0.4-0.3-0.6-0.1c-0.2,0.1-0.3,0.4-0.1,0.6c0.1,0.2,0.4,0.3,0.6,0.1C673.9,626.1,673.9,625.9,673.8,625.7
			L673.8,625.7z M646.7,659.7c-0.2-0.1-0.5,0.1-0.5,0.3l0,0c-0.1,0.2,0.1,0.5,0.3,0.5l0,0c0.2,0.1,0.5-0.1,0.5-0.3
			C647.1,660,647,659.7,646.7,659.7L646.7,659.7z M649.1,649.4c-0.2-0.1-0.5,0.1-0.5,0.3l0,0c-0.1,0.2,0.1,0.5,0.3,0.5l0,0
			c0.2,0.1,0.5-0.1,0.5-0.3C649.5,649.7,649.3,649.5,649.1,649.4L649.1,649.4z M651.5,639.1c-0.2-0.1-0.5,0.1-0.5,0.3l0,0
			c-0.1,0.2,0.1,0.4,0.3,0.5l0,0c0.2,0.1,0.5-0.1,0.5-0.3l0,0C651.8,639.4,651.7,639.2,651.5,639.1L651.5,639.1z M653.8,628.8
			c-0.2,0-0.5,0.1-0.5,0.3c-0.1,0.2,0.1,0.5,0.3,0.5c0.2,0.1,0.5-0.1,0.5-0.3C654.2,629.1,654,628.9,653.8,628.8L653.8,628.8z
			 M668.9,655c-0.2,0.1-0.4,0.3-0.4,0.5s0.3,0.4,0.5,0.4l0,0c0.2,0,0.4-0.3,0.4-0.5C669.4,655.1,669.2,654.9,668.9,655z
			 M667.2,644.6c-0.2,0.1-0.4,0.3-0.4,0.5s0.3,0.4,0.5,0.4l0,0c0.2,0,0.4-0.2,0.4-0.5l0,0C667.7,644.7,667.5,644.5,667.2,644.6z
			 M665.5,634.2c-0.2,0-0.4,0.2-0.4,0.5l0,0c0,0.2,0.3,0.4,0.5,0.4l0,0c0.2,0,0.4-0.3,0.3-0.5C666,634.3,665.8,634.2,665.5,634.2
			C665.6,634.2,665.5,634.2,665.5,634.2z M663.8,623.8c-0.2,0-0.4,0.3-0.4,0.5c0,0.1,0.1,0.2,0.1,0.2l0,0c0.1,0.1,0.2,0.1,0.4,0.1
			s0.4-0.3,0.3-0.5C664.3,623.9,664.1,623.8,663.8,623.8L663.8,623.8L663.8,623.8z M630.3,646.4c-0.2-0.1-0.5-0.1-0.6,0.1
			c-0.1,0.2-0.1,0.5,0.1,0.6l0,0c0.2,0.1,0.4,0.1,0.6-0.1l0,0C630.5,646.8,630.5,646.5,630.3,646.4L630.3,646.4L630.3,646.4z
			 M636.4,637.8c-0.2-0.1-0.5-0.1-0.6,0.1s-0.1,0.5,0.1,0.6c0.2,0.1,0.5,0.1,0.6-0.1l0,0C636.6,638.2,636.6,637.9,636.4,637.8
			L636.4,637.8L636.4,637.8z M665.1,635.7c-0.1,0-0.3,0.1-0.3,0.2c0,0.1,0.1,0.3,0.2,0.3c0.1,0,0.3-0.1,0.3-0.2l0,0
			C665.4,635.8,665.3,635.7,665.1,635.7L665.1,635.7z M665.3,629.5c-0.1,0-0.3,0.1-0.3,0.2l0,0c0,0.1,0.1,0.3,0.2,0.3l0,0
			c0.1,0,0.3-0.1,0.3-0.2C665.6,629.6,665.5,629.5,665.3,629.5L665.3,629.5L665.3,629.5z M665.6,623.3c-0.1,0-0.3,0.1-0.3,0.2l0,0
			c0,0.1,0.1,0.3,0.2,0.3c0.1,0,0.3-0.1,0.3-0.2C665.8,623.4,665.7,623.3,665.6,623.3z M677.5,630.5c0-0.1-0.2-0.2-0.3-0.2l0,0
			c-0.1,0-0.2,0.2-0.2,0.3l0,0c0.1,0.1,0.2,0.2,0.3,0.2C677.4,630.8,677.5,630.6,677.5,630.5L677.5,630.5z M675.3,624.6
			c0-0.1-0.2-0.2-0.3-0.1l0,0c-0.1,0.1-0.2,0.2-0.2,0.3c0.1,0.1,0.2,0.2,0.3,0.2C675.3,624.9,675.4,624.8,675.3,624.6L675.3,624.6
			L675.3,624.6z M653.8,629.7c-0.1-0.1-0.3,0-0.3,0.1l0,0c-0.1,0.1,0,0.3,0.1,0.3l0,0c0.1,0.1,0.3,0,0.3-0.1l0,0
			C654,629.9,653.9,629.8,653.8,629.7L653.8,629.7L653.8,629.7z M656.3,624.1c-0.1-0.1-0.3,0-0.3,0.1l0,0c-0.1,0.1,0,0.3,0.1,0.3
			c0.1,0.1,0.3,0,0.3-0.1C656.5,624.3,656.5,624.1,656.3,624.1L656.3,624.1L656.3,624.1z M664.7,637.9c-0.2,0-0.3,0.1-0.3,0.2
			c0,0.2,0.1,0.3,0.2,0.3c0.1,0,0.3,0,0.3-0.2l0,0C665,638.1,664.9,637.9,664.7,637.9L664.7,637.9L664.7,637.9z M666.2,630.9
			c-0.2,0-0.3,0.1-0.3,0.2c0,0.2,0.1,0.3,0.2,0.3c0.2,0,0.3-0.1,0.4-0.2l0,0C666.5,631.1,666.4,631,666.2,630.9L666.2,630.9z
			 M667.8,624c-0.2,0-0.3,0.1-0.3,0.2c0,0.2,0.1,0.3,0.2,0.3c0.1,0,0.3,0,0.3-0.2l0,0C668,624.2,667.9,624,667.8,624L667.8,624z
			 M677.9,627.4c-0.2,0-0.3,0.2-0.2,0.4c0,0.2,0.2,0.3,0.4,0.2c0.2,0,0.3-0.2,0.2-0.3l0,0C678.2,627.5,678.1,627.4,677.9,627.4
			L677.9,627.4z M653,628.9c-0.1-0.1-0.3-0.1-0.4,0.1l0,0c-0.1,0.1-0.1,0.3,0.1,0.4c0.1,0.1,0.3,0.1,0.4-0.1
			C653.2,629.2,653.2,629,653,628.9z M657.1,623.1c-0.1-0.1-0.3-0.1-0.4,0.1c-0.1,0.1-0.1,0.3,0.1,0.4l0,0c0.1,0.1,0.3,0.1,0.4,0
			l0,0C657.2,623.3,657.2,623.2,657.1,623.1L657.1,623.1z M640.9,652c-0.2-0.2-0.5-0.1-0.7,0.1l0,0c-0.2,0.2-0.1,0.5,0.1,0.7l0,0
			c0.2,0.2,0.5,0.1,0.7-0.1S641.1,652.2,640.9,652L640.9,652L640.9,652z M648,642.1c-0.2-0.2-0.5-0.1-0.7,0.1l0,0
			c-0.2,0.2-0.1,0.5,0.1,0.7s0.5,0.1,0.7-0.1l0,0C648.3,642.6,648.2,642.3,648,642.1L648,642.1z M655.1,632.3
			c-0.2-0.2-0.5-0.1-0.7,0.1l0,0c-0.2,0.2-0.1,0.5,0.1,0.7c0.2,0.2,0.5,0.1,0.7-0.1C655.4,632.8,655.3,632.5,655.1,632.3
			L655.1,632.3z M662.2,622.4c-0.2-0.2-0.5-0.1-0.7,0.1l0,0c-0.2,0.2-0.1,0.5,0.1,0.7c0.2,0.2,0.5,0.1,0.7-0.1
			S662.5,622.6,662.2,622.4C662.2,622.5,662.2,622.4,662.2,622.4L662.2,622.4z M666.3,657.5c-0.3-0.1-0.5,0.1-0.6,0.4l0,0
			c-0.1,0.3,0.1,0.5,0.4,0.6c0.3,0.1,0.5-0.1,0.6-0.4S666.6,657.6,666.3,657.5L666.3,657.5z M669.2,645.6c-0.3-0.1-0.5,0.1-0.6,0.3
			l0,0c-0.1,0.3,0.1,0.5,0.4,0.6c0.3,0.1,0.5-0.1,0.6-0.4l0,0C669.6,646,669.5,645.7,669.2,645.6L669.2,645.6L669.2,645.6z
			 M672,633.8c-0.3-0.1-0.5,0.1-0.6,0.4s0.1,0.5,0.4,0.6c0.3,0.1,0.5-0.1,0.6-0.4l0,0C672.5,634.1,672.3,633.9,672,633.8L672,633.8z
			 M674.9,621.9c-0.3-0.1-0.5,0.1-0.6,0.4s0.1,0.5,0.4,0.6c0.3,0.1,0.5-0.1,0.6-0.4C675.3,622.3,675.1,622,674.9,621.9L674.9,621.9z
			 M673.6,661.4c-0.3-0.1-0.5,0.1-0.6,0.4s0.1,0.5,0.4,0.6c0.3,0.1,0.5-0.1,0.6-0.4l0,0C674.1,661.7,673.9,661.5,673.6,661.4
			L673.6,661.4L673.6,661.4z M676,649.5c-0.3,0-0.5,0.1-0.6,0.4c0,0.3,0.1,0.5,0.4,0.6c0.3,0.1,0.5-0.1,0.6-0.4
			C676.4,649.8,676.2,649.6,676,649.5L676,649.5z M651.9,619.8c-0.1-0.2-0.4-0.3-0.7-0.1l0,0c-0.2,0.2-0.3,0.5-0.1,0.7
			c0.1,0.2,0.5,0.3,0.7,0.2C652,620.4,652,620.1,651.9,619.8L651.9,619.8z M653.6,646.3c-0.2-0.1-0.5-0.1-0.7,0.1l0,0
			c-0.2,0.2-0.1,0.5,0.1,0.7c0.2,0.2,0.5,0.1,0.7-0.1C653.9,646.8,653.9,646.5,653.6,646.3C653.7,646.3,653.7,646.3,653.6,646.3
			L653.6,646.3z M660.3,636.2c-0.2-0.1-0.5-0.1-0.7,0.1l0,0c-0.2,0.2-0.1,0.5,0.1,0.7c0.2,0.2,0.5,0.1,0.7-0.1
			S660.6,636.4,660.3,636.2L660.3,636.2L660.3,636.2z M667,626.1c-0.2-0.1-0.5-0.1-0.7,0.2c-0.1,0.2-0.1,0.5,0.1,0.7
			c0.2,0.2,0.5,0.1,0.7-0.1C667.3,626.6,667.2,626.3,667,626.1L667,626.1z M673.6,640.6c-0.2-0.1-0.4,0-0.5,0.2l0,0
			c-0.1,0.2,0,0.4,0.2,0.5c0.2,0.1,0.4,0,0.5-0.2l0,0C673.9,640.9,673.8,640.7,673.6,640.6L673.6,640.6z M677.2,632.2
			c-0.2-0.1-0.4,0-0.5,0.2l0,0c-0.1,0.2,0,0.4,0.2,0.5c0.2,0.1,0.4,0,0.5-0.2C677.4,632.5,677.4,632.2,677.2,632.2L677.2,632.2z
			 M660.9,626.4c-0.1-0.1-0.4-0.2-0.5,0l0,0c-0.2,0.1-0.2,0.4,0,0.5l0,0c0.1,0.1,0.4,0.2,0.5,0l0,0
			C661.1,626.8,661.1,626.5,660.9,626.4L660.9,626.4L660.9,626.4z"/>
		
			<linearGradient id="R_hand_1_" gradientUnits="userSpaceOnUse" x1="441.4619" y1="245.1288" x2="396.9369" y2="184.8486" gradientTransform="matrix(1 0 0 -1 0 724)">
			<stop  offset="0" style="stop-color:#FFBEB6"/>
			<stop  offset="1" style="stop-color:#F2A19C"/>
		</linearGradient>
		<path id="R_hand" class="st16" d="M416.2,487.9c0,0,18.8,14.2,25.9,12c7.1-2.2,6.2-7.4,0.3-9.6S427,479.3,416.2,487.9z"/>
		
			<linearGradient id="R_hand-2_1_" gradientUnits="userSpaceOnUse" x1="427.4095" y1="255.0321" x2="517.3499" y2="255.0321" gradientTransform="matrix(1 0 0 -1 0 724)">
			<stop  offset="0" style="stop-color:#FFBEB6"/>
			<stop  offset="1" style="stop-color:#F2A19C"/>
		</linearGradient>
		<path id="R_hand-2" class="st17" d="M503.4,455c0,0-32,11.3-42.2,9.8s-13.6-1.5-17.9,0.6c-4.3,2.2-13.3,7.4-15.4,7.7
			c-2.2,0.3,2.5,5.9,10.8,2.8c8.3-3.1,19.4-1.5,28.7,7.1c0,0,36.1-9.9,49.9-8.9L503.4,455z"/>
		<path id="hair_1_" class="st18" d="M607.1,359.9c-0.2-3.2-9.5-2.5-19.5-7.2c6,2,12.3,3.1,18.6,3.1c0.2,0,0.4-0.2,0.4-0.5
			c0-0.2-0.2-0.4-0.4-0.4c-8.6-0.1-17.1-2-24.9-5.7c-3.7-2-7.7-3.2-11.8-3.6c5.7-1,14.9-4.8,21.6-18c10.4-20.5-21.7-44-56.6-27.5
			c-0.6,2.6-0.6,5.2,0.1,7.8c0.5,7.6,4.5,14.5,10.8,18.7c3.2,2.1,7.2,3.6,11,2.7c1.2-0.3,2.3-0.8,3.4-1.5c0.7-0.2,1.3-0.6,1.8-1
			c4.3-3.8,11.1-1.8,8.3,6.1c-1.5,4.5-3.4,8.9-5.6,13.1c1.1,21.2,21,32.1,21,32.1C603.5,375.9,607.3,363.5,607.1,359.9z
			 M547.2,326.6c-5.7-3.2-9.8-8.6-11.2-15c1.2,2.2,2.8,4.2,4.8,5.8c6.3,5.4,11.7,9.6,15.9,10.4C554.2,328.8,551.3,328.9,547.2,326.6
			L547.2,326.6z"/>
		<path id="eye" class="st19" d="M535.5,321.2c-2.3,1.9-5.6,1.5-7.5-0.8c-0.7-0.8-1.1-1.8-1.2-2.9c-0.1-0.8,1.2-1.1,1.2-0.3
			c0.1,2.2,2,4,4.3,3.8c0.8,0,1.7-0.4,2.3-0.9C535.3,319.8,536.1,320.7,535.5,321.2z"/>
	</g>
	<g id="man">
		
			<linearGradient id="L_shoe-2_1_" gradientUnits="userSpaceOnUse" x1="438.3287" y1="-106.9739" x2="260.7429" y2="-116.9088" gradientTransform="matrix(1 0 0 -1 0 724)">
			<stop  offset="0.1291" style="stop-color:#428DFC"/>
			<stop  offset="0.9987" style="stop-color:#1D72D8"/>
		</linearGradient>
		<path id="L_shoe-2" class="st20" d="M281,814.8l-16,44.6h112.7c0,0-5.8-11.2-25-19.4c-19.3-8.3-37.2-25.2-37.2-25.2L281,814.8"/>
		<path id="R_shoe-2" class="st21" d="M192.2,814.8l-16,44.6h112.7c0,0-5.8-11.2-25-19.4c-19.3-8.3-37.2-25.2-37.2-25.2L192.2,814.8
			"/>
		
			<linearGradient id="L_trousers-2_1_" gradientUnits="userSpaceOnUse" x1="437.7286" y1="-12.1398" x2="256.4312" y2="81.8174" gradientTransform="matrix(1 0 0 -1 0 724)">
			<stop  offset="0" style="stop-color:#23286B"/>
			<stop  offset="1" style="stop-color:#151A4F"/>
		</linearGradient>
		<path id="L_trousers-2" class="st22" d="M317.6,642.9c-1.9-24.9-8.5-47.6-12.4-70.4c-0.6-3.1-1.3-6.2-1.7-9.4
			c-2-15.1-8.4-64-9.7-70.6l-29.4,3.4l-14.1,2.2l0,0c0,0-10,1.9-17.5,5.9l0,0c-2.9,14.2-3.6,31.9,1.2,52.6
			c13.6,59.7,14.6,51.3,12.6,93.2c-2.1,41.9,4.7,27.7,6.8,71.7s-12.5,36.4,9.5,93.2l52.6,0.2C315.4,814.8,320.5,680.7,317.6,642.9z"
			/>
		<path id="R_trousers-2" class="st12" d="M294.6,581.4c0,0,4.9-82.1,7.8-92.4l-88.7,5.2l-4.9,9.4c-0.9-0.2,0.9,0.2,0,0
			c-7.1,26.5-6.2,54.4,2.6,80.4c21.7,65.1,6.8,62-0.2,81.7c-7.1,19.7-10.8,31.7-9.2,50.3s-21.9,33.2-26.3,57.2
			c-4.3,24.1-1.1,41.7-1.1,41.7l52.1-0.2c0,0,60.2-136.4,63.1-164.8C292.4,624.4,292.4,614.4,294.6,581.4z"/>
		<path id="texture-3_1_" class="st9" d="M220.9,504.3c0.1,0.1,0.2,0.2,0.3,0.1l0,0c0.1-0.1,0.2-0.2,0.1-0.3l0,0
			c-0.1-0.1-0.2-0.2-0.3-0.1l0,0C220.9,504.1,220.9,504.2,220.9,504.3z M226.6,502c0.1,0.1,0.2,0.2,0.3,0.1l0,0
			c0.1-0.1,0.2-0.2,0.1-0.3c-0.1-0.1-0.2-0.2-0.3-0.1l0,0C226.6,501.7,226.6,501.8,226.6,502L226.6,502z M232.3,499.6
			c0,0.1,0.2,0.2,0.3,0.2l0,0c0.1-0.1,0.2-0.2,0.1-0.3c-0.1-0.1-0.2-0.2-0.3-0.1l0,0C232.3,499.3,232.3,499.5,232.3,499.6
			L232.3,499.6z M238,497.3c0.1,0.1,0.2,0.2,0.3,0.1l0,0c0.1-0.1,0.2-0.2,0.1-0.3c-0.1-0.1-0.2-0.2-0.3-0.1
			C238,497,238,497.1,238,497.3z M243.7,494.9c0.1,0.1,0.2,0.2,0.3,0.1l0,0c0.1-0.1,0.2-0.2,0.1-0.3c-0.1-0.1-0.2-0.2-0.3-0.1l0,0
			C243.7,494.6,243.7,494.8,243.7,494.9L243.7,494.9z M239.4,523.1c0.1,0.1,0.3,0,0.3-0.1l0,0c0.1-0.1,0-0.3-0.1-0.3
			c-0.1-0.1-0.3,0-0.3,0.1l0,0C239.2,522.9,239.3,523.1,239.4,523.1L239.4,523.1z M241.7,517.4c0.1,0.1,0.3,0,0.3-0.1
			c0-0.1,0-0.3-0.2-0.3c-0.1-0.1-0.3,0-0.3,0.1l0,0C241.6,517.2,241.6,517.3,241.7,517.4L241.7,517.4z M244.1,511.6
			c0.1,0.1,0.3,0,0.3-0.1l0,0c0.1-0.1,0-0.3-0.1-0.3c-0.1-0.1-0.3,0-0.3,0.1l0,0C243.9,511.4,244,511.6,244.1,511.6L244.1,511.6z
			 M246.5,505.9c0.1,0.1,0.3,0,0.3-0.1l0,0c0.1-0.1,0-0.3-0.1-0.4c-0.1-0.1-0.3,0-0.3,0.1l0,0C246.3,505.7,246.4,505.8,246.5,505.9
			L246.5,505.9z M265.2,523.1c0.1,0.1,0.2,0.2,0.3,0.1l0,0c0.1,0,0.2-0.2,0.1-0.3l0,0c0-0.1-0.2-0.2-0.3-0.2
			C265.2,522.8,265.2,523,265.2,523.1L265.2,523.1z M221.6,490.7c0,0.1,0.1,0.3,0.3,0.3c0.1,0,0.2-0.1,0.2-0.3l0,0
			c0-0.1-0.1-0.3-0.2-0.3C221.7,490.4,221.6,490.5,221.6,490.7L221.6,490.7z M227.8,490.7v0.1c0.1,0.1,0.1,0.1,0.2,0.1
			c0.1,0,0.2-0.1,0.2-0.3l0,0c0-0.1-0.1-0.3-0.2-0.3l0,0c-0.1,0-0.2,0.1-0.2,0.1C227.8,490.6,227.8,490.7,227.8,490.7L227.8,490.7z
			 M233.9,490.7c0,0.1,0.1,0.3,0.3,0.2c0.1,0,0.3-0.1,0.3-0.2l0,0c0-0.1-0.1-0.3-0.3-0.3C234,490.5,233.9,490.6,233.9,490.7
			L233.9,490.7z M230.5,513c0.1,0.1,0.2,0.1,0.3,0l0,0c0.1-0.1,0.1-0.2,0-0.3l0,0c-0.1-0.1-0.2-0.1-0.3,0l0,0
			C230.4,512.8,230.4,512.9,230.5,513L230.5,513L230.5,513z M234.9,508.6c0.1,0.1,0.2,0.1,0.3,0l0,0l0,0c0.1-0.1,0.1-0.1,0.1-0.2
			c0-0.1,0-0.1-0.1-0.1c-0.1-0.1-0.3-0.1-0.3,0C234.8,508.4,234.8,508.5,234.9,508.6L234.9,508.6L234.9,508.6z M239.2,504.2
			c0.1,0.1,0.3,0.1,0.3,0l0,0c0.1-0.1,0.1-0.2,0-0.3l0,0c-0.1-0.1-0.2-0.1-0.3,0l0,0C239.1,504,239.1,504.1,239.2,504.2L239.2,504.2
			L239.2,504.2z M243.6,499.9c0.1,0.1,0.2,0.1,0.3,0l0,0c0.1-0.1,0.1-0.3,0-0.4l0,0c-0.1-0.1-0.3-0.1-0.3,0
			C243.5,499.6,243.5,499.7,243.6,499.9C243.6,499.8,243.6,499.8,243.6,499.9L243.6,499.9z M252.1,522.3c0,0.1,0.1,0.3,0.3,0.3
			c0.1,0,0.3-0.1,0.3-0.3c0-0.1-0.1-0.3-0.3-0.3C252.2,522,252.1,522.1,252.1,522.3L252.1,522.3z M252.1,516c0,0.1,0.1,0.3,0.3,0.2
			c0.1,0,0.3-0.1,0.3-0.2l0,0c0-0.1-0.1-0.3-0.3-0.3C252.3,515.8,252.1,515.9,252.1,516L252.1,516z M193.2,486.1
			C193.2,486.1,193.3,486.2,193.2,486.1c0.3,0,0.6-0.1,0.6-0.4l0,0c0-0.3-0.2-0.5-0.5-0.5h-0.1C193.2,485.5,193.2,485.8,193.2,486.1
			z M204.5,486.5c0,0.1,0,0.2,0,0.2c0.1,0.2,0.2,0.3,0.4,0.3l0,0c0.3,0,0.5-0.2,0.5-0.5c0-0.3-0.2-0.5-0.4-0.5
			C204.8,486,204.5,486.2,204.5,486.5L204.5,486.5z M216.2,487.3c0,0.3,0.2,0.5,0.5,0.5s0.5-0.2,0.5-0.4l0,0c0-0.3-0.2-0.5-0.5-0.5
			C216.4,486.9,216.2,487,216.2,487.3L216.2,487.3L216.2,487.3z M205.8,524.6c0.2,0.2,0.5,0.2,0.7,0.1l0,0c0.2-0.2,0.2-0.5,0-0.7
			s-0.5-0.2-0.7-0.1l0,0C205.6,524.1,205.6,524.4,205.8,524.6L205.8,524.6z M214.6,516.9c0.2,0.2,0.5,0.2,0.7,0.1l0,0
			c0.2-0.2,0.2-0.5,0.1-0.7l0,0c-0.2-0.2-0.5-0.2-0.7-0.1l0,0C214.4,516.4,214.4,516.7,214.6,516.9L214.6,516.9z M223.4,509.1
			c0.2,0.2,0.5,0.2,0.7,0c0.2-0.2,0.2-0.5,0-0.7c-0.2-0.2-0.5-0.2-0.7,0C223.3,508.6,223.2,508.9,223.4,509.1L223.4,509.1
			L223.4,509.1z M232.2,501.4c0.1,0.1,0.3,0.2,0.5,0.1c0.1,0,0.1,0,0.2-0.1c0.1-0.1,0.1-0.2,0.1-0.2l0,0c0.1-0.3-0.1-0.5-0.4-0.6
			c-0.2,0-0.3,0-0.4,0.1C232.1,500.9,232,501.2,232.2,501.4L232.2,501.4z M241,493.7c0.2,0.2,0.5,0.2,0.7,0.1l0,0
			c0.2-0.2,0.2-0.5,0.1-0.7c-0.2-0.2-0.5-0.2-0.7-0.1l0,0C240.9,493.1,240.9,493.4,241,493.7C241,493.6,241,493.6,241,493.7
			L241,493.7z M240.9,554.3c0,0.3,0.2,0.5,0.5,0.5s0.5-0.2,0.5-0.4l0,0c0-0.3-0.2-0.5-0.5-0.5C241.2,553.8,240.9,554,240.9,554.3
			L240.9,554.3L240.9,554.3z M241.7,542.5c0,0.3,0.2,0.5,0.4,0.5c0.3,0,0.5-0.2,0.5-0.5l0,0c0-0.3-0.2-0.5-0.4-0.5
			C242,542,241.7,542.2,241.7,542.5L241.7,542.5z M242.5,530.7c0,0.3,0.2,0.5,0.4,0.5l0,0c0.3,0,0.5-0.2,0.5-0.4l0,0
			c0-0.3-0.2-0.5-0.5-0.5C242.8,530.2,242.5,530.4,242.5,530.7L242.5,530.7z M243.3,518.9c0,0.3,0.2,0.5,0.4,0.5
			c0.3,0,0.5-0.2,0.5-0.5l0,0c0-0.3-0.2-0.5-0.4-0.5C243.6,518.4,243.3,518.6,243.3,518.9L243.3,518.9z M244.1,507.1
			c0,0.3,0.2,0.5,0.4,0.5c0.3,0,0.5-0.2,0.5-0.4l0,0c0-0.3-0.2-0.5-0.4-0.5l0,0C244.4,506.6,244.1,506.9,244.1,507.1L244.1,507.1z
			 M200.4,504.2c0.1,0.3,0.4,0.4,0.6,0.3c0.3-0.1,0.4-0.4,0.3-0.6l0,0c-0.1-0.3-0.4-0.4-0.6-0.3C200.5,503.7,200.3,504,200.4,504.2
			L200.4,504.2z M211.5,500.5c0.1,0.3,0.3,0.4,0.6,0.3c0.3-0.1,0.4-0.4,0.3-0.6c-0.1-0.2-0.3-0.4-0.6-0.3
			C211.6,500,211.4,500.2,211.5,500.5L211.5,500.5L211.5,500.5z M222.6,496.8c0.1,0.3,0.4,0.4,0.6,0.3c0.3-0.1,0.4-0.4,0.3-0.6
			c-0.1-0.2-0.4-0.4-0.6-0.3C222.6,496.2,222.5,496.5,222.6,496.8L222.6,496.8z M233.7,493.1c0.1,0.3,0.4,0.4,0.6,0.3
			c0.3-0.1,0.4-0.4,0.3-0.6c-0.1-0.3-0.4-0.4-0.6-0.3C233.7,492.5,233.6,492.8,233.7,493.1L233.7,493.1z M218.7,542.7
			c0.2,0.1,0.5,0,0.6-0.2l0,0c0.1-0.2,0-0.5-0.2-0.7l0,0c-0.2-0.1-0.5,0-0.6,0.2l0,0C218.3,542.3,218.4,542.6,218.7,542.7
			L218.7,542.7z M223.9,532.1c0.2,0.1,0.5,0,0.6-0.2l0,0c0.1-0.2,0-0.5-0.2-0.7l0,0c-0.2-0.1-0.5,0-0.6,0.2l0,0
			C223.5,531.7,223.6,532,223.9,532.1L223.9,532.1z M229.1,521.6c0.2,0.1,0.5,0,0.6-0.2c0.1-0.2,0-0.5-0.2-0.7
			c-0.2-0.1-0.5,0-0.7,0.2C228.8,521.1,228.9,521.4,229.1,521.6L229.1,521.6z M234.3,511c0.2,0.1,0.5,0,0.6-0.2l0,0
			c0.1-0.2,0-0.5-0.2-0.7c-0.2-0.1-0.5,0-0.6,0.2C234,510.6,234,510.8,234.3,511L234.3,511L234.3,511z M239.5,500.4
			c0.2,0.1,0.5,0,0.6-0.2c0.1-0.2,0-0.5-0.2-0.6l0,0c-0.2-0.1-0.5,0-0.6,0.2l0,0C239.2,500,239.3,500.3,239.5,500.4L239.5,500.4
			L239.5,500.4z M263,546c0.1,0.3,0.4,0.4,0.6,0.3c0.2-0.1,0.4-0.4,0.3-0.6l0,0c-0.1-0.2-0.3-0.4-0.6-0.3l0,0
			C263.1,545.5,263,545.8,263,546L263,546z M259.3,534.8c0.1,0.3,0.4,0.4,0.6,0.3c0.3-0.1,0.4-0.4,0.3-0.6c-0.1-0.3-0.4-0.4-0.6-0.3
			C259.4,534.3,259.2,534.5,259.3,534.8L259.3,534.8z M255.6,523.6c0.1,0.2,0.3,0.4,0.6,0.3l0,0c0.3-0.1,0.4-0.3,0.3-0.6l0,0
			c-0.1-0.3-0.4-0.4-0.6-0.3C255.7,523,255.5,523.3,255.6,523.6L255.6,523.6z M251.9,512.4c0.1,0.3,0.4,0.4,0.6,0.3
			c0.2-0.1,0.4-0.3,0.3-0.6l0,0c-0.1-0.3-0.3-0.4-0.6-0.3C251.9,511.8,251.8,512.1,251.9,512.4L251.9,512.4z M193.7,498.5
			c0.1-0.1,0.1-0.2,0.1-0.3s-0.1-0.1-0.1-0.2C193.7,498.2,193.7,498.4,193.7,498.5L193.7,498.5z M203.1,496c0,0.2,0.3,0.4,0.5,0.3
			l0,0c0.2-0.1,0.4-0.3,0.3-0.5c-0.1-0.2-0.3-0.4-0.5-0.3C203.2,495.6,203.1,495.8,203.1,496L203.1,496L203.1,496z M213.3,493.7
			c0,0.2,0.3,0.4,0.5,0.3l0,0c0.2-0.1,0.4-0.3,0.3-0.5c-0.1-0.2-0.3-0.4-0.5-0.3C213.4,493.3,213.2,493.4,213.3,493.7L213.3,493.7z
			 M223.5,491.3c0,0.2,0.3,0.4,0.5,0.3l0,0c0.2-0.1,0.4-0.3,0.3-0.5c-0.1-0.2-0.3-0.3-0.5-0.3S223.4,491.1,223.5,491.3L223.5,491.3
			L223.5,491.3z M208.5,537.2c0.2,0.1,0.5,0.1,0.6-0.1c0.1-0.2,0.1-0.5-0.1-0.6l0,0c-0.2-0.1-0.5-0.1-0.6,0.1l0,0
			C208.3,536.8,208.3,537.1,208.5,537.2L208.5,537.2z M214.1,528.3c0.2,0.1,0.5,0.1,0.6-0.1c0.1-0.2,0.1-0.5-0.1-0.6
			c-0.2-0.1-0.5-0.1-0.6,0.2C213.8,527.9,213.9,528.1,214.1,528.3L214.1,528.3L214.1,528.3z M219.4,519.1c0,0.1,0.1,0.2,0.2,0.3
			c0.2,0.1,0.5,0.1,0.6-0.1c0.1-0.2,0.1-0.5-0.1-0.6c-0.1-0.1-0.3-0.1-0.4,0l0,0c-0.1,0-0.1,0.1-0.2,0.2
			C219.4,518.8,219.4,519,219.4,519.1L219.4,519.1z M225.1,510.4c0.2,0.1,0.5,0.1,0.6-0.1c0.1-0.2,0.1-0.5-0.1-0.6s-0.5-0.1-0.6,0.1
			C224.8,510,224.9,510.3,225.1,510.4L225.1,510.4z M230.6,501.5c0.2,0.1,0.5,0.1,0.6-0.2c0.1-0.2,0.1-0.5-0.1-0.6s-0.5-0.1-0.6,0.1
			C230.4,501.1,230.4,501.3,230.6,501.5L230.6,501.5z M236.1,492.5c0.2,0.1,0.5,0.1,0.6-0.2c0.1-0.2,0.1-0.5-0.1-0.6
			s-0.5-0.1-0.6,0.1C235.9,492.1,235.9,492.4,236.1,492.5L236.1,492.5z M251.7,544.3c0.1,0.2,0.3,0.4,0.5,0.3
			c0.2-0.1,0.4-0.3,0.3-0.5l0,0c0-0.2-0.3-0.4-0.5-0.3l0,0C251.8,543.9,251.6,544.1,251.7,544.3L251.7,544.3z M249.3,534.1
			c0.1,0.2,0.3,0.4,0.5,0.3c0.2-0.1,0.4-0.3,0.3-0.5l0,0c0-0.2-0.3-0.4-0.5-0.3l0,0C249.4,533.6,249.3,533.8,249.3,534.1
			L249.3,534.1z M247,523.8c0,0.2,0.3,0.4,0.5,0.3l0,0c0.2,0,0.4-0.3,0.3-0.5l0,0c0-0.2-0.3-0.4-0.5-0.3l0,0
			C247.1,523.3,246.9,523.5,247,523.8L247,523.8z M244.6,513.5c0.1,0.2,0.3,0.4,0.5,0.3c0.2-0.1,0.4-0.3,0.3-0.5
			c-0.1-0.2-0.3-0.4-0.5-0.3C244.7,513,244.6,513.3,244.6,513.5L244.6,513.5z M242.2,503.2c0.1,0.2,0.3,0.4,0.5,0.3
			c0.2-0.1,0.4-0.3,0.3-0.5l0,0c0-0.2-0.3-0.4-0.5-0.3C242.3,502.8,242.2,503,242.2,503.2L242.2,503.2z M239.9,492.9
			c0,0.2,0.3,0.4,0.5,0.3c0.2,0,0.4-0.3,0.3-0.5l0,0c-0.1-0.2-0.3-0.4-0.5-0.3C240,492.5,239.8,492.7,239.9,492.9L239.9,492.9z
			 M204.1,512c0.1,0.2,0.4,0.2,0.6,0.1l0,0c0.2-0.1,0.2-0.4,0.1-0.6l0,0c-0.1-0.2-0.4-0.3-0.6-0.1l0,0
			C204.1,511.5,204,511.8,204.1,512L204.1,512z M212.6,505.9c0.1,0.2,0.4,0.2,0.6,0.1s0.2-0.4,0.1-0.6c-0.1-0.2-0.4-0.2-0.6-0.1
			C212.5,505.4,212.5,505.7,212.6,505.9L212.6,505.9z M221.1,499.7c0.1,0.2,0.4,0.2,0.6,0.1l0,0c0.2-0.1,0.2-0.4,0.1-0.6
			c-0.1-0.2-0.4-0.2-0.6-0.1l0,0C221,499.3,221,499.5,221.1,499.7L221.1,499.7L221.1,499.7z M229.6,493.6c0.1,0.2,0.4,0.2,0.6,0.1
			s0.2-0.4,0.1-0.6l0,0c-0.1-0.2-0.4-0.2-0.6-0.1l0,0C229.5,493.2,229.5,493.4,229.6,493.6L229.6,493.6L229.6,493.6z M229.3,539.5
			c0,0.2,0.1,0.5,0.4,0.5c0.2,0,0.5-0.1,0.5-0.3l0,0c0-0.2-0.1-0.5-0.4-0.5C229.6,539.1,229.3,539.2,229.3,539.5L229.3,539.5z
			 M231,529.1c0,0.2,0.1,0.4,0.3,0.5l0,0c0.2,0,0.5-0.1,0.5-0.3l0,0c0-0.2-0.1-0.5-0.4-0.5C231.3,528.7,231.1,528.8,231,529.1
			L231,529.1z M232.7,518.7c0,0.2,0.1,0.5,0.3,0.5s0.5-0.1,0.5-0.3l0,0c0-0.2-0.1-0.4-0.3-0.5l0,0
			C233,518.3,232.8,518.4,232.7,518.7L232.7,518.7L232.7,518.7z M234.4,508.3c0,0.2,0.1,0.5,0.3,0.5c0.1,0,0.3,0,0.4-0.1l0,0
			c0.1-0.1,0.1-0.2,0.1-0.2c0-0.2-0.1-0.5-0.4-0.5C234.7,507.9,234.5,508,234.4,508.3L234.4,508.3L234.4,508.3z M236.1,497.9
			c0,0.2,0.1,0.5,0.4,0.5c0.2,0,0.5-0.1,0.5-0.4c0-0.1,0-0.1,0-0.2c-0.1-0.1-0.1-0.1-0.2-0.2c-0.1-0.1-0.1-0.1-0.2-0.1
			C236.4,497.5,236.2,497.6,236.1,497.9L236.1,497.9L236.1,497.9z M268.4,531.1c0.1,0.2,0.4,0.2,0.6,0.1l0,0
			c0.2-0.1,0.2-0.4,0.1-0.6l0,0c-0.1-0.2-0.4-0.2-0.6-0.1C268.3,530.6,268.2,530.9,268.4,531.1L268.4,531.1L268.4,531.1z
			 M262.3,522.5c0.1,0.2,0.4,0.3,0.6,0.1c0.2-0.1,0.3-0.4,0.1-0.6l0,0c-0.1-0.2-0.4-0.2-0.6-0.1C262.2,522,262.1,522.3,262.3,522.5
			L262.3,522.5z M244.1,496.7c0.1,0.2,0.4,0.2,0.6,0.1c0.2-0.1,0.2-0.4,0.1-0.6c-0.1-0.2-0.4-0.2-0.6-0.1S243.9,496.5,244.1,496.7
			L244.1,496.7z M198.3,487c0,0.1,0.1,0.3,0.3,0.3l0,0c0.1,0,0.2-0.1,0.2-0.3c0-0.1-0.1-0.2-0.3-0.2
			C198.5,486.8,198.3,486.9,198.3,487L198.3,487L198.3,487z M204.5,486.8c0,0.1,0.1,0.3,0.3,0.2c0.1,0,0.1,0,0.2-0.1
			c0,0,0.1-0.1,0.1-0.2c0-0.1-0.1-0.3-0.3-0.2c-0.1,0-0.2,0.1-0.2,0.1C204.5,486.7,204.5,486.8,204.5,486.8L204.5,486.8z
			 M210.6,486.6c0,0.1,0.1,0.2,0.3,0.2c0.1,0,0.2-0.1,0.2-0.3l0,0c0-0.1-0.1-0.3-0.3-0.3C210.7,486.4,210.6,486.5,210.6,486.6
			L210.6,486.6z M209.2,511.1c0.1,0.1,0.3,0.1,0.4,0c0.1-0.1,0.1-0.3,0-0.4c-0.1-0.1-0.3-0.1-0.4,0
			C209.1,510.8,209.1,511,209.2,511.1L209.2,511.1z M213.4,506.5c0.1,0.1,0.3,0.1,0.4,0c0.1-0.1,0.1-0.3,0-0.4
			c-0.1-0.1-0.3-0.1-0.4,0C213.3,506.3,213.3,506.4,213.4,506.5L213.4,506.5z M217.6,502c0.1,0.1,0.3,0.1,0.3,0l0,0
			c0.1-0.1,0.1-0.2,0-0.3l0,0c-0.1-0.1-0.3-0.1-0.4,0C217.5,501.7,217.5,501.9,217.6,502L217.6,502L217.6,502z M221.8,497.5
			c0.1,0.1,0.3,0.1,0.3,0l0,0c0.1-0.1,0.1-0.3,0-0.4l0,0c-0.1-0.1-0.3-0.1-0.4,0C221.7,497.2,221.7,497.4,221.8,497.5L221.8,497.5z
			 M226,492.9c0.1,0.1,0.3,0.1,0.4,0c0.1-0.1,0.1-0.3,0-0.4c-0.1-0.1-0.3-0.1-0.4,0C225.9,492.6,225.9,492.8,226,492.9L226,492.9z
			 M233.4,520.1c0,0.1,0.1,0.2,0.3,0.2c0.1,0,0.2-0.1,0.2-0.3c0-0.1-0.1-0.2-0.3-0.2C233.5,519.9,233.4,520,233.4,520.1L233.4,520.1
			z M233.2,513.9c0,0.1,0.1,0.2,0.3,0.2c0.1,0,0.2-0.1,0.2-0.3l0,0c0-0.1-0.1-0.2-0.2-0.2l0,0C233.3,513.6,233.2,513.7,233.2,513.9
			L233.2,513.9L233.2,513.9z M233,507.7c0,0.1,0.1,0.2,0.3,0.2c0.1,0,0.2-0.1,0.2-0.3l0,0c0-0.1-0.1-0.2-0.2-0.2l0,0
			C233.1,507.4,232.9,507.5,233,507.7L233,507.7L233,507.7z M232.7,501.5L232.7,501.5c0.1,0.2,0.1,0.2,0.3,0.2
			c0.1,0,0.2-0.1,0.2-0.3l0,0c0-0.1-0.1-0.2-0.2-0.2l0,0c0,0,0,0-0.1,0C232.8,501.2,232.7,501.3,232.7,501.5
			C232.7,501.4,232.7,501.5,232.7,501.5L232.7,501.5z M232.5,495.2c0,0.1,0.1,0.3,0.3,0.2c0.1,0,0.2-0.1,0.2-0.3
			c0-0.1-0.1-0.2-0.3-0.2C232.6,495,232.5,495.1,232.5,495.2L232.5,495.2L232.5,495.2z M243.5,496.7c0.1,0.1,0.3,0.1,0.4,0
			c0.1-0.1,0.1-0.3,0-0.4c-0.1-0.1-0.3-0.1-0.3,0l0,0C243.4,496.4,243.4,496.6,243.5,496.7L243.5,496.7L243.5,496.7z M239,492.5
			c0.1,0.1,0.3,0.1,0.4,0c0.1-0.1,0.1-0.3,0-0.4c-0.1-0.1-0.3-0.1-0.4,0C238.9,492.2,238.9,492.4,239,492.5L239,492.5z M204.2,498.4
			c0.1,0.1,0.2,0.2,0.3,0.1s0.2-0.2,0.1-0.4c-0.1-0.1-0.2-0.2-0.3-0.1l0,0C204.2,498.1,204.1,498.3,204.2,498.4L204.2,498.4z
			 M209.8,495.8c0.1,0.1,0.2,0.2,0.3,0.1c0.1-0.1,0.2-0.2,0.1-0.3l0,0c0-0.1-0.2-0.2-0.3-0.1l0,0
			C209.8,495.5,209.7,495.7,209.8,495.8L209.8,495.8L209.8,495.8z M215.4,493.2c0,0.1,0.2,0.2,0.3,0.1l0,0c0.1,0,0.2-0.2,0.1-0.3
			l0,0c-0.1-0.1-0.2-0.2-0.3-0.1l0,0C215.4,493,215.3,493.1,215.4,493.2L215.4,493.2z M221,490.7c0.1,0.1,0.2,0.2,0.3,0.1
			c0.1-0.1,0.2-0.2,0.1-0.4c-0.1-0.1-0.2-0.2-0.3-0.1C221,490.4,220.9,490.5,221,490.7L221,490.7z M221.4,514.9c0.1,0,0.3,0,0.3-0.2
			c0.1-0.1,0-0.3-0.1-0.3l0,0c-0.1-0.1-0.3,0-0.3,0.1l0,0C221.2,514.7,221.3,514.9,221.4,514.9L221.4,514.9z M223.6,509.1
			c0.1,0,0.3,0,0.3-0.2c0-0.1,0-0.3-0.2-0.3c-0.1-0.1-0.3,0-0.3,0.1l0,0C223.4,508.9,223.5,509.1,223.6,509.1L223.6,509.1
			L223.6,509.1z M225.7,503.3c0.1,0.1,0.3,0,0.3-0.1l0,0c0-0.1,0-0.3-0.2-0.3c-0.1,0-0.3,0-0.3,0.2
			C225.5,503.1,225.6,503.2,225.7,503.3L225.7,503.3L225.7,503.3z M227.9,497.5c0.1,0.1,0.3,0,0.3-0.1l0,0c0-0.1,0-0.3-0.2-0.3
			c-0.1,0-0.3,0-0.3,0.2C227.7,497.3,227.8,497.4,227.9,497.5L227.9,497.5z M230,491.6c0.1,0,0.3,0,0.3-0.2c0-0.1,0-0.3-0.2-0.3
			c-0.1,0-0.3,0-0.3,0.2C229.8,491.4,229.9,491.6,230,491.6L230,491.6z M244.8,514.2c0.1,0.1,0.2,0.2,0.3,0.1l0,0
			c0.1-0.1,0.2-0.2,0.1-0.3l0,0c0-0.1-0.2-0.2-0.3-0.1l0,0C244.9,513.9,244.8,514.1,244.8,514.2L244.8,514.2z M242.3,508.5
			c0.1,0.1,0.2,0.2,0.3,0.1s0.2-0.2,0.1-0.3c0-0.1-0.2-0.2-0.3-0.1l0,0C242.3,508.3,242.2,508.4,242.3,508.5L242.3,508.5
			L242.3,508.5z M239.7,502.9c0.1,0.1,0.2,0.2,0.3,0.1s0.2-0.2,0.1-0.4c-0.1-0.1-0.2-0.2-0.4-0.1
			C239.7,502.6,239.7,502.8,239.7,502.9L239.7,502.9z M237.2,497.2c0.1,0.1,0.2,0.2,0.3,0.1l0,0c0.1,0,0.1-0.1,0.1-0.2V497
			c-0.1-0.1-0.2-0.2-0.3-0.1c-0.1,0-0.1,0.1-0.1,0.1l0,0C237.1,497.1,237.1,497.1,237.2,497.2L237.2,497.2z M234.6,491.5
			c0.1,0.1,0.2,0.2,0.3,0.1c0.1-0.1,0.2-0.2,0.1-0.3l0,0c-0.1-0.1-0.2-0.2-0.3-0.1l0,0C234.6,491.3,234.6,491.4,234.6,491.5
			L234.6,491.5z M240.4,494c0.1,0.1,0.3,0,0.4-0.1c0.1-0.1,0-0.3-0.1-0.4c-0.1-0.1-0.3,0-0.4,0.1S240.3,493.9,240.4,494L240.4,494z
			 M194.6,491c0,0.2,0.2,0.3,0.3,0.2c0.2,0,0.3-0.2,0.2-0.3c0-0.2-0.2-0.3-0.4-0.2l0,0C194.6,490.7,194.5,490.8,194.6,491L194.6,491
			z M201.4,489.5c0,0.2,0.2,0.3,0.3,0.2c0.2,0,0.3-0.2,0.2-0.3c0-0.2-0.2-0.3-0.4-0.2l0,0C201.5,489.2,201.4,489.3,201.4,489.5
			L201.4,489.5L201.4,489.5z M208.3,488c0,0.2,0.2,0.3,0.3,0.2c0.2,0,0.3-0.2,0.2-0.3c0-0.2-0.2-0.3-0.4-0.2l0,0
			C208.4,487.6,208.3,487.8,208.3,488C208.3,487.9,208.3,488,208.3,488L208.3,488z M204.8,517.2c0.1,0.1,0.3,0,0.4-0.1l0,0
			c0.1-0.1,0.1-0.3-0.1-0.4l0,0c-0.1-0.1-0.3,0-0.4,0.1l0,0C204.6,517,204.7,517.2,204.8,517.2L204.8,517.2z M208.6,511.3
			c0.1,0.1,0.3,0,0.4-0.1c0.1-0.1,0-0.3-0.1-0.4c-0.1-0.1-0.3,0-0.4,0.1l0,0C208.4,511,208.4,511.2,208.6,511.3L208.6,511.3
			L208.6,511.3z M212.4,505.3c0.1,0.1,0.3,0.1,0.4-0.1l0,0c0.1-0.1,0-0.3-0.1-0.4c-0.1-0.1-0.3,0-0.4,0.1
			C212.2,505,212.2,505.2,212.4,505.3L212.4,505.3z M216.1,499.3c0.1,0.1,0.3,0,0.4-0.1c0.1-0.1,0-0.3-0.1-0.4
			c-0.1-0.1-0.2-0.1-0.3,0c0,0,0,0-0.1,0l-0.1,0.1C216,499,216,499.2,216.1,499.3L216.1,499.3z M219.9,493.3
			c0.1,0.1,0.3,0.1,0.4-0.1l0,0c0.1-0.1,0.1-0.3-0.1-0.4l0,0c-0.1-0.1-0.3,0-0.4,0.1C219.7,493.1,219.8,493.2,219.9,493.3
			L219.9,493.3z M233.8,522.4c0,0.1,0.2,0.2,0.3,0.2l0,0c0.2,0,0.2-0.2,0.2-0.3c0-0.2-0.2-0.3-0.3-0.2
			C233.9,522,233.8,522.2,233.8,522.4L233.8,522.4L233.8,522.4z M232.3,515.4c0,0.2,0.2,0.3,0.4,0.2l0,0c0.2,0,0.2-0.2,0.2-0.3
			c0-0.2-0.2-0.3-0.3-0.2C232.3,515.1,232.2,515.3,232.3,515.4L232.3,515.4z M230.8,508.5c0,0.2,0.2,0.3,0.3,0.2l0,0
			c0.2,0,0.2-0.2,0.2-0.3c0-0.2-0.2-0.3-0.3-0.2C230.8,508.1,230.7,508.3,230.8,508.5L230.8,508.5z M229.3,501.5
			c0,0.2,0.2,0.3,0.3,0.2l0,0c0.2,0,0.2-0.2,0.2-0.3c0-0.2-0.2-0.3-0.3-0.2C229.3,501.2,229.2,501.4,229.3,501.5L229.3,501.5z
			 M227.7,494.6c0,0.2,0.2,0.3,0.3,0.2l0,0c0.2,0,0.3-0.2,0.2-0.3c0-0.2-0.2-0.3-0.3-0.2C227.8,494.3,227.7,494.4,227.7,494.6
			L227.7,494.6z M196.8,504.1c0.1,0.1,0.3,0.2,0.4,0.1l0,0c0.1-0.1,0.2-0.3,0.1-0.4c-0.1-0.1-0.3-0.2-0.4-0.1
			C196.7,503.8,196.7,504,196.8,504.1L196.8,504.1z M202.5,500.1c0.1,0.1,0.3,0.2,0.4,0.1l0,0c0.1-0.1,0.2-0.3,0.1-0.4
			c-0.1-0.1-0.3-0.2-0.4-0.1l0,0C202.5,499.8,202.4,500,202.5,500.1L202.5,500.1z M208.3,496c0.1,0.1,0.2,0.2,0.4,0.1l0,0
			c0.1-0.1,0.2-0.3,0.1-0.4l0,0c-0.1-0.1-0.3-0.2-0.4-0.1C208.2,495.7,208.2,495.9,208.3,496L208.3,496z M214.1,492
			c0.1,0.1,0.3,0.2,0.4,0.1l0,0c0.1-0.1,0.2-0.3,0.1-0.4l0,0c-0.1-0.1-0.3-0.2-0.4-0.1C214,491.7,214,491.9,214.1,492L214.1,492
			L214.1,492z M219.8,487.9c0.1,0.1,0.2,0.2,0.4,0.1l0,0c0.1-0.1,0.2-0.3,0.1-0.4l0,0c-0.1-0.1-0.3-0.2-0.4-0.1
			C219.8,487.6,219.7,487.8,219.8,487.9L219.8,487.9z M219.4,519.1c0,0,0.1,0,0.1,0.1c0.2,0,0.3-0.1,0.3-0.2l0,0
			c0-0.2-0.1-0.3-0.2-0.3l0,0c-0.2,0-0.3,0.1-0.3,0.2l0,0C219.3,518.9,219.3,519,219.4,519.1L219.4,519.1z M220.5,511.8
			c0,0.2,0.1,0.3,0.2,0.3l0,0c0.2,0,0.3-0.1,0.4-0.2c0-0.2-0.1-0.3-0.2-0.4C220.7,511.5,220.5,511.6,220.5,511.8L220.5,511.8z
			 M221.7,504.8c0,0.2,0.1,0.3,0.2,0.3l0,0c0.2,0,0.3-0.1,0.3-0.2l0,0c0-0.2-0.1-0.3-0.2-0.3l0,0
			C221.9,504.6,221.8,504.7,221.7,504.8L221.7,504.8L221.7,504.8z M222.9,497.8c0,0.2,0.1,0.3,0.2,0.3c0.1,0,0.3,0,0.3-0.2l0,0
			c0-0.2-0.1-0.3-0.2-0.3l0,0C223.1,497.6,223,497.7,222.9,497.8L222.9,497.8L222.9,497.8z M224.2,490.9c0.1,0.1,0.1,0.1,0.1,0.2
			c0,0,0.1,0,0.1,0.1c0.2,0,0.3-0.1,0.3-0.2l0,0c0-0.2-0.1-0.3-0.2-0.3l0,0C224.3,490.7,224.2,490.8,224.2,490.9
			C224.2,490.8,224.2,490.8,224.2,490.9L224.2,490.9L224.2,490.9z M245.6,513.4c0.1,0.1,0.3,0.2,0.4,0.1c0.1-0.1,0.2-0.3,0.1-0.4
			l0,0c-0.1-0.1-0.2-0.2-0.4-0.1l0,0C245.6,513.1,245.5,513.3,245.6,513.4L245.6,513.4z M241.6,507.6c0.1,0.1,0.2,0.2,0.4,0.1l0,0
			c0.1-0.1,0.2-0.3,0.1-0.4l0,0c-0.1-0.1-0.3-0.2-0.4-0.1C241.6,507.3,241.5,507.5,241.6,507.6L241.6,507.6L241.6,507.6z
			 M237.6,501.8c0.1,0.1,0.3,0.2,0.4,0.1l0,0c0.1-0.1,0.2-0.3,0.1-0.4c-0.1-0.1-0.3-0.2-0.4-0.1
			C237.5,501.5,237.5,501.6,237.6,501.8L237.6,501.8z M233.5,495.9c0.1,0.1,0.3,0.2,0.4,0.1l0,0c0.1-0.1,0.2-0.3,0.1-0.4
			c-0.1-0.1-0.3-0.2-0.4-0.1C233.5,495.6,233.5,495.8,233.5,495.9L233.5,495.9z M229.5,490.1c0.1,0.1,0.3,0.2,0.4,0.1l0,0
			c0.1-0.1,0.2-0.3,0.1-0.4c-0.1-0.1-0.3-0.2-0.4-0.1C229.5,489.8,229.4,490,229.5,490.1L229.5,490.1z M194.3,500.5
			c0.2,0.2,0.5,0.3,0.7,0.1l0,0c0.2-0.2,0.3-0.5,0.1-0.7c-0.2-0.2-0.5-0.3-0.7-0.1C194.2,500,194.2,500.3,194.3,500.5L194.3,500.5z
			 M204,493.4c0.2,0.2,0.5,0.3,0.7,0.1l0,0c0.2-0.2,0.3-0.5,0.1-0.7c-0.2-0.2-0.5-0.3-0.7-0.1C203.9,492.8,203.9,493.1,204,493.4
			L204,493.4z M213.7,486c0,0.1,0,0.1,0.1,0.2c0.1,0.1,0.1,0.1,0.2,0.2c0.2,0.1,0.3,0.1,0.5,0c0.2-0.2,0.3-0.5,0.1-0.7l0,0
			c-0.2-0.2-0.5-0.3-0.7-0.1l0,0C213.7,485.6,213.6,485.8,213.7,486L213.7,486z M208.4,548.4c0,0.3,0.2,0.5,0.4,0.6
			c0.3,0,0.5-0.1,0.6-0.4l0,0c0-0.3-0.2-0.5-0.4-0.6C208.7,548,208.4,548.1,208.4,548.4L208.4,548.4L208.4,548.4z M210.2,536.4
			c0,0.3,0.1,0.5,0.4,0.6l0,0c0.3,0,0.5-0.1,0.6-0.4l0,0c0-0.3-0.1-0.5-0.4-0.6C210.5,535.9,210.3,536.1,210.2,536.4L210.2,536.4
			L210.2,536.4z M212.1,524.4c0,0.3,0.2,0.5,0.4,0.6c0.3,0,0.5-0.2,0.6-0.4c0-0.3-0.2-0.5-0.4-0.6
			C212.3,523.9,212.1,524.1,212.1,524.4z M213.9,512.3c0,0.3,0.1,0.5,0.4,0.6c0.3,0,0.5-0.1,0.6-0.4c0-0.3-0.1-0.5-0.4-0.6
			C214.2,511.9,214,512,213.9,512.3L213.9,512.3L213.9,512.3z M215.8,500.3c0,0.3,0.2,0.5,0.4,0.6c0.3,0,0.5-0.1,0.6-0.4l0,0
			c0.1-0.3-0.1-0.5-0.4-0.6l0,0C216.1,499.8,215.8,500,215.8,500.3L215.8,500.3L215.8,500.3z M217.6,488.3c0,0.3,0.1,0.5,0.4,0.6
			c0.3,0,0.5-0.1,0.6-0.4l0,0c0.1-0.3-0.1-0.5-0.4-0.6l0,0C217.9,487.8,217.7,488,217.6,488.3C217.6,488.2,217.6,488.3,217.6,488.3
			L217.6,488.3z M257.7,536.8c0.2,0.2,0.5,0.3,0.7,0.1c0.2-0.2,0.3-0.5,0.1-0.7l0,0c-0.2-0.2-0.5-0.3-0.7-0.1l0,0
			C257.6,536.3,257.6,536.6,257.7,536.8L257.7,536.8z M250.6,527c0.2,0.2,0.5,0.3,0.7,0.1s0.3-0.5,0.1-0.7l0,0
			c-0.2-0.2-0.5-0.3-0.7-0.1l0,0C250.5,526.4,250.5,526.8,250.6,527L250.6,527z M243.5,517.1c0.2,0.2,0.5,0.3,0.7,0.1
			c0.2-0.2,0.3-0.5,0.1-0.7s-0.5-0.3-0.7-0.1l0,0C243.4,516.6,243.4,516.9,243.5,517.1L243.5,517.1L243.5,517.1z M236.4,507.3
			c0.2,0.2,0.5,0.3,0.7,0.1c0.2-0.2,0.3-0.5,0.1-0.7c-0.2-0.2-0.5-0.3-0.7-0.1C236.3,506.7,236.3,507,236.4,507.3L236.4,507.3z
			 M229.3,497.4c0.2,0.2,0.5,0.3,0.7,0.1l0,0c0.2-0.2,0.3-0.5,0.1-0.7c-0.2-0.2-0.5-0.3-0.7-0.1
			C229.2,496.9,229.1,497.2,229.3,497.4L229.3,497.4z M194.8,488.1c0.1,0.3,0.3,0.4,0.6,0.4l0,0c0.3-0.1,0.4-0.3,0.4-0.6l0,0
			c-0.1-0.3-0.3-0.4-0.6-0.4C194.9,487.5,194.7,487.8,194.8,488.1L194.8,488.1L194.8,488.1z M206.5,485.2c0.1,0.3,0.3,0.4,0.6,0.4
			l0,0c0.3-0.1,0.4-0.3,0.4-0.6l0,0c-0.1-0.3-0.3-0.4-0.6-0.4C206.6,484.7,206.4,484.9,206.5,485.2L206.5,485.2L206.5,485.2z
			 M199.3,514.1c0.2,0.1,0.5,0.1,0.7-0.2c0.1-0.2,0.1-0.5-0.2-0.7c-0.2-0.1-0.5-0.1-0.7,0.2C199,513.6,199.1,513.9,199.3,514.1
			L199.3,514.1z M205.6,503.7c0.2,0.2,0.5,0.1,0.7-0.1l0,0c0.1-0.2,0.1-0.5-0.2-0.7c-0.2-0.1-0.5-0.1-0.7,0.2l0,0
			C205.2,503.2,205.3,503.5,205.6,503.7L205.6,503.7z M211.8,493.3c0.2,0.1,0.5,0.1,0.7-0.2l0,0c0.1-0.2,0.1-0.5-0.2-0.6l0,0
			c-0.2-0.1-0.5-0.1-0.6,0.1l0,0C211.5,492.8,211.6,493.1,211.8,493.3L211.8,493.3z M232,542.2c0.1,0.3,0.3,0.4,0.6,0.4
			c0.3-0.1,0.4-0.3,0.4-0.6c-0.1-0.3-0.3-0.4-0.6-0.4l0,0C232.1,541.7,232,542,232,542.2L232,542.2z M229.2,530.4
			c0.1,0.3,0.3,0.4,0.6,0.4l0,0c0.3-0.1,0.4-0.3,0.4-0.6c-0.1-0.3-0.3-0.4-0.6-0.4C229.3,529.8,229.1,530.1,229.2,530.4L229.2,530.4
			L229.2,530.4z M226.4,518.5c0.1,0.3,0.3,0.4,0.6,0.4l0,0c0.3-0.1,0.4-0.3,0.4-0.6c-0.1-0.3-0.3-0.4-0.6-0.4
			C226.4,518,226.3,518.3,226.4,518.5L226.4,518.5z M223.5,506.7c0.1,0.3,0.3,0.4,0.6,0.4c0.3-0.1,0.4-0.3,0.4-0.6
			c-0.1-0.3-0.3-0.4-0.6-0.4C223.6,506.1,223.4,506.4,223.5,506.7L223.5,506.7z M220.6,494.8c0.1,0.3,0.3,0.4,0.6,0.4l0,0
			c0.3-0.1,0.4-0.3,0.4-0.6c-0.1-0.3-0.3-0.4-0.6-0.4l0,0C220.8,494.3,220.6,494.6,220.6,494.8L220.6,494.8z M238.9,496.4
			c0.2,0.1,0.5,0.1,0.7-0.2l0,0c0.1-0.2,0.1-0.5-0.2-0.7c-0.2-0.1-0.5-0.1-0.7,0.2C238.5,495.9,238.6,496.2,238.9,496.4
			C238.8,496.4,238.9,496.4,238.9,496.4L238.9,496.4z M228.5,490c0.2,0.1,0.5,0.1,0.7-0.2c0.1-0.2,0.1-0.5-0.2-0.7
			c-0.2-0.1-0.5-0.1-0.7,0.2l0,0C228.2,489.5,228.3,489.8,228.5,490L228.5,490z M194.2,484.1c0,0.3,0.3,0.4,0.6,0.4l0,0
			c0.3,0,0.4-0.3,0.4-0.6l0,0c0-0.3-0.3-0.4-0.6-0.4l0,0C194.3,483.6,194.2,483.9,194.2,484.1L194.2,484.1z M195.4,506.1
			c0.2,0.2,0.5,0.1,0.7-0.1c0.2-0.2,0.1-0.5-0.1-0.7l0,0c-0.2-0.2-0.5-0.1-0.7,0.1l0,0C195.1,505.7,195.2,506,195.4,506.1
			L195.4,506.1L195.4,506.1z M202.1,496.1c0.2,0.1,0.5,0.1,0.7-0.1c0.1-0.2,0.1-0.5-0.1-0.7c-0.2-0.2-0.5-0.1-0.7,0.1l0,0
			C201.8,495.6,201.8,495.9,202.1,496.1L202.1,496.1L202.1,496.1z M208.7,486c0.2,0.1,0.5,0.1,0.7-0.2c0.1-0.2,0.1-0.5-0.1-0.7
			c-0.2-0.2-0.5-0.1-0.7,0.1l0,0C208.5,485.5,208.5,485.8,208.7,486L208.7,486z M224.7,546.1c0.1,0.3,0.3,0.4,0.6,0.4
			c0.3,0,0.4-0.3,0.4-0.6c-0.1-0.3-0.3-0.4-0.6-0.4C224.9,545.6,224.7,545.9,224.7,546.1L224.7,546.1z M222.4,534.2
			c0.1,0.3,0.3,0.5,0.6,0.4c0.3-0.1,0.4-0.3,0.4-0.6c-0.1-0.3-0.3-0.5-0.6-0.4C222.5,533.7,222.3,534,222.4,534.2L222.4,534.2z
			 M220,522.3c0.1,0.3,0.3,0.4,0.6,0.4c0.3-0.1,0.4-0.3,0.4-0.6c-0.1-0.3-0.3-0.4-0.6-0.4C220.2,521.8,220,522,220,522.3L220,522.3z
			 M217.7,510.4c0,0.3,0.3,0.4,0.5,0.4l0,0c0.3-0.1,0.4-0.3,0.4-0.6c0-0.3-0.3-0.4-0.6-0.4C217.8,509.9,217.7,510.1,217.7,510.4
			L217.7,510.4L217.7,510.4z M215.4,498.5c0,0.3,0.3,0.4,0.6,0.4l0,0c0.1,0,0.1,0,0.1-0.1c0,0,0,0,0.1,0c0.1-0.1,0.2-0.3,0.2-0.5
			c0-0.3-0.3-0.4-0.6-0.4C215.5,498,215.3,498.2,215.4,498.5L215.4,498.5L215.4,498.5z M213,486.6c0,0.1,0.1,0.2,0.2,0.3
			c0,0,0,0,0.1,0.1c0.1,0.1,0.2,0.1,0.3,0.1c0.3-0.1,0.4-0.3,0.4-0.6l0,0l0,0c0-0.2-0.1-0.3-0.3-0.3c-0.1,0-0.2,0-0.3,0
			C213.2,486.1,213,486.3,213,486.6L213,486.6z M247,504.7c0.2,0.1,0.5,0.1,0.7-0.1c0.1-0.2,0.1-0.5-0.1-0.7
			c-0.2-0.2-0.5-0.1-0.7,0.1l0,0C246.7,504.2,246.8,504.5,247,504.7L247,504.7L247,504.7z M236.8,497.6c0,0.1,0.1,0.2,0.2,0.2l0,0
			c0.2,0.2,0.5,0.1,0.7-0.1l0,0c0.1-0.2,0.1-0.5-0.1-0.6c0,0,0-0.1-0.1-0.1c-0.1-0.1-0.3-0.1-0.4-0.1l0,0c-0.1,0-0.2,0.1-0.3,0.2
			C236.8,497.3,236.8,497.5,236.8,497.6L236.8,497.6z M227,491.1c0.2,0.2,0.5,0.1,0.7-0.1l0,0c0,0,0.1-0.1,0.1-0.2
			c0-0.1,0-0.2,0-0.2c0-0.1-0.1-0.2-0.2-0.3c-0.2-0.1-0.5-0.1-0.7,0.1C226.8,490.7,226.8,491,227,491.1L227,491.1z M201.8,486.6
			c0.2,0.2,0.5,0.3,0.7,0.1c0.2-0.2,0.3-0.5,0.1-0.7c-0.1-0.2-0.4-0.3-0.7-0.2l0,0C201.7,486.1,201.6,486.4,201.8,486.6L201.8,486.6
			z M202.1,527.4c0,0.3,0.1,0.5,0.4,0.6c0.3,0,0.5-0.1,0.6-0.4c0.1-0.3-0.1-0.5-0.4-0.6C202.4,527,202.2,527.2,202.1,527.4
			L202.1,527.4z M204.4,515.5c-0.1,0.3,0.1,0.5,0.4,0.6l0,0c0.3,0,0.5-0.1,0.6-0.4c0-0.3-0.1-0.5-0.4-0.6
			C204.8,515.1,204.5,515.3,204.4,515.5L204.4,515.5L204.4,515.5z M206.8,503.6c-0.1,0.3,0.1,0.5,0.4,0.6s0.5-0.1,0.6-0.4l0,0
			c0.1-0.3-0.1-0.5-0.4-0.6C207.1,503.2,206.8,503.4,206.8,503.6L206.8,503.6z M209.1,491.7c-0.1,0.3,0.1,0.5,0.4,0.6
			s0.5-0.1,0.6-0.4c0.1-0.3-0.1-0.5-0.4-0.6C209.4,491.3,209.2,491.5,209.1,491.7L209.1,491.7z M245,531.2c0.2,0.2,0.5,0.3,0.7,0.1
			s0.3-0.5,0.1-0.7c-0.1-0.2-0.4-0.3-0.7-0.2l0,0C244.9,530.6,244.8,530.9,245,531.2C245,531.1,245,531.2,245,531.2L245,531.2z
			 M238.3,521c0.2,0.2,0.5,0.3,0.7,0.1s0.3-0.5,0.1-0.7c-0.1-0.2-0.4-0.3-0.7-0.2l0,0C238.2,520.5,238.1,520.8,238.3,521L238.3,521
			L238.3,521z M231.6,510.9c0.2,0.2,0.5,0.3,0.7,0.1c0.2-0.2,0.3-0.5,0.1-0.7c-0.1-0.2-0.5-0.3-0.7-0.2
			C231.5,510.4,231.5,510.7,231.6,510.9L231.6,510.9L231.6,510.9z M225,500.8c0.2,0.2,0.5,0.3,0.7,0.1c0.2-0.2,0.3-0.5,0.1-0.7
			c-0.1-0.2-0.5-0.3-0.7-0.1C224.9,500.3,224.8,500.6,225,500.8C224.9,500.8,224.9,500.8,225,500.8L225,500.8z M218.3,490.7
			c0.2,0.2,0.5,0.3,0.7,0.1c0.2-0.2,0.3-0.5,0.1-0.7c-0.1-0.2-0.5-0.3-0.7-0.1l0,0C218.2,490.2,218.1,490.5,218.3,490.7L218.3,490.7
			z M243.3,494.5c0.2,0.1,0.4,0,0.5-0.2c0.1-0.2,0-0.4-0.2-0.5s-0.4,0-0.5,0.2C243.1,494.2,243.2,494.4,243.3,494.5L243.3,494.5z
			 M234.9,491.1c0.2,0.1,0.4,0,0.5-0.2c0.1-0.2,0-0.4-0.2-0.5l0,0c-0.2-0.1-0.4,0-0.5,0.2l0,0C234.7,490.8,234.7,491,234.9,491.1
			L234.9,491.1L234.9,491.1z M193.2,484.5h0.1c0.2-0.1,0.3-0.3,0.2-0.5l0,0c0-0.1-0.2-0.2-0.3-0.2
			C193.2,484,193.2,484.3,193.2,484.5L193.2,484.5z M197.1,500.3c0.2,0.1,0.4,0,0.5-0.2c0.1-0.2,0-0.4-0.2-0.5s-0.4,0-0.5,0.2l0,0
			C196.9,500,196.9,500.2,197.1,500.3L197.1,500.3z M200.5,491.8c0.2,0.1,0.4,0,0.5-0.2l0,0c0.1-0.2,0-0.4-0.2-0.5l0,0
			c-0.2-0.1-0.4,0-0.5,0.2C200.2,491.6,200.3,491.8,200.5,491.8z M225,525.2c0.1,0.2,0.3,0.3,0.5,0.2l0,0c0.2-0.1,0.3-0.3,0.2-0.5
			c-0.1-0.2-0.3-0.3-0.5-0.2l0,0C225,524.8,224.9,525,225,525.2L225,525.2z M221.4,516.8c0.1,0.2,0.3,0.3,0.5,0.2
			c0.2-0.1,0.3-0.3,0.2-0.5c-0.1-0.2-0.3-0.3-0.5-0.2l0,0C221.4,516.4,221.3,516.6,221.4,516.8L221.4,516.8z M217.8,508.4
			c0.1,0.2,0.3,0.3,0.5,0.2s0.3-0.3,0.2-0.5c-0.1-0.2-0.3-0.3-0.5-0.2C217.8,507.9,217.7,508.2,217.8,508.4L217.8,508.4z
			 M214.3,499.9c0.1,0.2,0.3,0.3,0.5,0.2l0,0c0.2-0.1,0.3-0.3,0.2-0.5l0,0c-0.1-0.2-0.3-0.3-0.5-0.2S214.2,499.7,214.3,499.9
			C214.2,499.9,214.2,499.9,214.3,499.9L214.3,499.9z M210.7,491.5c0.1,0.2,0.3,0.3,0.4,0.2l0,0c0.2-0.1,0.3-0.3,0.2-0.5l0,0
			c-0.1-0.2-0.3-0.3-0.4-0.2l0,0C210.7,491.1,210.6,491.3,210.7,491.5L210.7,491.5L210.7,491.5z M193.3,491.5c0.1-0.1,0.1-0.3,0-0.4
			C193.3,491.2,193.3,491.3,193.3,491.5L193.3,491.5z M199.1,485c0.1,0.1,0.4,0.1,0.5,0l0,0c0.1-0.1,0.1-0.4,0-0.5l0,0
			c-0.1-0.1-0.3-0.2-0.5,0l0,0C198.9,484.6,198.9,484.9,199.1,485L199.1,485L199.1,485z M205.8,524.2c0,0.2,0.2,0.4,0.4,0.4
			c0.2,0,0.4-0.2,0.4-0.4c0-0.2-0.2-0.4-0.4-0.4l0,0C205.9,523.9,205.8,524,205.8,524.2L205.8,524.2L205.8,524.2z M205.6,515.1
			c0,0.2,0.2,0.4,0.4,0.4s0.4-0.2,0.4-0.4l0,0c0-0.2-0.2-0.4-0.4-0.4l0,0C205.8,514.7,205.7,514.9,205.6,515.1L205.6,515.1
			L205.6,515.1z M205.5,505.9c0,0.2,0.2,0.4,0.4,0.4l0,0c0.2,0,0.4-0.2,0.4-0.3l0,0c0-0.2-0.2-0.4-0.4-0.4
			C205.7,505.6,205.5,505.7,205.5,505.9L205.5,505.9L205.5,505.9z M205.4,496.8c0,0.2,0.2,0.4,0.4,0.4l0,0c0.2,0,0.4-0.2,0.4-0.4
			l0,0c0-0.2-0.2-0.4-0.4-0.4C205.6,496.4,205.4,496.6,205.4,496.8L205.4,496.8z M205.3,487.6c0,0.2,0.1,0.3,0.2,0.4l0,0h0.1
			c0.2,0,0.4-0.2,0.4-0.4l0,0c0-0.2-0.2-0.4-0.4-0.4l0,0c-0.1,0-0.2,0.1-0.3,0.1C205.3,487.5,205.3,487.6,205.3,487.6L205.3,487.6z
			 M237.8,511c0.1,0.1,0.4,0.1,0.5,0l0,0c0.1-0.1,0.2-0.4,0-0.5l0,0c-0.1-0.1-0.4-0.1-0.5,0l0,0C237.7,510.6,237.7,510.9,237.8,511
			L237.8,511L237.8,511z M231.3,504.6c0.2,0.1,0.4,0.1,0.5,0l0,0c0.1-0.1,0.1-0.4,0-0.5c-0.2-0.1-0.4-0.1-0.5,0
			S231.2,504.5,231.3,504.6L231.3,504.6z M224.9,498.2c0.1,0.1,0.4,0.1,0.5,0l0,0c0.1-0.1,0.1-0.4,0-0.5c-0.1-0.1-0.4-0.2-0.5,0
			C224.7,497.8,224.7,498.1,224.9,498.2C224.8,498.2,224.8,498.2,224.9,498.2z M218.4,491.8c0.1,0.1,0.4,0.1,0.5,0
			c0.1-0.2,0.1-0.4,0-0.5c-0.2-0.1-0.4-0.1-0.5,0C218.2,491.4,218.2,491.7,218.4,491.8L218.4,491.8L218.4,491.8z M194.6,483.3
			c0.1,0.1,0.2,0,0.3-0.1c0.1-0.1,0-0.2-0.1-0.3c-0.1-0.1-0.2,0-0.3,0.1C194.5,483.1,194.5,483.2,194.6,483.3z M203.5,504.1
			c0,0.1,0.1,0.2,0.2,0.2c0.1,0,0.2-0.1,0.2-0.2s-0.1-0.2-0.2-0.2l0,0C203.5,503.9,203.5,504,203.5,504.1z M202.6,499.2
			c0,0.1,0.1,0.2,0.2,0.2l0,0c0.1,0,0.2-0.1,0.2-0.2l0,0c0-0.1-0.1-0.2-0.2-0.2l0,0C202.7,498.9,202.6,499,202.6,499.2z
			 M201.8,494.2c0,0.1,0.1,0.2,0.2,0.2l0,0c0.1,0,0.2-0.1,0.2-0.3c0-0.1-0.1-0.2-0.2-0.2C201.8,494,201.7,494.1,201.8,494.2
			L201.8,494.2L201.8,494.2z M200.9,489.3c0,0.1,0.1,0.2,0.2,0.2l0,0c0.1,0,0.2-0.1,0.2-0.2c0-0.1-0.1-0.2-0.2-0.2
			C201,489.1,200.9,489.2,200.9,489.3L200.9,489.3L200.9,489.3z M200,484.4c0,0.1,0.1,0.2,0.3,0.2c0.1,0,0.2-0.1,0.2-0.2
			s-0.1-0.2-0.2-0.2C200.2,484.2,200,484.3,200,484.4L200,484.4L200,484.4z M221.1,493c0.1,0.1,0.2,0.1,0.3,0l0,0
			c0.1-0.1,0-0.2,0-0.3c-0.1-0.1-0.2,0-0.3,0.1C221,492.8,221,492.9,221.1,493L221.1,493L221.1,493z M217.1,490.1
			c0.1,0.1,0.2,0,0.3-0.1l0,0c0.1-0.1,0-0.2,0-0.3c-0.1-0.1-0.2,0-0.3,0.1C216.9,489.9,217,490,217.1,490.1L217.1,490.1L217.1,490.1
			z M213,487.2c0.1,0.1,0.2,0,0.3-0.1l0,0c0.1-0.1,0-0.2,0-0.2l0,0c0,0,0,0-0.1,0c-0.1,0-0.2,0-0.2,0.1
			C212.9,487,212.9,487.1,213,487.2L213,487.2L213,487.2z M194.3,496.2c0,0.1,0,0.2,0.2,0.2c0.1,0,0.2,0,0.3-0.2
			c0-0.1,0-0.2-0.2-0.2C194.5,496,194.4,496.1,194.3,496.2z M195.4,491.3c0,0.1,0,0.2,0.2,0.2c0.1,0,0.2,0,0.3-0.1l0,0
			c0-0.1,0-0.2-0.2-0.2C195.5,491.1,195.4,491.2,195.4,491.3L195.4,491.3z M196.5,486.4c0,0.1,0,0.2,0.2,0.2c0.1,0,0.2-0.1,0.3-0.2
			c0-0.1,0-0.2-0.2-0.2S196.5,486.3,196.5,486.4L196.5,486.4z M211.9,498.1c0.1,0.1,0.2,0.1,0.3,0.1l0,0c0.1-0.1,0.1-0.2,0.1-0.3
			c-0.1-0.1-0.2-0.1-0.3-0.1l0,0C211.9,497.9,211.9,498,211.9,498.1z M209.3,493.9c0.1,0.1,0.2,0.1,0.3,0.1l0,0
			c0.1-0.1,0.1-0.2,0.1-0.3c-0.1-0.1-0.2-0.1-0.3-0.1C209.2,493.6,209.2,493.8,209.3,493.9L209.3,493.9z M206.6,489.6
			c0.1,0.1,0.2,0.1,0.3,0.1l0,0c0.1-0.1,0.1-0.2,0.1-0.3c-0.1-0.1-0.2-0.1-0.3-0.1C206.6,489.4,206.6,489.6,206.6,489.6L206.6,489.6
			z M204,485.4c0.1,0.1,0.2,0.1,0.3,0.1l0,0c0.1-0.1,0.1-0.2,0.1-0.3l0,0c0-0.1-0.2-0.1-0.2-0.1l0,0
			C203.9,485.2,203.9,485.3,204,485.4L204,485.4L204,485.4z M209.3,512.1c0.1,0.2,0.3,0.2,0.5,0.1l0,0c0.2-0.1,0.2-0.3,0.1-0.5
			c-0.1-0.1-0.3-0.2-0.4-0.1C209.2,511.8,209.2,512,209.3,512.1L209.3,512.1z M204.9,505.1c0.1,0.2,0.3,0.2,0.4,0.1l0,0
			c0.2-0.1,0.2-0.3,0.1-0.5l0,0c-0.1-0.2-0.3-0.2-0.5-0.1C204.8,504.7,204.8,505,204.9,505.1L204.9,505.1L204.9,505.1z M200.5,498.1
			c0.1,0.2,0.3,0.2,0.5,0.1s0.2-0.3,0.1-0.5c-0.1-0.2-0.3-0.2-0.5-0.1C200.5,497.7,200.4,498,200.5,498.1L200.5,498.1z M196.2,491.1
			c0.1,0.2,0.3,0.2,0.5,0.1s0.2-0.3,0.1-0.5c-0.1-0.2-0.3-0.2-0.5-0.1l0,0C196.1,490.7,196.1,491,196.2,491.1L196.2,491.1z
			 M218.5,497.6c0.2,0.1,0.4,0.1,0.5-0.1c0.1-0.2,0.1-0.4-0.1-0.5c-0.1-0.1-0.3-0.1-0.5,0.1l0,0
			C218.3,497.3,218.4,497.5,218.5,497.6L218.5,497.6z M211.7,492.6c0,0.2,0.2,0.3,0.4,0.3c0.1,0,0.2-0.1,0.2-0.1
			c0-0.1,0.1-0.2,0.1-0.2l0,0c0-0.1,0-0.2-0.1-0.2c-0.2-0.1-0.4-0.1-0.5,0.1C211.7,492.4,211.7,492.5,211.7,492.6L211.7,492.6z
			 M205.1,488c0.1,0.1,0.3,0.1,0.4,0l0,0c0,0,0.1,0,0.1-0.1c0.1-0.2,0.1-0.4-0.1-0.5l0,0c-0.2-0.1-0.3-0.1-0.5,0.1
			C205,487.7,205,487.9,205.1,488L205.1,488z M198.5,483.2c0.2,0.1,0.4,0.1,0.5-0.1c0.1-0.2,0.1-0.4-0.1-0.5s-0.4-0.1-0.5,0.1
			C198.3,482.9,198.3,483.1,198.5,483.2L198.5,483.2z"/>
		
			<linearGradient id="neck-2_1_" gradientUnits="userSpaceOnUse" x1="272.4998" y1="337.9503" x2="272.4998" y2="390.1242" gradientTransform="matrix(1 0 0 -1 0 724)">
			<stop  offset="0" style="stop-color:#FFBEB6"/>
			<stop  offset="1" style="stop-color:#F2A19C"/>
		</linearGradient>
		<path id="neck-2" class="st23" d="M265,340.8c0,0-0.5,10.2-3.5,15c0,0,14.3,2.8,20.6,5.3l1.3-13.1L265,340.8z"/>
		<path id="face-2" class="st4" d="M291.5,348.5c7.9-3.2,11.9-11.1,13.6-10.9c1.7,0.2,5.5-0.2,5.9-2s-1.8-8.4-2.3-14.7
			c0-0.6-0.1-1.2,0-1.8c0,0,0,0,0-0.1v-0.3c0-0.4,0-1.1,0-2c-4.6,2.2-8.8,2.9-10.8,1.8c-5.7-3-6.4,0.8-12,5.3
			c-5.7,4.5-10.6,1.9-18.1,0.1c-7.5-1.8-7.8,5.7-4.9,8.3c2.8,2.6,6.4,4.1,4.6,7.1c-0.6,0.8-1.5,1.3-2.5,1.4l0.8,0.6
			c0.2,0.2,0.5,0.4,0.7,0.6l3.6,2.4C276.5,348.8,284,351.5,291.5,348.5z"/>
		<path id="hair-2_1_" class="st12" d="M246.1,323.8c-12.3-35.9,7.3-35,21.5-35c15.8,0,23-0.3,23-0.3l35.1-0.5c0.6,9.1-3.1,18-10,24
			c7.5-5.3,12-13.9,12.1-23.1c0-0.6,1-0.7,1,0c-0.3,12.7-7.6,23.1-19,27.3c-5,2.7-9.7,3.5-11.9,2.4c-5.7-3-6.4,0.8-12,5.3
			s-10.6,1.9-18.1,0.1c-7.5-1.8-7.8,5.7-4.9,8.3c2.9,2.6,6.4,4.1,4.7,7.1C265.9,342.4,253.3,344.7,246.1,323.8z"/>
		
			<linearGradient id="sweater-2_1_" gradientUnits="userSpaceOnUse" x1="228.1886" y1="298.4334" x2="392.2987" y2="98.5897" gradientTransform="matrix(1 0 0 -1 0 724)">
			<stop  offset="0" style="stop-color:#A1C3FC"/>
			<stop  offset="0.6955" style="stop-color:#81AEF2"/>
			<stop  offset="1" style="stop-color:#78A9EF"/>
		</linearGradient>
		<path id="sweater-2" class="st24" d="M261.7,355.5c0,0-19,9.4-38.3,34.3s-15.9,35.2-26.5,50c-10.6,14.8-28.5,29.7-19.6,54.1
			c0,0,51.9,35.8,117.4,11.2l-12.6-144C275.5,358.6,268.7,356.8,261.7,355.5z"/>
		<path id="R_sleeve-2" class="st8" d="M282.1,361.1c0,0,8.9,38.3,22.4,61.3s20.4,29.7,43.2,31.9c17.8,1.7,34,2.3,34,2.3l16.5,75.5
			c0,0-25.3,8.2-44.4-3.4c-21.5-13.1-32-9-44.4-7s-41.2-0.8-53.7-39.6s-10.6-72.1,5.8-126.3l0,0"/>
		<path id="eye-2" class="st19" d="M312.6,323.4c-1.6,2.5-4.9,3.1-7.4,1.5c-0.9-0.6-1.6-1.4-2-2.4c-0.3-0.7,0.8-1.4,1.1-0.6
			c0.8,2.1,3.1,3.2,5.2,2.4c0.8-0.3,1.5-0.8,2-1.5C312,322.1,313.1,322.7,312.6,323.4z"/>
	</g>
</g>
</svg>
