<?xml version="1.0" encoding="utf-8"?>
<!-- Generator: Adobe Illustrator 23.0.0, SVG Export Plug-In . SVG Version: 6.00 Build 0)  -->
<svg version="1.1" id="레이어_1" xmlns="http://www.w3.org/2000/svg" xmlns:xlink="http://www.w3.org/1999/xlink" x="0px"
	 y="0px" width="1920px" height="950px" viewBox="0 0 1920 950" style="enable-background:new 0 0 1920 950;" xml:space="preserve">
<style type="text/css">
	.st0{fill:#E2D7DA;}
	.st1{fill:url(#_3_leg_1_);}
	.st2{fill:url(#_2_leg_1_);}
	.st3{fill:url(#_1_leg_1_);}
	.st4{fill:url(#chair_leg_1_);}
	.st5{fill:url(#side_1_);}
	.st6{fill:url(#chair_1_);}
	.st7{fill:url(#front_side_of_the_laptop_1_);}
	.st8{fill:url(#right_side_of_the_laptop_1_);}
	.st9{fill:url(#screen_1_);}
	.st10{fill:url(#seat_1_);}
	.st11{opacity:0.51;fill:#FFFFFF;enable-background:new    ;}
	.st12{fill:url(#front_1_);}
	.st13{fill:url(#L_shoe_1_);}
	.st14{fill:url(#R_shoe_1_);}
	.st15{fill:url(#_4_1_);}
	.st16{fill:url(#_3_1_);}
	.st17{fill:url(#_2_1_);}
	.st18{fill:url(#L_trousers_1_);}
	.st19{fill:#428DFC;}
	.st20{opacity:0.86;fill:#FFFFFF;enable-background:new    ;}
	.st21{fill:url(#L_hand_1_);}
	.st22{fill:url(#L_sleeve_1_);}
	.st23{fill:url(#R_hand_1_);}
	.st24{fill:url(#sweater_1_);}
	.st25{fill:#23286B;}
	.st26{fill:url(#neck_1_);}
	.st27{fill:#FFBEB6;}
	.st28{fill:url(#hair_1_);}
	.st29{fill:url(#_1_1_);}
	.st30{fill:#E94A47;}
</style>
<g>
	<ellipse class="st0" cx="1348.6" cy="836.4" rx="127.5" ry="22.5"/>
	<g id="table_chair">
		
			<linearGradient id="_3_leg_1_" gradientUnits="userSpaceOnUse" x1="1481.7847" y1="-56.4822" x2="1482.4086" y2="126.9367" gradientTransform="matrix(1 0 0 -1 0 723)">
			<stop  offset="0" style="stop-color:#EEEEEE"/>
			<stop  offset="1" style="stop-color:#DCE3EA"/>
		</linearGradient>
		<rect id="_3_leg" x="1476.4" y="603.4" class="st1" width="11.2" height="232.9"/>
		
			<linearGradient id="_2_leg_1_" gradientUnits="userSpaceOnUse" x1="1615.194" y1="-83.1453" x2="1615.818" y2="100.2738" gradientTransform="matrix(1 0 0 -1 0 723)">
			<stop  offset="0" style="stop-color:#EEEEEE"/>
			<stop  offset="1" style="stop-color:#DCE3EA"/>
		</linearGradient>
		<rect id="_2_leg" x="1609.9" y="603.4" class="st2" width="11.2" height="232.9"/>
		
			<linearGradient id="_1_leg_1_" gradientUnits="userSpaceOnUse" x1="1862.2074" y1="8.9736" x2="1862.8312" y2="192.3927" gradientTransform="matrix(1 0 0 -1 0 723)">
			<stop  offset="0" style="stop-color:#EEEEEE"/>
			<stop  offset="1" style="stop-color:#DCE3EA"/>
		</linearGradient>
		<rect id="_1_leg" x="1856.6" y="603.4" class="st3" width="11.2" height="232.9"/>
		
			<linearGradient id="chair_leg_1_" gradientUnits="userSpaceOnUse" x1="1197.5024" y1="-22.122" x2="1197.9678" y2="114.6999" gradientTransform="matrix(1 0 0 -1 0 723)">
			<stop  offset="0" style="stop-color:#EEEEEE"/>
			<stop  offset="1" style="stop-color:#DCE3EA"/>
		</linearGradient>
		<polyline id="chair_leg" class="st4" points="1192.7,662.8 1188,836.4 1192.2,836.4 1207,662.6 1192.7,662.8 		"/>
		
			<linearGradient id="side_1_" gradientUnits="userSpaceOnUse" x1="1641.5278" y1="123.165" x2="1576.4846" y2="120.756" gradientTransform="matrix(1 0 0 -1 0 723)">
			<stop  offset="0" style="stop-color:#EEEEEE"/>
			<stop  offset="1" style="stop-color:#DCE3EA"/>
		</linearGradient>
		<rect id="side" x="1476.4" y="592.3" class="st5" width="391.4" height="12.8"/>
		
			<linearGradient id="chair_1_" gradientUnits="userSpaceOnUse" x1="1221.9086" y1="205.4477" x2="1414.7593" y2="-68.9937" gradientTransform="matrix(1 0 0 -1 0 723)">
			<stop  offset="0" style="stop-color:#EEEEEE"/>
			<stop  offset="1" style="stop-color:#DCE3EA"/>
		</linearGradient>
		<polygon id="chair" class="st6" points="1358.9,663.4 1192.7,662.8 1137.8,496.9 1338.7,496.9 		"/>
		
			<linearGradient id="front_side_of_the_laptop_1_" gradientUnits="userSpaceOnUse" x1="-2734.0386" y1="136.4468" x2="-2630.5386" y2="136.4468" gradientTransform="matrix(-1 0 0 -1 -1091.0698 723)">
			<stop  offset="0" style="stop-color:#A1C3FC"/>
			<stop  offset="0.6955" style="stop-color:#81AEF2"/>
			<stop  offset="0.8442" style="stop-color:#7DACF1"/>
			<stop  offset="1" style="stop-color:#78A9EF"/>
		</linearGradient>
		<rect id="front_side_of_the_laptop" x="1500.6" y="580.9" class="st7" width="103.5" height="11.3"/>
		
			<linearGradient id="right_side_of_the_laptop_1_" gradientUnits="userSpaceOnUse" x1="-2819.6323" y1="136.4468" x2="-2701.2324" y2="136.4468" gradientTransform="matrix(-1 0 0 -1 -1091.0697 723)">
			<stop  offset="0" style="stop-color:#A1C3FC"/>
			<stop  offset="0.6955" style="stop-color:#81AEF2"/>
			<stop  offset="0.8442" style="stop-color:#7DACF1"/>
			<stop  offset="1" style="stop-color:#78A9EF"/>
		</linearGradient>
		<rect id="right_side_of_the_laptop" x="1604.1" y="580.9" class="st8" width="118.4" height="11.3"/>
		
			<linearGradient id="screen_1_" gradientUnits="userSpaceOnUse" x1="1644.8195" y1="147.2951" x2="1437.6171" y2="-121.9511" gradientTransform="matrix(1 0 0 -1 0 723)">
			<stop  offset="0" style="stop-color:#A1C3FC"/>
			<stop  offset="0.6955" style="stop-color:#81AEF2"/>
			<stop  offset="1" style="stop-color:#78A9EF"/>
		</linearGradient>
		<polygon id="screen" class="st9" points="1581.3,580.9 1722.5,580.9 1767.7,493.4 1626.5,493.4 		"/>
		
			<linearGradient id="seat_1_" gradientUnits="userSpaceOnUse" x1="1308.2843" y1="47.0603" x2="1199.6451" y2="100.6149" gradientTransform="matrix(1 0 0 -1 0 723)">
			<stop  offset="0" style="stop-color:#EEEEEE"/>
			<stop  offset="1" style="stop-color:#DCE3EA"/>
		</linearGradient>
		<polygon id="seat" class="st10" points="1342.4,648.9 1188.1,649.3 1192.7,662.8 1342.4,662.8 		"/>
		<path id="texture_7_" class="st11" d="M1743.1,501.1c0.2,0.2,0.6,0.1,0.7-0.1l0,0c0.2-0.2,0.1-0.5-0.1-0.7l0,0
			c-0.2-0.2-0.6-0.1-0.7,0.1l0,0C1742.9,500.6,1742.9,500.9,1743.1,501.1L1743.1,501.1z M1749.2,513.4c0.2,0.1,0.5,0,0.6-0.3
			c0.1-0.2,0-0.5-0.3-0.6c-0.2-0.1-0.5,0-0.6,0.3l0,0C1748.8,513.1,1748.9,513.4,1749.2,513.4L1749.2,513.4z M1752.7,502.8
			c0.2,0.1,0.5-0.1,0.6-0.3c0.1-0.2,0-0.5-0.3-0.6c-0.2-0.1-0.5,0-0.6,0.3l0,0C1752.3,502.4,1752.4,502.7,1752.7,502.8L1752.7,502.8
			L1752.7,502.8z M1751.8,525.1c0,0.3,0.3,0.5,0.6,0.5c0.3,0,0.5-0.3,0.5-0.6c0-0.3-0.3-0.5-0.6-0.5
			C1752,524.5,1751.7,524.8,1751.8,525.1L1751.8,525.1z M1750.7,512.2c0,0.3,0.3,0.5,0.6,0.5c0.3,0,0.5-0.3,0.5-0.6
			c0-0.3-0.3-0.5-0.6-0.5S1750.7,511.9,1750.7,512.2z M1749.6,499.3c0,0.3,0.3,0.5,0.6,0.5c0.3,0,0.5-0.3,0.5-0.6
			c0-0.3-0.3-0.5-0.6-0.5C1749.8,498.7,1749.6,499,1749.6,499.3z M1757.5,495.1c0.1,0.3,0.5,0.4,0.7,0.3c0.3-0.1,0.4-0.4,0.3-0.7
			c-0.1-0.3-0.4-0.4-0.7-0.3l0,0C1757.5,494.5,1757.3,494.8,1757.5,495.1L1757.5,495.1z M1740,505c0,0.3,0.3,0.5,0.6,0.5l0,0
			c0.3,0,0.5-0.3,0.5-0.5c0-0.3-0.3-0.5-0.6-0.5C1740.2,504.4,1740,504.7,1740,505L1740,505z M1763.3,496.8c0.1,0.2,0.4,0.2,0.6,0.1
			c0.2-0.1,0.2-0.4,0.1-0.6c-0.1-0.2-0.4-0.2-0.5-0.1l0,0C1763.2,496.4,1763.2,496.6,1763.3,496.8L1763.3,496.8z M1743.1,500.7
			c0.1,0.2,0.3,0.3,0.5,0.3c0.2-0.1,0.3-0.3,0.3-0.5c-0.1-0.2-0.3-0.3-0.5-0.3l0,0C1743.1,500.3,1743,500.5,1743.1,500.7
			C1743,500.7,1743,500.7,1743.1,500.7L1743.1,500.7z"/>
		<path id="texture-2" class="st11" d="M1668.9,501.2c0.2,0.1,0.5,0.1,0.6-0.1l0,0c0.1-0.2,0.1-0.5-0.1-0.6l0,0
			c-0.2-0.1-0.5-0.1-0.6,0.1l0,0C1668.7,500.8,1668.7,501.1,1668.9,501.2L1668.9,501.2z M1706.2,519.6c0,0.2,0.3,0.4,0.5,0.4
			c0.2,0,0.4-0.2,0.4-0.5l0,0c0-0.2-0.3-0.4-0.5-0.4S1706.2,519.4,1706.2,519.6L1706.2,519.6z M1704.4,509.1c0,0.2,0.3,0.4,0.5,0.4
			c0.2,0,0.4-0.3,0.4-0.5c0-0.2-0.3-0.4-0.5-0.4l0,0C1704.6,508.6,1704.4,508.9,1704.4,509.1L1704.4,509.1z M1702.7,498.6
			c0,0.2,0.3,0.4,0.5,0.4l0,0c0.2,0,0.4-0.2,0.4-0.5l0,0c0-0.2-0.3-0.4-0.5-0.4C1702.8,498.1,1702.6,498.4,1702.7,498.6
			L1702.7,498.6z M1684.1,514.2c0.2,0,0.5-0.1,0.5-0.3s-0.1-0.5-0.3-0.5c-0.2,0-0.5,0.1-0.5,0.3
			C1683.8,514,1683.9,514.2,1684.1,514.2L1684.1,514.2z M1686.5,503.9c0.2,0,0.5-0.1,0.5-0.3c0-0.2-0.1-0.5-0.3-0.5
			c-0.2,0-0.5,0.1-0.5,0.3C1686.1,503.6,1686.3,503.8,1686.5,503.9L1686.5,503.9z M1724,507.6c0.1,0.2,0.4,0.3,0.6,0.1
			c0.2-0.1,0.3-0.4,0.1-0.6l0,0c-0.1-0.2-0.4-0.3-0.6-0.2l0,0C1724,507.1,1723.9,507.4,1724,507.6L1724,507.6z M1718.4,498.6
			c0.1,0.2,0.4,0.3,0.6,0.1c0.2-0.1,0.3-0.4,0.1-0.6c-0.1-0.2-0.4-0.3-0.6-0.1l0,0C1718.3,498.1,1718.3,498.4,1718.4,498.6
			L1718.4,498.6L1718.4,498.6z M1674,511.6c0.2,0.1,0.4,0,0.5-0.2c0.1-0.2,0-0.4-0.2-0.5c-0.2-0.1-0.4,0-0.5,0.2l0,0
			C1673.7,511.4,1673.8,511.6,1674,511.6L1674,511.6z M1677,502.6c0.2,0.1,0.4,0,0.5-0.2c0.1-0.2,0-0.4-0.2-0.5
			c-0.2-0.1-0.4,0-0.5,0.2l0,0C1676.7,502.3,1676.8,502.6,1677,502.6L1677,502.6L1677,502.6z M1713.6,508.6c0.1,0.2,0.3,0.3,0.5,0.2
			c0.2-0.1,0.3-0.3,0.2-0.5l0,0c-0.1-0.2-0.3-0.3-0.5-0.2l0,0C1713.6,508.1,1713.6,508.4,1713.6,508.6L1713.6,508.6z M1709.4,500.1
			c0.1,0.2,0.3,0.3,0.5,0.2c0.2-0.1,0.3-0.3,0.2-0.5l0,0c-0.1-0.2-0.3-0.3-0.5-0.2l0,0C1709.4,499.6,1709.3,499.9,1709.4,500.1
			L1709.4,500.1z M1692.9,509.1c0,0.2,0.2,0.4,0.4,0.4c0.2,0,0.4-0.2,0.4-0.4c0-0.2-0.2-0.4-0.4-0.4
			C1693,508.7,1692.8,508.9,1692.9,509.1z M1692.2,499.7c0,0.2,0.2,0.4,0.4,0.4l0,0c0.2,0,0.4-0.2,0.4-0.4c0-0.2-0.2-0.4-0.4-0.4
			C1692.3,499.3,1692.2,499.4,1692.2,499.7L1692.2,499.7z M1666.5,495c0.1,0,0.3,0,0.3-0.2l0,0c0.1-0.1,0-0.3-0.1-0.3l0,0
			c-0.1,0-0.3,0-0.3,0.2l0,0C1666.3,494.8,1666.4,494.9,1666.5,495L1666.5,495z M1676.2,521.5c0,0.2,0.3,0.4,0.5,0.4
			c0.2,0,0.4-0.2,0.4-0.5s-0.2-0.4-0.5-0.4C1676.4,521,1676.2,521.3,1676.2,521.5L1676.2,521.5z M1675.3,510.6
			c0,0.2,0.2,0.4,0.5,0.4c0.2,0,0.4-0.2,0.4-0.5c0-0.2-0.2-0.4-0.5-0.4C1675.5,510.1,1675.3,510.3,1675.3,510.6L1675.3,510.6z
			 M1674.4,499.6c0,0.3,0.2,0.4,0.5,0.4c0.2,0,0.4-0.3,0.4-0.5c0-0.2-0.3-0.4-0.5-0.4C1674.6,499.2,1674.4,499.4,1674.4,499.6z
			 M1717.4,500.7c0.2,0.2,0.5,0.1,0.7-0.1c0.2-0.2,0.1-0.5-0.1-0.6c-0.2-0.2-0.5-0.1-0.6,0.1
			C1717.2,500.2,1717.2,500.5,1717.4,500.7L1717.4,500.7z M1695.8,511c0.1,0.2,0.4,0.3,0.6,0.2c0.2-0.1,0.3-0.4,0.2-0.6
			s-0.4-0.3-0.6-0.2l0,0C1695.8,510.5,1695.7,510.7,1695.8,511L1695.8,511z M1690.8,501.2c0.1,0.2,0.4,0.3,0.6,0.2l0,0
			c0.2-0.1,0.3-0.4,0.2-0.6l0,0c-0.1-0.2-0.4-0.3-0.6-0.2C1690.8,500.7,1690.7,501,1690.8,501.2L1690.8,501.2z M1690.2,516
			c0.1,0.2,0.4,0.3,0.6,0.2c0.2-0.1,0.3-0.4,0.2-0.6s-0.4-0.3-0.6-0.2C1690.2,515.5,1690.1,515.7,1690.2,516L1690.2,516z
			 M1685.6,506c0.1,0.2,0.4,0.3,0.6,0.2s0.3-0.4,0.2-0.6s-0.4-0.3-0.6-0.2S1685.5,505.8,1685.6,506L1685.6,506z M1681.1,496.1
			c0.1,0.2,0.4,0.3,0.6,0.2c0.2-0.1,0.3-0.4,0.2-0.6c-0.1-0.2-0.4-0.3-0.6-0.2l0,0C1681.1,495.6,1681,495.9,1681.1,496.1z
			 M1666.3,504.5c0,0.2,0.2,0.4,0.5,0.4l0,0c0.2,0,0.4-0.2,0.4-0.5c0-0.3-0.2-0.4-0.5-0.4C1666.5,504,1666.3,504.2,1666.3,504.5z
			 M1704.9,498.5c0.2,0.2,0.5,0.2,0.6,0c0.2-0.2,0.2-0.5,0-0.6c-0.2-0.2-0.5-0.2-0.6,0l0,0C1704.7,498,1704.7,498.3,1704.9,498.5
			L1704.9,498.5z M1686,497.6c0.1,0.1,0.3,0.2,0.5,0.1c0.1-0.1,0.2-0.3,0.1-0.5c-0.1-0.1-0.3-0.2-0.5-0.1l0,0
			C1685.9,497.2,1685.9,497.4,1686,497.6L1686,497.6z M1668.9,500.9c0.1,0.2,0.2,0.3,0.4,0.2c0.2-0.1,0.3-0.2,0.2-0.4
			c0-0.2-0.2-0.3-0.4-0.2l0,0C1668.9,500.5,1668.8,500.7,1668.9,500.9L1668.9,500.9L1668.9,500.9z"/>
		
			<linearGradient id="front_1_" gradientUnits="userSpaceOnUse" x1="1431.4968" y1="123.1239" x2="1551.7919" y2="124.3268" gradientTransform="matrix(1 0 0 -1 0 723)">
			<stop  offset="0" style="stop-color:#EEEEEE"/>
			<stop  offset="1" style="stop-color:#DCE3EA"/>
		</linearGradient>
		<rect id="front" x="1476.5" y="592.3" class="st12" width="144.6" height="12.8"/>
	</g>
	<g id="woman_1_">
		
			<linearGradient id="L_shoe_1_" gradientUnits="userSpaceOnUse" x1="1486.5702" y1="-88.0647" x2="1411.2217" y2="-98.3394" gradientTransform="matrix(1 0 0 -1 0 723)">
			<stop  offset="0" style="stop-color:#A1C3FC"/>
			<stop  offset="0.6955" style="stop-color:#81AEF2"/>
			<stop  offset="0.8442" style="stop-color:#7DACF1"/>
			<stop  offset="1" style="stop-color:#78A9EF"/>
		</linearGradient>
		<path id="L_shoe_6_" class="st13" d="M1409.9,794.3l-15.1,42h106.3c0,0-5.4-10.5-23.6-18.3c-18.2-7.8-35.1-23.7-35.1-23.7H1409.9"
			/>
		
			<linearGradient id="R_shoe_1_" gradientUnits="userSpaceOnUse" x1="1391.2465" y1="-92.6366" x2="1251.6809" y2="-116.6111" gradientTransform="matrix(1 0 0 -1 0 723)">
			<stop  offset="0" style="stop-color:#A1C3FC"/>
			<stop  offset="0.6955" style="stop-color:#81AEF2"/>
			<stop  offset="1" style="stop-color:#78A9EF"/>
		</linearGradient>
		<path id="R_shoe" class="st14" d="M1347.6,794.3l-15.1,42h106.3c0,0-5.4-10.5-23.6-18.3c-18.2-7.8-32.9-23.7-32.9-23.7H1347.6"/>
		
			<linearGradient id="_4_1_" gradientUnits="userSpaceOnUse" x1="1474.8169" y1="192.7701" x2="1472.2258" y2="144.1181" gradientTransform="matrix(1 0 0 -1 0 723)">
			<stop  offset="0" style="stop-color:#A1C3FC"/>
			<stop  offset="0.6955" style="stop-color:#81AEF2"/>
			<stop  offset="1" style="stop-color:#78A9EF"/>
		</linearGradient>
		<polyline id="_4" class="st15" points="1435.5,546.5 1434.7,570.9 1461,562.9 1512.5,545.1 1435.5,546.5 		"/>
		
			<linearGradient id="_3_1_" gradientUnits="userSpaceOnUse" x1="1434.7761" y1="170.5609" x2="1473.7271" y2="165.2929" gradientTransform="matrix(1 0 0 -1 0 723)">
			<stop  offset="0" style="stop-color:#A1C3FC"/>
			<stop  offset="0.6955" style="stop-color:#81AEF2"/>
			<stop  offset="1" style="stop-color:#78A9EF"/>
		</linearGradient>
		<polygon id="_3" class="st16" points="1438.9,548.5 1436.4,570.5 1512.5,545.1 		"/>
		
			<linearGradient id="_2_1_" gradientUnits="userSpaceOnUse" x1="1470.2064" y1="178.7462" x2="1521.4083" y2="175.7206" gradientTransform="matrix(1 0 0 -1 0 723)">
			<stop  offset="0" style="stop-color:#A1C3FC"/>
			<stop  offset="0.2365" style="stop-color:#96BCF9"/>
			<stop  offset="0.6955" style="stop-color:#81AEF2"/>
			<stop  offset="1" style="stop-color:#78A9EF"/>
		</linearGradient>
		<polyline id="_2" class="st17" points="1512.5,545.1 1422,537.1 1435.5,546.5 1512.5,545.1 		"/>
		
			<linearGradient id="L_trousers_1_" gradientUnits="userSpaceOnUse" x1="1533.3816" y1="-59.6005" x2="1387.3281" y2="52.1525" gradientTransform="matrix(1 0 0 -1 0 723)">
			<stop  offset="0.1291" style="stop-color:#428DFC"/>
			<stop  offset="0.9987" style="stop-color:#1D72D8"/>
		</linearGradient>
		<path id="L_trousers_7_" class="st18" d="M1407.6,603.2c-31.4-3.3-81.2-4.8-81.2-4.8l-73.5,12.9c0,0-15.2,33.8,45,37
			c28.7,1.5,90,13.7,104.6,7.5c2.7-1.2,5.9,0.1,7,2.8c0.3,0.7,0.5,1.5,0.4,2.4c-0.3,5.8-0.3,8.8-8.5,31
			c-12.4,33.8-4.2,79.6,8.4,102.4h32.5c1.6-9.3,22.1-134.4,22.7-154.5C1466.1,608,1429.8,605.5,1407.6,603.2z"/>
		<path id="R_trousers_7_" class="st19" d="M1234.7,585.6c0,0-24.5,55.7,33.5,72.1c27.6,7.8,86.9,7.3,102.6,4.5
			c2.9-0.5,5.7,1.4,6.2,4.3c0.1,0.8,0.1,1.6-0.1,2.4c-1.6,5.6-2.3,8.5-15.2,28.4c-22.1,34.1-25.9,71.2-14,97.1h34.7
			c0,0,50-118.5,57.7-138c11-27.8-13-40.9-44-47.2c-30.9-6.3-86.8-19.7-86.8-19.7L1234.7,585.6"/>
		<path id="texture-3" class="st20" d="M1268,622.8c0.1,0,0.2,0,0.3-0.1c0-0.1,0-0.2-0.1-0.3c-0.1,0-0.2,0-0.3,0.1l0,0
			C1267.9,622.6,1267.9,622.7,1268,622.8L1268,622.8z M1270.2,617.6c0.1,0,0.3,0,0.3-0.1c0-0.1,0-0.3-0.1-0.3
			c-0.1-0.1-0.2,0-0.3,0.1l0,0C1270,617.5,1270.1,617.6,1270.2,617.6L1270.2,617.6z M1291.3,622.7c0,0.1,0.2,0.2,0.3,0.1l0,0
			c0.1,0,0.2-0.2,0.1-0.3l0,0c0-0.1-0.2-0.2-0.3-0.1C1291.3,622.5,1291.3,622.6,1291.3,622.7L1291.3,622.7z M1260,613.8
			c0.1,0.1,0.2,0.1,0.3,0c0.1-0.1,0.1-0.2,0-0.3c-0.1-0.1-0.2-0.1-0.3,0C1259.9,613.5,1259.9,613.7,1260,613.8L1260,613.8
			L1260,613.8z M1279.5,622c0,0.1,0.1,0.2,0.2,0.2s0.2-0.1,0.2-0.2c0-0.1-0.1-0.2-0.2-0.2S1279.5,621.9,1279.5,622L1279.5,622z
			 M1237.7,624.2c0.2,0.2,0.4,0.2,0.6,0.1l0,0c0.2-0.2,0.2-0.4,0-0.6l0,0c-0.2-0.2-0.4-0.2-0.6-0.1l0,0
			C1237.6,623.7,1237.6,624,1237.7,624.2L1237.7,624.2z M1245.7,617.2c0.2,0.2,0.4,0.2,0.6,0c0.2-0.2,0.2-0.4,0-0.6l0,0
			c-0.2-0.2-0.4-0.2-0.6,0l0,0C1245.6,616.8,1245.5,617,1245.7,617.2L1245.7,617.2z M1269.4,650.6c0,0.2,0.2,0.4,0.4,0.5
			c0.2,0,0.4-0.1,0.5-0.4l0,0c0-0.2-0.2-0.4-0.4-0.5C1269.6,650.2,1269.4,650.4,1269.4,650.6L1269.4,650.6L1269.4,650.6z
			 M1270.1,640.1c0,0.2,0.2,0.4,0.4,0.5c0.2,0,0.4-0.2,0.5-0.4l0,0c0-0.2-0.2-0.4-0.4-0.5l0,0
			C1270.3,639.7,1270.1,639.8,1270.1,640.1L1270.1,640.1z M1270.9,629.5c0,0.2,0.2,0.4,0.4,0.5l0,0c0.2,0,0.4-0.1,0.5-0.4l0,0
			c0-0.2-0.2-0.5-0.4-0.5C1271.1,629.1,1270.9,629.3,1270.9,629.5L1270.9,629.5z M1271.6,619c0,0.2,0.2,0.4,0.4,0.5
			c0.2,0,0.4-0.2,0.5-0.4c0-0.2-0.2-0.4-0.4-0.5l0,0C1271.8,618.6,1271.6,618.8,1271.6,619L1271.6,619L1271.6,619z M1232.9,606
			c0.1,0.2,0.3,0.4,0.6,0.3c0.2-0.1,0.4-0.3,0.3-0.6l0,0c-0.1-0.2-0.3-0.3-0.6-0.3C1233,605.5,1232.8,605.7,1232.9,606L1232.9,606
			L1232.9,606z M1249.3,640.3c0.2,0.1,0.5,0,0.6-0.2c0.1-0.2,0-0.5-0.2-0.6c-0.2-0.1-0.5,0-0.6,0.2S1249.1,640.2,1249.3,640.3z
			 M1254,630.8c0.2,0.1,0.5,0,0.6-0.2s0-0.5-0.2-0.6c-0.2-0.1-0.5,0-0.6,0.2C1253.7,630.5,1253.8,630.7,1254,630.8L1254,630.8z
			 M1258.8,621.4c0.2,0.1,0.5,0,0.6-0.2c0.1-0.2,0-0.5-0.2-0.6c-0.2-0.1-0.5,0-0.6,0.2C1258.4,621,1258.5,621.3,1258.8,621.4
			C1258.7,621.4,1258.8,621.4,1258.8,621.4z M1289.3,643.2c0.1,0.2,0.3,0.3,0.6,0.3c0.2-0.1,0.3-0.3,0.3-0.5l0,0
			c-0.1-0.2-0.3-0.4-0.5-0.3l0,0C1289.4,642.7,1289.3,643,1289.3,643.2z M1286,633.2c0.1,0.2,0.3,0.3,0.6,0.3
			c0.2-0.1,0.3-0.3,0.3-0.6c-0.1-0.2-0.3-0.3-0.5-0.3l0,0C1286,632.7,1285.9,633,1286,633.2L1286,633.2z M1282.7,623.2
			c0.1,0.2,0.3,0.3,0.5,0.3l0,0c0.2-0.1,0.4-0.3,0.3-0.5l0,0c-0.1-0.2-0.3-0.3-0.6-0.3C1282.7,622.7,1282.6,623,1282.7,623.2z
			 M1240.2,635.4c0.2,0.1,0.4,0.1,0.5-0.1s0.1-0.4-0.1-0.5c-0.2-0.1-0.4-0.1-0.5,0.1l0,0C1240,635.1,1240,635.3,1240.2,635.4
			L1240.2,635.4z M1245.2,627.4c0.2,0.1,0.4,0.1,0.5-0.1s0.1-0.4-0.1-0.5c-0.2-0.1-0.4-0.1-0.5,0.1l0,0
			C1245,627.1,1245,627.3,1245.2,627.4L1245.2,627.4L1245.2,627.4z M1250,619.2c0,0.1,0.1,0.2,0.2,0.2c0.2,0.1,0.4,0.1,0.5-0.1
			s0.1-0.4-0.1-0.5l0,0c-0.1-0.1-0.2-0.1-0.4,0l0,0c-0.1,0-0.1,0.1-0.2,0.1C1250,619,1250,619.1,1250,619.2L1250,619.2z
			 M1255.2,611.4c0.2,0.1,0.4,0.1,0.5-0.1s0.1-0.4-0.1-0.5c-0.2-0.1-0.4-0.1-0.5,0.1C1254.9,611.1,1255,611.3,1255.2,611.4
			L1255.2,611.4L1255.2,611.4z M1279.1,641.7c0.1,0.2,0.3,0.3,0.5,0.3s0.3-0.2,0.3-0.4l0,0c0-0.2-0.2-0.3-0.5-0.3l0,0
			C1279.2,641.3,1279.1,641.5,1279.1,641.7L1279.1,641.7z M1277,632.5c0.1,0.2,0.3,0.3,0.5,0.3c0.2,0,0.3-0.2,0.3-0.4l0,0
			c0-0.2-0.2-0.3-0.5-0.3l0,0C1277.1,632.1,1276.9,632.3,1277,632.5L1277,632.5z M1274.9,623.3c0,0.2,0.2,0.3,0.5,0.3l0,0
			c0.2,0,0.3-0.2,0.3-0.4l0,0c0-0.2-0.2-0.3-0.5-0.3l0,0C1275,622.9,1274.8,623.1,1274.9,623.3L1274.9,623.3z M1236.3,612.9
			c0.1,0.2,0.4,0.2,0.5,0.1l0,0c0.2-0.1,0.2-0.3,0.1-0.5l0,0c-0.1-0.2-0.4-0.2-0.5-0.1l0,0C1236.2,612.4,1236.2,612.7,1236.3,612.9
			L1236.3,612.9z M1243.9,607.4c0.1,0.2,0.4,0.2,0.5,0.1c0.2-0.1,0.2-0.4,0.1-0.5c-0.1-0.2-0.4-0.2-0.5-0.1
			C1243.9,607,1243.8,607.2,1243.9,607.4L1243.9,607.4L1243.9,607.4z M1258.9,637.4c0,0.2,0.1,0.4,0.3,0.4c0.2,0,0.4-0.1,0.4-0.3
			c0-0.2-0.1-0.4-0.3-0.5C1259.2,637,1259,637.2,1258.9,637.4z M1260.5,628.1c0,0.2,0.1,0.4,0.3,0.4l0,0c0.2,0,0.4-0.1,0.4-0.3
			c0-0.2-0.1-0.4-0.3-0.5C1260.7,627.8,1260.5,627.9,1260.5,628.1z M1262,618.8c0,0.2,0.1,0.4,0.3,0.4c0.2,0,0.4-0.1,0.4-0.3l0,0
			c0-0.2-0.1-0.4-0.3-0.4C1262.3,618.5,1262.1,618.6,1262,618.8z M1294.2,629.9c0.1,0.2,0.3,0.2,0.5,0.1l0,0
			c0.2-0.1,0.2-0.4,0.1-0.5l0,0c-0.1-0.2-0.4-0.2-0.5-0.1C1294.1,629.5,1294,629.7,1294.2,629.9
			C1294.1,629.9,1294.1,629.9,1294.2,629.9L1294.2,629.9z M1288.7,622.2c0.1,0.2,0.4,0.2,0.5,0.1c0.2-0.1,0.2-0.4,0.1-0.6
			c-0.1-0.2-0.4-0.2-0.5-0.1C1288.6,621.8,1288.6,622,1288.7,622.2L1288.7,622.2L1288.7,622.2z M1240.8,612.1c0.1,0.1,0.2,0.1,0.3,0
			c0.1-0.1,0.1-0.2,0-0.3c-0.1-0.1-0.2-0.1-0.3,0C1240.7,611.8,1240.7,612,1240.8,612.1L1240.8,612.1z M1244.6,608
			c0.1,0.1,0.2,0.1,0.3,0c0.1-0.1,0.1-0.2,0-0.3c-0.1-0.1-0.2-0.1-0.3,0l0,0C1244.5,607.8,1244.5,607.9,1244.6,608L1244.6,608z
			 M1262.6,620.1c0,0.1,0.1,0.2,0.2,0.2c0.1,0,0.2-0.1,0.2-0.2s-0.1-0.2-0.2-0.2l0,0C1262.7,619.9,1262.6,620,1262.6,620.1
			L1262.6,620.1L1262.6,620.1z M1262.4,614.6c0,0.1,0.1,0.2,0.3,0.2c0.1,0,0.2-0.1,0.2-0.2l0,0c0-0.1-0.1-0.2-0.2-0.2l0,0
			C1262.5,614.3,1262.4,614.4,1262.4,614.6C1262.4,614.5,1262.4,614.6,1262.4,614.6L1262.4,614.6z M1251.9,615.5
			c0.1,0,0.2,0,0.3-0.1c0-0.1,0-0.2-0.1-0.3l0,0c-0.1,0-0.2,0-0.3,0.1l0,0C1251.7,615.3,1251.7,615.5,1251.9,615.5L1251.9,615.5z
			 M1253.8,610.3c0.1,0,0.2,0,0.3-0.1c0-0.1,0-0.2-0.1-0.3c-0.1-0.1-0.2,0-0.3,0.1l0,0C1253.6,610.1,1253.7,610.2,1253.8,610.3
			L1253.8,610.3L1253.8,610.3z M1236.9,617.6c0.1,0.1,0.3,0,0.3-0.1l0,0c0.1-0.1,0.1-0.3-0.1-0.4l0,0c-0.1-0.1-0.3,0-0.3,0.1l0,0
			C1236.7,617.3,1236.7,617.5,1236.9,617.6L1236.9,617.6z M1240.3,612.2c0.1,0.1,0.3,0,0.4-0.1c0.1-0.1,0-0.3-0.1-0.4
			c-0.1-0.1-0.3,0-0.3,0.1l0,0C1240.1,612,1240.1,612.1,1240.3,612.2L1240.3,612.2L1240.3,612.2z M1243.7,606.9c0.1,0.1,0.3,0,0.3,0
			l0,0c0.1-0.1,0-0.3-0.1-0.4c-0.1-0.1-0.3,0-0.4,0.1C1243.5,606.6,1243.6,606.8,1243.7,606.9z M1263,622.1c0,0.1,0.1,0.2,0.3,0.2
			l0,0c0.1,0,0.2-0.2,0.2-0.3c0-0.1-0.2-0.2-0.3-0.2S1263,622,1263,622.1L1263,622.1L1263,622.1z M1261.6,615.9
			c0,0.1,0.2,0.2,0.3,0.2l0,0c0.1,0,0.2-0.2,0.2-0.3c0-0.1-0.2-0.2-0.3-0.2C1261.7,615.6,1261.6,615.8,1261.6,615.9L1261.6,615.9z
			 M1234.8,602.3c0.1,0.1,0.2,0.1,0.4,0.1c0.1-0.1,0.2-0.2,0.1-0.4l0,0c-0.1-0.1-0.3-0.1-0.4-0.1
			C1234.8,602,1234.8,602.1,1234.8,602.3L1234.8,602.3z M1250,619.2L1250,619.2c0.2,0,0.4-0.1,0.4-0.2l0,0c0-0.1-0.1-0.3-0.2-0.3
			l0,0c-0.1,0-0.3,0.1-0.3,0.2l0,0C1249.9,619.1,1249.9,619.2,1250,619.2L1250,619.2z M1251,612.7c0,0.1,0.1,0.3,0.2,0.3l0,0
			c0.1,0,0.3-0.1,0.3-0.2c0-0.1-0.1-0.3-0.2-0.3C1251.2,612.5,1251.1,612.6,1251,612.7L1251,612.7z M1241.7,634.7
			c0,0.2,0.1,0.5,0.4,0.5s0.5-0.1,0.5-0.4c0-0.2-0.1-0.5-0.4-0.5C1242,634.3,1241.8,634.4,1241.7,634.7L1241.7,634.7z M1243.4,623.9
			c0,0.2,0.1,0.5,0.4,0.5c0.2,0,0.5-0.1,0.5-0.4c0-0.2-0.1-0.5-0.4-0.5C1243.7,623.5,1243.4,623.7,1243.4,623.9z M1245.1,613.2
			c0,0.2,0.1,0.5,0.4,0.5c0.2,0,0.5-0.1,0.5-0.4c0-0.2-0.1-0.5-0.4-0.5C1245.4,612.8,1245.1,612.9,1245.1,613.2L1245.1,613.2z
			 M1284.6,635c0.2,0.2,0.4,0.2,0.6,0.1c0.2-0.2,0.2-0.4,0.1-0.6c-0.1-0.2-0.4-0.2-0.6-0.1C1284.5,634.5,1284.4,634.8,1284.6,635z
			 M1278.2,626.2c0.1,0.2,0.4,0.2,0.6,0.1c0.2-0.1,0.2-0.4,0.1-0.6c-0.1-0.2-0.4-0.2-0.6-0.1C1278.1,625.7,1278,626,1278.2,626.2z
			 M1231.9,614.8c0.2,0.1,0.5,0.1,0.6-0.1s0.1-0.5-0.1-0.6c-0.2-0.1-0.5-0.1-0.6,0.1C1231.6,614.4,1231.7,614.6,1231.9,614.8
			L1231.9,614.8z M1237.6,605.5c0.2,0.1,0.5,0.1,0.6-0.1l0,0c0.1-0.2,0.1-0.5-0.1-0.6c-0.2-0.1-0.5-0.1-0.6,0.1l0,0
			C1237.3,605.1,1237.3,605.3,1237.6,605.5L1237.6,605.5z M1261.4,639.9c0.1,0.2,0.3,0.4,0.6,0.3c0.2-0.1,0.4-0.3,0.3-0.5
			c-0.1-0.2-0.3-0.4-0.5-0.3l0,0C1261.5,639.4,1261.3,639.6,1261.4,639.9L1261.4,639.9L1261.4,639.9z M1258.8,629.3
			c0.1,0.2,0.3,0.4,0.5,0.3l0,0c0.2-0.1,0.4-0.3,0.3-0.5l0,0c-0.1-0.2-0.3-0.4-0.5-0.3C1258.9,628.8,1258.8,629,1258.8,629.3
			L1258.8,629.3L1258.8,629.3z M1256.3,618.7c0.1,0.2,0.3,0.4,0.5,0.3l0,0c0.2-0.1,0.4-0.3,0.4-0.5c-0.1-0.2-0.3-0.4-0.5-0.4
			C1256.4,618.2,1256.2,618.4,1256.3,618.7L1256.3,618.7z M1254.8,643.4c0.1,0.2,0.3,0.4,0.5,0.3c0.2-0.1,0.4-0.3,0.3-0.5
			s-0.3-0.4-0.5-0.3C1254.9,642.9,1254.8,643.1,1254.8,643.4L1254.8,643.4z M1252.7,632.7c0.1,0.2,0.3,0.4,0.5,0.4
			c0.2-0.1,0.4-0.3,0.4-0.5c-0.1-0.2-0.3-0.4-0.5-0.4C1252.8,632.2,1252.7,632.5,1252.7,632.7L1252.7,632.7z M1250.6,622.1
			c0.1,0.2,0.3,0.4,0.5,0.4s0.4-0.3,0.4-0.5c0-0.2-0.3-0.4-0.5-0.4l0,0C1250.7,621.6,1250.6,621.8,1250.6,622.1z M1248.5,611.5
			c0,0.2,0.3,0.4,0.5,0.4l0,0c0.2,0,0.4-0.3,0.4-0.5s-0.3-0.4-0.5-0.4C1248.6,611,1248.5,611.2,1248.5,611.5
			C1248.5,611.4,1248.5,611.5,1248.5,611.5z M1234.4,626.7c0,0.2,0.1,0.5,0.4,0.5l0,0c0.2,0.1,0.5-0.1,0.5-0.3s-0.1-0.5-0.4-0.5
			C1234.7,626.3,1234.5,626.4,1234.4,626.7z M1236.5,616c-0.1,0.2,0.1,0.5,0.3,0.5c0.2,0.1,0.5-0.1,0.5-0.3l0,0
			c0-0.2-0.1-0.5-0.4-0.5C1236.8,615.6,1236.6,615.8,1236.5,616L1236.5,616L1236.5,616z M1238.7,605.4c0,0.2,0.1,0.5,0.4,0.5
			c0.2,0,0.5-0.1,0.5-0.3s-0.1-0.5-0.4-0.5C1239,605,1238.7,605.2,1238.7,605.4z M1273.1,629.9c0.1,0.2,0.4,0.3,0.6,0.1
			c0.2-0.1,0.3-0.4,0.1-0.6c-0.1-0.2-0.4-0.3-0.6-0.1l0,0C1273,629.4,1272.9,629.7,1273.1,629.9C1273,629.9,1273,629.9,1273.1,629.9
			L1273.1,629.9z M1267.1,620.9c0.1,0.2,0.4,0.3,0.6,0.1c0.2-0.1,0.3-0.4,0.1-0.6c-0.1-0.2-0.4-0.3-0.6-0.1l0,0
			C1267,620.4,1266.9,620.7,1267.1,620.9C1267,620.9,1267,620.9,1267.1,620.9L1267.1,620.9z M1255,624.6c0.1,0.2,0.3,0.2,0.4,0.2
			c0.2-0.1,0.2-0.3,0.2-0.4c-0.1-0.2-0.3-0.3-0.4-0.2l0,0C1255,624.3,1255,624.5,1255,624.6L1255,624.6z M1251.8,617.1
			c0.1,0.2,0.3,0.3,0.4,0.2c0.2-0.1,0.3-0.3,0.2-0.4l0,0c-0.1-0.2-0.3-0.3-0.4-0.2l0,0C1251.8,616.8,1251.8,617,1251.8,617.1
			L1251.8,617.1z M1248.6,609.6c0.1,0.2,0.3,0.2,0.4,0.2c0.2-0.1,0.2-0.3,0.2-0.4c-0.1-0.2-0.3-0.2-0.4-0.2l0,0
			C1248.6,609.3,1248.5,609.5,1248.6,609.6L1248.6,609.6z M1237.7,623.8c0,0.2,0.2,0.3,0.3,0.3c0.2,0,0.3-0.2,0.3-0.3
			c0-0.2-0.2-0.3-0.3-0.3l0,0C1237.9,623.5,1237.7,623.6,1237.7,623.8L1237.7,623.8L1237.7,623.8z M1237.6,615.6
			c0,0.2,0.2,0.3,0.3,0.3c0.2,0,0.3-0.2,0.3-0.3l0,0c0-0.2-0.1-0.3-0.3-0.3l0,0C1237.8,615.3,1237.6,615.5,1237.6,615.6
			L1237.6,615.6L1237.6,615.6z M1237.5,607.5c0,0.2,0.1,0.3,0.3,0.3l0,0c0.2,0,0.3-0.1,0.3-0.3l0,0c0-0.2-0.2-0.3-0.3-0.3
			C1237.7,607.1,1237.5,607.3,1237.5,607.5L1237.5,607.5L1237.5,607.5z M1235.7,605.8c0,0.1,0.1,0.2,0.2,0.2c0.1,0,0.2-0.1,0.2-0.2
			c0-0.1-0.1-0.2-0.2-0.2l0,0C1235.7,605.6,1235.7,605.7,1235.7,605.8L1235.7,605.8z M1240.9,613c0.1,0.1,0.3,0.2,0.4,0.1l0,0
			c0.1-0.1,0.2-0.2,0.1-0.4l0,0c-0.1-0.1-0.2-0.2-0.4-0.1l0,0C1240.9,612.7,1240.8,612.9,1240.9,613L1240.9,613z M1237,606.7
			c0.1,0.1,0.2,0.2,0.4,0.1l0,0c0.1-0.1,0.2-0.3,0.1-0.4l0,0c-0.1-0.1-0.3-0.2-0.4-0.1C1236.9,606.4,1236.9,606.6,1237,606.7
			L1237,606.7L1237,606.7z M1233,600.5c0.1,0.1,0.3,0.2,0.4,0.1c0.1-0.1,0.2-0.3,0.1-0.4l0,0c-0.1-0.1-0.3-0.2-0.4-0.1
			S1233,600.4,1233,600.5L1233,600.5z"/>
		
			<linearGradient id="L_hand_1_" gradientUnits="userSpaceOnUse" x1="1381.8512" y1="201.4194" x2="1405.2472" y2="300.6181" gradientTransform="matrix(1 0 0 -1 0 723)">
			<stop  offset="0" style="stop-color:#FFBEB6"/>
			<stop  offset="1" style="stop-color:#F2A19C"/>
		</linearGradient>
		<path id="L_hand" class="st21" d="M1416.5,447.9c-0.8-8.1-7.7-14.9-7.7-14.9s0,8.7,0.4,9.4c0.4,0.7-9,4.3-9,4.3
			s-2.9,16.9-6.5,19.3c-3.6,2.4-6.1-4.5-12.3-6.6c-6.2-2.2-8-0.2-4.1,2.4c3.9,2.6,17.6,14.5,16.1,26.4
			c-1.8,14.2-18.1,40.4-22.7,47.6c-1,0.7-1.5,1.4-1.5,1.7c0.3,1.6-8.8,18.7-9.8,22.9s15.7,32.7,15.7,32.7
			c6.6-4.9,11.8-14.9,15.9-25.9l0,0c13.6-37.1,13.6-77.1,18.7-88.6S1417.3,455.9,1416.5,447.9z"/>
		
			<linearGradient id="L_sleeve_1_" gradientUnits="userSpaceOnUse" x1="1277.5012" y1="181.6468" x2="1369.3766" y2="181.6468" gradientTransform="matrix(1 0 0 -1 0 723)">
			<stop  offset="0" style="stop-color:#23286B"/>
			<stop  offset="1" style="stop-color:#151A4F"/>
		</linearGradient>
		<path id="L_sleeve" class="st22" d="M1350.1,523.7L1350.1,523.7c-3.8-9.6-3.6-10.6-4.1-15.4c-1.5-13.8,22.9-21,22.9-21l-20.3-20.4
			c-48.4,13.1-62.3,41.4-67.7,57.5c-6.6,19.8-3.3,33.1,7.7,44.6c8.4,8.7,18.7,9.4,34.9,27.4c14.4,16,44.5,19.4,44.5,19.4l1.5-78.5
			C1369.4,537.3,1360.1,538.3,1350.1,523.7z"/>
		
			<linearGradient id="R_hand_1_" gradientUnits="userSpaceOnUse" x1="1426.6952" y1="153.1366" x2="1331.7515" y2="87.2171" gradientTransform="matrix(1 0 0 -1 0 723)">
			<stop  offset="0" style="stop-color:#FFBEB6"/>
			<stop  offset="0.6465" style="stop-color:#F7ABA5"/>
			<stop  offset="1" style="stop-color:#F2A19C"/>
		</linearGradient>
		<path id="R_hand_9_" class="st23" d="M1473.1,564.9c-0.5,2.6-2.9,12.6-8.8,16.4c-6.8,4.4-24.1,6.1-36.7,6.8s-51.6,28.1-64.9,29.2
			l-0.5-40.2c0,0,39.2,4.4,54.9-1.4c11.3-4.2,15.7-21.7,16.1-26.4c0.5-4.7,3-4,4,2.6c0.9,6.5-4,11.9-0.2,14
			c3.7,2.1,20.2-3.1,20.2-3.1l0.2,0.1l7.7,6L1473.1,564.9z"/>
		
			<linearGradient id="sweater_1_" gradientUnits="userSpaceOnUse" x1="1288.153" y1="215.7679" x2="1307.5962" y2="96.3866" gradientTransform="matrix(1 0 0 -1 0 723)">
			<stop  offset="0" style="stop-color:#23286B"/>
			<stop  offset="1" style="stop-color:#151A4F"/>
		</linearGradient>
		<path id="sweater_7_" class="st24" d="M1368.9,487.3l-20.3-20.4l0,0c-13.5,1.7-26.6,5.8-38.7,12.1c-6.7,3.5-13,7.5-19.1,11.9
			c-27.8,20.4-27.9,32.4-43.5,44.7l-0.1,0.1c-15.6,12.3-36.1,26.9-29.2,55.4c6.9,4.1,13.6,7.7,19.9,10.9
			c20.7,10.5,38.2,16.6,52.7,19.7l0,0c8.7,2,17.6,3,26.5,3c7.1,0,14.1-1,20.8-3c2.6-0.8,5.2-1.8,7.7-3.1c7-1,13.8-2.6,20.5-4.8
			C1330.4,561.1,1368.9,487.3,1368.9,487.3z"/>
		<path id="R_sleeve_1_" class="st25" d="M1368.9,487.3c0,0-43.4,27.3-33.5,65.3c2.9,11.1,10.1,16.7,23.2,20.8
			c15.7,5,19.8,4.8,19.8,4.8l-4.3,71.1c0,0-33,0.6-47.4-15.4c-16.2-18-29.3-20.2-39.1-27.2c-15-10.6-18.8-28.6-17.9-49.4
			c1.8-39.2,30.4-77.4,78.8-90.5l0,0"/>
		
			<linearGradient id="neck_1_" gradientUnits="userSpaceOnUse" x1="1346.8098" y1="229.5379" x2="1365.7086" y2="255.3993" gradientTransform="matrix(1 0 0 -1 0 723)">
			<stop  offset="0" style="stop-color:#FFBEB6"/>
			<stop  offset="1" style="stop-color:#F2A19C"/>
		</linearGradient>
		<path id="neck_6_" class="st26" d="M1387.1,458.2c0,0-8.7,10-18.1,29c0,0-16.7,3.9-20.3-20.4c0,0,17.6-8,18.1-16.5L1387.1,458.2z"
			/>
		<path id="face_7_" class="st27" d="M1410.6,433.6c0,0.2,0,0.3,0,0.3s0,0,0,0.1c0,0.6,0,1.3,0,2c-0.4,7.2,3.8,13.7,3.4,15.6
			c-0.4,1.9-4.4,2.6-6.3,2.4c-1.9-0.2-5.7,8.5-14.1,12.4c-7.8,3.7-18.2,1.2-24.4-3.9c0-15.7,2.4-26.3,18.3-30.4
			c17.3-4.5,19.7-11.3,19.7-11.3C1409.4,424.8,1410.5,429.2,1410.6,433.6z"/>
		
			<linearGradient id="hair_1_" gradientUnits="userSpaceOnUse" x1="1352.4193" y1="356.0683" x2="1371.5732" y2="315.4734" gradientTransform="matrix(1 0 0 -1 2.609461e-05 723)">
			<stop  offset="0" style="stop-color:#E94A47"/>
			<stop  offset="0.9918" style="stop-color:#D62929"/>
		</linearGradient>
		<ellipse id="hair" class="st28" cx="1361.1" cy="385.3" rx="15.4" ry="15.4"/>
		<path id="eyeglasses_3_" class="st25" d="M1421.2,441.5c1.5-4,0.5-8.4-2.1-9.8l0,0c-2.6-1.4-6,0.7-7.5,4.7
			c-0.2,0.5-0.3,0.9-0.4,1.4c-1.7-0.5-3.5,0.4-5,1.5c0-0.2,0-0.5-0.1-0.7c-0.3-1.9-1.4-3.6-3-4.6c-3.1-1.6-6.9,0.8-8.6,5.5
			c-0.8,2.2-1,4.5-0.6,6.8c0.3,1.5,1,2.9,2.1,4c0.3,0.2,0.6,0.5,0.9,0.6c1.6,0.8,3.5,0.6,4.9-0.4c1.8-1.2,3.1-3,3.8-5.1
			c0.6-1.5,0.8-3.2,0.8-4.8c1.4-1,3.1-2.1,4.7-1.6c-0.3,2.8,0.4,5.4,2,6.7c0.2,0.2,0.5,0.4,0.8,0.5
			C1416.4,447.6,1419.8,445.5,1421.2,441.5z M1401.3,449.3c-1.2,0.9-2.7,1-4,0.4c-1.4-0.9-2.3-2.3-2.5-3.9c-0.4-2-0.2-4.1,0.5-6
			c1.5-4.1,4.8-6.2,7.4-4.9c0.3,0.1,0.5,0.3,0.7,0.5c0.9,0.9,1.6,2.1,1.8,3.3c0.4,2,0.2,4.1-0.5,6
			C1404,446.6,1402.9,448.2,1401.3,449.3z M1414.2,445.1c-2.2-1.2-2.9-4.9-1.7-8.3c1.3-3.4,4-5.3,6.2-4.1c2.2,1.2,2.9,4.9,1.7,8.3
			C1419.1,444.4,1416.3,446.3,1414.2,445.1z"/>
		
			<linearGradient id="_1_1_" gradientUnits="userSpaceOnUse" x1="1480.0509" y1="179.2176" x2="1507.2821" y2="198.0701" gradientTransform="matrix(1 0 0 -1 0 723)">
			<stop  offset="0" style="stop-color:#A1C3FC"/>
			<stop  offset="0.6955" style="stop-color:#81AEF2"/>
			<stop  offset="1" style="stop-color:#78A9EF"/>
		</linearGradient>
		<polygon id="_1" class="st29" points="1438.9,548.5 1512.5,545.1 1465,568.9 		"/>
		<path id="hair-2" class="st30" d="M1379.3,397.1c-9.4-1.9-16.7-0.3-22.2,2.9c-6.5-0.4-11.7-5.3-12.6-11.7c-0.1-0.6-1.1-0.4-1,0.3
			c0.9,6.4,5.9,11.4,12.2,12.3c-3.6,2.4-6.4,5.7-8.4,9.6c-0.4,0.6-0.8,1.2-1.2,1.8c-3.7,5.6-7.3,9.8-13.4,12.9
			c-8.1,4.1-18.6,7.9-18.6,18.6c0,0.3,0.2,0.5,0.5,0.5s0.5-0.2,0.5-0.5c0.1-13.1,15.8-14.9,24-21.3c2.1-1.8,4-3.9,5.5-6.2
			c-2.4,4.7-6.1,10.4-12.4,12.6c-11.9,4.2-14,18.3-14,18.3c20.7,19.7,57.9,20.7,57.9,20.7c7.8-17-1.6-25.1,12.7-31.8
			c16.2-7.6,18.4-15.2,18.4-15.2c2.1,4.1,3.2,8.6,3.3,13.2C1417.6,410.8,1396.8,400.7,1379.3,397.1z"/>
	</g>
</g>
</svg>
