<?xml version="1.0" encoding="utf-8"?>
<!-- Generator: Adobe Illustrator 23.0.0, SVG Export Plug-In . SVG Version: 6.00 Build 0)  -->
<svg version="1.1" id="레이어_1" xmlns="http://www.w3.org/2000/svg" xmlns:xlink="http://www.w3.org/1999/xlink" x="0px"
	 y="0px" width="992px" height="696px" viewBox="0 0 992 696" style="enable-background:new 0 0 992 696;" xml:space="preserve">
<style type="text/css">
	.st0{fill:#E2D7DA;}
	.st1{fill:url(#_3_leg_1_);}
	.st2{fill:url(#_2_leg_1_);}
	.st3{fill:url(#_1_leg_1_);}
	.st4{fill:url(#chair_leg_1_);}
	.st5{fill:url(#side_1_);}
	.st6{fill:url(#chair_1_);}
	.st7{fill:url(#front_side_of_the_laptop_1_);}
	.st8{fill:url(#right_side_of_the_laptop_1_);}
	.st9{fill:url(#screen_1_);}
	.st10{fill:url(#seat_1_);}
	.st11{opacity:0.51;fill:#FFFFFF;enable-background:new    ;}
	.st12{fill:url(#front_1_);}
	.st13{fill:url(#L_shoe_1_);}
	.st14{fill:url(#R_shoe_1_);}
	.st15{fill:url(#_4_1_);}
	.st16{fill:url(#_3_1_);}
	.st17{fill:url(#_2_1_);}
	.st18{fill:url(#L_trousers_1_);}
	.st19{fill:#428DFC;}
	.st20{opacity:0.86;fill:#FFFFFF;enable-background:new    ;}
	.st21{fill:url(#L_hand_1_);}
	.st22{fill:url(#L_sleeve_1_);}
	.st23{fill:url(#R_hand_1_);}
	.st24{fill:url(#sweater_1_);}
	.st25{fill:#23286B;}
	.st26{fill:url(#neck_1_);}
	.st27{fill:#FFBEB6;}
	.st28{fill:url(#hair_1_);}
	.st29{fill:url(#_1_1_);}
	.st30{fill:#E94A47;}
</style>
<g>
	<ellipse class="st0" cx="472.8" cy="673.5" rx="127.5" ry="22.5"/>
	<g id="table_chair">
		
			<linearGradient id="_3_leg_1_" gradientUnits="userSpaceOnUse" x1="605.9972" y1="-147.579" x2="606.6211" y2="35.8399" gradientTransform="matrix(1 0 0 -1 0 469)">
			<stop  offset="0" style="stop-color:#EEEEEE"/>
			<stop  offset="1" style="stop-color:#DCE3EA"/>
		</linearGradient>
		<rect id="_3_leg" x="600.6" y="440.5" class="st1" width="11.2" height="232.9"/>
		
			<linearGradient id="_2_leg_1_" gradientUnits="userSpaceOnUse" x1="739.4064" y1="-174.2421" x2="740.0305" y2="9.1771" gradientTransform="matrix(1 0 0 -1 0 469)">
			<stop  offset="0" style="stop-color:#EEEEEE"/>
			<stop  offset="1" style="stop-color:#DCE3EA"/>
		</linearGradient>
		<rect id="_2_leg" x="734.1" y="440.5" class="st2" width="11.2" height="232.9"/>
		
			<linearGradient id="_1_leg_1_" gradientUnits="userSpaceOnUse" x1="986.4198" y1="-82.1231" x2="987.0436" y2="101.2959" gradientTransform="matrix(1 0 0 -1 0 469)">
			<stop  offset="0" style="stop-color:#EEEEEE"/>
			<stop  offset="1" style="stop-color:#DCE3EA"/>
		</linearGradient>
		<rect id="_1_leg" x="980.8" y="440.5" class="st3" width="11.2" height="232.9"/>
		
			<linearGradient id="chair_leg_1_" gradientUnits="userSpaceOnUse" x1="321.7149" y1="-113.2188" x2="322.1802" y2="23.6031" gradientTransform="matrix(1 0 0 -1 0 469)">
			<stop  offset="0" style="stop-color:#EEEEEE"/>
			<stop  offset="1" style="stop-color:#DCE3EA"/>
		</linearGradient>
		<polyline id="chair_leg" class="st4" points="316.9,499.9 312.2,673.5 316.4,673.5 331.2,499.7 316.9,499.9 		"/>
		
			<linearGradient id="side_1_" gradientUnits="userSpaceOnUse" x1="765.7403" y1="32.0682" x2="700.6971" y2="29.6592" gradientTransform="matrix(1 0 0 -1 0 469)">
			<stop  offset="0" style="stop-color:#EEEEEE"/>
			<stop  offset="1" style="stop-color:#DCE3EA"/>
		</linearGradient>
		<rect id="side" x="600.6" y="429.4" class="st5" width="391.4" height="12.8"/>
		
			<linearGradient id="chair_1_" gradientUnits="userSpaceOnUse" x1="346.121" y1="114.3509" x2="538.9717" y2="-160.0904" gradientTransform="matrix(1 0 0 -1 0 469)">
			<stop  offset="0" style="stop-color:#EEEEEE"/>
			<stop  offset="1" style="stop-color:#DCE3EA"/>
		</linearGradient>
		<polygon id="chair" class="st6" points="483.1,500.5 316.9,499.9 262,334 462.9,334 		"/>
		
			<linearGradient id="front_side_of_the_laptop_1_" gradientUnits="userSpaceOnUse" x1="-2786.251" y1="45.35" x2="-2682.751" y2="45.35" gradientTransform="matrix(-1 0 0 -1 -2019.0698 469)">
			<stop  offset="0" style="stop-color:#A1C3FC"/>
			<stop  offset="0.6955" style="stop-color:#81AEF2"/>
			<stop  offset="0.8442" style="stop-color:#7DACF1"/>
			<stop  offset="1" style="stop-color:#78A9EF"/>
		</linearGradient>
		<rect id="front_side_of_the_laptop" x="624.8" y="418" class="st7" width="103.5" height="11.3"/>
		
			<linearGradient id="right_side_of_the_laptop_1_" gradientUnits="userSpaceOnUse" x1="-2871.8447" y1="45.35" x2="-2753.4448" y2="45.35" gradientTransform="matrix(-1 0 0 -1 -2019.0697 469)">
			<stop  offset="0" style="stop-color:#A1C3FC"/>
			<stop  offset="0.6955" style="stop-color:#81AEF2"/>
			<stop  offset="0.8442" style="stop-color:#7DACF1"/>
			<stop  offset="1" style="stop-color:#78A9EF"/>
		</linearGradient>
		<rect id="right_side_of_the_laptop" x="728.3" y="418" class="st8" width="118.4" height="11.3"/>
		
			<linearGradient id="screen_1_" gradientUnits="userSpaceOnUse" x1="769.032" y1="56.1983" x2="561.8295" y2="-213.0479" gradientTransform="matrix(1 0 0 -1 0 469)">
			<stop  offset="0" style="stop-color:#A1C3FC"/>
			<stop  offset="0.6955" style="stop-color:#81AEF2"/>
			<stop  offset="1" style="stop-color:#78A9EF"/>
		</linearGradient>
		<polygon id="screen" class="st9" points="705.5,418 846.7,418 891.9,330.5 750.7,330.5 		"/>
		
			<linearGradient id="seat_1_" gradientUnits="userSpaceOnUse" x1="432.4968" y1="-44.0364" x2="323.8576" y2="9.5181" gradientTransform="matrix(1 0 0 -1 0 469)">
			<stop  offset="0" style="stop-color:#EEEEEE"/>
			<stop  offset="1" style="stop-color:#DCE3EA"/>
		</linearGradient>
		<polygon id="seat" class="st10" points="466.6,486 312.3,486.4 316.9,499.9 466.6,499.9 		"/>
		<path id="texture_7_" class="st11" d="M867.3,338.2c0.2,0.2,0.6,0.1,0.7-0.1l0,0c0.2-0.2,0.1-0.5-0.1-0.7l0,0
			c-0.2-0.2-0.6-0.1-0.7,0.1l0,0C867.1,337.7,867.1,338,867.3,338.2L867.3,338.2z M873.4,350.5c0.2,0.1,0.5,0,0.6-0.3
			c0.1-0.2,0-0.5-0.3-0.6c-0.2-0.1-0.5,0-0.6,0.3l0,0C873,350.2,873.1,350.5,873.4,350.5L873.4,350.5z M876.9,339.9
			c0.2,0.1,0.5-0.1,0.6-0.3c0.1-0.2,0-0.5-0.3-0.6c-0.2-0.1-0.5,0-0.6,0.3l0,0C876.5,339.5,876.6,339.8,876.9,339.9L876.9,339.9
			L876.9,339.9z M876,362.2c0,0.3,0.3,0.5,0.6,0.5s0.5-0.3,0.5-0.6c0-0.3-0.3-0.5-0.6-0.5C876.2,361.6,875.9,361.9,876,362.2
			L876,362.2z M874.9,349.3c0,0.3,0.3,0.5,0.6,0.5s0.5-0.3,0.5-0.6c0-0.3-0.3-0.5-0.6-0.5C875.1,348.7,874.9,349,874.9,349.3z
			 M873.8,336.4c0,0.3,0.3,0.5,0.6,0.5s0.5-0.3,0.5-0.6s-0.3-0.5-0.6-0.5S873.8,336.1,873.8,336.4z M881.7,332.2
			c0.1,0.3,0.5,0.4,0.7,0.3c0.3-0.1,0.4-0.4,0.3-0.7c-0.1-0.3-0.4-0.4-0.7-0.3l0,0C881.7,331.6,881.5,331.9,881.7,332.2L881.7,332.2
			z M864.2,342.1c0,0.3,0.3,0.5,0.6,0.5l0,0c0.3,0,0.5-0.3,0.5-0.5c0-0.3-0.3-0.5-0.6-0.5C864.4,341.5,864.2,341.8,864.2,342.1
			L864.2,342.1z M887.5,333.9c0.1,0.2,0.4,0.2,0.6,0.1c0.2-0.1,0.2-0.4,0.1-0.6c-0.1-0.2-0.4-0.2-0.5-0.1l0,0
			C887.4,333.5,887.4,333.7,887.5,333.9L887.5,333.9z M867.3,337.8c0.1,0.2,0.3,0.3,0.5,0.3c0.2-0.1,0.3-0.3,0.3-0.5
			c-0.1-0.2-0.3-0.3-0.5-0.3l0,0C867.3,337.4,867.2,337.6,867.3,337.8C867.2,337.8,867.2,337.8,867.3,337.8L867.3,337.8z"/>
		<path id="texture-2" class="st11" d="M793.1,338.3c0.2,0.1,0.5,0.1,0.6-0.1l0,0c0.1-0.2,0.1-0.5-0.1-0.6l0,0
			c-0.2-0.1-0.5-0.1-0.6,0.1l0,0C792.9,337.9,792.9,338.2,793.1,338.3L793.1,338.3z M830.4,356.7c0,0.2,0.3,0.4,0.5,0.4
			s0.4-0.2,0.4-0.5l0,0c0-0.2-0.3-0.4-0.5-0.4C830.6,356.2,830.4,356.5,830.4,356.7L830.4,356.7z M828.6,346.2
			c0,0.2,0.3,0.4,0.5,0.4s0.4-0.3,0.4-0.5c0-0.2-0.3-0.4-0.5-0.4l0,0C828.8,345.7,828.6,346,828.6,346.2L828.6,346.2z M826.9,335.7
			c0,0.2,0.3,0.4,0.5,0.4l0,0c0.2,0,0.4-0.2,0.4-0.5l0,0c0-0.2-0.3-0.4-0.5-0.4C827,335.2,826.8,335.5,826.9,335.7L826.9,335.7z
			 M808.3,351.3c0.2,0,0.5-0.1,0.5-0.3s-0.1-0.5-0.3-0.5s-0.5,0.1-0.5,0.3C808,351.1,808.1,351.3,808.3,351.3L808.3,351.3z
			 M810.7,341c0.2,0,0.5-0.1,0.5-0.3c0-0.2-0.1-0.5-0.3-0.5s-0.5,0.1-0.5,0.3C810.3,340.7,810.5,340.9,810.7,341L810.7,341z
			 M848.2,344.7c0.1,0.2,0.4,0.3,0.6,0.1c0.2-0.1,0.3-0.4,0.1-0.6l0,0c-0.1-0.2-0.4-0.3-0.6-0.2l0,0
			C848.2,344.2,848.1,344.5,848.2,344.7L848.2,344.7z M842.6,335.7c0.1,0.2,0.4,0.3,0.6,0.1c0.2-0.1,0.3-0.4,0.1-0.6
			c-0.1-0.2-0.4-0.3-0.6-0.1l0,0C842.5,335.2,842.5,335.5,842.6,335.7L842.6,335.7L842.6,335.7z M798.2,348.7c0.2,0.1,0.4,0,0.5-0.2
			s0-0.4-0.2-0.5s-0.4,0-0.5,0.2l0,0C797.9,348.5,798,348.7,798.2,348.7L798.2,348.7z M801.2,339.7c0.2,0.1,0.4,0,0.5-0.2
			s0-0.4-0.2-0.5s-0.4,0-0.5,0.2l0,0C800.9,339.4,801,339.7,801.2,339.7L801.2,339.7L801.2,339.7z M837.8,345.7
			c0.1,0.2,0.3,0.3,0.5,0.2s0.3-0.3,0.2-0.5l0,0c-0.1-0.2-0.3-0.3-0.5-0.2l0,0C837.8,345.2,837.8,345.5,837.8,345.7L837.8,345.7z
			 M833.6,337.2c0.1,0.2,0.3,0.3,0.5,0.2s0.3-0.3,0.2-0.5l0,0c-0.1-0.2-0.3-0.3-0.5-0.2l0,0C833.6,336.7,833.5,337,833.6,337.2
			L833.6,337.2z M817.1,346.2c0,0.2,0.2,0.4,0.4,0.4s0.4-0.2,0.4-0.4c0-0.2-0.2-0.4-0.4-0.4C817.2,345.8,817,346,817.1,346.2z
			 M816.4,336.8c0,0.2,0.2,0.4,0.4,0.4l0,0c0.2,0,0.4-0.2,0.4-0.4c0-0.2-0.2-0.4-0.4-0.4C816.5,336.4,816.4,336.5,816.4,336.8
			L816.4,336.8z M790.7,332.1c0.1,0,0.3,0,0.3-0.2l0,0c0.1-0.1,0-0.3-0.1-0.3l0,0c-0.1,0-0.3,0-0.3,0.2l0,0
			C790.5,331.9,790.6,332,790.7,332.1L790.7,332.1z M800.4,358.6c0,0.2,0.3,0.4,0.5,0.4s0.4-0.2,0.4-0.5s-0.2-0.4-0.5-0.4
			C800.6,358.1,800.4,358.4,800.4,358.6L800.4,358.6z M799.5,347.7c0,0.2,0.2,0.4,0.5,0.4c0.2,0,0.4-0.2,0.4-0.5
			c0-0.2-0.2-0.4-0.5-0.4C799.7,347.2,799.5,347.4,799.5,347.7L799.5,347.7z M798.6,336.7c0,0.3,0.2,0.4,0.5,0.4
			c0.2,0,0.4-0.3,0.4-0.5c0-0.2-0.3-0.4-0.5-0.4C798.8,336.3,798.6,336.5,798.6,336.7z M841.6,337.8c0.2,0.2,0.5,0.1,0.7-0.1
			s0.1-0.5-0.1-0.6c-0.2-0.2-0.5-0.1-0.6,0.1C841.4,337.3,841.4,337.6,841.6,337.8L841.6,337.8z M820,348.1c0.1,0.2,0.4,0.3,0.6,0.2
			c0.2-0.1,0.3-0.4,0.2-0.6s-0.4-0.3-0.6-0.2l0,0C820,347.6,819.9,347.8,820,348.1L820,348.1z M815,338.3c0.1,0.2,0.4,0.3,0.6,0.2
			l0,0c0.2-0.1,0.3-0.4,0.2-0.6l0,0c-0.1-0.2-0.4-0.3-0.6-0.2C815,337.8,814.9,338.1,815,338.3L815,338.3z M814.4,353.1
			c0.1,0.2,0.4,0.3,0.6,0.2c0.2-0.1,0.3-0.4,0.2-0.6s-0.4-0.3-0.6-0.2C814.4,352.6,814.3,352.8,814.4,353.1L814.4,353.1z
			 M809.8,343.1c0.1,0.2,0.4,0.3,0.6,0.2c0.2-0.1,0.3-0.4,0.2-0.6s-0.4-0.3-0.6-0.2C809.8,342.6,809.7,342.9,809.8,343.1
			L809.8,343.1z M805.3,333.2c0.1,0.2,0.4,0.3,0.6,0.2c0.2-0.1,0.3-0.4,0.2-0.6c-0.1-0.2-0.4-0.3-0.6-0.2l0,0
			C805.3,332.7,805.2,333,805.3,333.2z M790.5,341.6c0,0.2,0.2,0.4,0.5,0.4l0,0c0.2,0,0.4-0.2,0.4-0.5s-0.2-0.4-0.5-0.4
			C790.7,341.1,790.5,341.3,790.5,341.6z M829.1,335.6c0.2,0.2,0.5,0.2,0.6,0c0.2-0.2,0.2-0.5,0-0.6c-0.2-0.2-0.5-0.2-0.6,0l0,0
			C828.9,335.1,828.9,335.4,829.1,335.6L829.1,335.6z M810.2,334.7c0.1,0.1,0.3,0.2,0.5,0.1c0.1-0.1,0.2-0.3,0.1-0.5
			c-0.1-0.1-0.3-0.2-0.5-0.1l0,0C810.1,334.3,810.1,334.5,810.2,334.7L810.2,334.7z M793.1,338c0.1,0.2,0.2,0.3,0.4,0.2
			c0.2-0.1,0.3-0.2,0.2-0.4c0-0.2-0.2-0.3-0.4-0.2l0,0C793.1,337.6,793,337.8,793.1,338L793.1,338L793.1,338z"/>
		
			<linearGradient id="front_1_" gradientUnits="userSpaceOnUse" x1="555.7093" y1="32.0271" x2="676.0044" y2="33.23" gradientTransform="matrix(1 0 0 -1 0 469)">
			<stop  offset="0" style="stop-color:#EEEEEE"/>
			<stop  offset="1" style="stop-color:#DCE3EA"/>
		</linearGradient>
		<rect id="front" x="600.7" y="429.4" class="st12" width="144.6" height="12.8"/>
	</g>
	<g id="woman_1_">
		
			<linearGradient id="L_shoe_1_" gradientUnits="userSpaceOnUse" x1="610.7826" y1="-179.1615" x2="535.4342" y2="-189.4362" gradientTransform="matrix(1 0 0 -1 0 469)">
			<stop  offset="0" style="stop-color:#A1C3FC"/>
			<stop  offset="0.6955" style="stop-color:#81AEF2"/>
			<stop  offset="0.8442" style="stop-color:#7DACF1"/>
			<stop  offset="1" style="stop-color:#78A9EF"/>
		</linearGradient>
		<path id="L_shoe_6_" class="st13" d="M534.1,631.4l-15.1,42h106.3c0,0-5.4-10.5-23.6-18.3c-18.2-7.8-35.1-23.7-35.1-23.7H534.1"/>
		
			<linearGradient id="R_shoe_1_" gradientUnits="userSpaceOnUse" x1="515.4589" y1="-183.7334" x2="375.8933" y2="-207.7079" gradientTransform="matrix(1 0 0 -1 0 469)">
			<stop  offset="0" style="stop-color:#A1C3FC"/>
			<stop  offset="0.6955" style="stop-color:#81AEF2"/>
			<stop  offset="1" style="stop-color:#78A9EF"/>
		</linearGradient>
		<path id="R_shoe" class="st14" d="M471.8,631.4l-15.1,42H563c0,0-5.4-10.5-23.6-18.3c-18.2-7.8-32.9-23.7-32.9-23.7H471.8"/>
		
			<linearGradient id="_4_1_" gradientUnits="userSpaceOnUse" x1="599.0294" y1="101.6733" x2="596.4383" y2="53.0213" gradientTransform="matrix(1 0 0 -1 0 469)">
			<stop  offset="0" style="stop-color:#A1C3FC"/>
			<stop  offset="0.6955" style="stop-color:#81AEF2"/>
			<stop  offset="1" style="stop-color:#78A9EF"/>
		</linearGradient>
		<polyline id="_4" class="st15" points="559.7,383.6 558.9,408 585.2,400 636.7,382.2 559.7,383.6 		"/>
		
			<linearGradient id="_3_1_" gradientUnits="userSpaceOnUse" x1="558.9886" y1="79.4641" x2="597.9396" y2="74.1961" gradientTransform="matrix(1 0 0 -1 0 469)">
			<stop  offset="0" style="stop-color:#A1C3FC"/>
			<stop  offset="0.6955" style="stop-color:#81AEF2"/>
			<stop  offset="1" style="stop-color:#78A9EF"/>
		</linearGradient>
		<polygon id="_3" class="st16" points="563.1,385.6 560.6,407.6 636.7,382.2 		"/>
		
			<linearGradient id="_2_1_" gradientUnits="userSpaceOnUse" x1="594.4189" y1="87.6495" x2="645.6208" y2="84.6238" gradientTransform="matrix(1 0 0 -1 0 469)">
			<stop  offset="0" style="stop-color:#A1C3FC"/>
			<stop  offset="0.2365" style="stop-color:#96BCF9"/>
			<stop  offset="0.6955" style="stop-color:#81AEF2"/>
			<stop  offset="1" style="stop-color:#78A9EF"/>
		</linearGradient>
		<polyline id="_2" class="st17" points="636.7,382.2 546.2,374.2 559.7,383.6 636.7,382.2 		"/>
		
			<linearGradient id="L_trousers_1_" gradientUnits="userSpaceOnUse" x1="657.5941" y1="-150.6973" x2="511.5406" y2="-38.9443" gradientTransform="matrix(1 0 0 -1 0 469)">
			<stop  offset="0.1291" style="stop-color:#428DFC"/>
			<stop  offset="0.9987" style="stop-color:#1D72D8"/>
		</linearGradient>
		<path id="L_trousers_7_" class="st18" d="M531.8,440.3c-31.4-3.3-81.2-4.8-81.2-4.8l-73.5,12.9c0,0-15.2,33.8,45,37
			c28.7,1.5,90,13.7,104.6,7.5c2.7-1.2,5.9,0.1,7,2.8c0.3,0.7,0.5,1.5,0.4,2.4c-0.3,5.8-0.3,8.8-8.5,31
			c-12.4,33.8-4.2,79.6,8.4,102.4h32.5c1.6-9.3,22.1-134.4,22.7-154.5C590.3,445.1,554,442.6,531.8,440.3z"/>
		<path id="R_trousers_7_" class="st19" d="M358.9,422.7c0,0-24.5,55.7,33.5,72.1c27.6,7.8,86.9,7.3,102.6,4.5
			c2.9-0.5,5.7,1.4,6.2,4.3c0.1,0.8,0.1,1.6-0.1,2.4c-1.6,5.6-2.3,8.5-15.2,28.4c-22.1,34.1-25.9,71.2-14,97.1h34.7
			c0,0,50-118.5,57.7-138c11-27.8-13-40.9-44-47.2c-30.9-6.3-86.8-19.7-86.8-19.7L358.9,422.7"/>
		<path id="texture-3" class="st20" d="M392.2,459.9c0.1,0,0.2,0,0.3-0.1c0-0.1,0-0.2-0.1-0.3c-0.1,0-0.2,0-0.3,0.1l0,0
			C392.1,459.7,392.1,459.8,392.2,459.9L392.2,459.9z M394.4,454.7c0.1,0,0.3,0,0.3-0.1c0-0.1,0-0.3-0.1-0.3c-0.1-0.1-0.2,0-0.3,0.1
			l0,0C394.2,454.6,394.3,454.7,394.4,454.7L394.4,454.7z M415.5,459.8c0,0.1,0.2,0.2,0.3,0.1l0,0c0.1,0,0.2-0.2,0.1-0.3l0,0
			c0-0.1-0.2-0.2-0.3-0.1C415.5,459.6,415.5,459.7,415.5,459.8L415.5,459.8z M384.2,450.9c0.1,0.1,0.2,0.1,0.3,0s0.1-0.2,0-0.3
			c-0.1-0.1-0.2-0.1-0.3,0C384.1,450.6,384.1,450.8,384.2,450.9L384.2,450.9L384.2,450.9z M403.7,459.1c0,0.1,0.1,0.2,0.2,0.2
			s0.2-0.1,0.2-0.2s-0.1-0.2-0.2-0.2C403.8,458.9,403.7,459,403.7,459.1L403.7,459.1z M361.9,461.3c0.2,0.2,0.4,0.2,0.6,0.1l0,0
			c0.2-0.2,0.2-0.4,0-0.6l0,0c-0.2-0.2-0.4-0.2-0.6-0.1l0,0C361.8,460.8,361.8,461.1,361.9,461.3L361.9,461.3z M369.9,454.3
			c0.2,0.2,0.4,0.2,0.6,0c0.2-0.2,0.2-0.4,0-0.6l0,0c-0.2-0.2-0.4-0.2-0.6,0l0,0C369.8,453.9,369.7,454.1,369.9,454.3L369.9,454.3z
			 M393.6,487.7c0,0.2,0.2,0.4,0.4,0.5c0.2,0,0.4-0.1,0.5-0.4l0,0c0-0.2-0.2-0.4-0.4-0.5C393.8,487.3,393.6,487.5,393.6,487.7
			L393.6,487.7L393.6,487.7z M394.3,477.2c0,0.2,0.2,0.4,0.4,0.5c0.2,0,0.4-0.2,0.5-0.4l0,0c0-0.2-0.2-0.4-0.4-0.5l0,0
			C394.5,476.8,394.3,476.9,394.3,477.2L394.3,477.2z M395.1,466.6c0,0.2,0.2,0.4,0.4,0.5l0,0c0.2,0,0.4-0.1,0.5-0.4l0,0
			c0-0.2-0.2-0.5-0.4-0.5C395.3,466.2,395.1,466.4,395.1,466.6L395.1,466.6z M395.8,456.1c0,0.2,0.2,0.4,0.4,0.5
			c0.2,0,0.4-0.2,0.5-0.4c0-0.2-0.2-0.4-0.4-0.5l0,0C396,455.7,395.8,455.9,395.8,456.1L395.8,456.1L395.8,456.1z M357.1,443.1
			c0.1,0.2,0.3,0.4,0.6,0.3c0.2-0.1,0.4-0.3,0.3-0.6l0,0c-0.1-0.2-0.3-0.3-0.6-0.3C357.2,442.6,357,442.8,357.1,443.1L357.1,443.1
			L357.1,443.1z M373.5,477.4c0.2,0.1,0.5,0,0.6-0.2s0-0.5-0.2-0.6c-0.2-0.1-0.5,0-0.6,0.2C373.2,477,373.3,477.3,373.5,477.4z
			 M378.2,467.9c0.2,0.1,0.5,0,0.6-0.2c0.1-0.2,0-0.5-0.2-0.6c-0.2-0.1-0.5,0-0.6,0.2C377.9,467.6,378,467.8,378.2,467.9
			L378.2,467.9z M383,458.5c0.2,0.1,0.5,0,0.6-0.2c0.1-0.2,0-0.5-0.2-0.6c-0.2-0.1-0.5,0-0.6,0.2C382.6,458.1,382.7,458.4,383,458.5
			C382.9,458.5,383,458.5,383,458.5z M413.5,480.3c0.1,0.2,0.3,0.3,0.6,0.3c0.2-0.1,0.3-0.3,0.3-0.5l0,0c-0.1-0.2-0.3-0.4-0.5-0.3
			l0,0C413.6,479.8,413.5,480.1,413.5,480.3z M410.2,470.3c0.1,0.2,0.3,0.3,0.6,0.3c0.2-0.1,0.3-0.3,0.3-0.6
			c-0.1-0.2-0.3-0.3-0.5-0.3l0,0C410.2,469.8,410.1,470.1,410.2,470.3L410.2,470.3z M406.9,460.3c0.1,0.2,0.3,0.3,0.5,0.3l0,0
			c0.2-0.1,0.4-0.3,0.3-0.5l0,0c-0.1-0.2-0.3-0.3-0.6-0.3C406.9,459.8,406.8,460.1,406.9,460.3z M364.4,472.5
			c0.2,0.1,0.4,0.1,0.5-0.1s0.1-0.4-0.1-0.5c-0.2-0.1-0.4-0.1-0.5,0.1l0,0C364.2,472.2,364.2,472.4,364.4,472.5L364.4,472.5z
			 M369.4,464.5c0.2,0.1,0.4,0.1,0.5-0.1s0.1-0.4-0.1-0.5c-0.2-0.1-0.4-0.1-0.5,0.1l0,0C369.2,464.2,369.2,464.4,369.4,464.5
			L369.4,464.5L369.4,464.5z M374.2,456.3c0,0.1,0.1,0.2,0.2,0.2c0.2,0.1,0.4,0.1,0.5-0.1c0.1-0.2,0.1-0.4-0.1-0.5l0,0
			c-0.1-0.1-0.2-0.1-0.4,0l0,0c-0.1,0-0.1,0.1-0.2,0.1C374.2,456.1,374.2,456.2,374.2,456.3L374.2,456.3z M379.4,448.5
			c0.2,0.1,0.4,0.1,0.5-0.1c0.1-0.2,0.1-0.4-0.1-0.5c-0.2-0.1-0.4-0.1-0.5,0.1C379.1,448.2,379.2,448.4,379.4,448.5L379.4,448.5
			L379.4,448.5z M403.3,478.8c0.1,0.2,0.3,0.3,0.5,0.3c0.2,0,0.3-0.2,0.3-0.4l0,0c0-0.2-0.2-0.3-0.5-0.3l0,0
			C403.4,478.4,403.3,478.6,403.3,478.8L403.3,478.8z M401.2,469.6c0.1,0.2,0.3,0.3,0.5,0.3c0.2,0,0.3-0.2,0.3-0.4l0,0
			c0-0.2-0.2-0.3-0.5-0.3l0,0C401.3,469.2,401.1,469.4,401.2,469.6L401.2,469.6z M399.1,460.4c0,0.2,0.2,0.3,0.5,0.3l0,0
			c0.2,0,0.3-0.2,0.3-0.4l0,0c0-0.2-0.2-0.3-0.5-0.3l0,0C399.2,460,399,460.2,399.1,460.4L399.1,460.4z M360.5,450
			c0.1,0.2,0.4,0.2,0.5,0.1l0,0c0.2-0.1,0.2-0.3,0.1-0.5l0,0c-0.1-0.2-0.4-0.2-0.5-0.1l0,0C360.4,449.5,360.4,449.8,360.5,450
			L360.5,450z M368.1,444.5c0.1,0.2,0.4,0.2,0.5,0.1c0.2-0.1,0.2-0.4,0.1-0.5c-0.1-0.2-0.4-0.2-0.5-0.1
			C368.1,444.1,368,444.3,368.1,444.5L368.1,444.5L368.1,444.5z M383.1,474.5c0,0.2,0.1,0.4,0.3,0.4c0.2,0,0.4-0.1,0.4-0.3
			c0-0.2-0.1-0.4-0.3-0.5C383.4,474.1,383.2,474.3,383.1,474.5z M384.7,465.2c0,0.2,0.1,0.4,0.3,0.4l0,0c0.2,0,0.4-0.1,0.4-0.3
			c0-0.2-0.1-0.4-0.3-0.5C384.9,464.9,384.7,465,384.7,465.2z M386.2,455.9c0,0.2,0.1,0.4,0.3,0.4s0.4-0.1,0.4-0.3l0,0
			c0-0.2-0.1-0.4-0.3-0.4C386.5,455.6,386.3,455.7,386.2,455.9z M418.4,467c0.1,0.2,0.3,0.2,0.5,0.1l0,0c0.2-0.1,0.2-0.4,0.1-0.5
			l0,0c-0.1-0.2-0.4-0.2-0.5-0.1C418.3,466.6,418.2,466.8,418.4,467C418.3,467,418.3,467,418.4,467L418.4,467z M412.9,459.3
			c0.1,0.2,0.4,0.2,0.5,0.1c0.2-0.1,0.2-0.4,0.1-0.6c-0.1-0.2-0.4-0.2-0.5-0.1C412.8,458.9,412.8,459.1,412.9,459.3L412.9,459.3
			L412.9,459.3z M365,449.2c0.1,0.1,0.2,0.1,0.3,0c0.1-0.1,0.1-0.2,0-0.3c-0.1-0.1-0.2-0.1-0.3,0C364.9,448.9,364.9,449.1,365,449.2
			L365,449.2z M368.8,445.1c0.1,0.1,0.2,0.1,0.3,0s0.1-0.2,0-0.3c-0.1-0.1-0.2-0.1-0.3,0l0,0C368.7,444.9,368.7,445,368.8,445.1
			L368.8,445.1z M386.8,457.2c0,0.1,0.1,0.2,0.2,0.2s0.2-0.1,0.2-0.2c0-0.1-0.1-0.2-0.2-0.2l0,0C386.9,457,386.8,457.1,386.8,457.2
			L386.8,457.2L386.8,457.2z M386.6,451.7c0,0.1,0.1,0.2,0.3,0.2c0.1,0,0.2-0.1,0.2-0.2l0,0c0-0.1-0.1-0.2-0.2-0.2l0,0
			C386.7,451.4,386.6,451.5,386.6,451.7C386.6,451.6,386.6,451.7,386.6,451.7L386.6,451.7z M376.1,452.6c0.1,0,0.2,0,0.3-0.1
			c0-0.1,0-0.2-0.1-0.3l0,0c-0.1,0-0.2,0-0.3,0.1l0,0C375.9,452.4,375.9,452.6,376.1,452.6L376.1,452.6z M378,447.4
			c0.1,0,0.2,0,0.3-0.1c0-0.1,0-0.2-0.1-0.3c-0.1-0.1-0.2,0-0.3,0.1l0,0C377.8,447.2,377.9,447.3,378,447.4L378,447.4L378,447.4z
			 M361.1,454.7c0.1,0.1,0.3,0,0.3-0.1l0,0c0.1-0.1,0.1-0.3-0.1-0.4l0,0c-0.1-0.1-0.3,0-0.3,0.1l0,0
			C360.9,454.4,360.9,454.6,361.1,454.7L361.1,454.7z M364.5,449.3c0.1,0.1,0.3,0,0.4-0.1c0.1-0.1,0-0.3-0.1-0.4
			c-0.1-0.1-0.3,0-0.3,0.1l0,0C364.3,449.1,364.3,449.2,364.5,449.3L364.5,449.3L364.5,449.3z M367.9,444c0.1,0.1,0.3,0,0.3,0l0,0
			c0.1-0.1,0-0.3-0.1-0.4s-0.3,0-0.4,0.1C367.7,443.7,367.8,443.9,367.9,444z M387.2,459.2c0,0.1,0.1,0.2,0.3,0.2l0,0
			c0.1,0,0.2-0.2,0.2-0.3c0-0.1-0.2-0.2-0.3-0.2S387.2,459.1,387.2,459.2L387.2,459.2L387.2,459.2z M385.8,453
			c0,0.1,0.2,0.2,0.3,0.2l0,0c0.1,0,0.2-0.2,0.2-0.3s-0.2-0.2-0.3-0.2S385.8,452.9,385.8,453L385.8,453z M359,439.4
			c0.1,0.1,0.2,0.1,0.4,0.1c0.1-0.1,0.2-0.2,0.1-0.4l0,0c-0.1-0.1-0.3-0.1-0.4-0.1C359,439.1,359,439.2,359,439.4L359,439.4z
			 M374.2,456.3L374.2,456.3c0.2,0,0.4-0.1,0.4-0.2l0,0c0-0.1-0.1-0.3-0.2-0.3l0,0c-0.1,0-0.3,0.1-0.3,0.2l0,0
			C374.1,456.2,374.1,456.3,374.2,456.3L374.2,456.3z M375.2,449.8c0,0.1,0.1,0.3,0.2,0.3l0,0c0.1,0,0.3-0.1,0.3-0.2
			c0-0.1-0.1-0.3-0.2-0.3S375.3,449.7,375.2,449.8L375.2,449.8z M365.9,471.8c0,0.2,0.1,0.5,0.4,0.5c0.3,0,0.5-0.1,0.5-0.4
			c0-0.2-0.1-0.5-0.4-0.5C366.2,471.4,366,471.5,365.9,471.8L365.9,471.8z M367.6,461c0,0.2,0.1,0.5,0.4,0.5c0.2,0,0.5-0.1,0.5-0.4
			c0-0.2-0.1-0.5-0.4-0.5C367.9,460.6,367.6,460.8,367.6,461z M369.3,450.3c0,0.2,0.1,0.5,0.4,0.5c0.2,0,0.5-0.1,0.5-0.4
			c0-0.2-0.1-0.5-0.4-0.5C369.6,449.9,369.3,450,369.3,450.3L369.3,450.3z M408.8,472.1c0.2,0.2,0.4,0.2,0.6,0.1
			c0.2-0.2,0.2-0.4,0.1-0.6c-0.1-0.2-0.4-0.2-0.6-0.1S408.6,471.9,408.8,472.1z M402.4,463.3c0.1,0.2,0.4,0.2,0.6,0.1
			s0.2-0.4,0.1-0.6s-0.4-0.2-0.6-0.1S402.2,463.1,402.4,463.3z M356.1,451.9c0.2,0.1,0.5,0.1,0.6-0.1c0.1-0.2,0.1-0.5-0.1-0.6
			c-0.2-0.1-0.5-0.1-0.6,0.1C355.8,451.5,355.9,451.7,356.1,451.9L356.1,451.9z M361.8,442.6c0.2,0.1,0.5,0.1,0.6-0.1l0,0
			c0.1-0.2,0.1-0.5-0.1-0.6c-0.2-0.1-0.5-0.1-0.6,0.1l0,0C361.5,442.2,361.5,442.4,361.8,442.6L361.8,442.6z M385.6,477
			c0.1,0.2,0.3,0.4,0.6,0.3c0.2-0.1,0.4-0.3,0.3-0.5s-0.3-0.4-0.5-0.3l0,0C385.7,476.5,385.5,476.7,385.6,477L385.6,477L385.6,477z
			 M383,466.4c0.1,0.2,0.3,0.4,0.5,0.3l0,0c0.2-0.1,0.4-0.3,0.3-0.5l0,0c-0.1-0.2-0.3-0.4-0.5-0.3C383.1,465.9,383,466.1,383,466.4
			L383,466.4L383,466.4z M380.5,455.8c0.1,0.2,0.3,0.4,0.5,0.3l0,0c0.2-0.1,0.4-0.3,0.4-0.5c-0.1-0.2-0.3-0.4-0.5-0.4
			C380.6,455.3,380.4,455.5,380.5,455.8L380.5,455.8z M379,480.5c0.1,0.2,0.3,0.4,0.5,0.3s0.4-0.3,0.3-0.5c-0.1-0.2-0.3-0.4-0.5-0.3
			C379.1,480,379,480.2,379,480.5L379,480.5z M376.9,469.8c0.1,0.2,0.3,0.4,0.5,0.4c0.2-0.1,0.4-0.3,0.4-0.5
			c-0.1-0.2-0.3-0.4-0.5-0.4C377,469.3,376.9,469.6,376.9,469.8L376.9,469.8z M374.8,459.2c0.1,0.2,0.3,0.4,0.5,0.4
			c0.2,0,0.4-0.3,0.4-0.5c0-0.2-0.3-0.4-0.5-0.4l0,0C374.9,458.7,374.8,458.9,374.8,459.2z M372.7,448.6c0,0.2,0.3,0.4,0.5,0.4l0,0
			c0.2,0,0.4-0.3,0.4-0.5s-0.3-0.4-0.5-0.4C372.8,448.1,372.7,448.3,372.7,448.6C372.7,448.5,372.7,448.6,372.7,448.6z M358.6,463.8
			c0,0.2,0.1,0.5,0.4,0.5l0,0c0.2,0.1,0.5-0.1,0.5-0.3c0-0.2-0.1-0.5-0.4-0.5C358.9,463.4,358.7,463.5,358.6,463.8z M360.7,453.1
			c-0.1,0.2,0.1,0.5,0.3,0.5c0.2,0.1,0.5-0.1,0.5-0.3l0,0c0-0.2-0.1-0.5-0.4-0.5C361,452.7,360.8,452.9,360.7,453.1L360.7,453.1
			L360.7,453.1z M362.9,442.5c0,0.2,0.1,0.5,0.4,0.5c0.2,0,0.5-0.1,0.5-0.3c0-0.2-0.1-0.5-0.4-0.5
			C363.2,442.1,362.9,442.3,362.9,442.5z M397.3,467c0.1,0.2,0.4,0.3,0.6,0.1c0.2-0.1,0.3-0.4,0.1-0.6c-0.1-0.2-0.4-0.3-0.6-0.1l0,0
			C397.2,466.5,397.1,466.8,397.3,467C397.2,467,397.2,467,397.3,467L397.3,467z M391.3,458c0.1,0.2,0.4,0.3,0.6,0.1
			c0.2-0.1,0.3-0.4,0.1-0.6c-0.1-0.2-0.4-0.3-0.6-0.1l0,0C391.2,457.5,391.1,457.8,391.3,458C391.2,458,391.2,458,391.3,458
			L391.3,458z M379.2,461.7c0.1,0.2,0.3,0.2,0.4,0.2c0.2-0.1,0.2-0.3,0.2-0.4c-0.1-0.2-0.3-0.3-0.4-0.2l0,0
			C379.2,461.4,379.2,461.6,379.2,461.7L379.2,461.7z M376,454.2c0.1,0.2,0.3,0.3,0.4,0.2c0.2-0.1,0.3-0.3,0.2-0.4l0,0
			c-0.1-0.2-0.3-0.3-0.4-0.2l0,0C376,453.9,376,454.1,376,454.2L376,454.2z M372.8,446.7c0.1,0.2,0.3,0.2,0.4,0.2
			c0.2-0.1,0.2-0.3,0.2-0.4c-0.1-0.2-0.3-0.2-0.4-0.2l0,0C372.8,446.4,372.7,446.6,372.8,446.7L372.8,446.7z M361.9,460.9
			c0,0.2,0.2,0.3,0.3,0.3c0.2,0,0.3-0.2,0.3-0.3c0-0.2-0.2-0.3-0.3-0.3l0,0C362.1,460.6,361.9,460.7,361.9,460.9L361.9,460.9
			L361.9,460.9z M361.8,452.7c0,0.2,0.2,0.3,0.3,0.3c0.2,0,0.3-0.2,0.3-0.3l0,0c0-0.2-0.1-0.3-0.3-0.3l0,0
			C362,452.4,361.8,452.6,361.8,452.7L361.8,452.7L361.8,452.7z M361.7,444.6c0,0.2,0.1,0.3,0.3,0.3l0,0c0.2,0,0.3-0.1,0.3-0.3l0,0
			c0-0.2-0.2-0.3-0.3-0.3C361.9,444.2,361.7,444.4,361.7,444.6L361.7,444.6L361.7,444.6z M359.9,442.9c0,0.1,0.1,0.2,0.2,0.2
			s0.2-0.1,0.2-0.2s-0.1-0.2-0.2-0.2l0,0C359.9,442.7,359.9,442.8,359.9,442.9L359.9,442.9z M365.1,450.1c0.1,0.1,0.3,0.2,0.4,0.1
			l0,0c0.1-0.1,0.2-0.2,0.1-0.4l0,0c-0.1-0.1-0.2-0.2-0.4-0.1l0,0C365.1,449.8,365,450,365.1,450.1L365.1,450.1z M361.2,443.8
			c0.1,0.1,0.2,0.2,0.4,0.1l0,0c0.1-0.1,0.2-0.3,0.1-0.4l0,0c-0.1-0.1-0.3-0.2-0.4-0.1C361.1,443.5,361.1,443.7,361.2,443.8
			L361.2,443.8L361.2,443.8z M357.2,437.6c0.1,0.1,0.3,0.2,0.4,0.1c0.1-0.1,0.2-0.3,0.1-0.4l0,0c-0.1-0.1-0.3-0.2-0.4-0.1
			C357.2,437.3,357.2,437.5,357.2,437.6L357.2,437.6z"/>
		
			<linearGradient id="L_hand_1_" gradientUnits="userSpaceOnUse" x1="506.0636" y1="110.3226" x2="529.4597" y2="209.5213" gradientTransform="matrix(1 0 0 -1 0 469)">
			<stop  offset="0" style="stop-color:#FFBEB6"/>
			<stop  offset="1" style="stop-color:#F2A19C"/>
		</linearGradient>
		<path id="L_hand" class="st21" d="M540.7,285c-0.8-8.1-7.7-14.9-7.7-14.9s0,8.7,0.4,9.4c0.4,0.7-9,4.3-9,4.3s-2.9,16.9-6.5,19.3
			c-3.6,2.4-6.1-4.5-12.3-6.6c-6.2-2.2-8-0.2-4.1,2.4c3.9,2.6,17.6,14.5,16.1,26.4c-1.8,14.2-18.1,40.4-22.7,47.6
			c-1,0.7-1.5,1.4-1.5,1.7c0.3,1.6-8.8,18.7-9.8,22.9s15.7,32.7,15.7,32.7c6.6-4.9,11.8-14.9,15.9-25.9l0,0
			c13.6-37.1,13.6-77.1,18.7-88.6C539,304.2,541.5,293,540.7,285z"/>
		
			<linearGradient id="L_sleeve_1_" gradientUnits="userSpaceOnUse" x1="401.7136" y1="90.55" x2="493.589" y2="90.55" gradientTransform="matrix(1 0 0 -1 0 469)">
			<stop  offset="0" style="stop-color:#23286B"/>
			<stop  offset="1" style="stop-color:#151A4F"/>
		</linearGradient>
		<path id="L_sleeve" class="st22" d="M474.3,360.8L474.3,360.8c-3.8-9.6-3.6-10.6-4.1-15.4c-1.5-13.8,22.9-21,22.9-21L472.8,304
			c-48.4,13.1-62.3,41.4-67.7,57.5c-6.6,19.8-3.3,33.1,7.7,44.6c8.4,8.7,18.7,9.4,34.9,27.4c14.4,16,44.5,19.4,44.5,19.4l1.5-78.5
			C493.6,374.4,484.3,375.4,474.3,360.8z"/>
		
			<linearGradient id="R_hand_1_" gradientUnits="userSpaceOnUse" x1="550.9077" y1="62.0398" x2="455.9639" y2="-3.8797" gradientTransform="matrix(1 0 0 -1 0 469)">
			<stop  offset="0" style="stop-color:#FFBEB6"/>
			<stop  offset="0.6465" style="stop-color:#F7ABA5"/>
			<stop  offset="1" style="stop-color:#F2A19C"/>
		</linearGradient>
		<path id="R_hand_9_" class="st23" d="M597.3,402c-0.5,2.6-2.9,12.6-8.8,16.4c-6.8,4.4-24.1,6.1-36.7,6.8
			c-12.6,0.7-51.6,28.1-64.9,29.2l-0.5-40.2c0,0,39.2,4.4,54.9-1.4c11.3-4.2,15.7-21.7,16.1-26.4c0.5-4.7,3-4,4,2.6
			c0.9,6.5-4,11.9-0.2,14c3.7,2.1,20.2-3.1,20.2-3.1l0.2,0.1l7.7,6L597.3,402z"/>
		
			<linearGradient id="sweater_1_" gradientUnits="userSpaceOnUse" x1="412.3655" y1="124.6711" x2="431.8087" y2="5.2898" gradientTransform="matrix(1 0 0 -1 0 469)">
			<stop  offset="0" style="stop-color:#23286B"/>
			<stop  offset="1" style="stop-color:#151A4F"/>
		</linearGradient>
		<path id="sweater_7_" class="st24" d="M493.1,324.4L472.8,304l0,0c-13.5,1.7-26.6,5.8-38.7,12.1c-6.7,3.5-13,7.5-19.1,11.9
			c-27.8,20.4-27.9,32.4-43.5,44.7l-0.1,0.1c-15.6,12.3-36.1,26.9-29.2,55.4c6.9,4.1,13.6,7.7,19.9,10.9
			c20.7,10.5,38.2,16.6,52.7,19.7l0,0c8.7,2,17.6,3,26.5,3c7.1,0,14.1-1,20.8-3c2.6-0.8,5.2-1.8,7.7-3.1c7-1,13.8-2.6,20.5-4.8
			C454.6,398.2,493.1,324.4,493.1,324.4z"/>
		<path id="R_sleeve_1_" class="st25" d="M493.1,324.4c0,0-43.4,27.3-33.5,65.3c2.9,11.1,10.1,16.7,23.2,20.8
			c15.7,5,19.8,4.8,19.8,4.8l-4.3,71.1c0,0-33,0.6-47.4-15.4c-16.2-18-29.3-20.2-39.1-27.2c-15-10.6-18.8-28.6-17.9-49.4
			c1.8-39.2,30.4-77.4,78.8-90.5l0,0"/>
		
			<linearGradient id="neck_1_" gradientUnits="userSpaceOnUse" x1="471.0223" y1="138.4411" x2="489.9211" y2="164.3025" gradientTransform="matrix(1 0 0 -1 0 469)">
			<stop  offset="0" style="stop-color:#FFBEB6"/>
			<stop  offset="1" style="stop-color:#F2A19C"/>
		</linearGradient>
		<path id="neck_6_" class="st26" d="M511.3,295.3c0,0-8.7,10-18.1,29c0,0-16.7,3.9-20.3-20.4c0,0,17.6-8,18.1-16.5L511.3,295.3z"/>
		<path id="face_7_" class="st27" d="M534.8,270.7c0,0.2,0,0.3,0,0.3s0,0,0,0.1c0,0.6,0,1.3,0,2c-0.4,7.2,3.8,13.7,3.4,15.6
			c-0.4,1.9-4.4,2.6-6.3,2.4c-1.9-0.2-5.7,8.5-14.1,12.4c-7.8,3.7-18.2,1.2-24.4-3.9c0-15.7,2.4-26.3,18.3-30.4
			c17.3-4.5,19.7-11.3,19.7-11.3C533.6,261.9,534.7,266.3,534.8,270.7z"/>
		
			<linearGradient id="hair_1_" gradientUnits="userSpaceOnUse" x1="476.6317" y1="264.9715" x2="495.7856" y2="224.3766" gradientTransform="matrix(1 0 0 -1 2.609461e-05 469)">
			<stop  offset="0" style="stop-color:#E94A47"/>
			<stop  offset="0.9918" style="stop-color:#D62929"/>
		</linearGradient>
		<ellipse id="hair" class="st28" cx="485.3" cy="222.4" rx="15.4" ry="15.4"/>
		<path id="eyeglasses_3_" class="st25" d="M545.4,278.6c1.5-4,0.5-8.4-2.1-9.8l0,0c-2.6-1.4-6,0.7-7.5,4.7
			c-0.2,0.5-0.3,0.9-0.4,1.4c-1.7-0.5-3.5,0.4-5,1.5c0-0.2,0-0.5-0.1-0.7c-0.3-1.9-1.4-3.6-3-4.6c-3.1-1.6-6.9,0.8-8.6,5.5
			c-0.8,2.2-1,4.5-0.6,6.8c0.3,1.5,1,2.9,2.1,4c0.3,0.2,0.6,0.5,0.9,0.6c1.6,0.8,3.5,0.6,4.9-0.4c1.8-1.2,3.1-3,3.8-5.1
			c0.6-1.5,0.8-3.2,0.8-4.8c1.4-1,3.1-2.1,4.7-1.6c-0.3,2.8,0.4,5.4,2,6.7c0.2,0.2,0.5,0.4,0.8,0.5
			C540.6,284.7,544,282.6,545.4,278.6z M525.5,286.4c-1.2,0.9-2.7,1-4,0.4c-1.4-0.9-2.3-2.3-2.5-3.9c-0.4-2-0.2-4.1,0.5-6
			c1.5-4.1,4.8-6.2,7.4-4.9c0.3,0.1,0.5,0.3,0.7,0.5c0.9,0.9,1.6,2.1,1.8,3.3c0.4,2,0.2,4.1-0.5,6
			C528.2,283.7,527.1,285.3,525.5,286.4z M538.4,282.2c-2.2-1.2-2.9-4.9-1.7-8.3c1.3-3.4,4-5.3,6.2-4.1c2.2,1.2,2.9,4.9,1.7,8.3
			C543.3,281.5,540.5,283.4,538.4,282.2z"/>
		
			<linearGradient id="_1_1_" gradientUnits="userSpaceOnUse" x1="604.2634" y1="88.1208" x2="631.4945" y2="106.9733" gradientTransform="matrix(1 0 0 -1 0 469)">
			<stop  offset="0" style="stop-color:#A1C3FC"/>
			<stop  offset="0.6955" style="stop-color:#81AEF2"/>
			<stop  offset="1" style="stop-color:#78A9EF"/>
		</linearGradient>
		<polygon id="_1" class="st29" points="563.1,385.6 636.7,382.2 589.2,406 		"/>
		<path id="hair-2" class="st30" d="M503.5,234.2c-9.4-1.9-16.7-0.3-22.2,2.9c-6.5-0.4-11.7-5.3-12.6-11.7c-0.1-0.6-1.1-0.4-1,0.3
			c0.9,6.4,5.9,11.4,12.2,12.3c-3.6,2.4-6.4,5.7-8.4,9.6c-0.4,0.6-0.8,1.2-1.2,1.8c-3.7,5.6-7.3,9.8-13.4,12.9
			c-8.1,4.1-18.6,7.9-18.6,18.6c0,0.3,0.2,0.5,0.5,0.5c0.3,0,0.5-0.2,0.5-0.5c0.1-13.1,15.8-14.9,24-21.3c2.1-1.8,4-3.9,5.5-6.2
			c-2.4,4.7-6.1,10.4-12.4,12.6c-11.9,4.2-14,18.3-14,18.3c20.7,19.7,57.9,20.7,57.9,20.7c7.8-17-1.6-25.1,12.7-31.8
			c16.2-7.6,18.4-15.2,18.4-15.2c2.1,4.1,3.2,8.6,3.3,13.2C541.8,247.9,521,237.8,503.5,234.2z"/>
	</g>
</g>
</svg>
