<svg xmlns="http://www.w3.org/2000/svg" width="195.782" height="103.284" viewBox="0 0 195.782 103.284">
  <g id="logo" transform="translate(-267.835 -218.271)">
    <g id="그룹_76" data-name="그룹 76" transform="translate(267.835 218.27)">
      <rect id="사각형_9" data-name="사각형 9" width="1.267" height="6.056" transform="translate(65.591 10.329)" fill="#0092d9" stroke="#0092d9" stroke-miterlimit="10" stroke-width="0.789"/>
      <rect id="사각형_10" data-name="사각형 10" width="6.056" height="1.267" transform="translate(63.198 12.724)" fill="#0092d9" stroke="#0092d9" stroke-miterlimit="10" stroke-width="1.251"/>
      <path id="패스_10" data-name="패스 10" d="M352.36,232.046c-2.744.04-6.034,9.318-15.417,6.377s-26.429-13.69-33.467-17.04-24.241-7.815-32.283,9.613-.052,51.822,7.434,64.813c7.059,12.251,17.763,25.082,23.461,22.594,0,0,2.345-.81-1.341-4.163s-20.78-21.895-20.78-53.176,18.433-24.725,24.8-22.642,24.529,12.794,32.655,12.958c5.875.119,11.919-1.152,16.612-10.2C354.035,241.178,358.056,231.963,352.36,232.046Z" transform="translate(-267.835 -218.27)" fill="#0092d9"/>
      <path id="패스_11" data-name="패스 11" d="M341.187,281.509c1.414.021,3.113,4.809,7.955,3.291s13.142-7.281,16.773-9.011,13.871-7.578,20.1,1.548c5.56,8.148,3.313,16.274-1.137,24.522-1.912,3.544-8.447,11.276-11.387,9.991,0,0-.914-.139.692-2.146,2.5-3.133,4.506-6.369,6-13.366,3.191-14.992-8.205-13.226-14.434-10.557-3.178,1.361-12,5.576-16.082,5.628-3.875.051-6.749-.278-9.338-5.188C340.323,286.222,338.248,281.466,341.187,281.509Z" transform="translate(-294.831 -238.611)" fill="#005da2"/>
      <g id="그룹_5" data-name="그룹 5" transform="translate(72.178 23.45)">
        <rect id="사각형_11" data-name="사각형 11" width="1.255" height="5.995" transform="translate(2.368 0)" fill="#fff" stroke="#fff" stroke-miterlimit="10" stroke-width="0.789"/>
        <rect id="사각형_12" data-name="사각형 12" width="5.993" height="1.256" transform="translate(0 2.369)" fill="#fff" stroke="#fff" stroke-miterlimit="10" stroke-width="0.789"/>
      </g>
      <rect id="사각형_13" data-name="사각형 13" width="2.491" height="11.903" transform="translate(76.883 3.111)" fill="#0092d9" stroke="#0092d9" stroke-miterlimit="10" stroke-width="1.251"/>
      <rect id="사각형_14" data-name="사각형 14" width="11.902" height="2.491" transform="translate(72.178 7.817)" fill="#0092d9" stroke="#0092d9" stroke-miterlimit="10" stroke-width="1.251"/>
      <g id="그룹_6" data-name="그룹 6" transform="translate(37.575 61.11)">
        <path id="패스_12" data-name="패스 12" d="M364.039,337.308c0,11.934-7.531,21.088-24.042,21.088a74.972,74.972,0,0,1-11.934-1.1V317.321a74.968,74.968,0,0,1,11.934-1.1C356.508,316.221,364.039,325.375,364.039,337.308Zm-8.632,0c0-8.226-3.824-14.367-14.89-14.367-1.158,0-2.606.057-4.112.175V351.5c1.506.115,2.954.174,4.112.174C351.583,351.676,355.407,345.477,355.407,337.308Z" transform="translate(-328.062 -316.221)" fill="#001976"/>
        <path id="패스_13" data-name="패스 13" d="M412.136,357.33l3.128,5.213a16.542,16.542,0,0,1-10.254,3.186c-9.732,0-15.294-5.967-15.294-15s5.619-15.005,14.947-15.005c6.952,0,11.3,3.476,11.3,10.08a14.056,14.056,0,0,1-1.333,6.025L398,353.738c.927,3.244,3.534,5.561,7.763,5.561A11.651,11.651,0,0,0,412.136,357.33Zm-14.368-8.69,10.486-1.216a6.127,6.127,0,0,0,.464-2.144c0-2.2-1.68-3.3-4-3.3C400.781,341.978,398.406,344.932,397.769,348.64Z" transform="translate(-351.25 -323.555)" fill="#0057aa"/>
        <path id="패스_14" data-name="패스 14" d="M467.175,347.365V364.92H459.3V349.508c0-3.822-1.1-6.951-4.75-6.951-7.474,0-8.111,12.919-8.111,22.363h-7.879V336.533h7.879l-.7,7.821c1.97-5.1,5.388-8.632,11.181-8.632C463.641,335.721,467.175,340.472,467.175,347.365Z" transform="translate(-369.62 -323.555)" fill="#0057aa"/>
        <path id="패스_15" data-name="패스 15" d="M488.787,336.5h8.227l5.272,21.839c5.155-1.563,7.531-6.314,7.531-11.413a20.644,20.644,0,0,0-2.26-9.152l7.474-2.145a24.428,24.428,0,0,1,2.9,11.3c0,9.85-7.415,16.8-16.858,17.961h-5.387Z" transform="translate(-388.512 -323.52)" fill="#001976"/>
        <path id="패스_16" data-name="패스 16" d="M562,357.33l3.128,5.213a16.543,16.543,0,0,1-10.254,3.186c-9.733,0-15.295-5.967-15.295-15s5.619-15.005,14.947-15.005c6.953,0,11.3,3.476,11.3,10.08a14.067,14.067,0,0,1-1.333,6.025l-16.627,1.912c.927,3.244,3.534,5.561,7.764,5.561A11.648,11.648,0,0,0,562,357.33Zm-14.367-8.69,10.486-1.216a6.126,6.126,0,0,0,.464-2.144c0-2.2-1.679-3.3-4-3.3C550.643,341.978,548.268,344.932,547.63,348.64Z" transform="translate(-407.615 -323.555)" fill="#0057aa"/>
      </g>
    </g>
  </g>
</svg>
