<?xml version="1.0" encoding="utf-8"?>
<!-- Generator: Adobe Illustrator 23.0.0, SVG Export Plug-In . SVG Version: 6.00 Build 0)  -->
<svg version="1.1" id="레이어_1" xmlns="http://www.w3.org/2000/svg" xmlns:xlink="http://www.w3.org/1999/xlink" x="0px"
	 y="0px" width="1920px" height="950px" viewBox="0 0 1920 950" style="enable-background:new 0 0 1920 950;" xml:space="preserve">
<style type="text/css">
	.st0{fill:#E2D7DA;}
	.st1{fill:url(#square_3_2_);}
	.st2{fill:url(#square_2_2_);}
	.st3{fill:url(#square_1_2_);}
	.st4{fill:url(#R_shoe_1_);}
	.st5{fill:#28306D;}
	.st6{fill:url(#R_trousers_1_);}
	.st7{fill:url(#L_trousers_1_);}
	.st8{fill:#FFFFFF;}
	.st9{fill:url(#R_hand_1_);}
	.st10{fill:url(#star_2_);}
	.st11{fill:#FFCFCA;}
	.st12{fill:url(#sweater-2_1_);}
	.st13{fill:url(#R_sleeve_1_);}
	.st14{fill:url(#neck_1_);}
	.st15{fill:#23286B;}
	.st16{fill:#1C2868;}
	.st17{fill:url(#R_shoe-2_1_);}
	.st18{fill:#F1B505;}
	.st19{fill:url(#R_trousers-2_2_);}
	.st20{fill:url(#R_hand-2_2_);}
	.st21{opacity:0.51;fill:#FFFFFF;enable-background:new    ;}
	.st22{fill:url(#square_1_);}
	.st23{fill:url(#hair-2_1_);}
	.st24{fill:url(#R_sleeve-2_1_);}
	.st25{fill:url(#sweater-4_2_);}
	.st26{fill:#3E8AF8;}
	.st27{fill:url(#neck-2_1_);}
</style>
<g>
	<ellipse class="st0" cx="612.8" cy="843.6" rx="145.2" ry="22.5"/>
	<ellipse class="st0" cx="257.4" cy="839.6" rx="145.2" ry="22.5"/>
	<g id="illustration_1_">
		<g id="geometry_3_">
			
				<linearGradient id="square_3_2_" gradientUnits="userSpaceOnUse" x1="314.2311" y1="53.1076" x2="328.23" y2="-155.6051" gradientTransform="matrix(-1 0 0 -1 1205 722)">
				<stop  offset="0" style="stop-color:#A1C3FC"/>
				<stop  offset="0.6955" style="stop-color:#81AEF2"/>
				<stop  offset="1" style="stop-color:#78A9EF"/>
			</linearGradient>
			<rect id="square_3_1_" x="837.4" y="638.8" class="st1" width="103.9" height="103.9"/>
			
				<linearGradient id="square_2_2_" gradientUnits="userSpaceOnUse" x1="407.9812" y1="-74.5826" x2="252.7152" y2="-69.492" gradientTransform="matrix(-1 0 0 -1 1205 722)">
				<stop  offset="0" style="stop-color:#A1C3FC"/>
				<stop  offset="0.6955" style="stop-color:#81AEF2"/>
				<stop  offset="1" style="stop-color:#78A9EF"/>
			</linearGradient>
			<rect id="square_2_1_" x="806.2" y="742.6" class="st2" width="103.9" height="103.9"/>
			
				<linearGradient id="square_1_2_" gradientUnits="userSpaceOnUse" x1="235.6317" y1="16.5253" x2="187.2716" y2="-220.1848" gradientTransform="matrix(-1 0 0 -1 1205 722)">
				<stop  offset="0" style="stop-color:#A1C3FC"/>
				<stop  offset="0.6955" style="stop-color:#81AEF2"/>
				<stop  offset="1" style="stop-color:#78A9EF"/>
			</linearGradient>
			<polygon id="square_1_1_" class="st3" points="1056.4,766.6 976.5,700.2 910.1,780.1 990,846.5 			"/>
		</g>
		<g id="R_woman_1_">
			<g id="shoes_1_">
				
					<linearGradient id="R_shoe_1_" gradientUnits="userSpaceOnUse" x1="832" y1="-98.7429" x2="941.21" y2="-98.7429" gradientTransform="matrix(-1 0 0 -1 1205 722)">
					<stop  offset="0" style="stop-color:#28306D"/>
					<stop  offset="0.51" style="stop-color:#1F275F"/>
					<stop  offset="1" style="stop-color:#171F51"/>
				</linearGradient>
				<path id="R_shoe_4_" class="st4" d="M279.3,799.2h33.4c0,0,17.4,16.4,36.1,24.4c18.7,8,24.3,18.8,24.3,18.8H263.8L279.3,799.2"
					/>
				<path id="L_shoe_4_" class="st5" d="M208.6,799.2h35.5c0,0,15.3,16.3,34,24.3c18.7,8,24.3,18.8,24.3,18.8H193.1L208.6,799.2"/>
			</g>
			<g id="trousers_1_">
				
					<linearGradient id="R_trousers_1_" gradientUnits="userSpaceOnUse" x1="837.847" y1="21.8361" x2="1011.6181" y2="94.504" gradientTransform="matrix(-1 0 0 -1 1205 722)">
					<stop  offset="0" style="stop-color:#A1C3FC"/>
					<stop  offset="0.6955" style="stop-color:#81AEF2"/>
					<stop  offset="1" style="stop-color:#78A9EF"/>
				</linearGradient>
				<path id="R_trousers_4_" class="st6" d="M237.5,546.7c11.9,52.1,9.9,44.2,16,90c4.9,36.3,2.1,21,4,59.4
					c1.8,38.4-2.9,78.8,21.8,103l33.4,0c0,0-1-99.3-1.6-132.3c-0.5-28.7-3.4-62.3-5.6-83.4c-0.1-1.2-0.3-2.4-0.5-3.6
					c-2.6-15-3.4-20.1-4.6-28.8c-0.1-0.9-0.3-1.7-0.4-2.5c-9.6-1.1-22.2-4.4-30.6-13.5c-13.8-15-19.9-19.8-28.9-23.4
					c-0.9-0.3-1.7-0.7-2.7-1c-1.7-0.6-3.3-1.3-4.8-2.2C232.8,518.3,233.9,530.9,237.5,546.7z"/>
				
					<linearGradient id="L_trousers_1_" gradientUnits="userSpaceOnUse" x1="943.8085" y1="104.768" x2="918.7983" y2="316.313" gradientTransform="matrix(-1 0 0 -1 1205 722)">
					<stop  offset="0" style="stop-color:#A1C3FC"/>
					<stop  offset="0.6955" style="stop-color:#81AEF2"/>
					<stop  offset="1" style="stop-color:#78A9EF"/>
				</linearGradient>
				<path id="L_trousers_4_" class="st7" d="M208.6,799.2h35.5c0,0,60.1-130.5,62.9-157c2.7-26.5,0.5-58.2-3.3-84.2
					c-0.5-3.2-1-6.3-1.5-9.3c-9.8-0.9-23.8-3.9-32.8-13.8c-13.8-15-19.9-19.8-28.9-23.4c-5.5,0-10.7-0.3-15.4-0.8
					c0.1,13.2,2.7,30.7,10.8,53.3c21.7,60.7,5.4,69.4-1.6,87.8c-7.1,18.3-10.8,29.6-9.2,46.9c1.6,17.3-6.5,12.8-10.9,35.2
					C209.8,756.4,208.6,799.2,208.6,799.2z"/>
				<path id="texture_4_" class="st8" d="M244.4,524.6L244.4,524.6c0,0.1,0.1,0.2,0.2,0.1c0,0,0,0,0,0c0.1,0,0.1-0.1,0.1-0.2l0,0
					c0-0.1-0.1-0.1-0.2-0.1C244.4,524.4,244.3,524.5,244.4,524.6z M248.6,522.8c-0.1,0-0.1,0.1-0.1,0.2c0,0.1,0.1,0.2,0.2,0.1
					c0.1,0,0.1-0.1,0.1-0.2C248.8,522.8,248.7,522.8,248.6,522.8L248.6,522.8z M252.8,521.3C252.8,521.3,252.8,521.3,252.8,521.3
					c-0.1,0-0.1,0.2-0.1,0.2v0c0,0.1,0.1,0.1,0.2,0.1l0,0c0.1,0,0.1-0.1,0.1-0.2C253,521.3,252.9,521.2,252.8,521.3L252.8,521.3z
					 M256.9,519.7c-0.1,0-0.1,0.1-0.1,0.2c0,0.1,0.1,0.1,0.2,0.1c0.1,0,0.1-0.1,0.1-0.2C257.1,519.7,257,519.7,256.9,519.7
					L256.9,519.7z M261.1,518.1L261.1,518.1c-0.1,0-0.1,0.1-0.1,0.2c0,0.1,0.1,0.1,0.2,0.1s0.1-0.1,0.1-0.2
					C261.3,518.1,261.2,518.1,261.1,518.1L261.1,518.1z M257.1,538.1L257.1,538.1c0,0.1,0,0.2,0.1,0.2l0,0c0.1,0,0.2,0,0.2-0.1
					c0-0.1,0-0.2-0.1-0.2C257.3,538,257.2,538,257.1,538.1L257.1,538.1z M259,534.1L259,534.1c0,0.1,0,0.2,0.1,0.2
					c0.1,0,0.2,0,0.3-0.1c0-0.1,0-0.2-0.1-0.2c0,0,0,0,0,0C259.1,533.9,259,534,259,534.1L259,534.1z M260.8,530
					c0,0.1,0,0.2,0.1,0.2l0,0c0.1,0,0.2,0,0.2-0.1c0-0.1,0-0.2-0.1-0.3C260.9,529.9,260.8,529.9,260.8,530L260.8,530z M262.6,526
					c0,0.1,0,0.2,0.1,0.3l0,0c0.1,0,0.2,0,0.2-0.1c0-0.1,0-0.2-0.1-0.3l0,0C262.8,525.8,262.7,525.9,262.6,526L262.6,526z
					 M275.8,538.9c0,0.1,0.1,0.1,0.2,0.1c0,0,0,0,0,0c0.1,0,0.1-0.1,0.1-0.2c0-0.1-0.1-0.1-0.2-0.1
					C275.8,538.6,275.8,538.8,275.8,538.9z M245.3,514.7c-0.1,0-0.2,0.1-0.2,0.2c0,0.1,0.1,0.2,0.2,0.2l0,0c0.1,0,0.2-0.1,0.2-0.2
					C245.5,514.8,245.4,514.8,245.3,514.7L245.3,514.7z M249.6,515C249.6,515,249.6,515,249.6,515c0,0.1,0,0.1,0,0.2
					c0,0.1,0.1,0.1,0.2,0.1l0,0c0.1,0,0.2-0.1,0.2-0.2v0c0-0.1-0.1-0.2-0.2-0.2C249.7,514.9,249.6,514.9,249.6,515L249.6,515z
					 M254.2,515c-0.1,0-0.2,0.1-0.2,0.2l0,0c0,0.1,0.1,0.2,0.2,0.2c0,0,0,0,0,0c0.1,0,0.2-0.1,0.2-0.2
					C254.4,515.1,254.3,515,254.2,515L254.2,515z M251.1,530.7C251,530.7,251,530.7,251.1,530.7c-0.1,0.1-0.1,0.2,0,0.3
					c0.1,0.1,0.2,0.1,0.3,0s0.1-0.2,0-0.3C251.3,530.7,251.1,530.7,251.1,530.7L251.1,530.7z M254.3,527.7
					C254.3,527.7,254.3,527.7,254.3,527.7c-0.1,0.1-0.1,0.2,0,0.3c0.1,0.1,0.1,0.1,0.2,0h0c0,0,0,0,0,0c0,0,0.1-0.1,0.1-0.2
					c0,0,0-0.1-0.1-0.1C254.5,527.6,254.4,527.6,254.3,527.7L254.3,527.7z M257.5,524.7c-0.1,0.1-0.1,0.2,0,0.3
					c0.1,0.1,0.2,0.1,0.3,0l0,0c0.1-0.1,0.1-0.2,0-0.3C257.7,524.6,257.6,524.6,257.5,524.7L257.5,524.7z M260.8,521.6
					c-0.1,0.1-0.1,0.2,0,0.3l0,0c0.1,0.1,0.2,0.1,0.2,0c0,0,0,0,0,0c0.1-0.1,0.1-0.2,0-0.3C261,521.6,260.8,521.6,260.8,521.6
					L260.8,521.6z M266.4,538c0,0.1,0.1,0.2,0.2,0.2l0,0c0.1,0,0.2-0.1,0.2-0.2c0-0.1-0.1-0.2-0.2-0.2
					C266.5,537.8,266.4,537.9,266.4,538z M266.7,533.4c-0.1,0-0.2,0.1-0.2,0.2l0,0c0,0.1,0.1,0.2,0.2,0.2c0,0,0,0,0,0
					c0.1,0,0.2-0.1,0.2-0.2C266.9,533.5,266.8,533.4,266.7,533.4L266.7,533.4z M224.8,511.1C224.8,511.1,224.9,511.1,224.8,511.1
					C224.9,511.1,224.9,511.1,224.8,511.1c0.3,0,0.4-0.1,0.4-0.3c0-0.2-0.1-0.4-0.3-0.4c0,0-0.1,0-0.1,0
					C224.8,510.7,224.8,510.9,224.8,511.1z M233.3,511.3c-0.2,0-0.4,0.1-0.4,0.3c0,0,0,0.1,0,0.2c0,0.1,0.2,0.2,0.3,0.2l0,0
					c0.2,0,0.4-0.1,0.4-0.3l0,0C233.7,511.5,233.5,511.3,233.3,511.3L233.3,511.3z M241.7,512.1
					C241.7,512.1,241.7,512.1,241.7,512.1c-0.2,0-0.4,0.1-0.4,0.3c0,0.2,0.1,0.4,0.3,0.4l0,0c0.2,0,0.4-0.1,0.4-0.3
					C242,512.3,241.9,512.1,241.7,512.1L241.7,512.1z M233.1,538.3L233.1,538.3c-0.1,0.1-0.2,0.3,0,0.5c0,0,0,0,0,0
					c0.1,0.1,0.3,0.2,0.5,0l0,0c0.1-0.1,0.2-0.3,0-0.5c0,0,0,0,0,0C233.4,538.2,233.2,538.1,233.1,538.3L233.1,538.3z M239.6,532.9
					c-0.2,0.1-0.2,0.3-0.1,0.5l0,0c0.1,0.1,0.3,0.2,0.5,0c0.1-0.1,0.2-0.4,0-0.5l0,0C239.9,532.8,239.7,532.8,239.6,532.9
					L239.6,532.9z M246.1,527.6C246.1,527.6,246.1,527.6,246.1,527.6c-0.1,0.1-0.2,0.3-0.1,0.5c0.1,0.2,0.3,0.2,0.5,0
					c0.1-0.1,0.2-0.3,0-0.5S246.2,527.5,246.1,527.6L246.1,527.6z M252.6,522.3c-0.1,0.1-0.2,0.3-0.1,0.4c0.1,0.2,0.3,0.3,0.4,0.2
					c0,0,0.1,0,0.1,0c0,0,0.1-0.1,0.1-0.2h0c0-0.1,0-0.2-0.1-0.3c0,0,0,0,0,0C253,522.2,252.7,522.2,252.6,522.3L252.6,522.3z
					 M259.1,517c-0.1,0.1-0.1,0.3,0,0.5l0,0c0.1,0.2,0.3,0.2,0.5,0.1s0.2-0.3,0.1-0.5c0,0,0,0,0,0
					C259.5,516.8,259.3,516.8,259.1,517C259.1,517,259.1,517,259.1,517z M258,560.2L258,560.2c-0.2,0-0.4,0.1-0.4,0.3
					c0,0.2,0.1,0.4,0.3,0.4c0,0,0,0,0,0c0.2,0,0.4-0.1,0.4-0.3C258.3,560.4,258.2,560.3,258,560.2L258,560.2z M258.5,552.2
					c0,0.2,0.1,0.4,0.3,0.4c0.2,0,0.4-0.1,0.4-0.3l0,0c0-0.2-0.1-0.4-0.3-0.4C258.7,551.9,258.5,552,258.5,552.2z M259.7,543.5
					c-0.2,0-0.4,0.1-0.4,0.3v0c0,0.2,0.1,0.4,0.3,0.4c0,0,0,0,0,0c0.2,0,0.4-0.1,0.4-0.3C260,543.7,259.9,543.5,259.7,543.5
					L259.7,543.5z M260.5,535.1c-0.2,0-0.4,0.1-0.4,0.3c0,0.2,0.1,0.4,0.3,0.4c0.2,0,0.4-0.1,0.4-0.3l0,0
					C260.9,535.3,260.7,535.1,260.5,535.1L260.5,535.1z M261.4,526.8c-0.2,0-0.4,0.1-0.4,0.3c0,0,0,0,0,0c0,0.2,0.1,0.4,0.3,0.4
					c0.2,0,0.4-0.1,0.4-0.3C261.7,527,261.6,526.8,261.4,526.8L261.4,526.8z M229.8,523.7c-0.2,0.1-0.3,0.3-0.2,0.4
					c0.1,0.2,0.3,0.3,0.4,0.2c0.2-0.1,0.3-0.3,0.2-0.4C230.2,523.8,230,523.7,229.8,523.7L229.8,523.7z M237.9,521.3
					C237.9,521.3,237.9,521.3,237.9,521.3c-0.2,0.1-0.3,0.3-0.2,0.4c0,0,0,0,0,0c0.1,0.2,0.3,0.3,0.4,0.2c0.2-0.1,0.3-0.3,0.2-0.4
					c0,0,0,0,0,0C238.3,521.3,238.1,521.2,237.9,521.3L237.9,521.3z M245.7,519.3C245.7,519.3,245.7,519.3,245.7,519.3
					c0.1,0.2,0.3,0.3,0.4,0.2l0,0c0.2,0,0.3-0.3,0.2-0.4c0,0,0,0,0,0c-0.1-0.2-0.3-0.3-0.4-0.2C245.8,518.9,245.7,519.1,245.7,519.3
					z M253.8,516.9c0.1,0.2,0.2,0.3,0.4,0.2c0.2,0,0.3-0.2,0.2-0.4s-0.2-0.3-0.4-0.2C253.8,516.5,253.7,516.7,253.8,516.9z
					 M241.9,551.9L241.9,551.9c0.2,0.1,0.4,0,0.5-0.2c0.1-0.2,0-0.4-0.2-0.5c-0.2-0.1-0.4,0-0.5,0.2
					C241.7,551.6,241.7,551.8,241.9,551.9z M245.7,544c-0.1,0.2,0,0.4,0.1,0.5c0,0,0,0,0,0c0.2,0.1,0.4,0,0.5-0.2s0-0.4-0.2-0.5
					C246,543.7,245.8,543.8,245.7,544L245.7,544z M249.7,536.6c-0.1,0.2,0,0.4,0.1,0.5c0.2,0.1,0.4,0,0.5-0.1c0.1-0.2,0-0.4-0.1-0.5
					C250,536.3,249.8,536.4,249.7,536.6L249.7,536.6z M253.7,529.2C253.7,529.2,253.7,529.2,253.7,529.2c-0.1,0.2,0,0.4,0.1,0.5h0
					c0.2,0.1,0.4,0,0.5-0.1c0,0,0,0,0,0c0.1-0.2,0-0.4-0.2-0.5C254,528.9,253.8,529,253.7,529.2L253.7,529.2z M257.7,521.7
					C257.7,521.7,257.7,521.7,257.7,521.7c-0.1,0.2,0,0.4,0.1,0.5c0.2,0.1,0.4,0,0.5-0.1c0.1-0.2,0-0.4-0.1-0.5
					C258,521.5,257.8,521.6,257.7,521.7L257.7,521.7z M273.7,555.1c0.1,0.2,0.3,0.3,0.4,0.2l0,0c0.2,0,0.3-0.3,0.2-0.4c0,0,0,0,0,0
					c-0.1-0.2-0.2-0.3-0.4-0.2C273.8,554.7,273.7,554.9,273.7,555.1z M271.5,546.6c-0.2,0-0.3,0.3-0.2,0.4c0.1,0.2,0.3,0.3,0.4,0.2
					c0.2-0.1,0.3-0.3,0.2-0.4c0,0,0,0,0,0C271.9,546.7,271.7,546.6,271.5,546.6L271.5,546.6z M269.1,538.6c-0.2,0.1-0.3,0.3-0.2,0.4
					c0,0,0,0,0,0c0.1,0.2,0.3,0.3,0.4,0.2c0,0,0,0,0,0c0.2-0.1,0.3-0.3,0.2-0.4C269.5,538.6,269.3,538.5,269.1,538.6L269.1,538.6z
					 M266.4,531c0.1,0.2,0.3,0.3,0.4,0.2c0,0,0,0,0,0c0.2-0.1,0.3-0.3,0.2-0.4c0-0.2-0.2-0.3-0.4-0.2
					C266.5,530.6,266.4,530.8,266.4,531z M224.9,520c0.1-0.1,0.1-0.1,0.1-0.2c0,0,0-0.1-0.1-0.1C224.9,519.7,224.9,519.8,224.9,520z
					 M232,518c-0.2,0-0.3,0.2-0.2,0.4c0,0.2,0.2,0.3,0.4,0.2c0.2,0,0.3-0.2,0.2-0.4C232.3,518.1,232.1,518,232,518L232,518z
					 M239.3,516.5L239.3,516.5c-0.2,0-0.3,0.2-0.2,0.4c0,0,0,0,0,0c0,0.2,0.2,0.3,0.4,0.2c0.2,0,0.3-0.2,0.2-0.4
					C239.7,516.6,239.5,516.5,239.3,516.5L239.3,516.5z M246.7,515.1c-0.2,0-0.3,0.2-0.2,0.4c0,0.2,0.2,0.3,0.4,0.2
					c0.2,0,0.3-0.2,0.3-0.4c0,0-0.1-0.1-0.1-0.1C246.9,515.1,246.8,515,246.7,515.1L246.7,515.1z M234.7,547.8
					c0.1,0.1,0.3,0.1,0.4-0.1l0,0c0.1-0.1,0.1-0.3-0.1-0.4c-0.1-0.1-0.3-0.1-0.4,0.1C234.6,547.5,234.6,547.7,234.7,547.8z
					 M238.8,541.1L238.8,541.1c-0.1,0.2-0.1,0.3,0.1,0.4l0,0c0.1,0.1,0.3,0.1,0.4-0.1c0.1-0.1,0.1-0.3-0.1-0.4
					C239.1,540.9,238.9,540.9,238.8,541.1L238.8,541.1z M243,534.8c-0.1,0.1-0.1,0.2,0,0.3c0,0.1,0.1,0.1,0.1,0.2
					c0.1,0.1,0.3,0,0.4-0.1l0,0c0.1-0.1,0.1-0.3-0.1-0.4c-0.1-0.1-0.2-0.1-0.3,0h0C243.1,534.7,243,534.8,243,534.8L243,534.8z
					 M247.1,528.6c-0.1,0.2-0.1,0.3,0.1,0.4c0.1,0.1,0.3,0,0.4-0.1c0.1-0.1,0-0.3-0.1-0.4C247.4,528.4,247.3,528.4,247.1,528.6
					L247.1,528.6z M251.3,522.3c-0.1,0.1,0,0.3,0.1,0.4c0.1,0.1,0.3,0,0.4-0.1c0.1-0.1,0.1-0.3-0.1-0.4
					C251.6,522.2,251.4,522.2,251.3,522.3L251.3,522.3z M255.5,516.1c-0.1,0.1,0,0.3,0.1,0.4c0.1,0.1,0.3,0,0.4-0.1
					c0.1-0.1,0.1-0.3-0.1-0.4C255.8,515.9,255.6,516,255.5,516.1L255.5,516.1z M265.9,553.3c-0.2,0-0.3,0.2-0.3,0.4
					c0,0.2,0.2,0.3,0.4,0.3h0c0.2,0,0.3-0.2,0.2-0.4c0,0,0,0,0,0C266.2,553.4,266,553.3,265.9,553.3L265.9,553.3z M264.4,546
					c-0.2,0-0.3,0.2-0.2,0.4c0,0.2,0.2,0.3,0.4,0.2h0c0.2,0,0.3-0.2,0.2-0.4c0,0,0,0,0,0C264.7,546,264.5,545.9,264.4,546L264.4,546
					z M262.9,538.6c-0.2,0-0.3,0.2-0.2,0.4c0,0,0,0,0,0c0,0.2,0.2,0.3,0.4,0.2c0,0,0,0,0,0c0.2,0,0.3-0.2,0.2-0.4l0,0
					C263.2,538.7,263.1,538.6,262.9,538.6L262.9,538.6z M261.4,531.2c-0.2,0-0.3,0.2-0.3,0.4c0,0.2,0.2,0.3,0.4,0.2
					c0.2,0,0.3-0.2,0.3-0.4C261.8,531.3,261.6,531.2,261.4,531.2L261.4,531.2z M259.9,523.9c-0.2,0-0.3,0.2-0.2,0.4c0,0,0,0,0,0
					c0,0.2,0.2,0.3,0.4,0.3c0.2,0,0.3-0.2,0.3-0.4C260.3,524,260.1,523.8,259.9,523.9L259.9,523.9z M258.5,516.5
					c-0.2,0-0.3,0.2-0.3,0.4c0,0.2,0.2,0.3,0.4,0.3c0.2,0,0.3-0.2,0.3-0.4S258.7,516.5,258.5,516.5L258.5,516.5z M232.2,529.3
					c-0.1,0.1-0.2,0.3-0.1,0.4c0,0,0,0,0,0c0.1,0.1,0.3,0.2,0.4,0.1c0,0,0,0,0,0c0.1-0.1,0.2-0.3,0.1-0.4c0,0,0,0,0,0
					C232.5,529.2,232.3,529.2,232.2,529.3L232.2,529.3z M238.4,525.5c0.1,0.1,0.3,0.2,0.4,0.1c0.2-0.1,0.2-0.3,0.1-0.4
					c-0.1-0.1-0.3-0.2-0.4-0.1C238.3,525.2,238.3,525.4,238.4,525.5z M244.7,520.9L244.7,520.9c-0.1,0.1-0.2,0.3-0.1,0.4
					c0.1,0.1,0.3,0.2,0.4,0.1c0.1-0.1,0.2-0.3,0.1-0.4l0,0C245,520.9,244.8,520.8,244.7,520.9L244.7,520.9z M250.9,516.8
					C250.9,516.8,250.9,516.8,250.9,516.8c-0.1,0.1-0.2,0.3-0.1,0.4s0.3,0.2,0.4,0.1c0.1-0.1,0.2-0.3,0.1-0.4
					C251.3,516.7,251.1,516.7,250.9,516.8L250.9,516.8z M250,549.5c-0.2,0-0.3,0.1-0.4,0.3c0,0.2,0.1,0.3,0.3,0.4
					c0.2,0,0.3-0.1,0.4-0.2C250.3,549.7,250.2,549.6,250,549.5L250,549.5z M251.4,542.2c-0.2,0-0.3,0.1-0.4,0.3c0,0,0,0,0,0
					c0,0.2,0.1,0.3,0.2,0.3c0.2,0,0.3-0.1,0.4-0.2S251.6,542.2,251.4,542.2L251.4,542.2z M252.9,534.8
					C252.9,534.8,252.9,534.8,252.9,534.8c-0.2,0-0.3,0.1-0.4,0.2c0,0.2,0.1,0.3,0.2,0.4c0.2,0,0.3-0.1,0.4-0.2c0,0,0,0,0,0
					C253.2,535,253.1,534.8,252.9,534.8L252.9,534.8z M254.3,527.5L254.3,527.5c-0.2,0-0.3,0.1-0.4,0.2c0,0.2,0.1,0.3,0.2,0.4
					c0.1,0,0.2,0,0.3-0.1h0c0.1-0.1,0.1-0.1,0.1-0.2C254.6,527.6,254.5,527.5,254.3,527.5L254.3,527.5z M255.8,520.1
					c-0.2,0-0.3,0.1-0.4,0.2c0,0.2,0.1,0.3,0.3,0.4c0.2,0,0.3-0.1,0.4-0.3c0,0,0-0.1,0-0.1c-0.1,0-0.1-0.1-0.1-0.2
					C255.9,520.1,255.9,520.1,255.8,520.1L255.8,520.1z M278,544.2L278,544.2c-0.1,0.1-0.2,0.3-0.1,0.4c0,0,0,0,0,0
					c0.1,0.1,0.3,0.2,0.4,0.1c0,0,0,0,0,0c0.1-0.1,0.2-0.3,0.1-0.4C278.3,544.1,278.1,544.1,278,544.2L278,544.2z M273.8,537.9
					C273.8,537.9,273.8,538,273.8,537.9c-0.2,0.1-0.2,0.3-0.1,0.4c0.1,0.1,0.3,0.2,0.4,0.1c0.1-0.1,0.2-0.3,0.1-0.4
					C274.1,537.9,273.9,537.9,273.8,537.9L273.8,537.9z M261.2,519.7c0.1,0.1,0.3,0.2,0.4,0.1c0.1-0.1,0.2-0.3,0.1-0.4
					c-0.1-0.1-0.3-0.2-0.4-0.1C261.1,519.3,261.1,519.5,261.2,519.7z M228.7,511.7L228.7,511.7c-0.1,0-0.2,0.1-0.2,0.2l0,0
					c0,0.1,0.1,0.2,0.2,0.2c0.1,0,0.2-0.1,0.2-0.2l0,0C228.9,511.8,228.8,511.7,228.7,511.7L228.7,511.7z M233,511.8
					C232.9,511.8,232.9,511.8,233,511.8L233,511.8c0,0.2,0,0.3,0.1,0.3c0.1,0,0.1,0,0.1-0.1c0,0,0-0.1,0-0.1l0,0
					c0-0.1-0.1-0.2-0.2-0.2C233,511.7,233,511.7,233,511.8L233,511.8z M237.5,511.6c-0.1,0-0.2,0.1-0.2,0.2l0,0
					c0,0.1,0.1,0.2,0.2,0.2c0.1,0,0.2-0.1,0.2-0.2C237.7,511.7,237.6,511.6,237.5,511.6L237.5,511.6z M235.8,528.9
					c-0.1,0.1-0.1,0.2,0,0.3l0,0c0.1,0.1,0.2,0.1,0.3,0c0.1-0.1,0.1-0.2,0-0.3C236,528.8,235.8,528.8,235.8,528.9L235.8,528.9z
					 M238.9,525.8c-0.1,0.1-0.1,0.2,0,0.3l0,0c0.1,0.1,0.2,0.1,0.3,0c0.1-0.1,0.1-0.2,0-0.3C239.1,525.7,239,525.7,238.9,525.8
					L238.9,525.8z M242,522.6C242,522.6,242,522.6,242,522.6c-0.1,0.1-0.1,0.2,0,0.3c0.1,0.1,0.2,0.1,0.3,0c0,0,0,0,0,0
					c0.1-0.1,0-0.2,0-0.2C242.2,522.6,242.1,522.6,242,522.6L242,522.6z M245.1,519.5c-0.1,0.1-0.1,0.2,0,0.3c0.1,0.1,0.2,0.1,0.3,0
					c0,0,0,0,0,0c0.1-0.1,0.1-0.2,0-0.3C245.3,519.4,245.2,519.4,245.1,519.5L245.1,519.5z M248.2,516.3c-0.1,0.1-0.1,0.2,0,0.3
					s0.2,0.1,0.3,0s0.1-0.2,0-0.3c0,0,0,0,0,0C248.4,516.3,248.3,516.3,248.2,516.3L248.2,516.3z M253.2,535.9
					c-0.1,0-0.2,0.1-0.2,0.2s0.1,0.2,0.2,0.2c0.1,0,0.2-0.1,0.2-0.2C253.3,536,253.3,535.9,253.2,535.9L253.2,535.9z M253.1,531.5
					C253.1,531.5,253.1,531.5,253.1,531.5c-0.1,0-0.2,0.1-0.2,0.2c0,0.1,0.1,0.2,0.2,0.2l0,0c0.1,0,0.2-0.1,0.2-0.2v0
					C253.3,531.6,253.2,531.5,253.1,531.5L253.1,531.5z M252.9,527.2c0,0.1,0.1,0.2,0.2,0.2c0.1,0,0.2-0.1,0.2-0.2v0
					c0-0.1-0.1-0.2-0.2-0.2C253,527.1,252.9,527.1,252.9,527.2z M253.1,522.6L253.1,522.6c-0.1,0-0.2,0.1-0.2,0.2l0,0
					c0,0.1,0.1,0.1,0.2,0.1l0,0c0.1,0,0.2-0.1,0.2-0.2C253.3,522.7,253.2,522.7,253.1,522.6L253.1,522.6
					C253.1,522.6,253.1,522.6,253.1,522.6L253.1,522.6z M253.1,518.2c-0.1,0-0.2,0.1-0.2,0.2c0,0.1,0.1,0.2,0.2,0.2
					c0.1,0,0.2-0.1,0.2-0.2C253.3,518.3,253.2,518.2,253.1,518.2L253.1,518.2z M260.8,519.4C260.8,519.4,260.8,519.4,260.8,519.4
					c-0.1,0.1-0.1,0.2,0,0.3s0.2,0.1,0.3,0s0.1-0.2,0-0.3S260.8,519.3,260.8,519.4L260.8,519.4z M257.6,516.3
					c-0.1,0.1-0.1,0.2,0,0.3s0.2,0.1,0.3,0s0.1-0.2,0-0.3S257.7,516.2,257.6,516.3L257.6,516.3z M232.6,519.8
					c-0.1,0-0.1,0.2-0.1,0.3c0,0.1,0.1,0.1,0.2,0.1c0.1,0,0.1-0.2,0.1-0.3c0,0,0,0,0,0C232.7,519.8,232.6,519.8,232.6,519.8
					L232.6,519.8z M236.6,518.1C236.6,518.1,236.6,518.1,236.6,518.1c-0.1,0-0.1,0.1-0.1,0.2c0,0.1,0.1,0.1,0.2,0.1h0
					c0.1,0,0.1-0.1,0.1-0.2c0,0,0,0,0,0C236.8,518.1,236.7,518.1,236.6,518.1L236.6,518.1z M240.7,516.4c-0.1,0-0.1,0.1-0.1,0.2
					c0,0,0,0,0,0c0,0.1,0.1,0.1,0.2,0.1c0,0,0,0,0,0c0.1,0,0.1-0.1,0.1-0.2c0,0,0,0,0,0C240.9,516.4,240.8,516.3,240.7,516.4
					L240.7,516.4z M244.8,514.7c-0.1,0-0.1,0.1-0.1,0.3c0,0.1,0.1,0.1,0.3,0.1c0.1,0,0.1-0.1,0.1-0.3
					C245,514.7,244.9,514.6,244.8,514.7L244.8,514.7z M244.4,531.9c0,0.1,0,0.2,0.1,0.2c0.1,0,0.2,0,0.2-0.1v0c0-0.1,0-0.2-0.1-0.2
					c0,0,0,0,0,0C244.5,531.8,244.4,531.8,244.4,531.9L244.4,531.9z M246.1,527.8C246.1,527.8,246.1,527.8,246.1,527.8
					c0,0.1,0,0.2,0.1,0.3c0.1,0,0.2,0,0.2-0.1c0-0.1,0-0.2-0.1-0.2h0C246.2,527.7,246.1,527.7,246.1,527.8L246.1,527.8z
					 M247.8,523.7C247.8,523.7,247.8,523.7,247.8,523.7c0,0.1,0,0.2,0.1,0.2c0,0,0,0,0,0c0.1,0,0.2,0,0.2-0.1c0-0.1,0-0.2-0.1-0.2
					C247.9,523.6,247.8,523.6,247.8,523.7L247.8,523.7z M249.4,519.6c0,0.1,0,0.2,0.1,0.2c0,0,0,0,0,0c0.1,0,0.2,0,0.2-0.1
					c0-0.1,0-0.2-0.1-0.2C249.6,519.5,249.5,519.5,249.4,519.6L249.4,519.6z M251.1,515.5c0,0.1,0,0.2,0.1,0.2h0
					c0.1,0,0.2,0,0.2-0.1c0,0,0,0,0,0c0-0.1,0-0.2-0.1-0.2C251.2,515.4,251.1,515.4,251.1,515.5L251.1,515.5z M261.3,532.1
					c0,0.1,0.1,0.1,0.2,0.1c0.1,0,0.1-0.1,0.1-0.2c0,0,0,0,0,0c0-0.1-0.1-0.1-0.2-0.1C261.4,531.9,261.3,532,261.3,532.1z
					 M259.7,527.8L259.7,527.8c-0.1,0-0.1,0.1-0.1,0.2c0,0.1,0.1,0.1,0.3,0.1l0,0c0.1,0,0.1-0.1,0.1-0.2c0,0,0,0,0,0
					C259.9,527.8,259.8,527.8,259.7,527.8L259.7,527.8z M258,523.7c-0.1,0-0.1,0.1-0.1,0.2c0,0.1,0.1,0.1,0.3,0.1
					c0.1,0,0.1-0.2,0.1-0.3C258.2,523.7,258.1,523.7,258,523.7L258,523.7z M256.2,519.7c0,0,0,0.1,0,0.1c0,0,0,0,0,0
					c0,0.1,0.1,0.1,0.2,0.1c0.1,0,0.1-0.1,0.1-0.1c0,0,0-0.1,0-0.1c0-0.1-0.1-0.1-0.2-0.1C256.3,519.7,256.2,519.7,256.2,519.7
					L256.2,519.7L256.2,519.7z M254.6,515.6c-0.1,0-0.1,0.1-0.1,0.3c0,0.1,0.1,0.1,0.2,0.1l0,0c0.1,0,0.1-0.1,0.1-0.3c0,0,0,0,0,0
					C254.8,515.6,254.7,515.5,254.6,515.6L254.6,515.6z M258.5,517.3c-0.1,0.1,0,0.2,0.1,0.3l0,0c0.1,0.1,0.2,0,0.3-0.1
					c0.1-0.1,0-0.2-0.1-0.3C258.7,517.2,258.6,517.2,258.5,517.3L258.5,517.3z M225.9,514.4L225.9,514.4c-0.1,0-0.2,0.1-0.2,0.2
					c0,0.1,0.1,0.2,0.2,0.2c0.1,0,0.2-0.1,0.2-0.2l0,0C226.1,514.4,226,514.3,225.9,514.4L225.9,514.4z M230.8,513.4
					C230.8,513.4,230.8,513.4,230.8,513.4c-0.1,0-0.2,0.1-0.2,0.2c0,0.1,0.1,0.2,0.2,0.2c0.1,0,0.2-0.1,0.2-0.2l0,0
					C231.1,513.5,230.9,513.4,230.8,513.4L230.8,513.4z M235.8,512.5C235.8,512.5,235.8,512.5,235.8,512.5c-0.1,0-0.2,0.1-0.2,0.2
					c0,0.1,0.1,0.2,0.2,0.2c0.1,0,0.2-0.1,0.2-0.2l0,0C236,512.5,235.9,512.5,235.8,512.5L235.8,512.5z M232.4,533.2
					c-0.1,0.1,0,0.2,0.1,0.3c0,0,0,0,0,0c0.1,0.1,0.2,0,0.3-0.1l0,0c0.1-0.1,0-0.2-0.1-0.3c0,0,0,0,0,0
					C232.6,533.1,232.5,533.1,232.4,533.2L232.4,533.2z M235.3,529L235.3,529c-0.1,0.1-0.1,0.2,0,0.3l0,0c0.1,0.1,0.2,0,0.3-0.1
					c0.1-0.1,0-0.2-0.1-0.3c0,0,0,0,0,0C235.5,528.9,235.3,528.9,235.3,529L235.3,529z M238.1,524.8c-0.1,0.1,0,0.2,0.1,0.3
					c0.1,0.1,0.2,0,0.3,0c0,0,0,0,0,0l0,0c0.1-0.1,0-0.2-0.1-0.3C238.3,524.7,238.2,524.7,238.1,524.8L238.1,524.8z M241,520.7
					c-0.1,0.1,0,0.2,0.1,0.3c0.1,0.1,0.2,0,0.3-0.1s0-0.2-0.1-0.3C241.2,520.6,241.1,520.6,241,520.7C241,520.6,241,520.6,241,520.7
					L241,520.7L241,520.7z M243.8,516.5c-0.1,0.1,0,0.2,0.1,0.3c0,0,0,0,0,0c0.1,0.1,0.2,0,0.3-0.1l0,0c0.1-0.1,0-0.2-0.1-0.3
					C244,516.4,243.9,516.4,243.8,516.5L243.8,516.5z M253.4,537.4L253.4,537.4c-0.1,0-0.2,0.1-0.2,0.3c0,0,0,0,0,0
					c0,0.1,0.1,0.2,0.2,0.1c0.1,0,0.2-0.1,0.2-0.2C253.6,537.5,253.5,537.4,253.4,537.4L253.4,537.4z M252.4,532.5
					c-0.1,0-0.2,0.1-0.2,0.3l0,0c0,0.1,0.1,0.2,0.3,0.2c0.1,0,0.2-0.1,0.2-0.2C252.7,532.5,252.6,532.5,252.4,532.5L252.4,532.5z
					 M251.5,527.5c-0.1,0-0.2,0.1-0.2,0.2c0,0,0,0,0,0c0,0.1,0.1,0.2,0.2,0.1c0.1,0,0.2-0.1,0.2-0.2
					C251.7,527.6,251.6,527.5,251.5,527.5L251.5,527.5z M250.6,522.5c-0.1,0-0.2,0.1-0.2,0.2c0,0,0,0,0,0c0,0.1,0.1,0.2,0.2,0.1
					c0.1,0,0.2-0.1,0.2-0.2S250.7,522.5,250.6,522.5L250.6,522.5z M249.6,517.6c-0.1,0-0.2,0.1-0.2,0.2c0,0,0,0,0,0
					c0,0.1,0.1,0.2,0.2,0.1c0.1,0,0.2-0.1,0.2-0.2C249.9,517.6,249.8,517.6,249.6,517.6L249.6,517.6z M227.1,523.7
					c-0.1,0.1-0.1,0.2-0.1,0.3c0,0,0,0,0,0c0.1,0.1,0.2,0.1,0.3,0.1c0.1-0.1,0.1-0.2,0.1-0.3c0,0,0,0,0,0
					C227.3,523.7,227.2,523.7,227.1,523.7L227.1,523.7z M231.3,520.9c-0.1,0.1-0.1,0.2-0.1,0.3c0.1,0.1,0.2,0.1,0.3,0.1h0
					c0.1-0.1,0.1-0.2,0.1-0.3C231.5,520.9,231.4,520.9,231.3,520.9L231.3,520.9z M235.5,518.2c-0.1,0.1-0.1,0.2-0.1,0.3l0,0
					c0.1,0.1,0.2,0.1,0.3,0c0,0,0,0,0,0c0.1-0.1,0.1-0.2,0.1-0.3C235.7,518.1,235.6,518.1,235.5,518.2L235.5,518.2z M239.7,515.4
					c-0.1,0.1-0.1,0.2-0.1,0.3c0.1,0.1,0.2,0.1,0.3,0.1h0c0.1-0.1,0.1-0.2,0.1-0.3C240,515.4,239.8,515.4,239.7,515.4L239.7,515.4z
					 M244,512.6c-0.1,0.1-0.1,0.2-0.1,0.3l0,0c0.1,0.1,0.2,0.1,0.3,0c0,0,0,0,0,0c0.1-0.1,0.1-0.2,0.1-0.3
					C244.2,512.6,244.1,512.6,244,512.6L244,512.6z M242.9,534.9c0,0.1,0,0.2,0.1,0.2c0,0,0.1,0,0.1,0c0,0,0,0,0,0
					c0.1,0,0.2,0,0.2-0.2c0-0.1,0-0.2-0.1-0.3h0c0,0,0,0,0,0C243,534.7,242.9,534.8,242.9,534.9L242.9,534.9z M243.9,529.9
					L243.9,529.9c0,0.1,0,0.2,0.1,0.3c0.1,0,0.2,0,0.3-0.2c0-0.1,0-0.2-0.2-0.3C244,529.7,243.9,529.8,243.9,529.9z M245.2,524.8
					C245.2,524.8,245.2,524.8,245.2,524.8c-0.1,0-0.2,0-0.3,0.2l0,0c0,0.1,0,0.2,0.2,0.3c0.1,0,0.2-0.1,0.3-0.2
					C245.4,525,245.3,524.8,245.2,524.8L245.2,524.8z M246.2,519.9L246.2,519.9c-0.1,0-0.2,0-0.3,0.2c0,0.1,0,0.2,0.2,0.3
					c0,0,0,0,0,0c0.1,0,0.2,0,0.2-0.2l0,0C246.4,520,246.3,519.9,246.2,519.9L246.2,519.9z M247,515.1
					C247,515.1,247,515.1,247,515.1c0,0.1,0.1,0.2,0.1,0.2c0,0,0.1,0,0.1,0c0.1,0,0.2,0,0.3-0.2c0-0.1-0.1-0.2-0.2-0.3
					C247.1,514.9,247,515,247,515.1L247,515.1z M262,531.3c-0.1,0.1-0.1,0.2-0.1,0.3c0,0,0,0,0,0c0.1,0.1,0.2,0.1,0.3,0
					c0.1-0.1,0.1-0.2,0.1-0.3c0,0,0,0,0,0C262.2,531.3,262.1,531.2,262,531.3L262,531.3z M259.2,527.1c-0.1,0.1-0.1,0.2-0.1,0.3l0,0
					c0.1,0.1,0.2,0.1,0.3,0c0,0,0,0,0,0c0.1-0.1,0.1-0.2,0.1-0.3C259.5,527,259.3,527,259.2,527.1L259.2,527.1z M256.4,522.8
					c-0.1,0.1-0.1,0.2,0,0.3c0.1,0.1,0.2,0.1,0.3,0.1c0.1-0.1,0.1-0.2,0.1-0.3c0,0,0,0,0,0C256.7,522.8,256.5,522.8,256.4,522.8
					L256.4,522.8z M253.7,518.6c-0.1,0.1-0.1,0.2-0.1,0.3l0,0c0.1,0.1,0.2,0.1,0.3,0c0,0,0,0,0,0c0.1-0.1,0.1-0.2,0-0.3c0,0,0,0,0,0
					C253.9,518.6,253.8,518.6,253.7,518.6L253.7,518.6z M250.9,514.4c-0.1,0.1-0.1,0.2-0.1,0.3c0.1,0.1,0.2,0.1,0.3,0.1
					c0.1-0.1,0.1-0.2,0.1-0.3C251.1,514.4,251,514.3,250.9,514.4L250.9,514.4z M225.4,520.9c-0.2,0.1-0.2,0.3-0.1,0.5
					c0.1,0.2,0.3,0.2,0.5,0.1c0.2-0.1,0.2-0.3,0.1-0.5C225.8,520.8,225.6,520.8,225.4,520.9L225.4,520.9z M232.5,516
					c-0.2,0.1-0.2,0.3-0.1,0.5c0.1,0.2,0.3,0.2,0.5,0.1c0.2-0.1,0.2-0.3,0.1-0.5C232.9,515.9,232.7,515.9,232.5,516L232.5,516z
					 M239.7,511.1c-0.1,0.1-0.2,0.2-0.1,0.4c0,0,0,0.1,0.1,0.1c0,0.1,0.1,0.1,0.2,0.1c0.1,0.1,0.2,0,0.4,0c0.2-0.1,0.2-0.3,0.1-0.5
					C240.1,511,239.9,511,239.7,511.1L239.7,511.1z M234.8,555.4c-0.2,0-0.4,0.1-0.4,0.3c0,0.2,0.1,0.4,0.3,0.4
					c0.2,0,0.4-0.1,0.4-0.3C235.1,555.7,235,555.5,234.8,555.4L234.8,555.4z M236.4,546.9c-0.2,0-0.4,0.1-0.4,0.3
					c0,0.2,0.1,0.4,0.3,0.4c0.2,0,0.4-0.1,0.4-0.3C236.7,547.1,236.6,547,236.4,546.9L236.4,546.9z M238,538.4
					c-0.2,0-0.4,0.1-0.4,0.3c0,0.2,0.1,0.4,0.3,0.4c0,0,0,0,0,0c0.2,0,0.4-0.1,0.4-0.3C238.3,538.6,238.2,538.4,238,538.4L238,538.4
					z M239.6,529.9L239.6,529.9c-0.2,0-0.4,0.1-0.4,0.3l0,0c0,0.2,0.1,0.4,0.3,0.4s0.4-0.1,0.4-0.3c0,0,0,0,0,0
					C239.9,530.1,239.8,529.9,239.6,529.9L239.6,529.9z M241.2,521.4c-0.2,0-0.4,0.1-0.4,0.3c0,0.2,0.1,0.4,0.3,0.4
					c0.2,0,0.4-0.1,0.4-0.3C241.5,521.6,241.3,521.4,241.2,521.4L241.2,521.4z M242.8,512.8C242.8,512.8,242.8,512.8,242.8,512.8
					c-0.2,0-0.4,0.1-0.4,0.3c0,0.2,0.1,0.4,0.3,0.4c0.2,0,0.4-0.1,0.4-0.3c0,0,0,0,0,0C243.1,513.1,242.9,512.9,242.8,512.8
					L242.8,512.8z M270.2,548c-0.2,0.1-0.2,0.3-0.1,0.5c0.1,0.2,0.3,0.2,0.5,0.1c0.2-0.1,0.2-0.3,0.1-0.5
					C270.6,547.9,270.4,547.9,270.2,548L270.2,548z M265.3,540.8c-0.2,0.1-0.2,0.3-0.1,0.5c0.1,0.2,0.3,0.2,0.5,0.1l0,0
					c0.2-0.1,0.2-0.3,0.1-0.5C265.7,540.8,265.5,540.7,265.3,540.8L265.3,540.8z M260.4,533.7C260.4,533.7,260.4,533.7,260.4,533.7
					c-0.2,0.1-0.2,0.3-0.1,0.5c0.1,0.2,0.3,0.2,0.5,0.1c0.2-0.1,0.2-0.3,0.1-0.5c0,0,0,0,0,0C260.8,533.6,260.6,533.6,260.4,533.7
					L260.4,533.7z M255.5,526.5C255.5,526.5,255.5,526.5,255.5,526.5c-0.2,0.1-0.2,0.3-0.1,0.5c0.1,0.2,0.3,0.2,0.5,0.1
					c0.2-0.1,0.2-0.3,0.1-0.5c0,0,0,0,0,0C255.9,526.4,255.7,526.4,255.5,526.5L255.5,526.5z M250.6,519.4c-0.2,0.1-0.2,0.3-0.1,0.5
					c0.1,0.2,0.3,0.2,0.5,0.1c0.2-0.1,0.2-0.3,0.1-0.5C251,519.3,250.8,519.3,250.6,519.4L250.6,519.4z M226.2,512.1
					C226.2,512.1,226.2,512.1,226.2,512.1c-0.2,0-0.3,0.2-0.3,0.4v0c0,0.2,0.2,0.3,0.4,0.3c0,0,0,0,0,0c0.2,0,0.3-0.2,0.3-0.4
					C226.6,512.2,226.4,512.1,226.2,512.1L226.2,512.1z M234.7,510.3C234.7,510.3,234.7,510.3,234.7,510.3c-0.2,0-0.3,0.2-0.3,0.4v0
					c0.1,0.2,0.2,0.3,0.4,0.3h0c0.2,0,0.3-0.2,0.3-0.4v0C235,510.4,234.9,510.3,234.7,510.3L234.7,510.3z M228.5,530.6
					c-0.1,0.2-0.1,0.4,0.1,0.5c0.2,0.1,0.4,0.1,0.5-0.1c0.1-0.2,0.1-0.4-0.1-0.5C228.8,530.4,228.6,530.5,228.5,530.6L228.5,530.6z
					 M233.2,523.4c-0.1,0.2-0.1,0.4,0.1,0.5c0.2,0.1,0.4,0.1,0.5-0.1c0.1-0.2,0.1-0.4-0.1-0.5c0,0,0,0,0,0
					C233.5,523.2,233.3,523.2,233.2,523.4L233.2,523.4z M238,516.1C238,516.1,237.9,516.1,238,516.1c-0.1,0.2-0.1,0.4,0.1,0.5
					c0,0,0,0,0,0c0.2,0.1,0.4,0.1,0.5-0.1c0.1-0.2,0.1-0.4-0.1-0.5c0,0,0,0,0,0C238.3,515.9,238.1,515.9,238,516.1L238,516.1
					L238,516.1z M251.8,551.4L251.8,551.4c-0.2,0-0.3,0.2-0.3,0.4c0,0.2,0.2,0.3,0.4,0.3c0.2,0,0.3-0.2,0.3-0.4c0,0,0,0,0,0
					C252.2,551.5,252,551.3,251.8,551.4L251.8,551.4z M250,542.9C250,542.9,250,542.9,250,542.9c-0.2,0-0.3,0.2-0.3,0.4l0,0
					c0,0.2,0.2,0.3,0.4,0.3l0,0c0.2,0,0.3-0.2,0.3-0.4c0,0,0,0,0,0C250.4,543,250.2,542.8,250,542.9L250,542.9z M248.2,534.4
					C248.2,534.4,248.2,534.4,248.2,534.4c-0.2,0-0.3,0.2-0.3,0.4c0,0,0,0,0,0c0,0.2,0.2,0.3,0.4,0.3c0.2,0,0.3-0.2,0.3-0.4
					C248.6,534.5,248.4,534.4,248.2,534.4L248.2,534.4z M246.4,525.9L246.4,525.9c-0.2,0-0.3,0.2-0.3,0.4s0.2,0.3,0.4,0.3
					c0.2,0,0.3-0.2,0.3-0.4S246.6,525.9,246.4,525.9L246.4,525.9z M244.6,517.4C244.6,517.4,244.6,517.4,244.6,517.4
					c-0.2,0.1-0.3,0.2-0.3,0.4c0,0.2,0.2,0.3,0.4,0.3c0.2,0,0.3-0.2,0.3-0.4c0,0,0,0,0,0C245,517.5,244.8,517.4,244.6,517.4
					L244.6,517.4z M257.3,518.8L257.3,518.8c-0.1,0.2-0.1,0.4,0.1,0.5c0.2,0.1,0.4,0.1,0.5-0.1l0,0c0.1-0.2,0.1-0.4-0.1-0.5
					C257.6,518.6,257.4,518.6,257.3,518.8L257.3,518.8z M250,514.1c-0.1,0.2-0.1,0.4,0.1,0.5c0,0,0,0,0,0c0.2,0.1,0.4,0.1,0.5-0.1
					c0.1-0.2,0.1-0.4-0.1-0.5c0,0,0,0,0,0C250.4,513.9,250.2,513.9,250,514.1L250,514.1z M225.9,509.3c-0.2,0-0.3,0.2-0.3,0.4v0
					c0,0.2,0.2,0.3,0.4,0.3c0,0,0,0,0,0c0.2,0,0.3-0.2,0.3-0.4v0C226.3,509.4,226.1,509.3,225.9,509.3L225.9,509.3z M225.9,524.9
					C225.9,524.9,225.9,524.9,225.9,524.9c-0.1,0.2-0.1,0.4,0.1,0.5s0.4,0.1,0.5-0.1c0.1-0.2,0.1-0.4-0.1-0.5c0,0,0,0,0,0
					C226.2,524.7,226,524.7,225.9,524.9L225.9,524.9z M230.9,517.9C230.9,517.9,230.9,517.9,230.9,517.9c-0.1,0.2-0.1,0.4,0.1,0.5
					c0.2,0.1,0.4,0.1,0.5-0.1c0.1-0.2,0.1-0.4-0.1-0.5c0,0,0,0,0,0C231.2,517.7,231,517.7,230.9,517.9L230.9,517.9z M235.9,510.8
					c-0.1,0.2-0.1,0.4,0.1,0.5c0.2,0.1,0.4,0.1,0.5-0.1c0,0,0,0,0,0c0.1-0.2,0.1-0.4-0.1-0.5c0,0,0,0,0,0
					C236.2,510.6,236,510.7,235.9,510.8L235.9,510.8z M246.5,554c-0.2,0-0.3,0.2-0.3,0.4c0,0.2,0.2,0.3,0.4,0.3
					c0.2,0,0.3-0.2,0.3-0.4C246.9,554.1,246.7,554,246.5,554L246.5,554z M245.1,545.5c-0.2,0-0.3,0.2-0.3,0.4s0.2,0.3,0.4,0.3
					c0.2,0,0.3-0.2,0.3-0.4C245.4,545.6,245.3,545.5,245.1,545.5L245.1,545.5z M243.6,537c-0.2,0-0.3,0.2-0.3,0.4
					c0,0.2,0.2,0.3,0.4,0.3l0,0c0.2,0,0.3-0.2,0.3-0.4C244,537.1,243.8,537,243.6,537L243.6,537z M242.2,528.5
					C242.2,528.5,242.2,528.5,242.2,528.5c-0.2,0-0.3,0.2-0.3,0.4c0,0,0,0,0,0c0,0.2,0.2,0.3,0.4,0.3c0.2,0,0.3-0.2,0.3-0.4v0
					C242.6,528.6,242.4,528.4,242.2,528.5L242.2,528.5z M240.8,520c-0.2,0-0.3,0.2-0.3,0.4c0,0.2,0.2,0.3,0.4,0.3c0,0,0.1,0,0.1,0
					c0,0,0,0,0.1,0c0.1-0.1,0.2-0.2,0.1-0.3v0C241.2,520,241,519.9,240.8,520L240.8,520z M239.4,511.4
					C239.4,511.4,239.4,511.4,239.4,511.4c-0.2,0-0.3,0.2-0.3,0.4c0,0.1,0.1,0.1,0.1,0.2c0,0,0,0,0.1,0c0.1,0,0.2,0.1,0.2,0.1h0
					c0.2,0,0.3-0.2,0.3-0.4v0c0-0.1-0.1-0.2-0.2-0.2C239.5,511.4,239.4,511.4,239.4,511.4L239.4,511.4z M263,524.9L263,524.9
					c-0.1,0.2-0.1,0.4,0.1,0.5c0.2,0.1,0.4,0.1,0.5-0.1c0.1-0.2,0.1-0.4-0.1-0.5c0,0,0,0,0,0C263.3,524.7,263.1,524.7,263,524.9
					L263,524.9z M256,519.9c-0.1,0.1-0.1,0.2-0.1,0.3c0,0.1,0.1,0.1,0.1,0.2c0,0,0,0,0,0c0.1,0.1,0.3,0.1,0.5,0
					c0.1-0.1,0.1-0.4,0-0.5c0,0,0,0-0.1-0.1c-0.1-0.1-0.2-0.1-0.3-0.1v0C256.1,519.7,256,519.8,256,519.9L256,519.9z M249,514.8
					c-0.1,0.2-0.1,0.4,0.1,0.5c0,0,0,0,0,0c0.2,0.1,0.4,0.1,0.5-0.1c0,0,0-0.1,0-0.1c0-0.1,0-0.1,0-0.2c0-0.1-0.1-0.2-0.1-0.2
					C249.3,514.6,249.1,514.7,249,514.8L249,514.8z M231.1,511.1c-0.2,0.1-0.2,0.3-0.1,0.5c0.1,0.2,0.3,0.2,0.5,0.1c0,0,0,0,0,0
					c0.2-0.1,0.2-0.3,0.1-0.5c0,0,0,0,0,0C231.5,511.1,231.3,511,231.1,511.1L231.1,511.1z M230.7,540.4c-0.2,0-0.4,0.1-0.4,0.3l0,0
					c0,0.2,0.1,0.4,0.3,0.4c0.2,0,0.4-0.1,0.4-0.3C231.1,540.6,230.9,540.4,230.7,540.4L230.7,540.4z M232.7,532L232.7,532
					c-0.2,0-0.4,0.1-0.4,0.3v0c0,0.2,0.1,0.4,0.3,0.4c0.2,0,0.4-0.1,0.4-0.3C233,532.2,232.9,532,232.7,532L232.7,532z M234.6,523.6
					c-0.2,0-0.4,0.1-0.4,0.3c0,0.2,0.1,0.4,0.3,0.4c0.2,0,0.4-0.1,0.4-0.3C235,523.8,234.8,523.6,234.6,523.6L234.6,523.6z
					 M236.6,515.2c-0.2,0-0.4,0.1-0.4,0.3c0,0.2,0.1,0.4,0.3,0.4c0.2,0,0.4-0.1,0.4-0.3l0,0C236.9,515.4,236.8,515.2,236.6,515.2
					C236.6,515.2,236.6,515.2,236.6,515.2z M261.2,543.7c-0.2,0.1-0.2,0.3-0.1,0.5c0.1,0.2,0.3,0.2,0.5,0.1c0.2-0.1,0.2-0.3,0.1-0.5
					c0,0,0,0,0,0C261.6,543.6,261.3,543.6,261.2,543.7C261.2,543.7,261.2,543.7,261.2,543.7z M256.6,536.4
					C256.6,536.4,256.6,536.4,256.6,536.4c-0.2,0.1-0.2,0.3-0.1,0.5c0.1,0.2,0.3,0.2,0.5,0.1c0.2-0.1,0.2-0.3,0.1-0.5c0,0,0,0,0,0
					C257,536.3,256.8,536.3,256.6,536.4L256.6,536.4z M252,529C252,529,252,529,252,529c-0.2,0.1-0.2,0.3-0.1,0.5
					c0.1,0.2,0.3,0.2,0.5,0.1c0.2-0.1,0.2-0.3,0.1-0.5S252.2,528.9,252,529L252,529z M247.4,521.7
					C247.4,521.7,247.4,521.7,247.4,521.7c-0.2,0.1-0.2,0.3-0.1,0.5c0.1,0.2,0.3,0.2,0.5,0.1c0.2-0.1,0.2-0.3,0.1-0.5
					C247.8,521.7,247.6,521.6,247.4,521.7L247.4,521.7z M242.9,514.4c-0.2,0.1-0.2,0.3-0.1,0.5c0.1,0.2,0.3,0.2,0.5,0.1l0,0
					c0.2-0.1,0.2-0.3,0.1-0.5C243.3,514.3,243,514.3,242.9,514.4C242.9,514.4,242.9,514.4,242.9,514.4z M260.6,517.7
					c-0.1,0.1,0,0.3,0.1,0.4l0,0c0.1,0.1,0.3,0,0.4-0.1s0-0.3-0.1-0.4C260.8,517.5,260.6,517.6,260.6,517.7L260.6,517.7z
					 M254.6,515.1C254.6,515.1,254.6,515.1,254.6,515.1c-0.1,0.1,0,0.3,0.1,0.4c0.1,0,0.3,0,0.4-0.1c0,0,0,0,0,0
					c0.1-0.1,0-0.3-0.1-0.3l0,0C254.8,514.9,254.6,515,254.6,515.1L254.6,515.1z M224.9,510C224.9,510,224.9,510,224.9,510
					L224.9,510c0.2-0.1,0.3-0.2,0.2-0.4c0-0.1-0.1-0.2-0.2-0.2L224.9,510z M227.2,521c0,0.1,0,0.3,0.2,0.4c0.1,0,0.3,0,0.3-0.2
					c0.1-0.1,0-0.3-0.1-0.3l0,0C227.4,520.7,227.3,520.8,227.2,521C227.2,520.9,227.2,521,227.2,521z M229.8,515
					C229.8,515,229.8,515,229.8,515c-0.1,0.2,0,0.3,0.1,0.3l0,0c0.1,0.1,0.3,0,0.3-0.1c0,0,0,0,0,0c0.1-0.1,0-0.3-0.1-0.4h0
					C230,514.8,229.8,514.8,229.8,515L229.8,515z M246.8,539.5c0.1,0.1,0.2,0.2,0.4,0.1c0.1,0,0.2-0.2,0.1-0.3c0,0,0,0,0,0
					c-0.1-0.1-0.2-0.2-0.3-0.1C246.8,539.3,246.8,539.4,246.8,539.5z M244.6,533.1c-0.1,0.1-0.2,0.2-0.1,0.4
					c0.1,0.1,0.2,0.2,0.4,0.1c0.1-0.1,0.2-0.2,0.1-0.3v0C244.9,533.1,244.7,533.1,244.6,533.1L244.6,533.1z M242.2,527.1
					c-0.1,0.1-0.2,0.2-0.1,0.4l0,0c0.1,0.1,0.2,0.2,0.4,0.1c0.1-0.1,0.2-0.2,0.1-0.3C242.5,527.1,242.3,527,242.2,527.1L242.2,527.1
					z M239.8,521C239.8,521,239.8,521,239.8,521c-0.1,0.1-0.2,0.2-0.2,0.4v0c0.1,0.1,0.2,0.2,0.3,0.1l0,0c0.1,0,0.2-0.2,0.2-0.3
					C240.1,521,239.9,521,239.8,521L239.8,521z M237.4,515L237.4,515c-0.1,0.1-0.2,0.2-0.1,0.3c0,0.1,0.2,0.2,0.3,0.2
					c0.1,0,0.2-0.2,0.1-0.3C237.7,515,237.6,514.9,237.4,515L237.4,515z M224.8,514.7c0,0.1,0,0.2,0,0.3
					C224.9,514.8,224.9,514.7,224.8,514.7L224.8,514.7z M229.1,510.1C229.1,510.1,229.1,510.1,229.1,510.1c-0.1,0.1-0.1,0.3,0,0.4
					l0,0c0.1,0.1,0.3,0.1,0.4,0c0.1-0.1,0.1-0.3,0-0.4c0,0,0,0,0,0C229.3,510,229.2,510,229.1,510.1L229.1,510.1z M233.3,538.2
					C233.3,538.2,233.3,538.2,233.3,538.2c-0.2,0-0.3,0.1-0.3,0.3c0,0.1,0.1,0.3,0.3,0.3c0.1,0,0.3-0.1,0.3-0.3l0,0
					C233.6,538.3,233.4,538.2,233.3,538.2L233.3,538.2z M233.4,531.7L233.4,531.7c-0.1,0-0.3,0.1-0.3,0.3c0,0.1,0.1,0.3,0.3,0.3l0,0
					c0.2,0,0.3-0.1,0.3-0.3v0C233.7,531.8,233.6,531.7,233.4,531.7L233.4,531.7z M233.5,525.2L233.5,525.2c-0.2,0-0.3,0.1-0.3,0.3
					c0,0,0,0,0,0c0,0.1,0.1,0.3,0.3,0.3h0c0.1,0,0.3-0.1,0.3-0.3S233.7,525.2,233.5,525.2L233.5,525.2z M233.6,518.7
					c-0.2,0-0.3,0.1-0.3,0.3l0,0c0,0.2,0.1,0.3,0.3,0.3c0,0,0,0,0,0c0.1,0,0.3-0.1,0.3-0.3l0,0C233.9,518.8,233.8,518.7,233.6,518.7
					L233.6,518.7z M233.5,512.3c0,0-0.1,0.1-0.1,0.2c0,0.1,0.1,0.2,0.2,0.3h0c0,0,0.1,0,0.1,0c0,0,0,0,0,0c0.1,0,0.3-0.1,0.3-0.3
					c0,0,0,0,0,0c0-0.1-0.1-0.3-0.3-0.3C233.7,512.2,233.6,512.2,233.5,512.3L233.5,512.3z M256.4,529.3
					C256.4,529.4,256.4,529.4,256.4,529.3c-0.1,0.1-0.1,0.3,0,0.4c0.1,0.1,0.3,0.1,0.4,0c0,0,0,0,0,0c0.1-0.1,0.1-0.3,0-0.4
					c0,0,0,0,0,0C256.6,529.2,256.5,529.2,256.4,529.3L256.4,529.3z M251.8,524.7c-0.1,0.1-0.1,0.3,0,0.4c0.1,0.1,0.3,0.1,0.4,0
					c0.1-0.1,0.1-0.3,0-0.4C252.1,524.6,251.9,524.6,251.8,524.7L251.8,524.7z M247.3,520.4c0.1,0.1,0.3,0.1,0.4,0
					c0.1-0.1,0.1-0.3,0-0.4l0,0c-0.1-0.1-0.3-0.1-0.4,0C247.2,520.1,247.2,520.2,247.3,520.4z M242.8,515.3c-0.1,0.1-0.1,0.3,0,0.4
					c0.1,0.1,0.3,0.1,0.4,0c0.1-0.1,0.1-0.3,0-0.4C243.1,515.2,242.9,515.2,242.8,515.3C242.8,515.3,242.8,515.3,242.8,515.3z
					 M225.8,508.9L225.8,508.9c0,0.1,0,0.2,0,0.2c0.1,0.1,0.2,0,0.2,0l0,0c0-0.1,0-0.1,0-0.2l0,0C226,508.8,225.9,508.8,225.8,508.9
					L225.8,508.9z M231.9,523.9c-0.1,0-0.1,0.1-0.1,0.2c0,0.1,0.1,0.1,0.2,0.1h0c0.1,0,0.1-0.1,0.1-0.2
					C232.1,524,232,523.9,231.9,523.9L231.9,523.9z M231.4,520.4c-0.1,0-0.1,0.1-0.1,0.2l0,0c0,0.1,0.1,0.1,0.2,0.1c0,0,0,0,0,0
					c0.1,0,0.1-0.1,0.1-0.2v0C231.6,520.4,231.5,520.4,231.4,520.4L231.4,520.4z M230.9,516.9C230.9,516.9,230.9,516.9,230.9,516.9
					c-0.1,0-0.1,0.1-0.1,0.2v0c0,0.1,0.1,0.1,0.2,0.1c0.1,0,0.1-0.1,0.1-0.2l0,0C231.1,516.9,231,516.9,230.9,516.9L230.9,516.9z
					 M230.4,513.4c-0.1,0-0.1,0.1-0.1,0.2l0,0c0,0.1,0.1,0.1,0.2,0.1c0.1,0,0.1-0.1,0.1-0.2c0,0,0,0,0,0
					C230.5,513.4,230.5,513.4,230.4,513.4C230.4,513.4,230.4,513.4,230.4,513.4z M229.9,509.8c-0.1,0-0.1,0.1-0.1,0.2
					c0,0.1,0.1,0.1,0.2,0.1c0.1,0,0.1-0.1,0.1-0.2C230.1,509.9,230,509.8,229.9,509.8L229.9,509.8z M244.7,516.5c0.1,0,0.1,0,0.2,0
					l0,0c0-0.1,0-0.2,0-0.2c-0.1,0-0.2,0-0.2,0C244.7,516.4,244.7,516.5,244.7,516.5z M241.9,514.2L241.9,514.2c0,0.1,0,0.2,0,0.2
					l0,0c0.1,0,0.1,0,0.2,0l0,0c0-0.1,0-0.2,0-0.2C242,514.1,241.9,514.1,241.9,514.2L241.9,514.2z M239,512.1L239,512.1
					c0,0.1,0,0.2,0,0.2l0,0c0.1,0,0.2,0,0.2,0c0,0,0-0.1,0-0.2c0,0,0,0,0,0c0,0,0,0,0,0C239.1,512,239,512,239,512.1L239,512.1z
					 M225.6,518.2c-0.1,0-0.2,0-0.2,0.1c0,0.1,0,0.2,0.1,0.2c0.1,0,0.2,0,0.2-0.1C225.7,518.3,225.7,518.2,225.6,518.2L225.6,518.2z
					 M226.5,514.7c-0.1,0-0.2,0-0.2,0.1c0,0.1,0,0.2,0.1,0.2c0,0,0,0,0,0c0.1,0,0.2,0,0.2-0.1C226.6,514.8,226.5,514.7,226.5,514.7
					L226.5,514.7z M227.3,511.3C227.3,511.3,227.3,511.3,227.3,511.3c-0.1,0-0.2,0-0.2,0.1c0,0.1,0,0.2,0.1,0.2c0.1,0,0.2,0,0.2-0.1
					C227.5,511.4,227.4,511.3,227.3,511.3L227.3,511.3z M238.1,519.8L238.1,519.8c-0.1,0-0.1,0.1-0.1,0.2c0,0.1,0.1,0.1,0.2,0.1l0,0
					c0.1,0,0.1-0.1,0.1-0.2l0,0C238.2,519.8,238.1,519.8,238.1,519.8L238.1,519.8z M236.2,516.9c0,0.1,0.1,0.1,0.2,0.1
					c0.1,0,0.1-0.1,0.1-0.2s-0.1-0.1-0.2,0C236.2,516.8,236.2,516.9,236.2,516.9z M234.4,513.7c-0.1,0.1-0.1,0.1-0.1,0.2
					c0,0.1,0.1,0.1,0.2,0c0.1,0,0.1-0.1,0.1-0.2C234.6,513.7,234.5,513.7,234.4,513.7L234.4,513.7z M232.6,510.6
					C232.6,510.6,232.6,510.6,232.6,510.6c-0.1,0-0.1,0.1-0.1,0.2l0,0c0,0.1,0.1,0.1,0.2,0l0,0c0.1,0,0.1-0.1,0-0.2c0,0,0,0,0,0
					C232.8,510.6,232.7,510.6,232.6,510.6L232.6,510.6z M235.9,529.6C235.9,529.6,235.9,529.6,235.9,529.6c-0.1,0.1-0.2,0.2-0.1,0.3
					l0,0c0.1,0.1,0.2,0.2,0.3,0.1c0,0,0,0,0,0c0.1-0.1,0.1-0.2,0.1-0.3c0,0,0,0,0,0C236.1,529.6,236,529.5,235.9,529.6L235.9,529.6z
					 M232.9,524.5C232.9,524.5,232.9,524.5,232.9,524.5c-0.1,0.1-0.2,0.2-0.1,0.3c0,0,0,0,0,0c0.1,0.1,0.2,0.1,0.3,0.1c0,0,0,0,0,0
					c0.1-0.1,0.1-0.2,0.1-0.3C233.2,524.5,233,524.5,232.9,524.5L232.9,524.5z M229.8,519.8c0.1,0.1,0.2,0.2,0.3,0.1c0,0,0,0,0,0
					c0.1-0.1,0.1-0.2,0.1-0.3c-0.1-0.1-0.2-0.2-0.3-0.1C229.8,519.5,229.8,519.7,229.8,519.8z M226.9,514.4
					c-0.1,0.1-0.2,0.2-0.1,0.3s0.2,0.1,0.3,0.1c0.1-0.1,0.1-0.2,0.1-0.3c0,0,0,0,0,0C227.2,514.4,227.1,514.3,226.9,514.4
					L226.9,514.4z M242.7,519.4c-0.1,0.1-0.1,0.3,0,0.4c0,0,0,0,0,0c0.1,0.1,0.3,0,0.3-0.1c0.1-0.1,0.1-0.3,0-0.3
					C243,519.3,242.8,519.3,242.7,519.4L242.7,519.4z M238,515.9c0,0-0.1,0.1,0,0.2c0,0.1,0,0.1,0.1,0.2c0.1,0.1,0.3,0.1,0.3,0
					c0,0,0-0.1,0-0.2c0,0,0,0,0,0c0-0.1,0-0.1-0.1-0.1C238.3,515.8,238.1,515.8,238,515.9L238,515.9z M233.3,512.4
					c-0.1,0.1-0.1,0.3,0,0.3c0.1,0.1,0.2,0.1,0.3,0h0c0,0,0.1,0,0.1,0c0,0,0,0,0,0c0.1-0.1,0.1-0.3-0.1-0.3
					C233.6,512.2,233.4,512.3,233.3,512.4L233.3,512.4z M228.6,508.8c-0.1,0.1-0.1,0.3,0.1,0.3l0,0c0.1,0.1,0.3,0.1,0.3-0.1
					c0.1-0.1,0.1-0.3-0.1-0.3C228.9,508.7,228.7,508.7,228.6,508.8L228.6,508.8z"/>
			</g>
			<g id="L_hand_4_">
				
					<linearGradient id="R_hand_1_" gradientUnits="userSpaceOnUse" x1="842.3652" y1="283.8252" x2="839.8963" y2="205.4364" gradientTransform="matrix(-1 0 0 -1 1205 722)">
					<stop  offset="0" style="stop-color:#FFCFCA"/>
					<stop  offset="1" style="stop-color:#F1ACA7"/>
				</linearGradient>
				<path id="R_hand_4_" class="st9" d="M315.8,458c0,0,34.9,10.4,51.6,8c16.7-2.4,24.5-11.2,27.4-12.6c2.9-1.5,7.5-2.4,2.9,4.9
					c-4.6,7.3-7.5,6.1-2.4,8.5c5.1,2.4,21.6-3.6,24-3.1c2.4,0.5,6.5,7.3-9,13.3s-24,3.4-37.1,3.1c-13.1-0.2-59.7,11.4-67.2,8.3
					L315.8,458"/>
				
					<linearGradient id="star_2_" gradientUnits="userSpaceOnUse" x1="816.075" y1="340.7643" x2="816.075" y2="194.0774" gradientTransform="matrix(-1 0 0 -1 1205 722)">
					<stop  offset="0" style="stop-color:#F1B505"/>
					<stop  offset="1" style="stop-color:#D89C05"/>
				</linearGradient>
				<polygon id="star_1_" class="st10" points="388.9,373.7 368,416.1 321.2,422.9 355,455.9 347,502.5 388.9,480.5 430.8,502.5 
					422.8,455.9 456.7,422.9 409.9,416.1 				"/>
				<path id="L_hand-2_2_" class="st11" d="M324.9,474.8l-4.2,27.4c17-2.5,40.3-7.6,49-7.4c13.1,0.2,21.6,2.9,37.1-3.2
					c15.5-6.1,11.4-12.9,9-13.3c-2.4-0.5-18.9,5.6-24,3.2c-5.1-2.4-2.2-1.2,2.4-8.5c4.6-7.3,0-6.3-2.9-4.9s-10.7,10.2-27.4,12.6
					C352.5,482.4,335,477.9,324.9,474.8z"/>
			</g>
			<g id="sweater_4_">
				
					<linearGradient id="sweater-2_1_" gradientUnits="userSpaceOnUse" x1="978.5898" y1="312.546" x2="932.876" y2="226.4612" gradientTransform="matrix(-1 0 0 -1 1205 722)">
					<stop  offset="0" style="stop-color:#28306D"/>
					<stop  offset="0.51" style="stop-color:#1F275F"/>
					<stop  offset="1" style="stop-color:#171F51"/>
				</linearGradient>
				<path id="sweater-2_2_" class="st12" d="M192.1,503.8c0,0,19.4,7.6,48.5,7.8c26.4,0.2,52.4-5.9,75.9-17.8c0,0-3.9-9.5-8.9-24.6
					c-8-24.5-18.5-63.9-19.1-102c0,0-4.5,2.6-12.1-0.6c-3-1.3-5.8-3.1-8.3-5.3c-0.4-0.3-0.8-0.7-1.2-1.1c0,0-28.8,23.7-43.8,53.8
					c-16.1,32.1-24.3,27.3-32.4,51.6C182.5,489.8,192.1,503.8,192.1,503.8z"/>
				<path id="L_sleeve_4_" class="st5" d="M237.9,510.5c0.9,0.3,1.8,0.7,2.7,1c8.9,3.6,15,8.4,28.9,23.4c15.1,16.4,44.1,14,44.1,14
					l11.4-74.1c0,0-6.8-2-17.3-5.6c-2.7-1-5.7-2-8.8-3.1c-19.2-6.9-21.6-11.1-22.2-34.7c-0.7-23.7,11.9-64.2,11.9-64.2
					s-9.8,4.8-20.5-5.8c-35.4,34.7-48.1,60.2-54.9,95.5C206.2,492.3,227.4,506.8,237.9,510.5z"/>
				
					<linearGradient id="R_sleeve_1_" gradientUnits="userSpaceOnUse" x1="895.9482" y1="278.2559" x2="894.8653" y2="235.307" gradientTransform="matrix(-1 0 0 -1 1205 722)">
					<stop  offset="0" style="stop-color:#28306D"/>
					<stop  offset="0.51" style="stop-color:#1F275F"/>
					<stop  offset="1" style="stop-color:#171F51"/>
				</linearGradient>
				<path id="R_sleeve_4_" class="st13" d="M302.8,453.9c1.6,5.6,3.2,10.7,4.7,15.3c2.3,0.8,4.4,1.5,6.3,2.1l2-13.3
					C315.9,458.1,310.9,456.6,302.8,453.9z"/>
			</g>
			<g id="head_1_">
				
					<linearGradient id="neck_1_" gradientUnits="userSpaceOnUse" x1="926.1868" y1="362.457" x2="921.791" y2="377.8008" gradientTransform="matrix(-1 0 0 -1 1205 722)">
					<stop  offset="0" style="stop-color:#FFCFCA"/>
					<stop  offset="1" style="stop-color:#F1ACA7"/>
				</linearGradient>
				<path id="neck_4_" class="st14" d="M266.8,360.2c11.1,12.1,21.6,6.9,21.6,6.9c0.1-7,1.1-14,3-20.8c-0.6-0.1-1.2-0.3-1.8-0.4
					c-2.3-0.6-4.2-1.2-5.8-1.8c-0.4,2.5-0.9,5.4-1.6,8.6c-4.1-0.1-8.2-0.3-12.3-0.9L266.8,360.2z"/>
				<path id="hair_4_" class="st15" d="M225.4,335.7c20.6,17.1,56.8,17,56.8,17c0.7-3.3,1.2-6.1,1.6-8.6v0c0.3-2.2-0.6-4.4-2.4-5.7
					c-4.9-3.2-3.2-1.7-6-3.5c-0.1,0-0.2-0.1-0.3-0.2c-0.4-0.4-0.9-0.8-1.2-1.3c-0.1-0.1-0.2-0.2-0.3-0.4c-1.8-2.6-2.3-6.8,0.9-9
					c4.2-2.8,6.6-0.8,9.7-0.9c8.7-0.2,17-3.8,23.1-10c0-0.1,0.4-0.4,0.6-0.6c0.1-0.1,0.1-0.1,0.1-0.1l0.1-0.1c1-1,1.8-2,2.5-2.8
					c0.2-0.3,0.4-0.5,0.6-0.8c0.7-0.8,1.1-1.4,1.4-1.8c0.1-0.1,0.2-0.3,0.3-0.4c7.8-14.4-12-21-28.7-23.2
					c-16.7-2.3-27.5,10.4-29.1,14.7s-8.6,13.9-17.2,17.1C225,320,225.4,335.7,225.4,335.7z"/>
				<path id="face_4_" class="st11" d="M322.1,328.7c-2.9,1.5-4.3,0.8-5.1,2.6c-0.5,1.3-1.5,8.6-7.4,12.9l-0.2,0.1c0,0,0,0-0.1,0.1
					c0,0,0,0.1-0.1,0.1c-2.2,1.6-4.8,2.6-7.6,2.8c0,0,0,0,0,0c-4.1,0.4-8.2,0-12.2-1.2c-2.3-0.6-4.2-1.2-5.8-1.8
					c0.3-2.2-0.6-4.4-2.4-5.7c-4.9-3.2-3.2-1.7-6-3.5c-0.1-0.1-0.2-0.1-0.3-0.2c-0.4-0.4-0.9-0.8-1.2-1.3c-0.1-0.1-0.2-0.2-0.3-0.3
					c-1.7-2.6-2.3-6.8,0.9-9c4.2-2.8,6.6-0.8,9.7-0.9c8.7-0.2,17-3.8,23.1-10c0.1-0.1,0.6-0.6,0.7-0.7c1.8-1.8,3.5-3.8,5-5.9
					c0,0,4.6,12.2,7.9,15.5C324.2,325.4,325,327.2,322.1,328.7z"/>
				<path id="eye_2_" class="st16" d="M314,318.2c-1.8,4.1-7.2,4.3-9.7,0.3c-0.3-0.5,0.4-0.9,0.7-0.4c1.2,2.2,4,3,6.2,1.9
					c0.9-0.5,1.6-1.3,2.1-2.3C313.5,317.3,314.2,317.8,314,318.2L314,318.2z"/>
			</g>
		</g>
		<g id="L_woman_1_">
			<g id="shoes-2_1_">
				
					<linearGradient id="R_shoe-2_1_" gradientUnits="userSpaceOnUse" x1="493.7319" y1="-71.2931" x2="630.4167" y2="-197.4638" gradientTransform="matrix(-1 0 0 -1 1205 722)">
					<stop  offset="0" style="stop-color:#F1B505"/>
					<stop  offset="1" style="stop-color:#D89C05"/>
				</linearGradient>
				<path id="R_shoe-2_2_" class="st17" d="M630.1,803.4l-15.5,43.2h109.2c0,0-5.6-10.8-24.3-18.8c-18.7-8-36.1-24.4-36.1-24.4
					L630.1,803.4"/>
				<path id="L_shoe-2_2_" class="st18" d="M552,803.4l-15.5,43.2h109.2c0,0-5.6-10.8-24.3-18.8c-18.7-8-36.1-24.4-36.1-24.4
					L552,803.4"/>
			</g>
			<g id="trousers-2_1_">
				
					<linearGradient id="R_trousers-2_2_" gradientUnits="userSpaceOnUse" x1="523.748" y1="-71.5772" x2="596.0316" y2="108.4742" gradientTransform="matrix(-1 0 0 -1 1205 722)">
					<stop  offset="0" style="stop-color:#28306D"/>
					<stop  offset="0.51" style="stop-color:#1F275F"/>
					<stop  offset="1" style="stop-color:#171F51"/>
				</linearGradient>
				<path id="R_trousers-2_1_" class="st19" d="M584.6,553.3c13.2,57.8,14.2,49.7,12.2,90.2c-2,40.5,4.6,26.8,6.6,69.4
					c2,42.6-0.6,63.6,26.8,90.4h33.4c0,0,2.7-129.8,2.1-166.5c-0.4-25.7-8.5-51.7-13.1-72.9l-20.1,23.2c0,0-25.7-13.5-29.5-35.5
					c-3.9-22-6.6-28.7-13.4-37.6c-2.6-3.5-4.7-7.5-6-11.6C580.2,519.3,580.6,536.7,584.6,553.3z"/>
				<path id="L_trousers-2_2_" class="st15" d="M552,803.4h33.4c0,0,52.6-126.8,55.3-154.4c2.1-21.9,1.2-47.1-1.1-70.1l-7.2,8.3
					c0,0-25.7-13.5-29.5-35.5c-3.9-22-6.6-28.7-13.4-37.6c-2.1-2.8-3.8-5.9-5.1-9.2c-6.4-0.8-11.8-1.8-16.3-2.8
					c-6.9,25.6-6,52.7,2.5,77.8c21,63,6.6,60-0.2,79.1c-6.8,19.1-10.5,30.7-8.9,48.7c1.6,18-6.3,13.3-10.5,36.5
					C546.7,767.6,552,803.4,552,803.4z"/>
			</g>
			
				<linearGradient id="R_hand-2_2_" gradientUnits="userSpaceOnUse" x1="484.7818" y1="176.4328" x2="555.6385" y2="169.551" gradientTransform="matrix(-1 0 0 -1 1205 722)">
				<stop  offset="0" style="stop-color:#FFCFCA"/>
				<stop  offset="1" style="stop-color:#F1ACA7"/>
			</linearGradient>
			<path id="R_hand-2_1_" class="st20" d="M693.8,511.5c0,0,14.6,18.1,25.1,25.9c10.5,7.8,11.7,7.2,17.8,3.7s15-6.6,17.1-8.6
				c2.2-2,5.6-1,2.6,5.1c-3,6.1-11.3,7.4-8.8,11.9s12.5,6.4,22,9.1c9.6,2.7,14.7,4.5,2.5,13.3s-24.4,12.2-47-7.8
				c-15.6-14-34.4-23.9-54.7-28.9L693.8,511.5z"/>
			<path id="texture-2_2_" class="st21" d="M584.5,518.6L584.5,518.6c0,0.1,0.1,0.2,0.2,0.2c0,0,0,0,0,0c0.1,0,0.2-0.1,0.2-0.2l0,0
				c0-0.1-0.1-0.2-0.2-0.2C584.6,518.4,584.5,518.5,584.5,518.6z M589,518.1c0,0.1,0.1,0.2,0.2,0.2c0.1,0,0.2-0.1,0.2-0.2
				c0-0.1-0.1-0.2-0.2-0.2C589,517.9,589,518,589,518.1z M593.5,517.4C593.5,517.4,593.5,517.4,593.5,517.4c-0.1,0-0.2,0.1-0.1,0.2
				v0c0,0.1,0.1,0.2,0.2,0.2l0,0c0.1,0,0.2-0.1,0.2-0.2C593.7,517.5,593.6,517.4,593.5,517.4L593.5,517.4z M597.8,517.2
				c0,0.1,0.1,0.2,0.2,0.2c0.1,0,0.2-0.1,0.2-0.2c0-0.1-0.1-0.2-0.2-0.2C597.8,517,597.8,517.1,597.8,517.2z M602.3,516.5
				L602.3,516.5c-0.1,0-0.2,0.1-0.2,0.2c0,0.1,0.1,0.2,0.2,0.2c0.1,0,0.2-0.1,0.2-0.2C602.5,516.5,602.5,516.5,602.3,516.5
				L602.3,516.5z M593.6,534.9L593.6,534.9c-0.1,0.1,0,0.2,0,0.3l0,0c0.1,0.1,0.2,0.1,0.3,0c0.1-0.1,0-0.2,0-0.3
				C593.8,534.8,593.7,534.8,593.6,534.9L593.6,534.9z M596.4,531.4L596.4,531.4c-0.1,0.1,0,0.2,0,0.3c0.1,0.1,0.2,0,0.3,0
				c0.1-0.1,0-0.2,0-0.3c0,0,0,0,0,0C596.5,531.3,596.4,531.3,596.4,531.4L596.4,531.4z M599.1,527.9c-0.1,0.1,0,0.2,0,0.3l0,0
				c0.1,0.1,0.2,0.1,0.3,0c0.1-0.1,0-0.2,0-0.3C599.3,527.8,599.2,527.8,599.1,527.9L599.1,527.9z M601.9,524.5
				c-0.1,0.1,0,0.2,0,0.3l0,0c0.1,0.1,0.2,0,0.3,0c0.1-0.1,0-0.2,0-0.3l0,0C602.1,524.4,602,524.4,601.9,524.5L601.9,524.5z
				 M611.7,540C611.7,540,611.7,540,611.7,540c-0.1,0-0.2,0.1-0.2,0.2c0,0.1,0.1,0.2,0.2,0.2c0,0,0,0,0,0c0.1,0,0.2-0.1,0.1-0.2
				C611.8,540,611.8,540,611.7,540L611.7,540z M587.7,509.4c0,0.1,0,0.2,0.1,0.2l0,0c0.1,0,0.2,0,0.2-0.1c0-0.1,0-0.2-0.1-0.2
				C587.8,509.3,587.7,509.3,587.7,509.4z M592,510.6C592,510.6,592,510.6,592,510.6c-0.1,0.1-0.1,0.1,0,0.2c0,0.1,0.1,0.1,0.1,0.1
				l0,0c0.1,0,0.2,0,0.2-0.1c0,0,0,0,0,0c0-0.1,0-0.2-0.1-0.2C592.1,510.5,592.1,510.5,592,510.6L592,510.6z M596.5,511.8
				c-0.1,0-0.2,0-0.2,0.1l0,0c0,0.1,0,0.2,0.1,0.2c0,0,0,0,0,0c0.1,0,0.2,0,0.2-0.1C596.6,511.9,596.6,511.8,596.5,511.8
				L596.5,511.8z M589.5,526.2C589.5,526.2,589.5,526.2,589.5,526.2c-0.1,0.1-0.1,0.2-0.1,0.2c0,0.1,0.1,0.1,0.2,0.1
				c0.1,0,0.1-0.2,0.1-0.2C589.7,526.2,589.6,526.2,589.5,526.2L589.5,526.2z M593.4,524.1C593.4,524.1,593.4,524.1,593.4,524.1
				c-0.1,0.1-0.1,0.2-0.1,0.3c0,0.1,0.1,0.1,0.2,0.1h0c0,0,0,0,0,0c0,0,0.1-0.1,0.1-0.1c0,0,0-0.1,0-0.1
				C593.6,524,593.5,524,593.4,524.1L593.4,524.1z M597.3,521.9L597.3,521.9c-0.1,0-0.1,0.2-0.1,0.3c0,0.1,0.2,0.1,0.2,0.1l0,0
				c0.1-0.1,0.1-0.2,0.1-0.2C597.5,521.9,597.4,521.9,597.3,521.9L597.3,521.9z M601.2,519.8C601.2,519.8,601.2,519.8,601.2,519.8
				c-0.1,0-0.1,0.2-0.1,0.3c0,0,0,0,0,0c0,0.1,0.1,0.1,0.2,0.1h0c0.1-0.1,0.1-0.2,0.1-0.3C601.4,519.8,601.3,519.7,601.2,519.8
				L601.2,519.8z M602.6,537c0,0.1,0,0.2,0.1,0.2c0.1,0,0.2,0,0.2-0.1c0-0.1,0-0.2-0.1-0.2C602.7,536.9,602.6,536.9,602.6,537z
				 M604.1,532.6c-0.1,0-0.2,0-0.2,0.1l0,0c0,0.1,0,0.2,0.1,0.2h0c0.1,0,0.2,0,0.2-0.1C604.2,532.8,604.2,532.7,604.1,532.6
				L604.1,532.6z M569.2,500.1c-0.1,0.2-0.1,0.4-0.2,0.6c0,0,0,0,0,0s0,0,0,0c0.2,0.1,0.4,0,0.4-0.2c0.1-0.2,0-0.4-0.2-0.5
				C569.2,500.1,569.2,500.1,569.2,500.1L569.2,500.1z M577.2,503c-0.2-0.1-0.4,0-0.5,0.2c0,0.1,0,0.1,0,0.2c0,0.1,0.1,0.2,0.2,0.3
				l0,0c0.2,0.1,0.4,0,0.5-0.2l0,0C577.4,503.2,577.3,503,577.2,503L577.2,503z M585.1,505.9C585,505.9,585,505.8,585.1,505.9
				c-0.2-0.1-0.4,0-0.5,0.2s0,0.4,0.2,0.5l0,0c0.2,0.1,0.4,0,0.4-0.2C585.3,506.1,585.2,505.9,585.1,505.9L585.1,505.9z
				 M570.3,529.1C570.3,529.1,570.2,529.1,570.3,529.1c-0.2,0.1-0.3,0.3-0.2,0.4c0,0,0,0,0,0c0.1,0.2,0.3,0.2,0.5,0.2l0,0
				c0.2-0.1,0.2-0.3,0.2-0.5c0,0,0,0,0,0C570.6,529,570.4,529,570.3,529.1L570.3,529.1z M577.9,525.5c-0.2,0.1-0.3,0.3-0.2,0.5
				c0,0,0,0,0,0c0.1,0.2,0.3,0.3,0.5,0.2c0.2-0.1,0.3-0.3,0.2-0.5l0,0C578.3,525.5,578,525.4,577.9,525.5L577.9,525.5z M585.5,521.9
				C585.5,521.9,585.5,521.9,585.5,521.9c-0.2,0.1-0.3,0.3-0.2,0.5l0,0c0.1,0.2,0.3,0.3,0.5,0.2c0.2-0.1,0.3-0.3,0.2-0.5
				C585.9,521.9,585.7,521.9,585.5,521.9L585.5,521.9z M593.1,518.4c-0.1,0.1-0.2,0.2-0.2,0.4c0,0.2,0.2,0.3,0.4,0.3
				c0,0,0.1,0,0.1,0c0.1,0,0.1-0.1,0.2-0.1h0c0.1-0.1,0.1-0.2,0-0.3c0,0,0,0,0,0C593.5,518.4,593.3,518.3,593.1,518.4L593.1,518.4z
				 M600.8,514.8C600.7,514.8,600.7,514.8,600.8,514.8c-0.2,0.1-0.3,0.3-0.2,0.5l0,0c0.1,0.2,0.3,0.3,0.5,0.2
				c0.2-0.1,0.3-0.3,0.2-0.5c0,0,0,0,0,0C601.1,514.8,600.9,514.8,600.8,514.8L600.8,514.8z M589,556.5L589,556.5
				c-0.2-0.1-0.4,0-0.4,0.2s0,0.4,0.2,0.5c0,0,0,0,0,0c0.2,0.1,0.4,0,0.4-0.2C589.3,556.8,589.2,556.6,589,556.5L589,556.5z
				 M591.9,548.6c-0.2-0.1-0.4,0-0.5,0.2c-0.1,0.2,0,0.4,0.2,0.4s0.4,0,0.5-0.2l0,0C592.1,548.9,592,548.7,591.9,548.6L591.9,548.6z
				 M594.8,540.7c-0.2-0.1-0.4,0-0.4,0.2v0c-0.1,0.2,0,0.4,0.2,0.4c0,0,0,0,0,0c0.2,0.1,0.4,0,0.4-0.2
				C595,541,594.9,540.8,594.8,540.7L594.8,540.7z M597.6,532.8c-0.2-0.1-0.4,0-0.5,0.2s0,0.4,0.2,0.5c0.2,0.1,0.4,0,0.5-0.2l0,0
				C597.9,533.1,597.8,532.9,597.6,532.8L597.6,532.8z M600.5,524.9c-0.2-0.1-0.4,0-0.5,0.2c0,0,0,0,0,0c-0.1,0.2,0,0.4,0.2,0.4
				s0.4,0,0.4-0.2C600.8,525.2,600.7,525,600.5,524.9L600.5,524.9z M570.7,514.2c-0.2,0-0.3,0.2-0.3,0.4s0.2,0.3,0.4,0.3
				c0.2,0,0.3-0.2,0.3-0.4S570.9,514.1,570.7,514.2L570.7,514.2z M579.1,513.8C579.1,513.8,579.1,513.8,579.1,513.8
				c-0.2,0-0.3,0.2-0.3,0.3c0,0,0,0,0,0c0,0.2,0.2,0.3,0.4,0.3c0.2,0,0.3-0.2,0.3-0.4c0,0,0,0,0,0
				C579.5,513.9,579.3,513.8,579.1,513.8L579.1,513.8z M587.5,513.4c-0.2,0-0.3,0.2-0.3,0.4c0,0,0,0,0,0c0,0.2,0.2,0.3,0.4,0.3l0,0
				c0.2,0,0.3-0.2,0.3-0.4c0,0,0,0,0,0C587.9,513.6,587.7,513.4,587.5,513.4L587.5,513.4z M595.9,513.1c-0.2,0-0.3,0.2-0.3,0.4
				c0,0.2,0.2,0.3,0.3,0.3c0.2,0,0.4-0.2,0.3-0.3C596.3,513.2,596.1,513.1,595.9,513.1L595.9,513.1z M575.4,543.9
				c-0.1,0.1-0.1,0.4,0,0.5c0,0,0,0,0,0c0.1,0.1,0.4,0.1,0.5,0c0.1-0.1,0.1-0.4,0-0.5C575.8,543.8,575.5,543.8,575.4,543.9
				L575.4,543.9z M581.1,538.2C581.1,538.2,581.1,538.2,581.1,538.2c0.1,0.1,0.4,0.1,0.5,0c0.1-0.2,0.1-0.4,0-0.5
				c-0.1-0.1-0.4-0.1-0.5,0C581,537.9,581,538.1,581.1,538.2z M586.8,531.5c-0.1,0.2-0.1,0.4,0,0.5c0.1,0.1,0.4,0.1,0.5,0
				c0.1-0.1,0.1-0.4,0-0.5C587.1,531.4,586.9,531.4,586.8,531.5L586.8,531.5z M592.5,525.3C592.5,525.3,592.5,525.3,592.5,525.3
				c-0.1,0.2-0.1,0.4,0,0.5c0,0,0,0,0,0c0.1,0.1,0.4,0.1,0.5,0c0,0,0,0,0,0c0.1-0.1,0.1-0.4,0-0.5
				C592.8,525.2,592.6,525.2,592.5,525.3L592.5,525.3z M598.2,519.1c-0.1,0.1-0.1,0.4,0,0.5c0.1,0.1,0.4,0.1,0.5,0
				c0.1-0.1,0.1-0.3,0-0.5C598.5,519,598.3,519,598.2,519.1L598.2,519.1z M605.8,555.1c-0.2,0-0.3,0.2-0.3,0.4
				c0,0.2,0.2,0.3,0.4,0.3l0,0c0.2,0,0.3-0.2,0.3-0.4c0,0,0,0,0,0C606.2,555.2,606,555.1,605.8,555.1L605.8,555.1z M605.5,546.7
				C605.5,546.7,605.4,546.7,605.5,546.7c-0.2,0-0.3,0.2-0.3,0.4c0,0.2,0.2,0.3,0.4,0.3c0.2,0,0.3-0.2,0.3-0.4c0,0,0,0,0,0
				C605.8,546.8,605.6,546.7,605.5,546.7L605.5,546.7z M605.1,538.3c-0.2,0-0.3,0.2-0.3,0.4c0,0,0,0,0,0c0,0.2,0.2,0.3,0.3,0.3
				c0,0,0,0,0,0c0.2,0,0.3-0.2,0.3-0.4C605.4,538.4,605.3,538.3,605.1,538.3L605.1,538.3z M604.7,529.9c-0.2,0-0.3,0.2-0.3,0.4
				c0,0.2,0.2,0.3,0.4,0.3c0,0,0,0,0,0c0.2,0,0.3-0.2,0.3-0.3C605.1,530,604.9,529.9,604.7,529.9L604.7,529.9z M567,508.9
				c0,0.1,0,0.2-0.1,0.4c0.1-0.1,0.1-0.1,0.1-0.2C567,509,567,509,567,508.9L567,508.9z M574.2,509.2c-0.2,0-0.3,0.1-0.3,0.3
				c0,0.2,0.1,0.3,0.3,0.3c0.2,0,0.3-0.1,0.3-0.3C574.5,509.3,574.4,509.2,574.2,509.2C574.2,509.2,574.2,509.2,574.2,509.2z
				 M581.7,509.5L581.7,509.5c-0.2,0-0.3,0.1-0.3,0.3c0,0,0,0,0,0c0,0.2,0.1,0.3,0.3,0.3c0.2,0,0.3-0.1,0.3-0.3
				C582,509.7,581.9,509.6,581.7,509.5L581.7,509.5z M588.9,510.2c0,0.2,0.1,0.3,0.3,0.3c0.2,0,0.3-0.1,0.3-0.3c0-0.1,0-0.1,0-0.2
				c0-0.1-0.2-0.2-0.3-0.2C589,509.9,588.9,510.1,588.9,510.2z M569.5,538.7c0.1,0.1,0.3,0.1,0.4,0l0,0c0.1-0.1,0.1-0.3,0-0.4
				c-0.1-0.1-0.3-0.1-0.4,0S569.4,538.5,569.5,538.7z M575.1,533.2C575.1,533.2,575.1,533.2,575.1,533.2c-0.1,0.1-0.1,0.3,0,0.4l0,0
				c0.1,0.1,0.3,0.1,0.4,0c0.1-0.1,0.1-0.3,0-0.4C575.4,533.1,575.3,533.1,575.1,533.2L575.1,533.2z M580.7,528.2
				c-0.1,0.1-0.1,0.2-0.1,0.2c0,0.1,0,0.2,0.1,0.2c0.1,0.1,0.3,0.1,0.4,0l0,0c0.1-0.1,0.1-0.3,0-0.5c-0.1-0.1-0.2-0.1-0.3-0.1h0
				C580.8,528.1,580.7,528.1,580.7,528.2L580.7,528.2z M586.3,523.2L586.3,523.2c-0.1,0.1-0.1,0.3,0,0.5l0,0c0.1,0.1,0.3,0.1,0.4,0
				s0.1-0.3,0-0.4C586.6,523.1,586.4,523,586.3,523.2L586.3,523.2z M591.8,518.1c-0.1,0.1-0.1,0.3,0,0.5c0.1,0.1,0.3,0.1,0.4,0
				c0.1-0.1,0.1-0.3,0-0.4C592.2,518,592,518,591.8,518.1L591.8,518.1z M597.4,513.1c-0.1,0.1-0.1,0.3,0,0.4c0.1,0.1,0.3,0.1,0.4,0
				c0.1-0.1,0.1-0.3,0-0.4C597.8,513,597.6,513,597.4,513.1L597.4,513.1z M598.3,551.7c-0.2,0-0.3,0.1-0.3,0.3
				c0,0.2,0.1,0.3,0.3,0.3h0c0.2,0,0.3-0.1,0.3-0.3c0,0,0,0,0,0C598.6,551.9,598.5,551.8,598.3,551.7L598.3,551.7z M598.7,544.3
				c-0.2,0-0.3,0.1-0.3,0.3c0,0.2,0.1,0.3,0.3,0.3h0c0.2,0,0.3-0.1,0.3-0.3c0,0,0,0,0,0C599,544.4,598.8,544.3,598.7,544.3
				L598.7,544.3z M599.1,536.8c-0.2,0-0.3,0.1-0.3,0.3c0,0,0,0,0,0c0,0.2,0.1,0.3,0.3,0.3c0,0,0,0,0,0c0.2,0,0.3-0.1,0.3-0.3
				c0,0,0,0,0,0C599.4,536.9,599.2,536.8,599.1,536.8L599.1,536.8z M599.5,529.3c-0.2,0-0.3,0.1-0.3,0.3c0,0.2,0.1,0.3,0.3,0.3
				c0.2,0,0.3-0.1,0.3-0.3C599.8,529.4,599.6,529.3,599.5,529.3L599.5,529.3z M599.8,521.8c-0.2,0-0.3,0.1-0.3,0.3c0,0,0,0,0,0
				c0,0.2,0.1,0.3,0.3,0.3c0.2,0,0.3-0.1,0.3-0.3C600.2,521.9,600,521.8,599.8,521.8L599.8,521.8z M600.3,514.3
				c-0.2,0-0.3,0.1-0.3,0.3l0,0c0,0.2,0.1,0.3,0.3,0.3c0.2,0,0.3-0.1,0.3-0.3C600.5,514.4,600.4,514.3,600.3,514.3L600.3,514.3z
				 M571.6,520.1c-0.2,0.1-0.2,0.2-0.2,0.4c0,0,0,0,0,0c0.1,0.2,0.2,0.2,0.4,0.2c0,0,0,0,0,0c0.1-0.1,0.2-0.2,0.2-0.4v0
				C572,520.2,571.8,520.1,571.6,520.1L571.6,520.1z M578.7,517.6c-0.2,0.1-0.2,0.2-0.2,0.4c0,0.2,0.2,0.3,0.4,0.2
				c0.2-0.1,0.3-0.2,0.2-0.4C579,517.7,578.9,517.6,578.7,517.6L578.7,517.6z M585.8,515.1C585.8,515.1,585.8,515.1,585.8,515.1
				c-0.2,0.1-0.3,0.2-0.2,0.4c0.1,0.2,0.2,0.3,0.4,0.2c0.2-0.1,0.3-0.2,0.2-0.4l0,0C586.1,515.2,586,515.1,585.8,515.1L585.8,515.1z
				 M592.9,512.6C592.9,512.6,592.8,512.6,592.9,512.6c-0.2,0.1-0.2,0.3-0.2,0.4c0.1,0.2,0.2,0.2,0.4,0.2c0.2-0.1,0.2-0.2,0.2-0.4
				C593.2,512.6,593,512.6,592.9,512.6L592.9,512.6z M583.8,544.2c-0.2-0.1-0.3,0-0.4,0.1c-0.1,0.2,0,0.3,0.2,0.4
				c0.2,0.1,0.3,0,0.4-0.1C584.1,544.4,584,544.2,583.8,544.2L583.8,544.2z M587.1,537.4c-0.2-0.1-0.3,0-0.4,0.2c0,0,0,0,0,0
				c-0.1,0.2,0,0.3,0.2,0.4c0.1,0.1,0.3,0,0.4-0.1C587.3,537.6,587.2,537.5,587.1,537.4L587.1,537.4z M590.3,530.6
				C590.3,530.6,590.3,530.6,590.3,530.6c-0.2-0.1-0.3,0-0.4,0.1l0,0c-0.1,0.2,0,0.3,0.1,0.4c0.2,0.1,0.3,0,0.4-0.2c0,0,0,0,0,0
				C590.5,530.9,590.5,530.7,590.3,530.6L590.3,530.6z M593.5,523.8c-0.1-0.1-0.3,0-0.4,0.1c-0.1,0.1,0,0.3,0.1,0.4
				c0.1,0,0.2,0.1,0.3,0h0c0.1,0,0.1-0.1,0.1-0.1C593.8,524.1,593.7,523.9,593.5,523.8L593.5,523.8z M596.8,517.1
				c-0.2-0.1-0.3,0-0.4,0.1c-0.1,0.2,0,0.4,0.2,0.4c0.2,0.1,0.3,0,0.4-0.2c0,0,0-0.1,0-0.1c0,0-0.1-0.1-0.1-0.2
				C596.8,517.1,596.8,517.1,596.8,517.1L596.8,517.1z M612.3,545.9C612.3,545.9,612.3,545.9,612.3,545.9c-0.2,0.1-0.2,0.3-0.2,0.4
				c0,0,0,0,0,0c0.1,0.2,0.2,0.2,0.4,0.2h0c0.2-0.1,0.2-0.2,0.2-0.4C612.6,545.9,612.4,545.8,612.3,545.9L612.3,545.9z M609.8,538.8
				C609.8,538.8,609.8,538.8,609.8,538.8c-0.2,0.1-0.3,0.3-0.2,0.4c0.1,0.2,0.2,0.3,0.4,0.2c0.2-0.1,0.2-0.2,0.2-0.4
				C610.1,538.9,610,538.8,609.8,538.8L609.8,538.8z M602.3,517.6c-0.2,0.1-0.2,0.2-0.2,0.4c0,0.2,0.2,0.3,0.4,0.2
				c0.2-0.1,0.3-0.2,0.2-0.4C602.6,517.6,602.4,517.5,602.3,517.6L602.3,517.6z M572.6,502.2L572.6,502.2c-0.1,0-0.2,0-0.2,0.1l0,0
				c0,0.1,0,0.2,0.1,0.2c0.1,0,0.2,0,0.2-0.1l0,0C572.7,502.3,572.7,502.2,572.6,502.2L572.6,502.2z M576.7,503.3
				C576.7,503.4,576.6,503.4,576.7,503.3L576.7,503.3c-0.1,0.2,0,0.3,0.1,0.3c0,0,0.1,0,0.1,0c0,0,0.1-0.1,0.1-0.1l0,0
				c0-0.1,0-0.2-0.1-0.2C576.8,503.3,576.7,503.3,576.7,503.3L576.7,503.3z M581.1,504.4c-0.1,0-0.2,0.1-0.2,0.1
				c0,0.1,0,0.2,0.1,0.2c0.1,0,0.2,0,0.2-0.1C581.3,504.5,581.3,504.4,581.1,504.4L581.1,504.4z M575.2,520.7
				c-0.1,0-0.1,0.2-0.1,0.3l0,0c0,0.1,0.2,0.1,0.3,0.1c0.1,0,0.1-0.2,0.1-0.3C575.4,520.6,575.3,520.6,575.2,520.7L575.2,520.7z
				 M579,518.4c-0.1,0.1-0.1,0.2-0.1,0.3l0,0c0,0.1,0.2,0.1,0.3,0.1c0.1,0,0.1-0.2,0.1-0.3C579.2,518.4,579,518.3,579,518.4
				L579,518.4z M582.8,516.1C582.8,516.1,582.8,516.1,582.8,516.1c-0.1,0.1-0.1,0.2-0.1,0.3c0,0.1,0.2,0.1,0.2,0.1c0,0,0,0,0,0
				c0.1-0.1,0.1-0.2,0-0.2C583,516.1,582.8,516.1,582.8,516.1L582.8,516.1z M586.6,513.8c-0.1,0.1-0.1,0.2-0.1,0.3
				c0,0.1,0.2,0.1,0.2,0.1c0,0,0,0,0,0c0.1,0,0.1-0.2,0.1-0.3C586.8,513.8,586.6,513.8,586.6,513.8L586.6,513.8z M590.4,511.5
				c-0.1,0.1-0.1,0.2-0.1,0.3c0,0.1,0.2,0.1,0.3,0.1c0.1,0,0.1-0.2,0.1-0.2c0,0,0,0,0,0C590.6,511.5,590.5,511.5,590.4,511.5
				L590.4,511.5z M590.3,531.7L590.3,531.7c-0.1,0-0.2,0-0.2,0.1l0,0c0,0.1,0,0.2,0.1,0.2c0.1,0,0.2,0,0.2-0.1
				C590.5,531.9,590.4,531.8,590.3,531.7L590.3,531.7z M591.4,527.5L591.4,527.5c-0.1,0-0.2,0-0.2,0.1c0,0.1,0,0.2,0.1,0.2l0,0
				c0.1,0,0.2,0,0.2-0.1v0C591.5,527.6,591.5,527.5,591.4,527.5L591.4,527.5z M592.4,523.2c-0.1,0-0.2,0-0.2,0.1
				c0,0.1,0,0.2,0.1,0.2c0.1,0,0.2,0,0.2-0.1v0C592.6,523.3,592.5,523.2,592.4,523.2L592.4,523.2z M593.5,518.9L593.5,518.9
				c-0.1,0-0.2,0-0.2,0.1l0,0.1c0,0.1,0.1,0.1,0.1,0.2l0,0c0.1,0,0.2,0,0.2-0.1C593.7,519,593.6,518.9,593.5,518.9L593.5,518.9
				C593.5,518.9,593.5,518.9,593.5,518.9L593.5,518.9z M594.6,514.6c-0.1,0-0.2,0-0.2,0.1c0,0.1,0,0.2,0.1,0.2c0.1,0,0.2,0,0.2-0.1
				C594.7,514.7,594.7,514.6,594.6,514.6C594.6,514.6,594.6,514.6,594.6,514.6z M601.8,517.6C601.8,517.6,601.8,517.6,601.8,517.6
				c-0.1,0.1-0.1,0.2-0.1,0.3c0.1,0.1,0.2,0.1,0.3,0.1c0.1-0.1,0.1-0.2,0.1-0.3C602,517.6,601.8,517.6,601.8,517.6L601.8,517.6z
				 M599.5,513.8c-0.1,0.1-0.1,0.2-0.1,0.3c0,0.1,0.2,0.1,0.3,0.1c0.1,0,0.1-0.2,0.1-0.3C599.7,513.8,599.6,513.8,599.5,513.8
				L599.5,513.8z M574.3,511c-0.1,0-0.2,0.1-0.2,0.2c0,0.1,0.1,0.2,0.2,0.1c0.1,0,0.2-0.1,0.2-0.2c0,0,0,0,0,0
				C574.5,511.1,574.4,511,574.3,511L574.3,511z M578.7,510.4L578.7,510.4c-0.1,0-0.2,0.1-0.2,0.2c0,0.1,0.1,0.2,0.2,0.1
				c0,0,0,0,0,0c0.1,0,0.2-0.1,0.1-0.2c0,0,0,0,0,0C578.9,510.4,578.8,510.4,578.7,510.4L578.7,510.4z M583.1,509.7
				c-0.1,0-0.2,0.1-0.2,0.2v0c0,0.1,0.1,0.2,0.2,0.1c0,0,0,0,0,0c0.1,0,0.1-0.1,0.1-0.2c0,0,0,0,0,0
				C583.3,509.8,583.2,509.7,583.1,509.7L583.1,509.7z M587.4,509.1c-0.1,0-0.2,0.1-0.2,0.2c0,0.1,0.1,0.2,0.2,0.2
				c0.1,0,0.2-0.1,0.2-0.2C587.6,509.1,587.5,509.1,587.4,509.1L587.4,509.1z M582.8,525.7c-0.1,0.1,0,0.2,0,0.3c0.1,0,0.2,0,0.3,0
				c0,0,0,0,0,0c0.1-0.1,0-0.2,0-0.3l0,0C582.9,525.6,582.8,525.6,582.8,525.7L582.8,525.7z M585.4,522.2
				C585.4,522.2,585.4,522.2,585.4,522.2c-0.1,0.1,0,0.2,0,0.3c0.1,0,0.2,0,0.3,0c0.1-0.1,0-0.2,0-0.3c0,0,0,0,0,0
				C585.6,522.1,585.5,522.1,585.4,522.2L585.4,522.2z M588,518.6c-0.1,0.1,0,0.2,0,0.3l0,0c0.1,0.1,0.2,0,0.2,0
				c0.1-0.1,0-0.2,0-0.3C588.2,518.5,588.1,518.5,588,518.6C588.1,518.6,588.1,518.6,588,518.6z M590.7,515c-0.1,0.1,0,0.2,0,0.3
				l0,0c0.1,0.1,0.2,0,0.2,0c0.1-0.1,0-0.2,0-0.3C590.9,514.9,590.8,515,590.7,515L590.7,515z M593.3,511.5c0,0.1,0,0.2,0,0.3
				c0,0,0,0,0,0c0.1,0.1,0.2,0,0.3,0l0,0c0-0.1,0-0.2,0-0.2C593.5,511.4,593.4,511.4,593.3,511.5L593.3,511.5z M599.2,530.1
				c0,0.1,0.1,0.2,0.2,0.1c0.1,0,0.2-0.1,0.2-0.2c0,0,0,0,0,0c0-0.1-0.1-0.2-0.2-0.1C599.2,529.9,599.1,530,599.2,530.1z
				 M598.6,525.5c-0.1,0-0.2,0.1-0.1,0.2c0,0.1,0.1,0.2,0.2,0.2l0,0c0.1,0,0.2-0.1,0.1-0.2c0,0,0,0,0,0
				C598.8,525.6,598.8,525.5,598.6,525.5C598.7,525.5,598.7,525.5,598.6,525.5z M597.8,521.3C597.8,521.3,597.8,521.3,597.8,521.3
				c0,0.1,0.1,0.2,0.2,0.2c0.1,0,0.2-0.1,0.1-0.2c0-0.1-0.1-0.2-0.2-0.1C597.9,521.2,597.8,521.2,597.8,521.3z M597.3,516.8
				c0,0-0.1,0.1,0,0.1c0,0,0,0,0,0c0,0.1,0.1,0.2,0.2,0.1c0.1,0,0.1-0.1,0.1-0.1c0,0,0-0.1,0-0.1c0-0.1-0.1-0.2-0.2-0.2
				C597.3,516.8,597.3,516.8,597.3,516.8L597.3,516.8L597.3,516.8z M596.7,512.4c-0.1,0-0.2,0.1-0.2,0.2c0,0.1,0.1,0.2,0.2,0.2
				c0,0,0,0,0,0c0.1,0,0.2-0.1,0.2-0.2c0,0,0,0,0,0C596.9,512.4,596.8,512.4,596.7,512.4L596.7,512.4z M600.1,515.1
				c-0.1,0.1-0.1,0.2,0,0.3l0,0c0.1,0.1,0.2,0.1,0.3,0c0.1-0.1,0.1-0.2,0-0.3C600.3,515,600.2,515,600.1,515.1L600.1,515.1z
				 M569.2,504.1L569.2,504.1c-0.1,0-0.2,0.1-0.2,0.2c0,0.1,0.1,0.2,0.2,0.2c0.1,0,0.2-0.1,0.2-0.2l0,0
				C569.4,504.2,569.3,504.1,569.2,504.1L569.2,504.1z M574.2,504.4C574.2,504.4,574.2,504.4,574.2,504.4c-0.1,0-0.2,0.1-0.2,0.2
				c0,0.1,0.1,0.2,0.2,0.2c0.1,0,0.2-0.1,0.2-0.2l0,0C574.4,504.5,574.3,504.4,574.2,504.4L574.2,504.4z M579.3,504.8
				C579.3,504.8,579.2,504.8,579.3,504.8c-0.1,0-0.2,0.1-0.2,0.2c0,0.1,0.1,0.2,0.2,0.2c0.1,0,0.2-0.1,0.2-0.2l0,0
				C579.5,504.9,579.4,504.8,579.3,504.8L579.3,504.8z M570.9,524c-0.1,0.1-0.1,0.2,0,0.3l0,0c0.1,0.1,0.2,0.1,0.3,0c0,0,0,0,0,0
				c0.1-0.1,0.1-0.2,0-0.3l0,0C571.1,523.9,571,523.9,570.9,524L570.9,524z M574.7,520.6L574.7,520.6c-0.1,0.1-0.1,0.2,0,0.3
				c0.1,0.1,0.2,0.1,0.3,0c0.1-0.1,0.1-0.2,0-0.3l0,0C574.9,520.6,574.8,520.6,574.7,520.6L574.7,520.6z M578.5,517.3
				c-0.1,0.1-0.1,0.2,0,0.3c0.1,0.1,0.2,0.1,0.3,0c0,0,0,0,0,0l0,0c0.1-0.1,0.1-0.2,0-0.3C578.7,517.2,578.5,517.2,578.5,517.3
				L578.5,517.3z M582.2,514.2c0.1,0.1,0.2,0.1,0.3,0c0.1-0.1,0.1-0.2,0-0.3c0-0.1-0.1-0.1-0.2-0.1c0,0,0,0,0,0l-0.1,0
				C582.2,514,582.1,514.2,582.2,514.2z M586,510.6c-0.1,0.1-0.1,0.2,0,0.3c0,0,0,0,0,0c0.1,0.1,0.2,0.1,0.3,0l0,0
				c0.1-0.1,0.1-0.2,0-0.3C586.3,510.5,586.1,510.5,586,510.6L586,510.6z M590.1,533.3L590.1,533.3c-0.1,0-0.2,0.1-0.2,0.2
				c0,0,0,0,0,0c0,0.1,0.1,0.2,0.2,0.2s0.2-0.1,0.2-0.2C590.3,533.4,590.3,533.3,590.1,533.3L590.1,533.3z M590.5,528.2
				c-0.1,0-0.2,0.1-0.2,0.2l0,0c0,0.1,0.1,0.2,0.2,0.2c0.1,0,0.2-0.1,0.2-0.2C590.6,528.4,590.6,528.3,590.5,528.2L590.5,528.2z
				 M590.8,523.2c-0.1,0-0.2,0.1-0.2,0.2c0,0,0,0,0,0c0,0.1,0.1,0.2,0.2,0.2s0.2-0.1,0.2-0.2C591,523.3,590.9,523.2,590.8,523.2
				L590.8,523.2z M591.1,518.2c-0.1,0-0.2,0.1-0.2,0.2c0,0,0,0,0,0c0,0.1,0.1,0.2,0.2,0.2c0.1,0,0.2-0.1,0.2-0.2
				C591.3,518.3,591.2,518.2,591.1,518.2L591.1,518.2z M591.4,513.1c-0.1,0-0.2,0.1-0.2,0.2c0,0,0,0,0,0c0,0.1,0.1,0.2,0.2,0.2
				c0.1,0,0.2-0.1,0.2-0.2C591.6,513.2,591.5,513.1,591.4,513.1L591.4,513.1z M568,513.5c-0.1,0-0.2,0.1-0.1,0.3v0
				c0,0.1,0.2,0.2,0.3,0.1s0.2-0.2,0.1-0.3c0,0,0,0,0,0C568.2,513.5,568.1,513.4,568,513.5L568,513.5z M572.8,511.8
				c-0.1,0-0.2,0.2-0.1,0.3c0,0.1,0.2,0.2,0.3,0.1h0c0.1,0,0.2-0.2,0.1-0.3C573,511.9,572.9,511.8,572.8,511.8L572.8,511.8z
				 M577.6,510.2c-0.1,0-0.2,0.2-0.1,0.3c0,0,0,0,0,0c0,0.1,0.1,0.1,0.3,0.1h0c0.1,0,0.2-0.1,0.1-0.3
				C577.8,510.2,577.7,510.2,577.6,510.2L577.6,510.2z M582.4,508.6c-0.1,0-0.2,0.2-0.1,0.3c0,0.1,0.2,0.2,0.3,0.1h0
				c0.1,0,0.2-0.2,0.1-0.3C582.6,508.6,582.5,508.5,582.4,508.6L582.4,508.6z M587.1,506.9c-0.1,0-0.2,0.2-0.1,0.3c0,0,0,0,0,0
				c0,0.1,0.2,0.1,0.3,0.1h0c0.1,0,0.2-0.1,0.1-0.3C587.4,506.9,587.3,506.9,587.1,506.9L587.1,506.9z M580.6,528.2
				c0,0.1,0,0.2,0,0.2c0,0,0,0,0.1,0.1c0,0,0,0,0,0c0.1,0,0.2,0,0.3-0.1c0-0.1,0-0.2-0.1-0.3h0c0,0,0,0,0,0
				C580.7,528.1,580.6,528.1,580.6,528.2L580.6,528.2z M583.1,523.6c-0.1-0.1-0.2,0-0.3,0.1l0,0c0,0.1,0,0.2,0.1,0.3
				c0.1,0,0.2,0,0.3-0.1C583.2,523.7,583.2,523.6,583.1,523.6L583.1,523.6z M585.3,519C585.3,519,585.3,519,585.3,519
				c-0.1,0-0.2,0-0.3,0.1l0,0c0,0.1,0,0.2,0.1,0.3c0.1,0,0.2,0,0.3-0.1C585.5,519.2,585.4,519.1,585.3,519L585.3,519z M587.5,514.5
				L587.5,514.5c-0.1-0.1-0.2,0-0.3,0.1c0,0.1,0,0.2,0.1,0.3c0,0,0,0,0,0c0.1,0,0.2,0,0.3-0.1l0,0
				C587.7,514.7,587.6,514.5,587.5,514.5L587.5,514.5z M589.5,510C589.5,510.1,589.5,510.1,589.5,510c0,0.1,0,0.2,0,0.2
				c0,0,0,0,0.1,0.1c0.1,0.1,0.2,0,0.3-0.1c0-0.1,0-0.2-0.1-0.3C589.6,509.9,589.5,509.9,589.5,510L589.5,510z M600,529.5
				c-0.1,0-0.2,0.2-0.1,0.3c0,0,0,0,0,0c0,0.1,0.2,0.2,0.3,0.1c0.1,0,0.2-0.2,0.1-0.3v0C600.2,529.5,600.1,529.4,600,529.5
				L600,529.5z M598.3,524.7L598.3,524.7c-0.1,0-0.2,0.2-0.1,0.3c0,0,0,0,0,0c0,0.1,0.2,0.2,0.3,0.1h0c0.1,0,0.2-0.1,0.1-0.3
				C598.6,524.7,598.5,524.6,598.3,524.7L598.3,524.7z M596.7,519.9c-0.1,0-0.2,0.2-0.1,0.3c0,0.1,0.1,0.2,0.3,0.1
				c0.1,0,0.2-0.2,0.1-0.3v0C596.9,519.9,596.8,519.9,596.7,519.9L596.7,519.9z M595.1,515.1c-0.1,0-0.2,0.2-0.1,0.3l0,0
				c0,0.1,0.2,0.2,0.3,0.1c0,0,0,0,0,0c0.1,0,0.1-0.2,0.1-0.3v0C595.3,515.1,595.2,515.1,595.1,515.1L595.1,515.1z M593.4,510.3
				c-0.1,0-0.2,0.2-0.1,0.3c0,0.1,0.2,0.2,0.3,0.1c0.1,0,0.2-0.1,0.1-0.3C593.7,510.4,593.5,510.3,593.4,510.3L593.4,510.3z
				 M567.1,510.3c-0.2,0.1-0.3,0.3-0.2,0.5c0.1,0.2,0.3,0.3,0.5,0.2c0.2-0.1,0.3-0.3,0.2-0.5S567.3,510.2,567.1,510.3L567.1,510.3z
				 M575.3,507.3c-0.2,0.1-0.3,0.3-0.2,0.5c0.1,0.2,0.3,0.3,0.5,0.2c0.2-0.1,0.3-0.3,0.2-0.5C575.6,507.4,575.4,507.3,575.3,507.3
				L575.3,507.3z M583.4,504.4c-0.1,0.1-0.2,0.2-0.2,0.3c0,0,0,0.1,0,0.1c0,0.1,0.1,0.1,0.1,0.1c0.1,0.1,0.2,0.1,0.3,0.1
				c0.2-0.1,0.3-0.3,0.2-0.5C583.8,504.4,583.6,504.3,583.4,504.4L583.4,504.4z M567.6,546.1c-0.2-0.1-0.4,0-0.5,0.2
				c-0.1,0.2,0,0.4,0.2,0.5c0.2,0.1,0.4,0,0.5-0.2C567.9,546.4,567.8,546.2,567.6,546.1L567.6,546.1z M571.3,538.3
				c-0.2-0.1-0.4,0-0.5,0.2c-0.1,0.2,0,0.4,0.2,0.5c0.2,0.1,0.4,0,0.5-0.2C571.6,538.6,571.5,538.3,571.3,538.3L571.3,538.3z
				 M575,530.4c-0.2-0.1-0.4,0-0.5,0.2c-0.1,0.2,0,0.4,0.2,0.5c0,0,0,0,0,0c0.2,0.1,0.4,0,0.5-0.2
				C575.2,530.7,575.1,530.5,575,530.4L575,530.4z M578.6,522.5L578.6,522.5c-0.2-0.1-0.4,0-0.5,0.2l0,0c-0.1,0.2,0,0.4,0.2,0.5
				c0.2,0.1,0.4,0,0.5-0.2c0,0,0,0,0,0C578.9,522.8,578.8,522.6,578.6,522.5L578.6,522.5z M582.3,514.7c-0.2-0.1-0.4,0-0.5,0.2
				c-0.1,0.2,0,0.4,0.2,0.5s0.4,0,0.5-0.2C582.5,515,582.4,514.8,582.3,514.7L582.3,514.7z M585.9,506.8
				C585.9,506.8,585.9,506.8,585.9,506.8c-0.2-0.1-0.4,0-0.5,0.2c-0.1,0.2,0,0.4,0.2,0.5c0.2,0.1,0.4,0,0.5-0.2c0,0,0,0,0,0
				C586.2,507.1,586.1,506.9,585.9,506.8L585.9,506.8z M603.8,547.6c-0.2,0.1-0.3,0.3-0.2,0.5c0.1,0.2,0.3,0.3,0.5,0.2
				c0.2-0.1,0.3-0.3,0.2-0.5C604.2,547.7,604,547.6,603.8,547.6L603.8,547.6z M600.6,540c0.1,0.2,0.3,0.3,0.5,0.2
				c0.2-0.1,0.3-0.3,0.2-0.5c-0.1-0.2-0.3-0.3-0.5-0.2C600.7,539.6,600.6,539.8,600.6,540z M597.9,531.4L597.9,531.4
				c-0.2,0.1-0.3,0.3-0.2,0.5s0.3,0.3,0.5,0.2c0.2-0.1,0.3-0.3,0.2-0.5v0C598.3,531.4,598.1,531.3,597.9,531.4L597.9,531.4z
				 M594.9,523.2C594.9,523.2,594.9,523.2,594.9,523.2c-0.2,0.1-0.3,0.3-0.2,0.5c0.1,0.2,0.3,0.3,0.5,0.2c0.2-0.1,0.3-0.3,0.2-0.5v0
				C595.3,523.2,595.1,523.2,594.9,523.2L594.9,523.2z M591.9,515.1c-0.2,0.1-0.3,0.3-0.2,0.5c0.1,0.2,0.3,0.3,0.5,0.2
				c0.2-0.1,0.3-0.3,0.2-0.5C592.3,515.1,592.1,515,591.9,515.1L591.9,515.1z M570,502C570,502,570,502,570,502
				c-0.2,0-0.4,0.2-0.4,0.4v0c0,0.2,0.2,0.3,0.3,0.4c0,0,0,0,0,0c0.2,0,0.4-0.1,0.4-0.3C570.4,502.2,570.2,502,570,502L570,502z
				 M578.7,502.4L578.7,502.4c-0.2,0-0.4,0.1-0.4,0.3v0c0,0.2,0.1,0.4,0.3,0.4c0,0,0,0,0,0c0.2,0,0.4-0.1,0.4-0.3v0
				C579,502.5,578.9,502.4,578.7,502.4L578.7,502.4z M567.7,520.5c-0.1,0.1-0.2,0.4,0,0.5c0.1,0.1,0.4,0.2,0.5,0
				c0.2-0.1,0.2-0.4,0-0.5C568.1,520.4,567.8,520.4,567.7,520.5L567.7,520.5z M574.1,514.7c-0.1,0.1-0.2,0.3,0,0.5
				c0.1,0.1,0.4,0.2,0.5,0c0.1-0.1,0.2-0.4,0-0.5c0,0,0,0,0,0C574.4,514.5,574.2,514.5,574.1,514.7L574.1,514.7z M580.5,508.8
				C580.5,508.8,580.5,508.8,580.5,508.8c-0.2,0.1-0.2,0.4,0,0.5l0,0c0.1,0.1,0.4,0.1,0.5,0c0.1-0.1,0.1-0.3,0-0.5c0,0,0,0,0,0
				C580.8,508.7,580.6,508.7,580.5,508.8L580.5,508.8L580.5,508.8z M585.2,546.4L585.2,546.4c-0.2,0-0.4,0.2-0.4,0.4
				c0,0.2,0.2,0.4,0.4,0.4c0.2,0,0.4-0.2,0.4-0.4c0,0,0,0,0,0C585.5,546.6,585.3,546.4,585.2,546.4L585.2,546.4z M585.5,537.7
				C585.5,537.7,585.5,537.7,585.5,537.7c-0.2,0-0.4,0.1-0.4,0.3l0,0c0,0.2,0.1,0.4,0.3,0.4l0,0c0.2,0,0.4-0.1,0.4-0.3c0,0,0,0,0,0
				C585.9,537.9,585.7,537.7,585.5,537.7L585.5,537.7z M585.9,529.1L585.9,529.1c-0.2,0-0.4,0.1-0.4,0.3c0,0,0,0,0,0
				c0,0.2,0.1,0.4,0.3,0.4c0.2,0,0.4-0.1,0.4-0.3C586.2,529.2,586.1,529.1,585.9,529.1L585.9,529.1z M586.3,520.4L586.3,520.4
				c-0.2,0-0.4,0.1-0.4,0.3c0,0.2,0.1,0.4,0.3,0.4c0.2,0,0.4-0.1,0.4-0.3C586.6,520.6,586.5,520.4,586.3,520.4L586.3,520.4z
				 M586.6,511.7C586.6,511.7,586.6,511.7,586.6,511.7c-0.2,0-0.4,0.1-0.4,0.4s0.2,0.4,0.4,0.4s0.4-0.1,0.4-0.3v0
				C587,511.9,586.8,511.7,586.6,511.7L586.6,511.7z M598.5,516.2L598.5,516.2c-0.1,0.1-0.1,0.4,0,0.5c0.1,0.1,0.4,0.2,0.5,0
				c0.2-0.1,0.2-0.4,0-0.5C598.9,516.1,598.7,516.1,598.5,516.2L598.5,516.2z M592.7,509.8c-0.1,0.1-0.1,0.4,0,0.5l0,0
				c0.1,0.1,0.4,0.1,0.5,0c0.1-0.1,0.1-0.4,0-0.5c0,0,0,0,0,0C593,509.7,592.8,509.7,592.7,509.8L592.7,509.8z M570.4,499.2
				c-0.2,0-0.4,0.1-0.4,0.3v0c0,0.2,0.1,0.4,0.3,0.4c0,0,0,0,0,0c0.2,0,0.4-0.1,0.4-0.3v0C570.8,499.4,570.6,499.2,570.4,499.2
				L570.4,499.2z M566.6,514.3C566.6,514.3,566.6,514.3,566.6,514.3c-0.2,0.1-0.2,0.4,0,0.5c0.1,0.1,0.4,0.2,0.5,0
				c0.2-0.1,0.2-0.4,0-0.5l0,0C567,514.2,566.7,514.2,566.6,514.3L566.6,514.3z M573.2,508.8C573.2,508.8,573.2,508.8,573.2,508.8
				c-0.2,0.1-0.2,0.4,0,0.5s0.4,0.2,0.5,0c0.1-0.1,0.2-0.4,0-0.5c0,0,0,0,0,0C573.5,508.6,573.3,508.6,573.2,508.8L573.2,508.8z
				 M579.8,503.2c-0.1,0.1-0.2,0.4,0,0.5s0.3,0.2,0.5,0c0,0,0,0,0,0c0.1-0.1,0.2-0.3,0-0.5c0,0,0,0,0,0
				C580.1,503.1,579.9,503.1,579.8,503.2L579.8,503.2z M579.3,547.6L579.3,547.6c-0.2,0-0.4,0.1-0.4,0.3c0,0.2,0.1,0.4,0.3,0.4
				c0.2,0,0.4-0.1,0.4-0.3S579.5,547.6,579.3,547.6L579.3,547.6z M580.1,539c-0.2,0-0.4,0.1-0.4,0.3c0,0.2,0.1,0.4,0.3,0.4
				c0.2,0,0.4-0.1,0.4-0.3C580.4,539.2,580.3,539,580.1,539L580.1,539z M580.8,530.4c-0.2,0-0.4,0.1-0.4,0.3c0,0.2,0.1,0.4,0.3,0.4
				l0,0c0.2,0,0.4-0.1,0.4-0.3C581.1,530.6,581,530.4,580.8,530.4L580.8,530.4z M581.5,521.8C581.5,521.8,581.5,521.8,581.5,521.8
				c-0.2,0-0.4,0.1-0.4,0.3c0,0,0,0,0,0c0,0.2,0.1,0.3,0.3,0.4c0.2,0,0.4-0.1,0.4-0.3v0C581.9,522,581.7,521.8,581.5,521.8
				L581.5,521.8z M582.3,513.2L582.3,513.2c-0.2,0-0.4,0.1-0.4,0.3c0,0.2,0.1,0.4,0.3,0.4c0,0,0.1,0,0.1,0c0,0,0,0,0,0
				c0.1,0,0.2-0.2,0.2-0.3v0C582.6,513.4,582.5,513.2,582.3,513.2L582.3,513.2z M583,504.6C583,504.6,583,504.6,583,504.6
				c-0.2,0-0.4,0.1-0.4,0.3c0,0.1,0,0.1,0.1,0.2c0,0,0,0,0,0.1c0,0.1,0.1,0.1,0.2,0.1h0c0.2,0,0.4-0.1,0.4-0.3v0
				c0-0.1,0-0.2-0.1-0.3C583.1,504.7,583,504.6,583,504.6L583,504.6z M602.6,523.5c-0.2,0.1-0.2,0.3,0,0.5c0.1,0.1,0.4,0.2,0.5,0
				s0.2-0.3,0-0.5l0,0C602.9,523.4,602.7,523.4,602.6,523.5C602.6,523.5,602.6,523.5,602.6,523.5z M597,516.9
				c-0.1,0.1-0.1,0.2-0.1,0.3c0,0.1,0,0.1,0.1,0.2c0,0,0,0,0,0c0.1,0.1,0.3,0.2,0.5,0.1c0.2-0.1,0.2-0.3,0.1-0.5c0,0,0,0,0-0.1
				c-0.1-0.1-0.2-0.1-0.3-0.1v0C597.2,516.8,597.1,516.8,597,516.9L597,516.9z M591.4,510.3c-0.1,0.1-0.2,0.4,0,0.5c0,0,0,0,0,0
				c0.1,0.1,0.3,0.2,0.5,0c0,0,0.1-0.1,0.1-0.1c0-0.1,0-0.1,0-0.2c0-0.1,0-0.2-0.1-0.3C591.8,510.2,591.6,510.2,591.4,510.3
				L591.4,510.3z M575,502.3c-0.2,0.1-0.3,0.3-0.2,0.5s0.3,0.3,0.5,0.2c0,0,0,0,0,0c0.2-0.1,0.3-0.3,0.2-0.4v0
				C575.4,502.3,575.2,502.2,575,502.3L575,502.3z M567.5,530.6c-0.2-0.1-0.4,0-0.5,0.2l0,0c-0.1,0.2,0,0.4,0.2,0.5
				c0.2,0.1,0.4,0,0.5-0.1C567.7,530.9,567.6,530.6,567.5,530.6L567.5,530.6z M571.4,522.9c-0.2-0.1-0.4,0-0.5,0.2v0
				c-0.1,0.2,0,0.4,0.2,0.5c0.2,0.1,0.4,0,0.5-0.2C571.7,523.2,571.6,523,571.4,522.9C571.4,522.9,571.4,522.9,571.4,522.9z
				 M575.4,515.2c-0.2-0.1-0.4,0-0.5,0.2c-0.1,0.2,0,0.4,0.2,0.5c0.2,0.1,0.4,0,0.5-0.1C575.6,515.5,575.6,515.3,575.4,515.2
				L575.4,515.2z M579.3,507.5c-0.2-0.1-0.4,0-0.5,0.2c-0.1,0.2,0,0.4,0.2,0.5c0.2,0.1,0.4,0,0.5-0.2l0,0
				C579.6,507.8,579.5,507.6,579.3,507.5C579.3,507.5,579.3,507.5,579.3,507.5z M596.1,541.3C596.1,541.3,596.1,541.3,596.1,541.3
				c-0.2,0.1-0.3,0.3-0.2,0.5s0.3,0.3,0.5,0.2s0.3-0.3,0.2-0.5c0,0,0,0,0,0C596.5,541.3,596.3,541.2,596.1,541.3L596.1,541.3z
				 M593.5,533C593.5,533,593.5,533,593.5,533c-0.2,0.1-0.3,0.3-0.2,0.5s0.3,0.3,0.5,0.2s0.3-0.3,0.2-0.5c0,0,0,0,0,0
				C593.9,533.1,593.7,533,593.5,533L593.5,533z M590.9,524.8L590.9,524.8c-0.2,0.1-0.3,0.3-0.2,0.4s0.3,0.3,0.5,0.2
				s0.3-0.3,0.2-0.5C591.3,524.8,591.1,524.7,590.9,524.8L590.9,524.8z M588.3,516.6L588.3,516.6c-0.2,0.1-0.3,0.3-0.2,0.5
				c0.1,0.2,0.3,0.3,0.5,0.2s0.3-0.3,0.2-0.4C588.6,516.6,588.5,516.5,588.3,516.6L588.3,516.6z M585.6,508.4
				c-0.2,0.1-0.3,0.3-0.2,0.5s0.3,0.3,0.5,0.2c0.2-0.1,0.3-0.3,0.2-0.4C586,508.4,585.8,508.3,585.6,508.4
				C585.6,508.4,585.6,508.4,585.6,508.4z M602,515.9c-0.1,0.1-0.1,0.3,0,0.4c0.1,0.1,0.3,0.1,0.4,0c0.1-0.1,0.1-0.3,0-0.4
				C602.2,515.8,602.1,515.8,602,515.9L602,515.9z M596.8,511.9L596.8,511.9c-0.1,0.1-0.1,0.3,0,0.4c0.1,0.1,0.3,0.1,0.4,0
				c0,0,0,0,0,0c0.1-0.1,0.1-0.3,0-0.4l0,0C597.1,511.8,596.9,511.8,596.8,511.9L596.8,511.9z M569.3,499.6
				C569.3,499.6,569.3,499.6,569.3,499.6h0.1c0.1,0,0.2-0.1,0.2-0.3c0-0.1-0.1-0.2-0.2-0.2L569.3,499.6z M568.8,510.8
				c-0.1,0.1-0.1,0.3,0.1,0.4s0.3,0.1,0.4-0.1c0.1-0.1,0.1-0.3-0.1-0.4l0,0C569.1,510.7,568.9,510.7,568.8,510.8
				C568.8,510.8,568.8,510.8,568.8,510.8z M572.8,505.7L572.8,505.7c-0.1,0.1-0.1,0.3,0,0.4l0,0c0.1,0.1,0.3,0.1,0.4-0.1l0,0
				c0.1-0.1,0.1-0.3,0-0.4l0,0C573.1,505.5,572.9,505.6,572.8,505.7L572.8,505.7z M583.3,533.7c0,0.2,0.2,0.3,0.3,0.2
				c0.1,0,0.3-0.2,0.2-0.3c0,0,0,0,0,0c0-0.1-0.2-0.2-0.3-0.2C583.3,533.4,583.2,533.5,583.3,533.7z M582.7,526.9
				c-0.1,0-0.3,0.2-0.2,0.3c0,0.1,0.2,0.3,0.3,0.2c0.1,0,0.3-0.2,0.2-0.3v0C582.9,527,582.8,526.9,582.7,526.9L582.7,526.9z
				 M581.8,520.5c-0.1,0-0.3,0.2-0.2,0.3l0,0c0,0.1,0.2,0.3,0.3,0.2c0.1,0,0.3-0.2,0.2-0.3C582.1,520.5,582,520.4,581.8,520.5
				L581.8,520.5z M581,514C581,514,581,514,581,514c-0.1,0-0.3,0.2-0.2,0.3v0c0,0.1,0.1,0.2,0.3,0.2l0,0c0.2,0,0.3-0.2,0.2-0.3
				C581.3,514.1,581.2,514,581,514L581,514z M580.2,507.6C580.2,507.6,580.2,507.6,580.2,507.6c-0.1,0-0.3,0.1-0.2,0.3
				c0,0.1,0.1,0.3,0.3,0.2c0.1,0,0.3-0.1,0.2-0.3C580.5,507.6,580.4,507.5,580.2,507.6L580.2,507.6z M568.1,504.1
				c0,0.1-0.1,0.2-0.1,0.3C568.1,504.3,568.1,504.2,568.1,504.1L568.1,504.1z M573.3,500.8C573.3,500.8,573.3,500.8,573.3,500.8
				c-0.1,0.1-0.2,0.2-0.1,0.4c0.1,0.1,0.2,0.2,0.4,0.1c0.1-0.1,0.2-0.2,0.1-0.4c0,0,0,0,0,0C573.6,500.7,573.5,500.7,573.3,500.8
				L573.3,500.8z M570.5,529.1C570.5,529.1,570.5,529.1,570.5,529.1c-0.2,0-0.3,0.1-0.3,0.2c0,0.1,0,0.3,0.2,0.3
				c0.1,0,0.3,0,0.3-0.2l0,0C570.7,529.2,570.6,529.1,570.5,529.1L570.5,529.1z M572.2,522.8C572.2,522.8,572.2,522.8,572.2,522.8
				c-0.2,0-0.3,0-0.3,0.2c0,0.1,0,0.3,0.2,0.3l0,0c0.1,0,0.3,0,0.3-0.2v0C572.4,523,572.3,522.8,572.2,522.8L572.2,522.8z
				 M573.9,516.5L573.9,516.5c-0.1,0-0.3,0.1-0.3,0.2c0,0,0,0,0,0c0,0.1,0.1,0.3,0.2,0.3h0c0.1,0,0.3,0,0.3-0.2
				C574.1,516.7,574.1,516.5,573.9,516.5L573.9,516.5z M575.6,510.2c-0.2,0-0.3,0-0.3,0.2l0,0c0,0.1,0,0.3,0.2,0.3c0,0,0,0,0,0
				c0.1,0,0.3-0.1,0.3-0.2l0,0C575.9,510.4,575.8,510.3,575.6,510.2L575.6,510.2z M577.1,504c0,0-0.1,0.1-0.1,0.1
				c0,0.1,0,0.2,0.1,0.3h0c0,0,0,0,0.1,0c0,0,0,0,0,0c0.1,0,0.3-0.1,0.3-0.2c0,0,0,0,0,0c0-0.1,0-0.3-0.2-0.3
				C577.3,503.9,577.2,503.9,577.1,504L577.1,504z M595,526.2c-0.1,0.1-0.2,0.2-0.1,0.4s0.2,0.2,0.4,0.1c0,0,0,0,0,0
				c0.1-0.1,0.2-0.2,0.1-0.4c0,0,0,0,0,0C595.3,526.1,595.1,526.1,595,526.2L595,526.2z M591.8,520.5c-0.1,0.1-0.2,0.2-0.1,0.4
				c0.1,0.1,0.2,0.2,0.4,0.1c0.1-0.1,0.2-0.2,0.1-0.4C592.1,520.5,591.9,520.4,591.8,520.5L591.8,520.5z M588.6,514.9
				c-0.1,0.1-0.2,0.2-0.1,0.4s0.2,0.2,0.4,0.1c0.1-0.1,0.2-0.2,0.1-0.4c0,0,0,0,0,0C588.9,514.8,588.7,514.8,588.6,514.9
				L588.6,514.9z M585.3,509.2C585.3,509.2,585.3,509.2,585.3,509.2c-0.1,0.1-0.2,0.3-0.1,0.4s0.2,0.2,0.4,0.1
				c0.1-0.1,0.2-0.2,0.1-0.4C585.6,509.2,585.5,509.1,585.3,509.2L585.3,509.2z M570.5,498.8c-0.1,0-0.1,0.1,0,0.2s0.2,0.1,0.2,0
				l0,0c0.1-0.1,0.1-0.1,0-0.2c0,0,0,0,0,0C570.7,498.8,570.6,498.8,570.5,498.8L570.5,498.8z M572.7,514.9c-0.1,0-0.2,0.1-0.2,0.1
				c0,0.1,0,0.2,0.1,0.2h0c0.1,0,0.2-0.1,0.2-0.1S572.8,514.9,572.7,514.9L572.7,514.9z M573.1,511.3c-0.1,0-0.2,0.1-0.2,0.1l0,0
				c0,0.1,0,0.1,0.1,0.1c0,0,0,0,0,0c0.1,0,0.1-0.1,0.1-0.1v0C573.2,511.4,573.1,511.3,573.1,511.3L573.1,511.3z M573.5,507.8
				L573.5,507.8c-0.1,0-0.2,0.1-0.2,0.1v0c0,0.1,0,0.1,0.1,0.2c0.1,0,0.2-0.1,0.2-0.1l0,0C573.6,507.9,573.5,507.8,573.5,507.8
				L573.5,507.8z M573.8,504.3C573.8,504.3,573.8,504.3,573.8,504.3c-0.1,0-0.2,0.1-0.2,0.1l0,0c0,0.1,0,0.1,0.1,0.1
				s0.2-0.1,0.2-0.1c0,0,0,0,0,0C574,504.3,573.9,504.3,573.8,504.3L573.8,504.3z M574.2,500.7c-0.1,0-0.2,0-0.2,0.1
				c0,0.1,0.1,0.2,0.1,0.2c0.1,0,0.2,0,0.2-0.1C574.3,500.8,574.3,500.8,574.2,500.7L574.2,500.7z M586.9,510.9c0,0.1,0.1,0.1,0.2,0
				l0,0c0.1-0.1,0.1-0.1,0-0.2c0-0.1-0.1-0.1-0.2,0C586.9,510.7,586.9,510.8,586.9,510.9z M584.7,507.9
				C584.7,507.9,584.7,507.9,584.7,507.9c-0.1,0.1-0.1,0.1,0,0.2l0,0c0,0.1,0.1,0.1,0.2,0l0,0c0.1-0.1,0.1-0.1,0-0.2
				C584.9,507.9,584.8,507.9,584.7,507.9L584.7,507.9z M582.5,505.1C582.5,505.1,582.5,505.1,582.5,505.1c-0.1,0.1-0.1,0.1,0,0.2
				l0,0c0,0.1,0.1,0.1,0.2,0c0,0,0.1-0.1,0-0.2c0,0,0,0,0,0c0,0,0,0,0,0C582.6,505.1,582.5,505.1,582.5,505.1L582.5,505.1z
				 M568,507.7c-0.1,0-0.2,0-0.2,0.1c0,0.1,0,0.2,0.1,0.2c0.1,0,0.2,0,0.2-0.1C568.1,507.9,568,507.8,568,507.7L568,507.7z
				 M569.7,504.6c-0.1,0-0.2,0-0.2,0.1c0,0.1,0,0.2,0.1,0.2c0,0,0,0,0,0c0.1,0,0.2,0,0.2-0.1C569.8,504.7,569.7,504.7,569.7,504.6
				L569.7,504.6z M571.4,501.5C571.4,501.5,571.4,501.5,571.4,501.5c-0.1,0-0.2,0-0.2,0.1c0,0.1,0,0.2,0.1,0.2c0.1,0,0.2,0,0.2-0.1
				C571.5,501.6,571.4,501.5,571.4,501.5L571.4,501.5z M579.7,512.4L579.7,512.4c-0.1,0-0.1,0.1-0.1,0.2c0,0.1,0.1,0.1,0.2,0.1l0,0
				c0.1,0,0.1-0.1,0.1-0.2l0,0C579.8,512.4,579.7,512.4,579.7,512.4L579.7,512.4z M578.7,509c-0.1,0-0.1,0.1-0.1,0.2
				c0,0.1,0.1,0.1,0.2,0.1l0,0c0.1,0,0.1-0.1,0.1-0.2C578.8,509,578.7,509,578.7,509L578.7,509z M577.6,505.6
				c-0.1,0-0.1,0.1-0.1,0.2c0,0.1,0.1,0.1,0.2,0.1c0.1,0,0.1-0.1,0.1-0.2C577.8,505.6,577.7,505.6,577.6,505.6L577.6,505.6z
				 M576.6,502.2C576.6,502.2,576.6,502.2,576.6,502.2c-0.1,0-0.1,0.1-0.1,0.2l0,0c0,0.1,0.1,0.1,0.2,0.1c0,0,0,0,0,0
				c0.1,0,0.1-0.1,0.1-0.2c0,0,0,0,0,0C576.8,502.2,576.7,502.2,576.6,502.2L576.6,502.2z M575.1,521.4
				C575.1,521.4,575.1,521.4,575.1,521.4c-0.1,0-0.2,0.2-0.2,0.3c0,0.1,0.2,0.2,0.3,0.2c0,0,0,0,0,0c0.1,0,0.2-0.2,0.1-0.3
				c0,0,0,0,0,0C575.4,521.4,575.2,521.3,575.1,521.4L575.1,521.4z M573.5,515.7C573.5,515.7,573.5,515.7,573.5,515.7
				c-0.1,0-0.2,0.2-0.2,0.3c0,0,0,0,0,0c0,0.1,0.2,0.2,0.3,0.1c0,0,0,0,0,0c0.1,0,0.2-0.2,0.2-0.3
				C573.7,515.7,573.6,515.7,573.5,515.7L573.5,515.7z M571.8,510.1c-0.1,0-0.2,0.2-0.2,0.3c0,0.1,0.2,0.2,0.3,0.2h0
				c0.1,0,0.2-0.2,0.2-0.3C572.1,510.1,572,510,571.8,510.1L571.8,510.1z M570.2,504.4c-0.1,0-0.2,0.2-0.2,0.3
				c0,0.1,0.2,0.2,0.3,0.2c0.1,0,0.2-0.2,0.2-0.3v0C570.5,504.4,570.3,504.4,570.2,504.4L570.2,504.4z M584.3,513.2
				c-0.1,0.1-0.1,0.2,0,0.3c0,0,0,0,0,0c0.1,0.1,0.2,0.1,0.3,0c0.1-0.1,0.1-0.2,0-0.3C584.5,513.2,584.4,513.1,584.3,513.2
				L584.3,513.2z M580.6,508.6c0,0-0.1,0.1-0.1,0.2c0,0.1,0,0.1,0,0.2c0.1,0.1,0.2,0.1,0.4,0c0,0,0.1-0.1,0.1-0.1c0,0,0,0,0,0
				c0-0.1,0-0.1,0-0.2C580.8,508.5,580.7,508.5,580.6,508.6L580.6,508.6z M576.9,504c-0.1,0.1-0.1,0.2,0,0.4
				c0.1,0.1,0.2,0.1,0.3,0.1h0c0,0,0,0,0.1,0c0,0,0,0,0,0c0.1-0.1,0.1-0.2,0-0.3C577.1,504,577,503.9,576.9,504L576.9,504z
				 M573.2,499.4c-0.1,0.1-0.1,0.2,0,0.4l0,0c0.1,0.1,0.2,0.1,0.3,0c0.1-0.1,0.1-0.2,0-0.4C573.5,499.4,573.3,499.3,573.2,499.4
				L573.2,499.4z"/>
			
				<linearGradient id="square_1_" gradientUnits="userSpaceOnUse" x1="435.6459" y1="89.9779" x2="517.4293" y2="185.9846" gradientTransform="matrix(-1 0 0 -1 1205 722)">
				<stop  offset="0" style="stop-color:#A1C3FC"/>
				<stop  offset="0.6955" style="stop-color:#81AEF2"/>
				<stop  offset="1" style="stop-color:#78A9EF"/>
			</linearGradient>
			<polygon id="square_3_" class="st22" points="816.1,597.4 739.3,527.4 669.4,604.2 746.2,674.2 			"/>
			<path id="L_hand-3_2_" class="st11" d="M661,554.2c10.4,2.7,27.7,8.3,47.5,25.8c22.6,20,34.9,16.5,47,7.8
				c12.1-8.8,7-10.5-2.5-13.3s-19.5-4.6-22-9.1c-2.5-4.5,5.8-5.8,8.8-11.9c3-6.1-0.4-7.1-2.6-5.1c-2.2,2-11,5.2-17.1,8.6
				c-6.1,3.4-7.3,4-17.8-3.7c-9.5-7.1-19.6-19.9-21.3-22.2L661,554.2z"/>
			
				<linearGradient id="hair-2_1_" gradientUnits="userSpaceOnUse" x1="408.0511" y1="343.3003" x2="453.8347" y2="357.8978" gradientTransform="matrix(-1 0 0 -1 1205 722)">
				<stop  offset="0" style="stop-color:#28306D"/>
				<stop  offset="0.51" style="stop-color:#1F275F"/>
				<stop  offset="1" style="stop-color:#171F51"/>
			</linearGradient>
			<circle id="hair-2_4_" class="st23" cx="763.2" cy="367.9" r="15.5"/>
			<path id="hair-3_2_" class="st16" d="M720.7,339.3c0,0,24.6,13,31.3,21.7c6.8,8.8,8.4,17.8,5.6,25.1s-9.1,15.4-5.4,28.5
				c3.7,13.1-0.5,24.8-6.5,30.6c0,0-8.7-12.2-22.6-17.1c-20.3-7.1-38.2-14.2-45.1-28.9c0,0,7.5-12,18.8-13.6
				c11.3-1.6,15.5-3.8,15.7-10.3c0.2-6.4-2.8-7.6-5.2-12.2c-2.4-4.6-5.8-9.8-1.4-17.9C710.2,337,713.5,335.6,720.7,339.3z"/>
			<g id="sweater-3_1_">
				
					<linearGradient id="R_sleeve-2_1_" gradientUnits="userSpaceOnUse" x1="519.084" y1="267.6561" x2="594.942" y2="177.1159" gradientTransform="matrix(-1 0 0 -1 1205 722)">
					<stop  offset="0" style="stop-color:#3E8AF8"/>
					<stop  offset="1" style="stop-color:#1479F2"/>
				</linearGradient>
				<path id="R_sleeve-2_2_" class="st24" d="M707.3,421.4c0,0-10.6,19.8-20.7,41.7c-9,19.6-6.5,30.5,4.8,45.3l2.4,3.2L644.6,561
					c-10.8-5.6-18.4-15.8-20.5-27.8c-3.5-20.1-4.7-23.1-10.9-31.2c-6.2-8.1-7.7-20,15.1-43.8c22.8-23.9,23.1-44.4,67.9-53.6l0,0"/>
				
					<linearGradient id="sweater-4_2_" gradientUnits="userSpaceOnUse" x1="555.9575" y1="341.9005" x2="608.5688" y2="197.5249" gradientTransform="matrix(-1 0 0 -1 1205 722)">
					<stop  offset="0" style="stop-color:#3E8AF8"/>
					<stop  offset="1" style="stop-color:#1479F2"/>
				</linearGradient>
				<path id="sweater-4_1_" class="st25" d="M584.3,504.9c-4.5-11.6-5.5-29.8,13.2-49.4c24.9-26.2,49.5-40.8,98.7-50.9
					c-21.8,0.1-43.4,4-63.8,11.6c-25.7,9.6-28,10.8-48.9,27c-16.8,13.5-28.1,32.7-31.7,53.9C551.8,497.2,561.8,502,584.3,504.9z"/>
				<path id="L_sleeve-2_1_" class="st26" d="M701.9,423.6c0,0-25,24.4-37.2,44.7s-10.6,26.1,2,42s16.2,18.6,16.2,18.6l-50.6,58.3
					c0,0-25.7-13.5-29.6-35.5c-3.9-22-6.6-28.7-13.4-37.6c-6.8-8.8-16.8-32.4,8.1-58.6s49.5-40.8,98.7-50.9l1.2-0.5"/>
			</g>
			<g id="head-2_1_">
				
					<linearGradient id="neck-2_1_" gradientUnits="userSpaceOnUse" x1="506.0699" y1="302.8932" x2="493.5609" y2="325.0968" gradientTransform="matrix(-1 0 0 -1 1205 722)">
					<stop  offset="0" style="stop-color:#FFCFCA"/>
					<stop  offset="1" style="stop-color:#F1ACA7"/>
				</linearGradient>
				<path id="neck-2_2_" class="st27" d="M707.3,421.4c0,0,4-6.7,9.1-13.9c-1.8-0.5-3.6-1.1-5.3-2c-3.4-1.4-6.7-3.1-9.7-5.2
					c-1.6,1.6-3.3,3.1-5.2,4.4C696.2,404.6,695,414,707.3,421.4z"/>
				<path id="face-2_2_" class="st11" d="M688.3,369.1c1.7,3.3,3,2.5,2.9,4.6c-0.1,1.5-3.1,9.2,0.3,16.6l0.1,0.2c0,0,0,0.1,0,0.1
					c0,0,0,0.1,0,0.1c1.3,2.8,3.3,5.1,5.9,6.8c0,0,0,0,0,0c4.1,3.3,8.6,6,13.5,7.9c1.7,0.8,3.5,1.5,5.3,2c3.7-5.1,4.7-7.1,7.8-7.4
					c6.5-0.5,2.1-0.2,5.9-0.4c0.1,0,0.3,0,0.4,0c0.6-0.1,1.3-0.3,1.9-0.6c0.2,0,0.3-0.1,0.5-0.2c3.1-1.6,5.9-5.4,3.9-9.3
					c-2.6-5-6-4.3-9.1-6.1c-8.5-5.1-14.8-13.2-17.6-22.7c0-0.1-0.1-0.2-0.1-0.4c-0.8-2.8-1.3-5.8-1.6-8.7c0,0-11.5,10.7-16.7,11.6
					c-2.3,0.3-4,2.4-3.7,4.7C688,368.3,688.1,368.7,688.3,369.1z"/>
				<path id="eyeglasses_1_" class="st26" d="M691.9,363.2c0.1,0,0.2,0,0.2,0c0.2-0.1,0.4-0.1,0.6-0.2c0.2,0,0.3-0.1,0.4-0.1
					c0.6-0.2,1.3-0.4,1.9-0.6c1.3-0.6,2.6-1.5,3.5-2.6c0,0,0,0,0,0c0,0,0,0,0,0c0-0.1,0.1-0.2,0.2-0.2c0-0.1,0.1-0.2,0.2-0.3
					c1.9,0.8,3,2.9,3.8,4.7c-1,1.3-1.7,2.8-2.1,4.5c-0.5,2.3-0.3,4.7,0.7,6.8c0.9,1.9,2.6,3.3,4.6,3.8c0.4,0.1,0.8,0.1,1.3,0.1
					c1.7,0,3.3-0.6,4.5-1.7c1.8-1.5,3-3.6,3.5-5.9c1.1-5-1.3-9.8-5.3-10.6c-2.1-0.4-4.2,0.2-5.8,1.6c-0.2,0.2-0.3,0.4-0.5,0.5
					c-0.7-2.1-2.2-3.8-4.1-4.8c0.2-0.5,0.3-1,0.4-1.5c0.9-4.3-1.2-8.4-4.6-9.2l0,0c-3.5-0.7-7.1,2.2-8,6.5
					C686.4,358.3,688.4,362.4,691.9,363.2z M704.9,363.4c1-0.9,2.4-1.4,3.8-1.5c0.3,0,0.7,0,1,0.1c3.4,0.7,5.4,4.9,4.4,9.3
					c-0.4,2-1.5,3.9-3.1,5.3c-0.5,0.5-1,0.8-1.7,1.1c-2.7,1.1-5.8-0.2-6.9-2.9c-0.9-1.9-1.1-4-0.6-6.1
					C702.2,366.6,703.3,364.7,704.9,363.4z M688.4,354.2c0.8-3.7,3.7-6.2,6.6-5.6c2.8,0.6,4.5,4.1,3.7,7.8c-0.8,3.7-3.7,6.2-6.6,5.6
					C689.3,361.4,687.7,357.9,688.4,354.2z"/>
			</g>
		</g>
	</g>
</g>
</svg>
