<?xml version="1.0" encoding="utf-8"?>
<!-- Generator: Adobe Illustrator 23.0.0, SVG Export Plug-In . SVG Version: 6.00 Build 0)  -->
<svg version="1.1" id="레이어_1" xmlns="http://www.w3.org/2000/svg" xmlns:xlink="http://www.w3.org/1999/xlink" x="0px"
	 y="0px" width="1920px" height="950px" viewBox="0 0 1920 950" style="enable-background:new 0 0 1920 950;" xml:space="preserve">
<style type="text/css">
	.st0{fill:#EEEEEE;}
	.st1{fill:#FFBEB6;}
	.st2{fill:#23286B;}
	.st3{fill:url(#R_trousers_2_);}
	.st4{fill:#428DFC;}
	.st5{opacity:0.51;fill:#FFFFFF;enable-background:new    ;}
	.st6{fill:url(#R_sleeve_1_);}
	.st7{fill:url(#sweater-2_2_);}
	.st8{fill:url(#neck_2_);}
	.st9{fill:#E94A47;}
	.st10{fill:#1C2868;}
	.st11{fill:#A1C3FC;}
	.st12{fill:url(#body_1_);}
	.st13{fill:url(#L_shoe-2_2_);}
	.st14{fill:url(#L_trousers-2_2_);}
	.st15{fill:url(#R_trousers-2_1_);}
	.st16{opacity:0.39;fill:#FFFFFF;enable-background:new    ;}
	.st17{fill:url(#SVGID_1_);}
	.st18{fill:url(#sweater-4_1_);}
</style>
<g>
	<path id="outlined_square_1" class="st0" d="M556.4,729.8l-102-42.5L496.9,585l102,42.5L556.4,729.8z M463.9,683.4l88.6,37
		l36.9-88.9l-88.6-37L463.9,683.4z"/>
	<g id="R_hand_1_">
		<path id="R_hand-2_2_" class="st1" d="M729.1,460.2c0,0-22.5,24.3-34.3,30.1c-11.8,5.9-11.7,3.7-18.3,3.5
			c-6.6-0.1-12.4,1.3-16.5,1.6s-2.8,5.4,3.7,5.5c6.6,0.1,10.1,0.8,4.2,3c-5.9,2.2-17,2.3-18.9,3c-2,0.7,1.6,8.8,16.3,12.7
			c14.7,3.9,28.7-7.8,33.9-14.2s40.2-16.3,51.9-31.7L729.1,460.2z"/>
	</g>
	<g id="shoes">
		<path id="L_shoe_1_" class="st2" d="M867,783.9l14.6,40.8h-103c0,0,5.3-10.2,22.9-17.8c17.6-7.6,34-23,34-23H867"/>
		<path id="R_shoe_2_" class="st2" d="M1000.9,694.8l42.4,4.2l-43.3,93.8c0,0-7-9.1-6.5-28.3c0.6-19.2-6.9-40.4-6.9-40.4
			L1000.9,694.8"/>
	</g>
	<g id="trousers">
		
			<linearGradient id="R_trousers_2_" gradientUnits="userSpaceOnUse" x1="995.0833" y1="10.6132" x2="868.3393" y2="-20.5534" gradientTransform="matrix(1 0 0 1 0 644)">
			<stop  offset="0" style="stop-color:#428DFC"/>
			<stop  offset="1" style="stop-color:#1E77E0"/>
		</linearGradient>
		<path id="R_trousers_1_" class="st3" d="M1000.8,694.9L986.6,724c0,0-55.2-26.5-105.3-57.4c-0.3-0.2-0.7-0.4-1-0.6
			c0.6-5.4,1.3-11.3,2-18c2.4-23.1-13.6-48.2-16.4-90.2c-0.1-2.1-0.3-4.3-0.3-6.5c0.5,1.6,1.1,3.2,1.8,4.9
			c5.1,13,13.8,24.3,25.1,32.5c30.4,21.9,30.2,20.4,41.2,36.4s28.2,16.5,36.3,22.4C978.2,653.6,1000.2,683.3,1000.8,694.9z"/>
		<path id="L_trousers_1_" class="st4" d="M866.9,783.9h-33.1c0,0-13.1-85.6-23-140.5c-1.7-9.3-3.4-20.1-5.1-31.8
			c-1.1-7.8-2.2-16-3.3-24.4c-2.7-21.1-5.1-43.4-6.9-63.5l13.8,7.9c0,0,19.8-13.7,18.6-33.7c-1.1-19.5,2.4-30.1,4.7-39.7
			c10.2-2.1,20.2-4.7,30.1-7.9c4.5,14.3,8.2,37.4,4.2,71.4c-1.5,12-1.8,24.1-1,36.2c2.8,42,18.8,67.1,16.4,90.2
			c-0.8,7.2-1.5,13.4-2.1,19.2c-1.9,17.5-2.5,30.2,2.1,49.1C888.4,741.5,876.1,776.1,866.9,783.9z"/>
		<path id="texture_1_" class="st5" d="M840.3,457.7c-0.2-0.1-0.4-0.1-0.5,0.1c0,0.1-0.1,0.2,0,0.3c0,0,0,0,0,0.1s0.1,0.1,0.1,0.2
			c0.2,0.1,0.4,0.1,0.5-0.1c0-0.1,0.1-0.2,0.1-0.3C840.4,457.9,840.4,457.8,840.3,457.7z M835.3,465.3c-0.2-0.1-0.4-0.1-0.5,0.1
			s-0.1,0.4,0.1,0.5c0.2,0.1,0.4,0.1,0.5-0.1C835.5,465.6,835.5,465.4,835.3,465.3z M853.8,458.8c-0.2,0-0.4,0.1-0.4,0.3
			c0,0.2,0.1,0.4,0.3,0.4s0.4-0.1,0.4-0.3S854,458.8,853.8,458.8L853.8,458.8z M852.1,467.6c-0.2,0-0.4,0.1-0.4,0.3
			c0,0.2,0.1,0.4,0.3,0.4s0.4-0.1,0.4-0.3l0,0C852.4,467.9,852.3,467.7,852.1,467.6L852.1,467.6L852.1,467.6z M850.3,476.5
			c-0.2,0-0.4,0.1-0.4,0.3l0,0c0,0.2,0.1,0.4,0.3,0.4l0,0c0.2,0,0.4-0.1,0.4-0.3C850.7,476.8,850.5,476.6,850.3,476.5L850.3,476.5
			L850.3,476.5z M843.3,458c-0.1,0-0.3,0.1-0.3,0.2s0.1,0.2,0.2,0.3c0.1,0,0.2-0.1,0.3-0.2C843.5,458.2,843.4,458.1,843.3,458z
			 M842.2,463.4c-0.1,0-0.2,0.1-0.3,0.2l0,0c0,0.1,0,0.2,0.2,0.3c0.1,0,0.3-0.1,0.3-0.2C842.4,463.6,842.3,463.4,842.2,463.4
			L842.2,463.4z M859.7,454.8c-0.1-0.1-0.2-0.1-0.3-0.1c-0.1,0.1-0.1,0.2-0.1,0.3c0.1,0.1,0.2,0.1,0.3,0.1
			C859.8,455,859.8,454.9,859.7,454.8L859.7,454.8z M851,455.5c-0.1,0-0.2,0.1-0.2,0.2l0,0c0,0.1,0.1,0.2,0.3,0.2
			c0.1,0,0.2-0.1,0.2-0.2l0,0C851.3,455.6,851.2,455.5,851,455.5L851,455.5z M852.1,460.9c-0.1,0-0.2,0.2-0.2,0.3l0,0
			c0,0.1,0.1,0.2,0.2,0.2l0,0c0.1,0,0.2-0.1,0.2-0.3l0,0C852.3,460.9,852.2,460.9,852.1,460.9L852.1,460.9z M853.2,466.3
			c-0.1,0-0.2,0.1-0.2,0.3s0.1,0.2,0.3,0.2c0.1,0,0.2-0.2,0.2-0.3C853.4,466.3,853.3,466.2,853.2,466.3L853.2,466.3z M848,459.5
			c-0.2,0.1-0.3,0.3-0.2,0.5l0,0c0.1,0.2,0.3,0.3,0.5,0.3l0,0c0.2-0.1,0.3-0.3,0.3-0.5l0,0C848.5,459.6,848.2,459.4,848,459.5
			L848,459.5z M851.5,468.9c-0.2,0.1-0.3,0.3-0.3,0.6c0.1,0.2,0.3,0.3,0.5,0.2l0,0c0.2-0.1,0.3-0.3,0.3-0.5l0,0
			C852,468.9,851.7,468.8,851.5,468.9L851.5,468.9z M855,478.3c-0.2,0.1-0.3,0.3-0.3,0.5c0,0,0,0,0,0.1c0.1,0.2,0.3,0.3,0.5,0.3
			c0.2-0.1,0.3-0.3,0.2-0.5C855.4,478.3,855.2,478.2,855,478.3L855,478.3L855,478.3z M858.4,487.7c-0.2,0.1-0.3,0.3-0.3,0.5
			c0.1,0.2,0.3,0.3,0.5,0.3c0.2-0.1,0.3-0.3,0.3-0.5C858.9,487.7,858.7,487.6,858.4,487.7z M840.3,466c-0.2,0-0.4,0.2-0.4,0.4
			c0,0.2,0.2,0.4,0.4,0.4s0.4-0.2,0.4-0.4l0,0C840.7,466.3,840.5,466.1,840.3,466L840.3,466z M839.9,476.1c-0.2,0-0.4,0.1-0.4,0.4
			l0,0c0,0.2,0.1,0.4,0.4,0.4l0,0c0.2,0,0.4-0.2,0.4-0.4l0,0C840.3,476.3,840.2,476.1,839.9,476.1L839.9,476.1z M839.6,486.1
			c-0.2,0-0.4,0.1-0.4,0.4l0,0c0,0.2,0.2,0.4,0.4,0.5c0.2,0,0.4-0.1,0.5-0.4C840,486.3,839.8,486.1,839.6,486.1L839.6,486.1z
			 M839.2,496.1c-0.2,0-0.4,0.1-0.4,0.3c0,0,0,0,0,0.1c0,0.2,0.2,0.4,0.4,0.4s0.4-0.2,0.4-0.4l0,0
			C839.6,496.3,839.4,496.1,839.2,496.1L839.2,496.1L839.2,496.1z M858.5,459.5c-0.2-0.2-0.4-0.2-0.6,0c-0.2,0.1-0.2,0.4,0,0.6
			s0.4,0.2,0.6,0C858.6,460,858.6,459.7,858.5,459.5L858.5,459.5z M841.9,456.7c0.2,0.2,0.5,0.3,0.7,0.1c0.1-0.1,0.2-0.2,0.2-0.3
			C842.5,456.6,842.2,456.7,841.9,456.7L841.9,456.7z M849.8,467.3c-0.2-0.3-0.5-0.3-0.8-0.2c-0.3,0.2-0.3,0.5-0.2,0.8
			c0.2,0.3,0.5,0.3,0.8,0.2l0,0C849.9,467.9,850,467.6,849.8,467.3z M856.9,478.5c-0.2-0.3-0.5-0.3-0.7-0.2l0,0
			c-0.3,0.2-0.3,0.5-0.2,0.8c0.2,0.3,0.5,0.3,0.8,0.2C857,479.1,857.1,478.8,856.9,478.5L856.9,478.5z M864,489.7
			c-0.2-0.3-0.5-0.4-0.8-0.2c-0.3,0.2-0.3,0.5-0.2,0.8c0.2,0.2,0.5,0.3,0.8,0.1C864.1,490.3,864.2,490,864,489.7
			C864,489.8,864,489.7,864,489.7L864,489.7z M838.3,465c-0.3,0-0.5,0.3-0.4,0.6l0,0c0,0.2,0.2,0.4,0.4,0.4h0.1c0.1,0,0.1,0,0.2,0
			c0.3-0.1,0.5-0.3,0.4-0.6l0,0C838.9,465.2,838.6,465,838.3,465L838.3,465z M840.6,478.1c-0.3,0.1-0.5,0.3-0.4,0.6l0,0
			c0,0.3,0.3,0.5,0.6,0.4l0,0c0.3,0,0.5-0.3,0.5-0.6c0,0,0,0,0-0.1C841.2,478.2,840.9,478,840.6,478.1L840.6,478.1z M842.9,491.2
			c-0.3,0.1-0.5,0.3-0.5,0.6c0.1,0.3,0.4,0.5,0.7,0.4s0.5-0.3,0.4-0.6C843.5,491.3,843.2,491.1,842.9,491.2L842.9,491.2z
			 M845.2,504.2c-0.3,0.1-0.5,0.4-0.5,0.6c0.1,0.3,0.3,0.5,0.7,0.4c0.3-0.1,0.5-0.3,0.5-0.6C845.7,504.4,845.5,504.2,845.2,504.2
			L845.2,504.2z M847.4,517.3c-0.3,0.1-0.5,0.4-0.4,0.6c0.1,0.3,0.3,0.5,0.6,0.4c0.3-0.1,0.5-0.3,0.4-0.6
			C848,517.5,847.7,517.3,847.4,517.3L847.4,517.3L847.4,517.3z M851.6,456.9c-0.3-0.2-0.6-0.1-0.8,0.1c-0.2,0.3-0.1,0.6,0.1,0.8
			l0,0c0.2,0.2,0.6,0.1,0.8-0.1C851.9,457.5,851.8,457.1,851.6,456.9L851.6,456.9z M862.4,464.6c-0.2-0.2-0.6-0.1-0.7,0.1l0,0
			c-0.2,0.3-0.1,0.6,0.1,0.8c0.3,0.1,0.6,0.1,0.8-0.1C862.7,465.1,862.7,464.8,862.4,464.6L862.4,464.6z M833.2,476.6
			c-0.3,0-0.5,0.3-0.5,0.6l0,0c0,0.3,0.3,0.5,0.5,0.5c0,0,0,0,0.1,0c0.3,0,0.5-0.3,0.5-0.6l0,0C833.8,476.7,833.5,476.5,833.2,476.6
			L833.2,476.6z M834.9,489.8c-0.3,0-0.5,0.3-0.5,0.6c0,0.3,0.3,0.5,0.6,0.5s0.5-0.3,0.5-0.6C835.5,489.9,835.2,489.7,834.9,489.8
			L834.9,489.8z M836.7,503c-0.3,0-0.5,0.3-0.5,0.6l0,0c0,0.3,0.3,0.5,0.6,0.5s0.5-0.3,0.5-0.6C837.2,503.2,837,502.9,836.7,503
			L836.7,503L836.7,503z M838.4,516.2c-0.3,0.1-0.5,0.3-0.5,0.6s0.3,0.5,0.6,0.5c0.3-0.1,0.5-0.3,0.5-0.6
			C839,516.4,838.7,516.1,838.4,516.2L838.4,516.2z M840.5,458L840.5,458c-0.3-0.2-0.6-0.1-0.8,0.1c0,0,0,0,0,0.1
			c-0.2,0.2-0.2,0.5,0.1,0.7l0,0c0.2,0.2,0.6,0.1,0.8-0.1C840.8,458.5,840.7,458.2,840.5,458L840.5,458z M851,466.1
			c-0.2-0.2-0.6-0.1-0.8,0.1l0,0c-0.2,0.3-0.1,0.6,0.1,0.8c0.2,0.2,0.6,0.1,0.8-0.1l0,0C851.3,466.6,851.3,466.3,851,466.1
			L851,466.1L851,466.1z M861.5,474.2c-0.2-0.2-0.6-0.1-0.7,0.1l0,0c-0.2,0.2-0.2,0.6,0.1,0.8l0,0c0.3,0.2,0.6,0.1,0.8-0.1
			C861.8,474.8,861.8,474.4,861.5,474.2L861.5,474.2z M839.3,467.5c-0.2-0.3-0.5-0.4-0.8-0.2c-0.3,0.1-0.3,0.5-0.2,0.8
			c0.2,0.3,0.5,0.3,0.7,0.2C839.3,468,839.4,467.7,839.3,467.5L839.3,467.5z M845.9,479c-0.2-0.3-0.5-0.3-0.8-0.2
			c-0.3,0.2-0.3,0.5-0.2,0.8s0.5,0.4,0.7,0.2l0,0C846,479.6,846.1,479.3,845.9,479L845.9,479z M852.5,490.5
			c-0.2-0.3-0.5-0.4-0.8-0.2c-0.3,0.2-0.3,0.5-0.2,0.8c0.2,0.3,0.5,0.4,0.7,0.2l0,0C852.6,491.1,852.7,490.8,852.5,490.5
			C852.6,490.5,852.5,490.5,852.5,490.5L852.5,490.5z M859.2,502.1c-0.2-0.3-0.5-0.3-0.7-0.2c-0.3,0.1-0.4,0.5-0.2,0.7l0,0
			c0.2,0.3,0.5,0.4,0.8,0.2C859.2,502.7,859.3,502.3,859.2,502.1L859.2,502.1z M865.8,513.6c-0.2-0.3-0.5-0.4-0.8-0.2
			c-0.3,0.2-0.3,0.5-0.2,0.8s0.5,0.4,0.7,0.2l0,0C865.9,514.2,866,513.9,865.8,513.6L865.8,513.6z M848.5,455.2
			c-0.3,0.1-0.6,0.1-0.9,0.2l0,0c-0.1,0.3,0.1,0.6,0.4,0.7l0,0c0.3,0.1,0.6-0.1,0.7-0.4l0,0C848.7,455.5,848.6,455.3,848.5,455.2
			L848.5,455.2z M861.1,458.5c-0.3-0.1-0.6,0.1-0.7,0.4l0,0c-0.1,0.3,0.1,0.6,0.4,0.7c0.3,0.1,0.6-0.1,0.7-0.4l0,0
			C861.5,458.9,861.4,458.6,861.1,458.5L861.1,458.5z M834.9,474.4c-0.1-0.1-0.3-0.2-0.4-0.1s-0.2,0.3-0.1,0.4
			c0.1,0.1,0.3,0.2,0.4,0.1l0,0C834.9,474.8,835,474.6,834.9,474.4L834.9,474.4L834.9,474.4z M838.9,481.1c-0.1-0.1-0.3-0.2-0.4-0.1
			l0,0c-0.2,0.1-0.2,0.3-0.1,0.5c0.1,0.1,0.3,0.2,0.5,0.1C839,481.4,839,481.2,838.9,481.1L838.9,481.1L838.9,481.1z M842.9,487.7
			c-0.1-0.1-0.3-0.2-0.4-0.1l0,0l0,0c-0.1,0.1-0.2,0.3-0.1,0.4c0.1,0.1,0.3,0.2,0.4,0.1l0,0l0.1-0.1C843,488,843,487.8,842.9,487.7
			L842.9,487.7z M837.5,457.9c-0.2,0-0.3,0.1-0.4,0.2c0,0.2,0,0.4,0.2,0.4l0,0c0.2,0,0.3-0.1,0.4-0.2l0,0
			C837.8,458.1,837.7,457.9,837.5,457.9L837.5,457.9L837.5,457.9z M845.1,459.7c-0.2,0-0.3,0.1-0.4,0.3c0,0.2,0.1,0.3,0.2,0.4
			c0.2,0,0.3-0.1,0.4-0.2C845.3,460,845.2,459.8,845.1,459.7L845.1,459.7z M852.6,461.6c-0.2-0.1-0.3,0-0.4,0.2l0,0
			c0,0.2,0.1,0.4,0.2,0.4c0.2,0.1,0.3-0.1,0.4-0.2C852.9,461.8,852.8,461.7,852.6,461.6z M860.1,463.5c-0.2,0-0.3,0.1-0.4,0.2
			c0,0.2,0.1,0.4,0.2,0.4c0.2,0,0.3-0.1,0.4-0.3C860.4,463.7,860.3,463.5,860.1,463.5L860.1,463.5z M828,489.1l-0.1,0.6l0,0
			c0.2,0,0.3-0.2,0.3-0.4C828.2,489.3,828.1,489.2,828,489.1L828,489.1z M829,496.8c-0.2,0-0.3,0.2-0.3,0.4c0,0.2,0.2,0.3,0.3,0.3
			l0,0c0.2,0,0.3-0.1,0.3-0.3l0,0C829.3,496.9,829.2,496.8,829,496.8L829,496.8L829,496.8z M838.4,466.1L838.4,466.1
			c-0.1-0.1-0.1-0.1-0.2-0.1c-0.1,0-0.2,0-0.3,0.1s-0.1,0.4,0,0.5s0.3,0.1,0.5-0.1C838.6,466.5,838.6,466.3,838.4,466.1L838.4,466.1
			L838.4,466.1z M844.7,470.7c-0.2-0.1-0.3-0.1-0.5,0.1c-0.1,0.1-0.1,0.4,0.1,0.5c0,0,0,0,0.1,0c0.1,0.1,0.3,0,0.4-0.1
			C844.9,471,844.8,470.8,844.7,470.7L844.7,470.7z M850.9,475.3c-0.1-0.1-0.3-0.1-0.4,0.1l0,0c-0.1,0.1-0.1,0.4,0.1,0.5
			c0.2,0.1,0.3,0.1,0.5-0.1C851.1,475.6,851.1,475.4,850.9,475.3L850.9,475.3z M857.2,479.9c-0.1-0.1-0.3-0.1-0.4,0.1
			c-0.1,0.1-0.1,0.3,0,0.4l0,0c0.1,0.1,0.3,0.1,0.4,0l0,0C857.3,480.3,857.3,480.1,857.2,479.9L857.2,479.9z M834.7,479.1
			c-0.1-0.1-0.3-0.1-0.4,0l0,0c-0.1,0.1-0.1,0.3,0,0.4s0.3,0.1,0.4,0C834.8,479.4,834.8,479.3,834.7,479.1L834.7,479.1L834.7,479.1z
			 M839.2,484.2c-0.1-0.1-0.3-0.1-0.4,0c-0.1,0.1-0.1,0.3,0,0.4s0.3,0.1,0.4,0C839.3,484.5,839.3,484.3,839.2,484.2L839.2,484.2z
			 M836.6,459.8c-0.1,0-0.3,0.1-0.3,0.2l0,0c0,0.1,0.1,0.3,0.2,0.3l0,0c0.2,0,0.3-0.1,0.3-0.3l0,0
			C836.9,459.9,836.8,459.8,836.6,459.8L836.6,459.8z M843.4,460.2c-0.2,0-0.3,0.1-0.3,0.3c0,0.1,0.1,0.3,0.3,0.3l0,0
			c0.1,0,0.3-0.1,0.3-0.2l0,0C843.7,460.4,843.6,460.2,843.4,460.2L843.4,460.2L843.4,460.2z M850.2,460.6c-0.2,0-0.3,0.1-0.3,0.3
			l0,0c0,0.2,0.1,0.3,0.3,0.3s0.3-0.1,0.3-0.3C850.5,460.8,850.3,460.6,850.2,460.6z M828.6,494.5c-0.1,0-0.2,0.2-0.2,0.3l0,0
			c0,0.1,0.2,0.2,0.3,0.2l0,0c0.1-0.1,0.2-0.2,0.2-0.3C828.9,494.5,828.7,494.4,828.6,494.5L828.6,494.5L828.6,494.5z M837.9,469.5
			c-0.1-0.1-0.3,0-0.4,0.1c-0.1,0.1-0.1,0.3,0,0.4c0,0,0,0,0.1,0c0.1,0.1,0.3,0,0.4-0.1C838.1,469.8,838.1,469.6,837.9,469.5
			C838,469.5,838,469.5,837.9,469.5L837.9,469.5z M844.1,472.5c-0.1-0.1-0.3,0-0.4,0.1c-0.1,0.1,0,0.3,0.1,0.4l0,0
			c0.1,0.1,0.3,0,0.4-0.1l0,0C844.3,472.7,844.2,472.6,844.1,472.5L844.1,472.5L844.1,472.5z M850.1,475.5c-0.1-0.1-0.3,0-0.4,0.1
			l0,0c-0.1,0.1,0,0.3,0.1,0.4s0.3,0,0.4-0.1l0,0C850.3,475.7,850.3,475.5,850.1,475.5L850.1,475.5z M829,492.9
			c-0.1-0.2-0.4-0.3-0.6-0.2l0,0c-0.2,0.1-0.3,0.4-0.2,0.7c0.1,0.2,0.4,0.3,0.6,0.2C829.1,493.4,829.2,493.1,829,492.9L829,492.9z
			 M834.9,502.8c-0.1-0.2-0.4-0.3-0.7-0.2c-0.2,0.1-0.3,0.4-0.2,0.7c0.1,0.2,0.4,0.3,0.7,0.2C834.9,503.4,835,503.1,834.9,502.8
			L834.9,502.8z M840.7,512.8c-0.1-0.2-0.4-0.3-0.7-0.2c-0.2,0.1-0.3,0.4-0.2,0.7l0,0c0.1,0.2,0.4,0.3,0.6,0.2l0,0
			C840.8,513.3,840.9,513,840.7,512.8L840.7,512.8z M833.2,468.4c-0.3-0.1-0.5,0.1-0.6,0.3c0,0.3,0.1,0.5,0.4,0.6
			c0.3,0.1,0.5-0.1,0.6-0.4l0,0C833.6,468.7,833.5,468.5,833.2,468.4L833.2,468.4L833.2,468.4z M844.3,471.3L844.3,471.3
			c-0.3,0-0.5,0.1-0.6,0.4s0.1,0.5,0.3,0.6l0,0c0.3,0.1,0.5-0.1,0.5-0.3l0,0C844.7,471.6,844.6,471.4,844.3,471.3L844.3,471.3z
			 M855.5,474.2c-0.2-0.1-0.5,0.1-0.6,0.3c0,0,0,0,0,0.1c-0.1,0.2,0.1,0.5,0.3,0.5l0,0c0.2,0.1,0.5-0.1,0.6-0.3l0,0
			C855.9,474.5,855.7,474.2,855.5,474.2L855.5,474.2z M833.5,480.8c-0.2-0.1-0.5-0.1-0.7,0.1s-0.1,0.5,0.1,0.7
			c0.2,0.1,0.5,0.1,0.7-0.1C833.8,481.2,833.8,480.9,833.5,480.8L833.5,480.8L833.5,480.8z M842.7,487.7c-0.1-0.1-0.1-0.1-0.2-0.1
			l0,0c-0.2,0-0.3,0.1-0.4,0.2c-0.2,0.2-0.1,0.5,0.1,0.7c0.2,0.1,0.5,0.1,0.7-0.1C843,488.1,842.9,487.9,842.7,487.7z M851.9,494.7
			c-0.2-0.2-0.5-0.1-0.7,0.1s-0.1,0.5,0.1,0.7l0,0c0.2,0.1,0.5,0.1,0.7-0.1C852.2,495.1,852.1,494.8,851.9,494.7L851.9,494.7
			L851.9,494.7z M861.1,501.6c-0.2-0.2-0.5-0.1-0.7,0.1s-0.1,0.5,0.1,0.6l0,0c0.2,0.2,0.5,0.1,0.7-0.1
			C861.4,502,861.3,501.7,861.1,501.6L861.1,501.6z M838.7,459.3c-0.3,0-0.4,0.3-0.4,0.5l0,0c0,0.3,0.3,0.4,0.5,0.4l0,0
			c0.2,0,0.4-0.2,0.4-0.5l0,0C839.2,459.5,839,459.3,838.7,459.3L838.7,459.3z M850.1,457.7c-0.2,0-0.4,0.2-0.4,0.5c0,0,0,0,0,0.1
			c0,0.2,0.2,0.4,0.5,0.4l0,0c0.3,0,0.4-0.3,0.4-0.5l0,0C850.6,457.9,850.4,457.7,850.1,457.7L850.1,457.7L850.1,457.7z
			 M833.9,493.6c-0.2-0.2-0.6-0.2-0.8,0s-0.2,0.6,0,0.8c0.2,0.2,0.6,0.2,0.8,0S834.1,493.9,833.9,493.6L833.9,493.6z M843.4,502.4
			c-0.2-0.2-0.6-0.2-0.8,0s-0.2,0.5,0,0.8c0.2,0.2,0.5,0.2,0.8,0l0,0C843.6,502.9,843.6,502.6,843.4,502.4z M852.9,511.1
			c-0.2-0.2-0.5-0.2-0.7,0l0,0c-0.2,0.2-0.2,0.5,0,0.7l0,0c0.2,0.2,0.5,0.2,0.7,0l0,0C853.1,511.6,853.1,511.3,852.9,511.1
			L852.9,511.1z M843.2,465.5c-0.3,0-0.5,0.2-0.5,0.5c0,0,0,0,0,0.1c0,0.3,0.2,0.5,0.5,0.5s0.5-0.2,0.5-0.5c0,0,0,0,0-0.1
			C843.7,465.7,843.5,465.5,843.2,465.5L843.2,465.5L843.2,465.5z M856.1,464.9c-0.3,0-0.5,0.3-0.5,0.5c0,0.3,0.3,0.5,0.5,0.5l0,0
			c0.3,0,0.5-0.2,0.5-0.5c0,0,0,0,0-0.1C856.6,465.1,856.4,464.9,856.1,464.9L856.1,464.9L856.1,464.9z M829.2,520.8
			c-0.1-0.3-0.5-0.4-0.7-0.3c-0.3,0.1-0.4,0.4-0.3,0.7c0.1,0.3,0.4,0.4,0.7,0.3C829.2,521.4,829.3,521.1,829.2,520.8L829.2,520.8
			L829.2,520.8z M834.6,532.5c-0.1-0.3-0.4-0.4-0.7-0.3l0,0c-0.3,0.1-0.4,0.4-0.3,0.7c0.1,0.3,0.4,0.4,0.7,0.3l0,0
			C834.6,533.1,834.7,532.7,834.6,532.5L834.6,532.5z M834.6,478.8c-0.3-0.1-0.6,0.1-0.7,0.3c-0.1,0.3,0,0.6,0.3,0.7s0.6,0,0.7-0.3
			l0,0C835,479.2,834.8,478.9,834.6,478.8L834.6,478.8L834.6,478.8z M846.7,483.2c-0.3-0.1-0.6,0-0.7,0.3c-0.1,0.3,0,0.6,0.3,0.7
			s0.6,0,0.7-0.3C847.1,483.6,847,483.3,846.7,483.2L846.7,483.2z M858.8,487.6c-0.3-0.1-0.6,0-0.7,0.3l0,0c-0.1,0.3,0,0.6,0.3,0.7
			l0,0c0.3,0.1,0.6,0,0.7-0.3l0,0C859.2,488,859.1,487.7,858.8,487.6L858.8,487.6L858.8,487.6z M829,485.9c-0.1-0.1-0.3,0-0.3,0.1
			l0,0c-0.1,0.1,0,0.3,0.1,0.3l0,0c0.1,0.1,0.3,0,0.3-0.1l0,0C829.2,486.1,829.1,486,829,485.9L829,485.9L829,485.9z M835.3,473.3
			c-0.2,0-0.3,0.1-0.3,0.3c0,0.1,0.1,0.3,0.3,0.3s0.3-0.1,0.3-0.3l0,0C835.6,473.4,835.4,473.3,835.3,473.3L835.3,473.3z"/>
	</g>
	<g id="sweater_1_">
		
			<linearGradient id="R_sleeve_1_" gradientUnits="userSpaceOnUse" x1="719.4999" y1="-221.2999" x2="801.0636" y2="-221.2999" gradientTransform="matrix(1 0 0 1 0 644)">
			<stop  offset="0" style="stop-color:#23286B"/>
			<stop  offset="1" style="stop-color:#131951"/>
		</linearGradient>
		<path id="R_sleeve_2_" class="st6" d="M754.8,352c0,0,7.6,19.8,5.8,49.5c-1.1,18.1-16.3,39.1-28.7,53.6
			c-10.1,11.8-12.4,14.2-12.4,14.2l44.3,37c0,0,18.6-8.5,20.7-25.5s6.8-25.4,10.1-33.3c5.9-14.1,10.6-24.2,1.3-50.3
			c-8.6-24-17.8-51.4-27.3-58.1l0,0"/>
		
			<linearGradient id="sweater-2_2_" gradientUnits="userSpaceOnUse" x1="825.1854" y1="-266.3851" x2="825.1854" y2="-212.8109" gradientTransform="matrix(1 0 0 1 0 644)">
			<stop  offset="0" style="stop-color:#23286B"/>
			<stop  offset="1" style="stop-color:#131951"/>
		</linearGradient>
		<path id="sweater-2_1_" class="st7" d="M887.5,441.5c0,0-32.5,12.7-56.7,17c2.4-14.2,6.2-29.6-7.7-54
			c-16.3-28.6-47.5-59.5-61.1-65.9c18.7,2.2,36.6,8.4,52.7,18.1c27,16.3,27.6,27.1,42.8,37C872.8,403.7,892.8,415.3,887.5,441.5z"/>
		<path id="L_sleeve_2_" class="st2" d="M754.8,352c5.4,18,9.9,36.3,13.3,54.8c4,20.9-1,53.9-8.8,70.5
			c-7.7,16.6-10.3,19.6-10.3,19.6l60.3,34.6c0,0,19.8-13.7,18.7-33.7c-1.1-20,2.6-30.7,4.9-40.5c4-17.5,7.3-30.2-8.8-58.3
			c-14.8-26-43.2-54.1-55.5-59.9l0,0"/>
	</g>
	<g id="L_hand_2_">
		<polygon id="square-2" class="st0" points="594.8,538 669.1,456.1 750.8,530.6 676.5,612.6 		"/>
		<path id="L_hand-2" class="st1" d="M779,514.1c-11,10-22.9,19.1-35.6,26.9c-12.4,7.2-26.3,12.7-32.9,18.4
			c-9.9,8.5-19.2,11-31,10.3s-18.7-14.2-17.5-16c1.2-1.7,14.7,0.1,19-1.3c4.3-1.4,5.3-0.8-2.6-7.8c-8-7-2.6-8.2,1.9-5.2
			s14.1,3.7,19.3,4.8c7.3,1.5,12-3.7,24.4-14.5c6.5-5.7,17-20.3,25.3-32.8L779,514.1z"/>
	</g>
	<g id="head">
		<path id="face_1_" class="st1" d="M711.3,314.8c0,0.1,0.1,0.3,0.1,0.3v0.1c0.1,0.6,0.3,1.2,0.5,1.8c2,6.4-0.2,13.2,0.6,14.9
			s4.6,1.3,6.2,0.7c1.6-0.6,7.1,6.4,15.6,7.9c7.9,1.5,16.6-3.2,21-9.3c-3.7-14.1-8.6-19.4-23.9-19.4c-16.7,0-20.2-9.4-20.2-9.4
			C710.4,306.5,710.4,310.8,711.3,314.8z"/>
		
			<linearGradient id="neck_2_" gradientUnits="userSpaceOnUse" x1="763.8765" y1="-296.4539" x2="755.5389" y2="-304.3526" gradientTransform="matrix(1 0 0 1 0 644)">
			<stop  offset="0" style="stop-color:#FFBEB6"/>
			<stop  offset="1" style="stop-color:#F79992"/>
		</linearGradient>
		<path id="neck_1_" class="st8" d="M768.5,339.1c-4.8,14.4-13.7,12.9-13.7,12.9c-1.5-3.6-3.4-7-5.6-10.2c3.8-1.6,9.2-3.9,15-7
			L768.5,339.1z"/>
		<path id="hair_2_" class="st9" d="M797.7,302c-2.7-1.9-5.7-3.3-8.9-4.2c-6.2-1.9-11.7-5.4-16-10.2c-2.9-3.4-6.2-6.4-9.8-9
			c-8.8-7.2-20.9-8.7-31.3-3.9c-15.3,7.3-32,21.3-20.3,41c-1-4.3-1-8.7,0-12.9c0,0-0.7,7.8,13.1,10.9c5.3,1.6,10,5,13,9.6
			c4.4,7.2,2.9,16.5-4.9,20.4c-0.8,0.4-0.1,1.6,0.7,1.2c6.8-3.4,9.9-11.5,7.1-18.6c-1.8-4.7-5.2-8.7-9.6-11.1
			c10.8,3.8,12.7,16.4,12.2,29c0,0,39-13.1,53.5-35.9c-3-4.4-7.3-7.6-12.3-9.1c-6.6-2.2-13-9.9-17-15.1c3.1,3.1,5.9,6.6,9.4,9.5
			c6.1,5,14,5.2,20.2,9.7C797.7,303.7,798.4,302.5,797.7,302z"/>
		<path id="eye_1_" class="st10" d="M715.5,319.1c1.8,2,4.9,2.2,6.9,0.4c0.7-0.6,1.3-1.5,1.5-2.5c0.2-0.7-0.9-1.2-1.1-0.4
			c-0.4,2-2.4,3.3-4.4,2.9c-0.8-0.2-1.5-0.6-2-1.1C715.9,317.8,715,318.5,715.5,319.1L715.5,319.1z"/>
	</g>
	<path id="wheel" class="st2" d="M642.2,824.7c-25.8,0-46.7-21-46.7-46.8s20.9-46.8,46.7-46.8s46.7,21,46.7,46.8
		C688.9,803.8,668,824.7,642.2,824.7z M642.2,756.5c-11.8,0-21.4,9.6-21.4,21.4c0,11.8,9.6,21.4,21.4,21.4
		c11.8,0,21.4-9.6,21.4-21.4C663.6,766.1,654,756.5,642.2,756.5z"/>
	<g>
		<path class="st11" d="M452.6,814.5c-7.6,0-14.8-3.1-20.1-8.5c-9.3-9.1-11.5-23.3-5.5-34.8l22.1-44l8.1,4.1l-22.1,44
			c-4.2,8.1-2.6,17.9,3.8,24.3c5.8,6.1,15,7.6,22.5,3.7l134.4-76.6l4.5,7.9l-134.7,76.8C461.5,813.5,457.1,814.5,452.6,814.5z"/>
		<polygon class="st11" points="302.8,528.3 310.1,523 456.9,726.6 449.5,732 		"/>
		<path class="st11" d="M679.2,818.8c-1.2,0-2.4-0.5-3.2-1.4l-79.9-82.2c-11.1-0.1-70.5-0.9-142.9-1.4c-2.5,0-4.5-2.1-4.5-4.6l0,0
			c0-2.5,0.3-9.1,2.9-9.1c80.1,0.5,145.9,6,146.5,6c1.2,0,2.3,0.5,3.2,1.4l81.2,83.5c1.7,1.8,1.7,4.7-0.1,6.4
			C681.5,818.3,680.4,818.8,679.2,818.8L679.2,818.8z"/>
	</g>
	<path id="handle_1_" class="st2" d="M271.2,515.7h32c4,0,7.2,3.3,7.2,7.3l0,0c0,4-3.2,7.3-7.2,7.3h-32c-4,0-7.2-3.3-7.2-7.3l0,0
		C264,519,267.2,515.7,271.2,515.7z"/>
	<ellipse id="pin" class="st2" cx="642.2" cy="777.9" rx="9.2" ry="9.2"/>
	
		<linearGradient id="body_1_" gradientUnits="userSpaceOnUse" x1="555.7623" y1="-0.1921" x2="497.5315" y2="131.7183" gradientTransform="matrix(1 0 0 1 0 644)">
		<stop  offset="0" style="stop-color:#A1C3FC"/>
		<stop  offset="1" style="stop-color:#84AFEF"/>
	</linearGradient>
	<path id="body" class="st12" d="M438.7,636.7h240.4c0,0-61.9,87.4-92.7,88.5c-25.9,0.9-90,0.1-121.8,0c-10.2,0-16.7-7-18.9-15.8
		L438.7,636.7z"/>
	<g id="shoes-2">
		
			<linearGradient id="L_shoe-2_2_" gradientUnits="userSpaceOnUse" x1="62.4" y1="162.1" x2="171.8" y2="162.1" gradientTransform="matrix(1 0 0 1 0 644)">
			<stop  offset="0" style="stop-color:#A1C3FC"/>
			<stop  offset="1" style="stop-color:#84AFEF"/>
		</linearGradient>
		<path id="L_shoe-2_1_" class="st13" d="M77.9,784.5l-15.5,43.3h109.4c0,0-5.6-10.8-24.3-18.9s-36.2-24.5-36.2-24.5H77.9"/>
		<path id="R_shoe-2_1_" class="st11" d="M171.6,784.4l-15.5,43.3h109.4c0,0-5.6-10.8-24.3-18.9c-18.7-8-36.1-24.5-36.1-24.5h-33.5"
			/>
	</g>
	<g id="trousers-2">
		
			<linearGradient id="L_trousers-2_2_" gradientUnits="userSpaceOnUse" x1="84.1591" y1="30.9894" x2="156.8167" y2="-21.0429" gradientTransform="matrix(1 0 0 1 0 644)">
			<stop  offset="0" style="stop-color:#23286B"/>
			<stop  offset="1" style="stop-color:#131951"/>
		</linearGradient>
		<path id="L_trousers-2_1_" class="st14" d="M158.1,550.7c13.5,17.2,21.8,30.6,26,42.9c-5,16.9-10.8,34.4-17,50.3
			c-21.6,54.8-52.4,140.6-52.4,140.6H54.2c0,0-6.1-18.2-0.6-36c2.9-9.1,7.6-7.6,11.7-37.6c3.3-23.8,9.2-32.8,20-50.5
			s26.5-25.5,41.8-79.4c11.2-39.6,9.4-62.8,7.2-73.3C139.8,523.3,147.8,537.8,158.1,550.7z"/>
		
			<linearGradient id="R_trousers-2_1_" gradientUnits="userSpaceOnUse" x1="147.0861" y1="-67.4548" x2="104.1652" y2="-160.7358" gradientTransform="matrix(1 0 0 1 0 644)">
			<stop  offset="0" style="stop-color:#23286B"/>
			<stop  offset="1" style="stop-color:#142066"/>
		</linearGradient>
		<path id="R_trousers-2_2_" class="st15" d="M250.6,644c-3.8,22.4-45.4,140.5-45.4,140.5l-60.5-0.2c-2.7-29.1-0.5-29,7.6-46.4
			c8.1-17.5-3.1-31.5,10.6-55c9.7-16.6,13.9-21.8,21.5-49.1c7.5-27.4,2.2-47-26.2-83.1c-22.9-29.1-27.6-55-28.5-64
			c6.3,2,12.8,3.6,19.3,4.9c4,7.9,8.4,12.3,17.8,21.1c6,5.6,18.1,9.9,26.8,20.1c7.4,8.6,20,13.5,20,13.5l6.3-17.4
			c8.7,16.8,18.5,35.6,25.3,48.3C259.7,604.8,254.4,621.7,250.6,644z"/>
		<path id="texture-2_4_" class="st16" d="M150,517.5c-0.2-0.2-0.5-0.2-0.7,0l0,0c-0.2,0.2-0.2,0.5,0,0.6l0,0c0.2,0.2,0.5,0.2,0.7,0
			l0,0C150.2,518,150.2,517.7,150,517.5L150,517.5z M157.8,509.1c-0.2-0.2-0.5-0.1-0.7,0c-0.2,0.2-0.2,0.5,0,0.7s0.5,0.2,0.7,0
			S158,509.3,157.8,509.1L157.8,509.1z M186.9,542.7c-0.3,0-0.5,0.2-0.5,0.5l0,0c0,0.3,0.3,0.5,0.5,0.4c0.3,0,0.4-0.2,0.5-0.4l0,0
			C187.4,542.9,187.2,542.7,186.9,542.7z M186.6,531.2c-0.3,0-0.5,0.2-0.5,0.5s0.2,0.5,0.5,0.4l0,0c0.3,0,0.5-0.3,0.4-0.5
			C187,531.4,186.8,531.2,186.6,531.2L186.6,531.2z M142.9,498.7c-0.1-0.2-0.4-0.3-0.6-0.2c-0.2,0.1-0.3,0.4-0.2,0.6
			s0.4,0.3,0.6,0.2l0,0C142.9,499.2,143,498.9,142.9,498.7L142.9,498.7L142.9,498.7z M164,533.4c-0.2-0.1-0.5,0-0.6,0.3l0,0
			c-0.1,0.2,0.1,0.5,0.3,0.6c0.2,0.1,0.5,0,0.6-0.3l0,0C164.4,533.8,164.3,533.5,164,533.4L164,533.4L164,533.4z M168,522.6
			c-0.3-0.1-0.5,0-0.6,0.3s0.1,0.5,0.3,0.6c0.3,0.1,0.5,0,0.6-0.3C168.4,523,168.3,522.7,168,522.6C168,522.7,168,522.6,168,522.6z
			 M143.9,490.5c-0.1,0.1-0.1,0.2,0,0.3c0.1,0.2,0.3,0.3,0.5,0.3c0.2-0.1,0.3-0.3,0.3-0.4C144.4,490.6,144.2,490.6,143.9,490.5z
			 M153.7,529.3c-0.2-0.1-0.5,0-0.6,0.2s0,0.5,0.2,0.6c0.2,0.1,0.5,0,0.6-0.2C154,529.7,153.9,529.4,153.7,529.3L153.7,529.3
			L153.7,529.3z M158.1,520.1c-0.2-0.1-0.5,0-0.6,0.2s0,0.5,0.2,0.6c0.2,0.1,0.4,0,0.6-0.2C158.4,520.5,158.4,520.2,158.1,520.1
			L158.1,520.1z M162.6,510.9c-0.1-0.1-0.3-0.1-0.4,0l0,0c-0.1,0-0.1,0.1-0.1,0.2c-0.1,0.1-0.1,0.2,0,0.4c0,0.1,0.1,0.2,0.2,0.2
			c0.2,0.1,0.4,0,0.5-0.1c0,0,0,0,0-0.1C162.9,511.3,162.8,511,162.6,510.9L162.6,510.9L162.6,510.9z M147.1,505.6
			c-0.1-0.2-0.4-0.2-0.6-0.1l0,0c-0.2,0.2-0.2,0.4,0,0.6c0.1,0.2,0.4,0.2,0.6,0l0,0C147.3,506,147.3,505.8,147.1,505.6L147.1,505.6
			L147.1,505.6z M174.2,529.7c-0.2,0-0.4,0.2-0.5,0.4c0,0.2,0.2,0.4,0.4,0.4s0.4-0.1,0.5-0.4l0,0
			C174.6,529.9,174.4,529.7,174.2,529.7L174.2,529.7z M174.8,519.5c-0.2,0-0.4,0.2-0.4,0.4c0,0.2,0.2,0.4,0.4,0.4l0,0
			c0.2,0,0.4-0.2,0.4-0.4C175.2,519.7,175,519.5,174.8,519.5z M151.6,504.3c-0.1-0.1-0.3,0-0.3,0.1c-0.1,0.1-0.1,0.3,0,0.4l0,0
			c0.1,0.1,0.2,0.1,0.3,0l0,0C151.7,504.6,151.7,504.4,151.6,504.3z M145.6,492.8c-0.1-0.1-0.2-0.2-0.3-0.1l0,0
			c-0.1,0.1-0.2,0.2-0.1,0.4c0.1,0.1,0.2,0.1,0.4,0.1C145.6,493,145.7,492.9,145.6,492.8L145.6,492.8z M147.9,510.6
			c-0.1-0.1-0.3,0-0.4,0.1c-0.1,0.1,0,0.3,0.1,0.4s0.3,0,0.4-0.1l0,0C148.1,510.9,148.1,510.7,147.9,510.6
			C147.9,510.7,147.9,510.7,147.9,510.6L147.9,510.6z M151,504.5c-0.1-0.1-0.3,0-0.4,0.1c-0.1,0.1,0,0.3,0.1,0.4s0.3,0,0.4-0.1
			C151.2,504.7,151.1,504.6,151,504.5L151,504.5z M139,499c-0.1-0.1-0.3-0.1-0.4,0c-0.1,0.1-0.1,0.3,0,0.4s0.3,0.1,0.4,0l0,0
			C139.1,499.3,139.1,499.1,139,499L139,499z M144.2,494.5c-0.1-0.1-0.3-0.1-0.4,0l0,0c-0.1,0.1-0.1,0.3-0.1,0.4l0,0
			c0.1,0.1,0.3,0.1,0.4,0l0,0C144.2,494.8,144.3,494.6,144.2,494.5L144.2,494.5L144.2,494.5z M162.2,510.9L162.2,510.9
			c-0.2,0-0.3,0.1-0.3,0.3c0,0.1,0.1,0.2,0.2,0.3c0.1,0,0.1,0,0.1,0.1c0.2,0,0.3-0.1,0.3-0.3l0,0
			C162.5,511.1,162.4,510.9,162.2,510.9L162.2,510.9z M136.5,495.5c-0.2-0.2-0.5-0.2-0.7,0s-0.2,0.5,0,0.7s0.4,0.2,0.6,0.1l0,0
			C136.7,496,136.7,495.7,136.5,495.5L136.5,495.5z M154.7,540.4c-0.3,0-0.5,0.2-0.5,0.5s0.2,0.5,0.5,0.5s0.5-0.1,0.5-0.4l0,0
			C155.2,540.7,155,540.5,154.7,540.4L154.7,540.4z M155.3,528.6c-0.3,0-0.5,0.2-0.5,0.5s0.2,0.5,0.5,0.5s0.5-0.2,0.5-0.5l0,0
			C155.8,528.9,155.6,528.7,155.3,528.6C155.4,528.6,155.3,528.6,155.3,528.6L155.3,528.6z M155.9,516.8c-0.3,0-0.5,0.2-0.5,0.4l0,0
			c0,0.3,0.2,0.5,0.5,0.5s0.5-0.2,0.5-0.5C156.4,517.1,156.2,516.8,155.9,516.8L155.9,516.8z M156.6,505c-0.3,0-0.5,0.2-0.5,0.5
			s0.2,0.5,0.5,0.5s0.5-0.2,0.5-0.5C157,505.3,156.8,505,156.6,505z M142.4,507.8c-0.2-0.1-0.5,0-0.6,0.2l0,0
			c-0.1,0.2,0,0.5,0.2,0.7c0.2,0.1,0.5,0,0.7-0.2l0,0C142.8,508.2,142.7,507.9,142.4,507.8L142.4,507.8L142.4,507.8z M147.5,497.1
			c-0.2-0.1-0.5,0-0.7,0.2l0,0c-0.1,0.2,0,0.5,0.2,0.6l0,0c0.2,0.1,0.5,0,0.7-0.2C147.8,497.6,147.7,497.3,147.5,497.1L147.5,497.1z
			 M176.9,531.8c-0.3,0.1-0.4,0.4-0.3,0.6c0.1,0.3,0.4,0.4,0.6,0.3c0.2-0.1,0.4-0.4,0.3-0.6C177.5,531.9,177.2,531.7,176.9,531.8
			L176.9,531.8z M173,520.7c-0.2,0.1-0.4,0.3-0.3,0.6l0,0c0.1,0.3,0.4,0.4,0.6,0.3c0.2-0.1,0.4-0.4,0.3-0.6
			C173.5,520.7,173.3,520.6,173,520.7L173,520.7L173,520.7z M137.8,500.6c-0.2-0.1-0.5-0.1-0.6,0.2l0,0c-0.1,0.3,0,0.6,0.2,0.7
			s0.5,0,0.6-0.2C138.2,501,138.1,500.7,137.8,500.6L137.8,500.6L137.8,500.6z M143.6,490.5c-0.3,0-0.6-0.1-0.9-0.2
			c0,0-0.1,0-0.1,0.1c-0.1,0.2,0,0.5,0.2,0.7c0.3,0.1,0.6,0,0.7-0.3C143.6,490.7,143.6,490.6,143.6,490.5z M170.3,536.4
			c-0.3,0.1-0.4,0.4-0.3,0.6l0,0c0.1,0.3,0.3,0.4,0.6,0.3c0.3-0.1,0.4-0.4,0.3-0.6C170.8,536.4,170.5,536.3,170.3,536.4L170.3,536.4
			z M166.8,525.1c-0.3,0.1-0.4,0.4-0.3,0.6c0.1,0.3,0.4,0.4,0.6,0.3c0.3-0.1,0.4-0.4,0.3-0.6C167.3,525.2,167.1,525,166.8,525.1
			L166.8,525.1z M163.3,513.9c-0.3,0.1-0.4,0.4-0.3,0.6c0.1,0.3,0.4,0.4,0.6,0.3c0.3-0.1,0.4-0.3,0.3-0.6l0,0
			C163.8,513.9,163.6,513.8,163.3,513.9L163.3,513.9z M146.6,520.8c-0.3,0-0.5,0.2-0.5,0.5s0.2,0.5,0.4,0.5l0,0
			c0.3,0,0.5-0.2,0.5-0.4C147,521.1,146.8,520.9,146.6,520.8L146.6,520.8z M147.7,509.1c-0.3,0-0.5,0.2-0.5,0.4l0,0
			c0,0.3,0.2,0.5,0.4,0.5l0,0c0.3,0,0.5-0.2,0.5-0.5C148.1,509.4,147.9,509.1,147.7,509.1L147.7,509.1z M148.8,497.4
			c-0.3,0-0.5,0.2-0.5,0.4c0,0.3,0.2,0.5,0.4,0.5c0.3,0,0.5-0.1,0.5-0.4C149.2,497.7,149.1,497.4,148.8,497.4L148.8,497.4
			L148.8,497.4z M138.7,494.9c-0.2-0.1-0.4,0-0.5,0.2s0,0.4,0.2,0.5s0.4,0,0.5-0.2C139,495.2,138.9,495,138.7,494.9L138.7,494.9z
			 M168.7,516.4c-0.1-0.2-0.3-0.2-0.5-0.1c-0.2,0.1-0.2,0.3-0.1,0.5l0,0c0.1,0.2,0.3,0.2,0.5,0.1l0,0
			C168.7,516.8,168.8,516.6,168.7,516.4L168.7,516.4z M149.6,517.4c-0.2,0-0.3,0.2-0.3,0.4s0.2,0.3,0.4,0.3s0.3-0.2,0.3-0.4
			C150,517.5,149.8,517.4,149.6,517.4L149.6,517.4z M148.6,508.6c-0.2,0-0.3,0.2-0.3,0.4l0,0c0,0.2,0.2,0.4,0.4,0.3
			c0.2,0,0.3-0.2,0.3-0.4S148.8,508.6,148.6,508.6L148.6,508.6z M147.5,499.8c-0.2,0-0.3,0.2-0.3,0.4c0,0.2,0.2,0.3,0.4,0.3l0,0
			c0.2,0,0.3-0.2,0.3-0.4l0,0C147.9,499.9,147.7,499.8,147.5,499.8L147.5,499.8z M146.9,491.2c-0.2,0-0.4-0.1-0.5-0.1
			c-0.1,0.1-0.2,0.2-0.1,0.3c0,0.2,0.2,0.4,0.4,0.3l0,0C146.9,491.7,147,491.5,146.9,491.2L146.9,491.2
			C146.9,491.2,146.9,491.2,146.9,491.2L146.9,491.2z M145.2,498.3c-0.1,0-0.1,0.1-0.1,0.2l0,0c0,0.1,0.1,0.2,0.2,0.1l0,0
			c0.1-0.1,0.2-0.1,0.1-0.3S145.3,498.3,145.2,498.3L145.2,498.3z M144.1,493.8c0-0.1-0.1-0.2-0.2-0.2c-0.1,0-0.2,0.2-0.1,0.3
			c0,0.1,0.1,0.2,0.2,0.1l0,0C144.1,494,144.1,493.9,144.1,493.8L144.1,493.8z M135.6,491.7c-0.1,0-0.2,0.1-0.2,0.2s0.1,0.2,0.2,0.2
			c0.1,0,0.2-0.1,0.3-0.2C135.8,491.8,135.7,491.7,135.6,491.7L135.6,491.7z M152,505.4c-0.1-0.1-0.3-0.2-0.5-0.1s-0.2,0.3-0.1,0.5
			l0,0c0.1,0.1,0.3,0.2,0.5,0.1C152.1,505.7,152.1,505.5,152,505.4L152,505.4L152,505.4z M147,499.1c-0.1-0.1-0.3-0.2-0.4-0.1l0,0
			c-0.1,0.1-0.2,0.3-0.1,0.4l0,0c0.1,0.1,0.3,0.2,0.4,0.1l0,0C147.1,499.4,147.2,499.2,147,499.1C147.1,499.1,147.1,499.1,147,499.1
			L147,499.1z M142.1,492.7c-0.1-0.1-0.3-0.2-0.5-0.1c-0.1,0.1-0.2,0.3-0.1,0.5c0.1,0.1,0.3,0.2,0.5,0.1S142.2,492.9,142.1,492.7
			C142.1,492.8,142.1,492.8,142.1,492.7L142.1,492.7z"/>
	</g>
	<g id="hand">
		
			<linearGradient id="SVGID_1_" gradientUnits="userSpaceOnUse" x1="280.3186" y1="-119.7354" x2="183.2206" y2="-179.3704" gradientTransform="matrix(1 0 0 1 0 644)">
			<stop  offset="0" style="stop-color:#FFBEB6"/>
			<stop  offset="1" style="stop-color:#F79992"/>
		</linearGradient>
		<path class="st17" d="M222.3,473.1c0,0,38.7,27,62.2,32.7c23.6,5.7,21.3,19.6,21.7,23.9s-6.8,13.3-11.2,14.8
			c-4.5,1.5-5.9-20.6-20.4-26.5c-14.5-5.9-45.8-2.1-59.7-10.2L222.3,473.1z"/>
	</g>
	<g id="sweater-3">
		
			<linearGradient id="sweater-4_1_" gradientUnits="userSpaceOnUse" x1="202.0684" y1="-226.0961" x2="64.0243" y2="-142.4734" gradientTransform="matrix(1 0 0 1 0 644)">
			<stop  offset="0" style="stop-color:#428DFC"/>
			<stop  offset="1" style="stop-color:#1E77E0"/>
		</linearGradient>
		<path id="sweater-4" class="st18" d="M206.8,369.5c-5.5,14.3-8.3,29.5-8.4,44.8c-0.1,7.6,0.8,15.1,2.6,22.5l0,0
			c-0.8,29-0.4,55.1-0.4,55.1c-16.1,2.8-32.5,2.8-48.7,0.1c-19.8-3.1-38.8-10.1-55.9-20.8c0,0-5.9-20,16.3-39.1
			c18.6-16.1,12.6-16.3,26.9-37.1c17.8-25.9,56.6-46.1,56.6-46.1L206.8,369.5L206.8,369.5z"/>
		<path id="R_sleeve-2_1_" class="st4" d="M236.4,482.4l-23,63.7c0,0-12.5-4.8-19.9-13.4c-8.8-10.2-20.8-14.5-26.8-20.1
			c-12.1-11.3-15.8-15.3-21.2-28.9c-3.5-8.9-1.9-24,0.5-39c6.9-44.3,28.9-67.3,49.9-95.8c0,0,2.6,18.9,10.9,20.6l0,0
			c-5.5,14.3-8.3,29.5-8.4,44.8c-0.1,7.6,0.8,15.1,2.6,22.5l0,0C205.5,456.5,218.5,473.2,236.4,482.4z"/>
	</g>
	<g id="head-2">
		<path id="neck-2_1_" class="st1" d="M217.5,353.5l-10.8,16c0,0-10.3-7-10.9-17.9c3.3-0.1,6.4-1.1,9.1-2.9
			C208.8,351.2,213.1,352.9,217.5,353.5z"/>
		<path id="face-2_1_" class="st1" d="M245.7,338.5c0,0-7.5,15.9-21.7,15.6c-6.7,0.1-13.3-1.8-19-5.4c7.9-4.8,14.3-14.5,14.3-21.5
			c0,0,11,8,12.9-6.1c5.3,0.3,10.6-0.8,15.4-3.2c1,5.5,2.5,10.8,4.5,16C254.3,339,245.7,338.5,245.7,338.5z"/>
		<path id="mouth" class="st10" d="M236.9,341.8c-0.2,2.6,1.8,4.8,4.3,5c0.9,0.1,1.9-0.1,2.7-0.6c0.6-0.3,0.2-1.4-0.4-1
			c-1.7,1.1-3.9,0.5-4.9-1.1c-0.4-0.6-0.6-1.4-0.5-2.1C238.1,341.3,236.9,341.1,236.9,341.8L236.9,341.8z"/>
		<path id="hair-2_2_" class="st2" d="M256.7,293.6c-0.4-0.8-1.6-0.1-1.2,0.7c3.7,7,2.2,15.7-3.6,21c-2.8,2.6-6.4,4.3-10.2,4.9
			c6.4-1.6,13.7-5.8,14.4-16.6c1.1-18-16.9-16-19.4-8.2c0.5-4.5,0.5-16.3-13.1-20.6c-17-5.3-12.9,11-10.2,14.8c0,0-4.5-6.1-13.6-3.4
			c-9.1,2.6-3.8,9.9-3.8,9.9s-20.4-6.4-27.6,12.9c-4.8,12.8,3.4,17.6,10.2,18.8c-6.5,0.4-12.4-2.2-14-10.4c-0.2-0.9-1.5-0.5-1.3,0.4
			c2.3,11.9,13.3,13.1,22.6,9.7c-1.7,1.6-9.8,10,1.4,20.6c12.5,11.8,32.2-8.7,32.2-20.9c0,0,10.9,7.9,12.8-6
			c7.8,1.7,16.1,0,21.8-6.1C259.4,309.3,260.5,300.7,256.7,293.6z"/>
	</g>
</g>
</svg>
