<?xml version="1.0" encoding="utf-8"?>
<!-- Generator: Adobe Illustrator 23.0.0, SVG Export Plug-In . SVG Version: 6.00 Build 0)  -->
<svg version="1.1" id="레이어_1" xmlns="http://www.w3.org/2000/svg" xmlns:xlink="http://www.w3.org/1999/xlink" x="0px"
	 y="0px" width="120px" height="65px" viewBox="0 0 120 65" style="enable-background:new 0 0 120 65;" xml:space="preserve">
<style type="text/css">
	.st0{enable-background:new    ;}
	.st1{fill:#ABAEFC;}
	.st2{fill:#E9E9FD;}
	.st3{fill:#C4D3FD;}
	.st4{fill:#969AFC;}
	.st5{fill:#454A59;}
	.st6{fill:#2B2E36;}
	.st7{fill:#202329;}
</style>
<g>
	<g>
		<g class="st0">
			<g>
				<polygon class="st1" points="101.1,27.6 73.5,57.9 0.6,35.7 28.2,5.4 				"/>
			</g>
			<g>
				<polygon class="st2" points="47.4,16.4 27,38.8 13.9,34.7 34.2,12.3 				"/>
			</g>
			<g>
				<polygon class="st3" points="101.1,27.6 101.1,34.7 73.5,65 72,61.6 73.5,57.9 				"/>
			</g>
			<g>
				<path class="st4" d="M73.5,57.9c-0.8,2.5-0.8,4.8,0,7.1L0.6,42.8c-0.8-2.5-0.8-4.9,0-7.1L73.5,57.9z"/>
			</g>
		</g>
	</g>
	<g>
		<g class="st0">
			<g>
				<polygon class="st5" points="120,29.5 83.2,50.9 31.8,21.3 68.7,0 				"/>
			</g>
			<g>
				<polygon class="st3" points="120,29.5 120,35.8 83.2,57.1 82.1,54 83.2,50.9 				"/>
			</g>
			<g>
				<path class="st6" d="M83.2,50.9c-0.5,2.1-0.5,4.2,0,6.2L31.8,27.6c-0.4-2.1-0.4-4.1,0-6.2L83.2,50.9z"/>
			</g>
		</g>
		<polygon class="st6" points="63.8,2.8 61.2,4.3 112.2,34.1 115.2,32.3 		"/>
		<polygon class="st7" points="112.2,34.1 112.2,40.3 115.2,38.6 115.2,32.3 		"/>
	</g>
</g>
</svg>
