<?xml version="1.0" encoding="utf-8"?>
<!-- Generator: Adobe Illustrator 23.0.0, SVG Export Plug-In . SVG Version: 6.00 Build 0)  -->
<svg version="1.1" id="레이어_1" xmlns="http://www.w3.org/2000/svg" xmlns:xlink="http://www.w3.org/1999/xlink" x="0px"
	 y="0px" width="73px" height="6px" viewBox="0 0 73 6" style="enable-background:new 0 0 73 6;" xml:space="preserve">
<style type="text/css">
	.st0{fill:#F27E91;}
</style>
<g>
	<path class="st0" d="M5.7,3c0,1.7-1.3,3-2.9,3C1.3,6,0,4.7,0,3s1.3-3,2.9-3C4.4,0,5.7,1.3,5.7,3z"/>
	<path class="st0" d="M16.9,3c0,1.7-1.3,3-2.9,3s-2.9-1.3-2.9-3s1.3-3,2.9-3S16.9,1.3,16.9,3z"/>
	<path class="st0" d="M28.1,3c0,1.7-1.3,3-2.9,3s-2.9-1.3-2.9-3s1.3-3,2.9-3C26.9,0,28.1,1.3,28.1,3z"/>
	<path class="st0" d="M39.4,3c0,1.7-1.3,3-2.9,3c-1.6,0-2.9-1.3-2.9-3s1.3-3,2.9-3C38.1,0,39.4,1.3,39.4,3z"/>
	<path class="st0" d="M50.6,3c0,1.7-1.3,3-2.9,3c-1.6,0-2.9-1.3-2.9-3s1.3-3,2.9-3S50.6,1.3,50.6,3z"/>
	<path class="st0" d="M61.8,3c0,1.7-1.3,3-2.9,3S56,4.7,56,3s1.3-3,2.9-3S61.8,1.3,61.8,3z"/>
	<path class="st0" d="M73,3c0,1.7-1.3,3-2.9,3s-2.9-1.3-2.9-3s1.3-3,2.9-3S73,1.3,73,3z"/>
</g>
</svg>
