<?xml version="1.0" encoding="utf-8"?>
<!-- Generator: Adobe Illustrator 23.0.0, SVG Export Plug-In . SVG Version: 6.00 Build 0)  -->
<svg version="1.1" id="레이어_1" xmlns="http://www.w3.org/2000/svg" xmlns:xlink="http://www.w3.org/1999/xlink" x="0px"
	 y="0px" width="123px" height="304px" viewBox="0 0 123 304" style="enable-background:new 0 0 123 304;" xml:space="preserve">
<style type="text/css">
	.st0{fill-rule:evenodd;clip-rule:evenodd;fill:url(#SVGID_1_);}
	.st1{fill-rule:evenodd;clip-rule:evenodd;fill:#FFF6E0;}
	.st2{fill-rule:evenodd;clip-rule:evenodd;fill:#F0DEB4;}
	.st3{fill:none;stroke:#669149;stroke-width:1.39;stroke-linecap:round;stroke-linejoin:round;}
	.st4{fill-rule:evenodd;clip-rule:evenodd;fill:#FFD980;}
	.st5{fill-rule:evenodd;clip-rule:evenodd;fill:url(#SVGID_2_);}
	.st6{fill-rule:evenodd;clip-rule:evenodd;fill:#BDB6A6;}
	.st7{fill-rule:evenodd;clip-rule:evenodd;fill:#A69876;}
	.st8{fill-rule:evenodd;clip-rule:evenodd;fill:#CCBD99;}
</style>
<g>
	
		<linearGradient id="SVGID_1_" gradientUnits="userSpaceOnUse" x1="95.1551" y1="-68.3616" x2="100.3184" y2="-68.3616" gradientTransform="matrix(1 0 0 1 0 284)">
		<stop  offset="0" style="stop-color:#EAE2CE"/>
		<stop  offset="1" style="stop-color:#DED3B8"/>
	</linearGradient>
	<path class="st0" d="M95.8,131.8h3.8c0.4,0,0.7,0.3,0.7,0.6v166.5c0,0.3-0.3,0.6-0.7,0.6h-3.8c-0.4,0-0.7-0.3-0.7-0.6V132.4
		C95.2,132,95.5,131.8,95.8,131.8z"/>
	<path class="st1" d="M108.7,107c6.6,12.8-1,23-13,28.6c-12,5.7-25.7,2.1-30.5-8.1C65.1,127.6,108.2,106,108.7,107z"/>
	<path class="st2" d="M99.2,131.3c5-5.4,3.9-12.1,3-16.1c-0.9-4-11.7-0.1-11.7-0.1c9.5-4.6,18-8.5,18.2-8.1
		c6.5,12.7-0.9,22.8-12.7,28.5C96,135.5,94.2,136.7,99.2,131.3z"/>
	<path class="st3" d="M66,131.9"/>
	<path class="st4" d="M65.2,127c-0.5-1.1,8.8-6.5,20.8-12.2s22.2-9.4,22.7-8.4c0.5,1.1-8.8,6.5-20.8,12.2
		C75.8,124.4,65.7,128.1,65.2,127z"/>
	
		<linearGradient id="SVGID_2_" gradientUnits="userSpaceOnUse" x1="498.8799" y1="241.1756" x2="498.8799" y2="323.629" gradientTransform="matrix(0.9033 -0.4291 0.4291 0.9033 -497.0374 37.7822)">
		<stop  offset="0" style="stop-color:#FD9599;stop-opacity:0"/>
		<stop  offset="1" style="stop-color:#FD9599"/>
	</linearGradient>
	<path class="st5" d="M108.3,105.6c0.7,1.5-8.4,7.4-20.4,13.1s-22.4,9-23.1,7.5L0,45.5L96.3,0L108.3,105.6z"/>
	<path class="st6" d="M84.6,138.3l21-9.6c0,0-2.4,9.1-7.4,11.6S84.6,138.3,84.6,138.3z"/>
	<path class="st7" d="M96.7,132.8l8.9-4.1c0,0-2.4,9.1-7.4,11.6c-0.4,0.2-0.8,0.4-1.3,0.5C101,136.4,96.7,132.8,96.7,132.8z"/>
	<path class="st8" d="M95.1,292c0,0,2.5,1.3,5.3,0.1v4.4H95L95.1,292z"/>
	<path class="st6" d="M75.2,296.4h47.1c0.4,0,0.7,0.3,0.7,0.6v6.4c0,0.3-0.3,0.6-0.7,0.6H75.2c-0.4,0-0.7-0.3-0.7-0.6V297
		C74.5,296.6,74.8,296.4,75.2,296.4z"/>
	<path class="st7" d="M114.3,303.2c0.8-0.3,0.9-1.2,0.9-1.2s0.1-0.5,0-2.8c-0.1-2.4-2.1-2.8-2.1-2.8h9.2c0.4,0,0.7,0.3,0.7,0.6v6.4
		c0,0.3-0.3,0.6-0.7,0.6h-10.9C111.4,304,111.7,304.2,114.3,303.2z"/>
</g>
</svg>
