<?xml version="1.0" encoding="utf-8"?>
<!-- Generator: Adobe Illustrator 23.0.0, SVG Export Plug-In . SVG Version: 6.00 Build 0)  -->
<svg version="1.1" id="레이어_1" xmlns="http://www.w3.org/2000/svg" xmlns:xlink="http://www.w3.org/1999/xlink" x="0px"
	 y="0px" width="669.4px" height="607px" viewBox="0 0 669.4 607" style="enable-background:new 0 0 669.4 607;"
	 xml:space="preserve">
<style type="text/css">
	.st0{fill:#949CFF;}
	.st1{fill:url(#SVGID_1_);}
	.st2{fill-rule:evenodd;clip-rule:evenodd;fill:#FBB89D;}
	.st3{fill-rule:evenodd;clip-rule:evenodd;fill:#F7557E;}
	.st4{fill-rule:evenodd;clip-rule:evenodd;fill:#F27062;}
	.st5{fill-rule:evenodd;clip-rule:evenodd;fill:#489BF2;}
	.st6{fill-rule:evenodd;clip-rule:evenodd;fill:#3486C7;}
	.st7{fill-rule:evenodd;clip-rule:evenodd;fill:#2C8FDE;}
	.st8{fill-rule:evenodd;clip-rule:evenodd;fill:#F2B79B;}
	.st9{fill-rule:evenodd;clip-rule:evenodd;fill:url(#SVGID_2_);}
	.st10{fill:url(#SVGID_3_);}
	.st11{fill-rule:evenodd;clip-rule:evenodd;fill:url(#SVGID_4_);}
	.st12{fill:#2F2FC2;}
	.st13{fill-rule:evenodd;clip-rule:evenodd;fill:#B3DEF2;}
	.st14{fill-rule:evenodd;clip-rule:evenodd;fill:#F2D662;}
	.st15{fill-rule:evenodd;clip-rule:evenodd;fill:#E3A138;}
	.st16{fill-rule:evenodd;clip-rule:evenodd;fill:#F2F1ED;}
	.st17{fill-rule:evenodd;clip-rule:evenodd;fill:#EBE0B4;}
	.st18{fill-rule:evenodd;clip-rule:evenodd;fill:url(#SVGID_5_);}
	.st19{fill-rule:evenodd;clip-rule:evenodd;fill:#E8836B;}
	.st20{fill:#B3D3FF;}
	.st21{fill:#80C4D6;}
	.st22{fill-rule:evenodd;clip-rule:evenodd;fill:#C4CCF8;}
	.st23{fill-rule:evenodd;clip-rule:evenodd;fill:#E2EBF8;}
	.st24{fill-rule:evenodd;clip-rule:evenodd;fill:#BBC3F8;}
</style>
<g>
	<g>
		<g>
			<path class="st0" d="M72,565.6h480.1c0,0-64.6-40.2-112.2-84.1s-55.5-62.1-90-46.6s-69.3,50.3-93.1,59.4s-45.4-34.7-87.9,0
				C128.8,527.2,72,565.6,72,565.6z"/>
		</g>
		<g>
			
				<linearGradient id="SVGID_1_" gradientUnits="userSpaceOnUse" x1="258.6034" y1="910.7421" x2="641.233" y2="908.9114" gradientTransform="matrix(1 0 0 1 0 -342)">
				<stop  offset="0" style="stop-color:#9097BD;stop-opacity:0"/>
				<stop  offset="1" style="stop-color:#9097BD"/>
			</linearGradient>
			<ellipse class="st1" cx="434.6" cy="567.9" rx="166.7" ry="10.4"/>
			<path class="st2" d="M532.3,516.3l12.3,33.5c0,0,0.8,4.5-2.3,12c0,0-10,22,2.4,12.3s20.2-16,21.4-24.5c0.1-0.7-6.5-40-6.5-40
				L532.3,516.3z"/>
			<path class="st3" d="M552.1,559.1c-8.8,6.5-9.7,2.7-9.7,2.7s-10,22,2.4,12.3s20.2-16,21.4-24.5c0-0.1-0.2-1.5-0.5-3.8
				C566.2,547.8,561,552.6,552.1,559.1z"/>
			<path class="st4" d="M536.2,527.2l25.2-7.5l4.3,26.1c0,0-6.7-14.3-10.4-16.6C550.7,526.2,536.2,527.2,536.2,527.2z"/>
			<path class="st2" d="M350,434.9l-9.2,34.5c0,0-1.9,4.1-8.8,8.5c0,0-20.8,12.2-5.1,11.4c15.7-0.8,25.7-1.5,31.6-7.8
				c0.5-0.5,17.8-36.5,17.8-36.5L350,434.9z"/>
			<path class="st3" d="M341.5,481.3c-10.9,0.2-9.5-3.4-9.5-3.4s-20.8,12.2-5.1,11.4c15.7-0.8,25.7-1.5,31.6-7.8
				c0.1-0.1,0.7-1.4,1.7-3.4C359.6,480.1,352.5,481,341.5,481.3z"/>
			<path class="st4" d="M346,449.9l25.8,4.4l-11.5,23.8c0,0,2.8-15.5,1.1-19.6C359.3,453.6,346,449.9,346,449.9z"/>
			<path class="st5" d="M464.8,343.8c0,0,35.6,150.2,54.9,187.2l52.5-12.3c0,0-12.4-27.7-18.3-43c-5.9-15.3,0.5-11.4-2-36.1
				s-8.4-23.2-14.8-43c-6.4-19.8-3-28.7-5.4-43c-2.5-14.3-7.6-38-7.6-38L464.8,343.8z"/>
			<path class="st6" d="M532.5,361.9c-0.1-2.6-0.4-5.3-0.9-8.3c-2.5-14.3-7.9-40.3-7.9-40.3l-58.9,30.4c0,0,22.3-3.9,35.2-4.2
				c13-0.3,20.4,4.2,23.4,7.4C526.3,350.3,532.5,361.9,532.5,361.9z"/>
			<path class="st5" d="M323.7,446l62.3,10.9c0,0,6.4-11.9,8.9-30.6c2.5-18.8,1.5-14.8,11.4-34.6c9.9-19.8,16.3-18.8,15.3-31.1
				c-1-12.3,8.4-11.4,8.4-11.4s7.9,0,36.1-3.5s63.2-30.4,64.2-44.7l-48.4-15.6l-17.4,8.8c0,0-73.1-5.3-87,23.4
				C363.8,346.2,323.7,446,323.7,446z"/>
			<path class="st7" d="M459.1,308.8c-1,6.8-10.4,14.6-22.1,18.1c-11.7,3.6-19.5,11-19.5,11c-11.4,13-16.5,38.2-23,43.7
				s-13.6,24.3-16.5,37.2c-2.9,13-9.5,34.9-9.5,34.9l17.5,3.1c0,0,6.4-11.9,8.9-30.6c2.5-18.8,1.5-14.8,11.4-34.6
				c9.9-19.8,16.3-18.8,15.3-31.1c-1-12.3,8.4-11.4,8.4-11.4s7.9,0,36.1-3.5s63.2-30.4,64.2-44.7l-48.4-15.6l-17.4,8.8
				c0,0-1.7-0.1-4.5-0.2C460.1,294,460.1,302,459.1,308.8z"/>
			<path class="st8" d="M499.1,150.5c0,0,0.8,26.9,0.5,27.9c-0.4,1.1,4,1.9,8.9,2l3.4-30.7L499.1,150.5z"/>
			<path class="st4" d="M499.4,153.1c0,0,8.6,1.2,12.3-0.3l-12.1,15.8L499.4,153.1z"/>
			
				<linearGradient id="SVGID_2_" gradientUnits="userSpaceOnUse" x1="479.9292" y1="578.5676" x2="542.0518" y2="582.1083" gradientTransform="matrix(1 0 0 1 0 -342)">
				<stop  offset="0" style="stop-color:#F2EFE3"/>
				<stop  offset="1" style="stop-color:#F2E9C6"/>
			</linearGradient>
			<path class="st9" d="M459.9,293.7c0,0,1.6-40.1,4.8-66.8c2.9-24.7,16.7-46.4,30.5-52c1.5-0.6,3.3-0.7,4.9-0.2
				c1.6,0.6,4.6,1.2,10.4,1c10.6-0.3,25.2,7.5,27.7,25.5s2,53-1.1,74.5c-3.1,21.4-6.2,27-6.2,27L459.9,293.7"/>
			
				<linearGradient id="SVGID_3_" gradientUnits="userSpaceOnUse" x1="614.9871" y1="478.4693" x2="529.8311" y2="485.7684" gradientTransform="matrix(1 0 0 1 0 -342)">
				<stop  offset="0" style="stop-color:#1A1A9D"/>
				<stop  offset="1" style="stop-color:#131057"/>
			</linearGradient>
			<path class="st10" d="M518.2,132c0,0,5.3-9.5,19.6-10.1s16,9.5,50.5,6.5c34.4-3,54-15.4,65.9-26.1c0,0,13.7,36.8,14.8,54.5
				c0,0-24.3,13.5-61.3,7.6c-29.1-4.6-36.5-13.6-60.3-26.2c-12.2-6.5-20.3,0.8-26.2,5L518.2,132z"/>
			<path class="st8" d="M487.2,137.8c0-9,7.9-16.3,17.7-16.3c9.8,0,17.7,7.3,17.7,16.3s-7.9,16.3-17.7,16.3
				C495.2,154.1,487.2,146.8,487.2,137.8z"/>
			<path class="st4" d="M487.7,140.8l-3.6,3.8c-0.5,0.4-0.1,1.2,0.5,1c1.2-0.2,2.8-0.4,4.8-0.7L487.7,140.8z"/>
			
				<linearGradient id="SVGID_4_" gradientUnits="userSpaceOnUse" x1="499.3395" y1="458.166" x2="500.1491" y2="476.1414" gradientTransform="matrix(1 0 0 1 0 -342)">
				<stop  offset="0" style="stop-color:#1A1A9D"/>
				<stop  offset="1" style="stop-color:#131057"/>
			</linearGradient>
			<path class="st11" d="M490.3,115.6c-4.5-1.8-11.9,0.3-13.5,4.9c-1.6,4.7,0.1,11.3,10.1,14.1s12.3-1.4,20.3-0.2
				c8,1.2,13.1,10.1,12.7,11.9c-0.6,2,12.4-16-7-25.2c0,0-5.6-2.1-11.8-2.1C497.7,119,494.8,117.4,490.3,115.6z"/>
			<path class="st5" d="M502.6,145.5"/>
			<path class="st12" d="M464.6,347.2c-0.6,0-1.1-0.4-1.2-1c-0.1-0.7,0.4-1.3,1-1.3c0.3,0,25.5-3.7,41-15.6
				c15.1-11.7,17.1-16.3,17.1-16.3c0.2-0.6,0.9-0.9,1.5-0.7c0.6,0.2,0.9,0.9,0.7,1.5c-0.2,0.5-2.2,5.2-17.9,17.4
				c-16,12.4-41,16-42.1,16.1C464.7,347.2,464.7,347.2,464.6,347.2z"/>
			<path class="st13" d="M460.5,280.9c0,0,63.7,11.4,74,10l1.2-6.1l-74.9-10.4L460.5,280.9z"/>
			<path class="st13" d="M461.5,263.4c0,0,65.3,11.7,75.7,10.2l0.6-6.4l-76.1-10.4L461.5,263.4z"/>
			<path class="st13" d="M462.9,244.8c0,0,65.7,11.8,76,10.4l0.3-6.6l-76.1-10.4L462.9,244.8z"/>
			<path class="st13" d="M464.1,229.9c0,0,65,11.6,75.3,10.1l0.3-6.6l-74.6-10.2L464.1,229.9z"/>
			<path class="st13" d="M466.9,214.4c0,0,62.4,11.5,72.8,10l-0.2-7L469,208L466.9,214.4z"/>
			<path class="st13" d="M474.5,196.1c0,0,53.8,10.9,64.1,9.4l-1-7.5l-59.5-8L474.5,196.1z"/>
			<path class="st13" d="M485,181.8c0,0,43.2,8.6,50.6,8l-3.9-7.2l-39.8-6C489.6,177.9,485,181.8,485,181.8z"/>
			<path class="st8" d="M346.2,195.2c1.2-0.5,2.7-0.4,3.9,0.1c1.5,0.7,4.7,1.6,9.9,1.1c8-0.8,13.8-2.1,18.4,0.5
				c4.5,2.5,21.6,12.6,21.6,12.6l-4.1,12.6l-19.9-13c0,0-1.9-0.5-11.5-2C355.9,205.6,340.8,197.5,346.2,195.2z"/>
			<path class="st14" d="M402.3,198.7l-14.9,25.4c0,0,37.6,24.2,55,31.3s45.1,13.7,55.3-2.5l-28.9-23.6L402.3,198.7z"/>
			<path class="st15" d="M477.6,263c8.4-0.4,15.8-3.2,20.1-10l-28.9-23.6l-2.2-1c0,0,7.4,12.5,9,20.6
				C477.3,257.1,477.6,263,477.6,263z"/>
			<path class="st16" d="M468.9,229.4l30.8,30.7c0,0,41.5-41.6,37.3-63.6c-2.7-14.4-5.5-18.8-21.5-16.7
				C498.4,181,468.9,229.4,468.9,229.4z"/>
			<path class="st17" d="M479.8,240.3l19.8,19.8c0,0,41.5-41.6,37.3-63.6c-1-5.2-2-9.1-3.6-11.8c0,0-0.3,16-12.3,28
				C509.1,224.7,491.7,246.6,479.8,240.3z"/>
			<path class="st4" d="M396.9,207.7l-6.2,10.8l-6.5-4.1C384.3,214.4,393.6,210.8,396.9,207.7z"/>
			<polygon class="st13" points="473.7,221.8 507.7,251.6 511.9,246.7 477.5,216.8 			"/>
			<polygon class="st13" points="483.4,208.3 518.5,238.3 522.5,233.3 487.1,203.3 			"/>
			<polygon class="st13" points="492.5,196.7 527.2,226.1 530.7,220.3 496.8,192.1 			"/>
			<path class="st13" d="M534.8,211.3l-30.5-26c0,0,2.2-1.6,3-2.2c0.8-0.6,2.3-1.3,2.3-1.3l27.3,22.6c0,0-0.7,3.1-0.9,3.8
				C535.7,208.8,534.8,211.3,534.8,211.3z"/>
			
				<linearGradient id="SVGID_5_" gradientUnits="userSpaceOnUse" x1="494.1118" y1="480.2" x2="495.4906" y2="480.2" gradientTransform="matrix(1 0 0 1 0 -342)">
				<stop  offset="0" style="stop-color:#1A1A9D"/>
				<stop  offset="1" style="stop-color:#131057"/>
			</linearGradient>
			<path class="st18" d="M495.5,138.2c0,0.8-0.3,1.5-0.7,1.5c-0.4,0-0.7-0.7-0.7-1.5s0.3-1.5,0.7-1.5
				C495.1,136.7,495.5,137.4,495.5,138.2z"/>
			<path class="st19" d="M503.6,144.8c0,1.9-1.6,3.4-3.6,3.4s-3.6-1.5-3.6-3.4s1.6-3.4,3.6-3.4C502,141.4,503.6,142.9,503.6,144.8z"
				/>
			<g>
				<polygon class="st20" points="496.2,346.4 495.9,345.2 497,344.9 497.3,346.1 				"/>
				<path class="st20" d="M542.8,517l-0.8-2.3l1.1-0.4l0.8,2.3L542.8,517z M541.3,512.4l-0.7-2.3l1.1-0.4l0.7,2.3L541.3,512.4z
					 M539.8,507.9l-0.7-2.3l1.1-0.4l0.7,2.3L539.8,507.9z M538.3,503.3l-0.7-2.3l1.1-0.4l0.7,2.3L538.3,503.3z M536.9,498.8
					l-0.7-2.3l1.1-0.4l0.7,2.3L536.9,498.8z M535.4,494.2l-0.7-2.3l1.1-0.4l0.7,2.3L535.4,494.2z M533.9,489.7l-0.7-2.3l1.1-0.4
					l0.7,2.3L533.9,489.7z M532.5,485.1l-0.7-2.3l1.1-0.4l0.7,2.3L532.5,485.1z M531.1,480.5l-0.7-2.3l1.1-0.3l0.7,2.3L531.1,480.5z
					 M529.7,475.9c-0.2-0.8-0.5-1.6-0.7-2.3l1.2-0.3c0.2,0.7,0.4,1.5,0.7,2.3L529.7,475.9z M528.4,471.3l-0.6-2.3l1.2-0.3l0.6,2.2
					l-0.5,0.3L528.4,471.3z M527.2,466.7l-0.6-2.3l1.2-0.3l0.6,2.3L527.2,466.7z M525.9,462.1l-0.6-2.3l1.2-0.3l0.6,2.3L525.9,462.1
					z M524.7,457.5l-0.6-2.3l1.2-0.3l0.6,2.3L524.7,457.5z M523.4,452.9l-0.6-2.3l1.2-0.3l0.6,2.3L523.4,452.9z M522.2,448.2
					l-0.6-2.3l1.2-0.3l0.6,2.3L522.2,448.2z M520.9,443.6l-0.6-2.3l1.2-0.3l0.6,2.3L520.9,443.6z M519.6,439l-0.6-2.3l1.2-0.3
					l0.6,2.3L519.6,439z M518.4,434.4l-0.6-2.3l1.2-0.3l0.6,2.3L518.4,434.4z M517.1,429.8l-0.6-2.3l1.2-0.3l0.6,2.3L517.1,429.8z
					 M515.9,425.2l-0.6-2.3l1.2-0.3l0.6,2.3L515.9,425.2z M514.7,420.5l-0.6-2.3l1.2-0.3l0.6,2.3L514.7,420.5z M513.4,415.9
					l-0.6-2.3l1.2-0.3l0.6,2.3L513.4,415.9z M512.2,411.3l-0.6-2.3l1.2-0.3l0.6,2.3L512.2,411.3z M511,406.7l-0.6-2.3l1.2-0.3
					l0.6,2.3L511,406.7z M509.8,402.1l-0.6-2.3l1.2-0.3l0.6,2.3L509.8,402.1z M508.6,397.4l-0.6-2.3l1.2-0.3l0.6,2.3L508.6,397.4z
					 M507.4,392.8l-0.6-2.3l1.2-0.3l0.6,2.3L507.4,392.8z M506.3,388.1c-0.2-0.8-0.4-1.6-0.6-2.3l1.2-0.3c0.2,0.7,0.4,1.5,0.5,2.3
					L506.3,388.1z M505.2,383.5l-0.5-2.3l1.2-0.3l0.5,2.3L505.2,383.5z M504.2,378.8l-0.5-2.3l1.2-0.3l0.5,2.3L504.2,378.8z
					 M503.1,374.1l-0.5-2.3l1.2-0.3l0.5,2.3L503.1,374.1z M502.1,369.5c-0.2-0.8-0.4-1.6-0.6-2.3l1.2-0.3c0.2,0.8,0.4,1.5,0.6,2.3
					L502.1,369.5z M500.9,364.9l-0.6-2.3l1.2-0.3l0.6,2.3L500.9,364.9z M499.8,360.2l-0.6-2.3l1.2-0.3l0.6,2.3L499.8,360.2z
					 M498.6,355.6l-0.6-2.3l1.2-0.3l0.6,2.3L498.6,355.6z M497.4,351l-0.6-2.3l1.2-0.3l0.6,2.3L497.4,351z"/>
				
					<rect x="543.7" y="518.8" transform="matrix(0.9486 -0.3164 0.3164 0.9486 -136.377 198.9011)" class="st20" width="1.2" height="1.2"/>
			</g>
			<path class="st20" d="M356.9,446.3l-1.1-0.4l0.8-2.3l1.1,0.4L356.9,446.3z M358.5,441.8l-1.1-0.4l0.8-2.2l1.1,0.4L358.5,441.8z
				 M360.2,437.3l-1.1-0.4l0.8-2.2l1.1,0.4L360.2,437.3z M361.8,432.8l-1.1-0.4l0.8-2.2l1.1,0.4L361.8,432.8z M363.4,428.3l-1.1-0.4
				l0.8-2.2l1.1,0.4L363.4,428.3z M365.1,423.8l-1.1-0.4l0.8-2.2l1.1,0.4L365.1,423.8z M366.7,419.3l-1.1-0.4l0.8-2.3l1.1,0.4
				L366.7,419.3z M368.3,414.8l-1.1-0.4l0.8-2.3l1.1,0.4L368.3,414.8z M369.9,410.3l-1.1-0.4l0.8-2.3l1.1,0.4L369.9,410.3z
				 M371.4,405.8l-1.1-0.4l0.8-2.3l1.1,0.4L371.4,405.8z M373,401.2l-1.1-0.4l0.8-2.3l1.1,0.4L373,401.2z M374.5,396.7l-1.1-0.4
				l0.8-2.3l1.1,0.4L374.5,396.7z M376,392.2l-1.1-0.4c0.3-0.8,0.5-1.5,0.7-2.3l1.1,0.4C376.6,390.7,376.3,391.4,376,392.2z
				 M377.5,387.6l-1.1-0.4c0.2-0.8,0.5-1.5,0.7-2.3l1.1,0.4C378,386.1,377.8,386.9,377.5,387.6z M379,383.1l-1.1-0.4
				c0.2-0.8,0.5-1.5,0.7-2.3l1.1,0.3C379.5,381.5,379.2,382.3,379,383.1z M380.4,378.5l-1.1-0.3c0.2-0.8,0.5-1.6,0.7-2.3l1.2,0.3
				C380.8,376.9,380.6,377.7,380.4,378.5z M381.7,373.9l-1.2-0.3c0.2-0.8,0.4-1.6,0.6-2.3l1.2,0.3
				C382.1,372.3,381.9,373,381.7,373.9z M382.8,369.2l-1.2-0.2l0,0c0.2-0.8,0.3-1.5,0.5-2.3l1.2,0.3
				C383.1,367.6,383,368.4,382.8,369.2z M383.9,364.6l-1.2-0.3c0.2-0.8,0.4-1.5,0.6-2.3l1.1,0.3C384.3,363,384.1,363.8,383.9,364.6z
				 M385.2,360l-1.1-0.4c0.2-0.8,0.5-1.5,0.7-2.3l1.1,0.4C385.7,358.5,385.4,359.2,385.2,360z M386.7,355.5l-1.1-0.4
				c0.3-0.7,0.5-1.5,0.8-2.3l1.1,0.4C387.3,354,387,354.7,386.7,355.5z M388.4,351.1l-1.1-0.5c0.3-0.7,0.6-1.5,0.9-2.2l1.1,0.5
				C389,349.6,388.7,350.3,388.4,351.1z M390.3,346.7l-1.1-0.5c0.3-0.7,0.7-1.5,1-2.2l1.1,0.5C391,345.3,390.6,346,390.3,346.7z
				 M392.4,342.4l-1.1-0.6c0.4-0.7,0.8-1.4,1.1-2.1l1,0.6C393.2,341,392.8,341.7,392.4,342.4z M394.7,338.3l-1-0.6
				c0.4-0.7,0.8-1.4,1.3-2l1,0.6C395.6,337,395.1,337.6,394.7,338.3z M397.3,334.3l-1-0.7c0.5-0.7,0.9-1.3,1.4-2l1,0.7
				C398.2,333,397.8,333.7,397.3,334.3z M400.2,330.6l-0.9-0.8c0.5-0.6,1-1.2,1.6-1.8l0.9,0.8C401.2,329.3,400.7,329.9,400.2,330.6z
				 M403.3,327.1l-0.8-0.9c0.6-0.6,1.2-1.1,1.8-1.6l0.8,0.9C404.5,326,403.9,326.5,403.3,327.1z M406.9,324.1l-0.7-1
				c0.7-0.5,1.4-0.9,2-1.3l0.6,1C408.2,323.2,407.6,323.6,406.9,324.1z M410.9,321.7l-0.5-1.1c0.7-0.3,1.4-0.6,2.3-0.8l0.4,1.1
				C412.3,321.2,411.6,321.5,410.9,321.7z M415.4,320.3l-0.3-1.2c0.7-0.2,1.5-0.4,2.4-0.6l0.3,1.2
				C416.9,319.9,416.1,320.1,415.4,320.3z M420,319.3l-0.2-1.2c0.8-0.1,1.6-0.3,2.4-0.4l0.2,1.2C421.6,319,420.8,319.1,420,319.3z
				 M424.7,318.5l-0.2-1.2c0.8-0.1,1.6-0.2,2.4-0.4l0.2,1.2C426.3,318.2,425.5,318.4,424.7,318.5z M429.5,317.8l-0.2-1.2
				c0.8-0.1,1.6-0.2,2.4-0.3l0.1,1.2C431,317.6,430.2,317.7,429.5,317.8z M434.2,317.2l-0.1-1.2c0.8-0.1,1.6-0.2,2.4-0.3l0.1,1.2
				C435.8,317,435,317.1,434.2,317.2z M439,316.7l-0.1-1.2l2.4-0.3l0.1,1.2L439,316.7z M443.7,316.2l-0.1-1.2l2.4-0.2l0.1,1.2
				L443.7,316.2z M448.5,315.7l-0.1-1.2l2.4-0.2l0.1,1.2L448.5,315.7z M453.2,315.2l-0.1-1.2l2.4-0.2l0.1,1.2L453.2,315.2z
				 M458,314.7l-0.1-1.2l2.4-0.2l0.1,1.2L458,314.7z M462.8,314.2l-0.1-1.2l2.4-0.3l0.1,1.2L462.8,314.2z M467.5,313.7l-0.1-1.2
				c0.8-0.1,1.6-0.2,2.4-0.3l0.1,1.2C469.1,313.5,468.3,313.6,467.5,313.7z M472.3,313.1l-0.2-1.2c0.8-0.1,1.6-0.2,2.4-0.3l0.2,1.2
				C473.9,312.9,473.1,313,472.3,313.1z M477,312.4l-0.2-1.2c0.8-0.1,1.6-0.2,2.4-0.4l0.2,1.2C478.6,312.2,477.8,312.3,477,312.4z
				 M481.8,311.7l-0.2-1.2c0.8-0.1,1.6-0.3,2.3-0.4l0.2,1.2C483.4,311.4,482.6,311.5,481.8,311.7z M486.5,310.7l-0.3-1.2
				c0.8-0.2,1.6-0.4,2.3-0.6l0.3,1.2C488.1,310.3,487.3,310.5,486.5,310.7z M491.2,309.4l-0.4-1.1c0.8-0.3,1.5-0.5,2.2-0.8l0.4,1.1
				C492.8,308.9,492,309.2,491.2,309.4z M495.7,307.6l-0.6-1c0.1-0.1,0.2-0.1,0.4-0.2l0.6,1C496,307.4,495.8,307.5,495.7,307.6z"/>
			<path class="st12" d="M499.6,261.8L468,230.3c-0.5-0.5-0.5-1.2,0-1.7s1.2-0.5,1.7,0l30,29.9c34.8-30.5,35.8-57.8,35.8-58
				c0-0.7,0.6-1.2,1.2-1.2c0.7,0,1.2,0.6,1.2,1.2c0,1.2-1,29-37.4,60.5L499.6,261.8z"/>
			<path class="st21" d="M588.7,134.9c-8.3,0-15.2-0.6-19.3-1.3c-3.6-0.6-9.4-2.5-15-4.3c-6.1-2-12.4-4.1-15.9-4.4
				c-6.6-0.7-15.7,5.4-15.8,5.5c-0.2,0.1-0.5,0.1-0.6-0.1c-0.1-0.2-0.1-0.5,0.1-0.6c0.4-0.3,9.5-6.4,16.4-5.7
				c3.6,0.4,9.9,2.5,16.1,4.5c5.6,1.8,11.3,3.7,14.9,4.3c13.4,2.2,54.5,3.8,83.9-14.3c0.2-0.1,0.5-0.1,0.6,0.1s0.1,0.5-0.1,0.6
				C633.5,131.8,607.4,134.9,588.7,134.9z"/>
			<path class="st21" d="M602.1,140.8c-9.2,0-16.7-0.6-20.7-1.1c-13.6-1.5-23.3-5.5-28-7.5l-0.1-0.1c-6.5-2.7-12.5-4-17.8-3.9
				c-6.6,0.2-12.1,5.2-12.1,5.2c-0.2,0.2-0.5,0.2-0.6,0c-0.2-0.2-0.2-0.5,0-0.6c0.2-0.2,5.8-5.2,12.7-5.5c5.4-0.2,11.5,1.1,18.2,3.9
				l0.1,0.1c4.6,2,14.3,6,27.7,7.4c11.2,1.2,49.5,4,75.2-9.9c0.2-0.1,0.5,0,0.6,0.2s0,0.5-0.2,0.6
				C640.4,138.7,618.6,140.8,602.1,140.8z"/>
			<path class="st21" d="M612.4,151.7c-17.1,0-36.1-5.3-44.6-9.3c-8.1-3.9-19.7-8.7-27.9-10.9c-8-2.1-17.1,4.2-17.1,4.3
				c-0.2,0.1-0.5,0.1-0.6-0.1c-0.1-0.2-0.1-0.5,0.1-0.6c0.4-0.3,9.5-6.7,17.9-4.4c8.2,2.2,19.9,7.1,28.1,11c9,4.3,29.7,9.9,47.5,9.2
				c17.1-0.7,38.2-6.9,42.6-9.9c0.2-0.1,0.5-0.1,0.6,0.1c0.1,0.2,0.1,0.5-0.1,0.6c-4.5,3-25.8,9.3-43,10
				C614.7,151.7,613.6,151.7,612.4,151.7z"/>
			<path class="st21" d="M619.3,159.5c-7.2,0-13.7-0.5-18-1.3c-14.9-2.9-33.9-11.4-40.3-14.9c-0.6-0.4-1.3-0.7-2.1-1.1
				c-5.7-3.2-13.6-7.5-20.7-8.5c-7.7-1.2-15.3,4.5-15.4,4.5c-0.2,0.1-0.5,0.1-0.6-0.1c-0.1-0.2-0.1-0.5,0.1-0.6
				c0.3-0.2,7.9-5.9,16-4.7c7.2,1.1,15.2,5.5,21,8.6c0.7,0.4,1.4,0.8,2.1,1.1c6.3,3.4,25.2,11.9,40,14.8c15.9,3.1,52.2,0.9,61.2-6.7
				c0.2-0.2,0.5-0.1,0.6,0.1c0.2,0.2,0.1,0.5-0.1,0.6C656.4,157,635.9,159.5,619.3,159.5z"/>
		</g>
	</g>
	<g>
		<path class="st22" d="M377.3,191.9H343c-1.8,0-3.3-1.5-3.3-3.3v-68.3c0-1.8,1.5-3.3,3.3-3.3h34.3c1.8,0,3.3,1.5,3.3,3.3v68.3
			C380.6,190.4,379.1,191.9,377.3,191.9z"/>
		<path class="st23" d="M376.7,190.2h-33.1c-1,0-1.8-0.8-1.8-1.8v-68.1c0-1,0.8-1.8,1.8-1.8h33.1c1,0,1.8,0.8,1.8,1.8v68.1
			C378.5,189.4,377.7,190.2,376.7,190.2z"/>
		<path class="st24" d="M378.6,125.3h-36.9v-5.1c0-1,0.8-1.8,1.8-1.8h33.4c1,0,1.8,0.8,1.8,1.8L378.6,125.3L378.6,125.3z"/>
		<ellipse class="st22" cx="346.2" cy="121.9" rx="1.9" ry="2"/>
	</g>
</g>
</svg>
