<?xml version="1.0" encoding="utf-8"?>
<!-- Generator: Adobe Illustrator 23.0.0, SVG Export Plug-In . SVG Version: 6.00 Build 0)  -->
<svg version="1.1" id="레이어_1" xmlns="http://www.w3.org/2000/svg" xmlns:xlink="http://www.w3.org/1999/xlink" x="0px"
	 y="0px" width="262px" height="186px" viewBox="0 0 262 186" style="enable-background:new 0 0 262 186;" xml:space="preserve">
<style type="text/css">
	.st0{fill:#E6C875;}
	.st1{fill:#B1B3E3;}
	.st2{fill:#4766D9;}
	.st3{fill:#96A5D9;}
	.st4{fill:#C3CCFA;}
	.st5{fill:#708EFF;}
	.st6{fill:#5276FA;}
	.st7{fill:#B19EFF;}
	.st8{fill:#9282D9;}
	.st9{fill:#26BCD6;}
	.st10{fill:#1799B0;}
</style>
<g>
	<g>
		<path class="st0" d="M235.6,113.6c0,0,6.7-5.3,8.8-7.4s10.2-9.5,15.6-9.3c5.3,0.2-1.2,7.2-4.2,9
			C252.8,107.8,242.5,112,235.6,113.6z"/>
		<path class="st0" d="M225.4,118c0,0,5.3-2.5,14.6-2.3s10.4,2.3,8.8,4.7c-1.6,2.3-5.3,3.9-11.6,3C230.9,122.4,225.4,118,225.4,118z
			"/>
		<path class="st0" d="M211.9,122.6c0,0,3.5-7,5.3-9.3c1.9-2.3,6.3-9.5,11.8-10.9c5.6-1.4,3.5,5.1,0.7,7.9
			C227,113.1,211.9,122.6,211.9,122.6z"/>
		<path class="st0" d="M198.6,128.7c0,0,0-6.8,0.5-9.4c0.5-2.5,1.1-9.9,4.9-13.2c3.8-3.3,4.7,2.6,3.7,5.9
			C206.6,115.3,198.6,128.7,198.6,128.7z"/>
		<path class="st0" d="M186.5,137.7c0,0,0-6.2,0.4-8.5c0.5-2.3,1-9,4.5-12c3.4-3,4.3,2.4,3.3,5.3
			C193.8,125.6,186.5,137.7,186.5,137.7z"/>
		<path class="st0" d="M202.8,126.5c0,0,8.8-3,17.6-2.5s7.9,5.1,6,6.3s-8.4,0.5-11.8,0S202.8,126.5,202.8,126.5z"/>
		<path class="st0" d="M191.9,133.4c0,0,7-2.4,14-2s6.3,4.1,4.8,5s-6.6,0.4-9.4,0C198.6,136,191.9,133.4,191.9,133.4z"/>
		<path class="st1" d="M180,151.3L180,151.3c-0.3,0-0.5-0.2-0.4-0.5c0-0.1,1.1-11.8,15.7-20.4c10.3-6.1,23.6-10.8,32.4-13.8
			c3.8-1.3,6.7-2.3,8.5-3.2l3.7-2.1c0.2-0.1,0.5-0.1,0.6,0.2c0.1,0.2,0.1,0.5-0.2,0.6l-3.7,2.2c-1.9,0.8-4.9,1.9-8.6,3.2
			c-8.8,3.1-22,7.7-32.2,13.8c-14.2,8.4-15.3,19.6-15.3,19.7C180.4,151.1,180.2,151.3,180,151.3z"/>
	</g>
	<g>
		<path class="st2" d="M25.5,88.3c0,0,14.8,10.9,22.6,28.1s20.3,37.5,39,47.6s42.9,17.9,42.9,17.9s-11.7-47.6-25-60.1
			C91.8,109.4,62.2,80.5,25.5,88.3z"/>
		<path class="st3" d="M129.8,182.3c-0.4-0.4-10-8.9-13.7-16.5c-4.2-8.3-11.7-20.7-33.1-42.5c-22-22.4-46.5-32-46.8-32.1l0.3-0.8
			c0.2,0.1,25,9.8,47.1,32.3c21.5,22,29.1,34.4,33.3,42.7c3.7,7.4,13.4,16.1,13.5,16.2L129.8,182.3z"/>
	</g>
	<g>
		<path class="st2" d="M123.5,186c0,0-16.3-54-16.5-97.6s8.9-83.4,28.3-88s25.9,27.4,24.2,45.1c-4.5,46.6-1.9,17.7-1.9,17.7
			l-19.5,121.3L123.5,186z"/>
		<g>
			<path class="st4" d="M129.2,183.6c-0.5,0-0.9-0.4-0.9-0.9c0-0.6-0.5-63.3,0-89.6s7.5-82.4,7.6-83c0.1-0.5,0.5-0.8,1-0.8
				c0.5,0.1,0.8,0.5,0.8,1c-0.1,0.6-7.1,56.6-7.6,82.8s0,88.9,0,89.5S129.7,183.6,129.2,183.6L129.2,183.6z"/>
			<path class="st4" d="M132.1,46.6c-0.2,0-0.4-0.1-0.6-0.2c-6.8-6.3-10.1-25.3-10.2-26.1c-0.1-0.5,0.2-0.9,0.7-1s0.9,0.2,1,0.7
				c0,0.2,3.3,19.2,9.7,25.1c0.4,0.3,0.4,0.9,0,1.2C132.5,46.6,132.3,46.6,132.1,46.6z"/>
			<path class="st4" d="M134.4,35.8c-0.4,0-0.7-0.2-0.8-0.6c-0.2-0.5,0.1-1,0.5-1.1c4-1.5,10.6-11.5,12.8-15.3
				c0.2-0.4,0.8-0.6,1.2-0.3c0.4,0.2,0.6,0.8,0.3,1.2c-0.3,0.6-8.3,14-13.7,16C134.6,35.7,134.5,35.8,134.4,35.8z"/>
			<path class="st4" d="M129.2,79.3c-0.2,0-0.3,0-0.5-0.1c-4.7-3.1-13.5-29.6-13.6-29.8c-0.2-0.5,0.1-1,0.6-1.1s1,0.1,1.1,0.6
				c2.8,8.5,9.7,26.8,12.9,28.9c0.4,0.3,0.5,0.8,0.2,1.2C129.8,79.2,129.5,79.3,129.2,79.3z"/>
			<path class="st4" d="M131.1,68c-0.3,0-0.5-0.1-0.7-0.3c-0.3-0.4-0.2-0.9,0.2-1.2c0.2-0.1,17.9-13.7,21.5-23.3
				c0.2-0.5,0.7-0.7,1.1-0.5c0.5,0.2,0.7,0.7,0.5,1.1c-3.8,10.1-21.3,23.5-22.1,24.1C131.5,67.9,131.3,68,131.1,68z"/>
			<path class="st4" d="M128.3,114.4c-0.2,0-0.4-0.1-0.6-0.2c-6.3-5.3-14.6-33.8-15-35c-0.1-0.5,0.1-0.9,0.6-1.1
				c0.5-0.1,0.9,0.1,1.1,0.6c0.1,0.3,8.5,29.2,14.4,34.2c0.4,0.3,0.4,0.9,0.1,1.2C128.8,114.3,128.5,114.4,128.3,114.4z"/>
			<path class="st4" d="M130.2,103.5c-0.2,0-0.4-0.1-0.6-0.2c-0.4-0.3-0.4-0.9,0-1.2c0.1-0.1,13.2-14.2,17.4-25.3
				c0.2-0.5,0.7-0.7,1.1-0.5c0.5,0.2,0.7,0.7,0.5,1.1c-4.3,11.4-17.2,25.3-17.7,25.9C130.6,103.4,130.4,103.5,130.2,103.5z"/>
			<path class="st4" d="M128.8,140.9c-0.1,0-0.3,0-0.4-0.1c-6.9-3.4-15.2-27.9-15.6-28.9c-0.2-0.5,0.1-1,0.5-1.1
				c0.5-0.2,1,0.1,1.1,0.5c2.3,6.9,9.6,25.3,14.7,27.9c0.4,0.2,0.6,0.7,0.4,1.2C129.4,140.7,129.1,140.9,128.8,140.9z"/>
			<path class="st4" d="M130.2,131.9c-0.2,0-0.5-0.1-0.6-0.3c-0.3-0.3-0.3-0.9,0-1.2c0.1-0.1,12.2-11.8,15.4-21
				c0.2-0.5,0.7-0.7,1.1-0.5c0.5,0.2,0.7,0.7,0.5,1.1c-3.3,9.6-15.4,21.2-15.9,21.7C130.6,131.8,130.4,131.9,130.2,131.9z"/>
			<path class="st4" d="M128.8,162.7c-0.3,0-0.6-0.2-0.8-0.5l-10-19c-0.2-0.4-0.1-1,0.4-1.2c0.4-0.2,1-0.1,1.2,0.4l10,19
				c0.2,0.4,0.1,1-0.4,1.2C129,162.7,128.9,162.7,128.8,162.7z"/>
			<path class="st4" d="M130.2,153.7c-0.2,0-0.5-0.1-0.7-0.3c-0.3-0.4-0.3-0.9,0.1-1.2c0.1-0.1,8.9-8,11.1-13.9
				c0.2-0.4,0.7-0.7,1.1-0.5c0.4,0.2,0.7,0.7,0.5,1.1c-2.4,6.3-11.2,14.2-11.6,14.5C130.6,153.6,130.4,153.7,130.2,153.7z"/>
		</g>
	</g>
	<g>
		<path class="st5" d="M139.1,147.9c0,0-3.7-15.4,0.4-32.6c4.1-17.3,10-40.5,17-49.7c7-9.1,10.2-11,22.6-22.4
			c12.5-11.4,16.3-24.7,21.6-18.7c5.4,6,1,16.4-5.7,24.3S181.8,68.1,181.8,74c0,5.9,0.5,28.3-12.3,52.3s-25.6,36.6-27.7,32.3
			C139.8,154.3,139.1,147.9,139.1,147.9z"/>
		<path class="st6" d="M143.3,152.7l-0.7-0.4c0.2-0.3,16.1-28.3,18.9-45.8c2.9-18,13.1-44.4,19.4-50.4c6.3-5.9,15.5-24.2,15.6-24.4
			l0.7,0.3c-0.4,0.8-9.3,18.6-15.8,24.6c-6.3,5.9-16.3,32-19.2,49.9C159.5,124.2,143.5,152.4,143.3,152.7z"/>
	</g>
	<g>
		<path class="st7" d="M129,183.6c0,0-0.6-32.8,17.9-54.1c18.5-21.2,35.4-24.3,47.2-41.8s14.2-34.2,14.2-34.2s4.3,65.4-12.6,86.5
			s-36.2,42.4-63.4,44.8"/>
		<path class="st8" d="M131.5,182l-0.7-0.5c0.2-0.3,20.5-27.2,31.3-37.5c9.4-8.9,26.8-25.6,30.7-34.4c1.1-2.4,2.3-4.8,3.7-7.3
			c3.3-6.3,6.7-12.8,7.7-20.5c1.4-10.8,3.8-18.9,3.8-19l0.8,0.2c0,0.1-2.4,8.1-3.8,18.9c-1,7.9-4.5,14.4-7.8,20.8
			c-1.3,2.5-2.6,4.9-3.6,7.3c-3.5,7.9-16.9,21.4-30.9,34.7C152,154.9,131.7,181.7,131.5,182z"/>
	</g>
	<g>
		<path class="st9" d="M0,126.6c0,0,8.2,4.6,27,4.7s33.7-0.2,52.4,10.1s48.1,41.8,48.1,41.8s-62.9-7.1-81.8-14.2
			C26.7,161.8,0,126.6,0,126.6z"/>
		<path class="st10" d="M125,181.8c-0.2-0.1-17.4-8.7-22.8-10.5c-0.9-0.3-2-0.7-3.5-1.2c-8.2-2.7-25.1-8.4-47.7-17.6
			C24.7,141.8,6.4,131.1,6.2,131l0.4-0.8c0.2,0.1,18.4,10.7,44.7,21.5c22.5,9.2,39.4,14.8,47.6,17.6c1.5,0.5,2.7,0.9,3.5,1.2
			c5.5,1.9,22.2,10.2,22.9,10.6L125,181.8z"/>
	</g>
</g>
</svg>
