<?xml version="1.0" encoding="utf-8"?>
<!-- Generator: Adobe Illustrator 23.0.0, SVG Export Plug-In . SVG Version: 6.00 Build 0)  -->
<svg version="1.1" id="레이어_1" xmlns="http://www.w3.org/2000/svg" xmlns:xlink="http://www.w3.org/1999/xlink" x="0px"
	 y="0px" width="322px" height="267px" viewBox="0 0 322 267" style="enable-background:new 0 0 322 267;" xml:space="preserve">
<style type="text/css">
	.st0{fill:none;}
	.st1{fill:#FFFFFF;}
	.st2{opacity:0.7;fill-rule:evenodd;clip-rule:evenodd;fill:url(#SVGID_1_);enable-background:new    ;}
	.st3{opacity:0.5;fill-rule:evenodd;clip-rule:evenodd;fill:url(#SVGID_3_);enable-background:new    ;}
</style>
<pattern  y="267" width="28.8" height="28.8" patternUnits="userSpaceOnUse" id="SVGID_2_" viewBox="0.7 -29.5 28.8 28.8" style="overflow:visible;">
	<g>
		<rect x="0.7" y="-29.5" class="st0" width="28.8" height="28.8"/>
		<g>
			<rect x="0.7" y="-29.5" class="st0" width="28.8" height="28.8"/>
			<g>
				<circle class="st1" cx="29.5" cy="-29.5" r="0.7"/>
				<path class="st1" d="M15.1-30.2c0.4,0,0.7,0.3,0.7,0.7c0,0.4-0.3,0.7-0.7,0.7s-0.7-0.3-0.7-0.7C14.4-29.9,14.7-30.2,15.1-30.2z"
					/>
				<path class="st1" d="M29.5-15.8c0.4,0,0.7,0.3,0.7,0.7s-0.3,0.7-0.7,0.7c-0.4,0-0.7-0.3-0.7-0.7S29.1-15.8,29.5-15.8z"/>
				<path class="st1" d="M15.1-15.8c0.4,0,0.7,0.3,0.7,0.7s-0.3,0.7-0.7,0.7s-0.7-0.3-0.7-0.7C14.4-15.5,14.7-15.8,15.1-15.8z"/>
				<path class="st1" d="M7.9-23c0.4,0,0.7,0.3,0.7,0.7s-0.3,0.7-0.7,0.7c-0.4,0-0.7-0.3-0.7-0.7C7.2-22.7,7.5-23,7.9-23z"/>
				<path class="st1" d="M22.3-23c0.4,0,0.7,0.3,0.7,0.7s-0.3,0.7-0.7,0.7c-0.4,0-0.7-0.3-0.7-0.7C21.6-22.7,21.9-23,22.3-23z"/>
				<path class="st1" d="M7.9-8.6c0.4,0,0.7,0.3,0.7,0.7c0,0.4-0.3,0.7-0.7,0.7c-0.4,0-0.7-0.3-0.7-0.7C7.2-8.3,7.5-8.6,7.9-8.6z"/>
				<path class="st1" d="M22.3-8.6c0.4,0,0.7,0.3,0.7,0.7c0,0.4-0.3,0.7-0.7,0.7c-0.4,0-0.7-0.3-0.7-0.7C21.6-8.3,21.9-8.6,22.3-8.6
					z"/>
			</g>
			<g>
				<circle class="st1" cx="0.7" cy="-29.5" r="0.7"/>
				<path class="st1" d="M0.7-15.8c0.4,0,0.7,0.3,0.7,0.7s-0.3,0.7-0.7,0.7S0-14.7,0-15.1S0.3-15.8,0.7-15.8z"/>
			</g>
			<g>
				<circle class="st1" cx="29.5" cy="-0.7" r="0.7"/>
				<path class="st1" d="M15.1-1.4c0.4,0,0.7,0.3,0.7,0.7c0,0.4-0.3,0.7-0.7,0.7s-0.7-0.3-0.7-0.7C14.4-1.1,14.7-1.4,15.1-1.4z"/>
			</g>
			<g>
				<circle class="st1" cx="0.7" cy="-0.7" r="0.7"/>
			</g>
		</g>
	</g>
</pattern>
<linearGradient id="SVGID_1_" gradientUnits="userSpaceOnUse" x1="161" y1="256.587" x2="161" y2="7.5338" gradientTransform="matrix(1 0 0 -1 0 268)">
	<stop  offset="0.1315" style="stop-color:#FFEACD"/>
	<stop  offset="1" style="stop-color:#FBF2E2"/>
</linearGradient>
<path class="st2" d="M-0.2,267c0,0,80.6-122.2,102-161.4S164.8-16.6,197.5,3s39.8,63.7,51.2,89.1c11.3,25.4,59.7,162.3,73.5,173.8
	L-0.2,267z"/>
<pattern  id="SVGID_3_" xlink:href="#SVGID_2_" patternTransform="matrix(0.9996 0 0 -1 23.7699 -16544.9688)">
</pattern>
<path class="st3" d="M0,267c0,0,80.5-122.2,101.9-161.4S164.8-16.7,197.5,3s39.8,63.7,51.1,89.1c11.3,25.4,59.6,162.3,73.4,173.8
	L0,267z"/>
</svg>
