<?xml version="1.0" encoding="utf-8"?>
<!-- Generator: Adobe Illustrator 23.0.0, SVG Export Plug-In . SVG Version: 6.00 Build 0)  -->
<svg version="1.1" id="레이어_1" xmlns="http://www.w3.org/2000/svg" xmlns:xlink="http://www.w3.org/1999/xlink" x="0px"
	 y="0px" width="211px" height="63px" viewBox="0 0 211 63" style="enable-background:new 0 0 211 63;" xml:space="preserve">
<style type="text/css">
	.st0{fill:#FFE191;}
	.st1{fill:#FFFFFF;}
</style>
<g>
	<path class="st0" d="M175.4,42.2c0.3-1.8,0.4-3.6,0.4-5.5c0-20.3-15-36.7-33.6-36.7c-15,0-27.6,10.9-31.9,25.7
		c-4.4-4.1-10-6.7-16.2-6.7c-12,0-22.1,9.3-24.4,21.7c-25.5,4.8-42.6,13-42.6,22.3H211C211,54.6,197,47.1,175.4,42.2z"/>
	<path class="st1" d="M109.1,31.7c0.2-1.3,0.3-2.7,0.3-4.1c0-14.9-11.1-27-24.7-27c-11.1,0-20.3,8-23.5,18.9
		c-3.2-3-7.3-4.9-11.9-4.9c-8.9,0-16.2,6.9-17.9,16C12.6,34.1,0,40.1,0,47h135.3C135.3,40.8,125,35.3,109.1,31.7z"/>
</g>
</svg>
