<?xml version="1.0" encoding="utf-8"?>
<!-- Generator: Adobe Illustrator 23.0.0, SVG Export Plug-In . SVG Version: 6.00 Build 0)  -->
<svg version="1.1" id="레이어_1" xmlns="http://www.w3.org/2000/svg" xmlns:xlink="http://www.w3.org/1999/xlink" x="0px"
	 y="0px" width="145px" height="197px" viewBox="0 0 145 197" style="enable-background:new 0 0 145 197;" xml:space="preserve">
<style type="text/css">
	.st0{fill:#FFFFFF;}
	.st1{fill:#E6E7E8;}
	.st2{fill:#38BA9B;}
	.st3{fill:#D0D2D3;}
	.st4{fill:#929497;}
	.st5{fill:#FFDD00;}
</style>
<g>
	<g>
		<path class="st0" d="M18.5,57c-5.1,3.1-6.8,9.7-3.7,14.8l9.1,15c3.1,5.1,9.8,6.8,14.9,3.7l73-35.2L84,9.5L18.5,57z"/>
		<polygon class="st1" points="99.9,0 127.6,45.9 111.7,55.4 84,9.5 		"/>
		<polygon class="st2" points="62.3,25.2 87.5,67 58.9,80.8 36.6,43.9 		"/>
		<path class="st3" d="M14.4,96.7l11.8-7l0,0c2.7-1.6,2-7.6-1.5-13.5s-8.6-9.3-11.2-7.7l0,0l-11.8,7L14.4,96.7z"/>
		<path class="st0" d="M1.6,75.5c2.7-1.6,7.7,1.9,11.2,7.7c3.5,5.9,4.2,11.9,1.6,13.5c-2.7,1.6-7.7-1.9-11.2-7.7
			C-0.3,83.1-1,77.1,1.6,75.5z"/>
		<g>
			<polygon class="st4" points="115.3,48.9 114.3,47.3 124.9,40.9 125.9,42.6 			"/>
			<polygon class="st4" points="112.8,44.8 111.8,43.1 122.3,36.7 123.3,38.4 			"/>
			<polygon class="st4" points="110.2,40.6 109.2,38.9 119.8,32.6 120.8,34.2 			"/>
			<polygon class="st4" points="107.7,36.4 106.7,34.8 117.2,28.4 118.2,30 			"/>
			<polygon class="st4" points="105.1,32.3 104.1,30.6 114.7,24.2 115.7,25.9 			"/>
			<polygon class="st4" points="102.6,28.1 101.6,26.4 112.2,20.1 113.2,21.7 			"/>
			<polygon class="st4" points="100.1,23.9 99.1,22.3 109.6,15.9 110.6,17.5 			"/>
			<polygon class="st4" points="97.5,19.7 96.5,18.1 107.1,11.7 108.1,13.4 			"/>
			<polygon class="st4" points="95,15.6 94,13.9 104.5,7.6 105.5,9.2 			"/>
			<polygon class="st4" points="92.4,11.4 91.4,9.8 102,3.4 103,5 			"/>
		</g>
	</g>
	<g>
		<path class="st0" d="M87.7,88.4c-3.1-5.1-9.8-6.8-14.9-3.7l-15.1,9c-5.1,3.1-6.8,9.7-3.7,14.8l35.4,72.6l46.1-27.5L87.7,88.4z"/>
		<polygon class="st1" points="145,169.5 98.9,197 89.4,181.2 135.5,153.6 		"/>
		<polygon class="st5" points="119.6,132.1 77.6,157.1 63.7,128.6 100.9,106.4 		"/>
		<path class="st3" d="M47.8,84.4l7.1,11.7l0,0c1.6,2.7,7.7,2,13.5-1.5c5.9-3.5,9.3-8.5,7.7-11.2l0,0L69,71.7L47.8,84.4z"/>
		<path class="st0" d="M69.1,71.7c1.6,2.7-1.9,7.7-7.7,11.2c-5.9,3.5-11.9,4.2-13.5,1.5c-1.6-2.6,1.9-7.6,7.7-11.2
			C61.4,69.7,67.5,69,69.1,71.7z"/>
		<g>
			<polygon class="st4" points="95.8,184.8 97.5,183.8 103.9,194.3 102.2,195.3 			"/>
			<polygon class="st4" points="100,182.3 101.7,181.3 108.1,191.8 106.4,192.8 			"/>
			<polygon class="st4" points="104.2,179.7 105.9,178.7 112.3,189.2 110.6,190.2 			"/>
			<polygon class="st4" points="108.4,177.2 110,176.2 116.5,186.7 114.8,187.7 			"/>
			<polygon class="st4" points="112.6,174.7 114.2,173.7 120.6,184.2 119,185.2 			"/>
			<polygon class="st4" points="116.8,172.1 118.4,171.1 124.8,181.6 123.2,182.6 			"/>
			<polygon class="st4" points="121,169.6 122.6,168.6 129,179.1 127.4,180.1 			"/>
			<polygon class="st4" points="125.2,167.1 126.8,166.1 133.2,176.6 131.6,177.6 			"/>
			<polygon class="st4" points="129.3,164.5 131,163.5 137.4,174.1 135.8,175.1 			"/>
			<polygon class="st4" points="133.5,162 135.2,161 141.6,171.5 139.9,172.5 			"/>
		</g>
	</g>
</g>
</svg>
