<svg xmlns="http://www.w3.org/2000/svg" width="325" height="26.758" viewBox="0 0 325 26.758">
  <g id="로고" transform="translate(-5 -127.953)">
    <g id="그룹_17" data-name="그룹 17" transform="translate(5 127.953)">
      <path id="패스_43" data-name="패스 43" d="M5,153.544h7.326V135.019h4.2v18.525h7.305V135.019h4.206v18.525h7.321v-19.5c0-4.11-2.609-6.1-6.9-6.1H11.9c-4.293,0-6.9,1.986-6.9,6.1Z" transform="translate(-5 -127.952)" fill="#231815"/>
      <path id="패스_44" data-name="패스 44" d="M60.059,127.955c-4.423,0-6.764,2.357-6.764,6.046v13.6c0,3.363,1.946,5.938,6.889,5.938h18.05v-6.928H60.871V134.967H78.132v-7.012Z" transform="translate(10.77 -127.952)" fill="#231815"/>
      <path id="패스_45" data-name="패스 45" d="M48.9,153.545c5.111,0,9.677-1.861,9.677-6.809,0-4.89-4.03-6.845-9.438-6.845v6.684H38.285V135H49.142v4.867c3.779,0,7.9-1.53,7.9-5.77,0-4.155-3.2-6.066-8.293-6.141-.025,0-17.855,0-17.9,0v25.591Z" transform="translate(3.441 -127.953)" fill="#231815"/>
    </g>
    <g id="그룹_18" data-name="그룹 18" transform="translate(102.405 128.776)">
      <path id="패스_46" data-name="패스 46" d="M78.428,128.988h1.507a.62.62,0,0,1,.657.479l6.333,20.63a7.864,7.864,0,0,1,.187.764q.08.408.168.85c.058-.294.118-.578.176-.85a6.771,6.771,0,0,1,.214-.764l7.1-20.63a.764.764,0,0,1,.248-.337.662.662,0,0,1,.426-.142h.5a.614.614,0,0,1,.407.133.883.883,0,0,1,.249.346l7.1,20.63c.082.237.155.486.222.746s.126.539.186.834c.06-.284.113-.558.159-.826a7.042,7.042,0,0,1,.178-.753l6.333-20.63a.629.629,0,0,1,.24-.337.7.7,0,0,1,.434-.142h1.385l-7.894,25.1H103.3l-7.415-21.783c-.094-.285-.176-.586-.248-.906a9.149,9.149,0,0,1-.248.906l-7.433,21.783H86.339Z" transform="translate(-78.428 -128.437)" fill="#231815"/>
      <path id="패스_47" data-name="패스 47" d="M120.444,128.988V130.5H107.228v10.145h11v1.474h-11V152.58h13.216v1.508H105.4v-25.1Z" transform="translate(-69.62 -128.437)" fill="#231815"/>
      <path id="패스_48" data-name="패스 48" d="M140.329,141.529a14.814,14.814,0,0,1-.87,5.233,11.256,11.256,0,0,1-2.447,3.956,10.588,10.588,0,0,1-3.778,2.5,13.166,13.166,0,0,1-4.879.869H119.2v-25.1h9.153a13.165,13.165,0,0,1,4.879.869,10.584,10.584,0,0,1,3.778,2.5,11.285,11.285,0,0,1,2.447,3.957A14.76,14.76,0,0,1,140.329,141.529Zm-1.88,0a14,14,0,0,0-.728-4.684,9.832,9.832,0,0,0-2.049-3.477,8.69,8.69,0,0,0-3.184-2.164,11.05,11.05,0,0,0-4.133-.744h-7.326v22.156h7.326a11.05,11.05,0,0,0,4.133-.744,8.693,8.693,0,0,0,3.184-2.165,9.808,9.808,0,0,0,2.049-3.477A14.047,14.047,0,0,0,138.449,141.529Z" transform="translate(-65.114 -128.437)" fill="#231815"/>
      <path id="패스_49" data-name="패스 49" d="M158.65,141.529a14.814,14.814,0,0,1-.87,5.233,11.256,11.256,0,0,1-2.447,3.956,10.587,10.587,0,0,1-3.778,2.5,13.161,13.161,0,0,1-4.879.869h-9.153v-25.1h9.153a13.16,13.16,0,0,1,4.879.869,10.583,10.583,0,0,1,3.778,2.5,11.285,11.285,0,0,1,2.447,3.957A14.761,14.761,0,0,1,158.65,141.529Zm-1.88,0a14,14,0,0,0-.728-4.684,9.832,9.832,0,0,0-2.049-3.477,8.69,8.69,0,0,0-3.184-2.164,11.045,11.045,0,0,0-4.133-.744h-7.326v22.156h7.326a11.045,11.045,0,0,0,4.133-.744,8.693,8.693,0,0,0,3.184-2.165,9.808,9.808,0,0,0,2.049-3.477A14.046,14.046,0,0,0,156.77,141.529Z" transform="translate(-59.132 -128.437)" fill="#231815"/>
      <path id="패스_50" data-name="패스 50" d="M158.165,154.089h-1.827v-25.1h1.827Z" transform="translate(-52.988 -128.437)" fill="#231815"/>
      <path id="패스_51" data-name="패스 51" d="M163.112,129.049a.857.857,0,0,1,.3.276l16.25,21.748a9.893,9.893,0,0,1-.054-1.029V128.988h1.6v25.1h-.868a.763.763,0,0,1-.657-.356L163.36,131.95a10.093,10.093,0,0,1,.053,1.011v21.128h-1.58v-25.1h.887A1.011,1.011,0,0,1,163.112,129.049Z" transform="translate(-51.194 -128.437)" fill="#231815"/>
      <path id="패스_52" data-name="패스 52" d="M191.208,152.97a19.081,19.081,0,0,0,2.36-.133,12.718,12.718,0,0,0,1.978-.4,12.208,12.208,0,0,0,1.739-.647q.824-.382,1.658-.86v-6.76h-4.825a.458.458,0,0,1-.329-.125.377.377,0,0,1-.134-.283v-.994h6.936v8.922a16.324,16.324,0,0,1-1.95,1.171,12.9,12.9,0,0,1-2.164.86,16.8,16.8,0,0,1-2.485.533,21.193,21.193,0,0,1-2.909.186,13,13,0,0,1-4.957-.914,11,11,0,0,1-3.852-2.589,11.711,11.711,0,0,1-2.491-4.054,16.183,16.183,0,0,1,0-10.563,11.5,11.5,0,0,1,2.519-4.045,11.1,11.1,0,0,1,3.964-2.591,14.236,14.236,0,0,1,5.225-.913,16.944,16.944,0,0,1,2.652.194,12.434,12.434,0,0,1,2.263.577,10.637,10.637,0,0,1,1.95.941,13.331,13.331,0,0,1,1.74,1.285l-.48.781a.494.494,0,0,1-.443.267.667.667,0,0,1-.3-.072,3.724,3.724,0,0,1-.771-.5,8.418,8.418,0,0,0-1.366-.817,11.42,11.42,0,0,0-2.156-.763,12.65,12.65,0,0,0-3.14-.337,11.889,11.889,0,0,0-4.416.781,9.36,9.36,0,0,0-3.363,2.235,9.9,9.9,0,0,0-2.146,3.547,13.805,13.805,0,0,0-.753,4.7,14.017,14.017,0,0,0,.761,4.772,10.22,10.22,0,0,0,2.138,3.575,9.218,9.218,0,0,0,3.3,2.244A11.2,11.2,0,0,0,191.208,152.97Z" transform="translate(-45.621 -128.507)" fill="#231815"/>
      <path id="패스_53" data-name="패스 53" d="M216.538,128.573v3.8H205.167v7.592h9.6v3.814h-9.6v10.449H200.36V128.573Z" transform="translate(-38.613 -128.573)" fill="#231815"/>
      <path id="패스_54" data-name="패스 54" d="M234.566,154.224h-3.69a1.606,1.606,0,0,1-1.02-.31,1.771,1.771,0,0,1-.576-.771l-1.916-5.235H216.737l-1.916,5.235a1.679,1.679,0,0,1-.56.744,1.569,1.569,0,0,1-1.019.337h-3.709l10.078-25.651h4.878Zm-16.606-9.685h8.178l-3.121-8.534q-.213-.567-.471-1.338t-.5-1.677q-.249.905-.488,1.685t-.47,1.366Z" transform="translate(-35.618 -128.573)" fill="#231815"/>
      <path id="패스_55" data-name="패스 55" d="M233.621,154.224h-4.79V128.573h4.79Z" transform="translate(-29.317 -128.573)" fill="#231815"/>
      <path id="패스_56" data-name="패스 56" d="M239.675,144.2v10.022H234.9V128.573h7.824a16.335,16.335,0,0,1,4.5.541,8.552,8.552,0,0,1,3.068,1.518,5.851,5.851,0,0,1,1.756,2.332,8.159,8.159,0,0,1,.178,5.437,7.073,7.073,0,0,1-1.1,2.092,7.419,7.419,0,0,1-1.774,1.65,9.315,9.315,0,0,1-2.405,1.136,4.713,4.713,0,0,1,1.561,1.472l6.422,9.473h-4.293a2.089,2.089,0,0,1-1.055-.248,2.133,2.133,0,0,1-.736-.71l-5.394-8.213a1.891,1.891,0,0,0-.665-.657,2.341,2.341,0,0,0-1.074-.2Zm0-3.425h2.979A7.363,7.363,0,0,0,245,140.44a4.546,4.546,0,0,0,1.649-.93,3.723,3.723,0,0,0,.967-1.411,4.861,4.861,0,0,0,.321-1.792,3.64,3.64,0,0,0-1.288-3,6.147,6.147,0,0,0-3.928-1.047h-3.051Z" transform="translate(-27.334 -128.573)" fill="#231815"/>
    </g>
  </g>
</svg>
