<svg xmlns="http://www.w3.org/2000/svg" width="12" height="13" viewBox="0 0 12 13">
  <g id="navi-circle1" transform="translate(-1759.5 -81)">
    <path id="패스_368" data-name="패스 368" d="M2476.5,2163.8c0,3.2-2.6,5.2-5.7,5.2a5.5,5.5,0,0,1,0-11c1.7,0,2.8,1.1,3.9,2.3A4.828,4.828,0,0,1,2476.5,2163.8Z" transform="translate(-705 -2075)" fill="#dad7dc"/>
    <path id="패스_369" data-name="패스 369" d="M2475.5,2161.8c0,3.2-2.6,5.2-5.7,5.2a5.5,5.5,0,0,1,0-11c1.7,0,2.8,1.1,3.9,2.3A4.828,4.828,0,0,1,2475.5,2161.8Z" transform="translate(-705 -2075)" fill="#d2a7fb"/>
  </g>
</svg>
