<?xml version="1.0" encoding="utf-8"?>
<!-- Generator: Adobe Illustrator 23.0.0, SVG Export Plug-In . SVG Version: 6.00 Build 0)  -->
<svg version="1.1" id="레이어_1" xmlns="http://www.w3.org/2000/svg" xmlns:xlink="http://www.w3.org/1999/xlink" x="0px"
	 y="0px" width="88px" height="79px" viewBox="0 0 88 79" style="enable-background:new 0 0 88 79;" xml:space="preserve">
<style type="text/css">
	.st0{opacity:0.25;}
	.st1{fill:#C4D1FF;}
</style>
<g class="st0">
	<g>
		<g>
			<circle class="st1" cx="3.4" cy="3.4" r="3.4"/>
			<path class="st1" d="M20.4,3.4c0,1.9-1.5,3.4-3.4,3.4s-3.4-1.5-3.4-3.4S15.1,0,17,0S20.4,1.5,20.4,3.4z"/>
			<path class="st1" d="M33.9,3.4c0,1.9-1.5,3.4-3.4,3.4s-3.4-1.5-3.4-3.4S28.6,0,30.5,0C32.4,0,33.9,1.5,33.9,3.4z"/>
			<circle class="st1" cx="44" cy="3.4" r="3.4"/>
			<path class="st1" d="M61,3.4c0,1.9-1.5,3.4-3.4,3.4s-3.4-1.5-3.4-3.4S55.6,0,57.5,0S61,1.5,61,3.4z"/>
			<path class="st1" d="M74.5,3.4c0,1.9-1.5,3.4-3.4,3.4s-3.4-1.5-3.4-3.4S69.1,0,71,0S74.5,1.5,74.5,3.4z"/>
			<circle class="st1" cx="84.6" cy="3.4" r="3.4"/>
		</g>
		<g>
			<path class="st1" d="M6.9,21.5c0,1.9-1.5,3.4-3.4,3.4S0,23.4,0,21.5S1.5,18,3.4,18S6.9,19.6,6.9,21.5z"/>
			<path class="st1" d="M20.4,21.5c0,1.9-1.5,3.4-3.4,3.4s-3.4-1.5-3.4-3.4s1.5-3.4,3.4-3.4S20.4,19.6,20.4,21.5z"/>
			<path class="st1" d="M33.9,21.5c0,1.9-1.5,3.4-3.4,3.4s-3.4-1.5-3.4-3.4s1.5-3.4,3.4-3.4C32.4,18,33.9,19.6,33.9,21.5z"/>
			<path class="st1" d="M47.4,21.5c0,1.9-1.5,3.4-3.4,3.4s-3.4-1.5-3.4-3.4s1.5-3.4,3.4-3.4S47.4,19.6,47.4,21.5z"/>
			<path class="st1" d="M61,21.5c0,1.9-1.5,3.4-3.4,3.4s-3.4-1.5-3.4-3.4s1.5-3.4,3.4-3.4S61,19.6,61,21.5z"/>
			<path class="st1" d="M74.5,21.5c0,1.9-1.5,3.4-3.4,3.4s-3.4-1.5-3.4-3.4s1.5-3.4,3.4-3.4S74.5,19.6,74.5,21.5z"/>
			<path class="st1" d="M88,21.5c0,1.9-1.5,3.4-3.4,3.4s-3.4-1.5-3.4-3.4s1.5-3.4,3.4-3.4S88,19.6,88,21.5z"/>
		</g>
		<g>
			<path class="st1" d="M6.9,39.5c0,1.9-1.5,3.4-3.4,3.4S0,41.4,0,39.5s1.5-3.4,3.4-3.4S6.9,37.6,6.9,39.5z"/>
			<path class="st1" d="M20.4,39.5c0,1.9-1.5,3.4-3.4,3.4s-3.4-1.5-3.4-3.4s1.5-3.4,3.4-3.4S20.4,37.6,20.4,39.5z"/>
			<path class="st1" d="M33.9,39.5c0,1.9-1.5,3.4-3.4,3.4s-3.4-1.5-3.4-3.4s1.5-3.4,3.4-3.4S33.9,37.6,33.9,39.5z"/>
			<path class="st1" d="M47.4,39.5c0,1.9-1.5,3.4-3.4,3.4s-3.4-1.5-3.4-3.4s1.5-3.4,3.4-3.4S47.4,37.6,47.4,39.5z"/>
			<path class="st1" d="M61,39.5c0,1.9-1.5,3.4-3.4,3.4s-3.4-1.5-3.4-3.4s1.5-3.4,3.4-3.4S61,37.6,61,39.5z"/>
			<path class="st1" d="M74.5,39.5c0,1.9-1.5,3.4-3.4,3.4s-3.4-1.5-3.4-3.4s1.5-3.4,3.4-3.4S74.5,37.6,74.5,39.5z"/>
			<path class="st1" d="M88,39.5c0,1.9-1.5,3.4-3.4,3.4s-3.4-1.5-3.4-3.4s1.5-3.4,3.4-3.4S88,37.6,88,39.5z"/>
		</g>
		<g>
			<circle class="st1" cx="3.4" cy="57.5" r="3.4"/>
			<path class="st1" d="M20.4,57.5c0,1.9-1.5,3.4-3.4,3.4s-3.4-1.5-3.4-3.4s1.5-3.4,3.4-3.4S20.4,55.6,20.4,57.5z"/>
			<path class="st1" d="M33.9,57.5c0,1.9-1.5,3.4-3.4,3.4s-3.4-1.5-3.4-3.4s1.5-3.4,3.4-3.4S33.9,55.6,33.9,57.5z"/>
			<circle class="st1" cx="44" cy="57.5" r="3.4"/>
			<path class="st1" d="M61,57.5c0,1.9-1.5,3.4-3.4,3.4s-3.4-1.5-3.4-3.4s1.5-3.4,3.4-3.4S61,55.6,61,57.5z"/>
			<path class="st1" d="M74.5,57.5c0,1.9-1.5,3.4-3.4,3.4s-3.4-1.5-3.4-3.4s1.5-3.4,3.4-3.4S74.5,55.6,74.5,57.5z"/>
			<circle class="st1" cx="84.6" cy="57.5" r="3.4"/>
		</g>
		<g>
			<circle class="st1" cx="3.4" cy="75.6" r="3.4"/>
			<path class="st1" d="M20.4,75.6c0,1.9-1.5,3.4-3.4,3.4s-3.4-1.5-3.4-3.4s1.5-3.4,3.4-3.4S20.4,73.7,20.4,75.6z"/>
			<path class="st1" d="M33.9,75.6c0,1.9-1.5,3.4-3.4,3.4s-3.4-1.5-3.4-3.4s1.5-3.4,3.4-3.4C32.4,72.1,33.9,73.7,33.9,75.6z"/>
			<circle class="st1" cx="44" cy="75.6" r="3.4"/>
			<path class="st1" d="M61,75.6c0,1.9-1.5,3.4-3.4,3.4s-3.4-1.5-3.4-3.4s1.5-3.4,3.4-3.4S61,73.7,61,75.6z"/>
			<path class="st1" d="M74.5,75.6c0,1.9-1.5,3.4-3.4,3.4s-3.4-1.5-3.4-3.4s1.5-3.4,3.4-3.4S74.5,73.7,74.5,75.6z"/>
			<circle class="st1" cx="84.6" cy="75.6" r="3.4"/>
		</g>
	</g>
</g>
</svg>
