<?xml version="1.0" encoding="utf-8"?>
<!-- Generator: Adobe Illustrator 23.0.0, SVG Export Plug-In . SVG Version: 6.00 Build 0)  -->
<svg version="1.1" id="레이어_1" xmlns="http://www.w3.org/2000/svg" xmlns:xlink="http://www.w3.org/1999/xlink" x="0px"
	 y="0px" width="112px" height="227px" viewBox="0 0 112 227" style="enable-background:new 0 0 112 227;" xml:space="preserve">
<style type="text/css">
	.st0{fill:#CFEFF6;}
	.st1{fill:#2EBDBD;}
	.st2{fill:none;stroke:#1E1E1E;stroke-width:1.7877;stroke-linecap:round;stroke-linejoin:round;stroke-miterlimit:10;}
	.st3{clip-path:url(#SVGID_2_);fill:#008681;}
	.st4{fill:none;stroke:#FFFFFF;stroke-width:0.8939;stroke-miterlimit:10;}
</style>
<g>
	<rect y="113.9" class="st0" width="97.3" height="113.1"/>
	<path class="st1" d="M12.3,111.6c0,0-12.3,1.3-12.3,4.6v62.4c0,3.3,2.7,6,6.1,6s6.1-2.7,6.1-6c0-1.6-0.1-38.9,1-40.1
		c1.2-1.3,2.9-2.1,4.7-2.1c3.2,0,5.6,2.3,5.7,5.4c0.1,2.4,0,4.7,0,7.1c0,3.3,2.7,6,6.1,6c1.8,0,3.5-0.8,4.7-2.2
		c0.6-0.7,1-1.5,1.2-2.4s0-1.8,0.5-2.6c0.6-0.8,1.9-1.2,2.9-1.2c0.8,0,1.6,0.2,2.2,0.7c1.3,0.9,1.1,2.5,1.1,3.9c0,1.6,0,3.1,0,4.7
		c0,3.1,0,0.4,0,3.5c0,0.5,0,1.1,0,1.6c0,4.1,3.4,7.4,7.5,7.4s7.5-3.3,7.5-7.4c0-4.8,0-3.6,0-8.4c0-2.5,0-5.1,0-7.6
		c0-3-1.1-8.1,3.6-8.1c1.3,0,2.5,0.7,3.2,1.7c0.1,3.2,2.8,5.8,6.1,5.8c3.4,0,6.1-2.7,6.1-6c0-3.7-1.2-12.2,4.4-12.2
		c6.4,0,4,11.6,4,15.7c0,3.3,2.7,6,6.1,6s6.1-2.7,6.1-6v-26C97.3,112.3,12.3,111.6,12.3,111.6z"/>
	<path class="st0" d="M97.1,114.3c0,3.7-21.7,6.7-48.6,6.7S0,118,0,114.3s21.7-6.7,48.6-6.7S97.1,110.6,97.1,114.3z"/>
	<path class="st2" d="M97.2,145.4c11.8,13.2,17.1,24.3,13.8,28c-4.8,5.3-27.5-6.9-50.8-27.2c-5.8-5.1-11.1-10.2-15.7-15.1"/>
	<g>
		<g>
			<defs>
				<path id="SVGID_1_" d="M97.1,114.3c0,3.7-21.7,6.7-48.6,6.7S0,118,0,114.3s21.7-6.7,48.6-6.7S97.1,110.6,97.1,114.3z"/>
			</defs>
			<clipPath id="SVGID_2_">
				<use xlink:href="#SVGID_1_"  style="overflow:visible;"/>
			</clipPath>
			<path class="st3" d="M97.1,120.5c0,3.7-21.7,6.7-48.6,6.7S0,124.2,0,120.5s21.7-6.7,48.6-6.7S97.1,116.8,97.1,120.5z"/>
		</g>
	</g>
	<path class="st1" d="M56.2,179.8c0,3.9-3.2,7-7.1,7l0,0c-3.9,0-7.1-3.1-7.1-7v-0.6c0-3.9,3.2-7,7.1-7l0,0c3.9,0,7.1,3.1,7.1,7
		V179.8z"/>
	<line class="st2" x1="72.1" y1="115.2" x2="110.7" y2="0"/>
	<path class="st4" d="M66.6,91.3c-1.3-0.2-5.4,0.1-8,2.7c6.8,3.5,46,5.7,37.7-2.7"/>
	<path class="st4" d="M75.8,91.7c2.7,1.6,15.3,2.3,13.2-2.4"/>
</g>
</svg>
