<?xml version="1.0" encoding="utf-8"?>
<!-- Generator: Adobe Illustrator 23.0.0, SVG Export Plug-In . SVG Version: 6.00 Build 0)  -->
<svg version="1.1" id="레이어_1" xmlns="http://www.w3.org/2000/svg" xmlns:xlink="http://www.w3.org/1999/xlink" x="0px"
	 y="0px" width="461px" height="236px" viewBox="0 0 461 236" style="enable-background:new 0 0 461 236;" xml:space="preserve">
<style type="text/css">
	.st0{fill:#D3F0EC;}
</style>
<path class="st0" d="M432.3,58.2l-40,40.3h-30V0H252.4v91.8h-30V49.2h-100v154.5h-45v-96.3H0L0.4,236h13.4V119.1h9.9L23.2,236H461
	V109.7L432.3,58.2z M46.7,222.5h-9.9V119.1h9.9C46.7,119.1,46.7,222.5,46.7,222.5z M203.5,140.7h-65.2v-8.1h65.2V140.7z
	 M203.5,122.7h-65.2v-8.1h65.2V122.7z M203.5,104.7h-65.2v-8.1h65.2V104.7z M203.5,86.7h-65.2v-8.1h65.2V86.7z M203.5,68.7h-65.2
	v-8.1h65.2V68.7z M285.1,105.6h-15.8V94.8h15.8V105.6z M285.1,85.4h-15.8V74.6h15.8V85.4z M285.1,65.1h-15.8V54.4h15.8V65.1z
	 M285.1,44.9h-15.8V34.1h15.8V44.9z M285.1,24.7h-15.8V13.9h15.8V24.7z M314.8,105.6H299V94.8h15.8V105.6z M314.8,85.4H299V74.6
	h15.8V85.4z M314.8,65.1H299V54.4h15.8V65.1z M314.8,44.9H299V34.1h15.8V44.9z M314.8,24.7H299V13.9h15.8V24.7z M344.4,105.6h-15.8
	V94.8h15.8V105.6z M344.4,85.4h-15.8V74.6h15.8V85.4z M344.4,65.1h-15.8V54.4h15.8V65.1z M344.4,44.9h-15.8V34.1h15.8V44.9z
	 M344.4,24.7h-15.8V13.9h15.8V24.7z"/>
</svg>
