<?xml version="1.0" encoding="utf-8"?>
<!-- Generator: Adobe Illustrator 23.0.0, SVG Export Plug-In . SVG Version: 6.00 Build 0)  -->
<svg version="1.1" id="레이어_1" xmlns="http://www.w3.org/2000/svg" xmlns:xlink="http://www.w3.org/1999/xlink" x="0px"
	 y="0px" width="185px" height="127px" viewBox="0 0 185 127" style="enable-background:new 0 0 185 127;" xml:space="preserve">
<style type="text/css">
	.st0{fill:#002300;}
</style>
<g>
	<polygon class="st0" points="106.6,91.6 106.5,91.6 105.2,91.6 79.8,91.6 78.5,91.6 78.3,91.6 78.3,93.7 106.7,93.7 106.7,91.6 
		106.6,91.6 	"/>
	<path class="st0" d="M80.2,91.3h0.4H81H104h0.4h0.4c-0.8-0.4-1.4-1.1-1.4-1.9c0,0,0-0.1,0-0.1l0-0.2h-0.9v-0.8V88v-0.7l-9-2.2
		l0-1.1l8.9,2.2l0.1,0v-0.9l-9-2.2l0-1.1l8.8,2.2l0.1,0v-0.9l-8.9-2.2l0-1.1l8.8,2.1l0.1,0v-0.9l-19.9-4.8l-0.1,0v0.9l8.9,2.2l0,1.1
		l-8.8-2.2l-0.1,0v0.9l9,2.2l0,1.1l-8.9-2.2l-0.1,0v0.9l9,2.2l0,1.1l-8.9-2.2l-0.1,0V84l1.3-0.3l2.2,0.5l-3.5,0.9V86l5.3-1.3
		l2.2,0.5L82.6,87l-0.1,0v0.9l9-2.2l0,0.8c0,0.1,0,0.2,0,0.3l-9,2.2l-0.1,0v0.1h-0.9l0,0.3C81.6,90.1,81,90.8,80.2,91.3z
		 M102.1,88.1l-3.8,0.9h-4.4l6-1.5L102.1,88.1z M93.5,86l0.6,0.1l-0.6,0.1L93.5,86z M91.8,87.6c0.1,0.2,0.4,0.3,0.7,0.3
		c0.6,0,0.8-0.3,0.9-0.7l2.4-0.6l2.2,0.5l-7.8,1.9h-4.5L91.8,87.6z"/>
	<polygon class="st0" points="102.5,74.6 102.5,73.7 82.6,68.8 82.5,68.8 82.5,69.7 102.4,74.5 	"/>
	<polygon class="st0" points="82.5,71.6 102.4,76.5 102.5,76.5 102.5,75.6 82.6,70.8 82.5,70.8 	"/>
	<polygon class="st0" points="82.5,73.6 102.4,78.4 102.5,78.5 102.5,77.6 82.6,72.7 82.5,72.7 	"/>
	<polygon class="st0" points="82.5,75.5 102.4,80.4 102.5,80.4 102.5,79.5 82.6,74.7 82.5,74.7 	"/>
	<g>
		<path class="st0" d="M20.9,116.2c0-0.2,0-0.4,0-0.5c0-2.5-0.8-4.6-2.5-6.4c-1.7-1.8-3.7-2.9-6-3.3H0.7l0.1,0.1
			c0.2,0.2,0.3,0.3,0.5,0.3c0.7,0.5,1,1.2,1,2.1v14.2c-0.2,1-0.5,1.7-0.8,2.3c-0.3,0.5-0.8,1-1.4,1.3h11.5c2.5,0,4.6-0.9,6.3-2.7
			c1.8-1.8,2.8-4.1,3-6.8C20.9,116.6,20.9,116.4,20.9,116.2z M16.9,118.8c-0.2,1.1-0.5,2.1-0.9,3c-0.4,1.1-1.1,1.9-1.9,2.5
			c-0.8,0.6-1.8,1-2.9,1.2H7.4c-0.2,0-0.4-0.1-0.8-0.2c-0.3-0.1-0.6-0.3-0.7-0.5c-0.2-0.2-0.4-0.5-0.5-0.9c-0.2-0.4-0.2-0.9-0.2-1.4
			v-15.9h5.7c0.8,0,1.7,0.2,2.8,0.7c1.1,0.5,2,1.5,2.6,2.9c0.7,1.5,1,3.2,1,5.1C17.2,116.6,17.1,117.7,16.9,118.8z"/>
		<path class="st0" d="M37.9,120.4c-1.9-3.1-4.2-8.2-7-15.1h-0.2c-1.5,3.2-2.9,6.3-4.2,9.1c-1.3,2.8-2.7,5.6-4.1,8.4
			c-0.8,1.4-1.7,2.6-2.7,3.5h5.7l-0.7-0.5c-0.7-0.4-1.1-1-1.1-1.9c0-0.5,0.1-1,0.3-1.5l2.3-5.5h6.6c0.8,1.6,1.3,2.9,1.8,3.9
			c0.4,1,0.7,1.8,0.9,2.3c0.2,0.5,0.3,1,0.3,1.3c0,0.4-0.1,0.8-0.3,1.1c-0.2,0.3-0.5,0.6-0.9,0.7H42c-0.3-0.2-0.6-0.5-0.8-0.8
			C40.9,125.2,39.8,123.5,37.9,120.4z M26.6,116.3c0.7-2.2,1.7-4.4,3-6.6c0.6,1.3,1.2,2.4,1.5,3.3c0.4,0.9,0.8,2,1.4,3.2H26.6z"/>
		<path class="st0" d="M61.4,107.3c0.4,0.6,0.7,1.2,0.9,1.9v10.9c-2.3-2.2-4.5-4.5-6.5-6.8c-2-2.3-4-4.8-6-7.5h-5.1l0.1,0.3
			c0.5,0.1,0.8,0.4,1.1,0.7c0.3,0.3,0.4,0.7,0.4,1.2c0.2,2.3,0.3,4.6,0.3,6.9c0,2.8-0.2,5.6-0.5,8.4c-0.3,1.3-1,2.2-2,3h5.7
			c-0.8-0.4-1.4-1.1-1.8-2c-0.4-0.9-0.7-1.9-0.7-2.9v-12.8c5.3,5.8,10.4,11.8,15.4,18.2h0.3c0-1.2,0-3,0.1-5.4
			c0-2.4,0.1-4.5,0.1-6.4c0.1-1.9,0.1-3.9,0.1-6.1c0.2-0.6,0.4-1.2,0.7-1.7c0.3-0.5,0.8-0.9,1.3-1.4h-5.6
			C60.4,106.3,61,106.8,61.4,107.3z"/>
		<path class="st0" d="M83.1,124.6c-1.2,1.1-2.5,1.6-4,1.6c-2.5,0-4.6-1.1-6.3-3.2c-0.6-0.9-1.1-2-1.4-3.2c-0.3-1.2-0.5-2.5-0.5-3.8
			c0-2.5,0.5-4.7,1.6-6.6c1.1-1.9,2.6-3,4.6-3.4H80c1.2,0.3,2.3,1,3.1,2c0.9,1,1.4,2.2,1.7,3.5H85l1.1-4c-1.1-0.7-2.3-1.3-3.6-1.7
			c-1.2-0.4-2.5-0.6-3.7-0.6c-1.1,0-2.1,0.1-3.2,0.3c-1,0.2-2.1,0.5-3,1c-1.7,0.9-3,2.3-4,4c-0.9,1.8-1.4,3.7-1.4,5.9
			c0,0.5,0.1,1.3,0.2,2.5c0.1,1.2,0.7,2.4,1.7,3.7c1,1.3,2.3,2.4,4,3.2l3.1,0.9h4.5l2.9-0.9l2.8-1.8c-0.2-1.2-0.6-2.4-1-3.6
			C85.1,122.2,84.3,123.5,83.1,124.6z"/>
		<path class="st0" d="M110.2,115c-0.3-2.4-1.2-4.4-2.7-6.2c-1.5-1.7-3-2.8-4.5-3.1c-1.5-0.3-2.6-0.4-3.3-0.4
			c-1.9,0-3.7,0.5-5.5,1.4c-1.8,1-3.1,2.4-4,4.2c-0.9,1.9-1.3,3.9-1.3,6.1c0.4,2.6,1.4,4.8,3,6.6c1.6,1.8,3.2,2.7,4.6,3
			c1.4,0.2,2.4,0.3,3,0.3c0.1,0,0.4,0,0.9,0c0.6,0,1.5-0.2,2.9-0.5c1.4-0.3,2.9-1.4,4.5-3.3c1.6-1.9,2.4-4.3,2.4-6.9
			c0-0.2,0-0.4,0-0.6C110.2,115.3,110.2,115.1,110.2,115z M105.8,121.5c-0.6,1.5-1.4,2.8-2.6,3.7c-1.2,0.8-2.4,1.2-3.7,1.2
			c-0.8,0-1.6-0.1-2.3-0.4c-1.6-0.8-2.7-2.1-3.4-3.8c-0.7-1.7-1.1-3.6-1.1-5.8c0-1.1,0.1-2.2,0.3-3.3c0.2-1.1,0.5-2.2,0.9-3.3
			c0.4-1.1,1.2-2,2.2-2.8c1.1-0.7,2.2-1.1,3.5-1.1c2.3,0,4.1,1.1,5.4,3.3c0.5,1,0.9,2.1,1.2,3.4c0.3,1.3,0.4,2.5,0.4,3.8
			C106.6,118.2,106.3,119.9,105.8,121.5z"/>
		<path class="st0" d="M136.7,125.6l-3.2,0.5l-2.7-0.3c-0.4-0.2-0.8-0.5-1-0.8c-0.3-0.3-0.4-0.6-0.5-1.1v-15.9
			c0.1-0.4,0.3-0.7,0.6-1c0.2-0.3,0.5-0.5,0.8-0.6h-6.2l0.1,0.2c0.1,0,0.1,0.1,0.3,0.2c0.1,0.1,0.2,0.2,0.4,0.2
			c0.2,0.2,0.4,0.5,0.6,0.8c0.1,0.4,0.2,0.7,0.3,1.1v15.5c-0.1,0.1-0.2,0.2-0.3,0.5c-0.1,0.5-0.4,0.9-0.6,1.2
			c-0.3,0.3-0.7,0.6-1.1,0.8h17.3l1.3-5.3h-0.4C140.7,123.7,138.9,125,136.7,125.6z"/>
		<path class="st0" d="M161.2,124c-0.8,0.6-1.6,1-2.5,1.3l-3,0.8h-3.8c-0.7,0-1.3-0.3-1.7-0.8c-0.5-0.5-0.7-1.2-0.7-1.9v-6.9h6.2
			c0.9,0.2,1.7,0.5,2.3,0.9c0.6,0.4,1.1,1.1,1.4,1.9V113c-0.4,0.8-1,1.4-1.5,1.8c-0.6,0.5-1.2,0.7-2,0.8h-6.2v-8.4h6.3l3.4,1.1
			c0.5,0.3,1,0.6,1.4,1c0.4,0.4,0.8,0.9,1.2,1.5h0.3l-1.1-4.3h-16.5c0.1,0,0.2,0,0.4,0.1c0.3,0.3,0.6,0.6,0.9,0.9
			c0.2,0.4,0.4,0.7,0.5,1.2v14c0,0.9-0.2,1.7-0.5,2.5c-0.3,0.8-0.8,1.3-1.5,1.7h18l1.2-4.1l0.1-0.9
			C162.7,122.7,161.9,123.4,161.2,124z"/>
		<path class="st0" d="M182.6,124c-0.8,0.6-1.6,1-2.4,1.3l-3,0.8h-3.8c-0.7,0-1.3-0.3-1.7-0.8c-0.5-0.5-0.7-1.2-0.7-1.9v-6.9h6.2
			c0.9,0.2,1.7,0.5,2.3,0.9c0.6,0.4,1.1,1.1,1.4,1.9V113c-0.4,0.8-1,1.4-1.5,1.8c-0.6,0.5-1.2,0.7-2,0.8H171v-8.4h6.3l3.5,1.1
			c0.5,0.3,1,0.6,1.4,1c0.4,0.4,0.8,0.9,1.2,1.5h0.3l-1.1-4.3h-16.5c0.1,0,0.2,0,0.3,0.1c0.3,0.3,0.6,0.6,0.9,0.9
			c0.2,0.4,0.4,0.7,0.5,1.2v14c0,0.9-0.2,1.7-0.5,2.5c-0.4,0.8-0.8,1.3-1.5,1.7h18l1.2-4.1l0.1-0.9
			C184.2,122.7,183.4,123.4,182.6,124z"/>
		<polygon class="st0" points="116.5,112.6 119.4,106.5 113.5,106.5 		"/>
	</g>
	<path class="st0" d="M108.7,12.2c0.6-1.1,1.4-2.3,2.4-3.6c1-1.3,1.7-1.9,2.4-1.9c0.1,0,0.3,0,0.3-0.1c0.1-0.1,0.1-0.2,0-0.4
		c-0.1-0.2-0.3-0.2-0.7-0.2c-0.7,0-1.7,0.4-2.8,1.3c-1.2,0.8-2.5,2.1-3.8,3.7c-3.9-2-7.9-3.2-12.1-3.5l0.1-5.8c0-0.8-1-1.5-1.9-1.5
		c-0.9,0-1.9,0.7-1.9,1.5l0.1,5.8c-1,0-2,0.1-3,0.3c-8,1.2-13.5,3.9-16.7,8.1c-1.5,1.9-2.2,3.9-2.2,5.8c0,1,0.2,1.9,0.5,2.9
		c0.9,2.5,2.6,4.3,5.3,5.2l2.8,0.5c1.5,0,2.9-0.4,4.4-1.2c2.4-1.4,3.8-3.3,4.1-5.9c0.1-0.5-0.1-0.7-0.5-0.8c-0.4-0.1-0.6,0-0.6,0.3
		c-0.1,1.4-0.9,2.8-2.5,4.4c-0.8,0.8-1.6,1.3-2.5,1.5c-0.8,0.2-1.6,0.3-2.3,0.3c-0.7,0-1.5-0.1-2.4-0.4c-2.6-0.8-3.9-2.6-3.9-5.3
		c0-2,0.9-4.1,2.7-6.3c2.9-3.6,7.1-6,12.6-7.2c1.4-0.3,2.8-0.5,4.1-0.5l0.3,26.7c-0.3,0.5-0.6,1.1-1,1.6c-1.8,2.9-3.6,5.1-5.3,6.8
		c-4-2.1-6.7-3.4-8.3-4c-1.6-0.6-3.1-0.8-4.6-0.8c-2.3,0-4.1,0.7-5.3,2.2c-0.8,0.9-1.2,1.8-1.2,2.6c0,0.8,0.1,1.5,0.4,2.1
		c1.1,2.6,3.9,3.9,8.5,3.9c4,0,7.7-1.3,11-4c1.8,1.1,3.9,1.9,6,2.5l0.1,10.9H78.3v2.1h0.2h1.3h11.4l0,0.4H81h-0.4h-0.4
		c0.8,0.4,1.4,1.1,1.4,1.9l0,0.3h0.9V65l3.4-0.8h4.4l-7.8,1.9l-0.1,0v0.7V67v0.7l19.9,4.8l0.1,0v-0.7v-0.2V71l-1.4,0.3l-2.2-0.5
		l3.6-0.9v-0.9l-5.4,1.3l-2.2-0.5l7.6-1.8l0.1,0v-0.9l-8.8,2.1l0-1.1l8.7-2.1l0.1,0v-0.6v-0.3l-8.7,2.1l0-1.1l8.2-2h1.5l0-0.2
		c0,0,0,0,0-0.1c0-0.8,0.6-1.5,1.4-1.9h-0.4H104H93.8l0-0.4h11.4h1.3h0.1v0h0.1v-2.1H93.8l0.1-10.3c2.1,0.4,4.4,0.6,6.8,0.6
		c3,0,6.1-0.6,9.2-1.7c2.6-0.9,4.8-2.5,6.6-4.8c2.2-2.7,3.3-6.4,3.3-11.1c0-3.7-0.8-7.2-2.4-10.4C115.5,18,112.5,14.8,108.7,12.2z
		 M73.7,48.4c-2.3,0-3.8-0.8-4.6-2.3c-0.3-0.6-0.4-1.2-0.4-1.8c0-0.6,0.3-1.3,0.9-2.1c0.6-0.8,1.5-1.2,2.5-1.2c1,0,2.1,0.2,3.2,0.6
		c1.1,0.4,3.7,1.6,7.9,3.6C80.3,47.4,77.1,48.4,73.7,48.4z M86.3,45.1c0.7-0.6,1.7-1.6,2.9-2.9c0.5-0.5,1.1-1.3,1.8-2.1l0.1,7.1
		C89.4,46.7,87.8,46,86.3,45.1z M82.8,66.9l8.4-2l0,1.1L85,67.5L82.8,66.9z M91.3,69l-0.4-0.1l0.4-0.1L91.3,69z M91.3,67.9l-2.2,0.5
		l-2.2-0.5l4.4-1.1L91.3,67.9z M93.8,65.3l0-1.1l0.1,0h4.5L93.8,65.3z M91.5,6.1c0-0.6,0.4-1.1,1-1.1c0.6,0,1,0.5,1,1.1v1.3
		c-0.4,0-0.8,0-1.2,0c-0.3,0-0.5,0-0.8,0V6.1z M91.5,9c0.2,0,0.5,0,0.7,0c0.4,0,0.9,0,1.3,0v1.1c0,0.6-0.4,1.1-1,1.1
		c-0.6,0-1-0.5-1-1.1V9z M94.3,9.1c3.7,0.3,7.2,1.5,10.6,3.5c-1.9,2.1-3.7,4.7-5.6,7.8c-1.9,3.1-3.5,6-4.8,8.7
		c-0.1,0.3-0.3,0.6-0.5,0.9L94.3,9.1z M112.5,43.5c-3.4,3.2-7.8,4.8-13.5,4.8c-1.8,0-3.4-0.1-5.1-0.4l0.1-12.1c2-3,4.5-6.9,7.4-11.8
		c2.9-4.9,4.9-8.1,6-9.7c3.1,2.5,5.5,5.5,7.1,9.2c1.3,2.9,1.9,6,1.9,9.2C116.5,37.3,115.1,40.9,112.5,43.5z"/>
</g>
</svg>
