<svg xmlns="http://www.w3.org/2000/svg" width="235.554" height="76.828" viewBox="0 0 235.554 76.828">
  <g id="그룹_7" data-name="그룹 7" transform="translate(-616.217 -394.94)">
    <g id="그룹_5" data-name="그룹 5" transform="translate(715.261 403.44)">
      <g id="그룹_4" data-name="그룹 4">
        <path id="패스_19" data-name="패스 19" d="M707.812,431.384q-12.058,0-12.058-8.34a8.121,8.121,0,0,1,1.966-5.737h-1.966q-1.487,0-1.486-2.018v-3.4q0-2.337,1.964-2.337h23.212q1.647,0,1.647,1.541v4.462q0,1.751-1.647,1.752h-.957a8.226,8.226,0,0,1,1.488,5.259Q719.976,431.331,707.812,431.384Zm-4.62,15.032v2.019h29.479q1.8-.055,1.806,1.539v2.868a1.6,1.6,0,0,1-1.806,1.807H697.614q-2.5,0-2.5-2.232v-8.6q0-2.284,2.072-2.284H726.4v-2.072h-29q-2.284,0-2.284-1.753v-2.231q0-2.071,1.859-2.072h35.11q2.391,0,2.391,1.86v9.614q0,1.542-1.806,1.541Zm-2.284-38.244q-1.7,0-1.7-1.912V403.55a1.714,1.714,0,0,1,1.966-1.912h13.44q1.911,0,1.911,1.754v3.027a1.527,1.527,0,0,1-1.7,1.754Zm7.011,9.135q-4.515,0-4.515,4.674,0,3.615,4.728,3.613,4.249,0,4.249-3.613Q712.38,417.31,707.918,417.307ZM734.69,412.1a1.879,1.879,0,0,1,2.124,2.125v3.5q0,2.391-2.178,2.391h-2.816v8.763q0,2.391-2.124,2.391h-3.771q-2.391,0-2.391-2.284V403.762q0-2.071,2.709-2.071h2.922q2.653,0,2.655,1.859V412.1Z" transform="translate(-694.268 -401.638)" fill="#82a912"/>
        <path id="패스_20" data-name="패스 20" d="M734.185,435.674q-2.5,0-2.5-2.337V404.547q0-2.071,2.284-2.072h3.984q2.284,0,2.284,1.966v4.78h21.991v-4.78q0-1.964,2.337-1.966H768.6q2.231,0,2.231,1.912v28.949q0,2.337-2.656,2.337Zm21.14,16.891q0,1.911-1.751,1.912h-5.259q-1.807,0-1.807-1.912V447.36H734.132q-2.444,0-2.444-2.019v-3.825q0-2.124,2.391-2.125H768.5q2.338,0,2.338,2.444v3.081q0,2.444-2.338,2.444H755.325Zm6.907-24.541V416.817H740.241v11.208Z" transform="translate(-684.203 -401.413)" fill="#82a912"/>
        <path id="패스_21" data-name="패스 21" d="M781.195,401.68a13.065,13.065,0,0,1,6.8,1.593,10.915,10.915,0,0,1,4.2,4.808,25.87,25.87,0,0,1,2.125,8.02,94.4,94.4,0,0,1,.584,11.235,98.355,98.355,0,0,1-.637,11.978,30.026,30.026,0,0,1-2.179,8.552,11.43,11.43,0,0,1-4.2,5.125,12.2,12.2,0,0,1-6.694,1.7,12.538,12.538,0,0,1-6.851-1.726,11.639,11.639,0,0,1-4.276-5.153,29.472,29.472,0,0,1-2.2-8.552,98.091,98.091,0,0,1-.636-11.924,76.655,76.655,0,0,1,.716-11.182,26.567,26.567,0,0,1,2.337-8.02,11.516,11.516,0,0,1,4.3-4.833A12.58,12.58,0,0,1,781.195,401.68Zm5.738,25.656q0-4.515-.213-7.915a27.421,27.421,0,0,0-.85-5.657,7.644,7.644,0,0,0-1.753-3.374,3.883,3.883,0,0,0-2.869-1.114,3.944,3.944,0,0,0-2.92,1.114,7.455,7.455,0,0,0-1.727,3.374,28.985,28.985,0,0,0-.824,5.657q-.213,3.4-.212,7.915,0,9.932,1.169,14.9t4.514,4.967a3.614,3.614,0,0,0,2.816-1.249,8.9,8.9,0,0,0,1.754-3.745,34.781,34.781,0,0,0,.876-6.214Q786.931,432.277,786.933,427.336Zm21.99-15.511a1.972,1.972,0,0,1,2.231,2.231v3.93a1.972,1.972,0,0,1-2.231,2.232h-2.337v4.3h2.391a1.949,1.949,0,0,1,2.178,2.231v3.931a1.949,1.949,0,0,1-2.178,2.231h-2.391v19.546q0,2.18-2.337,2.179h-3.823q-2.286,0-2.391-1.914V403.911a1.972,1.972,0,0,1,2.231-2.231h4.2q2.126,0,2.126,1.966v8.18Z" transform="translate(-674.644 -401.627)" fill="#82a912"/>
      </g>
    </g>
    <g id="그룹_6" data-name="그룹 6" transform="translate(616.217 394.94)">
      <path id="패스_22" data-name="패스 22" d="M716.439,454.894s-62.475-8.673-100.222,3.042C616.217,457.936,658.3,434.072,716.439,454.894Z" transform="translate(-616.217 -381.108)" fill="#90611c"/>
      <path id="패스_23" data-name="패스 23" d="M647.109,416.671a5.491,5.491,0,1,0,4.762,2.746,5.494,5.494,0,0,0-4.762-2.746" transform="translate(-608.106 -389.095)" fill="#82a912"/>
      <path id="패스_24" data-name="패스 24" d="M640.412,428.587a5.5,5.5,0,0,0,9.517,0,5.491,5.491,0,0,0-9.517,0" transform="translate(-609.709 -386.63)" fill="#82a912"/>
      <path id="패스_25" data-name="패스 25" d="M647.113,441.081a5.489,5.489,0,1,0,0-5.5,5.477,5.477,0,0,0,0,5.5" transform="translate(-608.106 -384.746)" fill="#82a912"/>
      <path id="패스_26" data-name="패스 26" d="M661.205,441.077a5.487,5.487,0,1,0-4.762-2.744,5.484,5.484,0,0,0,4.762,2.744" transform="translate(-605.595 -384.746)" fill="#82a912"/>
      <path id="패스_27" data-name="패스 27" d="M668.6,428.583a5.49,5.49,0,0,0-9.513,0,5.491,5.491,0,0,0,9.513,0" transform="translate(-604.687 -386.63)" fill="#82a912"/>
      <path id="패스_28" data-name="패스 28" d="M661.2,416.671a5.491,5.491,0,1,0,0,5.5,5.489,5.489,0,0,0,0-5.5" transform="translate(-605.595 -389.095)" fill="#82a912"/>
      <path id="패스_29" data-name="패스 29" d="M655.337,394.94a17.384,17.384,0,0,0,0,30.109,17.38,17.38,0,0,0,0-30.109" transform="translate(-608.033 -394.94)" fill="#5e7d22"/>
      <path id="패스_30" data-name="패스 30" d="M624.865,411.966a17.383,17.383,0,0,0,26.076,15.054,17.382,17.382,0,0,0-26.076-15.054" transform="translate(-613.891 -390.987)" fill="#5e7d22"/>
      <path id="패스_31" data-name="패스 31" d="M624.867,448.22a17.384,17.384,0,0,0,26.076-15.058,17.384,17.384,0,0,0-26.076,15.058" transform="translate(-613.89 -385.286)" fill="#5e7d22"/>
      <path id="패스_32" data-name="패스 32" d="M687.658,448.215a17.384,17.384,0,0,0-26.076-15.055,17.384,17.384,0,0,0,26.076,15.055" transform="translate(-604.015 -385.287)" fill="#5e7d22"/>
      <path id="패스_33" data-name="패스 33" d="M687.659,411.963a17.384,17.384,0,0,0-26.079,15.055,17.387,17.387,0,0,0,26.079-15.055" transform="translate(-604.016 -390.988)" fill="#5e7d22"/>
      <path id="패스_34" data-name="패스 34" d="M637.213,399.371a8.694,8.694,0,0,0,7.529,13.039,8.692,8.692,0,0,0-7.529-13.039" transform="translate(-610.883 -393.748)" fill="#82a912"/>
      <path id="패스_35" data-name="패스 35" d="M620.434,428.926a8.7,8.7,0,0,0,15.057,0,8.691,8.691,0,0,0-15.057,0" transform="translate(-615.083 -386.969)" fill="#82a912"/>
      <path id="패스_36" data-name="패스 36" d="M689.75,428.922a8.693,8.693,0,0,0-15.055,0,8.689,8.689,0,0,0,15.055,0" transform="translate(-600.488 -386.969)" fill="#82a912"/>
      <path id="패스_37" data-name="패스 37" d="M671.869,399.371a8.693,8.693,0,0,0-7.529,13.036,8.688,8.688,0,0,0,7.529-13.036" transform="translate(-603.586 -393.748)" fill="#82a912"/>
    </g>
  </g>
</svg>
