<svg xmlns="http://www.w3.org/2000/svg" width="221.667" height="66.638" viewBox="0 0 221.667 66.638">
  <g id="로고" transform="translate(116.443 32.197)">
    <g id="그룹_1" data-name="그룹 1" transform="translate(-77.57 -16.509)">
      <path id="패스_2" data-name="패스 2" d="M-67.622,5.811l-6.571,13.426H-78.88l8.665-17.7h4.685l-.029.057,15.329.236L-37.382-24.43h-35.6L-97.307,25.288h35.6l9.46-19.332Zm7.951-25.749h4.685l-8.665,17.7h-4.685Z" transform="translate(97.718 24.687)" fill="#1a1a1a"/>
      <path id="패스_3" data-name="패스 3" d="M-61.337,25.677h-36.17l.181-.37,24.4-49.862h36.17l-.179.37L-49.86,2.223l-.164,0-15.733-.242.027-.051h-4.114l-8.415,17.185h4.116l6.571-13.426h.162l15.78.148Zm-35.348-.513h35.028l9.211-18.823L-67.254,6.2l-6.569,13.424H-79.08l8.916-18.211h5.257l-.033.064,14.76.228,12.6-25.747H-72.61ZM-63.279-1.852h-5.257l8.914-18.211h5.257Zm-4.436-.513H-63.6l8.415-17.185H-59.3Z" transform="translate(97.507 24.555)" fill="#302d2c"/>
    </g>
    <g id="그룹_2" data-name="그룹 2" transform="translate(6.6 -16.509)">
      <path id="패스_4" data-name="패스 4" d="M-33.195,19.237h-4.685l8.665-17.7h.817L-9.018,1.4,3.619-24.43h-35.6L-56.306,25.288h35.6L-10.449,4.325l-15.54.2Zm14.522-39.175h4.687l-8.665,17.7h-4.685Z" transform="translate(56.717 24.687)" fill="#1a1a1a"/>
      <path id="패스_5" data-name="패스 5" d="M-20.336,25.677h-36.17l.181-.37,24.4-49.862H4.241l-.179.37L-8.647,1.787l-20.2.14-8.415,17.185h4.116l7.2-14.715,16.113-.2Zm-35.348-.513h35.028l10-20.445-14.963.187-7.206,14.719h-5.257l8.916-18.211h.977L-8.97,1.276,3.419-24.042H-31.609ZM-22.278-1.852h-5.259l8.916-18.211h5.257Zm-4.436-.513H-22.6l8.415-17.185H-18.3Z" transform="translate(56.506 24.555)" fill="#302d2c"/>
    </g>
    <g id="그룹_3" data-name="그룹 3" transform="translate(-39.152 -16.509)">
      <path id="패스_6" data-name="패스 6" d="M-37.756-11.613-32.08-24.43H-54.266L-78.593,25.288h16.026l17.977-36.9Z" transform="translate(79.004 24.687)" fill="#1a1a1a"/>
      <path id="패스_7" data-name="패스 7" d="M-62.2,25.677h-16.6l.181-.37,24.4-49.862h22.74l-5.9,13.331h-6.84Zm-15.776-.513h15.456l17.977-36.9h6.826l5.45-12.3H-53.9Z" transform="translate(78.793 24.555)" fill="#302d2c"/>
    </g>
    <g id="그룹_6" data-name="그룹 6" transform="translate(-12.911 -16.509)">
      <g id="그룹_4" data-name="그룹 4" transform="translate(13.821 0)">
        <path id="패스_8" data-name="패스 8" d="M-49.13-24.43-59.164-3.505-48.926-24.43Z" transform="translate(59.396 24.687)" fill="#1a1a1a"/>
        <path id="패스_9" data-name="패스 9" d="M-58.815-3.26l-.462-.225,10.1-21.07h.776Z" transform="translate(59.277 24.555)" fill="#302d2c"/>
      </g>
      <g id="그룹_5" data-name="그룹 5">
        <path id="패스_10" data-name="패스 10" d="M-41.483-24.43-65.81,25.288h15.992L-25.491-24.43Z" transform="translate(66.221 24.687)" fill="#1a1a1a"/>
        <path id="패스_11" data-name="패스 11" d="M-49.445,25.677H-66.01l.181-.37,24.4-49.862h16.565l-.181.37Zm-15.741-.513h15.419l24.076-49.205H-41.111Z" transform="translate(66.01 24.555)" fill="#302d2c"/>
      </g>
    </g>
    <g id="그룹_7" data-name="그룹 7" transform="translate(44.475 -16.509)">
      <path id="패스_12" data-name="패스 12" d="M.008-20.2h3.9L-3.506-4.779H12.455L22.07-24.43h-35.6L-26.01,1.078H-6.24L-14.83,19.626h-3.9L-11.316,4.2H-27.538L-37.856,25.288h35.6L10.927-1.655H-8.583Z" transform="translate(38.267 24.687)" fill="#1a1a1a"/>
      <path id="패스_13" data-name="패스 13" d="M-1.884,25.677H-38.056l10.568-21.6H-10.7L-18.116,19.5h3.334L-6.429,1.467H-26.211l.181-.37,12.553-25.653h36.17L12.826-4.392H-3.7L3.716-19.815H.384L-7.969-1.78H11.55l-.181.372Zm-35.348-.513H-2.2L10.728-1.267h-19.5L.056-20.328H4.531L-2.886-4.9H12.506l9.363-19.137H-13.157l-12.231,25H-5.627l-8.827,19.061h-4.477L-11.512,4.59H-27.166Z" transform="translate(38.056 24.555)" fill="#302d2c"/>
    </g>
    <g id="그룹_8" data-name="그룹 8" transform="translate(12.531 -32.197)">
      <path id="패스_14" data-name="패스 14" d="M-31.328-32.072H-47.37L-53.422-18.8h15.846Z" transform="translate(53.822 32.329)" fill="#1a1a1a"/>
      <path id="패스_15" data-name="패스 15" d="M-37.208-18.408H-53.617L-47.329-32.2h16.61Zm-15.61-.513h15.286l6.007-12.763H-47Z" transform="translate(53.617 32.197)" fill="#302d2c"/>
    </g>
    <g id="그룹_9" data-name="그룹 9" transform="translate(-116.443 -16.509)">
      <path id="패스_16" data-name="패스 16" d="M-86.97-1.655-78.38-20.2h3.9L-81.894-4.779h15.962l9.615-19.651h-35.6L-104.4,1.078h19.77l-8.591,18.548h-3.9L-89.7,4.2h-16.222l-10.317,21.086h35.6L-67.461-1.655Z" transform="translate(116.653 24.687)" fill="#1a1a1a"/>
      <path id="패스_17" data-name="패스 17" d="M-80.273,25.677h-36.17l10.568-21.6h16.788L-96.5,19.5h3.332l8.353-18.034H-104.6l.181-.37,12.551-25.653H-55.7L-65.563-4.392h-16.53l7.419-15.423h-3.332L-86.358-1.78h19.519l-.181.372Zm-35.348-.513h35.028L-67.663-1.267h-19.5l8.829-19.061h4.477L-81.275-4.9h15.392l9.365-19.137H-91.546l-12.231,25h19.763l-8.829,19.061H-97.32L-89.9,4.59h-15.653Z" transform="translate(116.443 24.555)" fill="#302d2c"/>
    </g>
    <g id="그룹_10" data-name="그룹 10" transform="translate(-13.134 34.441)">
      <path id="패스_18" data-name="패스 18" d="M-66.119.264" transform="translate(66.119 -0.264)" fill="#fff"/>
    </g>
  </g>
</svg>
