<?xml version="1.0" encoding="utf-8"?>
<!-- Generator: Adobe Illustrator 23.0.0, SVG Export Plug-In . SVG Version: 6.00 Build 0)  -->
<svg version="1.1" id="레이어_1" xmlns="http://www.w3.org/2000/svg" xmlns:xlink="http://www.w3.org/1999/xlink" x="0px"
	 y="0px" width="1920px" height="950px" viewBox="0 0 1920 950" style="enable-background:new 0 0 1920 950;" xml:space="preserve">
<style type="text/css">
	.st0{fill:#E2D7DA;}
	.st1{fill:#F5DCE6;}
	.st2{fill:url(#L_hand_1_);}
	.st3{fill:url(#L_hand-2_1_);}
	.st4{fill:url(#tick_2_);}
	.st5{fill:url(#R_shoe_1_);}
	.st6{fill:#F1B505;}
	.st7{fill:url(#R_trousers_1_);}
	.st8{fill:#23286B;}
	.st9{fill:url(#R_sleeve_1_);}
	.st10{fill:url(#L_hand-3_1_);}
	.st11{opacity:0.86;fill:#FFFFFF;enable-background:new    ;}
	.st12{fill:url(#sweater_1_);}
	.st13{fill:#A1C3FC;}
	.st14{fill:url(#neck_1_);}
	.st15{fill:#FFBEB6;}
	.st16{fill:#1C2868;}
	.st17{fill:url(#L_sleeve_1_);}
	.st18{fill:url(#R_hand_1_);}
	.st19{fill:url(#neck-2_1_);}
	.st20{fill:url(#hair-2_1_);}
	.st21{fill:url(#L_shoe-2_1_);}
	.st22{fill:#28306D;}
	.st23{fill:url(#L_trousers-2_1_);}
	.st24{fill:url(#SVGID_1_);}
	.st25{fill:url(#sweater-2_1_);}
	.st26{fill:url(#R_sleeve-3_2_);}
</style>
<g>
	<ellipse class="st0" cx="1265.5" cy="846" rx="119.5" ry="20.2"/>
	<ellipse class="st0" cx="1601.3" cy="846" rx="132.1" ry="20.2"/>
	<g>
		<g id="man_1_">
			<rect id="bg-3_1_" x="1147.7" y="208.2" class="st1" width="587.6" height="347.9"/>
			
				<linearGradient id="L_hand_1_" gradientUnits="userSpaceOnUse" x1="1398.1549" y1="630.2062" x2="1362.4689" y2="704.2021" gradientTransform="matrix(1 0 0 1 0 -228)">
				<stop  offset="0" style="stop-color:#FFBEB6"/>
				<stop  offset="0.5925" style="stop-color:#F7ADA7"/>
				<stop  offset="1" style="stop-color:#F2A19C"/>
			</linearGradient>
			<path id="L_hand_5_" class="st2" d="M1352.5,465.8c0,0,17.3-9.5,18.6-22.8s1.2-11.3-0.1-17c-1.2-5.7,1.3-6.7,4.8-2.6
				c3.4,4.1,0.3,10.9,2.8,10.5c2.5-0.4,5.5-0.4,8.8-9.6s5.4-12.2,8.1-10c2.7,2.1,9.9,13.9,2.2,24.9c-7.7,10.9-11.1,6-17.7,15
				c-6.5,9.1-10.9,25.1-17,32.4l0,0L1352.5,465.8"/>
			
				<linearGradient id="L_hand-2_1_" gradientUnits="userSpaceOnUse" x1="1457.2023" y1="657.8591" x2="1521.4974" y2="657.8591" gradientTransform="matrix(1 0 0 1 0 -228)">
				<stop  offset="0" style="stop-color:#FFBEB6"/>
				<stop  offset="1" style="stop-color:#F2A19C"/>
			</linearGradient>
			<path id="L_hand-2_3_" class="st3" d="M1521.5,439.1c0,0-21.4-5-26.8-19c-5.3-14-4.6-11.8-5-18.3c-0.4-6.5-3.4-6.8-5.9-1.4
				s2.9,11.8,0.1,12.1c-2.8,0.3-6,1.2-12.3-7.7c-6.3-8.9-9.4-11.5-11.7-8.4s-6.5,17.9,5,27.4c11.5,9.5,13.7,3.1,23.5,10.9
				c9.7,7.8,19.3,23.7,28,29.7l0,0L1521.5,439.1"/>
			
				<linearGradient id="tick_2_" gradientUnits="userSpaceOnUse" x1="1443.3845" y1="553.9949" x2="1443.3845" y2="747.977" gradientTransform="matrix(1 0 0 1 0 -228)">
				<stop  offset="0.1291" style="stop-color:#428DFC"/>
				<stop  offset="0.9987" style="stop-color:#1D72D8"/>
			</linearGradient>
			<polygon id="tick_1_" class="st4" points="1313.4,339.7 1393.4,470 1459.5,470 1573.4,290.5 1496.5,290.5 1420.6,414.1 
				1373.9,339.7 			"/>
			
				<linearGradient id="R_shoe_1_" gradientUnits="userSpaceOnUse" x1="1518.3762" y1="1021.1824" x2="1654.0426" y2="1146.4127" gradientTransform="matrix(1 0 0 1 0 -228)">
				<stop  offset="0" style="stop-color:#F1B505"/>
				<stop  offset="1" style="stop-color:#D89C05"/>
			</linearGradient>
			<path id="R_shoe_5_" class="st5" d="M1598.9,803.2l15.4,42.8l-108.4,0c0,0,5.6-10.7,24.1-18.7c18.5-7.9,35.8-24.2,35.8-24.2
				H1598.9"/>
			<path id="L_shoe_5_" class="st6" d="M1676.4,803.2l15.4,42.8l-108.4,0c0,0,5.6-10.7,24.1-18.7c18.5-7.9,35.8-24.2,35.8-24.2
				H1676.4"/>
			
				<linearGradient id="R_trousers_1_" gradientUnits="userSpaceOnUse" x1="1449.9425" y1="900.0392" x2="1651.6171" y2="900.0392" gradientTransform="matrix(1 0 0 1 0 -228)">
				<stop  offset="0" style="stop-color:#23286B"/>
				<stop  offset="0.3535" style="stop-color:#1E2361"/>
				<stop  offset="1" style="stop-color:#151A4F"/>
			</linearGradient>
			<path id="R_trousers_5_" class="st7" d="M1644.1,555c-13.1,57.3-14.1,49.3-12.1,89.5c2,40.2-4.5,26.7-6.5,68.9
				c-2,42.2,0.6,63.1-26.6,89.8h-33.1c0,0-2.7-128.8-2.1-165.2c0.4-25.5,8.4-51.3,13-72.4l5.1-21.1c4.9-0.3,9.7-1.5,14.1-3.6
				c11.5,3.9,31.8,4.7,50.1,4.5C1645.5,548.5,1644.9,551.7,1644.1,555z"/>
			<path id="L_trousers_5_" class="st8" d="M1676.4,803.2h-33.1c0,0-52.2-125.9-54.8-153.2c-2.1-21.7-1.2-46.8,1.1-69.6l4.6-40.1
				c15,5.9,48.9,5.5,70.8,4.5c-0.6,12.5-2.9,24.8-6.9,36.6c-20.8,62.6-6.5,59.6,0.2,78.5c6.8,18.9,10.4,30.5,8.9,48.4
				c-1.6,17.9,6.2,13.2,10.4,36.3C1681.7,767.7,1676.4,803.2,1676.4,803.2z"/>
			
				<linearGradient id="R_sleeve_1_" gradientUnits="userSpaceOnUse" x1="1547.6945" y1="644.4763" x2="1585.3446" y2="719.7766" gradientTransform="matrix(1 0 0 1 0 -228)">
				<stop  offset="0" style="stop-color:#A1C3FC"/>
				<stop  offset="0.6955" style="stop-color:#81AEF2"/>
				<stop  offset="1" style="stop-color:#78A9EF"/>
			</linearGradient>
			<path id="R_sleeve_5_" class="st9" d="M1607.5,416.2c0,0-3.9,21.2-33.4,28.4c-29.5,7.3-56.1-6.9-56.1-6.9l-18.8,47.7
				c0,0,8.8,9.3,26.8,8.3s26.9-3.6,34.9-1.5c8,2.1,44.4,3.5,52-20.8c7.6-24.3,14.6-60.8,14.6-60.8S1619.1,418.9,1607.5,416.2"/>
			
				<linearGradient id="L_hand-3_1_" gradientUnits="userSpaceOnUse" x1="1407.9685" y1="706.7796" x2="1524.1597" y2="706.7796" gradientTransform="matrix(1 0 0 1 0 -228)">
				<stop  offset="0" style="stop-color:#FFBEB6"/>
				<stop  offset="1" style="stop-color:#F2A19C"/>
			</linearGradient>
			<path id="L_hand-3_3_" class="st10" d="M1524.2,480.8c0,0-45.7-7.4-52.3-13.3c-6.6-5.9-5.7-9.5-13.9-13.7
				c-8.3-4.3-14.2-7.6-17.2-10.2c-3.1-2.6-5.4,3.8,0.7,9.9c6.1,6.1,16.1,12,9.5,16.5c0,0-16.2-0.1-42.8,0.1
				c-1.3,0,13.7,10.9,31.6,11.1c18,0.2,18.2-4.7,28.8,3.5s38.2,29.9,38.2,29.9l15.9-28.5"/>
			<path id="texture_5_" class="st11" d="M1627.5,549c-0.1-0.1-0.2-0.2-0.3-0.1c-0.1,0.1-0.2,0.2-0.1,0.3c0.1,0.1,0.2,0.2,0.3,0.1
				l0,0C1627.5,549.3,1627.6,549.1,1627.5,549L1627.5,549z M1601.1,548.9c-0.1,0-0.3,0-0.3,0.1c-0.1,0.1,0,0.3,0.1,0.3c0,0,0,0,0,0
				c0.1,0.1,0.3,0,0.3-0.1C1601.3,549.2,1601.3,549,1601.1,548.9C1601.1,548.9,1601.1,548.9,1601.1,548.9L1601.1,548.9z
				 M1614.2,548.2c-0.1,0-0.3,0.1-0.3,0.3c0,0.1,0.1,0.3,0.3,0.3l0,0c0.1,0,0.3-0.1,0.3-0.3C1614.5,548.3,1614.4,548.2,1614.2,548.2
				z M1661.2,550.2c-0.2-0.2-0.5-0.2-0.7,0c0,0,0,0,0,0c-0.2,0.2-0.2,0.5,0,0.7c0,0,0,0,0,0c0.2,0.2,0.5,0.2,0.7,0c0,0,0,0,0,0
				C1661.5,550.7,1661.4,550.4,1661.2,550.2C1661.2,550.2,1661.2,550.2,1661.2,550.2L1661.2,550.2z M1625.3,580
				c-0.3,0-0.5,0.2-0.5,0.5c0,0.3,0.2,0.5,0.5,0.4c0,0,0,0,0,0c0.3,0,0.5-0.2,0.5-0.5C1625.8,580.2,1625.6,580,1625.3,580
				L1625.3,580L1625.3,580z M1624.5,568.2c-0.3,0-0.5,0.3-0.4,0.5c0,0,0,0,0,0c0,0.3,0.3,0.5,0.5,0.5c0.3,0,0.5-0.2,0.5-0.5
				C1625,568.4,1624.8,568.2,1624.5,568.2L1624.5,568.2z M1623.7,556.5c-0.3,0-0.5,0.3-0.5,0.5c0,0.3,0.2,0.5,0.5,0.4c0,0,0,0,0,0
				c0.3,0,0.5-0.2,0.5-0.5c0,0,0,0,0,0C1624.2,556.6,1624,556.4,1623.7,556.5L1623.7,556.5z M1648.5,568.3c-0.1-0.2-0.4-0.4-0.7-0.2
				c-0.2,0.1-0.4,0.4-0.2,0.7c0.1,0.2,0.4,0.4,0.7,0.2c0,0,0,0,0,0C1648.5,568.8,1648.6,568.5,1648.5,568.3L1648.5,568.3z
				 M1643.3,557.7c-0.1-0.2-0.4-0.4-0.7-0.2c-0.2,0.1-0.4,0.4-0.2,0.7c0.1,0.2,0.4,0.4,0.7,0.2c0,0,0,0,0,0
				C1643.3,558.2,1643.4,557.9,1643.3,557.7L1643.3,557.7z M1638,547.1c-0.1-0.2-0.4-0.3-0.7-0.2c-0.2,0.1-0.3,0.4-0.2,0.7
				c0.1,0.2,0.4,0.3,0.7,0.2C1638,547.7,1638.1,547.4,1638,547.1L1638,547.1z M1603.2,571.6c-0.2-0.1-0.5,0-0.6,0.3c0,0,0,0,0,0
				c-0.1,0.2,0,0.5,0.3,0.6c0,0,0,0,0,0c0.3,0.1,0.5,0,0.6-0.3C1603.6,571.9,1603.4,571.7,1603.2,571.6L1603.2,571.6z M1606.9,560.4
				c-0.3-0.1-0.5,0-0.6,0.3c0,0,0,0,0,0c-0.1,0.3,0,0.5,0.3,0.6c0.3,0.1,0.5-0.1,0.6-0.3C1607.3,560.7,1607.2,560.5,1606.9,560.4
				C1606.9,560.4,1606.9,560.4,1606.9,560.4L1606.9,560.4z M1610.7,549.2c-0.3-0.1-0.5,0-0.6,0.3c-0.1,0.3,0,0.5,0.3,0.6
				c0,0,0,0,0,0c0.2,0.1,0.5,0,0.6-0.3c0,0,0,0,0,0C1611.1,549.5,1610.9,549.3,1610.7,549.2L1610.7,549.2z M1658.6,562.9
				c-0.1-0.2-0.4-0.3-0.6-0.1c-0.2,0.1-0.3,0.4-0.1,0.6s0.4,0.3,0.6,0.1C1658.7,563.3,1658.8,563.1,1658.6,562.9L1658.6,562.9z
				 M1653.1,553.9c-0.1-0.2-0.4-0.3-0.6-0.1s-0.3,0.4-0.1,0.6s0.4,0.3,0.6,0.1l0,0C1653.1,554.4,1653.2,554.2,1653.1,553.9
				C1653.1,554,1653.1,553.9,1653.1,553.9L1653.1,553.9z M1614.6,570c-0.2-0.1-0.5,0.1-0.5,0.3c0,0,0,0,0,0
				c-0.1,0.2,0.1,0.5,0.3,0.5c0,0,0,0,0,0c0.2,0.1,0.5-0.1,0.5-0.3C1615,570.3,1614.9,570,1614.6,570L1614.6,570z M1617,559.7
				c-0.2-0.1-0.5,0.1-0.5,0.3c0,0,0,0,0,0c-0.1,0.2,0.1,0.5,0.3,0.5c0,0,0,0,0,0c0.2,0.1,0.5-0.1,0.5-0.3
				C1617.4,560,1617.2,559.8,1617,559.7L1617,559.7z M1619.4,549.5c-0.2-0.1-0.5,0.1-0.5,0.3c0,0,0,0,0,0c-0.1,0.2,0.1,0.4,0.3,0.5
				c0,0,0,0,0,0c0.2,0.1,0.5-0.1,0.5-0.3c0,0,0,0,0,0C1619.8,549.8,1619.6,549.5,1619.4,549.5L1619.4,549.5z M1637,565.3
				c-0.2,0.1-0.4,0.3-0.4,0.5c0,0.2,0.3,0.4,0.5,0.4c0.2,0,0.4-0.3,0.4-0.5C1637.5,565.5,1637.3,565.3,1637,565.3L1637,565.3z
				 M1635.3,554.9c-0.2,0.1-0.4,0.3-0.4,0.5c0,0.2,0.3,0.4,0.5,0.4c0.2,0,0.4-0.2,0.4-0.5c0,0,0,0,0,0
				C1635.8,555.1,1635.6,554.9,1635.3,554.9L1635.3,554.9z M1598,556.7c-0.2-0.1-0.5-0.1-0.6,0.1c-0.1,0.2-0.1,0.5,0.1,0.6
				c0,0,0,0,0,0c0.2,0.1,0.4,0.1,0.6-0.1c0,0,0,0,0,0C1598.3,557.1,1598.2,556.8,1598,556.7C1598,556.7,1598,556.7,1598,556.7
				L1598,556.7z M1604.1,548.1c-0.2-0.1-0.5-0.1-0.6,0.1c-0.1,0.2-0.1,0.5,0.1,0.6c0.2,0.1,0.5,0.1,0.6-0.1
				C1604.4,548.5,1604.3,548.2,1604.1,548.1C1604.1,548.1,1604.1,548.1,1604.1,548.1L1604.1,548.1z M1633.2,546.1
				c-0.1,0-0.3,0.1-0.3,0.2c0,0.1,0.1,0.3,0.2,0.3s0.3-0.1,0.3-0.2C1633.4,546.2,1633.3,546.1,1633.2,546.1L1633.2,546.1
				L1633.2,546.1z M1632.8,548.2c-0.2,0-0.3,0.1-0.3,0.2c0,0.2,0.1,0.3,0.2,0.3c0.1,0,0.3,0,0.3-0.2c0,0,0,0,0,0
				C1633,548.4,1632.9,548.3,1632.8,548.2C1632.8,548.2,1632.8,548.2,1632.8,548.2L1632.8,548.2z M1658.1,574.2
				c-0.3,0-0.5,0.3-0.4,0.6c0,0.3,0.3,0.5,0.6,0.4c0.3,0,0.5-0.3,0.4-0.6C1658.7,574.4,1658.4,574.2,1658.1,574.2L1658.1,574.2z
				 M1656.2,562.2c-0.3,0-0.5,0.3-0.4,0.6c0,0.3,0.3,0.5,0.6,0.4c0.3,0,0.5-0.3,0.4-0.6l0,0C1656.8,562.4,1656.5,562.2,1656.2,562.2
				L1656.2,562.2z M1654.4,550.2c-0.3,0-0.5,0.3-0.4,0.6c0,0.3,0.3,0.5,0.6,0.4c0,0,0,0,0,0c0.3,0,0.5-0.3,0.4-0.6
				C1654.9,550.4,1654.6,550.2,1654.4,550.2L1654.4,550.2z M1608.7,562.3c-0.2-0.2-0.5-0.1-0.7,0.1c-0.2,0.2-0.1,0.5,0.1,0.7
				c0.2,0.2,0.5,0.1,0.7-0.1C1609,562.8,1609,562.5,1608.7,562.3L1608.7,562.3z M1615.9,552.5c-0.2-0.2-0.5-0.1-0.7,0.1
				s-0.1,0.5,0.1,0.7c0,0,0,0,0,0c0.2,0.2,0.5,0.1,0.7-0.1C1616.2,553,1616.1,552.7,1615.9,552.5
				C1615.9,552.5,1615.9,552.5,1615.9,552.5z M1634.4,567.8c-0.3-0.1-0.5,0.1-0.6,0.4c0,0,0,0,0,0c-0.1,0.3,0.1,0.5,0.4,0.6
				c0.3,0.1,0.5-0.1,0.6-0.4C1634.9,568.2,1634.7,567.9,1634.4,567.8L1634.4,567.8L1634.4,567.8z M1637.3,556
				c-0.3-0.1-0.5,0.1-0.6,0.3c0,0,0,0,0,0c-0.1,0.3,0.1,0.5,0.4,0.6c0,0,0,0,0,0c0.3,0.1,0.5-0.1,0.6-0.4v0
				C1637.7,556.3,1637.6,556.1,1637.3,556C1637.3,556,1637.3,556,1637.3,556L1637.3,556z M1641.8,571.8c-0.3-0.1-0.5,0.1-0.6,0.4
				c-0.1,0.3,0.1,0.5,0.4,0.6c0.3,0.1,0.5-0.1,0.6-0.4C1642.2,572.1,1642.1,571.8,1641.8,571.8L1641.8,571.8L1641.8,571.8z
				 M1644.1,559.9c-0.3,0-0.5,0.1-0.6,0.4c0,0.3,0.1,0.5,0.4,0.6c0.3,0.1,0.5-0.1,0.6-0.4C1644.6,560.2,1644.4,559.9,1644.1,559.9
				L1644.1,559.9z M1646.5,548c-0.3-0.1-0.5,0.1-0.6,0.4s0.1,0.5,0.4,0.6c0.3,0.1,0.5-0.1,0.6-0.4
				C1646.9,548.3,1646.7,548,1646.5,548L1646.5,548z M1664.4,553.3c-0.3,0.1-0.5,0.3-0.4,0.6c0.1,0.3,0.3,0.4,0.6,0.4
				c0.3,0,0.4-0.3,0.4-0.6c0,0,0,0,0,0C1664.9,553.4,1664.7,553.3,1664.4,553.3L1664.4,553.3z M1621.6,556.7
				c-0.2-0.2-0.5-0.1-0.7,0.1c0,0,0,0,0,0c-0.2,0.2-0.1,0.5,0.1,0.7c0.2,0.2,0.5,0.1,0.7-0.1
				C1621.9,557.1,1621.8,556.8,1621.6,556.7C1621.6,556.7,1621.6,556.7,1621.6,556.7L1621.6,556.7z M1628.3,546.6
				c-0.2-0.2-0.5-0.1-0.7,0.1c0,0,0,0,0,0c-0.2,0.2-0.1,0.5,0.1,0.7c0.2,0.2,0.5,0.1,0.7-0.1C1628.6,547,1628.6,546.7,1628.3,546.6
				C1628.3,546.6,1628.3,546.6,1628.3,546.6L1628.3,546.6z M1641.7,550.9c-0.2-0.1-0.4,0-0.5,0.2c0,0,0,0,0,0
				c-0.1,0.2,0,0.4,0.2,0.5c0.2,0.1,0.4,0,0.5-0.2C1642,551.3,1641.9,551,1641.7,550.9z M1660.9,550.1c-0.2,0-0.4,0.2-0.4,0.4
				c0,0,0,0,0,0c0,0.2,0.2,0.4,0.4,0.4c0.2,0,0.4-0.2,0.4-0.4C1661.3,550.3,1661.1,550.1,1660.9,550.1
				C1660.9,550.1,1660.9,550.1,1660.9,550.1L1660.9,550.1z"/>
			
				<linearGradient id="sweater_1_" gradientUnits="userSpaceOnUse" x1="1656.0388" y1="690.9994" x2="1578.9436" y2="828.1572" gradientTransform="matrix(1 0 0 1 0 -228)">
				<stop  offset="0" style="stop-color:#A1C3FC"/>
				<stop  offset="0.6955" style="stop-color:#81AEF2"/>
				<stop  offset="1" style="stop-color:#78A9EF"/>
			</linearGradient>
			<path id="sweater_5_" class="st12" d="M1627.4,409.4c13.8,9.6,25.5,22,34.3,36.3c14.9,24.2,10.9,33,19,47.2
				c8.1,14.2,19.3,31.8,4.3,50.5c0,0-73.8,6.4-93.6-4.5l16.1-122.8C1607.5,416.2,1616.9,417.2,1627.4,409.4z"/>
			<path id="R_sleeve-2_3_" class="st13" d="M1607.5,416.2c0,0-10.3,27.3-23.7,45.1c-13.4,17.8-19.1,18.5-37.5,13.1
				c-18.4-5.4-22-7.6-22-7.6l-26.3,68.2c0,0,14.1,14.3,34.7,9.9c20.6-4.4,27.4-4.4,37.6-1.6c10.1,2.8,34.3,3.3,48.4-27.8
				c14.1-31,18.2-59,9.7-105.5l0,0"/>
			
				<linearGradient id="neck_1_" gradientUnits="userSpaceOnUse" x1="1607.5271" y1="635.748" x2="1627.5803" y2="635.748" gradientTransform="matrix(1 0 0 1 0 -228)">
				<stop  offset="0" style="stop-color:#FFBEB6"/>
				<stop  offset="1" style="stop-color:#F2A19C"/>
			</linearGradient>
			<path id="neck_5_" class="st14" d="M1607.8,400.2c1.1,5.3,1,10.7-0.3,15.9c0,0,9,4.7,20.1-5.7c0,0-2.3-6-4-12.2l0,0L1607.8,400.2
				"/>
			<path id="face_5_" class="st15" d="M1594.4,363.3c0,0-1.7,6.3-5.2,9.9c-3.5,3.7-6.3,5.9,1.3,9.9c0,0,4.4,24.8,31.8,16
				c0,0,21-8.8,17.8-17.5s-16.7-20.8-16.7-20.8l-16.7-4.8L1594.4,363.3z"/>
			<path id="lips_1_" class="st16" d="M1590.8,388.8c1,2.3,3.7,3.3,6,2.3c0.8-0.4,1.5-1,2-1.8c0.4-0.6-0.5-1.3-0.9-0.7
				c-0.9,1.7-3.1,2.2-4.7,1.3c-0.6-0.4-1.1-0.9-1.4-1.6C1591.5,387.8,1590.5,388.2,1590.8,388.8L1590.8,388.8z"/>
			<path id="hair_5_" class="st8" d="M1584.3,334.3c-2.6,17.7,4.5,25.9,12.7,29.7c-11.2-3.7-17.8-15.3-15.3-26.8
				c0.1-0.6-0.8-0.8-0.9-0.2c-2.9,12.9,5.3,25.7,18.2,28.6c1.3,0.3,2.7,0.5,4,0.5c4.2,1,8.6,1.2,12.9,0.9c0,0,1.8,8.2,5.8,11.4
				c3.9,3.2,7.6-1.5,9.9,3.6c2.2,5.1-2.5,7.8-7.6,8.7c-5.1,0.8-4.4,7.5-4.4,7.5c3.9,1.7,16.6-0.5,26-9.3
				c9.3-8.8,11.6-21.4,11.6-21.4L1584.3,334.3z"/>
		</g>
		<g id="woman_3_">
			
				<linearGradient id="L_sleeve_1_" gradientUnits="userSpaceOnUse" x1="1247.2361" y1="701.5905" x2="1364.9125" y2="701.5905" gradientTransform="matrix(1 0 0 1 0 -228)">
				<stop  offset="0" style="stop-color:#23286B"/>
				<stop  offset="0.3535" style="stop-color:#1E2361"/>
				<stop  offset="1" style="stop-color:#151A4F"/>
			</linearGradient>
			<path id="L_sleeve_5_" class="st17" d="M1364.9,499.3c0,0-3,7.7-16.8,7.5c-13.9-0.2-17.9,2.7-30,8.4c-5.4,2.6-11.4,4-17.4,4.2
				c-9.8,0.2-20.1-3.5-26-15.8c-9.1-18.9-25.3-55.5-27.5-60.3c5-5.6,10.5-10.8,16.4-15.5l0,0c5.8,5.2,10.4,6.1,13.4,5.7
				c1.5,1.7,2.7,3.5,3.8,5.4c0.2,0.4,0.4,0.8,0.6,1.1c0,0,13.1,38.6,35.6,35.8c13.7-1.7,26.9-5.9,39.1-12.5L1364.9,499.3z"/>
			
				<linearGradient id="R_hand_1_" gradientUnits="userSpaceOnUse" x1="1393.2679" y1="686.5356" x2="1353.9091" y2="727.2063" gradientTransform="matrix(1 0 0 1 0 -228)">
				<stop  offset="0" style="stop-color:#FFBEB6"/>
				<stop  offset="1" style="stop-color:#F2A19C"/>
			</linearGradient>
			<path id="R_hand_5_" class="st18" d="M1360.3,478.3c0,0,19.1-5,23.6-17.6s3.9-10.7,4.1-16.5c0.2-5.8,2.9-6.2,5.2-1.4
				s-2.3,10.7,0.2,10.9c2.5,0.2,5.1-3.2,11.1-9.2c6.9-6.9,7.9-8.4,10.1-5.7c2.1,2.7,6.2,15.9-3.9,24.7c-10.1,8.7-11,4.2-19.6,11.4
				c-8.5,7.2-13.4,24.4-21.1,30c-7.7,5.6-4.5-3.8-4.5-3.8L1360.3,478.3"/>
			
				<linearGradient id="neck-2_1_" gradientUnits="userSpaceOnUse" x1="1268.5706" y1="681.7469" x2="1274.6367" y2="642.7505" gradientTransform="matrix(1 0 0 1 0 -228)">
				<stop  offset="0" style="stop-color:#FFBEB6"/>
				<stop  offset="1" style="stop-color:#F2A19C"/>
			</linearGradient>
			<path id="neck-2_3_" class="st19" d="M1281.4,417.1c-0.9,4.9-1,10-0.5,15c0,0-6.7,5.4-17.3-4.3l5.4-18.1L1281.4,417.1"/>
			<path id="face-2_3_" class="st15" d="M1296.4,381.5c0.1,0.1,0.1,0.2,0.1,0.3c0,0,0,0,0,0.1c0.2,0.5,0.4,1,0.6,1.5
				c2.1,5.6,7.3,9.1,7.6,10.7c0.4,1.6-2.5,3.4-3.9,3.9c-1.5,0.5-1.5,8.3-6.6,14c-4.7,5.3-13.4,6.8-19.7,5c-5.1-11.8-6.7-20.6,4-28.9
				c11.6-9.1,11.2-14.9,11.2-14.9C1292.5,375.2,1294.8,378.2,1296.4,381.5z"/>
			
				<linearGradient id="hair-2_1_" gradientUnits="userSpaceOnUse" x1="1230.5428" y1="589.082" x2="1255.8439" y2="589.082" gradientTransform="matrix(1 0 0 1 0 -228)">
				<stop  offset="0" style="stop-color:#23286B"/>
				<stop  offset="0.3535" style="stop-color:#1E2361"/>
				<stop  offset="1" style="stop-color:#151A4F"/>
			</linearGradient>
			<circle id="hair-2_5_" class="st20" cx="1243.2" cy="361.1" r="12.7"/>
			<path id="eye_3_" class="st16" d="M1293,387c2,1.5,4.9,1.1,6.4-1c0.5-0.7,0.8-1.6,0.9-2.5c0-0.7-1-0.9-1.1-0.2
				c0,1.9-1.6,3.5-3.5,3.5c-0.7,0-1.4-0.2-2-0.6C1293.1,385.8,1292.4,386.6,1293,387L1293,387z"/>
			
				<linearGradient id="L_shoe-2_1_" gradientUnits="userSpaceOnUse" x1="-561.6008" y1="1055.1808" x2="-466.2249" y2="1055.1808" gradientTransform="matrix(-1 0 0 1 794.9644 -228)">
				<stop  offset="0" style="stop-color:#28306D"/>
				<stop  offset="0.51" style="stop-color:#1F275F"/>
				<stop  offset="1" style="stop-color:#171F51"/>
			</linearGradient>
			<path id="L_shoe-2_3_" class="st21" d="M1274.7,808.3h29.2c0,0,15.2,14.3,31.5,21.3c16.3,7,21.2,16.4,21.2,16.4l-95.4,0
				L1274.7,808.3"/>
			<path id="R_shoe-2_3_" class="st22" d="M1213,808.3l31,0c0,0,13.4,14.3,29.7,21.3c16.3,7,21.2,16.4,21.2,16.4l-95.4,0L1213,808.3
				"/>
			
				<linearGradient id="L_trousers-2_1_" gradientUnits="userSpaceOnUse" x1="1359.3529" y1="1016.5139" x2="1281.7711" y2="905.9186" gradientTransform="matrix(1 0 0 1 0 -228)">
				<stop  offset="0" style="stop-color:#A1C3FC"/>
				<stop  offset="0.6955" style="stop-color:#81AEF2"/>
				<stop  offset="1" style="stop-color:#78A9EF"/>
			</linearGradient>
			<path id="L_trousers-2_3_" class="st23" d="M1303.9,808.3l-29.2,0c-21.5-21.1-17.4-56.5-19-90c-1.6-33.5,0.8-20.2-3.5-51.9
				c-5.3-39.9-3.6-33.1-14-78.6c-2.7-11-4-22.2-3.9-33.5c0.1-1,0.2-2,0.3-2.9c2.8,0.2,5.8,0.3,8.9,0.3c15.1,0.1,30.1-2.3,44.4-7
				c1.8,16.1,5.1,46.1,5.2,46.7c1.1,7.6,1.8,12.1,4.1,25.2c0.2,1,0.3,2.1,0.4,3.2c1.9,18.5,4.4,47.8,4.9,72.9
				C1303,721.6,1303.9,808.3,1303.9,808.3z"/>
			
				<linearGradient id="SVGID_1_" gradientUnits="userSpaceOnUse" x1="1247.4711" y1="868.4135" x2="1225.2046" y2="680.0765" gradientTransform="matrix(1 0 0 1 0 -228)">
				<stop  offset="0" style="stop-color:#A1C3FC"/>
				<stop  offset="0.6955" style="stop-color:#81AEF2"/>
				<stop  offset="1" style="stop-color:#78A9EF"/>
			</linearGradient>
			<path class="st24" d="M1298.9,671.2c-2.4,23.2-54.9,137.1-54.9,137.1h-31c0,0,1.1-37.3,4.9-56.9c3.8-19.6,10.9-15.6,9.5-30.7
				c-1.4-15.2,1.9-25,8.1-41c6.1-16.1,20.4-23.6,1.4-76.7c-6.2-17.3-10.3-39.3-9.1-52.2c5.3,0.6,10.6,1,15.9,1
				c16,0.1,31.8-2.5,46.9-7.8l4.6,45.6c0.3,2.8,0.6,5.3,1,8.1C1299.3,620.4,1301.2,648,1298.9,671.2z"/>
			<path id="texture-2_3_" class="st11" d="M1231.9,563.6c0-0.1-0.2-0.2-0.3-0.1c-0.1,0-0.2,0.2-0.1,0.3c0,0.1,0.2,0.2,0.3,0.1l0,0
				C1231.9,563.8,1232,563.7,1231.9,563.6L1231.9,563.6z M1229.9,558.7c0-0.1-0.2-0.2-0.3-0.1c0,0,0,0,0,0c-0.1,0-0.2,0.2-0.1,0.3
				c0.1,0.1,0.2,0.2,0.3,0.1C1229.9,559,1230,558.8,1229.9,558.7C1229.9,558.7,1229.9,558.7,1229.9,558.7z M1227.9,553.9
				c-0.1-0.1-0.2-0.2-0.3-0.1c-0.1,0.1-0.2,0.2-0.1,0.3c0,0.1,0.2,0.2,0.3,0.1l0,0C1227.9,554.1,1227.9,554,1227.9,553.9
				L1227.9,553.9z M1239.4,555.1c-0.1-0.1-0.2-0.1-0.3,0c-0.1,0.1-0.1,0.2,0,0.3c0.1,0.1,0.2,0.1,0.3,0l0,0
				C1239.5,555.3,1239.5,555.1,1239.4,555.1C1239.4,555.1,1239.4,555.1,1239.4,555.1z M1260.4,564.6c-0.2-0.2-0.4-0.1-0.6,0
				c0,0,0,0,0,0c-0.1,0.2-0.1,0.4,0,0.6c0,0,0,0,0,0c0.2,0.2,0.4,0.1,0.6,0c0,0,0,0,0,0C1260.6,565,1260.6,564.7,1260.4,564.6
				C1260.4,564.6,1260.4,564.6,1260.4,564.6L1260.4,564.6z M1252.9,558c-0.2-0.1-0.4-0.1-0.6,0c0,0,0,0,0,0c-0.2,0.2-0.1,0.4,0,0.6
				s0.4,0.1,0.6,0c0,0,0,0,0,0C1253.1,558.4,1253,558.2,1252.9,558L1252.9,558z M1230.1,589.7c-0.2,0-0.4,0.2-0.4,0.4
				c0,0.2,0.2,0.4,0.4,0.4c0,0,0,0,0,0c0.2,0,0.4-0.2,0.4-0.4C1230.5,589.9,1230.3,589.7,1230.1,589.7L1230.1,589.7z M1229.4,579.8
				c-0.2,0-0.4,0.2-0.4,0.4l0,0c0,0.2,0.2,0.4,0.4,0.4s0.4-0.2,0.4-0.4c0,0,0,0,0,0C1229.8,579.9,1229.6,579.8,1229.4,579.8
				L1229.4,579.8z M1228.7,569.8c-0.2,0-0.4,0.2-0.4,0.5c0,0.2,0.2,0.4,0.4,0.4c0,0,0,0,0,0c0.2,0,0.4-0.2,0.4-0.4c0,0,0,0,0,0
				C1229.1,570,1228.9,569.8,1228.7,569.8L1228.7,569.8z M1249.7,579.8c-0.1-0.2-0.3-0.3-0.6-0.2c-0.2,0.1-0.3,0.3-0.2,0.6
				c0.1,0.2,0.3,0.3,0.6,0.2c0,0,0,0,0,0C1249.7,580.3,1249.8,580,1249.7,579.8L1249.7,579.8z M1245.2,570.9
				c-0.1-0.2-0.3-0.3-0.6-0.2c-0.2,0.1-0.3,0.3-0.2,0.6c0.1,0.2,0.3,0.3,0.6,0.2c0,0,0,0,0,0
				C1245.2,571.3,1245.3,571.1,1245.2,570.9L1245.2,570.9z M1240.8,562c-0.1-0.2-0.4-0.3-0.6-0.2c-0.2,0.1-0.3,0.4-0.2,0.6
				c0.1,0.2,0.3,0.3,0.5,0.2C1240.8,562.4,1240.9,562.2,1240.8,562L1240.8,562z M1236.3,553.1c-0.1-0.2-0.3-0.3-0.5-0.2
				c-0.2,0.1-0.3,0.3-0.2,0.5c0,0,0,0,0,0c0.1,0.2,0.3,0.3,0.5,0.2c0,0,0,0,0,0C1236.3,553.5,1236.4,553.3,1236.3,553.1
				C1236.3,553.1,1236.3,553.1,1236.3,553.1L1236.3,553.1z M1258.2,575.3c-0.1-0.2-0.3-0.2-0.5-0.1c-0.2,0.1-0.2,0.3-0.1,0.5l0,0
				c0.1,0.2,0.3,0.2,0.5,0.1S1258.3,575.4,1258.2,575.3L1258.2,575.3z M1253.5,567.7c-0.1-0.2-0.3-0.2-0.5-0.1
				c-0.2,0.1-0.2,0.3-0.1,0.5c0.1,0.2,0.3,0.2,0.5,0.1l0,0C1253.5,568.1,1253.6,567.9,1253.5,567.7
				C1253.5,567.7,1253.5,567.7,1253.5,567.7L1253.5,567.7z M1248.8,560.2c0-0.1-0.1-0.1-0.1-0.1l0,0c-0.1,0-0.2,0-0.3,0
				c-0.2,0.1-0.2,0.3-0.1,0.5c0,0,0,0,0,0c0.1,0.2,0.3,0.2,0.5,0.1c0.1,0,0.1-0.1,0.1-0.2C1248.9,560.4,1248.8,560.3,1248.8,560.2
				L1248.8,560.2z M1244.1,552.6c-0.1-0.2-0.3-0.2-0.5-0.1c-0.2,0.1-0.2,0.3-0.1,0.5c0.1,0.2,0.3,0.2,0.5,0.1
				C1244.1,553,1244.2,552.8,1244.1,552.6C1244.1,552.6,1244.1,552.6,1244.1,552.6L1244.1,552.6z M1227.1,555.3
				c-0.2,0-0.4,0.1-0.4,0.3c0,0.2,0.1,0.4,0.3,0.4c0.2,0,0.4-0.1,0.4-0.3C1227.4,555.5,1227.3,555.3,1227.1,555.3L1227.1,555.3z
				 M1261.7,554c-0.2-0.1-0.4-0.1-0.5,0.1c0,0,0,0,0,0c-0.1,0.2-0.1,0.4,0.1,0.5c0,0,0,0,0,0c0.2,0.1,0.4,0.1,0.5-0.1c0,0,0,0,0,0
				C1261.9,554.3,1261.9,554.1,1261.7,554L1261.7,554z M1240,577.3c-0.2,0-0.3,0.2-0.3,0.4c0,0.2,0.2,0.3,0.4,0.3
				c0.2,0,0.3-0.2,0.3-0.4C1240.4,577.4,1240.2,577.3,1240,577.3L1240,577.3z M1238.5,568.6c-0.2,0-0.3,0.2-0.3,0.4
				c0,0.2,0.2,0.3,0.4,0.3c0.2,0,0.3-0.2,0.3-0.4c0,0,0,0,0,0C1238.9,568.7,1238.7,568.5,1238.5,568.6L1238.5,568.6z M1237.1,559.8
				c-0.2,0-0.3,0.2-0.3,0.4c0,0,0,0,0,0c0,0.2,0.2,0.3,0.4,0.3c0.2,0,0.3-0.2,0.3-0.4C1237.5,559.9,1237.3,559.8,1237.1,559.8
				C1237.1,559.8,1237.1,559.8,1237.1,559.8L1237.1,559.8z M1257.5,553.4c-0.1-0.1-0.2-0.1-0.3,0c-0.1,0.1-0.1,0.2,0,0.3
				c0.1,0.1,0.2,0.1,0.3,0l0,0C1257.6,553.7,1257.6,553.5,1257.5,553.4L1257.5,553.4z M1236.7,561.1c-0.1,0-0.2,0.1-0.2,0.2
				c0,0.1,0.1,0.2,0.2,0.2c0.1,0,0.2-0.1,0.2-0.2l0,0C1236.9,561.2,1236.8,561.1,1236.7,561.1L1236.7,561.1L1236.7,561.1z
				 M1236.9,555.9c-0.1,0-0.2,0.1-0.2,0.2c0,0,0,0,0,0c0,0.1,0.1,0.2,0.2,0.2l0,0c0.1,0,0.2-0.1,0.2-0.2
				C1237.1,556,1237,555.9,1236.9,555.9C1236.9,555.9,1236.9,555.9,1236.9,555.9L1236.9,555.9z M1247.2,556.7c0-0.1-0.2-0.2-0.3-0.1
				c0,0,0,0,0,0c-0.1,0-0.2,0.2-0.1,0.3c0,0,0,0,0,0c0,0.1,0.2,0.2,0.3,0.1C1247.2,556.9,1247.3,556.8,1247.2,556.7L1247.2,556.7z
				 M1227,556.1c-0.1-0.1-0.2,0-0.3,0.1c0,0,0,0,0,0c0,0.1,0,0.2,0.1,0.3c0.1,0,0.2,0,0.3-0.1C1227.2,556.2,1227.1,556.1,1227,556.1
				z M1229.2,551.3c-0.1-0.1-0.2,0-0.3,0.1c0,0,0,0,0,0c-0.1,0.1,0,0.2,0.1,0.3c0,0,0,0,0,0c0.1,0.1,0.2,0,0.3-0.1
				C1229.4,551.5,1229.3,551.3,1229.2,551.3C1229.2,551.3,1229.2,551.3,1229.2,551.3L1229.2,551.3z M1261.3,558.6
				c-0.1-0.1-0.2-0.1-0.3-0.1c0,0,0,0,0,0c-0.1,0.1-0.2,0.2-0.1,0.3c0,0,0,0,0,0c0.1,0.1,0.2,0.1,0.3,0.1c0,0,0,0,0,0
				C1261.4,558.9,1261.4,558.7,1261.3,558.6L1261.3,558.6z M1258.1,553.6c-0.1-0.1-0.2-0.1-0.3-0.1c0,0,0,0,0,0
				c-0.1,0.1-0.2,0.2-0.1,0.3c0.1,0.1,0.2,0.2,0.3,0.1c0,0,0,0,0,0C1258.2,553.8,1258.2,553.7,1258.1,553.6
				C1258.1,553.6,1258.1,553.6,1258.1,553.6L1258.1,553.6z M1236.4,562.9c-0.1,0-0.3,0.1-0.3,0.2c0,0.1,0.1,0.3,0.2,0.3
				c0.1,0,0.2,0,0.3-0.2c0,0,0,0,0,0C1236.6,563.1,1236.5,562.9,1236.4,562.9L1236.4,562.9z M1237.7,557.1c-0.1,0-0.3,0.1-0.3,0.2
				c0,0.1,0.1,0.3,0.2,0.3c0.1,0,0.3,0,0.3-0.2v0C1237.9,557.2,1237.8,557.1,1237.7,557.1L1237.7,557.1z M1248.9,560.2
				c0-0.1-0.1-0.2-0.3-0.2c0,0,0,0,0,0l0,0c-0.1,0-0.2,0.2-0.2,0.3c0,0.1,0.1,0.2,0.3,0.2c0,0,0,0,0,0c0,0,0.1,0,0.1,0
				C1248.9,560.4,1248.9,560.3,1248.9,560.2L1248.9,560.2z M1247.6,554.1c-0.1,0-0.2,0.2-0.2,0.3c0,0.1,0.2,0.2,0.3,0.2
				c0.1,0,0.2-0.2,0.2-0.3c0,0,0,0,0,0C1247.8,554.2,1247.7,554.1,1247.6,554.1L1247.6,554.1z M1257.8,584.9c-0.2,0-0.4,0.3-0.4,0.5
				c0,0.2,0.3,0.4,0.5,0.3c0.2,0,0.4-0.3,0.4-0.5C1258.2,585,1258,584.8,1257.8,584.9L1257.8,584.9z M1256.2,574.7
				c-0.2,0-0.4,0.3-0.3,0.5c0,0.2,0.3,0.4,0.5,0.3c0.2,0,0.4-0.3,0.3-0.5C1256.6,574.8,1256.4,574.7,1256.2,574.7L1256.2,574.7z
				 M1254.6,564.6c-0.2,0-0.4,0.2-0.4,0.5s0.2,0.4,0.5,0.4c0,0,0,0,0,0c0.2,0,0.4-0.3,0.4-0.5C1255,564.7,1254.8,564.5,1254.6,564.6
				z M1253,554.4c-0.2,0-0.4,0.2-0.4,0.5c0,0,0,0,0,0c0,0.2,0.3,0.4,0.5,0.3c0.2,0,0.4-0.3,0.3-0.5
				C1253.4,554.6,1253.2,554.4,1253,554.4C1253,554.4,1253,554.4,1253,554.4L1253,554.4z M1266.1,555.7c-0.1-0.2-0.4-0.3-0.6-0.1
				c-0.2,0.1-0.3,0.4-0.1,0.6c0.1,0.2,0.4,0.3,0.6,0.1C1266.1,556.2,1266.2,555.9,1266.1,555.7L1266.1,555.7z M1237.8,579.4
				c-0.2-0.1-0.4,0.1-0.5,0.3c0,0,0,0,0,0c-0.1,0.2,0.1,0.5,0.3,0.5c0.2,0,0.5-0.1,0.5-0.3C1238.1,579.7,1238,579.5,1237.8,579.4
				C1237.8,579.4,1237.8,579.4,1237.8,579.4L1237.8,579.4z M1240.2,569.5c-0.2-0.1-0.4,0.1-0.5,0.3c0,0,0,0,0,0
				c-0.1,0.2,0.1,0.4,0.3,0.5l0,0c0.2,0.1,0.5-0.1,0.5-0.3v0C1240.6,569.8,1240.4,569.5,1240.2,569.5
				C1240.2,569.5,1240.2,569.5,1240.2,569.5L1240.2,569.5z M1242.6,559.5c-0.2,0-0.5,0.1-0.5,0.3c0,0.2,0.1,0.4,0.3,0.5
				c0.2,0.1,0.4-0.1,0.5-0.3c0,0,0,0,0,0C1243,559.8,1242.8,559.5,1242.6,559.5C1242.6,559.5,1242.6,559.5,1242.6,559.5z
				 M1244,582.8c-0.2,0-0.5,0.1-0.5,0.3c0,0.2,0.1,0.5,0.3,0.5s0.5-0.1,0.5-0.3C1244.4,583,1244.2,582.8,1244,582.8L1244,582.8
				L1244,582.8z M1246,572.7c-0.2,0-0.5,0.1-0.5,0.3c0,0.2,0.1,0.4,0.3,0.5c0.2,0,0.5-0.1,0.5-0.3
				C1246.3,573,1246.2,572.8,1246,572.7L1246,572.7z M1247.9,562.7c-0.2,0-0.4,0.1-0.5,0.3c0,0.2,0.1,0.4,0.3,0.5
				c0.2,0,0.5-0.1,0.5-0.3C1248.3,563,1248.2,562.7,1247.9,562.7L1247.9,562.7z M1249.9,552.7c-0.2,0-0.4,0.1-0.5,0.3c0,0,0,0,0,0
				c0,0.2,0.1,0.4,0.3,0.5c0.2,0,0.4-0.1,0.5-0.3c0,0,0,0,0,0C1250.3,552.9,1250.1,552.7,1249.9,552.7
				C1249.9,552.7,1249.9,552.7,1249.9,552.7L1249.9,552.7z M1263.1,567.2c-0.2,0-0.4,0.3-0.3,0.5c0.1,0.2,0.3,0.4,0.5,0.3
				c0.2,0,0.4-0.3,0.3-0.5c0,0,0,0,0,0C1263.5,567.3,1263.3,567.2,1263.1,567.2L1263.1,567.2z M1261.1,557.2
				c-0.2,0.1-0.4,0.3-0.3,0.5c0,0.2,0.3,0.4,0.5,0.3c0.2,0,0.4-0.3,0.3-0.5c0,0,0,0,0,0C1261.5,557.3,1261.3,557.1,1261.1,557.2
				C1261.1,557.2,1261.1,557.2,1261.1,557.2L1261.1,557.2z M1232.6,561.5c-0.2-0.1-0.4-0.1-0.6,0.1c0,0,0,0,0,0
				c-0.1,0.2-0.1,0.5,0.1,0.6c0.2,0.1,0.5,0.1,0.6-0.1C1232.9,561.9,1232.8,561.6,1232.6,561.5
				C1232.6,561.5,1232.6,561.5,1232.6,561.5L1232.6,561.5z M1238.3,553c-0.2-0.1-0.5-0.1-0.6,0.1c-0.1,0.2-0.1,0.5,0.1,0.6
				c0.2,0.1,0.5,0.1,0.6-0.1C1238.5,553.4,1238.5,553.1,1238.3,553C1238.3,553,1238.3,553,1238.3,553L1238.3,553z M1243.9,565.2
				c-0.2-0.1-0.3,0-0.4,0.1c0,0,0,0,0,0c-0.1,0.2,0,0.4,0.2,0.4c0.2,0.1,0.4,0,0.4-0.2C1244.2,565.5,1244.1,565.3,1243.9,565.2z
				 M1247,558.1c-0.2-0.1-0.3,0-0.4,0.2c0,0,0,0,0,0c-0.1,0.2,0,0.4,0.2,0.4c0.2,0.1,0.4,0,0.4-0.2
				C1247.2,558.4,1247.1,558.2,1247,558.1L1247,558.1z M1260.1,564.5c-0.2,0-0.3,0.1-0.3,0.3c0,0,0,0,0,0c0,0.2,0.1,0.3,0.3,0.3
				c0.2,0,0.3-0.1,0.3-0.3C1260.4,564.7,1260.3,564.5,1260.1,564.5C1260.1,564.5,1260.1,564.5,1260.1,564.5z M1260.2,556.8
				c-0.2,0-0.3,0.1-0.3,0.3c0,0,0,0,0,0c0,0.2,0.1,0.3,0.3,0.3c0,0,0,0,0,0c0.2,0,0.3-0.1,0.3-0.3
				C1260.5,556.9,1260.4,556.8,1260.2,556.8C1260.2,556.8,1260.2,556.8,1260.2,556.8L1260.2,556.8z M1233.1,553.2
				c-0.1-0.1-0.3-0.1-0.4,0c0,0,0,0,0,0c-0.1,0.1-0.1,0.3,0,0.4c0,0,0,0,0,0c0.1,0.1,0.3,0.1,0.4,0
				C1233.3,553.5,1233.3,553.3,1233.1,553.2L1233.1,553.2z M1257.4,554.2c-0.1-0.1-0.3,0-0.4,0.1c0,0,0,0,0,0
				c-0.1,0.1-0.1,0.3,0.1,0.4c0,0,0,0,0,0c0.1,0.1,0.3,0.1,0.4-0.1l0,0C1257.5,554.5,1257.5,554.3,1257.4,554.2
				C1257.4,554.2,1257.4,554.2,1257.4,554.2L1257.4,554.2z"/>
			
				<linearGradient id="sweater-2_1_" gradientUnits="userSpaceOnUse" x1="1218.5199" y1="693.3346" x2="1370.696" y2="847.9651" gradientTransform="matrix(1 0 0 1 0 -228)">
				<stop  offset="0" style="stop-color:#23286B"/>
				<stop  offset="0.3535" style="stop-color:#1E2361"/>
				<stop  offset="1" style="stop-color:#151A4F"/>
			</linearGradient>
			<path id="sweater-2_3_" class="st25" d="M1307.2,536.9c-19.7,9.9-41.5,15-63.6,14.9c-24.4-0.1-40.6-6.5-40.6-6.5
				s-4.7-15.7,6.1-34.3c17.9-31.1,6.4-14.1,19.8-41c5-9.6,11.2-18.6,18.4-26.8c5-5.6,10.5-10.8,16.4-15.5l0,0
				c8.9,8.1,15.1,5.6,16.8,4.6c0.1,2.2,0.2,4.3,0.4,6.5c2.3,29.2,12.8,58.8,18.9,77.4c0.3,1,0.7,2.1,1,3.1
				C1304.4,530.3,1307.2,536.9,1307.2,536.9z"/>
			
				<linearGradient id="R_sleeve-3_2_" gradientUnits="userSpaceOnUse" x1="1303.4481" y1="724.2239" x2="1461.3464" y2="807.6727" gradientTransform="matrix(1 0 0 1 0 -228)">
				<stop  offset="0" style="stop-color:#23286B"/>
				<stop  offset="0.3535" style="stop-color:#1E2361"/>
				<stop  offset="1" style="stop-color:#151A4F"/>
			</linearGradient>
			<path id="R_sleeve-3_1_" class="st26" d="M1385,527.1c0,0-19.5,20.8-38.5,16.5c-17.4-3.9-18.9,0.8-27.1,2.6
				c-0.8,0.2-1.6,0.4-2.4,0.6c-9.4,2.5-31.8,2.7-44.5-26.2c-12.4-28-16.1-52.1-8.7-92.7c10.6,9.5,17.2,4.2,17.2,4.2
				c0-0.4-0.1-0.9-0.1-1.3c2.3,4.4,13.5,25.2,24.4,40c12.2,16.6,16.1,18.5,33.2,13.9c2.8-0.8,5.5-1.5,7.9-2.2
				c9.3-2.7,15.2-4.6,15.2-4.6L1385,527.1z"/>
			<path id="hair-3_3_" class="st8" d="M1296.5,381.8c-2.3-19.9-21.2-20.7-35.7-17.7c-7.6,1.6-12.5,5.1-15.6,9.1
				c-5.8,2.1-12.3-0.5-14.9-6.1c-0.3-0.5-1.1-0.1-0.8,0.5c2.7,5.5,8.9,8.4,14.8,6.8c-2,3.1-3.2,6.7-3.4,10.3
				c-0.2,4.1-0.9,12-5.5,18.6s-4.6,18.4-4.6,18.4c22,8.2,50.5-3.2,50.5-3.2c0.4-13.2-6.8-17.3-3.3-24.4c-0.5,1.8-0.6,3.7-0.2,5.5
				c1.4,6.5,8.2,11.6,5.2,18.8c-0.2,0.5,0.7,0.8,0.9,0.2c1.4-3.4,0.9-6.4-0.6-9.7c-1.1-2.4-2.7-4.6-3.7-7.1
				c-1.5-3.8-1.1-8.2,1.2-11.6c9.7-11,8.9-17.3,8.9-17.3C1292.6,375.3,1294.9,378.4,1296.5,381.8z"/>
		</g>
	</g>
</g>
</svg>
