<?xml version="1.0" encoding="utf-8"?>
<!-- Generator: Adobe Illustrator 23.0.0, SVG Export Plug-In . SVG Version: 6.00 Build 0)  -->
<svg version="1.1" id="레이어_1" xmlns="http://www.w3.org/2000/svg" xmlns:xlink="http://www.w3.org/1999/xlink" x="0px"
	 y="0px" width="1920px" height="950px" viewBox="0 0 1920 950" style="enable-background:new 0 0 1920 950;" xml:space="preserve">
<style type="text/css">
	.st0{fill:#E2D7DA;}
	.st1{fill:url(#R_hand_1_);}
	.st2{fill:url(#SVGID_1_);}
	.st3{fill:url(#SVGID_2_);}
	.st4{fill:url(#SVGID_3_);}
	.st5{fill:url(#SVGID_4_);}
	.st6{fill:url(#SVGID_5_);}
	.st7{fill:url(#SVGID_6_);}
	.st8{fill:url(#SVGID_7_);}
	.st9{fill:url(#SVGID_8_);}
	.st10{fill:url(#SVGID_9_);}
	.st11{fill:url(#R_sleeve_1_);}
	.st12{fill:#E94A47;}
	.st13{fill:#428DFC;}
	.st14{fill:url(#circle_2_);}
	.st15{fill:url(#square_1_);}
	.st16{fill:url(#R_shoe_1_);}
	.st17{fill:url(#R_trousers_1_);}
	.st18{fill:url(#L_trousers_1_);}
	.st19{opacity:0.86;fill:#FFFFFF;enable-background:new    ;}
	.st20{fill:url(#neck_1_);}
	.st21{fill:#FFCFCA;}
	.st22{fill:url(#sweater_1_);}
	.st23{fill:#A1C3FC;}
	.st24{fill:url(#hair_1_);}
	.st25{fill:#1C2868;}
	.st26{fill:#23286B;}
</style>
<g>
	<ellipse class="st0" cx="889.5" cy="859.7" rx="101.3" ry="20.8"/>
	<g>
		
			<linearGradient id="R_hand_1_" gradientUnits="userSpaceOnUse" x1="1583.4059" y1="600.1826" x2="1605.5953" y2="627.0361" gradientTransform="matrix(1 0 0 1 -770.087 -228)">
			<stop  offset="0" style="stop-color:#FFBEB6"/>
			<stop  offset="1" style="stop-color:#F2A19C"/>
		</linearGradient>
		<path id="R_hand_3_" class="st1" d="M810.9,369.6c-4-6.1-3.6-6.8-1.5-10.1c2-3,4.3-5.9,6.9-8.5c1.2-1.1,0.6-3.4-2.9-1.9
			c-3.5,1.5-4.2,7.1-6.7,5.5c-2.4-1.5-4.8-8.6-6-14.1c-1.2-5.4-2-8.4-7.3-1.9c-5.3,6.5-7.7,13.2,2.7,26.6
			c6.8,8.4,11.3,18.4,13.1,29.1l11.1-11.7C816.9,378.5,813.7,374.1,810.9,369.6z"/>
		<g id="geometry_2_">
			<g id="ladder_1_">
				
					<linearGradient id="SVGID_1_" gradientUnits="userSpaceOnUse" x1="1521.5001" y1="922.2679" x2="1566.6996" y2="922.2679" gradientTransform="matrix(1 0 0 1 -770.087 -228)">
					<stop  offset="8.979999e-02" style="stop-color:#EEEEEE"/>
					<stop  offset="0.8178" style="stop-color:#D6D7D8"/>
				</linearGradient>
				<polygon class="st2" points="751.9,860 783.7,528.5 796.6,528.5 796.6,532.8 787.6,532.8 756.2,860 				"/>
				
					<linearGradient id="SVGID_2_" gradientUnits="userSpaceOnUse" x1="1561.6841" y1="922.2679" x2="1723.0264" y2="922.2679" gradientTransform="matrix(1 0 0 1 -770.087 -228)">
					<stop  offset="8.979999e-02" style="stop-color:#EEEEEE"/>
					<stop  offset="0.8178" style="stop-color:#D6D7D8"/>
				</linearGradient>
				<polygon class="st3" points="834.8,860 791.6,528.5 894.6,528.5 894.9,530.3 952.6,860 948.2,860 891,532.8 796.5,532.8 
					839.1,860 				"/>
				<g>
					
						<linearGradient id="SVGID_3_" gradientUnits="userSpaceOnUse" x1="1575.7399" y1="833.3116" x2="1674.1135" y2="833.3116" gradientTransform="matrix(1 0 0 1 -770.087 -228)">
						<stop  offset="8.979999e-02" style="stop-color:#EEEEEE"/>
						<stop  offset="0.8178" style="stop-color:#D6D7D8"/>
					</linearGradient>
					<polygon class="st4" points="903.3,603.2 805.7,603.2 806.2,607.5 904,607.5 					"/>
					
						<linearGradient id="SVGID_4_" gradientUnits="userSpaceOnUse" x1="1581.1669" y1="875.0505" x2="1681.4163" y2="875.0505" gradientTransform="matrix(1 0 0 1 -770.087 -228)">
						<stop  offset="8.979999e-02" style="stop-color:#EEEEEE"/>
						<stop  offset="0.8178" style="stop-color:#D6D7D8"/>
					</linearGradient>
					<polygon class="st5" points="910.6,644.9 811.1,644.9 811.6,649.2 911.3,649.2 					"/>
					
						<linearGradient id="SVGID_5_" gradientUnits="userSpaceOnUse" x1="1586.6226" y1="916.947" x2="1688.7478" y2="916.947" gradientTransform="matrix(1 0 0 1 -770.087 -228)">
						<stop  offset="8.979999e-02" style="stop-color:#EEEEEE"/>
						<stop  offset="0.8178" style="stop-color:#D6D7D8"/>
					</linearGradient>
					<polygon class="st6" points="917.9,686.8 816.5,686.8 817.1,691.1 918.7,691.1 					"/>
					
						<linearGradient id="SVGID_6_" gradientUnits="userSpaceOnUse" x1="1592.0638" y1="958.6858" x2="1696.0505" y2="958.6858" gradientTransform="matrix(1 0 0 1 -770.087 -228)">
						<stop  offset="8.979999e-02" style="stop-color:#EEEEEE"/>
						<stop  offset="0.8178" style="stop-color:#D6D7D8"/>
					</linearGradient>
					<polygon class="st7" points="925.2,728.5 822,728.5 822.5,732.8 926,732.8 					"/>
					
						<linearGradient id="SVGID_7_" gradientUnits="userSpaceOnUse" x1="1570.0408" y1="791.4581" x2="1666.7819" y2="791.4581" gradientTransform="matrix(1 0 0 1 -770.087 -228)">
						<stop  offset="8.979999e-02" style="stop-color:#EEEEEE"/>
						<stop  offset="0.8178" style="stop-color:#D6D7D8"/>
					</linearGradient>
					<polygon class="st8" points="896,561.3 800,561.3 800.5,565.6 896.7,565.6 					"/>
					
						<linearGradient id="SVGID_8_" gradientUnits="userSpaceOnUse" x1="1597.5195" y1="1000.5966" x2="1703.3821" y2="1000.5966" gradientTransform="matrix(1 0 0 1 -770.087 -228)">
						<stop  offset="8.979999e-02" style="stop-color:#EEEEEE"/>
						<stop  offset="0.8178" style="stop-color:#D6D7D8"/>
					</linearGradient>
					<polygon class="st9" points="932.6,770.4 827.4,770.4 828,774.7 933.3,774.7 					"/>
					
						<linearGradient id="SVGID_9_" gradientUnits="userSpaceOnUse" x1="1602.9609" y1="1042.3354" x2="1710.6849" y2="1042.3354" gradientTransform="matrix(1 0 0 1 -770.087 -228)">
						<stop  offset="8.979999e-02" style="stop-color:#EEEEEE"/>
						<stop  offset="0.8178" style="stop-color:#D6D7D8"/>
					</linearGradient>
					<polygon class="st10" points="939.9,812.2 832.9,812.2 833.4,816.5 940.6,816.5 					"/>
				</g>
			</g>
			
				<linearGradient id="R_sleeve_1_" gradientUnits="userSpaceOnUse" x1="1609.8269" y1="610.5281" x2="1604.934" y2="661.6331" gradientTransform="matrix(1 0 0 1 -770.087 -228)">
				<stop  offset="0" style="stop-color:#A1C3FC"/>
				<stop  offset="0.6955" style="stop-color:#81AEF2"/>
				<stop  offset="1" style="stop-color:#78A9EF"/>
			</linearGradient>
			<path id="R_sleeve_3_" class="st11" d="M885.7,356.9l-22,12.8c18.2,18.8,19.1,64.5-7.1,69.5c-17.1,3.3-27.2-4.8-31.3-8.9
				s-7.2-5.8-17.7-8.9c-10.5-3-13.8-14.1-13.8-14.1l27.1-28.8c0,0,1.1,2.1,8.5,9.6c7.3,7.6,10.1,8.7,20.2,2.9s5.4-11.8,5.4-11.8"/>
			<polygon id="triangle_1_" class="st12" points="824.6,457.4 568.2,311 809.8,184.6 			"/>
			<path id="half_a_circle_1_" class="st13" d="M442.4,627.4c35.9,66.9,19.1,150-40.1,197.5c-67.8,54.6-167,43.8-221.5-24.1
				L442.4,627.4z"/>
			
				<linearGradient id="circle_2_" gradientUnits="userSpaceOnUse" x1="1433.4197" y1="678.0436" x2="1365.005" y2="1011.6968" gradientTransform="matrix(1 0 0 1 -770.087 -228)">
				<stop  offset="8.979999e-02" style="stop-color:#EEEEEE"/>
				<stop  offset="0.8178" style="stop-color:#D6D7D8"/>
			</linearGradient>
			<ellipse id="circle_1_" class="st14" cx="651.3" cy="508.5" rx="122.1" ry="122.1"/>
			
				<linearGradient id="square_1_" gradientUnits="userSpaceOnUse" x1="1389.9154" y1="888.3707" x2="1509.67" y2="1210.7009" gradientTransform="matrix(1 0 0 1 -770.087 -228)">
				<stop  offset="0" style="stop-color:#23286B"/>
				<stop  offset="1" style="stop-color:#151A4F"/>
			</linearGradient>
			<rect id="square_2_" x="536.9" y="630.7" class="st15" width="229" height="229.1"/>
		</g>
		<g id="woman_2_">
			
				<linearGradient id="R_shoe_1_" gradientUnits="userSpaceOnUse" x1="1589.8113" y1="802.053" x2="1627.8519" y2="825.3798" gradientTransform="matrix(1 0 0 1 -770.087 -228)">
				<stop  offset="0.1291" style="stop-color:#428DFC"/>
				<stop  offset="0.9987" style="stop-color:#1D72D8"/>
			</linearGradient>
			<path id="R_shoe_3_" class="st16" d="M874.7,575.2h-21.6c0,0-11.3,10.6-23.4,15.8S814,603.2,814,603.2l70.7,0L874.7,575.2"/>
			<path id="L_shoe_3_" class="st13" d="M898.1,615.3l-22.9,0c0,0-11.9,11.2-24.7,16.7c-12.8,5.5-16.6,12.9-16.6,12.9l74.9,0
				L898.1,615.3"/>
			
				<linearGradient id="R_trousers_1_" gradientUnits="userSpaceOnUse" x1="1542.5546" y1="735.4023" x2="1613.197" y2="730.3864" gradientTransform="matrix(1 0 0 1 -770.087 -228)">
				<stop  offset="0" style="stop-color:#23286B"/>
				<stop  offset="1" style="stop-color:#151A4F"/>
			</linearGradient>
			<path id="R_trousers_3_" class="st17" d="M889.4,426.4c-12.4,47.8-24.9,45.1-32.5,62.4c-7.5,17.4,4.1,24.5,5.3,35.1
				c1.1,10.6,4.5,8.7,9,23c2.7,9.2,3.2,18.9,1.5,28.3h-19.6c0,0-16.1-40.2-23.6-56.8c-9.4-21-7.8-29.3-2.1-44.7
				c5.6-15,16.1-46.3,16.1-46.3L889.4,426.4z"/>
			
				<linearGradient id="L_trousers_1_" gradientUnits="userSpaceOnUse" x1="1607.4927" y1="755.2751" x2="1668.2268" y2="755.2751" gradientTransform="matrix(1 0 0 1 -770.087 -228)">
				<stop  offset="0" style="stop-color:#23286B"/>
				<stop  offset="1" style="stop-color:#151A4F"/>
			</linearGradient>
			<path id="L_trousers_3_" class="st18" d="M894.7,575.5c-2.7-13.7-7.6-10.9-6.6-21.5c1-10.6-1.3-17.5-5.6-28.7
				c-4.3-11.2-14.2-16.5-1-53.6c4.9-13.8,6.5-24.5,6.6-32.6c-2.9,0.3-6.1,0.5-9.4,0.5c-3.3,0.3-15.6,0.4-16.7,0.4
				c-6.6-0.3-13.1-0.2-19.7,0.2c-0.3,1.9-1.9,25.8-2.1,27.8c-2.3,15.9-3.6,35.2-2,51.4c1.7,16.2,37.1,95.9,37.1,95.9h22.9
				C898.1,615.3,897.4,589.2,894.7,575.5z"/>
			<path id="texture_3_" class="st19" d="M862.5,461.9c0-0.1,0-0.2-0.1-0.2c-0.1,0-0.2,0-0.2,0.1c0,0.1,0,0.2,0.1,0.2l0,0
				C862.4,462,862.5,461.9,862.5,461.9L862.5,461.9z M863.3,458.1c0-0.1,0-0.2-0.1-0.2c0,0,0,0,0,0c-0.1,0-0.2,0-0.2,0.1
				c0,0.1,0,0.2,0.1,0.2C863.2,458.2,863.3,458.2,863.3,458.1L863.3,458.1z M849.1,452.6c-0.1-0.1-0.1-0.1-0.2,0
				c-0.1,0-0.1,0.1-0.1,0.2c0,0,0,0,0,0c0.1,0.1,0.1,0.1,0.2,0C849.1,452.8,849.1,452.7,849.1,452.6
				C849.1,452.6,849.1,452.6,849.1,452.6L849.1,452.6z M870.5,459.8c0-0.1-0.1-0.1-0.2-0.1c-0.1,0-0.1,0.1-0.1,0.2
				c0,0.1,0.1,0.1,0.2,0.1l0,0C870.5,459.9,870.6,459.9,870.5,459.8C870.5,459.8,870.5,459.8,870.5,459.8z M856,456.8
				c-0.1-0.1-0.2,0-0.2,0c-0.1,0.1,0,0.2,0,0.2c0.1,0.1,0.2,0,0.2,0C856.1,457,856.1,456.9,856,456.8z M879.3,474.2
				c0-0.2-0.2-0.3-0.4-0.2c0,0,0,0,0,0c-0.2,0-0.3,0.2-0.2,0.4c0,0,0,0,0,0c0,0.2,0.2,0.3,0.4,0.2c0,0,0,0,0,0
				C879.3,474.6,879.4,474.4,879.3,474.2C879.3,474.2,879.3,474.2,879.3,474.2z M877.5,467.2c0-0.2-0.2-0.3-0.4-0.2c0,0,0,0,0,0
				c-0.2,0-0.3,0.2-0.2,0.4c0,0.2,0.2,0.3,0.4,0.2l0,0C877.4,467.5,877.5,467.3,877.5,467.2L877.5,467.2z M850.6,476.9
				c-0.1-0.1-0.3,0-0.4,0.1c-0.1,0.1,0,0.3,0.1,0.4c0,0,0,0,0,0c0.1,0.1,0.3,0,0.4-0.1C850.8,477.2,850.8,477,850.6,476.9
				L850.6,476.9L850.6,476.9z M854.3,470.6c-0.1-0.1-0.3,0-0.4,0.1l0,0c-0.1,0.1,0,0.3,0.1,0.4c0.1,0.1,0.3,0,0.4-0.1
				C854.5,470.9,854.4,470.7,854.3,470.6L854.3,470.6z M858,464.3c-0.1-0.1-0.3,0-0.4,0.1c-0.1,0.1,0,0.3,0.1,0.4c0,0,0,0,0,0
				c0.1,0.1,0.3,0,0.4-0.1c0,0,0,0,0,0C858.2,464.6,858.1,464.4,858,464.3L858,464.3z M861.7,458c-0.1-0.1-0.3,0-0.4,0.1l0,0
				c-0.1,0.1,0,0.3,0.1,0.4c0.1,0.1,0.3,0,0.4-0.1C861.9,458.3,861.8,458.1,861.7,458C861.7,458,861.7,458,861.7,458z M866.5,479
				c0-0.2-0.1-0.3-0.3-0.4s-0.3,0.1-0.4,0.3c0,0.2,0.1,0.3,0.3,0.4c0,0,0,0,0,0C866.4,479.3,866.5,479.2,866.5,479L866.5,479z
				 M867.5,471.8c0-0.2-0.1-0.3-0.3-0.4c-0.2,0-0.3,0.1-0.4,0.3c0,0.2,0.1,0.3,0.3,0.4c0,0,0,0,0,0
				C867.4,472.1,867.5,471.9,867.5,471.8L867.5,471.8z M868.5,464.6c0-0.2-0.1-0.3-0.3-0.3c-0.2,0-0.3,0.1-0.3,0.3
				c0,0.2,0.1,0.3,0.3,0.3C868.3,464.8,868.5,464.7,868.5,464.6L868.5,464.6z M842.3,464.9c-0.1-0.1-0.3-0.2-0.4-0.1c0,0,0,0,0,0
				c-0.1,0.1-0.2,0.3-0.1,0.4c0,0,0,0,0,0c0.1,0.1,0.3,0.2,0.4,0.1C842.3,465.2,842.4,465,842.3,464.9L842.3,464.9z M848.1,460.5
				c-0.1-0.1-0.3-0.2-0.4-0.1c0,0,0,0,0,0c-0.1,0.1-0.2,0.3-0.1,0.4c0.1,0.1,0.3,0.2,0.4,0.1C848.1,460.8,848.2,460.6,848.1,460.5
				C848.1,460.5,848.1,460.5,848.1,460.5L848.1,460.5z M853.9,456.1c-0.1-0.1-0.3-0.2-0.4-0.1c-0.1,0.1-0.2,0.3-0.1,0.4c0,0,0,0,0,0
				c0.1,0.1,0.3,0.2,0.4,0.1c0,0,0,0,0,0C854,456.4,854,456.2,853.9,456.1L853.9,456.1z M873.6,479.8c0-0.1-0.1-0.3-0.3-0.3
				c-0.1,0-0.3,0.1-0.3,0.3l0,0c0,0.1,0.1,0.3,0.3,0.3C873.5,480.1,873.6,479.9,873.6,479.8z M873.8,473.3c0-0.1-0.1-0.3-0.3-0.3
				c-0.1,0-0.3,0.1-0.3,0.3s0.1,0.3,0.3,0.3C873.7,473.6,873.8,473.4,873.8,473.3C873.8,473.3,873.8,473.3,873.8,473.3L873.8,473.3z
				 M874.1,466.8c0-0.1,0-0.1,0-0.1l0,0c0-0.1-0.1-0.1-0.2-0.1c-0.2,0-0.3,0.1-0.3,0.3c0,0,0,0,0,0c0,0.1,0.1,0.3,0.3,0.3
				c0.1,0,0.1,0,0.2-0.1C874.1,466.9,874.1,466.9,874.1,466.8L874.1,466.8z M848.6,468.1c-0.1-0.1-0.3-0.1-0.4,0c0,0,0,0,0,0
				c-0.1,0.1-0.1,0.3,0,0.4c0,0,0,0,0,0c0.1,0.1,0.3,0.1,0.4,0C848.7,468.4,848.7,468.2,848.6,468.1L848.6,468.1z M853.4,463.7
				c-0.1-0.1-0.3-0.1-0.4,0c0,0,0,0,0,0c-0.1,0.1-0.1,0.3,0,0.4c0,0,0,0,0,0c0.1,0.1,0.3,0.1,0.4,0
				C853.5,463.9,853.5,463.8,853.4,463.7L853.4,463.7z M858.2,459.3c-0.1-0.1-0.3-0.1-0.4,0c0,0,0,0,0,0c-0.1,0.1-0.1,0.2,0,0.4
				c0,0,0,0,0,0c0.1,0.1,0.3,0.1,0.4,0c0,0,0,0,0,0C858.3,459.5,858.3,459.4,858.2,459.3L858.2,459.3z M882.3,462.3
				c-0.1-0.1-0.2-0.2-0.4-0.2c-0.1,0.1-0.2,0.2-0.2,0.4c0.1,0.1,0.2,0.2,0.4,0.1C882.2,462.5,882.3,462.4,882.3,462.3z M861.7,473.5
				c-0.1-0.1-0.3,0-0.4,0.1c-0.1,0.1,0,0.3,0.1,0.4c0.1,0.1,0.3,0,0.4-0.1C861.9,473.8,861.8,473.6,861.7,473.5L861.7,473.5z
				 M864.4,467.6c-0.1-0.1-0.3,0-0.4,0.1c-0.1,0.1,0,0.3,0.1,0.4c0.1,0.1,0.3,0,0.3-0.1c0,0,0,0,0,0
				C864.6,467.8,864.6,467.7,864.4,467.6L864.4,467.6z M867.2,461.7c-0.1-0.1-0.3,0-0.3,0.1c0,0,0,0,0,0c-0.1,0.1,0,0.3,0.1,0.4
				c0.1,0.1,0.3,0,0.4-0.1l0,0C867.4,461.9,867.3,461.8,867.2,461.7C867.2,461.7,867.2,461.7,867.2,461.7L867.2,461.7z M844.8,455.5
				c-0.1-0.1-0.2-0.2-0.3-0.2c-0.1,0.1-0.2,0.2-0.2,0.3c0,0,0,0,0,0c0,0.1,0.2,0.2,0.3,0.2c0,0,0,0,0,0
				C844.8,455.8,844.9,455.6,844.8,455.5C844.8,455.5,844.8,455.5,844.8,455.5L844.8,455.5z M850.9,453.2c-0.1-0.1-0.2-0.2-0.4-0.1
				c-0.1,0.1-0.2,0.2-0.2,0.3c0.1,0.1,0.2,0.2,0.4,0.2C850.9,453.5,851,453.4,850.9,453.2C850.9,453.2,850.9,453.2,850.9,453.2
				L850.9,453.2z M882.2,466.3c0-0.1-0.1-0.1-0.2-0.1c-0.1,0-0.1,0.1-0.1,0.2c0,0.1,0.1,0.1,0.2,0.1l0,0
				C882.1,466.5,882.2,466.4,882.2,466.3L882.2,466.3z M881.6,462.5c0-0.1-0.1-0.1-0.2-0.1c-0.1,0-0.1,0.1-0.1,0.2
				c0,0.1,0.1,0.1,0.2,0.1C881.6,462.7,881.6,462.6,881.6,462.5L881.6,462.5z M866.4,462.3c-0.1-0.1-0.2,0-0.2,0
				c-0.1,0.1,0,0.2,0,0.2c0.1,0.1,0.2,0,0.2,0C866.5,462.5,866.5,462.4,866.4,462.3L866.4,462.3L866.4,462.3z M868.7,459.2
				c-0.1-0.1-0.2,0-0.2,0c0,0,0,0,0,0c-0.1,0.1,0,0.2,0,0.2l0,0c0.1,0.1,0.2,0,0.2,0C868.8,459.4,868.8,459.3,868.7,459.2
				C868.7,459.2,868.7,459.2,868.7,459.2L868.7,459.2z M874.6,464c0-0.1,0-0.2-0.1-0.2c0,0,0,0,0,0c-0.1,0-0.2,0-0.2,0.1
				c0,0,0,0,0,0c0,0.1,0,0.2,0.1,0.2C874.5,464.2,874.6,464.1,874.6,464L874.6,464z M882.4,471c0-0.1-0.1-0.2-0.2-0.2c0,0,0,0,0,0
				c-0.1,0-0.2,0.1-0.2,0.2c0,0,0,0,0,0c0,0.1,0.1,0.2,0.2,0.2c0,0,0,0,0,0C882.3,471.2,882.4,471.1,882.4,471L882.4,471z
				 M882.5,466.6c0-0.1-0.1-0.2-0.2-0.2c0,0,0,0,0,0c-0.1,0-0.2,0.1-0.2,0.2c0,0.1,0.1,0.2,0.2,0.2
				C882.4,466.8,882.5,466.7,882.5,466.6C882.5,466.6,882.5,466.6,882.5,466.6L882.5,466.6z M882.6,462.2c0-0.1-0.1-0.2-0.2-0.2
				c-0.1,0-0.2,0.1-0.2,0.2c0,0,0,0,0,0c0,0.1,0.1,0.2,0.2,0.2C882.5,462.4,882.6,462.3,882.6,462.2L882.6,462.2z M865.5,463.3
				c-0.1-0.1-0.2-0.1-0.3,0c-0.1,0.1-0.1,0.2,0,0.3c0.1,0.1,0.2,0.1,0.2,0c0,0,0,0,0,0C865.5,463.5,865.6,463.4,865.5,463.3
				C865.5,463.3,865.5,463.3,865.5,463.3L865.5,463.3z M868.7,460.3c-0.1-0.1-0.2-0.1-0.3,0c-0.1,0.1-0.1,0.2,0,0.3
				c0.1,0.1,0.2,0.1,0.3,0c0,0,0,0,0,0C868.7,460.5,868.7,460.4,868.7,460.3L868.7,460.3z M874.2,466.9c0-0.1,0-0.2-0.1-0.2
				c0,0,0,0,0,0l0,0c-0.1,0-0.2,0-0.2,0.1c0,0.1,0,0.2,0.1,0.2c0,0,0,0,0,0c0,0,0.1,0,0.1,0C874.1,467,874.2,466.9,874.2,466.9
				L874.2,466.9z M875.9,462.6c-0.1,0-0.2,0-0.2,0.1c0,0.1,0,0.2,0.1,0.2c0.1,0,0.2,0,0.2-0.1c0,0,0,0,0,0
				C876,462.8,876,462.7,875.9,462.6L875.9,462.6z M869.4,485.4c-0.2-0.1-0.3,0-0.4,0.1c-0.1,0.2,0,0.3,0.2,0.4
				c0.2,0.1,0.3,0,0.4-0.1C869.6,485.7,869.5,485.5,869.4,485.4L869.4,485.4z M872.6,478.6c-0.2-0.1-0.3,0-0.4,0.2
				c-0.1,0.2,0,0.3,0.2,0.4c0.2,0.1,0.3,0,0.4-0.2C872.8,478.9,872.7,478.7,872.6,478.6L872.6,478.6z M875.8,471.8
				c-0.2-0.1-0.3,0-0.4,0.1c-0.1,0.2,0,0.3,0.1,0.4c0,0,0,0,0,0c0.2,0.1,0.3,0,0.4-0.1C876,472.1,876,471.9,875.8,471.8L875.8,471.8
				z M879,465c-0.2-0.1-0.3,0-0.4,0.1c0,0,0,0,0,0c-0.1,0.2,0,0.3,0.2,0.4c0.2,0.1,0.3,0,0.4-0.2C879.3,465.3,879.2,465.1,879,465
				C879,465,879,465,879,465L879,465z M848.3,462.1c-0.1-0.2-0.2-0.2-0.4-0.2c-0.2,0.1-0.2,0.2-0.2,0.4c0.1,0.2,0.2,0.2,0.4,0.2
				C848.3,462.4,848.4,462.3,848.3,462.1L848.3,462.1z M855.4,459.6c-0.1-0.2-0.2-0.2-0.4-0.2c-0.2,0.1-0.2,0.2-0.2,0.4c0,0,0,0,0,0
				c0.1,0.2,0.2,0.2,0.4,0.2C855.4,459.9,855.5,459.7,855.4,459.6C855.4,459.6,855.4,459.6,855.4,459.6z M862.5,457.1
				c-0.1-0.2-0.2-0.2-0.4-0.2c0,0,0,0,0,0c-0.2,0.1-0.2,0.2-0.2,0.4c0.1,0.2,0.2,0.2,0.4,0.2C862.4,457.4,862.5,457.2,862.5,457.1
				C862.5,457.1,862.5,457.1,862.5,457.1z M859.5,473.9c-0.1-0.1-0.3-0.1-0.4,0c0,0,0,0,0,0c-0.1,0.1-0.1,0.3,0,0.4
				c0.1,0.1,0.3,0.1,0.4,0C859.6,474.2,859.6,474,859.5,473.9L859.5,473.9L859.5,473.9z M865.1,468.8c-0.1-0.1-0.3-0.1-0.4,0
				c0,0,0,0,0,0c-0.1,0.1-0.1,0.3,0,0.4l0,0c0.1,0.1,0.3,0.1,0.4,0l0,0C865.2,469.2,865.2,469,865.1,468.8
				C865.1,468.8,865.1,468.8,865.1,468.8L865.1,468.8z M870.7,463.8c-0.1-0.1-0.3-0.1-0.4,0c-0.1,0.1-0.1,0.3,0,0.4
				c0.1,0.1,0.3,0.1,0.4,0c0,0,0,0,0,0C870.8,464.1,870.8,463.9,870.7,463.8L870.7,463.8L870.7,463.8z M861.9,478.5
				c-0.1-0.1-0.3-0.1-0.4,0c-0.1,0.1-0.1,0.3,0,0.4c0.1,0.1,0.3,0.1,0.4,0C862,478.8,862,478.6,861.9,478.5L861.9,478.5L861.9,478.5
				z M867.2,473.2c-0.1-0.1-0.3-0.1-0.5,0c-0.1,0.1-0.1,0.3,0,0.4c0.1,0.1,0.3,0.1,0.4,0C867.3,473.5,867.3,473.3,867.2,473.2
				L867.2,473.2z M872.6,467.9c-0.1-0.1-0.3-0.1-0.4,0c-0.1,0.1-0.1,0.3,0,0.4c0.1,0.1,0.3,0.1,0.4,0
				C872.7,468.3,872.7,468.1,872.6,467.9L872.6,467.9z M877.9,462.7c-0.1-0.1-0.3-0.1-0.4,0c0,0,0,0,0,0c-0.1,0.1-0.1,0.3,0,0.4
				c0.1,0.1,0.3,0.1,0.4,0c0,0,0,0,0,0C878,463,878,462.8,877.9,462.7C877.9,462.7,877.9,462.7,877.9,462.7L877.9,462.7z
				 M879.9,476.9c-0.2-0.1-0.3,0-0.4,0.2c-0.1,0.2,0,0.3,0.2,0.4c0.2,0.1,0.3,0,0.4-0.2c0,0,0,0,0,0
				C880.1,477.2,880,477,879.9,476.9L879.9,476.9z M856.8,463.7c-0.1-0.2-0.2-0.2-0.4-0.2c0,0,0,0,0,0c-0.2,0.1-0.2,0.2-0.2,0.4
				c0.1,0.2,0.2,0.2,0.4,0.2C856.8,464,856.9,463.9,856.8,463.7C856.8,463.7,856.8,463.7,856.8,463.7L856.8,463.7z M863.8,460.9
				c-0.1-0.2-0.2-0.2-0.4-0.2c0,0,0,0,0,0c-0.2,0.1-0.2,0.2-0.2,0.4c0.1,0.2,0.2,0.2,0.4,0.2C863.8,461.2,863.9,461.1,863.8,460.9
				C863.8,460.9,863.8,460.9,863.8,460.9L863.8,460.9z M869.1,467.8c-0.1-0.1-0.2-0.1-0.3-0.1c0,0,0,0,0,0c-0.1,0.1-0.1,0.2-0.1,0.3
				c0.1,0.1,0.2,0.1,0.3,0.1C869.1,468.1,869.2,467.9,869.1,467.8z M873.9,464.8c-0.1-0.1-0.2-0.1-0.3-0.1c0,0,0,0,0,0
				c-0.1,0.1-0.1,0.2-0.1,0.3c0.1,0.1,0.2,0.1,0.3,0.1C873.9,465,873.9,464.9,873.9,464.8L873.9,464.8z M878.6,461.7
				c-0.1-0.1-0.2-0.1-0.3-0.1c-0.1,0.1-0.1,0.2-0.1,0.3c0.1,0.1,0.2,0.1,0.3,0.1C878.7,462,878.7,461.8,878.6,461.7L878.6,461.7z
				 M879.2,474.1c-0.1-0.1-0.2-0.1-0.3,0.1l0,0c-0.1,0.1,0,0.2,0.1,0.3c0.1,0.1,0.2,0,0.3-0.1C879.3,474.3,879.3,474.2,879.2,474.1
				C879.2,474.1,879.2,474.1,879.2,474.1L879.2,474.1z M882.4,469.5c-0.1-0.1-0.2,0-0.3,0.1c0,0,0,0,0,0c-0.1,0.1-0.1,0.2,0.1,0.3
				l0,0c0.1,0.1,0.3,0,0.3-0.1C882.6,469.7,882.5,469.5,882.4,469.5C882.4,469.5,882.4,469.5,882.4,469.5L882.4,469.5z M881.8,466.7
				c0-0.1-0.2-0.1-0.3-0.1c0,0,0,0,0,0c-0.1,0-0.2,0.1-0.1,0.2c0,0,0,0,0,0c0,0.1,0.2,0.2,0.3,0.1l0,0
				C881.8,467,881.8,466.8,881.8,466.7C881.8,466.7,881.8,466.7,881.8,466.7L881.8,466.7z"/>
			
				<linearGradient id="neck_1_" gradientUnits="userSpaceOnUse" x1="1624.359" y1="609.7093" x2="1627.5127" y2="584.4789" gradientTransform="matrix(1 0 0 1 -770.087 -228)">
				<stop  offset="0" style="stop-color:#FFCFCA"/>
				<stop  offset="1" style="stop-color:#F1ACA7"/>
			</linearGradient>
			<path id="neck_3_" class="st20" d="M851.6,360.9l10.6-0.2l-2,8.9c-3.3,1.8-10.3,9.9-10.3,9.9c1.7-5.8,2.3-12,1.9-18L851.6,360.9z
				"/>
			<path id="face_3_" class="st21" d="M866.1,351.4c-2.6,0.1-4.2-0.6-7.2-7.8c-1.5-3.9-2.4-8.1-2.5-12.3c-0.2,0.1-0.3,0.2-0.5,0.3
				c0,0-6.3,5.2-10.1,5.2c-5.1,0.1-5.2,1.2-3.4,5.6c0,0-4.6,18.6,15.8,20.5c0,0,1,0,2.3,0c1.2-3,3.4-5.1,5.3-5.5
				C870.4,356.7,868.7,351.2,866.1,351.4z"/>
			
				<linearGradient id="sweater_1_" gradientUnits="userSpaceOnUse" x1="1650.9724" y1="641.0256" x2="1584.2344" y2="659.6836" gradientTransform="matrix(1 0 0 1 -770.087 -228)">
				<stop  offset="0" style="stop-color:#A1C3FC"/>
				<stop  offset="0.6955" style="stop-color:#81AEF2"/>
				<stop  offset="1" style="stop-color:#78A9EF"/>
			</linearGradient>
			<path id="sweater_3_" class="st22" d="M895.3,425.8c-4.8-10.1-1.6-15.9-10.5-33c-5.2-10.2-12.5-19.2-21.4-26.4
				c-1.1,1-2.1,1.9-3,2.8l-0.1,0.5c-3.2,1.8-9.8,9.4-10.3,9.8l-14.4,55.7c34,37.4,60.1,25,60.1,25
				C906.8,448.3,900.1,435.8,895.3,425.8z"/>
			<path id="L_hand_3_" class="st21" d="M794.6,373.6c-4-6.1-3.6-6.8-1.5-10.1c2-3,4.3-5.9,6.9-8.5c1.2-1.1,0.6-3.4-2.9-1.9
				c-3.5,1.5-4.2,7.1-6.7,5.5c-2.4-1.5-4.8-8.6-6-14.1c-1.2-5.4-2-8.4-7.3-1.9c-5.3,6.5-7.7,13.2,2.7,26.6
				c6.8,8.4,11.3,18.4,13.1,29.1l11.1-11.7C800.6,382.4,797.4,378.1,794.6,373.6z"/>
			<path id="L_sleeve_3_" class="st23" d="M869.3,359.2v-0.4l-9.3,9.9l0.2,1c-1.5,1-3,2.2-4.3,3.5c0,0,0,0-0.1,0l-5.9,6.3l-0.1,0.1
				c0,0,0,0,0,0c0,0-4.8,11.2-15,17c-10.1,5.8-12.9,4.7-20.2-2.9c-7.3-7.6-8.5-9.6-8.5-9.6l-27.1,28.8c0,0,3.4,11.1,13.8,14.1
				c10.5,3,13.6,4.8,17.7,8.9c4.1,4.1,14.1,12.2,31.3,8.9C868.2,439.7,887.5,378.1,869.3,359.2z"/>
			
				<linearGradient id="hair_1_" gradientUnits="userSpaceOnUse" x1="1668.0315" y1="553.9721" x2="1641.1427" y2="584.0244" gradientTransform="matrix(1 0 0 1 -770.0869 -228)">
				<stop  offset="0" style="stop-color:#23286B"/>
				<stop  offset="1" style="stop-color:#151A4F"/>
			</linearGradient>
			<ellipse id="hair_3_" class="st24" cx="888.7" cy="336.3" rx="9.6" ry="9.6"/>
			<path id="nouth_1_" class="st25" d="M845.9,348.2c0.5-0.3,0-1-0.5-0.7c-0.5,0.3-1.1,0.5-1.7,0.4c-1.5-0.1-2.7-1.4-2.6-3
				c0-0.6-0.9-0.5-0.9,0.1c0,0.7,0.2,1.5,0.6,2.1C841.9,348.8,844.2,349.3,845.9,348.2L845.9,348.2z"/>
			<path id="hair-2_3_" class="st26" d="M909,391.2c0,0.5-0.7,0.5-0.7,0c0.5-7-3-13.8-9-17.4c-1.4-0.9-2.8-1.6-4.1-2.3
				c0.8,0.7,1.7,1.4,2.8,2.2c11.6,8.9,7.2,18.6,7.2,18.6c-15.1,10.1-37.5,3.7-37.5,3.7c2.6-6.4,1.2-13.8-3.7-18.7
				c-0.2-0.2-0.4-0.5-0.6-0.7c1.5,2.9,2.7,5.9,3.5,9.1c0.9,3.5-0.3,7.3-3.1,9.6c-0.3,0.3-0.9-0.2-0.5-0.5c8.9-7.7-3.4-17.5-3.5-26.1
				c0-0.3,0-0.5,0-0.8c-0.2-5.4,3.2-9.8,6.1-10.3c4.5-0.9,2.8-6.3,0.1-6.1c-2.6,0.1-4.2-0.6-7.2-7.8c-1.8-4.5-2.6-9.3-2.5-14.2
				c12.4-2.3,24.7,4.5,29.3,16.3c3.8,1.6,8.3,0.9,11.4-1.9c0.4-0.3,0.9,0.2,0.5,0.5c-3.2,2.8-7.6,3.7-11.6,2.3
				c0.6,1.7,0.9,3.6,1,5.4c0.1,6.5-0.1,9.8,2.2,13.4c0,0,0,0,0,0c0.1,0.2,0.2,0.4,0.4,0.5c0.7,1,1.6,1.9,2.4,2.7
				c3.9,3.3,9.4,4.7,12.7,8.9C907.8,381.4,909.3,386.2,909,391.2z"/>
		</g>
	</g>
</g>
</svg>
