<?xml version="1.0" encoding="utf-8"?>
<!-- Generator: Adobe Illustrator 23.0.0, SVG Export Plug-In . SVG Version: 6.00 Build 0)  -->
<svg version="1.1" id="레이어_1" xmlns="http://www.w3.org/2000/svg" xmlns:xlink="http://www.w3.org/1999/xlink" x="0px"
	 y="0px" width="172px" height="195px" viewBox="0 0 172 195" style="enable-background:new 0 0 172 195;" xml:space="preserve">
<style type="text/css">
	.st0{opacity:0.3;fill:#CEB6F0;enable-background:new    ;}
	.st1{fill:url(#SVGID_1_);}
</style>
<g>
	<path class="st0" d="M143.8,148.4c-1,0.9-2,1.8-3.1,2.7c5.2,4,8.6,10.3,8.6,17.4c0,12.1-9.9,22-22,22c-12,0-21.8-9.7-22-21.7
		c-1.3,0.3-2.6,0.6-4,0.8c0.6,13.8,12,24.9,26,24.9c14.3,0,26-11.7,26-26C153.3,160.4,149.6,153.2,143.8,148.4z"/>
	
		<linearGradient id="SVGID_1_" gradientUnits="userSpaceOnUse" x1="86.5119" y1="193.4556" x2="85.4693" y2="22.4587" gradientTransform="matrix(1 0 0 -1 0 195)">
		<stop  offset="0.1084" style="stop-color:#CEB6F0;stop-opacity:0"/>
		<stop  offset="1" style="stop-color:#CEB6F0;stop-opacity:0.3"/>
	</linearGradient>
	<path class="st1" d="M86,0C38.9,0,0.5,38.4,0.5,85.5S38.9,171,86,171c5.2,0,10.3-0.5,15.3-1.4c1.3-0.2,2.7-0.5,4-0.8
		c13.3-3.1,25.3-9.2,35.4-17.7c1-0.9,2.1-1.8,3.1-2.7c17-15.6,27.7-38.1,27.7-62.9C171.5,38.4,133.1,0,86,0z M29.5,85.5
		C29.5,54.3,54.8,29,86,29s56.5,25.3,56.5,56.5S117.2,142,86,142S29.5,116.7,29.5,85.5z"/>
</g>
</svg>
