<?xml version="1.0" encoding="utf-8"?>
<!-- Generator: Adobe Illustrator 23.0.0, SVG Export Plug-In . SVG Version: 6.00 Build 0)  -->
<svg version="1.1" id="레이어_1" xmlns="http://www.w3.org/2000/svg" xmlns:xlink="http://www.w3.org/1999/xlink" x="0px"
	 y="0px" width="669.4px" height="607px" viewBox="0 0 669.4 607" style="enable-background:new 0 0 669.4 607;"
	 xml:space="preserve">
<style type="text/css">
	.st0{fill:none;}
	.st1{fill:url(#SVGID_1_);}
	.st2{fill-rule:evenodd;clip-rule:evenodd;fill:#9EA2FF;}
	.st3{fill:#6B70FF;}
	.st4{fill:#FFFFFF;}
	.st5{fill:#F2D662;}
	.st6{fill-rule:evenodd;clip-rule:evenodd;fill:#489BF2;}
	.st7{fill-rule:evenodd;clip-rule:evenodd;fill:#FBB89D;}
	.st8{fill-rule:evenodd;clip-rule:evenodd;fill:#F7557E;}
	.st9{fill-rule:evenodd;clip-rule:evenodd;fill:#F27062;}
	.st10{fill-rule:evenodd;clip-rule:evenodd;fill:#FF7EB8;}
	.st11{fill-rule:evenodd;clip-rule:evenodd;fill:#EB569A;}
	.st12{fill-rule:evenodd;clip-rule:evenodd;fill:#FF61A9;}
	.st13{fill-rule:evenodd;clip-rule:evenodd;fill:#F2B79B;}
	.st14{fill-rule:evenodd;clip-rule:evenodd;fill:url(#SVGID_2_);}
	.st15{fill-rule:evenodd;clip-rule:evenodd;fill:url(#SVGID_3_);}
	.st16{fill-rule:evenodd;clip-rule:evenodd;fill:#E8836B;}
	.st17{fill-rule:evenodd;clip-rule:evenodd;fill:url(#SVGID_4_);}
	.st18{fill:#F2B79B;}
	.st19{fill:#F2B24B;}
	.st20{opacity:0.51;fill:url(#SVGID_5_);enable-background:new    ;}
	.st21{opacity:0.51;fill:url(#SVGID_6_);enable-background:new    ;}
	.st22{fill:#F27062;}
</style>
<pattern  y="607" width="655" height="607" patternUnits="userSpaceOnUse" id="SVGID_8_" viewBox="0 -607 655 607" style="overflow:visible;">
	<g>
		<rect y="-607" class="st0" width="655" height="607"/>
		<g>
			<rect y="-607" class="st0" width="655" height="607"/>
		</g>
	</g>
</pattern>
<pattern  y="607" width="655" height="607" patternUnits="userSpaceOnUse" id="SVGID_9_" viewBox="0 -607 655 607" style="overflow:visible;">
	<g>
		<rect y="-607" class="st0" width="655" height="607"/>
		<g>
			<rect y="-607" class="st0" width="655" height="607"/>
		</g>
	</g>
</pattern>
<g>
	
		<linearGradient id="SVGID_1_" gradientUnits="userSpaceOnUse" x1="343.3619" y1="882.4254" x2="683.4656" y2="884.812" gradientTransform="matrix(1 0 0 1 0 -342)">
		<stop  offset="0.2077" style="stop-color:#C4C6FF"/>
		<stop  offset="0.4838" style="stop-color:#D5D7FF;stop-opacity:0.6515"/>
		<stop  offset="1" style="stop-color:#FFFFFF;stop-opacity:0"/>
	</linearGradient>
	<path class="st1" d="M633.4,541.4c0,4.9-68.4,8.8-152.7,8.8s-152.7-4-152.7-8.8c0-4.9,68.4-8.8,152.7-8.8
		C565,532.5,633.4,536.5,633.4,541.4z"/>
	<g>
		<path class="st2" d="M354.2,192l-106.8,32.1c-1.6,0.5-3.3-0.4-3.8-2.1l-36-119.8c-0.5-1.6,0.4-3.3,2.1-3.8l106.7-32
			c1.6-0.5,3.3,0.4,3.8,2.1l36,119.8C356.7,189.8,355.8,191.5,354.2,192z"/>
		<path class="st3" d="M250.2,201.7l91.3-28.8l-34.9-40.6c0,0-10.3-5.8-15,9.9s-11.2,34.7-11.2,34.7l-14.7-10.7c0,0-4-3.8-7.6,6.4
			C254.4,182.7,250.2,201.7,250.2,201.7z"/>
		<path class="st4" d="M269.3,135.4c0,5.5-4.4,9.9-9.9,9.9s-9.9-4.4-9.9-9.9s4.4-9.9,9.9-9.9C264.9,125.5,269.3,130,269.3,135.4z"/>
	</g>
	<g>
		<path class="st5" d="M440.6,260.1c-1.1-15.1-52.7-43.8-52.7-43.8c-4.5-3.3-15-14.9-17.1-20.8c-2.9-7.8-18.7-56.4-18.7-56.4
			l-28.6,8.4c0,0,5.6,32.1,9.1,50.7c2.5,12.9,12.4,27.6,19.1,35.9c1.5,1.9,2.9,3.4,3.9,4.6c0,0,43,36,68.2,31.3
			C440.3,266.8,441.1,269.3,440.6,260.1z"/>
		<path class="st6" d="M461.5,484"/>
		<g>
			<path class="st7" d="M531.8,526.1l34.5-1.9c0,0,4.4,0.6,10.4,5.5c0,0,17.4,15.5,12,1.3s-9-23.2-16.6-26.7
				c-0.6-0.3-38.9-5.4-38.9-5.4L531.8,526.1z"/>
			<path class="st8" d="M577,520c3.5,10-0.3,9.7-0.3,9.7s17.4,15.5,12,1.3s-9-23.2-16.6-26.7c-0.1-0.1-1.5-0.3-3.6-0.6
				C570.5,503.8,573.5,510.1,577,520z"/>
			<path class="st9" d="M542.9,525.7l0.2-25.4l25.4,3.5c0,0-15.1,2.1-18.3,4.9C546.2,512,542.9,525.7,542.9,525.7z"/>
		</g>
		<path class="st10" d="M456.1,438.3c-2.7-12.3-9.1-34.5-9.1-34.5l-63.4,18.8c0,0,6.2,37.3,18.2,82.1c7.2,19.8,23.7,21.5,23.7,21.5
			c47.2,4.8,100.1,6.8,122.7,4.1l7.6-57.4c0,0-23.2-3.8-43.9-3.3c-17.7,0.1-12.9,9.6-38.7,2.6c-2.2-0.6-12.5-1.3-15.4-1.1
			C457.8,471.1,458.8,450.6,456.1,438.3z"/>
		<path class="st11" d="M457.8,471.1c0,0,1-20.5-1.7-32.8s-9.6-42-9.6-42l-65.9,21.1c0,0,1.5-1.8,5.9,18.7c0,0,25.9-7,44.8-1
			C450.1,441.2,457.8,471.1,457.8,471.1z"/>
		<g>
			<path class="st7" d="M332.5,485.2l2.5,34.4c0,0-0.5,4.4-5.3,10.5c0,0-15.2,17.7-1.1,12s23-9.4,26.4-17.1
				c0.3-0.6,4.7-38.9,4.7-38.9L332.5,485.2z"/>
			<path class="st8" d="M339.4,530.3c-9.9,3.7-9.7-0.1-9.7-0.1s-15.2,17.7-1.1,12s23-9.4,26.4-17.1c0.1-0.1,0.2-1.5,0.5-3.6
				C355.6,523.5,349.4,526.6,339.4,530.3z"/>
			<path class="st9" d="M333.2,496.3l25.4-0.2l-3,25.4c0,0-2.4-15-5.2-18.2C346.9,499.4,333.2,496.3,333.2,496.3z"/>
		</g>
		<g>
			<path class="st10" d="M409.3,417.2c38.6-4.4,47.8-30,49-46.4l-50.8-16.7l-19.9,10c0,0-72.1,3.1-88.1,23.4
				c-12.9,18.1-8.9,27.5-8.9,27.5c8.4,35.4,13.8,103.2,13.8,103.2l72.8-3.9c0,0,4.7,0.1-6.7-18.3c-11.3-18.4,0.2-18.9-3.5-43.8
				c-2.6-17.5-3.2-20.1-13-30.3c0,0,0.7,1.1,15.9-0.1C385.1,420.7,409.3,417.2,409.3,417.2z"/>
			<path class="st12" d="M352.6,515.3l24.6-1c0,0,4.7,0.1-6.7-18.3c-11.3-18.4,0.2-18.9-3.5-43.8c-2.6-17.5-3.2-20.1-13-30.3
				c0,0,0.7,1.1,15.9-0.1c15.2-1.2,39.5-4.7,39.5-4.7c38.6-4.4,47.8-30,49-46.4l-16.7-5.7c0,0-5.1,23-25.6,26.4
				s-58.2,17.1-70.2,16.3s-24-0.9-24-0.9s18.8,18.8,24,35.9c5.1,17.1,5.1,42.8,6,51.3C352.6,502.7,352.6,515.3,352.6,515.3z"/>
		</g>
		<path class="st13" d="M429.3,210.2c0,0-5.3,28-5.9,29s3.7,2.9,8.7,4.1l10.5-31L429.3,210.2z"/>
		<path class="st9" d="M429,213c0,0,8.6,3.3,12.8,2.5L425.6,229L429,213z"/>
		
			<linearGradient id="SVGID_2_" gradientUnits="userSpaceOnUse" x1="401.6745" y1="645.4272" x2="469.1433" y2="649.2726" gradientTransform="matrix(1 0 0 1 0 -342)">
			<stop  offset="0" style="stop-color:#F2EFE3"/>
			<stop  offset="1" style="stop-color:#F2E9C6"/>
		</linearGradient>
		<path class="st14" d="M382.8,364c0,0-2.2-35.7,1.3-66.2c3.3-28.2,15.7-54.6,31.4-61c1.8-0.7,3.7-0.8,5.5-0.2
			c1.8,0.7,5.3,1.3,11.9,1.2c12.1-0.4,28.8,8.6,31.6,29.1c2.8,20.6,2.2,60.6-1.3,85c-3.5,24.5-5.5,22.9-5.5,22.9L382.8,364"/>
		<path class="st13" d="M422.9,192.3c3.5-8.9,14.1-13.1,23.8-9.3c9.6,3.8,14.7,14,11.2,22.9s-14.1,13.1-23.8,9.3
			C424.4,211.4,419.4,201.2,422.9,192.3z"/>
		<path class="st9" d="M422.3,195.4l-5,2.4c-0.6,0.2-0.5,1.1,0.1,1.2c1.2,0.3,2.9,0.6,5,1.2L422.3,195.4z"/>
		<path class="st6" d="M434.1,205.8"/>
		
			<linearGradient id="SVGID_3_" gradientUnits="userSpaceOnUse" x1="464.6595" y1="102.8268" x2="466.1195" y2="102.8268" gradientTransform="matrix(0.9317 0.3631 -0.3631 0.9317 33.9202 -69.1404)">
			<stop  offset="0" style="stop-color:#1A1A9D"/>
			<stop  offset="1" style="stop-color:#131057"/>
		</linearGradient>
		<path class="st15" d="M430.9,195.9c-0.3,0.8-0.9,1.4-1.3,1.3c-0.4-0.1-0.4-0.9-0.1-1.8c0.3-0.8,0.9-1.4,1.3-1.3
			C431.1,194.2,431.2,195,430.9,195.9z"/>
		<path class="st16" d="M436.3,205.4c-0.7,1.9-2.9,2.7-4.8,2c-1.9-0.8-2.9-2.9-2.2-4.7c0.7-1.9,2.9-2.7,4.8-2
			C436.1,201.5,437.1,203.6,436.3,205.4z"/>
		
			<linearGradient id="SVGID_4_" gradientUnits="userSpaceOnUse" x1="474.2915" y1="79.7437" x2="475.3901" y2="104.1327" gradientTransform="matrix(0.9317 0.3631 -0.3631 0.9317 33.9202 -69.1404)">
			<stop  offset="0" style="stop-color:#1A1A9D"/>
			<stop  offset="1" style="stop-color:#131057"/>
		</linearGradient>
		<path class="st17" d="M460.5,197.3c-0.7-3.7-2-7.5-5.9-11.6c0,0-4.8-4.2-10.8-6.6c-3.2-1.3-5.5-4-9.3-7.6
			c-3.7-3.6-11.9-4.3-15.3-0.3s-4.2,11.2,4.6,17.8c8.2,6.2,12.2,3.8,18.7,6.9c1,0.5,1.9,1.1,2.7,1.9c1.4,1.5,3.5,4.3,3.4,7.7
			c-0.1,4.7-10.2,11.9-13.1,12.2c-0.3,0,7.4,3.2,14.8,5.6c7.4,2.3,10.5,3,10.5,3S461.5,202.6,460.5,197.3z"/>
		<path class="st18" d="M332.8,144.4c0,0-9.6-12.3-8.8-14.9c0.9-2.6,7.9,5.7,10.1,3.1c1.2-1.4-2.2-22.8-2.2-22.8s4.8,2.6,8.3,11.8
			s5.8,19.6,5.8,19.6L332.8,144.4z"/>
		<path class="st19" d="M348.7,229.9c0,0,8.8,13.1,25.4,23.7l27.2-6.6c0,0,2.6-6.1,14.9-11.4c0,0-25.4,0.4-43.9-2.2
			c-18.4-2.6-28.1-9.2-28.1-9.2L348.7,229.9z"/>
		<pattern  id="SVGID_5_" xlink:href="#SVGID_8_" patternTransform="matrix(1.7591 0 0 1.7579 18675.25 36465.5742)">
		</pattern>
		<path class="st20" d="M440.6,260.1c-1.1-15.1-52.7-43.8-52.7-43.8c-4.5-3.3-15-14.9-17.1-20.8c-2.9-7.8-18.7-56.4-18.7-56.4
			l-28.6,8.4c0,0,5.6,32.1,9.1,50.7c2.5,12.9,12.4,27.6,19.1,35.9c1.5,1.9,2.9,3.4,3.9,4.6c0,0,43,36,68.2,31.3
			C440.3,266.8,441.1,269.3,440.6,260.1z"/>
		<path class="st13" d="M296,224.7c0,0-9.5-6.1-13-11.8c-3.4-5.7-24.9-22.9-26.3-14.6c-1.4,8.4,7.9,20.6,15.8,28.1
			s14.8,11.4,14.8,11.4L296,224.7z"/>
		<path class="st5" d="M452.5,243.6c-13.6-11.9-72.8,5.1-72.8,5.1c-6.1,0.3-23.8-2.4-30.4-5.8c-8.8-4.6-52.3-29.2-52.3-29.2
			l-18.2,26.9c0,0,26.1,17.2,44.6,30.4c15.7,11.3,42,17.1,51.5,18.3c0,0,62.5,1.1,77.1-19.9C461.4,255.7,460.6,251,452.5,243.6z"/>
		<pattern  id="SVGID_6_" xlink:href="#SVGID_9_" patternTransform="matrix(1.7591 0 0 1.7579 18630.5488 36540.1758)">
		</pattern>
		<path class="st21" d="M452.5,243.6c-13.6-11.9-72.8,5.1-72.8,5.1c-6.1,0.3-23.8-2.4-30.4-5.8c-8.8-4.6-52.3-29.2-52.3-29.2
			l-18.2,26.9c0,0,26.1,17.2,44.6,30.4c15.7,11.3,42,17.1,51.5,18.3c0,0,62.5,1.1,77.1-19.9C461.4,255.7,460.6,251,452.5,243.6z"/>
		<path class="st22" d="M270,224.2c0,0,11,11,13.2,11l9.6-14.5C292.8,220.7,277.5,227.7,270,224.2z"/>
		<path class="st22" d="M332.8,144.4l13.2-3.2l-3.6-13.1C342.4,128.2,342,141.3,332.8,144.4z"/>
	</g>
</g>
</svg>
