<?xml version="1.0" encoding="utf-8"?>
<!-- Generator: Adobe Illustrator 23.0.0, SVG Export Plug-In . SVG Version: 6.00 Build 0)  -->
<svg version="1.1" id="레이어_1" xmlns="http://www.w3.org/2000/svg" xmlns:xlink="http://www.w3.org/1999/xlink" x="0px"
	 y="0px" width="171px" height="195px" viewBox="0 0 171 195" style="enable-background:new 0 0 171 195;" xml:space="preserve">
<style type="text/css">
	.st0{fill:none;}
	.st1{opacity:0.33;fill:#EFCED6;enable-background:new    ;}
</style>
<g>
	<circle class="st0" cx="85.5" cy="85.5" r="56.5"/>
	<path class="st0" d="M126.8,190.5c12.1,0,22-9.9,22-22c0-7.1-3.4-13.4-8.6-17.4c-10.1,8.4-22.2,14.6-35.4,17.7
		C104.9,180.8,114.8,190.5,126.8,190.5z"/>
	<path class="st1" d="M143.3,148.4c-1,0.9-2,1.8-3.1,2.7c5.2,4,8.6,10.3,8.6,17.4c0,12.1-9.9,22-22,22c-12,0-21.8-9.7-22-21.7
		c-1.3,0.3-2.6,0.6-4,0.8c0.6,13.8,12,24.9,26,24.9c14.3,0,26-11.7,26-26C152.8,160.4,149.1,153.2,143.3,148.4z"/>
	<path class="st1" d="M85.5,0C38.4,0,0,38.4,0,85.5S38.4,171,85.5,171c5.2,0,10.3-0.5,15.3-1.4c1.3-0.2,2.7-0.5,4-0.8
		c13.3-3.1,25.3-9.2,35.4-17.7c1-0.9,2.1-1.8,3.1-2.7c17-15.6,27.7-38.1,27.7-62.9C171,38.4,132.6,0,85.5,0z M29,85.5
		C29,54.3,54.3,29,85.5,29S142,54.3,142,85.5S116.7,142,85.5,142S29,116.7,29,85.5z"/>
</g>
</svg>
