<?xml version="1.0" encoding="utf-8"?>
<!-- Generator: Adobe Illustrator 23.0.0, SVG Export Plug-In . SVG Version: 6.00 Build 0)  -->
<svg version="1.1" id="레이어_1" xmlns="http://www.w3.org/2000/svg" xmlns:xlink="http://www.w3.org/1999/xlink" x="0px"
	 y="0px" width="68px" height="15px" viewBox="0 0 68 15" style="enable-background:new 0 0 68 15;" xml:space="preserve">
<style type="text/css">
	.st0{fill:#C7D7FF;}
</style>
<g>
	<path class="st0" d="M7.5,15C3.4,15,0,11.6,0,7.5S3.4,0,7.5,0C11.7,0,15,3.4,15,7.5C15.1,11.6,11.7,15,7.5,15z M7.5,2.8
		c-2.6,0-4.8,2.1-4.8,4.7s2.1,4.7,4.8,4.7c2.6,0,4.8-2.1,4.8-4.7S10.2,2.8,7.5,2.8z"/>
	<path class="st0" d="M34,15c-4.2,0-7.5-3.4-7.5-7.5S29.8,0,34,0s7.5,3.4,7.5,7.5S38.2,15,34,15z M34,2.8c-2.6,0-4.8,2.1-4.8,4.7
		s2.1,4.7,4.8,4.7c2.6,0,4.8-2.1,4.8-4.7S36.6,2.8,34,2.8z"/>
	<path class="st0" d="M60.5,15c-4.2,0-7.5-3.4-7.5-7.5S56.4,0,60.5,0S68,3.4,68,7.5S64.6,15,60.5,15z M60.5,2.8
		c-2.6,0-4.8,2.1-4.8,4.7s2.1,4.7,4.8,4.7c2.6,0,4.8-2.1,4.8-4.7C65.2,4.9,63.1,2.8,60.5,2.8z"/>
</g>
</svg>
