<?xml version="1.0" encoding="utf-8"?>
<!-- Generator: Adobe Illustrator 23.0.0, SVG Export Plug-In . SVG Version: 6.00 Build 0)  -->
<svg version="1.1" id="레이어_1" xmlns="http://www.w3.org/2000/svg" xmlns:xlink="http://www.w3.org/1999/xlink" x="0px"
	 y="0px" width="669.4px" height="607px" viewBox="0 0 669.4 607" style="enable-background:new 0 0 669.4 607;"
	 xml:space="preserve">
<style type="text/css">
	.st0{fill:#EFC7B7;}
	.st1{fill:#FCB813;}
	.st2{fill:#FFDD00;}
	.st3{fill:#FCDCCE;}
	.st4{fill:#26247B;}
	.st5{fill:#E6E7E8;}
	.st6{fill:#FFFFFF;}
	.st7{fill:#293895;}
</style>
<g>
	<path class="st0" d="M405.5,97.7c0,0-2.3,14.6,9.9,26.6l-14,14.7l-16.1-14.1l1-3.3l6.4-16.3L405.5,97.7z"/>
	<path class="st1" d="M355.8,240.9l-83.1-1.8c0,0-12,0.2-11.2,18.5c1.3,28.4,25.3,85.4,25.3,85.4l10.3-1.4c0,0,18-37.3,2.3-68.7
		c0,0,14.3,12.7,52.5,14.1l21.8-30.8L355.8,240.9z"/>
	<path class="st2" d="M363.9,251.2l-64.5,53.6c0,0-8.3,5.5-5.3,18.1c2.8,11.8,23.7,104.8,23.7,104.8l10.4-0.1
		c0,0,25.1-67.8,4.5-99.1c0,0,42.3,6.4,88.3-34.6L363.9,251.2z"/>
	<g>
		<path class="st3" d="M328.3,427.5l0.1,7.4l-8.9,9.3l-12.1-3.7c0,0,10-2.9,10.4-13L328.3,427.5z"/>
		<path class="st4" d="M328.3,430.3l0.1,11.2c0,0,0.5,4.1-3.8,4.2c-4.2,0.1-16.2,0.2-16.2,0.2s-4.2,0.3-4.3-1.9
			c0-3.4,5-5.2,10.8-6.1C320.6,437.2,327.1,434.4,328.3,430.3z"/>
	</g>
	<g>
		<path class="st3" d="M297.1,341.6l1.1,7.3l-7.7,10.4l-12.4-2.1c0,0,9.6-4.1,8.7-14.2L297.1,341.6z"/>
		<path class="st4" d="M297.5,344.4l1.5,11.1c0,0,1,4-3.2,4.6s-16,2.3-16,2.3s-4.1,0.9-4.5-1.4c-0.5-3.4,4.3-5.8,9.9-7.4
			C290.6,352.2,296.8,348.6,297.5,344.4z"/>
	</g>
	<g>
		<path class="st3" d="M362.1,13.6c0,0,4.2-8.4,7.2-11.3s-8-5.6-15.5,8.2L362.1,13.6z"/>
		<path class="st5" d="M353.7,10.5c0,0-46.8,68.3,1.9,129.9c0,0,23.7,30.4,38.1,5.3c13.4-23.2-54.3-35.5-31.6-132.2L353.7,10.5z"/>
	</g>
	<path class="st6" d="M354,240.4c0,0-10.6-38.9,3.3-82.5c7.7-24.1,15.2-30.3,15.2-30.3l14.2-5.3c0,0,13.5,11.3,28.7,2
		c0,0,18.8,1.8,30.6,27.6c18.6,40.9-24.9,142-24.9,142S372.9,286.8,354,240.4z"/>
	<path class="st3" d="M405.4,87.3l0.1,8.3c0,0,3.3,28.7-15.6,29.2c-13.6,0.3-19.7-30.5-19.7-30.5L405.4,87.3z"/>
	<path class="st4" d="M386.1,82.2c0,0,17.5,1.9,30.3,29.1c10.1,21.5,25.9,29.6,62.6,20c39.7-10.3,43,12.5,56.9,4.5
		c15.1-8.6,6.1-28.6-17-42.2c-17.7-10.4-40.4,11.9-61.7-8.5c-33.8-32.5-58.6-18.8-69.8-10.6L386.1,82.2z"/>
	<path class="st7" d="M375,97.2c13.9-5.4,30.4,8.7,30.4,8.7s12.3-13.5-0.2-26.9C380,52,351.5,106.3,375,97.2z"/>
	<g>
		<path class="st3" d="M409.8,298.1c0,0-6.8,8.6-11,11.2c-4.1,2.6,7.9,8.3,19.7-5.8L409.8,298.1z"/>
		<path class="st5" d="M418.6,303.6c0,0,69.8-67.3,28.6-149.3c0,0-19.9-40.3-42.4-15c-20.8,23.4,53.8,53.3,5,158.8L418.6,303.6z"/>
	</g>
</g>
</svg>
