<?xml version="1.0" encoding="utf-8"?>
<!-- Generator: Adobe Illustrator 23.0.0, SVG Export Plug-In . SVG Version: 6.00 Build 0)  -->
<svg version="1.1" id="레이어_1" xmlns="http://www.w3.org/2000/svg" xmlns:xlink="http://www.w3.org/1999/xlink" x="0px"
	 y="0px" width="669.4px" height="607px" viewBox="0 0 669.4 607" style="enable-background:new 0 0 669.4 607;"
	 xml:space="preserve">
<style type="text/css">
	.st0{fill:#A4AAC6;}
</style>
<path class="st0" d="M525.6,590l54.1-32.5l8.5,14.3l4.2-2.5L464.8,355l-4.2,2.5l8.6,14.5l-54.1,32.5l-8.5-14.3l-4.2,2.5L530,607
	l4.2-2.5L525.6,590z M490.8,408.2l-54.1,32.5l-8.3-13.9l54.1-32.5L490.8,408.2z M501.6,426.4l-54.1,32.5l-8.3-13.9l54.1-32.5
	L501.6,426.4z M504.1,430.6l8.3,13.9L458.3,477l-8.3-13.9L504.1,430.6z M514.9,448.7l8.3,13.9l-54.1,32.5l-8.3-13.9L514.9,448.7z
	 M525.7,466.9l8.3,13.9l-54.1,32.5l-8.3-13.9L525.7,466.9z M536.5,485l8.3,13.9l-54.1,32.5l-8.3-13.9L536.5,485z M547.3,503.2
	l8.3,13.9l-54.1,32.5l-8.3-13.9L547.3,503.2z M558.1,521.3l8.3,13.9l-54.1,32.5l-8.3-13.9L558.1,521.3z M471.7,376.2l8.3,13.9
	l-54.1,32.5l-8.3-13.9L471.7,376.2z M523.1,585.8l-8.3-13.9l54.1-32.5l8.3,13.9L523.1,585.8z"/>
</svg>
