<?xml version="1.0" encoding="utf-8"?>
<!-- Generator: Adobe Illustrator 23.0.0, SVG Export Plug-In . SVG Version: 6.00 Build 0)  -->
<svg version="1.1" id="레이어_1" xmlns="http://www.w3.org/2000/svg" xmlns:xlink="http://www.w3.org/1999/xlink" x="0px"
	 y="0px" width="171px" height="194px" viewBox="0 0 171 194" style="enable-background:new 0 0 171 194;" xml:space="preserve">
<style type="text/css">
	.st0{fill:none;}
	.st1{fill:url(#SVGID_1_);}
	.st2{opacity:0.2;fill:none;stroke:#FFFFFF;stroke-width:3;stroke-miterlimit:10;}
</style>
<g>
	<g>
		<circle class="st0" cx="85.5" cy="85.5" r="56.5"/>
		<linearGradient id="SVGID_1_" gradientUnits="userSpaceOnUse" x1="0" y1="85.5" x2="170.9999" y2="85.5">
			<stop  offset="0" style="stop-color:#C7EBF1;stop-opacity:0"/>
			<stop  offset="1" style="stop-color:#C7EBF1"/>
		</linearGradient>
		<path class="st1" d="M85.5,0C38.4,0,0,38.4,0,85.5S38.4,171,85.5,171c5.2,0,10.3-0.5,15.3-1.4c1.3-0.2,2.7-0.5,4-0.8
			c13.3-3.1,25.3-9.2,35.4-17.7c1-0.9,2.1-1.8,3.1-2.7c17-15.6,27.7-38.1,27.7-62.9C171,38.4,132.6,0,85.5,0z M29,85.5
			C29,54.3,54.3,29,85.5,29c31.2,0,56.5,25.3,56.5,56.5S116.7,142,85.5,142C54.3,142,29,116.7,29,85.5z"/>
	</g>
	<circle class="st2" cx="127" cy="168.7" r="23.8"/>
</g>
</svg>
