<svg xmlns="http://www.w3.org/2000/svg" width="298.511" height="101.825" viewBox="0 0 298.511 101.825">
  <g id="그룹_9" data-name="그룹 9" transform="translate(4708.711 421.889)">
    <g id="그룹_4" data-name="그룹 4" transform="translate(-4708.711 -421.889)">
      <path id="패스_20" data-name="패스 20" d="M-4703.615-369.006a48.868,48.868,0,0,1,48.862-48.863,48.865,48.865,0,0,1,44.5,28.7,50.925,50.925,0,0,0-47.549-32.72,50.918,50.918,0,0,0-50.913,50.913,50.918,50.918,0,0,0,50.913,50.913c.956,0,1.9-.031,2.848-.083A48.866,48.866,0,0,1-4703.615-369.006Z" transform="translate(4708.711 421.889)" fill="#004a9c" fill-rule="evenodd"/>
    </g>
    <g id="그룹_8" data-name="그룹 8" transform="translate(-4698.281 -392.846)">
      <g id="그룹_7" data-name="그룹 7" transform="translate(0 0)">
        <g id="그룹_5" data-name="그룹 5">
          <path id="패스_21" data-name="패스 21" d="M-4453.5,192.369a17.269,17.269,0,0,1-4.672-.85,9.462,9.462,0,0,1-4.029-3.145l-9.348-11.172q-5.495-6.585-7.527-8.73t-2.033-2.886q0-.591,2.211-2.4t4-3.515q2.285-2.146,4.995-4.662l2.711-2.515a30.454,30.454,0,0,1,4.888-3.663,12.3,12.3,0,0,1,6.168-1.59v-2.886l-3.745.074q-3.743.076-6.669.075t-6.813-.075l-3.889-.074v3.033a17.149,17.149,0,0,1,4.175.444,2.18,2.18,0,0,1,1.747,2.368q0,1.406-3.424,4.625t-6.421,5.807q-3.78,3.4-7.063,6.178a23.487,23.487,0,0,1-3.567,2.775.713.713,0,0,1-.784-.555,4.548,4.548,0,0,1-.143-1.147V153.748q0-3.7,1.676-4.994t6.671-1.369v-3.033l-4,.112q-3.993.11-6.919.111-2.711,0-6.386-.111l-3.674-.112v3.033q4.422,0,6.064,1.369t1.642,4.994V186.3q0,3.7-1.749,4.958t-5.957,1.331v3.182l3.674-.075q3.675-.074,6.386-.074,2.925,0,6.919.074l4,.075v-3.182q-5-.147-6.671-1.294t-1.676-4.994v-8.879c0-.69.022-1.3.072-1.812s.094-.9.143-1.147q.854-.814,3.6-3.182t3.246-2.368a2.664,2.664,0,0,1,.819.555,20.384,20.384,0,0,1,2.247,2.478l12.558,15.464a12.416,12.416,0,0,1,1,1.184,3.412,3.412,0,0,1,.644,1.405,1.529,1.529,0,0,1-1,2.035,7.1,7.1,0,0,1-2.285.481h-3.854v3.255l4-.075q4-.074,6.92-.074,3.068,0,7.1.074l4.029.075Z" transform="translate(4505.363 -144.351)" fill="#004a9c"/>
          <path id="패스_22" data-name="패스 22" d="M-3487.765,184.3q-2.5,6.141-5.635,7.288a18.794,18.794,0,0,1-6.493,1.146q-8.2,0-11.593-1.072t-3.388-5.364V153.821q0-3.846,1.713-5.068t7.206-1.294v-3.108h-21.688v3.255q4.848,0,6.419,1.259t1.57,4.956V186.3q0,3.772-1.57,4.882t-6.419,1.259v3.329h23.685q3.568-.074,8.6-.038t6.956.038l3-11.246Z" transform="translate(3577.793 -144.351)" fill="#004a9c"/>
        </g>
        <g id="그룹_6" data-name="그룹 6" transform="translate(103.459 17.661)">
          <path id="패스_23" data-name="패스 23" d="M-2456.112,494.016c-3.533.045-4.546.794-4.546,3.575V523.2l-20.712-26.8v20.93c0,2.958,1.148,3.444,4.549,3.707v1.813s-3.489-.09-5.61-.09c-2.029,0-5.871.09-5.871.09v-1.813c3.974-.087,4.768-.794,4.768-3.707V497.591c0-2.781-.617-3.575-4.591-3.662v-1.813h7.639l17.619,22.743V497.591c0-2.781-.752-3.488-4.681-3.575v-1.9s3.575.135,5.7.135c2.029,0,5.739-.135,5.739-.135Z" transform="translate(2488.302 -491.939)" fill="#004a9c"/>
          <path id="패스_24" data-name="패스 24" d="M-1787.815,676.737c-2.826,3.8-6.051,5.122-9.362,5.08-5.035-.045-9.1-4.771-9.1-10.555,0-7.639,4.681-12.1,10.112-12.1a7.522,7.522,0,0,1,7.9,7.861v2.029h-15.057a6,6,0,0,0-.045,1.325c.267,5.565,3.446,9.23,7.771,9.23,1.99,0,4.5-1.546,6.89-3.842Zm-8.964-15.677c-2.341,0-5.388,1.855-6.272,5.964h9.716c1.1,0,1.765-.443,1.723-1.945C-1791.7,662.96-1794,661.06-1796.779,661.06Z" transform="translate(1841.255 -650.418)" fill="#004a9c"/>
          <path id="패스_25" data-name="패스 25" d="M-1362.655,606.6a6.991,6.991,0,0,1-2.3,3.135,4.08,4.08,0,0,1-2.958.971,4.2,4.2,0,0,1-3.356-1.633,8.569,8.569,0,0,1-.971-4.594v-11.7c0-1.016-.045-2.472-2.6-2.472v-1.193l4.636-4.858h1.19v3.929h5.565v2.077h-5.652V603.6a8.667,8.667,0,0,0,.53,3.531,1.751,1.751,0,0,0,1.765.929c1.016,0,1.987-.662,2.871-2.209Z" transform="translate(1431.952 -579.354)" fill="#004a9c"/>
          <path id="패스_26" data-name="패스 26" d="M-1049.974,665.3c-1.765.087-2.958.971-3.884,3.267l-7.022,17.664c-.839-2.119-2.43-6.977-4.813-13.336l-5.256,13.291c-.528-1.238-6.357-17.4-6.357-17.4-.8-2.164-1.282-3.312-3.932-3.623v-1.588c1.459,0,6.4.264,10.246.264,3.62,0,9.1-.264,9.713-.264v1.633c-2.694.222-4.106.443-3.531,2.119l4.193,12.278,4.151-10.069c.662-1.633,1.369-3.842-1.589-4.5v-1.544a28.913,28.913,0,0,0,3.752.309c2.739,0,2.871.042,4.328.042Zm-16.78,5.209-1.678-4.5a12.378,12.378,0,0,0-4.238-.4c-2.164.219-2.3,1.193-1.723,2.871l3.932,11.436Z" transform="translate(1153.409 -654.518)" fill="#004a9c"/>
          <path id="패스_27" data-name="패스 27" d="M-437.7,682.779c-4.639,0-9.716-3.62-9.716-11.349,0-6.623,4.2-11.391,10.157-11.391,4.858,0,9.89,4.238,9.89,11.436C-427.368,678.5-432.091,682.779-437.7,682.779Zm.309-20.888c-3.048,0-7.022,3.18-7.022,8.745,0,6.225,2.871,10.244,6.845,10.244,3.884,0,7.064-3.8,7.064-8.389C-430.5,665.028-433.859,661.89-437.389,661.89Z" transform="translate(552.095 -651.248)" fill="#004a9c"/>
          <path id="패스_28" data-name="패스 28" d="M16.517,660.565a2.255,2.255,0,0,0-2.077,0,13.078,13.078,0,0,0-2.913,3.267v10.156c0,2.251.441,3,3.444,3.135v1.81c-1.37,0-3.048-.042-4.813-.042-1.855,0-4.636.042-4.636.042v-1.765c2.251-.045,3.135-1.148,3.135-2.958V662.285c0-1.675-.929-2.029-2.3-2.341v-1.013l4.283-2.341h.884v4.546c.617-.881,1.457-1.942,1.72-2.3a5.681,5.681,0,0,1,3.974-2.119c1.987,0,2.649,1.235,2.649,2.164C19.87,660.122,19.43,661.581,16.517,660.565Z" transform="translate(122.392 -647.978)" fill="#004a9c"/>
          <path id="패스_29" data-name="패스 29" d="M338.475,519.669s-3.533-.132-5.475-.132c-1.9,0-5.3.132-5.3.132V517.55c1.148.354,3.18.177,3.18-.53a6.448,6.448,0,0,0-1.016-1.723c-.884-1.016-4.151-5.386-5.167-6.8-1.855,1.325-4.064,2.916-4.064,3.974l.045,3.357c0,1.016.222,1.942,2.649,2.032v1.678c-2.428-.132-2.826-.132-4.328-.132-1.588,0-2.6.087-4.283.132v-1.591c1.367-.219,2.868-.4,2.868-2.251V494.588c0-.971-.486-2.119-2.736-2.781v-1.148l4.549-1.99h1.28V508.94c2.251-1.813,9.186-7.6,9.228-8.568,0-.926-.573-.839-3.575-.794v-1.987s3.62.132,5.607.132c2.077,0,5.7-.132,5.7-.132v2.032c-2.649-.045-3.357.7-4.9,1.588a80.1,80.1,0,0,0-6.18,5.3c0,.443,5.871,7.42,6.8,8.655a6.855,6.855,0,0,0,5.122,2.6Z" transform="translate(-170.946 -488.669)" fill="#004a9c"/>
          <path id="패스_30" data-name="패스 30" d="M807.005,685.782a14.6,14.6,0,0,1-7.022-1.987L799.5,679.2l1.5-.177c1.061,2.871,2.736,4.99,6.183,4.99,2.958,0,5.032-1.412,5.032-3.312,0-1.148-.042-2.472-5.386-5.388-.53-.309-1.061-.573-1.678-.926-3.135-1.81-4.417-3.356-4.549-5.254-.177-2.826,3.18-5.652,8.083-5.652a22.913,22.913,0,0,1,6.578,1.28L815,669.446h-1.414c-.794-2.209-1.457-4.285-4.9-4.285-1.768,0-4.9.62-4.9,3.093,0,1.193.662,2.341,5.565,5.077.528.309,1.058.62,1.633.929,3.267,1.81,4.5,3.62,4.5,5.43C815.484,682.914,812.568,685.782,807.005,685.782Z" transform="translate(-630.861 -654.518)" fill="#004a9c"/>
        </g>
      </g>
    </g>
  </g>
</svg>
